<svg width="72" height="72" viewBox="0 0 72 72" fill="none" xmlns="http://www.w3.org/2000/svg">
<path d="M68.4 6H40.8C39.8452 6 38.9295 6.37928 38.2544 7.05442C37.5793 7.72955 37.2 8.64522 37.2 9.6V15.6612C36.8016 15.636 36.4056 15.6 36 15.6C35.5944 15.6 35.1984 15.636 34.8 15.6612V9.6C34.8 8.64522 34.4207 7.72955 33.7456 7.05442C33.0705 6.37928 32.1548 6 31.2 6H3.6C2.64522 6 1.72955 6.37928 1.05442 7.05442C0.379285 7.72955 0 8.64522 0 9.6V60C0 60.9548 0.379285 61.8704 1.05442 62.5456C1.72955 63.2207 2.64522 63.6 3.6 63.6H31.2C32.1548 63.6 33.0705 63.2207 33.7456 62.5456C34.4207 61.8704 34.8 60.9548 34.8 60V53.9388C35.1984 53.964 35.5944 54 36 54C36.4056 54 36.8016 53.964 37.2 53.9388V60C37.2 60.9548 37.5793 61.8704 38.2544 62.5456C38.9295 63.2207 39.8452 63.6 40.8 63.6H68.4C69.3548 63.6 70.2705 63.2207 70.9456 62.5456C71.6207 61.8704 72 60.9548 72 60V9.6C72 8.64522 71.6207 7.72955 70.9456 7.05442C70.2705 6.37928 69.3548 6 68.4 6ZM40.8 8.4H68.4C68.7183 8.4 69.0235 8.52643 69.2485 8.75147C69.4736 8.97652 69.6 9.28174 69.6 9.6V10.8H39.6V9.6C39.6 9.28174 39.7264 8.97652 39.9515 8.75147C40.1765 8.52643 40.4817 8.4 40.8 8.4ZM9.6 8.4H25.2V10.8C25.2 11.1183 25.0736 11.4235 24.8485 11.6485C24.6235 11.8736 24.3183 12 24 12H10.8C10.4817 12 10.1765 11.8736 9.95147 11.6485C9.72643 11.4235 9.6 11.1183 9.6 10.8V8.4ZM32.4 60C32.4 60.3183 32.2736 60.6235 32.0485 60.8485C31.8235 61.0736 31.5183 61.2 31.2 61.2H3.6C3.28174 61.2 2.97652 61.0736 2.75147 60.8485C2.52643 60.6235 2.4 60.3183 2.4 60V9.6C2.4 9.28174 2.52643 8.97652 2.75147 8.75147C2.97652 8.52643 3.28174 8.4 3.6 8.4H7.2V10.8C7.2 11.7548 7.57929 12.6705 8.25442 13.3456C8.92955 14.0207 9.84522 14.4 10.8 14.4H24C24.9548 14.4 25.8705 14.0207 26.5456 13.3456C27.2207 12.6705 27.6 11.7548 27.6 10.8V8.4H31.2C31.5183 8.4 31.8235 8.52643 32.0485 8.75147C32.2736 8.97652 32.4 9.28174 32.4 9.6V15.9504C28.0123 16.7855 24.0534 19.1252 21.2056 22.5661C18.3579 26.007 16.7997 30.3335 16.7997 34.8C16.7997 39.2665 18.3579 43.593 21.2056 47.0339C24.0534 50.4748 28.0123 52.8145 32.4 53.6496V60ZM19.2 34.8C19.2 31.4773 20.1853 28.2292 22.0313 25.4664C23.8773 22.7037 26.5011 20.5504 29.5709 19.2788C32.6407 18.0073 36.0186 17.6746 39.2775 18.3228C42.5364 18.971 45.5299 20.5711 47.8794 22.9206C50.2289 25.2701 51.829 28.2636 52.4772 31.5225C53.1254 34.7814 52.7927 38.1593 51.5212 41.2291C50.2496 44.2989 48.0963 46.9227 45.3336 48.7687C42.5708 50.6147 39.3227 51.6 36 51.6C31.5458 51.5952 27.2754 49.8237 24.1259 46.6741C20.9763 43.5246 19.2048 39.2542 19.2 34.8ZM55.2 34.8C55.1933 30.3354 53.6328 26.0123 50.7862 22.5727C47.9397 19.1332 43.9846 16.7918 39.6 15.9504V13.2H69.6V56.4H39.6V53.6496C43.9846 52.8082 47.9397 50.4668 50.7862 47.0273C53.6328 43.5877 55.1933 39.2646 55.2 34.8ZM39.6 60V58.8H49.4208C49.1264 59.5729 49.1264 60.4271 49.4208 61.2H40.8C40.4817 61.2 40.1765 61.0736 39.9515 60.8485C39.7264 60.6235 39.6 60.3183 39.6 60ZM52.8 61.2C52.4817 61.2 52.1765 61.0736 51.9515 60.8485C51.7264 60.6235 51.6 60.3183 51.6 60C51.6 59.6817 51.7264 59.3765 51.9515 59.1515C52.1765 58.9264 52.4817 58.8 52.8 58.8H56.4C56.7183 58.8 57.0235 58.9264 57.2485 59.1515C57.4736 59.3765 57.6 59.6817 57.6 60C57.6 60.3183 57.4736 60.6235 57.2485 60.8485C57.0235 61.0736 56.7183 61.2 56.4 61.2H52.8ZM68.4 61.2H59.7792C60.0736 60.4271 60.0736 59.5729 59.7792 58.8H69.6V60C69.6 60.3183 69.4736 60.6235 69.2485 60.8485C69.0235 61.0736 68.7183 61.2 68.4 61.2Z" fill="#5C5AEA"/>
<path d="M9.59999 57.6C9.59999 57.9183 9.72642 58.2235 9.95146 58.4485C10.1765 58.6736 10.4817 58.8 10.8 58.8H24C24.3183 58.8 24.6235 58.6736 24.8485 58.4485C25.0736 58.2235 25.2 57.9183 25.2 57.6C25.2 57.2818 25.0736 56.9765 24.8485 56.7515C24.6235 56.5264 24.3183 56.4 24 56.4H10.8C10.4817 56.4 10.1765 56.5264 9.95146 56.7515C9.72642 56.9765 9.59999 57.2818 9.59999 57.6Z" fill="#5C5AEA"/>
<path d="M30.8484 30.3516C30.6234 30.1266 30.3182 30.0002 30 30.0002C29.6818 30.0002 29.3766 30.1266 29.1516 30.3516L25.5516 33.9516C25.3266 34.1766 25.2003 34.4818 25.2003 34.8C25.2003 35.1182 25.3266 35.4234 25.5516 35.6484L29.1516 39.2484C29.3779 39.467 29.681 39.5879 29.9957 39.5852C30.3103 39.5825 30.6113 39.4563 30.8338 39.2338C31.0563 39.0113 31.1825 38.7103 31.1852 38.3957C31.1879 38.081 31.067 37.7779 30.8484 37.5516L28.0968 34.8L30.8484 32.0484C31.0734 31.8234 31.1997 31.5182 31.1997 31.2C31.1997 30.8818 31.0734 30.5766 30.8484 30.3516Z" fill="#5C5AEA"/>
<path d="M42.8484 30.3516C42.6221 30.133 42.3189 30.012 42.0043 30.0148C41.6897 30.0175 41.3887 30.1437 41.1662 30.3662C40.9437 30.5887 40.8175 30.8897 40.8148 31.2043C40.812 31.5189 40.933 31.8221 41.1516 32.0484L43.9032 34.8L41.1516 37.5516C41.037 37.6623 40.9456 37.7947 40.8827 37.9411C40.8198 38.0875 40.7867 38.245 40.7853 38.4043C40.7839 38.5636 40.8143 38.7217 40.8746 38.8691C40.9349 39.0166 41.0241 39.1506 41.1367 39.2633C41.2494 39.3759 41.3834 39.465 41.5308 39.5254C41.6783 39.5857 41.8363 39.6161 41.9957 39.6147C42.155 39.6133 42.3125 39.5802 42.4589 39.5173C42.6053 39.4544 42.7377 39.363 42.8484 39.2484L46.4484 35.6484C46.6734 35.4234 46.7997 35.1182 46.7997 34.8C46.7997 34.4818 46.6734 34.1766 46.4484 33.9516L42.8484 30.3516Z" fill="#5C5AEA"/>
<path d="M37.4904 28.836C37.1817 28.7591 36.8551 28.8079 36.5823 28.9717C36.3096 29.1355 36.1131 29.401 36.036 29.7096L33.636 39.3096C33.5591 39.6183 33.6079 39.9449 33.7717 40.2177C33.9355 40.4904 34.2009 40.6869 34.5096 40.764C34.6046 40.7876 34.7021 40.7997 34.8 40.8C35.0675 40.7997 35.3272 40.71 35.5378 40.5452C35.7485 40.3804 35.8981 40.1499 35.9628 39.8904L38.3628 30.2904C38.4398 29.9819 38.3911 29.6554 38.2275 29.3827C38.064 29.11 37.7988 28.9134 37.4904 28.836Z" fill="#5C5AEA"/>
</svg>
