<svg width="69" height="72" viewBox="0 0 69 72" fill="none" xmlns="http://www.w3.org/2000/svg">
<path fill-rule="evenodd" clip-rule="evenodd" d="M41.2302 0.0318329C41.5109 0.0107386 41.7944 0 42.0803 0C48.2614 0 53.3094 5.01237 53.3094 11.1749C53.3094 15.8816 50.3686 19.9162 46.2274 21.5625V28.5977C46.2973 28.5187 46.3697 28.4422 46.4442 28.3685C47.2298 27.5916 48.3111 27.0644 49.506 27.0242C50.7294 26.983 51.9595 27.4568 52.9865 28.4844L55.3271 30.8264C55.88 31.3797 55.8797 32.2764 55.3265 32.8293C54.7732 33.3822 53.8765 33.3819 53.3236 32.8287L50.983 30.4867C50.4714 29.9747 49.9867 29.8421 49.6012 29.8551C49.1872 29.869 48.7655 30.0565 48.436 30.3824C48.1067 30.7081 47.9201 31.1214 47.9056 31.5262C47.8923 31.9004 48.0208 32.3861 48.5426 32.9124C48.5457 32.9155 48.5488 32.9186 48.5519 32.9217L50.3312 34.702C50.8842 35.2553 50.8839 36.152 50.3307 36.7049C49.7774 37.2578 48.8807 37.2576 48.3278 36.7043L46.5551 34.9306C46.5528 34.9284 46.5506 34.9262 46.5484 34.924C46.5439 34.9194 46.5394 34.9149 46.5349 34.9104L44.6615 33.0359C44.4849 32.8592 44.3122 32.7264 44.1463 32.6283C44.1243 32.6166 44.1026 32.6043 44.0813 32.5915C43.7746 32.4249 43.4926 32.3753 43.2535 32.3826C42.8421 32.3952 42.4259 32.5811 42.1008 32.9064C41.7757 33.2317 41.5895 33.6485 41.5769 34.0608C41.5658 34.4265 41.6872 34.8913 42.1533 35.3913L45.8969 39.1397C46.4496 39.6931 46.449 40.5898 45.8956 41.1425C45.3421 41.6953 44.4454 41.6947 43.8927 41.1412L40.2794 37.5233C40.2615 37.5071 40.244 37.4904 40.2267 37.4732C40.1908 37.4372 40.1556 37.401 40.121 37.3646L38.3405 35.5818C38.3403 35.5816 38.3401 35.5814 38.3399 35.5812C37.8107 35.0527 37.3168 34.9181 36.9327 34.9301C36.521 34.9429 36.1045 35.1292 35.7792 35.4547C35.454 35.7801 35.268 36.1967 35.2554 36.6083C35.2437 36.9924 35.3786 37.4864 35.908 38.0154C35.9299 38.0373 35.9509 38.0597 35.9711 38.0826L41.4619 43.5766C42.0148 44.1298 42.0146 45.0265 41.4613 45.5794C40.9081 46.1324 40.0114 46.1321 39.4585 45.5789L25.1752 31.2873C24.6455 30.7572 24.1512 30.6223 23.7673 30.634C23.356 30.6466 22.9399 30.8325 22.6147 31.1578C22.2896 31.4831 22.1034 31.8999 22.0909 32.3122C22.0791 32.6972 22.2143 33.1922 22.7441 33.7223C22.7441 33.7223 22.7441 33.7223 22.7441 33.7223L37.1588 48.1453C37.6096 48.5964 37.9894 48.961 38.3429 49.3003C38.5903 49.5379 38.8249 49.7631 39.062 49.997C39.3233 50.2548 39.5713 50.5084 39.7783 50.7473C39.9726 50.9716 40.1983 51.2584 40.351 51.5817C40.4984 51.8937 40.7041 52.5192 40.3699 53.1866C40.0576 53.8102 39.4784 54.0449 39.167 54.1393C38.5377 54.33 37.6479 54.3408 36.6641 54.306L36.6637 54.306L31.6363 54.1267C30.7327 54.0947 30.2219 54.3857 29.9301 54.7055C29.6147 55.0512 29.4226 55.5788 29.4458 56.208C29.4567 56.5013 29.5131 56.7984 29.6155 57.0844C29.6335 57.1252 29.6496 57.1671 29.6637 57.2099C30.028 58.0964 30.8469 58.8518 32.1371 59.0134L50.5942 61.324C53.0999 61.6414 54.8216 60.9578 55.4891 60.2898L63.4389 52.3355C65.9282 49.8449 65.9194 45.4318 62.8059 42.3166L62.2407 41.751C61.6878 41.1977 61.6881 40.301 62.2414 39.7481C62.7947 39.1952 63.6914 39.1955 64.2443 39.7488L64.8093 40.3143C64.8094 40.3143 64.8094 40.3144 64.8094 40.3144C68.8457 44.3529 69.2111 50.5669 65.4424 54.3378L57.4926 62.2921C57.4926 62.2921 57.4927 62.2921 57.4926 62.2921C55.9947 63.791 53.266 64.5176 50.2383 64.134L46.2274 63.6319V64.4815C46.2274 68.6167 42.8474 72 38.7126 72H25.5002C24.718 72 24.0839 71.3659 24.0839 70.5837C24.0839 69.8016 24.718 69.1675 25.5002 69.1675H38.7126C41.2814 69.1675 43.3949 67.0539 43.3949 64.4815V63.2773L31.7851 61.8239C29.7419 61.568 28.2797 60.4644 27.4419 59.0707H2.8325V64.4815C2.8325 67.0539 4.94594 69.1675 7.51494 69.1675H12.885C13.6672 69.1675 14.3012 69.8016 14.3012 70.5837C14.3012 71.3659 13.6672 72 12.885 72H7.51494C3.38003 72 0 68.6167 0 64.4815V7.55015C0 3.411 3.37613 0.0318329 7.51494 0.0318329H41.2302ZM34.5867 2.86433H7.51494C4.94196 2.86433 2.8325 4.97386 2.8325 7.55015V56.2382H26.613C26.5844 55.0203 26.9582 53.7604 27.8376 52.7965C28.7587 51.7869 30.1104 51.2384 31.7366 51.296L31.7369 51.296L36.5082 51.4661C36.4869 51.4456 36.4654 51.425 36.4437 51.4041C36.0546 51.0298 35.5974 50.5899 35.1553 50.1476L20.7406 35.7246C19.7059 34.6893 19.2222 33.4555 19.2597 32.2258C19.2964 31.0235 19.8277 29.9396 20.6113 29.1556C21.3948 28.3715 22.4784 27.8396 23.6808 27.8028C24.9106 27.7653 26.144 28.2497 27.1787 29.2851L32.7895 34.8991C33.0266 34.3524 33.3669 33.8615 33.7758 33.4524C34.5592 32.6685 35.6424 32.1364 36.8445 32.0989C37.5803 32.076 38.3176 32.2399 39.0129 32.5969C39.2491 31.951 39.628 31.3738 40.0974 30.9041C40.8809 30.1201 41.9646 29.5881 43.167 29.5514C43.243 29.5491 43.319 29.5488 43.3949 29.5504V22.2776C42.9636 22.328 42.5249 22.3539 42.0803 22.3539C35.9033 22.3539 30.8514 17.3415 30.8514 11.1749C30.8514 7.8785 32.2969 4.91135 34.5867 2.86433ZM44.4651 19.1776C44.4327 19.1857 44.4007 19.195 44.3692 19.2053C43.6413 19.4112 42.8735 19.5214 42.0803 19.5214C37.4535 19.5214 33.6839 15.763 33.6839 11.1749C33.6839 6.59127 37.4531 2.8325 42.0803 2.8325C46.7113 2.8325 50.4769 6.59091 50.4769 11.1749C50.4769 14.9428 47.9375 18.1507 44.4651 19.1776ZM47.2266 7.92672C47.7314 8.52417 47.6563 9.41774 47.0589 9.92257L41.5295 14.5948C40.9473 15.0867 40.0801 15.0296 39.5674 14.4655L36.9719 11.6097C36.4459 11.0308 36.4886 10.1351 37.0675 9.60908C37.6463 9.08301 38.542 9.12579 39.0681 9.70463L40.7448 11.5496L45.2307 7.75903C45.8282 7.2542 46.7217 7.32928 47.2266 7.92672ZM22.0131 17.0319C22.7952 17.0319 23.4293 17.666 23.4293 18.4482V22.6863C23.4293 23.4684 22.7952 24.1025 22.0131 24.1025C21.2309 24.1025 20.5968 23.4684 20.5968 22.6863V18.4482C20.5968 17.666 21.2309 17.0319 22.0131 17.0319ZM12.4014 20.9396C12.9547 20.3867 13.8514 20.387 14.4043 20.9403L17.3979 23.9357C17.9508 24.4889 17.9505 25.3857 17.3973 25.9386C16.844 26.4915 15.9473 26.4912 15.3944 25.938L12.4008 22.9425C11.8479 22.3893 11.8482 21.4925 12.4014 20.9396ZM31.502 21.0678C32.0548 21.6211 32.0545 22.5178 31.5012 23.0707L28.5037 26.066C27.9504 26.6188 27.0537 26.6185 26.5008 26.0652C25.9479 25.5119 25.9483 24.6152 26.5016 24.0623L29.4991 21.067C30.0524 20.5142 30.9491 20.5145 31.502 21.0678ZM8.49907 30.557C8.49907 29.7748 9.13315 29.1407 9.91532 29.1407H14.1469C14.9291 29.1407 15.5632 29.7748 15.5632 30.557C15.5632 31.3392 14.9291 31.9732 14.1469 31.9732H9.91532C9.13315 31.9732 8.49907 31.3392 8.49907 30.557ZM17.5245 35.0479C18.0778 35.6008 18.0781 36.4975 17.5252 37.0508L14.5317 40.0462C13.9788 40.5995 13.0821 40.5998 12.5288 40.0469C11.9756 39.494 11.9753 38.5973 12.5282 38.044L15.5216 35.0486C16.0745 34.4953 16.9713 34.495 17.5245 35.0479ZM57.894 35.1726C58.506 34.6855 59.397 34.7868 59.8841 35.3988L59.9 35.4187C60.3871 36.0307 60.2859 36.9217 59.6739 37.4088C59.0619 37.8959 58.1709 37.7947 57.6838 37.1827L57.6679 37.1627C57.1808 36.5507 57.282 35.6598 57.894 35.1726ZM18.1964 64.1191C18.1964 63.3369 18.8305 62.7028 19.6126 62.7028H26.6149C27.397 62.7028 28.0311 63.3369 28.0311 64.1191C28.0311 64.9012 27.397 65.5353 26.6149 65.5353H19.6126C18.8305 65.5353 18.1964 64.9012 18.1964 64.1191ZM17.7625 70.5837C17.7625 69.8016 18.3966 69.1675 19.1787 69.1675H19.2066C19.9887 69.1675 20.6228 69.8016 20.6228 70.5837C20.6228 71.3659 19.9887 72 19.2066 72H19.1787C18.3966 72 17.7625 71.3659 17.7625 70.5837Z" fill="#5C5AEA"/>
</svg>
