<svg width="72" height="72" viewBox="0 0 72 72" fill="none" xmlns="http://www.w3.org/2000/svg">
<path d="M34.8387 30.4703V31.3548H37.1613V30.4703C37.8908 30.2832 38.527 29.8361 38.9501 29.2131C39.3732 28.59 39.5542 27.8339 39.4591 27.0868C39.364 26.3397 38.9992 25.653 38.4335 25.1559C37.8677 24.6587 37.1399 24.3853 36.3867 24.3871H35.6133C35.5113 24.3876 35.4102 24.368 35.3158 24.3294C35.2214 24.2907 35.1356 24.2338 35.0632 24.1619C34.9909 24.09 34.9335 24.0044 34.8944 23.9103C34.8552 23.8161 34.835 23.7151 34.835 23.6131C34.835 23.5111 34.8552 23.4101 34.8944 23.3159C34.9335 23.2217 34.9909 23.1362 35.0632 23.0643C35.1356 22.9923 35.2214 22.9354 35.3158 22.8968C35.4102 22.8581 35.5113 22.8385 35.6133 22.8391H36.3867C36.5919 22.8391 36.7888 22.9205 36.934 23.0656C37.0792 23.2106 37.161 23.4073 37.1613 23.6125V24.0004H39.4839V23.6125C39.4817 22.9279 39.2525 22.2634 38.8322 21.7231C38.4119 21.1828 37.8243 20.7971 37.1613 20.6265V19.7419H34.8387V20.6265C34.1092 20.8136 33.473 21.2606 33.0499 21.8837C32.6268 22.5067 32.4458 23.2629 32.5409 24.01C32.636 24.7571 33.0008 25.4437 33.5665 25.9409C34.1323 26.438 34.8601 26.7114 35.6133 26.7097H36.3867C36.4887 26.7091 36.5898 26.7287 36.6842 26.7674C36.7786 26.806 36.8644 26.8629 36.9368 26.9349C37.0091 27.0068 37.0665 27.0923 37.1056 27.1865C37.1448 27.2807 37.165 27.3817 37.165 27.4837C37.165 27.5857 37.1448 27.6867 37.1056 27.7808C37.0665 27.875 37.0091 27.9605 36.9368 28.0325C36.8644 28.1044 36.7786 28.1613 36.6842 28.2C36.5898 28.2386 36.4887 28.2582 36.3867 28.2577H35.6133C35.4081 28.2577 35.2112 28.1762 35.066 28.0312C34.9208 27.8862 34.839 27.6895 34.8387 27.4842V27.0964H32.5161V27.4842C32.5183 28.1688 32.7475 28.8333 33.1678 29.3736C33.5881 29.914 34.1757 30.2997 34.8387 30.4703Z" fill="#5C5AEA"/>
<path d="M51.0628 27.1996L45.1111 26.9705C44.8988 26.956 44.6868 27.0031 44.5005 27.1061C44.3143 27.2091 44.1617 27.3636 44.061 27.5512C43.9551 27.7343 43.9015 27.943 43.9059 28.1546C43.9103 28.3661 43.9726 28.5724 44.0859 28.751L45.2397 30.5752L35.9887 34.7321L28.328 31.449C28.1631 31.3776 27.9838 31.3458 27.8044 31.356C27.625 31.3663 27.4505 31.4183 27.2949 31.5079L19.1658 36.1531L20.318 38.1695L27.9447 33.8112L35.543 37.0672C35.6908 37.1301 35.8499 37.1619 36.0105 37.1606C36.1711 37.1592 36.3297 37.1247 36.4763 37.0592L46.4938 32.5582L47.7581 34.5575C47.8625 34.7232 48.0073 34.8598 48.1788 34.9544C48.3504 35.049 48.5431 35.0986 48.7391 35.0984C48.7731 35.0984 48.8071 35.0973 48.8411 35.0939C49.0536 35.0751 49.2567 34.9981 49.4284 34.8715C49.6 34.7449 49.7335 34.5734 49.8142 34.376L52.0936 28.7986C52.1642 28.6258 52.192 28.4385 52.1748 28.2526C52.1575 28.0667 52.0957 27.8877 51.9945 27.7307C51.8933 27.5738 51.7558 27.4436 51.5936 27.3511C51.4314 27.2587 51.2493 27.2067 51.0628 27.1996ZM48.5168 31.4127L47.2285 29.3759L49.3164 29.4564L48.5168 31.4127Z" fill="#5C5AEA"/>
<path d="M38.3226 41.8065H33.6774C33.5249 41.8064 33.3738 41.8363 33.2329 41.8947C33.092 41.953 32.9639 42.0385 32.8561 42.1464C32.7482 42.2542 32.6627 42.3823 32.6043 42.5232C32.546 42.6642 32.516 42.8152 32.5161 42.9677V51.0968C32.516 51.2493 32.546 51.4004 32.6043 51.5413C32.6627 51.6822 32.7482 51.8103 32.8561 51.9181C32.9639 52.026 33.092 52.1115 33.2329 52.1699C33.3738 52.2282 33.5249 52.2582 33.6774 52.2581H38.3226C38.4751 52.2582 38.6262 52.2282 38.7671 52.1699C38.908 52.1115 39.0361 52.026 39.1439 51.9181C39.2518 51.8103 39.3373 51.6822 39.3957 51.5413C39.454 51.4004 39.484 51.2493 39.4839 51.0968V42.9677C39.484 42.8152 39.454 42.6642 39.3957 42.5232C39.3373 42.3823 39.2518 42.2542 39.1439 42.1464C39.0361 42.0385 38.908 41.953 38.7671 41.8947C38.6262 41.8363 38.4751 41.8064 38.3226 41.8065ZM37.1613 49.9355H34.8387V44.129H37.1613V49.9355Z" fill="#5C5AEA"/>
<path d="M46.4516 38.3226H41.8065C41.6539 38.3225 41.5029 38.3525 41.3619 38.4108C41.221 38.4691 41.093 38.5547 40.9851 38.6625C40.8773 38.7704 40.7917 38.8984 40.7334 39.0394C40.6751 39.1803 40.6451 39.3313 40.6452 39.4839V51.0968C40.6451 51.2493 40.6751 51.4004 40.7334 51.5413C40.7917 51.6822 40.8773 51.8103 40.9851 51.9181C41.093 52.026 41.221 52.1115 41.3619 52.1699C41.5029 52.2282 41.6539 52.2582 41.8065 52.2581H46.4516C46.6042 52.2582 46.7552 52.2282 46.8961 52.1699C47.0371 52.1115 47.1651 52.026 47.273 51.9181C47.3808 51.8103 47.4664 51.6822 47.5247 51.5413C47.583 51.4004 47.613 51.2493 47.6129 51.0968V39.4839C47.613 39.3313 47.583 39.1803 47.5247 39.0394C47.4664 38.8984 47.3808 38.7704 47.273 38.6625C47.1651 38.5547 47.0371 38.4691 46.8961 38.4108C46.7552 38.3525 46.6042 38.3225 46.4516 38.3226ZM45.2903 49.9355H42.9678V40.6452H45.2903V49.9355Z" fill="#5C5AEA"/>
<path d="M30.1935 39.4839H25.5484C25.3958 39.4838 25.2448 39.5138 25.1039 39.5721C24.9629 39.6304 24.8349 39.716 24.727 39.8238C24.6192 39.9317 24.5336 40.0597 24.4753 40.2007C24.417 40.3416 24.387 40.4926 24.3871 40.6452V51.0968C24.387 51.2493 24.417 51.4004 24.4753 51.5413C24.5336 51.6822 24.6192 51.8103 24.727 51.9181C24.8349 52.026 24.9629 52.1115 25.1039 52.1699C25.2448 52.2282 25.3958 52.2582 25.5484 52.2581H30.1935C30.3461 52.2582 30.4971 52.2282 30.6381 52.1699C30.779 52.1115 30.907 52.026 31.0149 51.9181C31.1227 51.8103 31.2083 51.6822 31.2666 51.5413C31.3249 51.4004 31.3549 51.2493 31.3548 51.0968V40.6452C31.3549 40.4926 31.3249 40.3416 31.2666 40.2007C31.2083 40.0597 31.1227 39.9317 31.0149 39.8238C30.907 39.716 30.779 39.6304 30.6381 39.5721C30.4971 39.5138 30.3461 39.4838 30.1935 39.4839ZM29.0323 49.9355H26.7097V41.8065H29.0323V49.9355Z" fill="#5C5AEA"/>
<path d="M64.692 28.2112C64.5296 28.0488 64.3227 27.9382 64.0975 27.8934C63.8722 27.8486 63.6388 27.8716 63.4266 27.9594C63.2144 28.0473 63.033 28.1962 62.9054 28.3871C62.7778 28.5781 62.7097 28.8026 62.7097 29.0323V31.3548H56.9033V18.5806C56.9022 17.657 56.5349 16.7714 55.8817 16.1183C55.2286 15.4651 54.343 15.0978 53.4194 15.0968H40.6452V9.2903H42.9678C43.1974 9.2903 43.4219 9.2222 43.6129 9.0946C43.8039 8.967 43.9527 8.78564 44.0406 8.57345C44.1285 8.36126 44.1514 8.12777 44.1066 7.90252C44.0618 7.67727 43.9512 7.47037 43.7888 7.30798L36.821 0.340228C36.7132 0.232366 36.5852 0.146802 36.4444 0.0884248C36.3035 0.0300472 36.1525 0 36 0C35.8475 0 35.6965 0.0300472 35.5556 0.0884248C35.4147 0.146802 35.2867 0.232366 35.1789 0.340228L28.2112 7.30798C28.0487 7.47037 27.9381 7.67728 27.8933 7.90254C27.8485 8.1278 27.8715 8.36129 27.9594 8.57348C28.0473 8.78567 28.1961 8.96703 28.3871 9.09463C28.5781 9.22222 28.8026 9.29031 29.0323 9.2903H31.3548V15.0968H18.5806C17.657 15.0978 16.7714 15.4651 16.1183 16.1183C15.4651 16.7714 15.0978 17.657 15.0968 18.5806V31.3548H9.2903V29.0323C9.2903 28.8026 9.2222 28.5781 9.0946 28.3871C8.967 28.1962 8.78564 28.0473 8.57345 27.9594C8.36126 27.8716 8.12778 27.8486 7.90252 27.8934C7.67727 27.9382 7.47037 28.0488 7.30798 28.2112L0.340228 35.179C0.232366 35.2868 0.146802 35.4148 0.0884248 35.5557C0.0300472 35.6965 0 35.8475 0 36C0 36.1525 0.0300472 36.3035 0.0884248 36.4444C0.146802 36.5853 0.232366 36.7133 0.340228 36.8211L7.30798 43.7889C7.47037 43.9513 7.67728 44.0619 7.90254 44.1067C8.1278 44.1515 8.36129 44.1285 8.57348 44.0406C8.78567 43.9527 8.96703 43.8039 9.09463 43.6129C9.22222 43.4219 9.29032 43.1974 9.2903 42.9678V40.6452H15.0968V53.4194C15.0978 54.343 15.4651 55.2286 16.1183 55.8817C16.7714 56.5349 17.657 56.9022 18.5806 56.9032H31.3548V62.7097H29.0323C28.8026 62.7097 28.5781 62.7778 28.3871 62.9054C28.1962 63.033 28.0473 63.2144 27.9594 63.4266C27.8716 63.6387 27.8486 63.8722 27.8934 64.0975C27.9382 64.3227 28.0488 64.5296 28.2112 64.692L35.179 71.6598C35.2868 71.7676 35.4148 71.8532 35.5557 71.9116C35.6965 71.97 35.8475 72 36 72C36.1525 72 36.3035 71.97 36.4444 71.9116C36.5853 71.8532 36.7133 71.7676 36.8211 71.6598L43.7889 64.692C43.9513 64.5296 44.0619 64.3227 44.1067 64.0975C44.1515 63.8722 44.1285 63.6387 44.0406 63.4265C43.9527 63.2143 43.8039 63.033 43.6129 62.9054C43.4219 62.7778 43.1974 62.7097 42.9678 62.7097H40.6452V56.9032H53.4194C54.343 56.9022 55.2286 56.5349 55.8817 55.8817C56.5349 55.2286 56.9022 54.343 56.9033 53.4194V40.6452H62.7097V42.9678C62.7097 43.1974 62.7778 43.4219 62.9054 43.6129C63.033 43.8039 63.2144 43.9527 63.4265 44.0406C63.6387 44.1285 63.8722 44.1515 64.0975 44.1066C64.3227 44.0618 64.5296 43.9512 64.692 43.7888L71.6598 36.821C71.7676 36.7132 71.8532 36.5852 71.9116 36.4444C71.97 36.3035 72 36.1525 72 36C72 35.8475 71.97 35.6965 71.9116 35.5556C71.8532 35.4147 71.7676 35.2867 71.6598 35.1789L64.692 28.2112ZM15.0968 38.3226H8.12901C7.97648 38.3225 7.82543 38.3525 7.6845 38.4108C7.54357 38.4691 7.41551 38.5547 7.30766 38.6625C7.19981 38.7704 7.11427 38.8984 7.05594 39.0394C6.99761 39.1803 6.96763 39.3313 6.96772 39.4839V40.1643L2.8034 36L6.96772 31.8357V32.5161C6.96763 32.6687 6.99761 32.8197 7.05594 32.9606C7.11427 33.1016 7.19981 33.2296 7.30766 33.3375C7.41551 33.4453 7.54357 33.5309 7.6845 33.5892C7.82543 33.6475 7.97648 33.6775 8.12901 33.6774H15.0968V38.3226ZM36 2.8034L40.1643 6.96772H39.4839C39.3314 6.96763 39.1803 6.99761 39.0394 7.05594C38.8984 7.11427 38.7704 7.1998 38.6625 7.30766C38.5547 7.41551 38.4691 7.54357 38.4108 7.6845C38.3525 7.82543 38.3225 7.97648 38.3226 8.12901V15.0968H33.6774V8.12901C33.6775 7.97648 33.6475 7.82543 33.5892 7.6845C33.5309 7.54357 33.4453 7.41551 33.3375 7.30766C33.2296 7.1998 33.1016 7.11427 32.9606 7.05594C32.8197 6.99761 32.6687 6.96763 32.5161 6.96772H31.8357L36 2.8034ZM36 69.1966L31.8357 65.0323H32.5161C32.6687 65.0324 32.8197 65.0024 32.9606 64.9441C33.1016 64.8857 33.2296 64.8002 33.3375 64.6923C33.4453 64.5845 33.5309 64.4564 33.5892 64.3155C33.6475 64.1746 33.6775 64.0235 33.6774 63.871V56.9032H38.3226V63.871C38.3225 64.0235 38.3525 64.1746 38.4108 64.3155C38.4691 64.4564 38.5547 64.5845 38.6625 64.6923C38.7704 64.8002 38.8984 64.8857 39.0394 64.9441C39.1803 65.0024 39.3314 65.0324 39.4839 65.0323H40.1643L36 69.1966ZM54.5807 53.4194C54.5805 53.7273 54.458 54.0226 54.2403 54.2403C54.0226 54.458 53.7273 54.5805 53.4194 54.5807H18.5806C18.2727 54.5805 17.9774 54.458 17.7597 54.2403C17.542 54.0226 17.4195 53.7273 17.4193 53.4194V18.5806C17.4195 18.2727 17.542 17.9774 17.7597 17.7597C17.9774 17.542 18.2727 17.4195 18.5806 17.4193H53.4194C53.7273 17.4195 54.0226 17.542 54.2403 17.7597C54.458 17.9774 54.5805 18.2727 54.5807 18.5806V53.4194ZM65.0323 40.1643V39.4839C65.0324 39.3313 65.0024 39.1803 64.9441 39.0394C64.8857 38.8984 64.8002 38.7704 64.6924 38.6625C64.5845 38.5547 64.4564 38.4691 64.3155 38.4108C64.1746 38.3525 64.0235 38.3225 63.871 38.3226H56.9033V33.6774H63.871C64.0235 33.6775 64.1746 33.6475 64.3155 33.5892C64.4564 33.5309 64.5845 33.4453 64.6924 33.3375C64.8002 33.2296 64.8857 33.1016 64.9441 32.9606C65.0024 32.8197 65.0324 32.6687 65.0323 32.5161V31.8357L69.1966 36L65.0323 40.1643Z" fill="#5C5AEA"/>
</svg>
