<svg width="72" height="72" viewBox="0 0 72 72" fill="none" xmlns="http://www.w3.org/2000/svg">
<path d="M63.5849 9.59893H25.891C23.9038 2.58836 16.6096 -1.4838 9.59901 0.503576C2.58844 2.49095 -1.48372 9.78504 0.503515 16.7956C2.49075 23.8062 9.78497 27.8783 16.7955 25.891C21.2 24.6424 24.6424 21.2001 25.8909 16.7956H62.3852C63.7101 16.7956 64.7841 17.8696 64.7841 19.1945V29.9896C64.7841 31.3145 63.7101 32.3885 62.3852 32.3885H59.9563C59.7283 30.856 58.3011 29.7984 56.7686 30.0264C56.278 30.0993 55.8157 30.301 55.4285 30.6108L51.4607 33.7761C50.2403 34.7498 50.0401 36.5287 51.0139 37.7492C51.1458 37.9143 51.2956 38.0643 51.4607 38.196L55.4261 41.3589C56.6346 42.3285 58.4005 42.1346 59.3701 40.9261C59.6807 40.5389 59.8831 40.076 59.9565 39.5849H63.5847C68.2193 39.579 71.9749 35.8234 71.9808 31.1888V17.995C71.975 13.3605 68.2194 9.60484 63.5849 9.59893ZM7.27204 22.2039C7.55935 20.4724 9.05392 19.2007 10.8092 19.1945H15.607C17.3621 19.2007 18.8569 20.4724 19.1442 22.2039C15.5454 24.5895 10.8684 24.5895 7.26965 22.2039H7.27204ZM13.2082 16.7956C10.5585 16.7956 8.41044 14.6476 8.41044 11.9979C8.41044 9.34818 10.5583 7.2 13.2082 7.2C15.858 7.2 18.0059 9.34804 18.0059 11.9977C18.0059 14.6474 15.8579 16.7956 13.2082 16.7956ZM21.1389 20.4959C20.5446 19.0818 19.4343 17.9471 18.0335 17.3221C20.9823 14.6571 21.2124 10.1064 18.5473 7.15755C15.8823 4.20874 11.3316 3.97864 8.38275 6.64366C5.43394 9.30868 5.20384 13.8595 7.86886 16.8083C8.03135 16.9882 8.20297 17.1597 8.38275 17.3221C6.98221 17.9479 5.87277 19.0836 5.27974 20.4982C1.23429 16.119 1.50501 9.28928 5.88443 5.24382C10.2639 1.19836 17.0934 1.46908 21.1389 5.84837C24.9596 9.98435 24.9596 16.3623 21.1389 20.4982V20.4959ZM69.582 31.189C69.5781 34.4994 66.8954 37.1822 63.5847 37.1862H58.787C58.1246 37.1862 57.5876 37.7233 57.5876 38.3856V39.1653C57.5927 39.3285 57.4977 39.4783 57.3477 39.5431C57.2064 39.6179 57.0332 39.5953 56.9159 39.4868L52.9434 36.3178C52.7602 36.1714 52.7304 35.9042 52.8769 35.721C52.8966 35.6964 52.9188 35.6742 52.9434 35.6545L56.9183 32.482C57.0361 32.3778 57.206 32.3573 57.3453 32.4304C57.4951 32.4952 57.5903 32.645 57.5852 32.8082V33.5879C57.5852 34.2504 58.1223 34.7873 58.7846 34.7873H62.383C65.0327 34.7873 67.1807 32.6393 67.1807 29.9896V19.1945C67.1807 16.5449 65.0327 14.3968 62.383 14.3968H26.3408C26.3768 14.001 26.402 13.6028 26.402 13.1974C26.402 12.792 26.3768 12.3938 26.3408 11.998H63.5849C66.8954 12.0019 69.5781 14.6847 69.5822 17.9953V31.189H69.582Z" fill="#5C5AEA"/>
<path d="M8.4103 62.3744H12.0386C12.2616 63.9049 13.6833 64.965 15.2138 64.7419C15.7093 64.6697 16.1764 64.466 16.5664 64.152L20.5354 60.9855C21.7556 60.0135 21.9568 58.2363 20.9848 57.0161C20.8524 56.8498 20.7016 56.6991 20.5354 56.5667L16.5701 53.4038C15.362 52.4337 13.5961 52.6265 12.626 53.8346C12.3146 54.2224 12.112 54.6859 12.0386 55.1778H9.6097C8.28478 55.1778 7.21076 54.1038 7.21076 52.7789V41.9839C7.21076 40.659 8.28478 39.5849 9.6097 39.5849H18.0058C19.9932 39.5849 21.6041 37.9738 21.6041 35.9866C21.6041 33.9994 19.993 32.3883 18.0058 32.3883H8.4103C3.77576 32.3942 0.0201342 36.1498 0.0142307 40.7843V53.9783C0.0201342 58.6128 3.77576 62.3683 8.4103 62.3744ZM2.41317 40.7843C2.4171 37.4739 5.09983 34.7911 8.41044 34.7871H18.0061C18.6685 34.7871 19.2055 35.324 19.2055 35.9865C19.2055 36.6489 18.6685 37.1859 18.0061 37.1859H9.60984C6.96014 37.1859 4.81211 39.3339 4.81211 41.9836V52.7786C4.81211 55.4283 6.96014 57.5763 9.60984 57.5763H13.2082C13.8706 57.5763 14.4076 57.0394 14.4076 56.3769V55.5973C14.4025 55.4341 14.4975 55.2842 14.6475 55.2194C14.7893 55.1472 14.9608 55.1697 15.0793 55.2758L19.0507 58.4436C19.2341 58.5875 19.2663 58.8529 19.1224 59.0363C19.1014 59.063 19.0774 59.0871 19.0507 59.108L15.0758 62.2806C14.957 62.3828 14.7884 62.4032 14.6488 62.3322C14.4989 62.2674 14.4038 62.1176 14.4088 61.9544V61.1747C14.4088 60.5122 13.8718 59.9753 13.2094 59.9753H8.4103C5.09983 59.9713 2.4171 57.2886 2.41303 53.978L2.41317 40.7843Z" fill="#5C5AEA"/>
<path d="M29.0312 41.359C30.2369 42.3321 32.0032 42.1436 32.9762 40.9379C33.291 40.548 33.4955 40.0808 33.5686 39.5852H44.3935C46.3808 39.5852 47.9919 37.9741 47.9919 35.9868C47.9919 33.9996 46.3808 32.3885 44.3935 32.3885H33.5686C33.34 30.856 31.9123 29.799 30.3798 30.0276C29.8897 30.1007 29.4275 30.3024 29.0407 30.6121L25.0717 33.7774C23.8512 34.751 23.6511 36.53 24.6249 37.7504C24.7567 37.9156 24.9066 38.0656 25.0717 38.1973L29.0312 41.359ZM26.5639 35.6533L30.5377 32.482C30.6073 32.4232 30.695 32.39 30.7859 32.3883C30.8479 32.3896 30.9089 32.4044 30.9646 32.4315C31.1148 32.4964 31.21 32.6468 31.2045 32.8106V33.5879C31.2045 34.2503 31.7416 34.7873 32.4039 34.7873H44.3935C45.056 34.7873 45.5929 35.3242 45.5929 35.9867C45.5929 36.6491 45.0558 37.1861 44.3935 37.1861H32.3991C31.7366 37.1861 31.1997 37.7232 31.1997 38.3855V39.1652C31.2048 39.3284 31.1098 39.4782 30.9598 39.543C30.8185 39.6178 30.6453 39.5951 30.528 39.4866L26.559 36.3201C26.3748 36.1749 26.3432 35.908 26.4884 35.7238C26.5091 35.6976 26.5328 35.6739 26.559 35.6533H26.5639Z" fill="#5C5AEA"/>
<path d="M58.787 45.5823C52.6606 45.5951 47.3471 49.8191 45.9529 55.7849L42.9687 53.4039C41.7649 52.4284 39.9982 52.6135 39.0227 53.8173C38.7053 54.209 38.4993 54.6789 38.4265 55.1779H27.6015C25.6141 55.1779 24.0032 56.789 24.0032 58.7763C24.0032 60.7635 25.6143 62.3746 27.6015 62.3746H38.4265C38.6495 63.9052 40.0712 64.9653 41.6017 64.7422C42.0972 64.6699 42.5643 64.4663 42.9543 64.1523L45.9529 61.7678C47.605 68.8648 54.6976 73.2788 61.7946 71.6267C68.8916 69.9745 73.3056 62.882 71.6535 55.785C70.2614 49.8043 64.9275 45.5747 58.787 45.5823ZM45.4324 59.1084L41.4575 62.281C41.3387 62.3832 41.1701 62.4036 41.0305 62.3326C40.8807 62.2678 40.7855 62.1179 40.7905 61.9548V61.1751C40.7905 60.5126 40.2535 59.9757 39.5912 59.9757H27.6015C26.9391 59.9757 26.4021 59.4386 26.4021 58.7763C26.4021 58.1138 26.9392 57.5769 27.6015 57.5769H39.5959C40.2584 57.5769 40.7953 57.0399 40.7953 56.3775V55.5978C40.7903 55.4346 40.8853 55.2848 41.0353 55.22C41.1771 55.1477 41.3486 55.1702 41.4671 55.2763L45.4384 58.4441C45.5392 58.5245 45.5964 58.6475 45.5932 58.7764C45.5955 58.9063 45.5357 59.0296 45.4324 59.1084ZM58.787 69.5713C52.8306 69.5647 48.0025 64.7398 47.992 58.7834V58.7691C47.9959 52.8072 52.8323 47.9773 58.7942 47.9813C64.756 47.9852 69.586 52.8216 69.582 58.7834C69.5781 64.7425 64.7462 69.5713 58.787 69.5713Z" fill="#5C5AEA"/>
<path d="M62.7369 54.3297L56.3882 60.6784L54.8373 59.1274C54.3608 58.6673 53.6015 58.6803 53.1413 59.1568C52.6923 59.6217 52.6923 60.3586 53.1413 60.8234L55.5402 63.2224C56.0085 63.6906 56.7679 63.6906 57.2362 63.2224L64.4329 56.0257C64.8931 55.5492 64.88 54.7899 64.4035 54.3297C63.9387 53.8806 63.2017 53.8806 62.7369 54.3297Z" fill="#5C5AEA"/>
</svg>
