<svg width="71" height="72" viewBox="0 0 71 72" fill="none" xmlns="http://www.w3.org/2000/svg">
<path d="M68.9234 30.3535C67.7449 29.327 65.9644 29.3235 64.7819 30.3452L54.666 39.0856C54.5051 38.8087 54.3078 38.5503 54.0752 38.3177C52.7105 36.9529 50.5578 36.849 49.0681 38.076L40.309 45.2893C38.1572 47.0615 36.923 49.6766 36.923 52.4641V58.7014C36.3583 59.1921 35.9991 59.9135 35.9991 60.7186V70.9467C35.9991 71.5284 36.4707 72 37.0524 72C37.6341 72 38.1057 71.5284 38.1057 70.9467V60.7186C38.1057 60.4056 38.3604 60.1508 38.6734 60.1508H51.5354C51.8485 60.1508 52.1032 60.4056 52.1032 60.7186V70.9467C52.1032 71.5284 52.5748 72 53.1565 72C53.7382 72 54.2098 71.5284 54.2098 70.9467V60.7186C54.2098 59.6962 53.6326 58.8068 52.7874 58.357V53.6477L55.1878 52.754C57.208 52.0018 58.8998 50.6508 60.0803 48.847L69.4919 34.467C70.3521 33.1531 70.1074 31.3847 68.9234 30.3535ZM67.7296 33.3133L58.318 47.6933C57.3853 49.1182 56.0489 50.1855 54.453 50.7797L50.265 52.3391C49.7198 52.5421 49.4425 53.1486 49.6454 53.6938C49.8034 54.1178 50.2053 54.3798 50.6327 54.3798C50.6488 54.3798 50.665 54.3784 50.6813 54.3777V58.0443H39.0297V52.4643C39.0297 50.3084 39.9841 48.286 41.6483 46.9156L50.4073 39.7023C51.0554 39.1686 51.9921 39.2137 52.5858 39.8075C53.2183 40.44 53.2183 41.4693 52.5858 42.1018L49.1301 45.5574C48.7188 45.9687 48.7188 46.6357 49.1301 47.0469C49.5415 47.4582 50.2084 47.4582 50.6196 47.0469L54.0752 43.5913C54.6572 43.0093 55.0223 42.2688 55.132 41.4672L66.1592 31.9393C66.5535 31.5987 67.147 31.5999 67.54 31.9421C67.9347 32.2859 68.0162 32.8755 67.7296 33.3133Z" fill="#5C5AEA"/>
<path d="M33.0813 58.7015V52.4643C33.0813 49.7138 31.8726 47.1206 29.7648 45.3496C29.3194 44.9753 28.655 45.033 28.2808 45.4784C27.9065 45.9237 27.9642 46.5881 28.4095 46.9624C30.0397 48.3321 30.9746 50.3375 30.9746 52.4642V58.0442H19.3232V54.3776C19.3394 54.3783 19.3557 54.3797 19.3718 54.3797C19.7992 54.3797 20.2011 54.1177 20.3591 53.6937C20.562 53.1485 20.2847 52.542 19.7395 52.339L15.5515 50.7796C13.9556 50.1854 12.619 49.1181 11.6865 47.6932L2.27496 33.3137C1.98818 32.8756 2.06978 32.2861 2.46455 31.9422C2.85749 31.5999 3.45098 31.5986 3.84533 31.9393L14.8746 41.4689C14.9819 42.2458 15.3331 42.9951 15.9293 43.5912L19.3849 47.0468C19.5905 47.2524 19.8601 47.3553 20.1296 47.3553C20.3991 47.3553 20.6688 47.2525 20.8744 47.0468C21.2857 46.6354 21.2857 45.9685 20.8744 45.5573L17.4188 42.1017C16.7862 41.4692 16.7862 40.4399 17.4188 39.8074C18.0127 39.2137 18.9491 39.1685 19.5972 39.7022L24.8775 44.0505C25.3265 44.4205 25.9904 44.356 26.3601 43.907C26.7299 43.458 26.6657 42.7942 26.2166 42.4244L20.9363 38.076C19.4463 36.849 17.2936 36.953 15.9291 38.3177C15.6943 38.5525 15.498 38.8115 15.339 39.0862L5.22246 30.3454C4.03983 29.3234 2.25923 29.3271 1.08096 30.3535C-0.103073 31.3848 -0.347575 33.1531 0.512324 34.4672L9.92389 48.847C11.1044 50.6508 12.7963 52.0018 14.8165 52.754L17.2168 53.6478V58.3571C16.3717 58.807 15.7945 59.6963 15.7945 60.7187V70.9467C15.7945 71.5284 16.2661 72 16.8477 72C17.4294 72 17.901 71.5284 17.901 70.9467V60.7187C17.901 60.4056 18.1556 60.1509 18.4688 60.1509H31.3308C31.6438 60.1509 31.8986 60.4056 31.8986 60.7187V70.9467C31.8986 71.5284 32.3702 72 32.9519 72C33.5336 72 34.0051 71.5284 34.0051 70.9467V60.7187C34.0051 59.9137 33.646 59.1924 33.0813 58.7015Z" fill="#5C5AEA"/>
<path d="M17.2467 33.3677C26.4462 33.3677 33.9306 25.8834 33.9306 16.6838C33.9306 7.48434 26.4461 0 17.2467 0C8.04736 0 0.562878 7.48434 0.562878 16.6838C0.562878 25.8834 8.04722 33.3677 17.2467 33.3677ZM17.2467 2.10656C25.2847 2.10656 31.824 8.6459 31.824 16.6838C31.824 24.7218 25.2847 31.2611 17.2467 31.2611C9.20878 31.2611 2.66944 24.7218 2.66944 16.6838C2.66944 8.6459 9.20878 2.10656 17.2467 2.10656Z" fill="#5C5AEA"/>
<path d="M13.5242 23.3002C14.1137 23.8588 14.8854 24.1664 15.6974 24.1664C16.5548 24.1664 17.3571 23.8288 17.9569 23.2157L20.1941 20.928C20.6008 20.5122 20.5934 19.8454 20.1774 19.4385C19.7616 19.0318 19.0948 19.0393 18.6879 19.4553L16.4509 21.7428C16.2509 21.9473 15.9832 22.0598 15.6974 22.0598C15.4269 22.0598 15.1697 21.9573 14.9732 21.7711L11.8133 18.7767L13.2625 17.2476L14.4892 18.4103C15.1402 19.0269 16.1797 19.0073 16.8066 18.3663L22.9623 12.0722L24.4683 13.5449L21.8267 16.2461C21.42 16.6619 21.4274 17.3287 21.8434 17.7356C22.2592 18.1423 22.926 18.1349 23.3329 17.7189L26.2923 14.6927C26.6009 14.3772 26.7681 13.9605 26.7632 13.5192C26.7583 13.078 26.5818 12.6651 26.2662 12.3567L24.1101 10.2483C23.7945 9.93976 23.3784 9.77222 22.9366 9.77741C22.4953 9.78233 22.0824 9.95886 21.774 10.2743L15.6136 16.5735L14.3818 15.4062C14.0615 15.1024 13.6421 14.9413 13.201 14.9537C12.7599 14.9655 12.3498 15.1485 12.0463 15.4686L9.97179 17.6576C9.3453 18.3187 9.37339 19.3664 10.0346 19.9931L13.5242 23.3002Z" fill="#5C5AEA"/>
<path d="M52.7578 33.3677C56.6726 33.3677 60.4786 31.9834 63.4746 29.4698C63.9202 29.0959 63.9783 28.4316 63.6045 27.986C63.2306 27.5404 62.5662 27.4824 62.1206 27.8561C59.5034 30.052 56.1784 31.2613 52.7579 31.2613C44.72 31.2613 38.1806 24.7219 38.1806 16.684C38.1806 8.64604 44.7198 2.10656 52.7578 2.10656C60.7957 2.10656 67.3351 8.6459 67.3351 16.6838C67.3351 19.5592 66.4983 22.341 64.9153 24.7283C64.5939 25.213 64.7262 25.8666 65.2109 26.1882C65.6956 26.5097 66.3493 26.3773 66.6709 25.8926C68.4836 23.159 69.4416 19.9747 69.4416 16.684C69.4416 7.48434 61.9573 0 52.7578 0C43.5583 0 36.0739 7.48434 36.0739 16.6838C36.0739 25.8834 43.5583 33.3677 52.7578 33.3677Z" fill="#5C5AEA"/>
<path d="M61.3257 10.7349L58.9099 8.26083C58.6026 7.94611 58.1913 7.77001 57.7516 7.76481C57.3119 7.75919 56.8966 7.92575 56.5819 8.23303L52.7586 11.9664L48.9334 8.2312C48.6188 7.92393 48.2039 7.7568 47.7637 7.76312C47.3239 7.76832 46.9126 7.94457 46.6055 8.25915L44.1897 10.7331C43.8824 11.0477 43.7161 11.4632 43.7213 11.9029C43.7266 12.3425 43.9027 12.7539 44.2173 13.0611L47.9274 16.684L44.2172 20.3069C43.9026 20.6141 43.7265 21.0253 43.7213 21.4651C43.7161 21.9048 43.8824 22.3202 44.1895 22.6348L46.6053 25.1087C46.9126 25.4234 47.3239 25.5995 47.7637 25.6047C47.7704 25.6047 47.7771 25.6049 47.7839 25.6049C48.216 25.6049 48.6236 25.439 48.9335 25.1365L52.7586 21.4013L56.582 25.1347C56.8966 25.442 57.3141 25.6053 57.7517 25.6028C58.1914 25.5976 58.6028 25.4213 58.9099 25.1067L61.3257 22.6327C61.9598 21.9833 61.9474 20.9391 61.298 20.3046L57.5898 16.6836L61.2982 13.0624C61.9474 12.4285 61.9598 11.3842 61.3257 10.7349ZM55.3463 15.9303C55.1434 16.1286 55.0289 16.4002 55.0289 16.6839C55.0289 16.9675 55.1434 17.2393 55.3463 17.4374L59.4969 21.4903L57.7242 23.3058L53.4945 19.1755C53.0853 18.7758 52.4319 18.776 52.0229 19.1755L47.7912 23.3076L46.0186 21.4923L50.171 17.4374C50.374 17.2392 50.4884 16.9675 50.4884 16.6839C50.4884 16.4002 50.374 16.1284 50.171 15.9303L46.0186 11.8754L47.7912 10.0601L52.0229 14.1922C52.4321 14.5918 53.0853 14.5918 53.4945 14.1922L57.7242 10.0619L59.4969 11.8774L55.3463 15.9303Z" fill="#5C5AEA"/>
</svg>
