<svg width="66" height="73" viewBox="0 0 66 73" fill="none" xmlns="http://www.w3.org/2000/svg">
<path fill-rule="evenodd" clip-rule="evenodd" d="M0.315674 1.78183C0.315674 0.799263 1.11103 0.00390625 2.0936 0.00390625H18.3224C19.1342 0.00390625 19.8297 0.550234 20.0396 1.30479H37.848C38.4305 1.30479 38.9027 1.77699 38.9027 2.35948C38.9027 2.94197 38.4305 3.41417 37.848 3.41417H20.1043V16.3785H59.6521L63.0433 9.89827L59.6519 3.41417H42.7808C42.1983 3.41417 41.7261 2.94197 41.7261 2.35948C41.7261 1.77699 42.1983 1.30479 42.7808 1.30479H60.2905C60.6831 1.30479 61.0431 1.52282 61.2251 1.87067L65.1682 9.40958C65.3284 9.71586 65.3283 10.0812 65.1681 10.3874L61.225 17.9223C61.043 18.27 60.683 18.4879 60.2905 18.4879H20.0395C19.8305 19.2397 19.1399 19.7931 18.3224 19.7931H2.0936C1.10332 19.7931 0.315674 18.9859 0.315674 18.0111V1.78183ZM17.9949 2.11328H2.42505V17.6837H17.9949V2.11328ZM8.32309 6.01574C8.32309 5.43325 8.79529 4.96105 9.37778 4.96105H11.0383C11.6208 4.96105 12.093 5.43325 12.093 6.01574V13.7768C12.093 14.3593 11.6208 14.8315 11.0383 14.8315C10.4558 14.8315 9.9836 14.3593 9.9836 13.7768V7.07043H9.37778C8.79529 7.07043 8.32309 6.59823 8.32309 6.01574ZM23.7763 7.38938C23.7763 6.8069 24.2485 6.3347 24.831 6.3347H31.3354C31.9179 6.3347 32.3901 6.8069 32.3901 7.38938C32.3901 7.97187 31.9179 8.44407 31.3354 8.44407H24.831C24.2485 8.44407 23.7763 7.97187 23.7763 7.38938ZM23.7763 12.5689C23.7763 11.9864 24.2485 11.5142 24.831 11.5142H38.054C38.6365 11.5142 39.1087 11.9864 39.1087 12.5689C39.1087 13.1514 38.6365 13.6236 38.054 13.6236H24.831C24.2485 13.6236 23.7763 13.1514 23.7763 12.5689ZM0.315674 27.889C0.315674 26.9142 1.10346 26.1072 2.0936 26.1072H18.3224C19.1384 26.1072 19.8281 26.6586 20.0384 27.4084H60.2905C60.683 27.4084 61.0431 27.6264 61.225 27.9743L65.1682 35.5132C65.3283 35.8194 65.3283 36.1846 65.1682 36.4908L61.225 44.0297C61.0431 44.3776 60.683 44.5956 60.2905 44.5956H20.039C19.829 45.3459 19.1363 45.8962 18.3224 45.8962H2.0936C1.1073 45.8962 0.315674 45.0931 0.315674 44.1185V27.889ZM17.9949 43.5409C17.9949 43.5423 17.9949 43.5437 17.9949 43.5451V43.7869H2.42505V28.2166H17.9949V28.4589C17.9949 28.4603 17.9949 28.4617 17.9949 28.4631M20.1043 42.4862H59.6519L63.0434 36.002L59.6519 29.5178H20.1043V42.4862ZM7.04161 33.4449C7.31435 32.044 8.54612 30.9919 10.0242 30.9919C11.7043 30.9919 13.0665 32.3517 13.0665 34.0304C13.0665 34.0723 13.064 34.1141 13.059 34.1557L13.0228 34.4588C13.0181 34.4977 13.0113 34.5364 13.0023 34.5745C12.8538 35.2068 12.5273 35.8868 12.0114 36.6228C11.3208 37.6097 10.7844 38.349 10.3736 38.9034C10.3906 38.9033 10.4077 38.9032 10.4247 38.9031C10.9052 38.9009 11.3805 38.8967 11.736 38.8931C11.9136 38.8913 12.0612 38.8897 12.1643 38.8885C12.2158 38.8879 12.2562 38.8874 12.2837 38.887L12.3229 38.8865L12.3249 38.8865L12.3254 38.8865L12.3255 38.8865C12.3255 38.8865 12.3255 38.8865 12.3292 39.1735L12.3255 38.8865C12.9079 38.879 13.3862 39.3451 13.3937 39.9276C13.4012 40.51 12.9351 40.9882 12.3526 40.9957L12.3391 39.9411C12.3526 40.9957 12.3527 40.9957 12.3526 40.9957L12.3524 40.9957L12.3096 40.9963C12.2817 40.9966 12.2409 40.9971 12.1889 40.9977C12.0849 40.9989 11.9362 41.0006 11.7573 41.0024C11.3996 41.006 10.9202 41.0102 10.4346 41.0125C9.95012 41.0148 9.45502 41.0152 9.06756 41.0111C8.87487 41.0091 8.70159 41.0059 8.56698 41.0009C8.50074 40.9984 8.43417 40.9952 8.37521 40.9905L8.37388 40.9905C8.3574 40.9895 8.20104 40.9798 8.05023 40.9295L8.04384 40.9273C7.95215 40.8961 7.74898 40.8154 7.5709 40.6155C7.36333 40.3824 7.28984 40.1029 7.29569 39.863C7.30061 39.6608 7.36018 39.5059 7.39144 39.4331C7.42679 39.3507 7.46638 39.2825 7.49427 39.2372C7.58009 39.0978 7.72714 38.9056 7.88975 38.6931C7.90384 38.6747 7.91805 38.6562 7.93234 38.6375C8.33009 38.1172 9.05596 37.1672 10.2831 35.4134L10.2837 35.4126C10.6738 34.8563 10.8581 34.4377 10.9361 34.1429L10.9557 33.9791C10.9291 33.4916 10.5244 33.1012 10.0242 33.1012C9.57099 33.1012 9.19486 33.423 9.1121 33.848C9.00078 34.4198 8.44704 34.793 7.87529 34.6817C7.30354 34.5704 6.93028 34.0166 7.04161 33.4449ZM8.54146 38.8877C8.5095 38.8852 8.51494 38.8841 8.54291 38.8878C8.54241 38.8878 8.54193 38.8878 8.54146 38.8877ZM23.7763 33.3232C23.7763 32.7407 24.2485 32.2685 24.831 32.2685H31.3354C31.9179 32.2685 32.3901 32.7407 32.3901 33.3232C32.3901 33.9057 31.9179 34.3779 31.3354 34.3779H24.831C24.2485 34.3779 23.7763 33.9057 23.7763 33.3232ZM23.7763 38.5068C23.7763 37.9243 24.2485 37.4521 24.831 37.4521H38.054C38.6365 37.4521 39.1087 37.9243 39.1087 38.5068C39.1087 39.0893 38.6365 39.5615 38.054 39.5615H24.831C24.2485 39.5615 23.7763 39.0893 23.7763 38.5068ZM0.315674 53.9926C0.315674 53.0103 1.1109 52.2147 2.0936 52.2147H18.3224C19.1343 52.2147 19.8297 52.7612 20.0396 53.5156H37.848C38.4305 53.5156 38.9027 53.9878 38.9027 54.5703C38.9027 55.1528 38.4305 55.625 37.848 55.625H20.1043V68.5893H59.6521L63.0433 62.1091L59.6519 55.625H42.7808C42.1983 55.625 41.7261 55.1528 41.7261 54.5703C41.7261 53.9878 42.1983 53.5156 42.7808 53.5156H60.2905C60.6831 53.5156 61.0431 53.7336 61.2251 54.0815L65.1682 61.6204C65.3284 61.9267 65.3283 62.292 65.1681 62.5982L61.225 70.1331C61.043 70.4808 60.683 70.6987 60.2905 70.6987H20.0395C19.8305 71.4505 19.1399 72.0039 18.3224 72.0039H2.0936C1.10332 72.0039 0.315674 71.1967 0.315674 70.2219V53.9926ZM17.9949 54.3241H2.42505V69.8945H17.9949V54.3241ZM10.21 59.1884C9.76075 59.1884 9.37917 59.5109 9.29308 59.9435C9.1794 60.5148 8.62413 60.8858 8.05284 60.7721C7.48155 60.6584 7.11058 60.1031 7.22426 59.5319C7.50155 58.1383 8.72815 57.079 10.21 57.079C11.8888 57.079 13.2483 58.4416 13.2483 60.1215C13.2483 60.8792 12.9702 61.5742 12.51 62.108C12.97 62.6406 13.2483 63.3344 13.2483 64.0929C13.2483 65.7728 11.8889 67.1354 10.21 67.1354C8.67129 67.1354 7.40225 65.9974 7.19773 64.516C7.19736 64.5133 7.19699 64.5105 7.19664 64.5078C7.18114 64.3887 7.16757 64.2512 7.16757 64.0929C7.16757 63.5104 7.63977 63.0382 8.22226 63.0382C8.80475 63.0382 9.27695 63.5104 9.27695 64.0929C9.27695 64.1278 9.27956 64.167 9.28779 64.2311C9.35145 64.6792 9.73817 65.0261 10.21 65.0261C10.7209 65.0261 11.139 64.6109 11.139 64.0929C11.139 63.5805 10.7223 63.1639 10.21 63.1639C9.6275 63.1639 9.1553 62.6917 9.1553 62.1092C9.1553 61.5267 9.6275 61.0545 10.21 61.0545C10.7196 61.0545 11.139 60.6367 11.139 60.1215C11.139 59.6036 10.7209 59.1884 10.21 59.1884ZM24.831 58.5377H31.3354C31.9179 58.5377 32.3901 59.0099 32.3901 59.5924C32.3901 60.1748 31.9179 60.647 31.3354 60.647H24.831C24.2485 60.647 23.7763 60.1748 23.7763 59.5924C23.7763 59.0099 24.2485 58.5377 24.831 58.5377ZM24.831 63.7172H38.054C38.6365 63.7172 39.1087 64.1894 39.1087 64.7719C39.1087 65.3544 38.6365 65.8266 38.054 65.8266H24.831C24.2485 65.8266 23.7763 65.3544 23.7763 64.7719C23.7763 64.1894 24.2485 63.7172 24.831 63.7172Z" fill="#5C5AEA"/>
</svg>
