<svg width="72" height="73" viewBox="0 0 72 73" fill="none" xmlns="http://www.w3.org/2000/svg">
<path fill-rule="evenodd" clip-rule="evenodd" d="M25.2043 2.11328C12.4499 2.11328 2.10938 12.4538 2.10938 25.2082C2.10938 37.9626 12.4499 48.3031 25.2043 48.3031C29.1013 48.3031 32.773 47.3377 35.9932 45.6331C36.0058 45.626 36.0186 45.6193 36.0314 45.6128C40.1018 43.4484 43.4479 40.1016 45.6114 36.0306C45.6164 36.0208 45.6216 36.011 45.627 36.0013C47.333 32.7801 48.2992 29.1069 48.2992 25.2082C48.2992 18.5149 45.4535 12.4887 40.9024 8.2699C40.4753 7.87391 40.45 7.20659 40.846 6.77941C41.242 6.35223 41.9093 6.32695 42.3365 6.72294C47.3001 11.3242 50.4085 17.9036 50.4085 25.2082C50.4085 29.1909 49.4846 32.958 47.8395 36.3067L51.4637 39.9309C52.4296 40.8969 52.4296 42.4647 51.4637 43.4306L51.4054 43.4889L53.1286 45.2121L53.1868 45.1539C54.1528 44.1879 55.7206 44.1879 56.6865 45.1539L58.9632 47.4306C59.3751 47.8425 59.3751 48.5103 58.9632 48.9221C58.5513 49.334 57.8836 49.334 57.4717 48.9221L55.195 46.6454C55.0528 46.5032 54.8206 46.5032 54.6784 46.6454L46.6416 54.6822C46.4995 54.8243 46.4995 55.0565 46.6416 55.1987L61.6464 70.2034C62.0582 70.6153 62.0582 71.2831 61.6464 71.695C61.2345 72.1069 60.5667 72.1069 60.1548 71.695L45.1501 56.6903C44.1841 55.7243 44.1841 54.1565 45.1501 53.1906L45.2084 53.1322L43.4852 51.4091L43.427 51.4674C42.461 52.4333 40.8932 52.4333 39.9273 51.4674L36.3031 47.8432C32.9543 49.4885 29.1871 50.4124 25.2043 50.4124C11.2849 50.4124 0 39.1276 0 25.2082C0 11.2888 11.2849 0.00390625 25.2043 0.00390625C29.9739 0.00390625 34.4372 1.32928 38.2424 3.63415C38.7406 3.93593 38.8999 4.58446 38.5981 5.08268C38.2963 5.5809 37.6478 5.74015 37.1496 5.43837C33.6648 3.3276 29.5781 2.11328 25.2043 2.11328ZM38.2317 46.7887L41.4188 49.9758C41.561 50.118 41.7932 50.118 41.9354 49.9758L49.9721 41.9391C50.1143 41.7969 50.1143 41.5647 49.9721 41.4225L46.7849 38.2353C44.6696 41.732 41.7283 44.6732 38.2317 46.7887ZM44.9768 49.9175L46.7 51.6407L51.6371 46.7036L49.9139 44.9804L44.9768 49.9175ZM4.83048 25.2081C4.83048 13.9718 13.9695 4.8343 25.2043 4.8343C36.4391 4.8343 45.5781 13.9718 45.5781 25.2081C45.5781 36.4429 36.4391 45.5819 25.2043 45.5819C16.7774 45.5819 9.53375 40.4411 6.43713 33.1376C6.20975 32.6013 6.46017 31.9823 6.99644 31.7549C7.53272 31.5275 8.15178 31.7779 8.37916 32.3142C11.1579 38.8679 17.6561 43.4725 25.2043 43.4725C35.2741 43.4725 43.4687 35.278 43.4687 25.2081C43.4687 15.1369 35.2742 6.94368 25.2043 6.94368C15.1343 6.94368 6.93986 15.1369 6.93986 25.2081C6.93986 26.1033 7.00503 26.9835 7.13 27.8436C7.21375 28.4201 6.81434 28.9553 6.23791 29.039C5.66147 29.1228 5.12628 28.7234 5.04254 28.1469C4.90312 27.1874 4.83048 26.2057 4.83048 25.2081ZM26.2417 13.2051C25.766 12.4317 24.6418 12.4319 24.1663 13.2051L13.4114 30.6926L12.513 30.1401L13.4114 30.6926C12.9122 31.5043 13.4962 32.549 14.449 32.549H35.9588C36.9116 32.549 37.4957 31.5044 36.9965 30.6926L26.2417 13.2051ZM22.3695 12.1C23.6687 9.98759 26.7391 9.98772 28.0384 12.1L28.0384 12.1L38.7933 29.5876L38.7933 29.5877C40.1566 31.8047 38.5618 34.6584 35.9588 34.6584H14.449C11.8462 34.6584 10.2511 31.8047 11.6146 29.5876L22.3695 12.1L23.2679 12.6525L22.3695 12.1ZM25.2197 16.7981C25.8022 16.7981 26.2744 17.2703 26.2744 17.8528V24.7485C26.2744 25.331 25.8022 25.8032 25.2197 25.8032C24.6372 25.8032 24.165 25.331 24.165 24.7485V17.8528C24.165 17.2703 24.6372 16.7981 25.2197 16.7981ZM25.1935 29.0175C25.1935 29.0177 25.1933 29.0187 25.1933 29.0208C25.1933 29.0229 25.1935 29.0239 25.1935 29.0241C25.1936 29.0244 25.1936 29.0245 25.1937 29.0247C25.1939 29.0252 25.1947 29.0267 25.1964 29.0284C25.1972 29.0292 25.198 29.0298 25.1986 29.0303C25.1993 29.0307 25.1998 29.031 25.2001 29.0311C25.2003 29.0312 25.2004 29.0312 25.2006 29.0313C25.2008 29.0313 25.2018 29.0315 25.204 29.0315C25.2049 29.0315 25.2056 29.0315 25.2061 29.0314C25.2068 29.0313 25.2071 29.0313 25.2072 29.0313C25.2075 29.0312 25.2076 29.0312 25.2078 29.0311C25.2083 29.0309 25.2098 29.0301 25.2115 29.0284C25.2133 29.0266 25.214 29.0251 25.2142 29.0246C25.2143 29.0244 25.2144 29.0243 25.2144 29.0241C25.2145 29.0239 25.2147 29.0229 25.2147 29.0208C25.2147 29.0187 25.2145 29.0177 25.2144 29.0175C25.2144 29.0173 25.2143 29.0172 25.2142 29.017C25.214 29.0165 25.2133 29.015 25.2115 29.0133C25.2105 29.0122 25.2095 29.0115 25.2088 29.0111C25.2084 29.0108 25.208 29.0106 25.2078 29.0105C25.2076 29.0104 25.2075 29.0104 25.2072 29.0104C25.2071 29.0103 25.2068 29.0103 25.2062 29.0102C25.2057 29.0102 25.2049 29.0101 25.204 29.0101C25.2018 29.0101 25.2008 29.0103 25.2006 29.0104C25.2004 29.0104 25.2003 29.0105 25.2001 29.0105C25.1998 29.0106 25.1992 29.0109 25.1985 29.0114C25.1979 29.0119 25.1972 29.0124 25.1964 29.0132C25.1947 29.0149 25.1939 29.0164 25.1937 29.0169C25.1936 29.0171 25.1936 29.0173 25.1935 29.0175ZM23.0839 29.0208C23.0839 27.85 24.0329 26.9007 25.204 26.9007C26.3748 26.9007 27.324 27.8499 27.324 29.0208C27.324 30.1917 26.3748 31.1409 25.204 31.1409C24.0329 31.1409 23.0839 30.1916 23.0839 29.0208ZM60.9508 50.9098C61.3626 50.498 62.0304 50.498 62.4423 50.9098L71.6912 60.1588C72.1031 60.5706 72.1031 61.2384 71.6912 61.6503C71.2794 62.0622 70.6116 62.0622 70.1997 61.6503L60.9508 52.4014C60.5389 51.9895 60.5389 51.3217 60.9508 50.9098Z" fill="#5C5AEA"/>
</svg>
