<svg width="72" height="69" viewBox="0 0 72 69" fill="none" xmlns="http://www.w3.org/2000/svg">
<path d="M29.1073 24.5986H19.3252C18.6839 24.5986 18.1639 25.1186 18.1639 25.7599V56.9829C18.1639 57.6243 18.6839 58.1442 19.3252 58.1442H29.1073C29.7486 58.1442 30.2686 57.6243 30.2686 56.9829V25.7599C30.2686 25.1184 29.7488 24.5986 29.1073 24.5986ZM27.946 55.8215H20.4865V26.9212H27.946V55.8215ZM10.9434 36.71H1.16129C0.519968 36.71 0 37.23 0 37.8713V56.9828C0 57.6241 0.519968 58.1441 1.16129 58.1441H10.9434C11.5847 58.1441 12.1047 57.6241 12.1047 56.9828V37.8713C12.1047 37.2298 11.5847 36.71 10.9434 36.71ZM9.78213 55.8215H2.32258V39.0326H9.78213V55.8215ZM5.13595 28.4499C4.74198 27.9439 4.83271 27.2141 5.33874 26.8202L23.5028 12.6767C23.8069 12.4402 24.2083 12.3696 24.5742 12.4882L42.0587 18.1551L56.9667 3.11968L54.8258 3.58086C54.1992 3.71571 53.5811 3.3171 53.4461 2.69015C53.3111 2.0632 53.7098 1.44539 54.3368 1.31039L60.2993 0.0260054C60.6771 -0.0552849 61.0708 0.0566344 61.3494 0.324892C61.6279 0.593151 61.7547 0.982183 61.6875 1.36294L60.7292 6.79749C60.6299 7.36086 60.1399 7.7573 59.587 7.7573C59.52 7.7573 59.4523 7.75149 59.384 7.73944C58.7524 7.6281 58.3307 7.02568 58.4421 6.39409L58.7561 4.61368L43.2049 20.2976C42.8965 20.6087 42.4388 20.7196 42.0223 20.5848L24.4439 14.8875L6.76568 28.6527C6.55374 28.8177 6.30247 28.8977 6.05294 28.8977C5.70716 28.8979 5.36487 28.744 5.13595 28.4499ZM66.5964 40.4433V12.9279C66.5964 12.2866 66.0764 11.7666 65.4351 11.7666H55.6528C55.0115 11.7666 54.4915 12.2866 54.4915 12.9279V36.2707C52.3296 36.4232 50.2829 36.998 48.4326 37.9128V29.8369C48.4326 29.1956 47.9127 28.6756 47.2713 28.6756H37.4892C36.8479 28.6756 36.3279 29.1956 36.3279 29.8369V56.9829C36.3279 57.6243 36.8479 58.1442 37.4892 58.1442H40.2828C42.5652 64.4249 48.5933 68.9232 55.6528 68.9232C64.6666 68.9232 72 61.5899 72 52.5761C72 47.7672 69.9124 43.4372 66.5964 40.4433ZM64.2738 14.0894V38.6933C62.0787 37.3253 59.5376 36.4629 56.8141 36.2709V14.0894H64.2738ZM38.6505 55.8217V30.9982H46.11V39.3117C41.9918 42.2829 39.3058 47.1214 39.3058 52.5761C39.3058 53.6871 39.4177 54.7724 39.6299 55.8217H38.6505ZM55.6528 66.6006C47.9196 66.6006 41.6283 60.3093 41.6283 52.5761C41.6283 44.843 47.9196 38.5517 55.6528 38.5517C63.386 38.5517 69.6774 44.843 69.6774 52.5761C69.6774 60.3093 63.386 66.6006 55.6528 66.6006ZM60.5054 55.1506C60.6285 56.1644 60.3547 57.0918 59.714 57.8326C59.0545 58.595 58.0104 59.129 56.8141 59.3383V59.9139C56.8141 60.5552 56.2941 61.0752 55.6528 61.0752C55.0115 61.0752 54.4915 60.5552 54.4915 59.9139V59.3193C52.6497 58.9457 51.2369 57.7044 50.806 55.9762C50.6508 55.3539 51.0296 54.7237 51.6519 54.5685C52.2748 54.4134 52.9045 54.792 53.0596 55.4143C53.3823 56.7083 54.7239 57.1365 55.7766 57.1129C56.6861 57.0912 57.5624 56.7698 57.9572 56.3132C58.1664 56.0713 58.2435 55.7909 58.1997 55.4304C58.1245 54.8115 57.7469 54.0531 55.4753 53.6802C52.0322 53.1148 51.228 51.3151 51.1596 49.9047C51.0653 47.9622 52.4032 46.3365 54.4915 45.8523V45.2381C54.4915 44.5968 55.0115 44.0768 55.6528 44.0768C56.2941 44.0768 56.8141 44.5968 56.8141 45.2381V45.842C58.1705 46.1401 59.4631 46.9977 60.1374 48.6038C60.3856 49.1952 60.1077 49.8758 59.5163 50.1241C58.9247 50.3726 58.2442 50.0942 57.996 49.5029C57.4493 48.201 56.1124 47.8657 55.0306 48.1114C54.7609 48.1725 53.4188 48.5411 53.4795 49.7921C53.4956 50.1248 53.5384 51.0084 55.8515 51.3883C58.6932 51.8548 60.2589 53.1206 60.5054 55.1506ZM55.6528 39.8189C48.6186 39.8189 42.8956 45.5418 42.8956 52.5761C42.8956 59.6105 48.6184 65.3333 55.6528 65.3333C62.6872 65.3333 68.41 59.6105 68.41 52.5761C68.4102 45.5418 62.6872 39.8189 55.6528 39.8189ZM55.6528 63.0108C49.8992 63.0108 45.2182 58.3297 45.2182 52.5761C45.2182 46.8225 49.8992 42.1415 55.6528 42.1415C61.4066 42.1415 66.0874 46.8225 66.0874 52.5761C66.0876 58.3299 61.4066 63.0108 55.6528 63.0108Z" fill="#5C5AEA"/>
</svg>
