<?xml version="1.0" encoding="UTF-8"?>
<svg width="48px" height="48px" viewBox="0 0 48 48" version="1.1" xmlns="http://www.w3.org/2000/svg" xmlns:xlink="http://www.w3.org/1999/xlink">
    <!-- Generator: Sketch 57.1 (83088) - https://sketch.com -->
    <title>seamless</title>
    <desc>Created with Sketch.</desc>
    <g id="Cases" stroke="none" stroke-width="1" fill="none" fill-rule="evenodd">
        <g id="WAPA-Case-Study-(Desktop)" transform="translate(-858.000000, -2578.000000)" fill="#24EBA3" fill-rule="nonzero">
            <g id="Group-5" transform="translate(258.000000, 2558.000000)">
                <g id="Group-4-Copy-2" transform="translate(580.000000, 0.000000)">
                    <path d="M23.0816651,54.3989258 L23.0816651,61.369751 L37.9300537,61.369751 L37.9300537,62.0699463 C37.9300537,62.3711914 38.1504504,62.6220093 38.4385383,62.6691604 L38.5368652,62.677124 L49.1829834,62.677124 C49.4842285,62.677124 49.7347497,62.4564306 49.7818415,62.1682835 L49.7897949,62.0699463 L49.7897949,61.369751 L56.4936523,61.369751 L56.4936523,62.7705078 L51.0645752,62.7705078 C50.798999,63.4824707 50.139764,64.0043033 49.3533501,64.0707168 L49.1829834,64.0778808 L38.5368652,64.0778808 C37.7336426,64.0778808 37.0388834,63.6035124 36.7181747,62.9200645 L36.6552734,62.7705078 L21.4007568,62.7705078 L21.4007568,64.4979248 C21.4007568,65.6062383 22.2631982,66.5168672 23.3522266,66.5939572 L23.5020752,66.5992432 L32.0802002,66.5992432 L32.0802002,68 L23.5020752,68 C21.6354126,68 20.1051363,66.5319458 20.005192,64.689783 L20,64.4979248 L20,61.369751 L21.6809083,61.369751 L21.6809083,54.3989258 L23.0816651,54.3989258 Z M66.0389404,39.6574707 L66.0389404,61.369751 L67.7198487,61.369751 L67.7198487,64.4979248 C67.7198487,66.3645874 66.2517944,67.8948637 64.4096317,67.994808 L64.2177734,68 L33.480957,68 L33.480957,66.5992432 L64.2177734,66.5992432 C65.326087,66.5992432 66.2367158,65.7368018 66.3138058,64.6477734 L66.3190917,64.4979248 L66.3190917,62.7705078 L57.8944092,62.7705078 L57.8944092,61.369751 L64.6381836,61.369751 L64.6381836,39.6574707 L66.0389404,39.6574707 Z M58.8015136,63.9844971 L58.8015136,65.3852539 L57.4007568,65.3852539 L57.4007568,63.9844971 L58.8015136,63.9844971 Z M63.9376221,63.9844971 L63.9376221,65.3852539 L60.2022705,65.3852539 L60.2022705,63.9844971 L63.9376221,63.9844971 Z M55.0661621,20 C56.2723633,20 57.4406022,20.4057813 58.3838963,21.1473741 L58.5825195,21.3114013 L57.6647949,22.369751 C56.9440917,21.7449951 56.0212402,21.4007568 55.0661621,21.4007568 C52.8776855,21.4007568 51.097168,23.1812744 51.097168,25.369751 C51.097168,27.5582276 52.8776855,29.3383789 55.0661621,29.3383789 C57.2546386,29.3383789 59.0347901,27.5582276 59.0347901,25.369751 C59.0347901,24.7079672 58.8713062,24.0612296 58.5597707,23.4848367 L58.4360352,23.2720948 L59.6243896,22.5305176 C60.1553955,23.3808594 60.4359131,24.3626709 60.4359131,25.369751 C60.4359131,28.0150914 58.5120494,30.2184304 55.9903757,30.6580789 L55.7663574,30.6922607 L55.7663574,31.486206 L62.5368652,31.486206 C64.4035279,31.486206 65.9338041,32.9542603 66.0337484,34.796423 L66.0389404,34.9882812 L66.0389404,38.2567138 L64.6381836,38.2567138 L64.6381836,34.9882812 C64.6381836,33.8799677 63.7757423,32.969674 62.6867138,32.8926131 L62.5368652,32.8873291 L55.7663574,32.8873291 L55.7663574,35.2219239 L62.3035888,35.2219239 L62.3035888,59.0351562 L25.4162598,59.0351562 L25.4162598,35.2219239 L31.953125,35.2219239 L31.953125,32.8873291 L25.1829834,32.8873291 C24.0746699,32.8873291 23.1640411,33.7494353 23.0869511,34.8384346 L23.0816651,34.9882812 L23.0816651,52.998169 L21.6809082,52.998169 L21.6809082,34.9882812 C21.6809082,33.1216187 23.1489624,31.5913423 24.9911252,31.491398 L25.1829834,31.486206 L31.953125,31.486206 L31.953125,24.6691895 L44.3270263,24.6691895 L44.3270263,26.0699463 L33.354248,26.0699463 L33.354248,27.4707031 L50.1248779,27.4707031 C49.9748779,27.1188477 49.8619092,26.7475391 49.7899092,26.3618399 L49.7436523,26.0699463 L45.7277832,26.0699463 L45.7277832,24.6691895 L49.7436523,24.6691895 C50.0882568,22.0383301 52.3430176,20 55.0661621,20 Z M51.0008545,28.8714599 L33.354248,28.8714599 L33.354248,42.645752 L31.953125,42.645752 L31.953125,36.6226807 L26.8170166,36.6226807 L26.8170166,57.6343994 L60.902832,57.6343994 L60.902832,36.6226807 L55.7663574,36.6226807 L55.7663574,53.6185303 L57.8676758,53.6185303 L57.8676758,55.0192871 L29.8521729,55.0192871 L29.8521729,53.6185303 L31.953125,53.6185303 L31.953125,44.046875 L33.354248,44.046875 L33.354248,53.6185303 L54.3656006,53.6185303 L54.3656006,30.6922607 C53.0267334,30.5168458 51.8420411,29.8470459 51.0008545,28.8714599 Z M49.0895996,46.8948974 C50.2482911,46.8948974 51.1905518,47.8375244 51.1905518,48.9962158 C51.1905518,50.1045294 50.3284456,51.0148231 49.2394462,51.091884 L49.0895996,51.097168 L47.2219239,51.097168 C46.0632324,51.097168 45.1206055,50.1549072 45.1206055,48.9962158 C45.1206055,47.8879023 45.9830467,46.9772734 47.0720752,46.9001834 L47.2219239,46.8948974 L49.0895996,46.8948974 Z M42.692627,38.4903565 L42.692627,51.097168 L35.6888427,51.097168 L35.6888427,38.4903565 L42.692627,38.4903565 Z M49.0895996,48.2956542 L47.2219239,48.2956542 C46.8355713,48.2956542 46.5213623,48.6098633 46.5213623,48.9962158 C46.5213623,49.3500366 46.7853851,49.6435445 47.1269788,49.6900054 L47.2219239,49.6964112 L49.0895996,49.6964112 C49.4755859,49.6964112 49.7897949,49.3822021 49.7897949,48.9962158 C49.7897949,48.6098633 49.4755859,48.2956542 49.0895996,48.2956542 Z M41.2918701,39.8911133 L37.0895996,39.8911133 L37.0895996,49.6964112 L41.2918701,49.6964112 L41.2918701,39.8911133 Z M47.3153076,44.0933838 L47.3153076,45.4941406 L44.3270263,45.4941406 L44.3270263,44.0933838 L47.3153076,44.0933838 Z M50.1168213,44.0933838 L50.1168213,45.4941406 L48.7160645,45.4941406 L48.7160645,44.0933838 L50.1168213,44.0933838 Z M51.9844971,41.2918701 L51.9844971,42.692627 L47.1285401,42.692627 L47.1285401,41.2918701 L51.9844971,41.2918701 Z M45.7277832,41.2918701 L45.7277832,42.692627 L44.3270263,42.692627 L44.3270263,41.2918701 L45.7277832,41.2918701 Z M47.7822266,38.4903565 L47.7822266,39.8911133 L44.3270263,39.8911133 L44.3270263,38.4903565 L47.7822266,38.4903565 Z M51.9844971,38.4903565 L51.9844971,39.8911133 L49.1829834,39.8911133 L49.1829834,38.4903565 L51.9844971,38.4903565 Z M52.0310058,31.0192871 L52.0310058,37.0895996 L35.6888427,37.0895996 L35.6888427,31.0192871 L52.0310058,31.0192871 Z M50.630249,32.4204102 L37.0895996,32.4204102 L37.0895996,35.6888428 L50.630249,35.6888428 L50.630249,32.4204102 Z M55.7663574,22.7550049 L55.7663574,25.0797119 L57.0554199,26.3687744 L56.0651855,27.3590088 L54.3656006,25.6597901 L54.3656006,22.7550049 L55.7663574,22.7550049 Z" id="seamless"></path>
                </g>
            </g>
        </g>
    </g>
</svg>