<?xml version="1.0" encoding="UTF-8"?>
<svg width="44px" height="48px" viewBox="0 0 44 48" version="1.1" xmlns="http://www.w3.org/2000/svg" xmlns:xlink="http://www.w3.org/1999/xlink">
    <title>location_map</title>
    <g id="Cases" stroke="none" stroke-width="1" fill="none" fill-rule="evenodd">
        <g id="RiverCruise-(Desktop)" transform="translate(-278.000000, -2485.000000)" fill="#24EBA3" fill-rule="nonzero">
            <g id="Group-5" transform="translate(258.000000, 2465.000000)">
                <path d="M45.7885854,20.0000441 C48.2147216,19.9925587 50.5450741,20.9372074 52.2699379,22.627334 C52.3527983,22.6796681 52.4238757,22.7474388 52.4801295,22.8272577 C55.3296898,25.7297274 55.9382192,30.1321893 53.9814985,33.686764 L53.9814985,33.686764 L58.4829445,33.686764 C59.9482045,33.690529 61.3518893,34.2710983 62.3849832,35.3008369 C63.4176969,36.3305755 63.9950588,37.7247699 63.9897376,39.1765695 L63.9897376,39.1765695 C63.9897376,39.2940388 64.0015204,39.3734811 63.9950588,39.4698662 L63.9950588,39.4698662 L63.9897376,39.4698662 L63.9897376,62.795045 L64.0000046,62.795045 C63.865447,65.7137044 61.4328493,68.0088731 58.4837047,67.9999207 L58.4837047,67.9999207 L55.4015274,67.9999207 C55.1996978,68.002849 55.00509,67.9245362 54.862935,67.7822177 C54.7207801,67.6402756 54.643241,67.4467525 54.6485624,67.2468289 L54.6485624,67.2468289 L54.6485624,62.470875 L24.1110992,62.3082253 C21.8529644,62.3082253 20.0083712,60.4663675 20.0083712,58.2028251 L20.0083712,58.2028251 L20.0083712,30.9642632 L20.0000046,30.943179 C19.9965883,28.5922877 21.9172002,26.6506563 24.2916436,26.6506563 L24.2916436,26.6506563 L29.9428721,26.6506563 C30.3727577,26.6506563 30.7118011,27.038079 30.7118011,27.4639051 L30.7118011,27.4639051 L30.7118011,33.686764 L37.4808842,33.686764 C35.9137592,30.805755 35.9939589,27.3204571 37.691836,24.5128663 C39.3897132,21.7056521 42.4540261,19.9910527 45.7577979,20.0000441 L45.7577979,20.0000441 Z M62.4329009,42.98792 C62.4329009,43.0105103 62.3971462,43.0432661 62.3743406,43.0658564 C61.342387,44.0959714 59.9375618,44.6750346 58.4723018,44.6746581 L58.4723018,44.6746581 L56.2054249,44.6746581 L56.2054249,66.4576856 L58.4829445,66.4576856 C59.5323823,66.4599355 60.5392497,66.047287 61.2808119,65.3115981 C62.0223742,64.5759091 62.4366759,63.5774205 62.4329009,62.5378927 L62.4329009,62.5378927 Z M21.5651921,34.2515201 L21.5651921,58.2024486 C21.5572517,59.6068087 22.6975319,60.752887 24.1152803,60.7656881 L24.1152803,60.7656881 L54.6485624,60.9287145 L54.6485624,43.8851292 C54.643241,43.6852055 54.7207801,43.492059 54.862935,43.3501169 C55.00509,43.2077984 55.1996978,43.1294855 55.4015274,43.1324976 L55.4015274,43.1324976 L58.4772431,43.1324976 C60.6688615,43.1212024 62.4378162,41.3557749 62.4329258,39.1848526 L62.4329258,39.1848526 C62.4381963,38.1332768 62.0246547,37.1313995 61.2834726,36.3908161 C60.5426705,35.6506091 59.5346629,35.2326896 58.4821843,35.2289246 L58.4821843,35.2289246 L52.9130559,35.2289246 C52.7393533,35.4216947 52.5565284,35.6344194 52.363821,35.825307 L52.363821,35.825307 L46.2237923,41.824899 C45.9189575,42.1223372 45.4290171,42.1200782 45.1272229,41.8196279 L45.1272229,41.8196279 L39.0776565,35.8256835 C38.8876098,35.6344194 38.7070655,35.4216947 38.5356434,35.2289246 L38.5356434,35.2289246 L24.2973449,35.2289246 C23.2999799,35.2270421 22.3337825,34.8814113 21.5651921,34.2515201 L21.5651921,34.2515201 Z M45.7939068,42.5361152 C46.2237923,42.5361152 46.5723381,42.8813693 46.5723381,43.3071954 L46.5723381,43.3071954 L46.5723381,45.0903186 C46.5810801,45.9254045 46.2515391,46.7292407 45.6570732,47.3214817 C45.062607,47.9137225 44.2530081,48.2450461 43.409961,48.2409045 L43.409961,48.2409045 L28.8143749,48.2409045 C27.9006303,48.2409045 27.1602084,48.9747109 27.1602084,49.8794501 C27.1602084,50.7845658 27.9006303,51.5179957 28.8143749,51.5179957 L28.8143749,51.5179957 L49.1995436,51.5179957 C50.8385063,51.5179957 52.1673128,52.8342539 52.1673128,54.4577393 C52.1673128,56.0812248 50.8385063,57.397483 49.1995436,57.397483 L49.1995436,57.397483 L36.063516,57.397483 C35.6336304,57.397483 35.2850847,57.0522288 35.2850847,56.6264027 C35.2850847,56.2005766 35.6336304,55.8553224 36.063516,55.8553224 L36.063516,55.8553224 L49.1995436,55.8553224 C49.978735,55.8553224 50.6104502,55.2295726 50.6104502,54.4577393 C50.6104502,53.6859061 49.978735,53.0601563 49.1995436,53.0601563 L49.1995436,53.0601563 L28.8143749,53.0601563 C27.0408591,53.0601563 25.6033459,51.636218 25.6033459,49.8794501 C25.6033459,48.1226823 27.0408591,46.6987439 28.8143749,46.6987439 L28.8143749,46.6987439 L43.409961,46.6987439 C43.8402267,46.703262 44.2541484,46.5345881 44.5567028,46.2315024 C44.8592571,45.9284166 45.0245978,45.5165212 45.0154755,45.0903186 L45.0154755,45.0903186 L45.0154755,43.3071954 C45.0154755,42.8813693 45.3640211,42.5361152 45.7939068,42.5361152 Z M45.7836442,21.5422028 L45.7577979,21.5422028 C43.6805875,21.5350958 41.6866176,22.3524861 40.2217376,23.8114393 C38.7446947,25.2474257 37.9138105,27.2120239 37.9163824,29.2620884 C37.9065888,31.315165 38.7215091,33.2876697 40.1822079,34.7439874 L40.1822079,34.7439874 L45.6813991,40.1916244 L51.2668714,34.7375868 C52.7370727,33.2914348 53.5633957,31.3238246 53.562636,29.271501 C53.5618754,27.2191775 52.7340319,25.2523203 51.2626904,23.8072978 L51.2626904,23.8072978 C49.8164351,22.3524861 47.84223,21.5354724 45.7836442,21.5422028 L45.7836442,21.5422028 Z M45.7638794,24.2685152 C48.395646,24.2685152 50.5287301,26.3818325 50.5287301,28.98837 C50.5287301,31.595284 48.395646,33.7082247 45.7638794,33.7082247 C43.1336331,33.7055891 41.0020694,31.593778 40.9990287,28.98837 C40.9990287,26.3818325 43.1321128,24.2685152 45.7638794,24.2685152 Z M29.1549386,28.1928169 L24.293164,28.1928169 C22.7781117,28.1928169 21.5652277,29.4616355 21.5652277,30.9638867 L21.5652277,30.9638867 L21.5652277,30.9766878 C21.5637133,31.6954341 21.851064,32.3851895 22.3638099,32.8938465 C22.876936,33.4021269 23.573267,33.687517 24.2988654,33.6867655 L24.2988654,33.6867655 L29.1549386,33.6867655 L29.1549386,28.1928169 Z M45.7638794,25.8106758 C43.9930243,25.8125584 42.5577916,27.2342377 42.5558912,28.98837 C42.5558912,30.7436319 43.991884,32.1664406 45.7638794,32.1664406 C47.5354947,32.1664406 48.9718676,30.7436319 48.9718676,28.98837 C48.9718676,27.2334846 47.5358747,25.8106758 45.7638794,25.8106758 Z" id="location_map"></path>
            </g>
        </g>
    </g>
</svg>