<?xml version="1.0" encoding="UTF-8"?>
<svg width="45px" height="50px" viewBox="0 0 45 50" version="1.1" xmlns="http://www.w3.org/2000/svg" xmlns:xlink="http://www.w3.org/1999/xlink">
    <title>gamification</title>
    <g id="Cases" stroke="none" stroke-width="1" fill="none" fill-rule="evenodd">
        <g id="Aposto-(Desktop)" transform="translate(-278.000000, -2624.000000)" fill="#24EBA3" fill-rule="nonzero">
            <g id="Group-4" transform="translate(258.000000, 2604.000000)">
                <path d="M42.033587,20 C49.1752682,20 54.9853432,25.8603516 54.9853432,33.0636719 C54.9853432,38.5708984 51.5324241,43.5157227 46.3932025,45.3682617 C46.0845962,45.4795898 45.8452229,45.7129883 45.7364703,46.0085938 L45.7364703,46.0085938 L44.7863316,48.5914063 C46.0796931,48.3202148 47.589579,47.8460938 49.5396727,47.2155273 C50.5976814,46.8693359 51.7023684,46.6933594 52.8205882,46.6933594 C57.2383556,46.6933594 61.2143462,49.471875 62.716387,53.6075195 C63.2691718,55.0489258 63.9599322,56.8520508 64.4105346,58.028125 C64.8801614,59.2441406 65.0708952,60.5232422 64.976558,61.8277344 C64.9556704,62.1220703 64.9186024,62.4224609 64.8664325,62.7196289 C64.804064,63.0754883 64.4934965,63.3260742 64.1428209,63.3260742 C64.1007516,63.3260742 64.0581919,63.3225586 64.0153381,63.3150391 C63.6152384,63.2454102 63.3475247,62.865918 63.4174441,62.4674805 C63.7032996,60.8356445 63.4304865,59.5803711 62.9313426,58.2766602 L62.931,58.277 L62.8837727,58.5588875 C61.9969338,63.4298713 57.8854943,67.1965012 52.8389618,67.5786942 L52.5467945,67.5969727 C53.7730804,68.2830078 55.1607791,68.6026367 56.5816233,68.5224609 C58.8222796,68.3960938 60.9308441,67.2118164 62.2221463,65.3543945 C62.4533803,65.0219727 62.9115337,64.9388672 63.2455385,65.1692383 C63.5794452,65.3995117 63.6627012,65.8557617 63.4314672,66.1883789 C61.8842189,68.4140625 59.3545691,69.8333984 56.6648793,69.9851563 C54.8302065,70.0885742 53.0395643,69.6360352 51.4878052,68.6757813 L51.4878052,68.6757813 L51.4354042,68.6434081 C50.9575384,68.3481823 47.3700276,66.1317708 47.2644981,66.0652344 L47.2644981,66.0652344 C46.5836421,65.6448242 45.8666988,65.3917969 45.1330847,65.3143555 C43.1889728,65.1067383 41.8112767,65.1068359 39.8681455,65.3142578 C39.1433571,65.3908203 38.4350433,65.6383789 37.7613461,66.0503906 C37.7534029,66.055957 34.1955557,68.2536133 33.5122482,68.6761719 C32.1287663,69.5317383 30.5216992,70 28.8483411,70 C24.2602372,70 20.4674295,66.5074219 20.0425197,62.0286133 C20.0361456,61.9617188 20.0282024,61.8951172 20.0233973,61.8277344 C19.9291582,60.5230469 20.1198919,59.244043 20.5903033,58.0262695 C21.0294323,56.8800781 22.2837644,53.6078125 22.2837644,53.6078125 C22.2871966,53.5984375 22.2913153,53.5888672 22.2947475,53.5794922 C23.8046335,49.4594727 27.7719945,46.693457 32.1797594,46.693457 C33.2974888,46.693457 34.4017836,46.8693359 35.4621458,47.2164063 C37.0192004,47.7198242 38.2013577,48.0876953 39.191016,48.3474609 L39.191016,48.3474609 L38.3307036,46.0085938 C38.221951,45.7128906 37.9825777,45.4795898 37.6739714,45.3682617 C32.5347498,43.5157227 29.0818307,38.5708984 29.0818307,33.0636719 C29.0818307,30.0699219 30.0588388,27.2533203 31.9071424,24.9183594 C32.1584795,24.6006836 32.6209477,24.5462891 32.9400468,24.7966797 C33.2590479,25.0470703 33.3136693,25.5076172 33.0622341,25.825293 C31.4205506,27.8991211 30.5527854,30.4021484 30.5527854,33.0636719 C30.5527854,37.95625 33.6158034,42.3476563 38.1746843,43.9910156 C38.8930006,44.2499023 39.4533362,44.8017578 39.7119301,45.5046875 L39.7119301,45.5046875 L41.924246,51.51875 C41.9326795,51.5414063 41.9521941,51.5947266 42.0334889,51.5947266 C42.1148817,51.5947266 42.1343964,51.5414063 42.1428299,51.5186523 L42.1428299,51.5186523 L44.3551457,45.5046875 C44.6137396,44.8017578 45.1740753,44.2499023 45.8923915,43.9910156 C50.4513705,42.3475586 53.5142905,37.95625 53.5142905,33.0636719 C53.5142905,26.6680664 48.3640857,21.4648438 42.033587,21.4648438 C39.6334792,21.4648438 37.3347692,22.2051758 35.3862445,23.6057617 C35.0568487,23.8425781 34.5971263,23.7685547 34.3594201,23.440625 C34.1216157,23.1125 34.195948,22.6547852 34.5252457,22.4180664 C36.7260881,20.8361328 39.3225193,20 42.033587,20 Z M22.0689069,58.2773438 C21.9551531,58.5743164 21.9008259,58.7099609 21.8285529,58.9323242 L21.8285529,58.9323242 C21.535931,59.8332031 21.4227656,60.7691406 21.4911159,61.7234375 C21.5032758,61.894043 21.5233789,62.0624023 21.5471103,62.2295898 C21.8720932,64.5140625 23.2544965,66.4603516 25.1820355,67.5632812 C26.1464915,68.1151367 27.2464714,68.4567383 28.4186262,68.5229492 C29.8365285,68.603125 31.2209911,68.2859375 32.4533569,67.5974609 C27.176454,67.3364258 22.8601825,63.3787109 22.0689069,58.2773438 Z M52.8203921,48.1583984 C51.8583877,48.1583984 50.908249,48.309668 49.9962571,48.6081055 C47.5569239,49.396875 45.7805009,49.9482422 44.1998129,50.1855469 L44.1998129,50.1855469 L43.5239583,52.0227539 C43.2922339,52.6526367 42.7071861,53.059668 42.0334889,53.059668 C41.3598897,53.059668 40.774842,52.6526367 40.5431176,52.0228516 L40.5431176,52.0228516 L39.7994029,50.0009766 C38.5672331,49.7335938 37.1207943,49.2928711 35.0055614,48.6089844 C34.091216,48.3097656 33.1414696,48.1583984 32.1800536,48.1583984 C28.6321108,48.1583984 25.4164076,50.2416016 23.9533961,53.412793 C23.5932083,54.4316406 23.4100254,55.4995117 23.4100254,56.5876953 C23.4100254,61.8583984 27.7159021,66.1463867 33.0086914,66.1463867 C33.7618202,66.1463867 34.511909,66.0578125 35.2403258,65.8850586 C35.4788166,65.737793 36.8233673,64.9075195 36.9234903,64.8457031 C36.9349637,64.8375977 36.9467313,64.8298828 36.9587932,64.8224609 C37.8301867,64.2832031 38.756496,63.9586914 39.7121262,63.8578125 C41.7442992,63.640625 43.2560484,63.6407227 45.2891039,63.8579102 C46.2445381,63.9587891 47.1706511,64.2833984 48.0410641,64.8226563 C48.0426331,64.8235352 48.8768606,65.3392578 49.7606101,65.8851563 C50.4890269,66.0578125 51.2389196,66.1463867 51.9917543,66.1463867 C57.2845435,66.1463867 61.5903222,61.8583008 61.5903222,56.5876953 C61.5903222,55.4995117 61.4071393,54.4317383 61.0469515,53.412793 C59.5839399,50.2416016 56.3681387,48.1583984 52.8203921,48.1583984 Z M33.3484819,51.3579102 C34.0312991,51.3579102 34.5868297,51.9110352 34.5868297,52.5910156 L34.5868297,52.5910156 L34.5868297,54.2851563 L36.2879398,54.2851563 C36.9707569,54.2851563 37.5262875,54.8382813 37.5262875,55.5182617 L37.5262875,55.5182617 L37.5262875,57.8463867 C37.5262875,58.5263672 36.9707569,59.0795898 36.2879398,59.0795898 L36.2879398,59.0795898 L34.5868297,59.0795898 L34.5868297,60.7736328 C34.5868297,61.4536133 34.0312991,62.0068359 33.3484819,62.0068359 L33.3484819,62.0068359 L31.0106446,62.0068359 C30.3278274,62.0068359 29.7722968,61.4536133 29.7722968,60.7736328 L29.7722968,60.7736328 L29.7722968,59.0795898 L28.0711867,59.0795898 C27.3883695,59.0795898 26.832839,58.5263672 26.832839,57.8463867 L26.832839,57.8463867 L26.832839,55.5182617 C26.832839,54.8382813 27.3883695,54.2851563 28.0711867,54.2851563 L28.0711867,54.2851563 L29.7722968,54.2851563 L29.7722968,52.5910156 C29.7722968,51.9110352 30.3278274,51.3579102 31.0106446,51.3579102 L31.0106446,51.3579102 Z M50.3387934,56.5117187 C51.8601528,56.5117187 53.0978141,57.7442383 53.0978141,59.2592773 C53.0978141,60.7743164 51.8601528,62.0068359 50.3387934,62.0068359 C48.817532,62.0068359 47.5798707,60.7743164 47.5798707,59.2592773 C47.5798707,57.7442383 48.817532,56.5117187 50.3387934,56.5117187 Z M43.7260674,59.2769531 C44.1323451,59.2769531 44.4615448,59.6047852 44.4615448,60.009375 C44.4615448,60.4139648 44.1323451,60.7417969 43.7260674,60.7417969 L43.7260674,60.7417969 L41.2744763,60.7417969 C40.8681986,60.7417969 40.5389989,60.4139648 40.5389989,60.009375 C40.5389989,59.6047852 40.8681986,59.2769531 41.2744763,59.2769531 L41.2744763,59.2769531 Z M33.1158749,52.8228516 L31.2432515,52.8228516 L31.2432515,54.7170898 C31.2432515,55.2866211 30.7780376,55.75 30.2061304,55.75 L30.2061304,55.75 L28.3038917,55.75 L28.3038917,57.6147461 L30.2061304,57.6147461 C30.7780376,57.6147461 31.2432515,58.0780273 31.2432515,58.6475586 L31.2432515,58.6475586 L31.2432515,60.5418945 L33.1158749,60.5418945 L33.1158749,58.6475586 C33.1158749,58.0780273 33.5810889,57.6147461 34.1529961,57.6147461 L34.1529961,57.6147461 L36.0552347,57.6147461 L36.0552347,55.75 L34.1529961,55.75 C33.5810889,55.75 33.1158749,55.2866211 33.1158749,54.7170898 L33.1158749,54.7170898 L33.1158749,52.8228516 Z M50.3387934,57.9764648 C49.6286165,57.9764648 49.0508255,58.5519531 49.0508255,59.2591797 C49.0508255,59.9664062 49.6286165,60.5418945 50.3387934,60.5418945 C51.0489704,60.5418945 51.6268594,59.9664062 51.6268594,59.2591797 C51.6268594,58.5519531 51.0489704,57.9764648 50.3387934,57.9764648 Z M55.3030695,51.3579102 C56.8244289,51.3579102 58.0620902,52.5905273 58.0620902,54.1053711 C58.0620902,55.6204102 56.8244289,56.8529297 55.3030695,56.8529297 C53.7818081,56.8529297 52.5441468,55.6204102 52.5441468,54.1053711 C52.5441468,52.5904297 53.7818081,51.3579102 55.3030695,51.3579102 Z M55.3030695,52.8227539 C54.5928925,52.8227539 54.0151015,53.3981445 54.0151015,54.1053711 C54.0151015,54.8125977 54.5928925,55.3880859 55.3030695,55.3880859 C56.0132464,55.3880859 56.5911355,54.8125977 56.5911355,54.1053711 C56.5911355,53.3981445 56.0132464,52.8227539 55.3030695,52.8227539 Z M41.659278,28.8538086 C41.9043391,28.7802734 42.1633252,28.7802734 42.4081901,28.8538086 L42.4081901,28.8538086 L50.2177829,31.2027344 C50.6412217,31.3300781 50.9256063,31.7125977 50.9256063,32.1543945 C50.9256063,32.5961914 50.6411236,32.9787109 50.2176848,33.1060547 L50.2176848,33.1060547 L47.9281928,33.7946289 L47.9281928,37.512793 C47.9281928,38.1089844 47.5258377,38.6286133 46.9498118,38.7766602 L46.9498118,38.7766602 L42.4998796,39.9276367 C42.3474887,39.9671875 42.1906849,39.9870117 42.033685,39.9870117 C41.8765871,39.9870117 41.719391,39.9671875 41.5665098,39.9274414 L41.5665098,39.9274414 L37.1169698,38.7762695 C36.5422188,38.6287109 36.1398637,38.1089844 36.1398637,37.512793 L36.1398637,37.512793 L36.1398637,33.7948242 L34.7978626,33.3912109 L34.7978626,35.3855469 C34.7978626,35.7901367 34.468663,36.1179687 34.0623853,36.1179687 C33.6561076,36.1179687 33.3269079,35.7901367 33.3269079,35.3855469 L33.3269079,35.3855469 L33.3269079,32.7333984 C33.2094277,32.5692383 33.1419599,32.3689453 33.1419599,32.1542969 C33.1419599,31.7125 33.4264425,31.3299805 33.8498813,31.2026367 L33.8498813,31.2026367 Z M46.457042,34.2371094 L42.4081901,35.4547852 C42.2858067,35.4916992 42.1597949,35.5100586 42.033685,35.5100586 C41.9075752,35.5100586 41.7813672,35.4916992 41.6586896,35.4546875 L41.6586896,35.4546875 L37.6108184,34.237207 L37.6108184,37.390625 L41.9369943,38.5099609 C42.0005395,38.5262695 42.0667325,38.5264648 42.1292971,38.5101562 L42.1292971,38.5101562 L46.457042,37.390625 L46.457042,34.2371094 Z M42.033587,30.2714844 L35.7732037,32.1543945 L42.033685,34.037207 L48.2940683,32.1543945 L42.033587,30.2714844 Z" id="gamification"></path>
            </g>
        </g>
    </g>
</svg>