<svg width="46" height="48" viewBox="0 0 46 48" fill="none" xmlns="http://www.w3.org/2000/svg">
<path fill-rule="evenodd" clip-rule="evenodd" d="M6.05714 24.7351L8.60162 23.5256L10.3927 24.2675L11.3367 26.922C11.3894 27.0701 11.4866 27.1983 11.615 27.289C11.7434 27.3797 11.8968 27.4285 12.054 27.4286H15.3746C15.5319 27.4286 15.6853 27.3799 15.8138 27.2892C15.9424 27.1985 16.0397 27.0702 16.0924 26.922L17.0364 24.2675L18.8274 23.5256L21.3719 24.7351C21.514 24.8026 21.6735 24.8245 21.8285 24.7977C21.9836 24.771 22.1265 24.6969 22.2378 24.5857L24.5857 22.2381C24.697 22.1269 24.7711 21.9839 24.7978 21.8289C24.8246 21.6738 24.8027 21.5143 24.7351 21.3722L23.5256 18.8277L24.2675 17.0367L26.922 16.0927C27.0703 16.0399 27.1985 15.9426 27.2892 15.814C27.38 15.6854 27.4286 15.5319 27.4286 15.3746V12.054C27.4286 11.8967 27.3799 11.7432 27.2892 11.6147C27.1985 11.4862 27.0702 11.3889 26.922 11.3362L24.2675 10.3922L23.5256 8.60114L24.7351 6.05667C24.8028 5.91454 24.8247 5.75495 24.7979 5.59985C24.7712 5.44475 24.697 5.30174 24.5857 5.19048L22.2381 2.84286C22.1269 2.73159 21.9839 2.65749 21.8289 2.63074C21.6738 2.60398 21.5143 2.62588 21.3722 2.69343L18.8277 3.90295L17.0367 3.16105L16.0924 0.506571C16.0397 0.358364 15.9424 0.230106 15.8138 0.139405C15.6853 0.0487044 15.5319 7.65689e-06 15.3746 0H12.054C11.8967 7.65689e-06 11.7432 0.0487044 11.6147 0.139405C11.4862 0.230106 11.3889 0.358364 11.3362 0.506571L10.3922 3.16105L8.60114 3.90295L6.05714 2.69343C5.91495 2.62571 5.75527 2.60371 5.60007 2.63047C5.44487 2.65723 5.30178 2.73143 5.19048 2.84286L2.84286 5.19048C2.73143 5.30178 2.65723 5.44487 2.63047 5.60007C2.60371 5.75527 2.62571 5.91495 2.69343 6.05714L3.90295 8.60162L3.16105 10.3927L0.506571 11.3362C0.358364 11.3889 0.230106 11.4862 0.139405 11.6147C0.0487044 11.7432 7.65689e-06 11.8967 0 12.054V15.3746C7.65689e-06 15.5319 0.0487044 15.6853 0.139405 15.8138C0.230106 15.9424 0.358364 16.0397 0.506571 16.0924L3.16105 17.0364L3.90295 18.8274L2.69343 21.3719C2.62582 21.514 2.60388 21.6736 2.63064 21.8287C2.6574 21.9838 2.73153 22.1268 2.84286 22.2381L5.19048 24.5857C5.30182 24.6971 5.44491 24.7712 5.60009 24.798C5.75528 24.8247 5.91494 24.8028 6.05714 24.7351ZM5.44038 18.5571L4.43924 16.1404C4.39844 16.0419 4.33741 15.9531 4.2601 15.8797C4.1828 15.8063 4.09094 15.7499 3.99048 15.7143L1.52381 14.8369V12.5917L3.99048 11.7143C4.09092 11.6786 4.18275 11.6222 4.26003 11.5488C4.3373 11.4753 4.39829 11.3865 4.43905 11.288L5.44038 8.87143C5.48124 8.77289 5.50096 8.66687 5.49825 8.56024C5.49554 8.4536 5.47048 8.34872 5.42467 8.25238L4.30086 5.88771L5.88809 4.30057L8.25276 5.42438C8.34908 5.47024 8.45397 5.49533 8.56062 5.49804C8.66726 5.50075 8.77328 5.481 8.87181 5.44009L11.2886 4.43895C11.387 4.39814 11.4757 4.33713 11.549 4.25988C11.6223 4.18263 11.6786 4.09085 11.7143 3.99048L12.5917 1.52381H14.8369L15.7143 3.99048C15.75 4.09092 15.8064 4.18275 15.8798 4.26003C15.9532 4.3373 16.0421 4.39829 16.1406 4.43905L18.5571 5.44038C18.6557 5.48129 18.7617 5.50103 18.8683 5.49832C18.975 5.49562 19.0799 5.47052 19.1762 5.42467L21.5409 4.30086L23.1284 5.88838L22.0046 8.25305C21.9588 8.34938 21.9337 8.45426 21.931 8.5609C21.9283 8.66754 21.948 8.77356 21.9889 8.8721L22.99 11.2889C23.0308 11.3871 23.0918 11.4758 23.1689 11.5491C23.2461 11.6224 23.3378 11.6786 23.4381 11.7143L25.9048 12.5915V14.8367L23.4381 15.7143C23.3377 15.75 23.2458 15.8064 23.1685 15.8798C23.0913 15.9532 23.0303 16.0421 22.9895 16.1406L21.9882 18.5571C21.9473 18.6557 21.9276 18.7617 21.9303 18.8683C21.933 18.975 21.9581 19.0799 22.0039 19.1762L23.1277 21.5409L21.5402 23.1284L19.1755 22.0046C19.0792 21.9587 18.9743 21.9336 18.8677 21.9309C18.761 21.9282 18.655 21.9479 18.5565 21.9889L16.1397 22.99C16.0414 23.0308 15.9528 23.0918 15.8795 23.169C15.8062 23.2461 15.7499 23.3378 15.7143 23.4381L14.8369 25.9048H12.5917L11.7143 23.4381C11.6786 23.3377 11.6222 23.2458 11.5488 23.1685C11.4753 23.0913 11.3865 23.0303 11.288 22.9895L8.87143 21.9882C8.7729 21.9473 8.66688 21.9275 8.56024 21.9302C8.45359 21.933 8.3487 21.958 8.25238 22.0039L5.88771 23.1277L4.30057 21.5405L5.42438 19.1758C5.47018 19.0795 5.49527 18.9747 5.49803 18.8682C5.50078 18.7616 5.48114 18.6556 5.44038 18.5571ZM13.7143 20.5714C15.0705 20.5714 16.3963 20.1693 17.5239 19.4158C18.6516 18.6623 19.5305 17.5914 20.0495 16.3384C20.5685 15.0854 20.7043 13.7067 20.4397 12.3765C20.1751 11.0464 19.522 9.82454 18.563 8.86556C17.604 7.90657 16.3822 7.25349 15.052 6.9889C13.7219 6.72432 12.3431 6.86011 11.0902 7.37912C9.83719 7.89812 8.76625 8.77701 8.01278 9.90466C7.25931 11.0323 6.85714 12.3581 6.85714 13.7143C6.85918 15.5323 7.58229 17.2752 8.86781 18.5608C10.1533 19.8463 11.8963 20.5694 13.7143 20.5714ZM13.7143 8.38096C14.7691 8.38096 15.8003 8.69375 16.6773 9.27978C17.5544 9.86582 18.238 10.6988 18.6416 11.6733C19.0453 12.6478 19.1509 13.7202 18.9451 14.7548C18.7394 15.7893 18.2314 16.7396 17.4855 17.4855C16.7396 18.2314 15.7893 18.7394 14.7548 18.9451C13.7202 19.1509 12.6478 19.0453 11.6733 18.6416C10.6988 18.238 9.86582 17.5544 9.27978 16.6773C8.69375 15.8003 8.38095 14.7691 8.38095 13.7143C8.38254 12.3003 8.94495 10.9447 9.9448 9.94481C10.9447 8.94496 12.3003 8.38254 13.7143 8.38096ZM27.4562 39.1286L28.4571 36.7118L29.8652 37.2952L28.9938 39.3991L30.2033 41.9436C30.2709 42.0857 30.2928 42.2452 30.266 42.4003C30.2392 42.5553 30.1651 42.6983 30.0538 42.8095L27.7058 45.1571C27.5946 45.2684 27.4516 45.3425 27.2966 45.3692C27.1416 45.396 26.9821 45.3741 26.84 45.3066L24.2956 44.097L22.5046 44.8389L21.5607 47.4934C21.5079 47.6416 21.4106 47.7699 21.2821 47.8606C21.1536 47.9513 21.0001 48 20.8428 48H17.5222C17.3648 48.0001 17.2113 47.9514 17.0826 47.8607C16.954 47.77 16.8567 47.6417 16.8039 47.4934L15.8598 44.8389L14.0693 44.097L11.5249 45.3066C11.3828 45.3741 11.2233 45.396 11.0682 45.3692C10.9132 45.3425 10.7703 45.2684 10.6591 45.1571L8.31143 42.8097C8.20015 42.6985 8.12604 42.5555 8.09926 42.4005C8.07249 42.2454 8.09437 42.0859 8.16191 41.9438L9.37143 39.3993L8.62962 37.6083L5.97515 36.6644C5.82692 36.6117 5.69865 36.5143 5.60795 36.3858C5.51725 36.2573 5.46856 36.1038 5.46858 35.9465V32.6259C5.46856 32.4686 5.51725 32.3151 5.60795 32.1866C5.69865 32.058 5.82692 31.9607 5.97515 31.908L8.62962 30.9641L9.37143 29.173L8.16191 26.6286L9.53781 25.9735L10.8928 28.8238C10.9386 28.9201 10.9636 29.025 10.9664 29.1317C10.9691 29.2383 10.9493 29.3443 10.9085 29.4429L9.90753 31.8596C9.86673 31.9581 9.80571 32.0469 9.72843 32.1204C9.65114 32.1938 9.55931 32.2502 9.45886 32.2859L6.99219 33.1631V35.4086L9.45886 36.2857C9.55912 36.3214 9.65079 36.3778 9.72795 36.4511C9.80511 36.5244 9.86606 36.613 9.90686 36.7113L10.9078 39.1281C10.9487 39.2266 10.9684 39.3326 10.9657 39.4393C10.963 39.5459 10.9379 39.6508 10.8921 39.7471L9.76829 42.1118L11.3558 43.6993L13.7205 42.5755C13.8168 42.5297 13.9217 42.5046 14.0283 42.5019C14.135 42.4992 14.241 42.5189 14.3395 42.5598L16.7563 43.5609C16.8548 43.6017 16.9436 43.6627 17.0171 43.74C17.0905 43.8172 17.1469 43.9091 17.1826 44.0095L18.0599 46.4762H20.3048L21.1822 44.0093C21.2179 43.9089 21.2743 43.8171 21.3478 43.7398C21.4212 43.6625 21.5101 43.6015 21.6086 43.5608L24.0245 42.5603C24.123 42.5194 24.229 42.4997 24.3357 42.5024C24.4423 42.5051 24.5472 42.5302 24.6435 42.576L27.0082 43.6998L28.5957 42.1123L27.4719 39.7476C27.4261 39.6513 27.401 39.5464 27.3983 39.4398C27.3956 39.3331 27.4153 39.2271 27.4562 39.1286ZM30.0538 25.7619L27.7058 23.4143C27.5946 23.303 27.4516 23.229 27.2966 23.2022C27.1416 23.1754 26.9821 23.1973 26.84 23.2649L23.9898 24.6198L24.644 25.9961L27.0087 24.8723L28.5962 26.4598L27.4724 28.8245C27.4266 28.9208 27.4015 29.0257 27.3988 29.1323C27.3961 29.239 27.4158 29.345 27.4567 29.4435L28.3211 31.5304L29.7288 30.9471L28.9941 29.1732L30.2036 26.6288C30.2713 26.4865 30.2933 26.3268 30.2665 26.1715C30.2396 26.0163 30.1653 25.8732 30.0538 25.7619ZM22.9921 39.9872C21.8645 40.7407 20.5387 41.1429 19.1825 41.1429C17.3645 41.1408 15.6215 40.4177 14.336 39.1322C13.0505 37.8467 12.3274 36.1037 12.3253 34.2857C12.3253 32.9295 12.7275 31.6037 13.481 30.4761C14.2344 29.3484 15.3054 28.4695 16.5584 27.9505C17.8113 27.4315 19.1901 27.2957 20.5202 27.5603C21.8504 27.8249 23.0722 28.478 24.0312 29.437C24.9902 30.396 25.6433 31.6178 25.9079 32.948C26.1724 34.2781 26.0367 35.6569 25.5177 36.9098C24.9987 38.1628 24.1198 39.2337 22.9921 39.9872ZM22.1455 29.8512C21.2685 29.2652 20.2373 28.9524 19.1825 28.9524C17.7685 28.954 16.4128 29.5164 15.413 30.5162C14.4131 31.5161 13.8507 32.8717 13.8491 34.2857C13.8491 35.3406 14.1619 36.3717 14.748 37.2488C15.334 38.1258 16.167 38.8094 17.1415 39.2131C18.116 39.6167 19.1884 39.7224 20.223 39.5166C21.2575 39.3108 22.2078 38.8028 22.9537 38.057C23.6996 37.3111 24.2075 36.3608 24.4133 35.3262C24.6191 34.2916 24.5135 33.2193 24.1098 32.2447C23.7062 31.2702 23.0226 30.4372 22.1455 29.8512ZM45.2077 13.6219L42.5532 12.6779L41.8113 10.8869L43.0209 8.34238C43.0885 8.20025 43.1104 8.04067 43.0836 7.88557C43.0569 7.73046 42.9827 7.58745 42.8714 7.47619L40.5238 5.12857C40.4126 5.01731 40.2696 4.94321 40.1146 4.91645C39.9595 4.8897 39.8 4.9116 39.6579 4.97914L37.1134 6.18867L35.3224 5.44676L34.3785 2.79229C34.3257 2.64402 34.2284 2.51572 34.0998 2.42501C33.9712 2.3343 33.8177 2.28564 33.6603 2.28571H30.3397C30.1824 2.2857 30.0289 2.33439 29.9004 2.42509C29.7718 2.51579 29.6745 2.64406 29.6218 2.79229L28.6779 5.44676L26.574 6.31838L27.1571 7.7261L29.5739 6.72495C29.6724 6.68412 29.7612 6.62308 29.8346 6.54578C29.908 6.46848 29.9643 6.37664 30 6.27619L30.8771 3.80952H33.1223L34 6.27619C34.0357 6.37664 34.0921 6.46847 34.1655 6.54574C34.2389 6.62301 34.3278 6.684 34.4263 6.72476L36.8429 7.7261C36.9414 7.76696 37.0474 7.78667 37.154 7.78397C37.2607 7.78126 37.3656 7.75619 37.4619 7.71038L39.8266 6.58657L41.4141 8.1741L40.2903 10.5388C40.2445 10.6351 40.2194 10.74 40.2167 10.8466C40.214 10.9533 40.2337 11.0593 40.2746 11.1578L41.2757 13.5746C41.3165 13.6728 41.3775 13.7615 41.4547 13.8347C41.5319 13.908 41.6235 13.9643 41.7238 14L44.1905 14.8771V17.1223L41.7238 18C41.6234 18.0357 41.5315 18.0921 41.4543 18.1656C41.377 18.239 41.316 18.3279 41.2752 18.4264L40.2739 20.8429C40.233 20.9414 40.2133 21.0474 40.216 21.1541C40.2187 21.2607 40.2438 21.3656 40.2896 21.4619L41.4134 23.8266L39.4457 25.7943L40.5238 26.8714L42.8714 24.5238C42.9827 24.4126 43.0568 24.2696 43.0835 24.1146C43.1103 23.9595 43.0884 23.8 43.0209 23.6579L41.8113 21.1134L42.5532 19.3224L45.2077 18.3785C45.356 18.3257 45.4843 18.2284 45.575 18.0998C45.6657 17.9712 45.7144 17.8177 45.7143 17.6603V14.3397C45.7143 14.1824 45.6656 14.029 45.5749 13.9004C45.4842 13.7719 45.3559 13.6746 45.2077 13.6219ZM29.0152 20.4261C29.897 21.0203 30.9367 21.3364 32 21.3333C32.8178 21.333 33.6246 21.1446 34.358 20.7827C35.0914 20.4207 35.7317 19.895 36.2295 19.2461C36.7273 18.5972 37.0691 17.8425 37.2286 17.0404C37.3882 16.2382 37.3611 15.4102 37.1495 14.6202C36.9379 13.8302 36.5475 13.0994 36.0084 12.4844C35.4693 11.8694 34.796 11.3867 34.0405 11.0734C33.2851 10.7602 32.4677 10.6248 31.6516 10.6779C30.8355 10.731 30.0425 10.9711 29.334 11.3795L28.5708 10.0606C29.7806 9.36242 31.1748 9.05037 32.5668 9.1662C33.9588 9.28203 35.2822 9.82021 36.36 10.7087C37.4378 11.5972 38.2185 12.7937 38.5977 14.1381C38.977 15.4824 38.9366 16.9105 38.482 18.2313C38.0274 19.5521 37.1803 20.7025 36.0541 21.5287C34.9278 22.3549 33.576 22.8175 32.1797 22.8545C30.7834 22.8915 29.4091 22.5011 28.2406 21.7357C27.0722 20.9703 26.1654 19.8663 25.6415 18.5714L27.0541 18C27.4503 18.9867 28.1335 19.8318 29.0152 20.4261ZM40.6424 28.9524H38.0952V25.9048C38.0952 25.2986 37.8544 24.7172 37.4258 24.2885C36.9971 23.8599 36.4157 23.619 35.8095 23.619C35.2033 23.619 34.6219 23.8599 34.1933 24.2885C33.7646 24.7172 33.5238 25.2986 33.5238 25.9048V32.4464L33.0122 31.9346C32.5662 31.4886 31.9613 31.238 31.3305 31.238C30.6998 31.238 30.0949 31.4886 29.6489 31.9346C29.2029 32.3806 28.9523 32.9855 28.9523 33.6162C28.9523 34.247 29.2029 34.8519 29.6489 35.2979L33.5238 39.1727V40.381H32.7619C32.5598 40.381 32.366 40.4612 32.2232 40.6041C32.0803 40.747 32 40.9408 32 41.1429V48H33.5238V41.9048H42.6667V48H44.1905V41.1429C44.1905 40.9408 44.1102 40.747 43.9673 40.6041C43.8244 40.4612 43.6306 40.381 43.4286 40.381H42.6667V39.1727L44.2286 37.6108C44.9379 36.9015 45.421 35.9977 45.6167 35.0139C45.8124 34.03 45.712 33.0102 45.3282 32.0835C44.9443 31.1567 44.2942 30.3645 43.4602 29.8072C42.6261 29.2499 41.6455 28.9524 40.6424 28.9524ZM43.1512 36.5333L41.366 38.3186C41.2232 38.4614 41.1429 38.6551 41.1429 38.8571V40.381H35.0476V38.8571C35.0476 38.7571 35.0279 38.658 34.9896 38.5656C34.9513 38.4731 34.8952 38.3891 34.8245 38.3184L30.7265 34.2203C30.646 34.1412 30.582 34.047 30.5381 33.943C30.4942 33.8391 30.4714 33.7275 30.4709 33.6147C30.4704 33.5019 30.4923 33.3901 30.5352 33.2857C30.5781 33.1814 30.6413 33.0866 30.7211 33.0068C30.8009 32.9271 30.8957 32.8639 31 32.8209C31.1043 32.778 31.2161 32.7561 31.329 32.7566C31.4418 32.7571 31.5534 32.78 31.6573 32.8238C31.7613 32.8677 31.8555 32.9317 31.9346 33.0122L33.747 34.8245C33.8535 34.931 33.9893 35.0036 34.1371 35.033C34.2849 35.0624 34.4381 35.0473 34.5773 34.9896C34.7165 34.932 34.8355 34.8343 34.9192 34.709C35.0029 34.5837 35.0476 34.4364 35.0476 34.2857V25.9048C35.0476 25.7027 35.1279 25.5089 35.2708 25.366C35.4137 25.2231 35.6075 25.1429 35.8095 25.1429C36.0116 25.1429 36.2054 25.2231 36.3483 25.366C36.4912 25.5089 36.5714 25.7027 36.5714 25.9048V29.7143C36.5714 29.9164 36.6517 30.1101 36.7946 30.253C36.9375 30.3959 37.1313 30.4762 37.3333 30.4762H40.6424C41.3442 30.4762 42.0302 30.6842 42.6137 31.0741C43.1972 31.464 43.652 32.0182 43.9206 32.6665C44.1891 33.3149 44.2593 34.0283 44.1224 34.7166C43.9855 35.4049 43.6475 36.0371 43.1512 36.5333ZM41.1429 43.4286H39.619V44.9524H41.1429V43.4286Z" fill="#24EBA3"/>
</svg>
