<svg width="48" height="48" viewBox="0 0 48 48" fill="none" xmlns="http://www.w3.org/2000/svg">
<path fill-rule="evenodd" clip-rule="evenodd" d="M43.3548 25.9587V10.7768C45.977 10.399 48 8.14374 48 5.41935C48 2.43174 45.569 0 42.5806 0C39.5923 0 37.1613 2.43174 37.1613 5.41935H0V36.3871H23.2653C23.6679 42.8563 29.0446 48 35.6129 48C42.4428 48 48 42.4428 48 35.6129C48 31.7117 46.183 28.231 43.3548 25.9587ZM42.5806 1.54839C44.7151 1.54839 46.4516 3.2849 46.4516 5.41935C46.4516 7.55381 44.7151 9.29032 42.5806 9.29032C40.4462 9.29032 38.7097 7.55381 38.7097 5.41935C38.7097 3.2849 40.4462 1.54839 42.5806 1.54839ZM1.54839 6.96774H37.3897C37.5747 7.58555 37.8689 8.15458 38.2467 8.65936L33.5117 13.3943C33.2083 13.2488 32.8738 13.1613 32.5161 13.1613C32.1585 13.1613 31.824 13.2488 31.5213 13.3943L29.9613 11.8343C30.1061 11.5308 30.1935 11.1964 30.1935 10.8387C30.1935 9.55819 29.1515 8.51613 27.871 8.51613C26.5905 8.51613 25.5484 9.55819 25.5484 10.8387C25.5484 11.1964 25.6359 11.5308 25.7814 11.8335L21.8988 15.7161C21.5954 15.5714 21.2609 15.4839 20.9032 15.4839C19.6227 15.4839 18.5806 16.5259 18.5806 17.8065C18.5806 19.087 19.6227 20.129 20.9032 20.129C22.1837 20.129 23.2258 19.087 23.2258 17.8065C23.2258 17.4488 23.1383 17.1143 22.9928 16.8116L26.8754 12.929C27.1788 13.0738 27.5133 13.1613 27.871 13.1613C28.2286 13.1613 28.5631 13.0738 28.8658 12.9283L30.4258 14.4883C30.281 14.7917 30.1935 15.1262 30.1935 15.4839C30.1935 16.7644 31.2356 17.8065 32.5161 17.8065C33.7966 17.8065 34.8387 16.7644 34.8387 15.4839C34.8387 15.1262 34.7512 14.7917 34.6057 14.489L39.3414 9.75406C40.0498 10.2852 40.8906 10.6452 41.8064 10.7775V24.9027C39.9817 23.8428 37.8704 23.2258 35.6129 23.2258C31.9123 23.2258 28.5941 24.8655 26.3226 27.4475V24H21.6774V33.2903H23.4519C23.3559 33.7959 23.2978 34.3138 23.2653 34.8387H1.54839V6.96774ZM32.5161 14.7097C32.9427 14.7097 33.2903 15.0565 33.2903 15.4839C33.2903 15.9112 32.9427 16.2581 32.5161 16.2581C32.0895 16.2581 31.7419 15.9112 31.7419 15.4839C31.7419 15.0565 32.0895 14.7097 32.5161 14.7097ZM27.0968 10.8387C27.0968 10.4114 27.4444 10.0645 27.871 10.0645C28.2975 10.0645 28.6452 10.4114 28.6452 10.8387C28.6452 11.2661 28.2975 11.6129 27.871 11.6129C27.4444 11.6129 27.0968 11.2661 27.0968 10.8387ZM21.6774 17.8065C21.6774 18.2338 21.3298 18.5806 20.9032 18.5806C20.4766 18.5806 20.129 18.2338 20.129 17.8065C20.129 17.3791 20.4766 17.0323 20.9032 17.0323C21.3298 17.0323 21.6774 17.3791 21.6774 17.8065ZM35.6129 41.8064C32.1979 41.8064 29.4194 39.0279 29.4194 35.6129C29.4194 32.1979 32.1979 29.4194 35.6129 29.4194C39.0279 29.4194 41.8064 32.1979 41.8064 35.6129C41.8064 39.0279 39.0279 41.8064 35.6129 41.8064ZM24.7742 29.6292C24.4034 30.2981 24.0968 31.0049 23.8537 31.7419H23.2258V25.5484H24.7742V29.6292ZM34.8387 24.8137V27.9104C30.9321 28.3006 27.871 31.6057 27.871 35.6129C27.871 36.7455 28.1218 37.8194 28.5608 38.7902L25.8751 40.3409C25.1768 38.9102 24.7742 37.3092 24.7742 35.6129C24.7742 29.8978 29.2235 25.2132 34.8387 24.8137ZM35.6129 46.4516C31.8859 46.4516 28.5925 44.5603 26.6415 41.6865L29.3381 40.1295C30.7455 42.079 33.0302 43.3548 35.6129 43.3548C38.1956 43.3548 40.4803 42.079 41.8877 40.1295L44.5843 41.6865C42.6333 44.5603 39.3399 46.4516 35.6129 46.4516ZM45.3507 40.3409L42.665 38.7902C43.104 37.8194 43.3548 36.7455 43.3548 35.6129C43.3548 31.6057 40.2937 28.2999 36.3871 27.9104V24.8137C42.0023 25.2132 46.4516 29.8978 46.4516 35.6129C46.4516 37.3092 46.049 38.9102 45.3507 40.3409ZM35.6129 30.9677C33.0511 30.9677 30.9677 33.0511 30.9677 35.6129C30.9677 38.1747 33.0511 40.2581 35.6129 40.2581C38.1747 40.2581 40.2581 38.1747 40.2581 35.6129C40.2581 33.0511 38.1747 30.9677 35.6129 30.9677ZM35.6129 38.7097C33.905 38.7097 32.5161 37.3208 32.5161 35.6129C32.5161 33.905 33.905 32.5161 35.6129 32.5161C37.3208 32.5161 38.7097 33.905 38.7097 35.6129C38.7097 37.3208 37.3208 38.7097 35.6129 38.7097ZM4.64516 8.51613H3.09677V10.0645H4.64516V8.51613ZM6.19355 8.51613H17.0323V10.0645H6.19355V8.51613ZM4.64516 11.6129H3.09677V13.1613H4.64516V11.6129ZM6.19355 11.6129H17.0323V13.1613H6.19355V11.6129ZM4.64516 14.7097H3.09677V16.2581H4.64516V14.7097ZM6.19355 14.7097H17.0323V16.2581H6.19355V14.7097ZM4.64516 17.8065H3.09677V19.3548H4.64516V17.8065ZM6.19355 17.8065H17.0323V19.3548H6.19355V17.8065ZM7.74194 33.2903H3.09677V25.5484H7.74194V33.2903ZM6.19355 27.0968H4.64516V31.7419H6.19355V27.0968ZM9.29032 33.2903H13.9355V27.0968H9.29032V33.2903ZM10.8387 28.6452H12.3871V31.7419H10.8387V28.6452ZM20.129 33.2903H15.4839V20.9032H20.129V33.2903ZM18.5806 22.4516H17.0323V31.7419H18.5806V22.4516Z" fill="#24EBA3"/>
</svg>
