<svg width="55" height="50" viewBox="0 0 55 50" fill="none" xmlns="http://www.w3.org/2000/svg">
<path fill-rule="evenodd" clip-rule="evenodd" d="M6.83621 33.7998C6.83621 37.6559 9.94603 40.793 13.7687 40.793C17.5907 40.793 20.7001 37.6559 20.7001 33.7998C20.7001 31.0904 19.1179 28.6119 16.7116 27.4686V22.8407C18.0998 22.2859 19.3001 21.3527 20.1837 20.1654H43.0367C43.4655 20.1654 43.813 19.8148 43.813 19.3821C43.813 18.9494 43.4655 18.5988 43.0367 18.5988H28.2764V16.602C28.2764 15.7692 28.9478 15.0918 29.7732 15.0918H37.6538C39.9451 15.0918 41.8091 13.2112 41.8091 10.8997C41.8091 8.58865 39.9451 6.70857 37.6538 6.70857H29.7732C28.9478 6.70857 28.2764 6.03118 28.2764 5.1984V1.78328C28.2764 1.3506 27.9289 1 27.5 1C27.0712 1 26.7236 1.3506 26.7236 1.78328V5.1984C26.7236 6.89488 28.0917 8.27513 29.7732 8.27513H37.6538C39.0888 8.27513 40.2563 9.45246 40.2563 10.8997C40.2563 12.3474 39.0889 13.5252 37.6538 13.5252H29.7732C28.0917 13.5252 26.7236 14.9055 26.7236 16.602V18.5988H21.095C21.5381 17.5954 21.7867 16.4857 21.7867 15.3181C21.7867 10.8575 18.1897 7.22856 13.7684 7.22856C9.34719 7.22856 5.75033 10.8575 5.75033 15.3181C5.75033 16.4857 5.99877 17.5954 6.44192 18.5988H5.37871C2.96431 18.5988 1 20.5806 1 23.0165V44.5819C1 47.0178 2.96431 48.9996 5.37871 48.9996H11.9571C12.3859 48.9996 12.7335 48.649 12.7335 48.2163C12.7335 47.7836 12.3859 47.433 11.9571 47.433H5.37871C3.82049 47.433 2.55273 46.154 2.55273 44.5819V23.0165C2.55273 21.4444 3.82049 20.1654 5.37871 20.1654H7.35317C8.23667 21.3525 9.43663 22.2856 10.8247 22.8404V27.4687C8.41834 28.6134 6.83621 31.0919 6.83621 33.7998ZM19.1473 33.7998C19.1473 36.792 16.7345 39.2264 13.7687 39.2264C10.8023 39.2264 8.38895 36.792 8.38895 33.7998C8.38895 31.9576 9.33332 30.2527 10.8247 29.2614V33.7998C10.8247 35.4371 12.1453 36.7691 13.7687 36.7691C15.3914 36.7691 16.7116 35.4371 16.7116 33.7998V29.2607C18.203 30.2513 19.1473 31.9565 19.1473 33.7998ZM13.7683 8.79523C10.2034 8.79523 7.30296 11.7215 7.30296 15.3182C7.30296 18.9151 10.2033 21.8413 13.7683 21.8413C17.3334 21.8413 20.2338 18.915 20.2338 15.3182C20.2338 11.7215 17.3333 8.79523 13.7683 8.79523ZM13.7684 23.4078C14.2429 23.4078 14.7069 23.3637 15.1589 23.2836V33.7998C15.1589 34.5732 14.5353 35.2025 13.7687 35.2025C13.0015 35.2025 12.3774 34.5733 12.3774 33.7998V23.2835C12.8296 23.3637 13.2938 23.4078 13.7684 23.4078ZM46.6595 18.599H49.6212C52.0357 18.599 54 20.5809 54 23.0169V44.5822C54 47.0182 52.0357 49 49.6212 49H15.58C15.1512 49 14.8036 48.6494 14.8036 48.2167C14.8036 47.784 15.1512 47.4334 15.58 47.4334H49.6212C51.1795 47.4334 52.4473 46.1544 52.4473 44.5822V23.0169C52.4473 21.4446 51.1795 20.1656 49.6212 20.1656H46.6595C46.2306 20.1656 45.8831 19.815 45.8831 19.3823C45.8831 18.9496 46.2306 18.599 46.6595 18.599ZM31.9021 42.0397C30.0335 40.1543 30.0335 37.0867 31.9021 35.2014C33.7709 33.3162 36.8114 33.3162 38.6801 35.2014C40.5488 37.0868 40.5488 40.1543 38.6801 42.0397C37.7458 42.9823 36.5184 43.4537 35.2911 43.4537C34.0638 43.4537 32.8364 42.9823 31.9021 42.0397ZM33.0001 40.932C34.2632 42.2063 36.3188 42.2064 37.5821 40.9319C38.8455 39.6574 38.8455 37.5837 37.5821 36.3091C36.9505 35.6719 36.1209 35.3532 35.2911 35.3532C34.4613 35.3532 33.6317 35.6718 33.0001 36.3091C31.7369 37.5836 31.7369 39.6574 33.0001 40.932ZM44.848 33.8118C46.0753 33.8118 47.3026 33.3404 48.237 32.3978C50.1056 30.5124 50.1056 27.4448 48.237 25.5594C46.3684 23.6742 43.3277 23.6742 41.459 25.5594C39.5903 27.4448 39.5903 30.5124 41.459 32.3978C42.3934 33.3404 43.6207 33.8118 44.848 33.8118ZM44.848 25.7113C47.7142 25.7113 49.1828 29.2282 47.139 31.29C45.8757 32.5646 43.8202 32.5646 42.5571 31.29C40.5144 29.2293 41.9808 25.7113 44.848 25.7113Z" fill="#24EBA3"/>
<path d="M16.7116 27.4686H16.5116V27.595L16.6258 27.6492L16.7116 27.4686ZM16.7116 22.8407L16.6374 22.655L16.5116 22.7053V22.8407H16.7116ZM20.1837 20.1654V19.9654H20.0833L20.0233 20.046L20.1837 20.1654ZM28.2764 18.5988H28.0764V18.7988H28.2764V18.5988ZM26.7236 18.5988V18.7988H26.9236V18.5988H26.7236ZM21.095 18.5988L20.912 18.518L20.788 18.7988H21.095V18.5988ZM6.44192 18.5988V18.7988H6.74888L6.62487 18.518L6.44192 18.5988ZM7.35317 20.1654L7.51361 20.046L7.45363 19.9654H7.35317V20.1654ZM10.8247 22.8404H11.0247V22.705L10.8989 22.6547L10.8247 22.8404ZM10.8247 27.4687L10.9106 27.6493L11.0247 27.595V27.4687H10.8247ZM10.8247 29.2614H11.0247V28.8883L10.714 29.0948L10.8247 29.2614ZM16.7116 29.2607L16.8223 29.0941L16.5116 28.8878V29.2607H16.7116ZM15.1589 23.2836H15.3589V23.045L15.124 23.0866L15.1589 23.2836ZM12.3774 23.2835L12.4123 23.0865L12.1774 23.0449V23.2835H12.3774ZM31.9021 35.2014L31.7601 35.0606L31.7601 35.0606L31.9021 35.2014ZM31.9021 42.0397L31.7601 42.1805L31.7601 42.1805L31.9021 42.0397ZM38.6801 35.2014L38.8222 35.0606L38.8221 35.0606L38.6801 35.2014ZM38.6801 42.0397L38.8221 42.1805L38.8222 42.1805L38.6801 42.0397ZM37.5821 40.9319L37.4401 40.7911L37.4401 40.7911L37.5821 40.9319ZM33.0001 40.932L32.858 41.0728L32.8581 41.0728L33.0001 40.932ZM37.5821 36.3091L37.4401 36.4499L37.4401 36.4499L37.5821 36.3091ZM33.0001 36.3091L33.1421 36.4499L33.1422 36.4499L33.0001 36.3091ZM48.237 32.3978L48.379 32.5386L48.379 32.5386L48.237 32.3978ZM48.237 25.5594L48.379 25.4186L48.379 25.4186L48.237 25.5594ZM41.459 25.5594L41.3169 25.4186L41.3169 25.4186L41.459 25.5594ZM41.459 32.3978L41.3169 32.5386L41.3169 32.5387L41.459 32.3978ZM47.139 31.29L46.9969 31.1492L46.9969 31.1492L47.139 31.29ZM42.5571 31.29L42.6991 31.1492L42.6991 31.1492L42.5571 31.29ZM13.7687 40.593C10.0581 40.593 7.03621 37.5471 7.03621 33.7998H6.63621C6.63621 37.7647 9.83393 40.993 13.7687 40.993V40.593ZM20.5001 33.7998C20.5001 37.5471 17.4785 40.593 13.7687 40.593V40.993C17.7028 40.993 20.9001 37.7646 20.9001 33.7998H20.5001ZM16.6258 27.6492C18.9624 28.7594 20.5001 31.1677 20.5001 33.7998H20.9001C20.9001 31.0131 19.2734 28.4643 16.7974 27.2879L16.6258 27.6492ZM16.5116 22.8407V27.4686H16.9116V22.8407H16.5116ZM20.0233 20.046C19.1614 21.2041 17.9908 22.1141 16.6374 22.655L16.7858 23.0265C18.2089 22.4577 19.4388 21.5013 20.3442 20.2848L20.0233 20.046ZM43.0367 19.9654H20.1837V20.3654H43.0367V19.9654ZM43.613 19.3821C43.613 19.706 43.3534 19.9654 43.0367 19.9654V20.3654C43.5776 20.3654 44.013 19.9236 44.013 19.3821H43.613ZM43.0367 18.7988C43.3534 18.7988 43.613 19.0582 43.613 19.3821H44.013C44.013 18.8406 43.5776 18.3988 43.0367 18.3988V18.7988ZM28.2764 18.7988H43.0367V18.3988H28.2764V18.7988ZM28.0764 16.602V18.5988H28.4764V16.602H28.0764ZM29.7732 14.8918C28.8356 14.8918 28.0764 15.6604 28.0764 16.602H28.4764C28.4764 15.8779 29.0599 15.2918 29.7732 15.2918V14.8918ZM37.6538 14.8918H29.7732V15.2918H37.6538V14.8918ZM41.6091 10.8997C41.6091 13.1024 39.8329 14.8918 37.6538 14.8918V15.2918C40.0572 15.2918 42.0091 13.32 42.0091 10.8997H41.6091ZM37.6538 6.90857C39.833 6.90857 41.6091 8.69749 41.6091 10.8997H42.0091C42.0091 8.47982 40.0571 6.50857 37.6538 6.50857V6.90857ZM29.7732 6.90857H37.6538V6.50857H29.7732V6.90857ZM28.0764 5.1984C28.0764 6.13996 28.8356 6.90857 29.7732 6.90857V6.50857C29.0599 6.50857 28.4764 5.9224 28.4764 5.1984H28.0764ZM28.0764 1.78328V5.1984H28.4764V1.78328H28.0764ZM27.5 1.2C27.8167 1.2 28.0764 1.45938 28.0764 1.78328H28.4764C28.4764 1.24182 28.041 0.8 27.5 0.8V1.2ZM26.9236 1.78328C26.9236 1.4594 27.1833 1.2 27.5 1.2V0.8C26.9591 0.8 26.5236 1.2418 26.5236 1.78328H26.9236ZM26.9236 5.1984V1.78328H26.5236V5.1984H26.9236ZM29.7732 8.07513C28.2038 8.07513 26.9236 6.7861 26.9236 5.1984H26.5236C26.5236 7.00366 27.9796 8.47513 29.7732 8.47513V8.07513ZM37.6538 8.07513H29.7732V8.47513H37.6538V8.07513ZM40.4563 10.8997C40.4563 9.34359 39.2008 8.07513 37.6538 8.07513V8.47513C38.9767 8.47513 40.0563 9.56133 40.0563 10.8997H40.4563ZM37.6538 13.7252C39.201 13.7252 40.4563 12.4562 40.4563 10.8997H40.0563C40.0563 12.2386 38.9768 13.3252 37.6538 13.3252V13.7252ZM29.7732 13.7252H37.6538V13.3252H29.7732V13.7252ZM26.9236 16.602C26.9236 15.0142 28.2038 13.7252 29.7732 13.7252V13.3252C27.9796 13.3252 26.5236 14.7967 26.5236 16.602H26.9236ZM26.9236 18.5988V16.602H26.5236V18.5988H26.9236ZM21.095 18.7988H26.7236V18.3988H21.095V18.7988ZM21.5867 15.3181C21.5867 16.4571 21.3443 17.5393 20.912 18.518L21.2779 18.6796C21.732 17.6515 21.9867 16.5144 21.9867 15.3181H21.5867ZM13.7684 7.42856C18.0776 7.42856 21.5867 10.9662 21.5867 15.3181H21.9867C21.9867 10.7487 18.3018 7.02856 13.7684 7.02856V7.42856ZM5.95033 15.3181C5.95033 10.9662 9.45931 7.42856 13.7684 7.42856V7.02856C9.23506 7.02856 5.55033 10.7487 5.55033 15.3181H5.95033ZM6.62487 18.518C6.19263 17.5393 5.95033 16.4571 5.95033 15.3181H5.55033C5.55033 16.5143 5.80491 17.6515 6.25897 18.6796L6.62487 18.518ZM5.37871 18.7988H6.44192V18.3988H5.37871V18.7988ZM1.2 23.0165C1.2 20.6894 3.07644 18.7988 5.37871 18.7988V18.3988C2.85219 18.3988 0.8 20.4718 0.8 23.0165H1.2ZM1.2 44.5819V23.0165H0.8V44.5819H1.2ZM5.37871 48.7996C3.07644 48.7996 1.2 46.909 1.2 44.5819H0.8C0.8 47.1266 2.85219 49.1996 5.37871 49.1996V48.7996ZM11.9571 48.7996H5.37871V49.1996H11.9571V48.7996ZM12.5335 48.2163C12.5335 48.5402 12.2738 48.7996 11.9571 48.7996V49.1996C12.498 49.1996 12.9335 48.7578 12.9335 48.2163H12.5335ZM11.9571 47.633C12.2738 47.633 12.5335 47.8924 12.5335 48.2163H12.9335C12.9335 47.6748 12.498 47.233 11.9571 47.233V47.633ZM5.37871 47.633H11.9571V47.233H5.37871V47.633ZM2.35273 44.5819C2.35273 46.2627 3.70836 47.633 5.37871 47.633V47.233C3.93262 47.233 2.75273 46.0452 2.75273 44.5819H2.35273ZM2.35273 23.0165V44.5819H2.75273V23.0165H2.35273ZM5.37871 19.9654C3.70836 19.9654 2.35273 21.3356 2.35273 23.0165H2.75273C2.75273 21.5532 3.93262 20.3654 5.37871 20.3654V19.9654ZM7.35317 19.9654H5.37871V20.3654H7.35317V19.9654ZM10.8989 22.6547C9.54569 22.1138 8.37539 21.2039 7.51361 20.046L7.19272 20.2848C8.09795 21.5011 9.32756 22.4573 10.7504 23.0261L10.8989 22.6547ZM11.0247 27.4687V22.8404H10.6247V27.4687H11.0247ZM7.03621 33.7998C7.03621 31.1692 8.57381 28.761 10.9106 27.6493L10.7388 27.2881C8.26288 28.4659 6.63621 31.0145 6.63621 33.7998H7.03621ZM13.7687 39.4264C16.8466 39.4264 19.3473 36.9007 19.3473 33.7998H18.9473C18.9473 36.6832 16.6223 39.0264 13.7687 39.0264V39.4264ZM8.18895 33.7998C8.18895 36.9008 10.6902 39.4264 13.7687 39.4264V39.0264C10.9144 39.0264 8.58894 36.6831 8.58894 33.7998H8.18895ZM10.714 29.0948C9.16788 30.1225 8.18895 31.8894 8.18895 33.7998H8.58894C8.58894 32.0259 9.49876 30.3829 10.9354 29.4279L10.714 29.0948ZM11.0247 33.7998V29.2614H10.6247V33.7998H11.0247ZM13.7687 36.5691C12.2574 36.5691 11.0247 35.3282 11.0247 33.7998H10.6247C10.6247 35.5459 12.0333 36.9691 13.7687 36.9691V36.5691ZM16.5116 33.7998C16.5116 35.3283 15.2792 36.5691 13.7687 36.5691V36.9691C15.5035 36.9691 16.9116 35.5459 16.9116 33.7998H16.5116ZM16.5116 29.2607V33.7998H16.9116V29.2607H16.5116ZM19.3473 33.7998C19.3473 31.8883 18.3684 30.1211 16.8223 29.0941L16.6009 29.4273C18.0375 30.3815 18.9473 32.0247 18.9473 33.7998H19.3473ZM7.50296 15.3182C7.50296 11.8303 10.3155 8.99523 13.7683 8.99523V8.59523C10.0912 8.59523 7.10296 11.6127 7.10296 15.3182H7.50296ZM13.7683 21.6413C10.3154 21.6413 7.50296 18.8064 7.50296 15.3182H7.10296C7.10296 19.0239 10.0911 22.0413 13.7683 22.0413V21.6413ZM20.0338 15.3182C20.0338 18.8063 17.2213 21.6413 13.7683 21.6413V22.0413C17.4455 22.0413 20.4338 19.0238 20.4338 15.3182H20.0338ZM13.7683 8.99523C17.2212 8.99523 20.0338 11.8303 20.0338 15.3182H20.4338C20.4338 11.6127 17.4454 8.59523 13.7683 8.59523V8.99523ZM15.124 23.0866C14.6828 23.1648 14.2304 23.2078 13.7684 23.2078V23.6078C14.2553 23.6078 14.7311 23.5625 15.1938 23.4805L15.124 23.0866ZM15.3589 33.7998V23.2836H14.9589V33.7998H15.3589ZM13.7687 35.4025C14.6474 35.4025 15.3589 34.6819 15.3589 33.7998H14.9589C14.9589 34.4644 14.4231 35.0025 13.7687 35.0025V35.4025ZM12.1774 33.7998C12.1774 34.6822 12.8895 35.4025 13.7687 35.4025V35.0025C13.1135 35.0025 12.5774 34.4644 12.5774 33.7998H12.1774ZM12.1774 23.2835V33.7998H12.5774V23.2835H12.1774ZM13.7684 23.2078C13.3063 23.2078 12.8537 23.1648 12.4123 23.0865L12.3425 23.4804C12.8054 23.5625 13.2814 23.6078 13.7684 23.6078V23.2078ZM49.6212 18.399H46.6595V18.799H49.6212V18.399ZM54.2 23.0169C54.2 20.4722 52.1478 18.399 49.6212 18.399V18.799C51.9236 18.799 53.8 20.6897 53.8 23.0169H54.2ZM54.2 44.5822V23.0169H53.8V44.5822H54.2ZM49.6212 49.2C52.1478 49.2 54.2 47.127 54.2 44.5822H53.8C53.8 46.9094 51.9236 48.8 49.6212 48.8V49.2ZM15.58 49.2H49.6212V48.8H15.58V49.2ZM14.6036 48.2167C14.6036 48.7582 15.0391 49.2 15.58 49.2V48.8C15.2633 48.8 15.0036 48.5406 15.0036 48.2167H14.6036ZM15.58 47.2334C15.0391 47.2334 14.6036 47.6752 14.6036 48.2167H15.0036C15.0036 47.8928 15.2633 47.6334 15.58 47.6334V47.2334ZM49.6212 47.2334H15.58V47.6334H49.6212V47.2334ZM52.2473 44.5822C52.2473 46.0456 51.0674 47.2334 49.6212 47.2334V47.6334C51.2916 47.6334 52.6473 46.2632 52.6473 44.5822H52.2473ZM52.2473 23.0169V44.5822H52.6473V23.0169H52.2473ZM49.6212 20.3656C51.0674 20.3656 52.2473 21.5534 52.2473 23.0169H52.6473C52.6473 21.3358 51.2916 19.9656 49.6212 19.9656V20.3656ZM46.6595 20.3656H49.6212V19.9656H46.6595V20.3656ZM45.6831 19.3823C45.6831 19.9238 46.1185 20.3656 46.6595 20.3656V19.9656C46.3428 19.9656 46.0831 19.7062 46.0831 19.3823H45.6831ZM46.6595 18.399C46.1185 18.399 45.6831 18.8408 45.6831 19.3823H46.0831C46.0831 19.0584 46.3428 18.799 46.6595 18.799V18.399ZM31.7601 35.0606C29.8142 37.0239 29.8142 40.2172 31.7601 42.1805L32.0442 41.899C30.2529 40.0915 30.2529 37.1495 32.0442 35.3422L31.7601 35.0606ZM38.8221 35.0606C36.8752 33.0964 33.7071 33.0964 31.7601 35.0606L32.0441 35.3422C33.8347 33.5359 36.7476 33.5359 38.5381 35.3422L38.8221 35.0606ZM38.8222 42.1805C40.7681 40.2172 40.7681 37.024 38.8222 35.0606L38.5381 35.3422C40.3295 37.1496 40.3295 40.0915 38.5381 41.899L38.8222 42.1805ZM35.2911 43.6537C36.5697 43.6537 37.8488 43.1624 38.8221 42.1805L38.5381 41.8989C37.6427 42.8022 36.4671 43.2537 35.2911 43.2537V43.6537ZM31.7601 42.1805C32.7334 43.1624 34.0126 43.6537 35.2911 43.6537V43.2537C34.1151 43.2537 32.9395 42.8022 32.0441 41.8989L31.7601 42.1805ZM37.4401 40.7911C36.255 41.9867 34.327 41.9866 33.1421 40.7912L32.8581 41.0728C34.1994 42.4261 36.3826 42.4262 37.7242 41.0727L37.4401 40.7911ZM37.4401 36.4499C38.6262 37.6465 38.6262 39.5946 37.4401 40.7911L37.7242 41.0727C39.0648 39.7203 39.0648 37.5209 37.7242 36.1683L37.4401 36.4499ZM35.2911 35.5532C36.0696 35.5532 36.8474 35.852 37.4401 36.4499L37.7242 36.1683C37.0535 35.4917 36.1722 35.1532 35.2911 35.1532V35.5532ZM33.1422 36.4499C33.7348 35.8519 34.5126 35.5532 35.2911 35.5532V35.1532C34.4101 35.1532 33.5287 35.4916 32.858 36.1684L33.1422 36.4499ZM33.1422 40.7912C31.9562 39.5946 31.9562 37.6464 33.1421 36.4499L32.8581 36.1684C31.5176 37.5208 31.5176 39.7202 32.858 41.0728L33.1422 40.7912ZM48.0949 32.257C47.1996 33.1603 46.024 33.6118 44.848 33.6118V34.0118C46.1265 34.0118 47.4057 33.5205 48.379 32.5386L48.0949 32.257ZM48.0949 25.7002C49.8863 27.5076 49.8863 30.4496 48.0949 32.2571L48.379 32.5386C50.325 30.5753 50.325 27.3819 48.379 25.4186L48.0949 25.7002ZM41.601 25.7002C43.3915 23.8939 46.3046 23.8939 48.0949 25.7002L48.379 25.4186C46.4322 23.4544 43.2639 23.4544 41.3169 25.4186L41.601 25.7002ZM41.601 32.2571C39.8096 30.4496 39.8096 27.5076 41.601 25.7002L41.3169 25.4186C39.371 27.3819 39.371 30.5753 41.3169 32.5386L41.601 32.2571ZM44.848 33.6118C43.672 33.6118 42.4965 33.1603 41.601 32.257L41.3169 32.5387C42.2904 33.5205 43.5694 34.0118 44.848 34.0118V33.6118ZM47.281 31.4308C49.4485 29.2442 47.894 25.5113 44.848 25.5113V25.9113C47.5344 25.9113 48.917 29.2122 46.9969 31.1492L47.281 31.4308ZM42.415 31.4307C43.7564 32.7844 45.9395 32.7844 47.281 31.4308L46.9969 31.1492C45.8119 32.3449 43.884 32.3449 42.6991 31.1492L42.415 31.4307ZM44.848 25.5113C41.8008 25.5113 40.2488 29.2454 42.415 31.4308L42.6991 31.1492C40.78 29.2132 42.1608 25.9113 44.848 25.9113V25.5113Z" fill="#24EBA3"/>
</svg>
