<svg width="54" height="48" viewBox="0 0 54 48" fill="none" xmlns="http://www.w3.org/2000/svg">
<path fill-rule="evenodd" clip-rule="evenodd" d="M49.4951 2.26186H21.5838C16.1375 -1.27757 8.83243 -0.658852 4.08503 4.08855C-1.36168 9.53536 -1.36168 18.398 4.08503 23.8447C4.22333 23.983 4.36539 24.1171 4.50901 24.2492V32.3641C4.50901 34.5835 6.31459 36.3891 8.534 36.3891H23.679L22.5994 41.0499H21.3156C18.4645 41.0499 16.1449 43.3695 16.1449 46.2206C16.1449 47.2017 16.9431 48 17.9243 48H40.1046C41.0857 48 41.884 47.2018 41.884 46.2206C41.884 43.3695 39.5645 41.0499 36.7134 41.0499H35.4294L34.3501 36.3891H49.4951C51.7146 36.3891 53.5201 34.5835 53.5201 32.3641V6.28684C53.5201 4.06743 51.7146 2.26186 49.4951 2.26186ZM13.9483 1.56903C24.2957 1.56903 30.1176 13.5398 23.6952 21.6513C19.065 27.4986 10.4189 27.9576 5.19568 22.7341C-2.61177 14.9267 2.99822 1.56903 13.9483 1.56903ZM24.9295 27.1085L27.105 24.9328L27.1151 24.9228C27.1564 24.8815 27.2034 24.8728 27.2356 24.8728C27.2678 24.8728 27.3148 24.8815 27.3561 24.9228L33.8702 31.4369C34.542 32.1087 34.542 33.2018 33.8702 33.8736C33.1969 34.547 32.1069 34.547 31.4336 33.8736L24.9194 27.3595C24.8528 27.2931 24.8528 27.1848 24.9194 27.1183L24.9289 27.1088L24.9295 27.1085ZM24.3742 25.4426L23.2945 24.3629C23.6494 24.0437 24.0104 23.6861 24.3595 23.2979L25.4392 24.3776L24.3742 25.4426ZM13.9484 27.9339C16.8344 27.9339 19.6842 27.043 22.0612 25.3509L23.3926 26.6823C23.1886 27.2895 23.326 27.9872 23.8089 28.4702L24.7904 29.4517H6.0796V25.4983C8.46082 27.1278 11.1974 27.9339 13.9484 27.9339ZM6.0796 32.364V31.0222H26.361L30.1573 34.8185H8.5341C7.18073 34.8185 6.0796 33.7175 6.0796 32.364ZM40.3136 46.2206C40.3136 46.3358 40.22 46.4294 40.1048 46.4294H17.9244C17.8093 46.4294 17.7156 46.3358 17.7156 46.2206C17.7156 44.2355 19.3306 42.6204 21.3157 42.6204H36.7136C38.6986 42.6205 40.3136 44.2355 40.3136 46.2206ZM33.8174 41.0499H24.2116L25.2912 36.3891H32.7379L33.8174 41.0499ZM49.4951 34.8185H35.1344C36.0673 33.7491 36.193 32.2166 35.5115 31.0222H40.6414C41.0751 31.0222 41.4267 30.6707 41.4267 30.237C41.4267 29.8033 41.0751 29.4517 40.6414 29.4517H34.106L28.4668 23.8125C28.1378 23.4836 27.7007 23.3025 27.2356 23.3025C27.0427 23.3025 26.8553 23.3353 26.6778 23.3952L25.348 22.0653C29.2867 16.5474 28.6901 8.93744 23.8412 4.08865C23.7541 4.00158 23.6652 3.91691 23.5762 3.83244H49.495C50.8484 3.83244 51.9495 4.93347 51.9495 6.28695V29.4518H44.0248C43.5911 29.4518 43.2396 29.8034 43.2396 30.2371C43.2396 30.6708 43.5911 31.0223 44.0248 31.0223H51.9495V32.3641C51.9495 33.7175 50.8485 34.8185 49.4951 34.8185ZM31.3884 11.5487H47.7847C48.2184 11.5487 48.57 11.1972 48.57 10.7635C48.57 10.3298 48.2184 9.97825 47.7847 9.97825H31.3884C30.9547 9.97825 30.6032 10.3298 30.6032 10.7635C30.6032 11.1972 30.9547 11.5487 31.3884 11.5487ZM48.57 15.7634C48.57 15.3297 48.2184 14.9782 47.7847 14.9782H31.3884C30.9547 14.9782 30.6032 15.3297 30.6032 15.7634C30.6032 16.1971 30.9547 16.5487 31.3884 16.5487H47.7847C48.2184 16.5487 48.57 16.1971 48.57 15.7634ZM31.3884 19.9781H38.6552C39.0889 19.9781 39.4404 20.3297 39.4404 20.7634C39.4404 21.1971 39.0889 21.5486 38.6552 21.5486H31.3884C30.9547 21.5486 30.6032 21.1971 30.6032 20.7634C30.6032 20.3297 30.9547 19.9781 31.3884 19.9781ZM25.0756 13.9667C25.0756 20.109 20.1047 25.0791 13.9631 25.0791C10.9889 25.0791 8.19813 23.9171 6.10531 21.8245C4.47755 20.1967 3.40913 18.1414 3.01578 15.8808C2.94135 15.4536 3.22746 15.047 3.65478 14.9726C4.08294 14.8982 4.48884 15.1843 4.56306 15.6116C4.85585 17.294 5.58516 18.8439 6.68515 20.1376C7.00439 19.5606 7.50133 19.0932 8.12684 18.8114C8.93017 18.4496 10.2487 18.2055 11.2918 18.0575L11.2881 17.1639C10.4695 16.5207 9.88809 15.5857 9.70642 14.5113C9.247 14.3008 8.92703 13.8366 8.92703 13.299V11.8054V9.93206C8.92703 8.11112 10.4085 6.6296 12.2294 6.6296H15.688C16.5573 6.6296 17.2864 7.24037 17.469 8.0552C18.306 8.22088 18.9389 8.96065 18.9389 9.84551V11.0168C18.9389 11.0312 18.9391 12.473 18.9445 13.285C18.9469 13.6438 18.8089 13.9815 18.556 14.236C18.4388 14.3543 18.3032 14.4479 18.1557 14.5143C17.9696 15.6225 17.3576 16.5814 16.4982 17.2251L16.5017 18.0354C17.546 18.1747 18.8664 18.4076 19.6729 18.7626C20.3538 19.0622 20.8832 19.559 21.2101 20.1705C22.6937 18.443 23.5051 16.2678 23.5051 13.9668C23.5051 8.69252 19.2367 4.42482 13.9631 4.42482C9.13306 4.42482 5.22526 7.98004 4.53159 12.5153C4.46605 12.944 4.06538 13.2391 3.63659 13.1728C3.20781 13.1073 2.91344 12.7065 2.97899 12.2778C3.79224 6.96201 8.36737 2.85424 13.9631 2.85424C20.1055 2.85424 25.0756 7.82523 25.0756 13.9667ZM15.6882 8.19997H12.2296C11.2747 8.19997 10.4977 8.97695 10.4979 9.93174V11.0198H12.8047C13.2595 11.0198 13.705 10.8943 14.0928 10.6568C14.8321 10.2039 15.7144 9.99896 16.5779 10.0801L17.3687 10.1542V9.8453C17.3687 9.70502 17.2545 9.59087 17.1142 9.59087H17.0791C16.4526 9.59087 15.9428 9.08107 15.9428 8.4544C15.9428 8.31412 15.8285 8.19997 15.6882 8.19997ZM10.4977 12.5905V13.0907C10.8943 13.1917 11.1959 13.5391 11.2223 13.9638C11.3109 15.3913 12.5016 16.5095 13.9331 16.5095C15.3677 16.5095 16.5566 15.3904 16.6398 13.9618C16.6648 13.5333 16.971 13.1835 17.3729 13.0872C17.3708 12.6667 17.3697 12.1458 17.3691 11.7318L16.4311 11.6439C15.9036 11.5944 15.3645 11.7195 14.9128 11.9961C14.278 12.385 13.549 12.5905 12.8045 12.5905H10.4977ZM14.9309 17.962C14.6103 18.0387 14.2763 18.08 13.9331 18.08C13.5638 18.08 13.2051 18.0319 12.862 17.9431L12.8635 18.2821C12.8642 18.4569 12.8291 18.6245 12.7661 18.7786C13.0994 18.9867 13.4873 19.0998 13.8922 19.0998H13.8987C14.3077 19.0986 14.6989 18.9819 15.0339 18.7688C14.9696 18.6154 14.9329 18.4482 14.9322 18.2735L14.9309 17.962ZM11.3288 19.6391C10.1805 19.8109 9.24157 20.0316 8.77201 20.243C8.3219 20.4458 8.00559 20.8476 7.89708 21.3326C9.60168 22.7415 11.7234 23.5086 13.9631 23.5086C16.1829 23.5086 18.2866 22.7551 19.9832 21.3703C19.8897 20.8509 19.5534 20.4258 19.0402 20.1999C18.5685 19.9922 17.6274 19.7793 16.4774 19.6172C15.7895 20.2902 14.875 20.6675 13.9033 20.6704H13.8921C12.9256 20.6704 12.0143 20.2996 11.3288 19.6391Z" fill="#24EBA3"/>
</svg>
