<svg width="51" height="48" viewBox="0 0 51 48" fill="none" xmlns="http://www.w3.org/2000/svg">
<path fill-rule="evenodd" clip-rule="evenodd" d="M29.2302 11.2023C29.2302 17.3896 24.2146 22.4052 18.0279 22.4052C11.8432 22.3989 6.8313 17.3869 6.82533 11.2023C6.82533 5.01558 11.8409 0 18.0279 0C24.2146 0 29.2302 5.01558 29.2302 11.2023ZM27.1108 11.2023C27.1108 6.18634 23.0438 2.11969 18.0279 2.11969C13.014 2.12533 8.95099 6.18866 8.94502 11.2023C8.94502 16.2188 13.0117 20.2855 18.0279 20.2855C23.0438 20.2855 27.1108 16.2188 27.1108 11.2023ZM44.0945 24.2676C44.3746 24.2676 44.6432 24.379 44.8415 24.5776L49.876 29.6011C50.0742 29.7991 50.1857 30.068 50.1857 30.3485C50.1857 30.6286 50.0742 30.8972 49.876 31.0958L47.1094 33.8617L35.7692 45.1698C35.7619 45.1847 35.7494 45.1944 35.7391 45.2024C35.7345 45.206 35.7303 45.2093 35.7271 45.2125C35.7271 45.2187 35.7231 45.2212 35.7176 45.2246C35.714 45.2268 35.7098 45.2294 35.7056 45.2337C35.69 45.2441 35.6744 45.2571 35.6587 45.2702C35.6426 45.2836 35.6265 45.2971 35.6104 45.3077C35.594 45.3186 35.5748 45.3296 35.5557 45.3406C35.5377 45.3509 35.5197 45.3612 35.5043 45.3713C35.4987 45.3773 35.491 45.381 35.4831 45.382C35.4536 45.4005 35.4214 45.4151 35.3876 45.4244C35.3818 45.4304 35.3792 45.433 35.3762 45.4341C35.3738 45.435 35.3711 45.435 35.3664 45.435L27.8312 47.9469C27.7211 47.9801 27.6071 47.998 27.4917 48C27.2102 48.0006 26.94 47.8902 26.7397 47.6923C26.4539 47.4108 26.3554 46.9907 26.4851 46.6114L27.3544 44.0149H1.05968C0.475132 44.0133 0.00165782 43.5394 0 42.9549C0 33.0245 8.08653 24.938 18.0172 24.938C24.5481 24.938 30.5683 28.4688 33.7556 34.1691L40.5809 27.3435L43.3471 24.5776C43.5451 24.379 43.814 24.2676 44.0945 24.2676ZM31.5192 39.3939L35.0484 42.9231L44.8521 33.1197L41.3226 29.5905L31.5192 39.3939ZM18.0278 27.0467C9.61273 27.0467 2.7132 33.6074 2.1618 41.8843V41.8952H28.0643L29.0076 39.0656C29.0182 39.0547 29.0182 39.0547 29.0182 39.0444C29.0233 39.0286 29.0312 39.0128 29.0391 38.997C29.0471 38.9809 29.0552 38.9648 29.0603 38.9486C29.0637 38.9454 29.0663 38.9417 29.0682 38.9377C29.0697 38.9346 29.0707 38.9312 29.0713 38.9277C29.1111 38.8531 29.1568 38.7825 29.2092 38.7158C29.2154 38.7158 29.2179 38.7118 29.2212 38.7064C29.2234 38.7028 29.2259 38.6987 29.2301 38.6946L29.2725 38.6518L32.1976 35.7271C29.4748 30.4065 24.0046 27.0554 18.0278 27.0467ZM33.0878 43.9509L30.4914 41.3544L29.1877 45.2546L33.0878 43.9509ZM42.8279 28.0855L46.3567 31.6147L47.6183 30.3538L44.0888 26.8246L42.8279 28.0855Z" fill="#24EBA3"/>
</svg>
