<svg width="48" height="48" viewBox="0 0 48 48" fill="none" xmlns="http://www.w3.org/2000/svg">
<path fill-rule="evenodd" clip-rule="evenodd" d="M4.8 0H43.2C45.8498 0.002625 47.9974 2.15016 48 4.8V43.2C47.9974 45.8498 45.8498 47.9974 43.2 48H4.8C2.15016 47.9974 0.002625 45.8498 0 43.2V4.8C0.002625 2.15016 2.15016 0.002625 4.8 0ZM43.2 1.60003H4.8C3.03272 1.60003 1.60003 3.03272 1.60003 4.8V9.6H46.4V4.8C46.4 3.03272 44.9673 1.60003 43.2 1.60003ZM4.8 46.4H43.2C44.9673 46.4 46.4 44.9673 46.4001 43.2V11.2H1.60003V43.2C1.60003 44.9673 3.03272 46.4 4.8 46.4ZM7.99995 5.59997C7.99995 6.92541 6.92539 7.99997 5.59995 7.99997C4.27451 7.99997 3.19995 6.92541 3.19995 5.59997C3.19995 4.27454 4.27451 3.19997 5.59995 3.19997C6.92539 3.19997 7.99995 4.27454 7.99995 5.59997ZM6.39992 5.59997C6.39992 5.15822 6.0418 4.80001 5.59995 4.80001C5.1582 4.80001 4.79998 5.15813 4.79998 5.59997C4.79998 6.04182 5.1582 6.39994 5.59995 6.39994C6.0417 6.39994 6.39992 6.04172 6.39992 5.59997ZM12 7.99997C13.3256 7.99997 14.4 6.92541 14.4 5.59997C14.4 4.27454 13.3255 3.19997 12 3.19997C10.6746 3.19997 9.60004 4.27454 9.60004 5.59997C9.60004 6.92541 10.6746 7.99997 12 7.99997ZM12 4.80001C12.4419 4.80001 12.8 5.15822 12.8 5.59997C12.8 6.04172 12.4418 6.39994 12 6.39994C11.5582 6.39994 11.2001 6.04172 11.2001 5.59997C11.2001 5.15822 11.5582 4.80001 12 4.80001ZM20.8 5.59997C20.8 6.92541 19.7255 7.99997 18.4 7.99997C17.0745 7.99997 16 6.92541 16 5.59997C16 4.27454 17.0746 3.19997 18.4 3.19997C19.7255 3.19997 20.8 4.27454 20.8 5.59997ZM19.2 5.59997C19.2 5.15822 18.8419 4.80001 18.4 4.80001C17.9582 4.80001 17.6001 5.15822 17.6001 5.59997C17.6001 6.04172 17.9583 6.39994 18.4 6.39994C18.8418 6.39994 19.2 6.04172 19.2 5.59997ZM34.4 7.99997H42.3999C43.7254 7.99997 44.7999 6.92541 44.7999 5.59997C44.7999 4.27454 43.7254 3.19997 42.3999 3.19997H34.4C33.0745 3.19997 32 4.27454 32 5.59997C32 6.92541 33.0745 7.99997 34.4 7.99997ZM34.4 4.80001H42.3999C42.8418 4.80001 43.1999 5.15822 43.1999 5.59997C43.1999 6.04172 42.8418 6.39994 42.3999 6.39994H34.4C33.9581 6.39994 33.6 6.04172 33.6 5.59997C33.6 5.15822 33.9582 4.80001 34.4 4.80001ZM27.2001 13.6H30.4001C31.2837 13.6 32 14.3164 32.0001 15.2001V18.4C32.0001 19.2837 31.2838 20.0001 30.4001 20.0001H27.2001C26.3164 20.0001 25.6001 19.2837 25.6001 18.4V15.2001C25.6001 14.3164 26.3164 13.6 27.2001 13.6ZM27.2 15.2001V18.4H30.4V15.2001H27.2ZM30.4001 21.6H27.2001C26.3164 21.6 25.6001 22.3163 25.6001 23.2V26.4C25.6001 27.2837 26.3164 28 27.2001 28H30.4001C31.2838 28 32.0001 27.2837 32.0001 26.4V23.2C32 22.3163 31.2837 21.6 30.4001 21.6ZM27.2 26.4V23.2H30.4V26.4H27.2ZM27.2001 29.6H30.4001C31.2837 29.6 32 30.3163 32.0001 31.2V34.4C32.0001 35.2836 31.2838 36 30.4001 36H27.2001C26.3164 36 25.6001 35.2836 25.6001 34.4V31.2C25.6001 30.3163 26.3164 29.6 27.2001 29.6ZM27.2 31.2V34.4H30.4V31.2H27.2ZM30.4001 37.6H27.2001C26.3164 37.6 25.6001 38.3164 25.6001 39.2001V42.4C25.6001 43.2837 26.3164 44.0001 27.2001 44.0001H30.4001C31.2838 44.0001 32.0001 43.2837 32.0001 42.4V39.2001C32 38.3164 31.2837 37.6 30.4001 37.6ZM27.2 42.4V39.2001H30.4V42.4H27.2ZM38.4 16H34.4C33.9583 16 33.6 15.6418 33.6 15.2001C33.6 14.7583 33.9582 14.4001 34.4 14.4001H38.4C38.8418 14.4001 39.2 14.7582 39.2 15.2001C39.2 15.6418 38.8419 16 38.4 16ZM42.4001 17.6H34.4001C33.9583 17.6 33.6001 17.9582 33.6001 18.3999C33.6001 18.8417 33.9583 19.1999 34.4001 19.1999H42.4001C42.8419 19.1999 43.2 18.8417 43.2 18.3999C43.2 17.9582 42.8419 17.6 42.4001 17.6ZM38.4 24H34.4C33.9583 24 33.6 23.6419 33.6 23.2C33.6 22.7583 33.9582 22.4001 34.4 22.4001H38.4C38.8418 22.4001 39.2 22.7582 39.2 23.2C39.2 23.6419 38.8419 24 38.4 24ZM42.4001 25.6H34.4001C33.9583 25.6 33.6001 25.9581 33.6001 26.4C33.6001 26.8418 33.9583 27.2 34.4001 27.2H42.4001C42.8419 27.2 43.2 26.8417 43.2 26.4C43.2 25.9582 42.8419 25.6 42.4001 25.6ZM38.4 32H34.4C33.9583 32 33.6 31.6419 33.6 31.2C33.6 30.7582 33.9582 30.4 34.4 30.4H38.4C38.8418 30.4 39.2 30.7582 39.2 31.2C39.2 31.6419 38.8419 32 38.4 32ZM42.4001 33.6H34.4001C33.9583 33.6 33.6001 33.9581 33.6001 34.4C33.6001 34.8418 33.9583 35.1999 34.4001 35.1999H42.4001C42.8419 35.1999 43.2 34.8418 43.2 34.4C43.2 33.9581 42.8419 33.6 42.4001 33.6ZM38.4 40H34.4C33.9583 40 33.6 39.6419 33.6 39.2001C33.6 38.7582 33.9582 38.4001 34.4 38.4001H38.4C38.8418 38.4001 39.2 38.7582 39.2 39.2001C39.2 39.6419 38.8419 40 38.4 40ZM42.4001 41.6H34.4001C33.9583 41.6 33.6001 41.9581 33.6001 42.3999C33.6001 42.8418 33.9583 43.1999 34.4001 43.1999H42.4001C42.8419 43.1999 43.2 42.8418 43.2 42.3999C43.2 41.9581 42.8419 41.6 42.4001 41.6ZM6.40005 37.6H9.60002C10.4837 37.6 11.2 38.3164 11.2 39.2001V42.4C11.2 43.2837 10.4837 44.0001 9.60002 44.0001H6.40005C5.51636 44.0001 4.80002 43.2837 4.80002 42.4V39.2001C4.80002 38.3164 5.51636 37.6 6.40005 37.6ZM6.40005 39.2001V42.4H9.60002V39.2001H6.40005ZM13.6 40H17.6001C18.0419 40 18.4 39.6419 18.4 39.2001C18.4 38.7582 18.0418 38.4001 17.6001 38.4001H13.6C13.1582 38.4001 12.8001 38.7582 12.8001 39.2001C12.8001 39.6419 13.1582 40 13.6 40ZM13.6 41.6H21.6C22.0419 41.6 22.4 41.9581 22.4 42.3999C22.4 42.8418 22.0419 43.1999 21.6 43.1999H13.6C13.1583 43.1999 12.8001 42.8418 12.8001 42.3999C12.8001 41.9581 13.1582 41.6 13.6 41.6ZM20 16.8H18.0944L17.1576 14.9264C16.7534 14.1113 15.921 13.5968 15.0112 13.6H12.1887C11.2789 13.5968 10.4465 14.1113 10.0423 14.9264L9.10558 16.8H7.20002C5.87458 16.8 4.80002 17.8746 4.80002 19.2V28.8C4.80002 30.1254 5.87458 31.2 7.20002 31.2H20C21.3254 31.2 22.4 30.1254 22.4 28.8V19.2C22.4 17.8746 21.3255 16.8 20 16.8ZM11.4736 15.6424C11.6081 15.3706 11.8855 15.199 12.1888 15.2H15.0113C15.3145 15.199 15.592 15.3706 15.7265 15.6424L16.3057 16.8H10.8945L11.4736 15.6424ZM6.40005 19.2C6.40005 18.7582 6.75827 18.4 7.20002 18.4H20C20.4418 18.4 20.8 18.7583 20.8 19.2V22.4C20.8 22.8418 20.4417 23.1999 20 23.1999H16.8C16.8 22.3163 16.0837 21.5999 15.2 21.5999H12C11.1163 21.5999 10.4 22.3163 10.4 23.1999H7.20002C6.75817 23.1999 6.40005 22.8417 6.40005 22.4V19.2ZM15.2 24.8H12V23.1999H15.2V24.8ZM20 29.6H7.20002C6.75817 29.6 6.40005 29.2418 6.40005 28.8V24.6528C6.65627 24.7476 6.92692 24.7973 7.20002 24.8H10.4C10.4 25.6837 11.1163 26.4 12 26.4H15.2C16.0837 26.4 16.8 25.6837 16.8 24.8H20C20.2732 24.7973 20.5437 24.7476 20.8 24.6528V28.8C20.8 29.2418 20.4418 29.6 20 29.6ZM5.59999 33.6H21.6C22.0419 33.6 22.4 33.9581 22.4 34.4C22.4 34.8418 22.0419 35.1999 21.6 35.1999H5.59999C5.15824 35.1999 4.80002 34.8418 4.80002 34.4C4.80002 33.9581 5.15814 33.6 5.59999 33.6Z" fill="#24EBA3"/>
</svg>
