<svg width="45" height="48" viewBox="0 0 45 48" fill="none" xmlns="http://www.w3.org/2000/svg">
<path fill-rule="evenodd" clip-rule="evenodd" d="M44.1694 4.68704C44.5271 4.73411 44.8188 4.98826 44.9318 5.32705C45.0447 5.66592 44.9506 6.04236 44.6963 6.28719L41.8351 9.07304L42.5128 13.0165C42.5693 13.3741 42.4282 13.7318 42.1364 13.9388C41.9669 14.0612 41.7788 14.1177 41.5811 14.1177C41.4306 14.1177 41.2799 14.0895 41.1387 14.0141L37.5999 12.1506L34.0611 14.0141C33.7506 14.1742 33.3647 14.1459 33.0729 13.9388C32.7812 13.7224 32.64 13.3741 32.6965 13.0165L33.0353 11.0589L25.3647 14.4471C25.3929 14.6447 25.4118 14.8517 25.4118 15.0588C25.4118 17.1389 23.7271 18.8236 21.647 18.8236C20.4517 18.8236 19.3882 18.2589 18.7012 17.3929L9.36472 21.5059C9.39296 21.7035 9.41178 21.9105 9.41178 22.1176C9.41178 24.1977 7.7271 25.8824 5.64705 25.8824C3.56701 25.8824 1.88232 24.1977 1.88232 22.1176C1.88232 20.0376 3.56701 18.3529 5.64705 18.3529C6.84235 18.3529 7.90586 18.9176 8.59293 19.7835L17.9294 15.6706C17.9012 15.4729 17.8824 15.2659 17.8824 15.0588C17.8824 12.9788 19.5671 11.2941 21.6471 11.2941C22.8424 11.2941 23.9059 11.8588 24.5836 12.7341L33.2048 8.93176L30.5036 6.29643C30.2494 6.04236 30.1553 5.66592 30.2682 5.32705C30.3812 4.98818 30.673 4.73411 31.0306 4.68704L34.9835 4.11293L36.7529 0.527048C36.9129 0.207089 37.2424 0 37.6 0C37.9576 0 38.2871 0.207089 38.447 0.527048L40.2165 4.11293L44.1694 4.68704ZM3.76469 22.1176C3.76469 23.1529 4.61178 24 5.64705 24C6.68232 24 7.52942 23.1529 7.52942 22.1176C7.52942 21.0824 6.68232 20.2353 5.64705 20.2353C4.61178 20.2353 3.76469 21.0824 3.76469 22.1176ZM19.7647 15.0588C19.7647 16.0941 20.6118 16.9412 21.647 16.9412C22.6823 16.9412 23.5294 16.0941 23.5294 15.0588C23.5294 14.0236 22.6823 13.1765 21.647 13.1765C20.6118 13.1765 19.7647 14.0236 19.7647 15.0588ZM39.887 8.91302C39.84 8.60238 39.934 8.29184 40.16 8.07533L42.0047 6.26827L39.4446 5.90125C39.1434 5.85418 38.8799 5.66601 38.7388 5.38361L37.5905 3.06833L36.4423 5.38361C36.3105 5.66592 36.0469 5.85418 35.7364 5.90125L33.1764 6.26827L35.0305 8.07533C35.2564 8.29184 35.36 8.61188 35.3035 8.91302L35.1717 9.66598L34.8611 11.4636L37.1482 10.2589C37.2894 10.193 37.4399 10.1554 37.5905 10.1554C37.741 10.1554 37.8917 10.1836 38.0329 10.2589L40.3199 11.4636L39.887 8.91302ZM40.4707 19.2941H34.8236C33.2707 19.2941 32.0001 20.5647 32.0001 22.1176V47.0589C32.0001 47.5765 32.4236 48 32.9412 48H42.3529C42.8706 48 43.2941 47.5765 43.2941 47.0589V22.1176C43.2942 20.5647 42.0236 19.2941 40.4707 19.2941ZM41.4117 46.1176H33.8823V22.1176C33.8823 21.6 34.3058 21.1765 34.8235 21.1765H40.4706C40.9882 21.1765 41.4117 21.6 41.4117 22.1176V46.1176ZM18.8235 23.0589H24.4706C26.0235 23.0589 27.2941 24.3295 27.294 25.8824V47.0589C27.294 47.5765 26.8705 48 26.3529 48H16.9412C16.4235 48 16 47.5765 16 47.0589V25.8824C16 24.3295 17.2706 23.0589 18.8235 23.0589ZM17.8823 46.1176H25.4117V25.8824C25.4117 25.3647 24.9882 24.9412 24.4705 24.9412H18.8234C18.3058 24.9412 17.8823 25.3647 17.8823 25.8824V46.1176ZM2.8235 30.5882H8.4706C10.0236 30.5882 11.2941 31.8588 11.294 33.4118V47.0588C11.294 47.5764 10.8705 47.9999 10.3529 47.9999H0.941139C0.423504 47.9999 0 47.5764 0 47.0588V33.4117C0 31.8588 1.2706 30.5882 2.8235 30.5882ZM1.88236 46.1176H9.41174V33.4118C9.41174 32.8942 8.98823 32.4707 8.4706 32.4707H2.8235C2.30587 32.4707 1.88236 32.8942 1.88236 33.4118V46.1176Z" fill="#24EBA3"/>
</svg>
