<svg width="49" height="48" viewBox="0 0 49 48" fill="none" xmlns="http://www.w3.org/2000/svg">
<path fill-rule="evenodd" clip-rule="evenodd" d="M32.9404 13.0806C32.9404 20.3033 27.0826 26.1611 19.8598 26.1611C12.6371 26.1611 6.77928 20.3033 6.77928 13.0806C6.77928 5.85782 12.6371 0 19.8598 0C27.0826 0 32.9404 5.85782 32.9404 13.0806ZM19.9167 24.7962C22.6466 24.7962 25.2058 23.8294 27.1963 22.237V15.5261C27.1395 14.5592 26.6276 13.763 25.6608 13.4218C21.9072 12.2844 17.8693 12.2844 14.1158 13.4218C13.2058 13.763 12.6371 14.6161 12.5802 15.5261V22.1801C14.5707 23.7725 17.1869 24.7962 19.9167 24.7962ZM19.803 4.2654C17.9262 4.2654 16.4475 5.74408 16.4475 7.62085C16.4475 9.49763 17.9262 10.9763 19.803 10.9763C21.6798 10.9763 23.1584 9.49763 23.1584 7.62085C23.1584 5.80095 21.6798 4.32227 19.803 4.2654ZM31.5186 13.0806C31.5186 6.65403 26.2864 1.4218 19.8598 1.4218C13.3764 1.4218 8.14421 6.65403 8.20108 13.0806C8.20108 16.0379 9.33852 18.7678 11.1584 20.8152V15.4692C11.2153 13.9336 12.1821 12.5118 13.6608 12C14.7414 11.7156 15.7651 11.4882 16.8456 11.3175C15.7651 10.4645 15.0826 9.09953 15.0826 7.62085C15.0826 5.00474 17.2437 2.8436 19.8598 2.8436C22.476 2.8436 24.6371 5.00474 24.6371 7.62085C24.6371 9.09953 23.9546 10.4645 22.8741 11.3175C23.9546 11.4882 25.0352 11.7156 26.0589 12C27.6513 12.5687 28.5613 13.8768 28.5613 15.4692V20.8152C30.3812 18.7678 31.5186 16.0379 31.5186 13.0806ZM42.9499 43.2796C42.9499 43.6565 42.6443 43.9621 42.2674 43.9621C41.8905 43.9621 41.5849 43.6565 41.5849 43.2796C41.5849 42.9027 41.8905 42.5971 42.2674 42.5971C42.6443 42.5971 42.9499 42.9027 42.9499 43.2796ZM20.4854 13.5924C20.4285 13.4218 20.2579 13.2512 20.0873 13.1943C19.746 13.0806 19.2911 13.2512 19.1773 13.5924L17.073 19.2796C16.9593 19.5071 17.0162 19.7915 17.1868 19.9621L19.2911 22.6351C19.4617 22.8626 19.6323 22.9194 19.8598 22.9194C20.0873 22.9194 20.201 22.8626 20.4285 22.6351L22.5328 19.9621C22.7034 19.7915 22.7602 19.5071 22.6465 19.2796L20.4854 13.5924ZM19.8029 21.0427L18.4948 19.3934L19.8029 15.8673L21.111 19.3934L19.8029 21.0427ZM39.1394 46.5782H48.0683C48.4665 46.5782 48.8077 46.9194 48.7508 47.3175C48.7508 47.6588 48.4665 48 48.0683 48H38.4001C38.0589 48 37.7176 47.7156 37.7176 47.3175V44.3033H33.6797C33.2816 44.3033 32.9404 44.019 32.9404 43.6208V42.4265H26.8551C26.7413 42.4265 10.5328 36.3981 10.5328 36.3981L0.352705 29.4028C0.0683452 29.2322 -0.216015 28.891 0.238961 28.3791L1.09204 27.4692C2.4001 26.1611 4.39062 26.2749 5.98304 27.0711L5.75555 26.7299C5.64181 26.5592 5.64181 26.3318 5.69868 26.1611C5.75555 25.9905 5.92617 25.8199 6.09678 25.763L7.23422 25.3649C9.111 24.7393 10.874 25.8768 11.8977 27.3554C12.0115 27.5261 15.0826 32.2464 15.0826 32.2464H15.9356C15.0257 30.7109 15.0257 29.1185 15.0257 29.0616C15.0257 28.6635 15.3101 28.3791 15.7082 28.3791H27.1394C27.3101 28.3791 27.4807 28.436 27.5944 28.5498L31.7461 32.1896H32.9973V30.199C32.9973 29.8578 33.2816 29.5166 33.6797 29.5166H37.7745V27.2986C37.7745 26.9573 38.0589 26.6161 38.457 26.6161C38.7982 26.6161 39.1394 26.9005 39.1394 27.2986V29.5166H46.5897C46.9309 29.5166 47.2721 29.8578 47.2721 30.199C47.2721 30.5403 46.9878 30.8815 46.5897 30.8815H39.1394V46.5782ZM10.7034 27.981C10.0778 27.1848 9.22474 26.5592 8.31479 26.5592C8.14418 26.5592 7.46171 26.7299 7.46171 26.7299L8.37166 28.436L12.5802 30.8815C12.5802 30.8815 10.8172 28.1517 10.7034 27.981ZM11.2721 35.2038L26.9119 41.0047H32.8835V33.6682H31.348C31.1774 33.6682 31.0067 33.6114 30.893 33.4976L26.7413 29.8578H16.3906C16.5044 30.9384 17.3006 32.1327 18.3811 32.3033H24.8077C25.1489 32.3033 25.4901 32.6445 25.4901 32.9858C25.4901 33.327 25.2058 33.6682 24.8077 33.6682H14.6276C14.5138 33.6682 14.4001 33.6114 14.2864 33.5545L5.81242 28.6635C4.67498 27.8673 3.02569 27.5261 2.05887 28.4929L1.83138 28.7204L11.2721 35.2038ZM34.3622 42.8246H37.7176V30.8815H34.3622V42.8246Z" fill="#24EBA3"/>
</svg>
