<svg width="50" height="48" viewBox="0 0 50 48" fill="none" xmlns="http://www.w3.org/2000/svg">
<path fill-rule="evenodd" clip-rule="evenodd" d="M0 30.6207V3.31117C0 1.48552 1.48552 0 3.31117 0H46.344C48.1697 0 49.6552 1.48552 49.6552 3.31117V30.6207V34.7578C49.6552 36.5835 48.1697 38.069 46.344 38.069H29.8162C30.0078 41.3622 31.3872 43.0316 33.9243 43.0345C33.9266 43.0345 33.9288 43.0345 33.931 43.0345L35.5862 43.0345C36.955 43.0345 38.069 44.1484 38.069 45.5172C38.069 46.8861 36.955 48 35.5862 48H14.069C12.7001 48 11.5862 46.8861 11.5862 45.5172C11.5862 44.1484 12.7001 43.0345 14.069 43.0345L15.7241 43.0345C15.7263 43.0345 15.7285 43.0345 15.7308 43.0345C18.2679 43.0316 19.6473 41.3622 19.8389 38.069H3.31117C1.48552 38.069 0 36.5835 0 34.7578V30.6207ZM28.9691 36.4138C28.9679 36.4138 28.9667 36.4138 28.9655 36.4138H20.6896C20.6884 36.4138 20.6872 36.4138 20.686 36.4138H3.31117C2.39752 36.4138 1.65517 35.6715 1.65517 34.7578V31.4483H4.13544L4.13798 31.4483H45.5173L45.5198 31.4483H48V34.7578C48 35.6715 47.2577 36.4138 46.344 36.4138H28.9691ZM21.4949 38.069C21.374 40.2248 20.7749 41.9057 19.7553 43.0345H29.9007C28.8811 41.9057 28.2811 40.2248 28.1611 38.069H21.4949ZM15.7216 44.6897H14.069C13.613 44.6897 13.2414 45.0612 13.2414 45.5172C13.2414 45.9732 13.613 46.3448 14.069 46.3448H35.5862C36.0422 46.3448 36.4138 45.9732 36.4138 45.5172C36.4138 45.0612 36.0422 44.6897 35.5862 44.6897H33.9335C33.9327 44.6897 33.9318 44.6897 33.931 44.6897H15.7241C15.7233 44.6897 15.7224 44.6897 15.7216 44.6897ZM46.3449 29.7931H48V3.31117C48 2.39752 47.2577 1.65517 46.344 1.65517H3.31117C2.39752 1.65517 1.65517 2.39752 1.65517 3.31117V29.7931H3.31039V4.13795C3.31039 3.68112 3.68115 3.31037 4.13798 3.31037H45.5173C45.9741 3.31037 46.3449 3.68112 46.3449 4.13795V29.7931ZM44.6897 29.7931V4.96554H4.96556V29.7931L44.6897 29.7931ZM25.6552 21.2151V23.1724C25.6552 23.6292 25.2844 24 24.8276 24C24.3708 24 24 23.6292 24 23.1724V21.2151L15.7241 17.3206V21.8334L24.8276 26.3851L33.931 21.8334V17.3206L25.6552 21.2151ZM39.7241 14.0781V21.2665L41.2403 23.5407C41.4935 23.9206 41.3909 24.4353 41.011 24.6886C40.8695 24.7829 40.7098 24.8276 40.5525 24.8276C40.2852 24.8276 40.0229 24.6985 39.8631 24.4593L38.8965 23.0094L37.9299 24.4593C37.7702 24.6985 37.5079 24.8276 37.2406 24.8276C37.0833 24.8276 36.9236 24.7829 36.7821 24.6886C36.4022 24.4353 36.2996 23.9214 36.5528 23.5407L38.069 21.2665V15.3733L35.5862 16.5417V22.3448C35.5862 22.6585 35.4091 22.9448 35.1285 23.0855L25.1975 28.051C25.0816 28.109 24.9542 28.1379 24.8276 28.1379C24.7009 28.1379 24.5735 28.109 24.4576 28.051L14.5266 23.0855C14.246 22.9448 14.0689 22.6585 14.0689 22.3448V16.5416L10.4061 14.8179C10.1165 14.6814 9.93107 14.3893 9.93107 14.069C9.93107 13.7487 10.1165 13.4566 10.4061 13.32L24.4751 6.69932C24.6985 6.59422 24.9567 6.59422 25.1802 6.69932L39.2491 13.32C39.3784 13.3809 39.4869 13.4728 39.5674 13.5844L39.5766 13.5974C39.6558 13.7115 39.7072 13.8464 39.7206 13.9922L39.7217 14.0048L39.7227 14.0189C39.7237 14.0355 39.7242 14.0522 39.7242 14.069L39.7241 14.0781ZM34.4157 15.2629L35.1941 14.8966H25.6552V15.7241C25.6552 16.181 25.2844 16.5517 24.8276 16.5517C24.3708 16.5517 24 16.181 24 15.7241V14.069V12.4138C24 11.957 24.3708 11.5862 24.8276 11.5862C25.2844 11.5862 25.6552 11.957 25.6552 12.4138V13.2414H35.1941L24.8276 8.36277L12.7027 14.069L24.8276 19.7752L24.8276 19.7752L34.406 15.2673L34.4157 15.2629ZM28.1379 33.931C28.1379 34.3879 27.7671 34.7586 27.3103 34.7586H22.3448C21.888 34.7586 21.5172 34.3879 21.5172 33.931C21.5172 33.4742 21.888 33.1035 22.3448 33.1035H27.3103C27.7671 33.1035 28.1379 33.4742 28.1379 33.931Z" fill="#24EBA3"/>
</svg>
