<svg width="52" height="48" viewBox="0 0 52 48" fill="none" xmlns="http://www.w3.org/2000/svg">
<path fill-rule="evenodd" clip-rule="evenodd" d="M51.1775 10.8918C51.0168 11.0526 50.7988 11.1429 50.5714 11.1429C50.3441 11.1429 50.1261 11.0526 49.9654 10.8918C49.8046 10.7311 49.7143 10.513 49.7143 10.2857V4.28571C49.7143 3.60373 49.4434 2.94968 48.9611 2.46744C48.4789 1.9852 47.8249 1.71429 47.1429 1.71429H30C29.318 1.71429 28.664 1.9852 28.1817 2.46744C27.6995 2.94968 27.4286 3.60373 27.4286 4.28571V16.2857C27.4286 16.9677 27.6995 17.6218 28.1817 18.104C28.664 18.5862 29.318 18.8571 30 18.8571H30.8572C31.0003 18.8507 31.1428 18.8803 31.2716 18.9432C31.4004 19.0061 31.5113 19.1003 31.5943 19.2171C31.674 19.327 31.7264 19.4543 31.7472 19.5884C31.7681 19.7225 31.7568 19.8597 31.7143 19.9886L30.6686 22.98L37.5943 18.9686C37.7262 18.8976 37.8732 18.8594 38.0229 18.8571H47.1429C47.8249 18.8571 48.4789 18.5862 48.9611 18.104C49.4434 17.6218 49.7143 16.9677 49.7143 16.2857V13.7143C49.7143 13.487 49.8046 13.2689 49.9654 13.1082C50.1261 12.9474 50.3441 12.8571 50.5714 12.8571C50.7988 12.8571 51.0168 12.9474 51.1775 13.1082C51.3383 13.2689 51.4286 13.487 51.4286 13.7143V16.2857C51.4286 17.4224 50.9771 18.5124 50.1733 19.3162C49.3696 20.1199 48.2795 20.5714 47.1429 20.5714H38.2543L29.5714 25.6114C29.4203 25.6969 29.2468 25.7345 29.0738 25.7192C28.9009 25.7039 28.7366 25.6364 28.6029 25.5257C28.4678 25.4162 28.3692 25.2682 28.3202 25.1013C28.2712 24.9344 28.2741 24.7566 28.3286 24.5914L29.6743 20.5714C28.595 20.4892 27.5869 20.0016 26.8523 19.2066C26.1177 18.4116 25.7112 17.3681 25.7143 16.2857V4.28571C25.7143 3.14907 26.1658 2.05898 26.9696 1.25526C27.7733 0.451529 28.8634 0 30 0H47.1429C48.2795 0 49.3696 0.451529 50.1733 1.25526C50.9771 2.05898 51.4286 3.14907 51.4286 4.28571V10.2857C51.4286 10.513 51.3383 10.7311 51.1775 10.8918ZM8.57143 13.6286V14.5714C8.57243 15.3702 8.73292 16.1608 9.04349 16.8967C9.35405 17.6326 9.80844 18.2991 10.38 18.8571H10.2857C9.14907 18.8571 8.05898 19.3087 7.25526 20.1124C6.45153 20.9161 6 22.0062 6 23.1429V31.7143C6 31.9416 6.09031 32.1596 6.25105 32.3204C6.4118 32.4811 6.62981 32.5714 6.85714 32.5714C7.08447 32.5714 7.30249 32.4811 7.46323 32.3204C7.62398 32.1596 7.71429 31.9416 7.71429 31.7143V23.1429C7.71429 22.4609 7.9852 21.8068 8.46744 21.3246C8.94968 20.8423 9.60373 20.5714 10.2857 20.5714H11.5114L13.7143 24.24V31.7143C13.7143 31.9416 13.8046 32.1596 13.9653 32.3204C14.1261 32.4811 14.3441 32.5714 14.5714 32.5714C14.7988 32.5714 15.0168 32.4811 15.1775 32.3204C15.3383 32.1596 15.4286 31.9416 15.4286 31.7143V24.24L17.6314 20.5714H18.8571C19.5391 20.5714 20.1932 20.8423 20.6754 21.3246C21.1577 21.8068 21.4286 22.4609 21.4286 23.1429V31.7143C21.4286 31.9416 21.5189 32.1596 21.6796 32.3204C21.8404 32.4811 22.0584 32.5714 22.2857 32.5714C22.513 32.5714 22.7311 32.4811 22.8918 32.3204C23.0526 32.1596 23.1429 31.9416 23.1429 31.7143V23.1429C23.1429 22.0062 22.6913 20.9161 21.8876 20.1124C21.0839 19.3087 19.9938 18.8571 18.8571 18.8571H18.7629C19.3344 18.2991 19.7888 17.6326 20.0994 16.8967C20.4099 16.1608 20.5704 15.3702 20.5714 14.5714V13.6286C21.5395 13.431 22.4095 12.905 23.0343 12.1396C23.659 11.3743 24.0002 10.4166 24 9.42857V7.71429C24 6.57764 23.5485 5.48756 22.7447 4.68383C21.941 3.8801 20.8509 3.42857 19.7143 3.42857H6C5.77267 3.42857 5.55465 3.51888 5.39391 3.67962C5.23316 3.84037 5.14286 4.05839 5.14286 4.28571V9.42857C5.14266 10.4166 5.48381 11.3743 6.10859 12.1396C6.73338 12.905 7.6034 13.431 8.57143 13.6286ZM14.5714 22.3371L13.5171 20.5714H15.6257L14.5714 22.3371ZM18.8571 14.5714C18.8571 15.7081 18.4056 16.7982 17.6019 17.6019C16.7982 18.4056 15.7081 18.8571 14.5714 18.8571C13.4348 18.8571 12.3447 18.4056 11.541 17.6019C10.7372 16.7982 10.2857 15.7081 10.2857 14.5714V9.18857C11.7853 9.91223 13.4292 10.2873 15.0943 10.2857H18.8571V14.5714ZM6.85714 5.14286H19.7143C20.3963 5.14286 21.0503 5.41377 21.5326 5.89601C22.0148 6.37825 22.2857 7.0323 22.2857 7.71429V9.42857C22.2842 9.9591 22.1187 10.4762 21.8118 10.9089C21.5049 11.3417 21.0716 11.6689 20.5714 11.8457V9.42857C20.5714 9.20124 20.4811 8.98323 20.3204 8.82248C20.1596 8.66173 19.9416 8.57143 19.7143 8.57143H15.0943C13.2456 8.57548 11.4375 8.02946 9.9 7.00286C9.7735 6.92101 9.62766 6.87395 9.47718 6.86643C9.3267 6.8589 9.17689 6.89118 9.04286 6.96C8.90279 7.03056 8.78477 7.13821 8.70164 7.2712C8.61852 7.4042 8.57348 7.55746 8.57143 7.71429V11.8457C8.07124 11.6689 7.638 11.3417 7.33109 10.9089C7.02418 10.4762 6.85863 9.9591 6.85714 9.42857V5.14286ZM13.7143 12.8571C13.7143 13.3305 13.3305 13.7143 12.8571 13.7143C12.3838 13.7143 12 13.3305 12 12.8571C12 12.3838 12.3838 12 12.8571 12C13.3305 12 13.7143 12.3838 13.7143 12.8571ZM15.4286 12.8571C15.4286 12.3838 15.8123 12 16.2857 12C16.7591 12 17.1429 12.3838 17.1429 12.8571C17.1429 13.3305 16.7591 13.7143 16.2857 13.7143C15.8123 13.7143 15.4286 13.3305 15.4286 12.8571ZM9.42857 31.7143V24.8571C9.42857 24.6298 9.51888 24.4118 9.67962 24.2511C9.84037 24.0903 10.0584 24 10.2857 24C10.513 24 10.7311 24.0903 10.8918 24.2511C11.0526 24.4118 11.1429 24.6298 11.1429 24.8571V31.7143C11.1429 31.9416 11.0526 32.1596 10.8918 32.3204C10.7311 32.4811 10.513 32.5714 10.2857 32.5714C10.0584 32.5714 9.84037 32.4811 9.67962 32.3204C9.51888 32.1596 9.42857 31.9416 9.42857 31.7143ZM18 24.8571V31.7143C18 31.9416 18.0903 32.1596 18.2511 32.3204C18.4118 32.4811 18.6298 32.5714 18.8571 32.5714C19.0845 32.5714 19.3025 32.4811 19.4632 32.3204C19.624 32.1596 19.7143 31.9416 19.7143 31.7143V24.8571C19.7143 24.6298 19.624 24.4118 19.4632 24.2511C19.3025 24.0903 19.0845 24 18.8571 24C18.6298 24 18.4118 24.0903 18.2511 24.2511C18.0903 24.4118 18 24.6298 18 24.8571ZM14.9011 15.3676C15.0055 15.3241 15.1003 15.2603 15.18 15.18C15.344 15.0396 15.5549 14.9662 15.7706 14.9745C15.9863 14.9829 16.191 15.0723 16.3436 15.2249C16.4963 15.3776 16.5857 15.5822 16.594 15.798C16.6024 16.0137 16.529 16.2246 16.3886 16.3886C15.9064 16.8701 15.2528 17.1406 14.5714 17.1406C13.89 17.1406 13.2364 16.8701 12.7543 16.3886C12.6138 16.2246 12.5405 16.0137 12.5488 15.798C12.5571 15.5822 12.6466 15.3776 12.7992 15.2249C12.9519 15.0723 13.1565 14.9829 13.3722 14.9745C13.5879 14.9662 13.7989 15.0396 13.9628 15.18C14.0425 15.2603 14.1373 15.3241 14.2418 15.3676C14.3462 15.4111 14.4583 15.4335 14.5714 15.4335C14.6846 15.4335 14.7966 15.4111 14.9011 15.3676ZM42 8.57143H43.7143C43.9416 8.57143 44.1596 8.48112 44.3204 8.32038C44.4811 8.15963 44.5714 7.94161 44.5714 7.71429C44.5714 7.48696 44.4811 7.26894 44.3204 7.10819C44.1596 6.94745 43.9416 6.85714 43.7143 6.85714H42C41.7727 6.85714 41.5547 6.94745 41.3939 7.10819C41.2332 7.26894 41.1429 7.48696 41.1429 7.71429C41.1429 7.94161 41.2332 8.15963 41.3939 8.32038C41.5547 8.48112 41.7727 8.57143 42 8.57143ZM43.7143 12H42C41.7727 12 41.5547 11.9097 41.3939 11.7489C41.2332 11.5882 41.1429 11.3702 41.1429 11.1429C41.1429 10.9155 41.2332 10.6975 41.3939 10.5368C41.5547 10.376 41.7727 10.2857 42 10.2857H43.7143C43.9416 10.2857 44.1596 10.376 44.3204 10.5368C44.4811 10.6975 44.5714 10.9155 44.5714 11.1429C44.5714 11.3702 44.4811 11.5882 44.3204 11.7489C44.1596 11.9097 43.9416 12 43.7143 12ZM35.1429 6.85714H33.4286C33.2012 6.85714 32.9832 6.94745 32.8225 7.10819C32.6617 7.26894 32.5714 7.48696 32.5714 7.71429C32.5714 7.94161 32.6617 8.15963 32.8225 8.32038C32.9832 8.48112 33.2012 8.57143 33.4286 8.57143H35.1429C35.3702 8.57143 35.5882 8.48112 35.749 8.32038C35.9097 8.15963 36 7.94161 36 7.71429C36 7.48696 35.9097 7.26894 35.749 7.10819C35.5882 6.94745 35.3702 6.85714 35.1429 6.85714ZM33.4286 10.2857H35.1429C35.3702 10.2857 35.5882 10.376 35.749 10.5368C35.9097 10.6975 36 10.9155 36 11.1429C36 11.3702 35.9097 11.5882 35.749 11.7489C35.5882 11.9097 35.3702 12 35.1429 12H33.4286C33.2012 12 32.9832 11.9097 32.8225 11.7489C32.6617 11.5882 32.5714 11.3702 32.5714 11.1429C32.5714 10.9155 32.6617 10.6975 32.8225 10.5368C32.9832 10.376 33.2012 10.2857 33.4286 10.2857ZM38.5714 17.1429C38.7988 17.1429 39.0168 17.0526 39.1775 16.8918C39.3383 16.7311 39.4286 16.513 39.4286 16.2857C39.4286 16.0584 39.5189 15.8404 39.6796 15.6796C39.8404 15.5189 40.0584 15.4286 40.2857 15.4286H47.1429C47.3702 15.4286 47.5882 15.3383 47.7489 15.1775C47.9097 15.0168 48 14.7988 48 14.5714V4.28571C48 4.05839 47.9097 3.84037 47.7489 3.67962C47.5882 3.51888 47.3702 3.42857 47.1429 3.42857H42C41.3347 3.42857 40.6785 3.58348 40.0834 3.88103C39.4883 4.17857 38.9706 4.61059 38.5714 5.14286C38.1722 4.61059 37.6546 4.17857 37.0595 3.88103C36.4644 3.58348 35.8082 3.42857 35.1429 3.42857H30C29.7727 3.42857 29.5547 3.51888 29.3939 3.67962C29.2332 3.84037 29.1429 4.05839 29.1429 4.28571V14.5714C29.1429 14.7988 29.2332 15.0168 29.3939 15.1775C29.5547 15.3383 29.7727 15.4286 30 15.4286H35.1429C35.3702 15.4286 35.5882 15.3383 35.7489 15.1775C35.9097 15.0168 36 14.7988 36 14.5714C36 14.3441 35.9097 14.1261 35.7489 13.9653C35.5882 13.8046 35.3702 13.7143 35.1429 13.7143H30.8571V5.14286H35.1429C35.8248 5.14286 36.4789 5.41377 36.9611 5.89601C37.4434 6.37825 37.7143 7.0323 37.7143 7.71429V16.2857C37.7143 16.513 37.8046 16.7311 37.9653 16.8918C38.1261 17.0526 38.3441 17.1429 38.5714 17.1429ZM42 5.14286H46.2857V13.7143H40.2857C39.9938 13.7139 39.7039 13.7631 39.4286 13.86V7.71429C39.4286 7.0323 39.6995 6.37825 40.1817 5.89601C40.664 5.41377 41.318 5.14286 42 5.14286ZM38.5714 29.1429C38.7988 29.1429 39.0168 29.0526 39.1775 28.8918C39.3383 28.7311 39.4286 28.513 39.4286 28.2857C39.4286 28.0584 39.3383 27.8404 39.1775 27.6796C39.0168 27.5189 38.7988 27.4286 38.5714 27.4286H31.7143C31.487 27.4286 31.2689 27.5189 31.1082 27.6796C30.9474 27.8404 30.8571 28.0584 30.8571 28.2857C30.8571 28.513 30.9474 28.7311 31.1082 28.8918C31.2689 29.0526 31.487 29.1429 31.7143 29.1429H38.5714ZM25.9653 32.3204C25.8046 32.1596 25.7143 31.9416 25.7143 31.7143C25.7143 31.487 25.8046 31.2689 25.9653 31.1082C26.1261 30.9474 26.3441 30.8571 26.5714 30.8571H38.5714C38.7988 30.8571 39.0168 30.9474 39.1775 31.1082C39.3383 31.2689 39.4286 31.487 39.4286 31.7143C39.4286 31.9416 39.3383 32.1596 39.1775 32.3204C39.0168 32.4811 38.7988 32.5714 38.5714 32.5714H26.5714C26.3441 32.5714 26.1261 32.4811 25.9653 32.3204ZM33.4286 36C33.6559 36 33.8739 35.9097 34.0347 35.7489C34.1954 35.5882 34.2857 35.3702 34.2857 35.1429C34.2857 34.9155 34.1954 34.6975 34.0347 34.5368C33.8739 34.376 33.6559 34.2857 33.4286 34.2857H26.5714C26.3441 34.2857 26.1261 34.376 25.9653 34.5368C25.8046 34.6975 25.7143 34.9155 25.7143 35.1429C25.7143 35.3702 25.8046 35.5882 25.9653 35.7489C26.1261 35.9097 26.3441 36 26.5714 36H33.4286ZM41.3939 22.5368C41.5547 22.376 41.7727 22.2857 42 22.2857C42.2273 22.2857 42.4453 22.376 42.6061 22.5368C42.7668 22.6975 42.8571 22.9155 42.8571 23.1429V36.8571C42.8571 37.5391 42.5862 38.1932 42.104 38.6754C41.6217 39.1577 40.9677 39.4286 40.2857 39.4286H29.8886L32.1771 42.8571H34.2857C34.9677 42.8571 35.6217 43.1281 36.104 43.6103C36.5862 44.0925 36.8571 44.7466 36.8571 45.4286V47.1429C36.8571 47.3702 36.7668 47.5882 36.6061 47.749C36.4453 47.9097 36.2273 48 36 48H6.85714C6.62981 48 6.4118 47.9097 6.25105 47.749C6.09031 47.5882 6 47.3702 6 47.1429C6 46.9155 6.09031 46.6975 6.25105 46.5368C6.4118 46.376 6.62981 46.2857 6.85714 46.2857H35.1429V45.4286C35.1429 45.2012 35.0526 44.9832 34.8918 44.8225C34.7311 44.6617 34.513 44.5714 34.2857 44.5714H8.57143C8.3441 44.5714 8.12608 44.4811 7.96534 44.3204C7.80459 44.1596 7.71429 43.9416 7.71429 43.7143C7.71429 43.487 7.80459 43.2689 7.96534 43.1082C8.12608 42.9474 8.3441 42.8571 8.57143 42.8571H10.68L12.9686 39.4286H2.57143C1.88944 39.4286 1.23539 39.1577 0.753154 38.6754C0.270918 38.1932 0 37.5391 0 36.8571V14.5714C0 13.8894 0.270918 13.2354 0.753154 12.7532C1.23539 12.2709 1.88944 12 2.57143 12H3.42857C3.6559 12 3.87392 12.0903 4.03466 12.2511C4.19541 12.4118 4.28571 12.6298 4.28571 12.8571C4.28571 13.0845 4.19541 13.3025 4.03466 13.4632C3.87392 13.624 3.6559 13.7143 3.42857 13.7143H2.57143C2.3441 13.7143 2.12608 13.8046 1.96534 13.9653C1.80459 14.1261 1.71429 14.3441 1.71429 14.5714V36.8571C1.71429 37.0845 1.80459 37.3025 1.96534 37.4632C2.12608 37.624 2.3441 37.7143 2.57143 37.7143H40.2857C40.513 37.7143 40.7311 37.624 40.8918 37.4632C41.0526 37.3025 41.1429 37.0845 41.1429 36.8571V23.1429C41.1429 22.9155 41.2332 22.6975 41.3939 22.5368ZM15.0343 39.4286L12.7457 42.8571H30.1114L27.8229 39.4286H15.0343Z" fill="#24EBA3"/>
</svg>
