<svg width="43" height="48" viewBox="0 0 43 48" fill="none" xmlns="http://www.w3.org/2000/svg">
<path fill-rule="evenodd" clip-rule="evenodd" d="M1.87408 30.8775C2.40434 30.5722 3.00058 30.4073 3.60808 30.384C3.72808 28.4775 4.76758 26.7195 6.39958 25.6868C6.26833 24.555 6.26008 23.4225 6.38683 22.3035C4.76233 21.27 3.72733 19.5158 3.60808 17.616C3.00133 17.5935 2.40434 17.4285 1.87483 17.1232C0.083835 16.0882 -0.531165 13.7902 0.502335 12C1.17058 10.8435 2.41558 10.125 3.75283 10.125C4.40758 10.125 5.05483 10.299 5.62483 10.6275C6.17233 10.9432 6.59383 11.3857 6.90808 11.8868C8.61959 11.0325 10.6656 11.0512 12.3786 11.9482C13.2876 11.2778 14.2686 10.7122 15.3043 10.26C15.3831 8.3295 16.3903 6.5475 17.9856 5.4915C17.7081 4.96875 17.5363 4.3815 17.5363 3.75C17.5363 1.68225 19.2186 0 21.2863 0C23.3541 0 25.0363 1.68225 25.0363 3.75C25.0363 4.3815 24.8646 4.968 24.5878 5.4915C26.1801 6.546 27.1866 8.3235 27.2676 10.2517C27.7851 10.4767 28.2936 10.7265 28.7856 11.01C29.2798 11.295 29.7478 11.6123 30.2008 11.946C31.9123 11.0535 33.9553 11.0363 35.6646 11.8883C35.9781 11.3865 36.4011 10.944 36.9478 10.6283C37.5178 10.2997 38.1651 10.1258 38.8198 10.1258C40.1571 10.1258 41.4021 10.8442 42.0703 12.0007C43.1038 13.7917 42.4888 16.0898 40.6978 17.124C40.1676 17.43 39.5713 17.595 38.9646 17.6175C38.8446 19.524 37.8051 21.282 36.1731 22.314C36.3043 23.4458 36.3126 24.5783 36.1858 25.6965C37.8096 26.7292 38.8453 28.4842 38.9646 30.3855C39.5721 30.408 40.1691 30.573 40.6978 30.8783C42.4888 31.9125 43.1038 34.2098 42.0703 36.0007C41.4021 37.158 40.1563 37.8765 38.8191 37.8765C38.1651 37.8765 37.5178 37.7025 36.9478 37.374C36.3988 37.0568 35.9766 36.6135 35.6623 36.1102C34.8201 36.5303 33.8983 36.7463 32.9736 36.7463C32.0173 36.7463 31.0633 36.5085 30.1933 36.0532C29.2843 36.7238 28.3041 37.2892 27.2683 37.7415C27.1896 39.6712 26.1823 41.4533 24.5871 42.5093C24.8646 43.0312 25.0363 43.6177 25.0363 44.25C25.0363 46.3177 23.3541 48 21.2863 48C19.2186 48 17.5363 46.3177 17.5363 44.25C17.5363 43.6185 17.7081 43.032 17.9841 42.51C16.3911 41.4548 15.3853 39.6765 15.3043 37.749C14.7868 37.524 14.2776 37.2743 13.7863 36.9907C13.2928 36.7057 12.8248 36.3885 12.3718 36.0555C11.5011 36.5093 10.5486 36.7448 9.59534 36.7448C8.67134 36.7448 7.75033 36.528 6.91033 36.1087C6.59608 36.612 6.17309 37.056 5.62559 37.3733C5.05409 37.7025 4.40758 37.8757 3.75283 37.8757C2.41558 37.8757 1.16983 37.1572 0.501585 36C-0.531915 34.2098 0.083085 31.9117 1.87408 30.8775ZM3.75283 36.3757C4.14433 36.3757 4.53284 36.2715 4.87559 36.0742C5.94808 35.4533 6.31783 34.0747 5.69833 32.9993C5.29633 32.3063 4.54858 31.875 3.74608 31.875C3.35458 31.875 2.96608 31.9792 2.62408 32.1765C1.54934 32.7967 1.18033 34.1753 1.80058 35.25C2.20183 35.9445 2.94958 36.3757 3.75283 36.3757ZM19.0363 44.25C19.0363 45.4905 20.0458 46.5 21.2863 46.5C22.5268 46.5 23.5363 45.4905 23.5363 44.25C23.5363 43.0095 22.5268 42 21.2863 42C20.0458 42 19.0363 43.0095 19.0363 44.25ZM21.2863 40.5C22.1728 40.5 22.9768 40.8218 23.6196 41.3377C24.7101 40.6717 25.4653 39.5693 25.7001 38.3213C24.2826 38.7607 22.7923 39.0007 21.2698 39.0007C19.7766 39.0007 18.2961 38.7675 16.8748 38.3288C17.1103 39.573 17.8648 40.6725 18.9538 41.337C19.5958 40.8218 20.3998 40.5 21.2863 40.5ZM38.8191 36.3757C39.6231 36.3757 40.3708 35.9445 40.7713 35.25C41.3923 34.1753 41.0226 32.7967 39.9478 32.1765C39.6058 31.9792 39.2173 31.875 38.8258 31.875C38.0226 31.875 37.2741 32.3055 36.8736 33C36.2541 34.0747 36.6238 35.454 37.6978 36.0742C38.0398 36.2707 38.4276 36.3757 38.8191 36.3757ZM35.5753 32.25C36.0081 31.5023 36.6831 30.9412 37.4676 30.636C37.4331 29.37 36.8623 28.176 35.9128 27.3533C35.5813 28.791 35.0361 30.1882 34.2778 31.5007C33.5196 32.8132 32.5693 33.9803 31.4826 34.9852C32.6788 35.4053 34.0116 35.3025 35.1351 34.689C35.0098 33.8745 35.1328 33.0173 35.5753 32.25ZM38.8206 11.6242C38.4291 11.6242 38.0406 11.7285 37.6986 11.9265C36.6246 12.5468 36.2548 13.9253 36.8743 15C37.2763 15.6938 38.0241 16.125 38.8273 16.125C39.2188 16.125 39.6073 16.0208 39.9486 15.8235C41.0233 15.2025 41.3923 13.824 40.7721 12.7493C40.3708 12.0555 39.6231 11.6242 38.8206 11.6242ZM35.5753 15.75C35.1328 14.9827 35.0098 14.1255 35.1351 13.311C34.0146 12.7005 32.6841 12.5962 31.4863 13.014C33.5391 14.9137 35.0308 17.3482 35.7733 20.1173C35.8017 20.2245 35.8233 20.3326 35.8448 20.4407C35.8597 20.5155 35.8747 20.5902 35.8918 20.6647C36.8541 19.8405 37.4331 18.6397 37.4683 17.364C36.6846 17.0588 36.0081 16.4985 35.5753 15.75ZM32.9781 30.75C34.7803 27.6292 35.2581 23.991 34.3251 20.5065C33.3913 17.022 31.1578 14.1098 28.0363 12.309C25.9858 11.1248 23.6578 10.4992 21.3028 10.4992C16.4856 10.4992 11.9983 13.086 9.59458 17.25C7.79233 20.3708 7.31458 24.009 8.24758 27.4935C9.18133 30.9788 11.4148 33.8903 14.5363 35.6917C16.5868 36.8753 18.9148 37.5015 21.2698 37.5015C26.0871 37.5015 30.5743 34.9147 32.9781 30.75ZM23.5363 3.75C23.5363 2.5095 22.5268 1.5 21.2863 1.5C20.0458 1.5 19.0363 2.5095 19.0363 3.75C19.0363 4.9905 20.0458 6 21.2863 6C22.5268 6 23.5363 4.9905 23.5363 3.75ZM21.2863 7.5C20.3998 7.5 19.5958 7.17825 18.9531 6.66225C17.8626 7.32825 17.1073 8.4315 16.8726 9.678C18.2901 9.2385 19.7803 8.9985 21.3028 8.9985C22.7961 8.9985 24.2766 9.2325 25.6978 9.6705C25.4623 8.42625 24.7078 7.32675 23.6188 6.66225C22.9768 7.17825 22.1728 7.5 21.2863 7.5ZM3.75283 11.625C2.94958 11.625 2.20183 12.0562 1.80133 12.75C1.18033 13.8247 1.55008 15.2033 2.62408 15.8243C2.96608 16.0208 3.35384 16.125 3.74534 16.125C4.54934 16.125 5.29783 15.6945 5.69908 15C6.31858 13.926 5.94958 12.5475 4.87483 11.9272C4.53284 11.7292 4.14433 11.625 3.75283 11.625ZM6.99733 15.75C6.56458 16.4985 5.88958 17.0588 5.10583 17.3647C5.13958 18.6308 5.71033 19.824 6.65983 20.6483C6.99133 19.2105 7.53658 17.814 8.29484 16.5007C9.05309 15.1875 10.0033 14.0212 11.0893 13.0162C9.89233 12.5962 8.56033 12.6998 7.43758 13.3118C7.56358 14.1255 7.43983 14.9827 6.99733 15.75ZM6.72818 27.5623C6.71321 27.4867 6.69824 27.4112 6.68083 27.336C5.71708 28.164 5.14034 29.3617 5.10508 30.636C5.88808 30.9412 6.56458 31.5015 6.99733 32.2493C7.43983 33.0173 7.56283 33.8745 7.43758 34.689C8.55808 35.301 9.88783 35.4045 11.0856 34.9852C9.03284 33.0855 7.54108 30.651 6.79858 27.882C6.77048 27.7757 6.74932 27.669 6.72818 27.5623ZM11.9978 21.1208L20.9978 17.3708C21.1823 17.2943 21.3908 17.2943 21.5753 17.3708L30.5753 21.1208L30.5761 21.1215C30.5788 21.1229 30.5812 21.1245 30.5836 21.1262C30.5866 21.1283 30.5896 21.1304 30.5933 21.132C30.6683 21.1658 30.7343 21.2123 30.7928 21.2663C30.8082 21.2805 30.8213 21.2961 30.8346 21.312C30.8381 21.3162 30.8417 21.3205 30.8453 21.3248C30.8873 21.372 30.9211 21.423 30.9496 21.4793C30.9623 21.5033 30.9743 21.5258 30.9841 21.5513C31.0148 21.6345 31.0366 21.7208 31.0366 21.813V24.813C31.0366 25.2278 30.7013 25.563 30.2866 25.563C29.8718 25.563 29.5366 25.2278 29.5366 24.813V22.938L27.2866 23.8755V27.8115C27.2866 29.0528 26.2763 30.063 25.0351 30.063H17.5381C16.2968 30.063 15.2866 29.0528 15.2866 27.8115V23.8755L11.9978 22.5053C11.7188 22.389 11.5366 22.116 11.5366 21.813C11.5366 21.51 11.7188 21.237 11.9978 21.1208ZM25.0351 28.563C25.4498 28.563 25.7866 28.2263 25.7866 27.8115V24.5003L21.5753 26.2553C21.4831 26.2943 21.3848 26.313 21.2866 26.313C21.1883 26.313 21.0901 26.2943 20.9978 26.2553L16.7866 24.5003V27.8115C16.7866 28.2263 17.1233 28.563 17.5381 28.563H25.0351ZM26.2448 22.6853L28.3366 21.813L21.2866 18.8753L14.2366 21.813L16.3283 22.6853H16.3298L21.2866 24.7515L26.2441 22.6853H26.2448Z" fill="#24EBA3"/>
</svg>
