<svg id="Layer_1" enable-background="new 0 0 512 512" height="512" viewBox="0 0 511 511" width="512" xmlns="http://www.w3.org/2000/svg"><path d="m427.727 111.73v5.529c0 9.648 14.994 9.664 14.994 0v-5.302c3.44-1.035 6.727-2.873 9.606-5.637 9.194-8.825 8.99-24.29-.833-32.465-4.519-3.76-9.617-5.052-15.274-5.986-3.207-.53-7.152-.43-7.858-4.123-1.603-8.38 11.043-8.074 13.888-1.766 1.677 3.72 7.005 4.54 10.258 2.689 3.821-2.174 4.344-6.588 2.69-10.257-2.359-5.23-7.093-8.937-12.477-10.816v-6.072c0-9.648-14.994-9.664-14.994 0v5.73c-9.524 3.094-15.595 12.373-14.142 22.466.8 5.553 3.617 10.6 8.551 13.488 4.275 2.502 9.098 2.802 13.829 3.746 3.712.741 8.118 2.38 8.203 6.854.082 4.328-3.179 7.55-7.36 8.109-5.838.782-10.97-2.896-11.947-8.603-1.198-8.989-15.555-8.867-14.927.581.72 10.826 8.455 18.865 17.793 21.835z"/><path d="m504.408 449.023h-11.996v-217.934c0-22.316-18.154-40.47-40.47-40.47h-172.451c.176-10.143-6.361-19.503-15.994-22.757v-84.203h93.901c3.204 39.751 36.554 71.124 77.116 71.124 42.674 0 77.391-34.718 77.391-77.391s-34.717-77.392-77.391-77.392c-39.722 0-72.534 30.086-76.886 68.664h-101.628c-4.141 0-7.497 3.356-7.497 7.497v44.484h-104.218v-18.956c4.728-2.292 8.005-7.125 8.005-12.722v-23.916c0-7.8-6.345-14.145-14.145-14.145h-12.82v-9.081c0-8.001-4.404-15.271-11.493-18.973-7.101-3.709-15.602-3.168-22.183 1.415-5.781 4.025-10.561 9.485-14.253 16.27h-.66c-3.692-6.786-8.472-12.245-14.254-16.271-6.58-4.58-15.082-5.124-22.182-1.415-7.089 3.703-11.493 10.973-11.493 18.973v9.081h-13.394c-7.8 0-14.145 6.345-14.145 14.145v23.915c0 5.597 3.276 10.431 8.005 12.722v52.134c0 9.701 7.893 17.594 17.594 17.594h36.518 26.789 36.518c9.701 0 17.594-7.893 17.594-17.594v-18.183h104.217v32.222c-9.629 3.252-16.171 12.61-15.994 22.757h-172.451c-22.316 0-40.47 18.154-40.47 40.47v217.934h-11.996c-4.141 0-7.497 3.356-7.497 7.497v18.355c0 20.473 16.654 37.127 37.125 37.127h33.849c9.671 0 9.671-14.994 0-14.994h-33.849c-12.203 0-22.13-9.928-22.13-22.13v-10.857h200.926v.105c0 13.446 10.939 24.385 24.385 24.385h31.199c13.446 0 24.385-10.939 24.385-24.385v-.105h200.926v10.857c0 12.203-9.928 22.13-22.13 22.13h-361.728c-9.671 0-9.671 14.994 0 14.994h361.727c20.471 0 37.125-16.654 37.125-37.125v-18.355c0-4.141-3.356-7.497-7.497-7.497zm-69.894-434.029c34.406 0 62.397 27.991 62.397 62.397s-27.991 62.397-62.397 62.397-62.397-27.991-62.397-62.397 27.991-62.397 62.397-62.397zm-297.218 73.122h-.508-39.117v-22.216h20.157 19.468zm-37.079-51.544c2.899-2.021 5.634-.972 6.673-.43 1.035.541 3.44 2.175 3.44 5.682v9.081h-21.225c2.769-6.141 6.503-11.123 11.112-14.333zm-56.415 5.253c0-3.507 2.405-5.142 3.44-5.682 1.041-.543 3.774-1.588 6.672.429 4.61 3.211 8.344 8.193 11.113 14.335h-21.225zm-27.539 24.075h20.042 19.583v22.215h-39.118-.508v-22.215zm54.619 90.522v-24.281c0-9.671-14.994-9.671-14.994 0v24.281h-29.021c-1.433 0-2.6-1.167-2.6-2.6v-50.712h38.553c4.142 0 8.061-3.8 8.061-7.956v-29.254h11.794v90.521h-11.793zm58.409-2.6c0 1.433-1.167 2.6-2.6 2.6h-29.02v-53.312h31.62zm348.127 77.267v217.434h-14.994v-63.477c0-9.671-14.994-9.671-14.994 0v63.477h-158.942-64.976-158.941v-210.09h37.814c-7.507 11.809-11.543 25.533-11.543 39.8 0 18.079 6.493 34.665 17.262 47.564v52.721c0 19.861 16.158 36.018 36.019 36.018 14.114 0 26.994-8.308 32.843-21.234l21.429-48.606c9.675-4.842 18.3-11.782 25.149-20.457h64.913c6.849 8.675 15.474 15.615 25.149 20.457l21.457 48.673c5.82 12.859 18.7 21.167 32.815 21.167 19.861 0 36.018-16.157 36.018-36.018v-52.721c10.769-12.9 17.262-29.486 17.262-47.564 0-14.635-4.268-28.283-11.6-39.8h37.871v105.626c0 9.671 14.994 9.671 14.994 0v-113.123c0-4.141-3.356-7.497-7.497-7.497h-57.93c-9.51-8.715-21.289-14.982-34.335-17.825h89.282c14.047-.001 25.475 11.428 25.475 25.475zm-312.242 121.479c4.723 0 9.39-.459 13.95-1.335l-15.851 35.953c-3.397 7.506-10.915 12.356-19.154 12.356-11.592 0-21.023-9.431-21.023-21.023v-39.051c11.974 8.253 26.468 13.1 42.078 13.1zm167.698-1.335c4.56.876 9.227 1.335 13.95 1.335 15.61 0 30.105-4.847 42.078-13.101v39.051c0 11.592-9.431 21.023-21.024 21.023-8.238 0-15.756-4.85-19.124-12.288zm-1.754-145.62c-13.602 2.963-26.255 9.698-36.303 19.531h-15.325v-19.531zm-83.617-15.494c0-4.685 3.812-8.497 8.497-8.497s8.497 3.812 8.497 8.497v34.487h-16.994zm-14.994 35.025h-15.325c-10.048-9.833-22.701-16.568-36.303-19.531h51.628zm-197.927 5.945c0-14.048 11.428-25.476 25.476-25.476h89.189c-.672.147-1.343.3-2.01.466-4.019.996-6.469 5.062-5.473 9.081.995 4.018 5.058 6.467 9.081 5.473 4.657-1.154 9.48-1.74 14.332-1.74 16.612 0 32.016 6.7 43.373 18.865 1.418 1.519 3.403 2.381 5.48 2.381h83.942c2.077 0 4.062-.862 5.48-2.381 11.357-12.165 26.761-18.865 43.373-18.865 32.289 0 59.34 27.051 59.34 59.34 0 32.72-26.62 59.34-59.34 59.34-19.234 0-37.361-9.405-48.489-25.157-1.406-1.99-3.689-3.172-6.124-3.172h-72.422c-2.435 0-4.718 1.182-6.124 3.172-11.128 15.752-29.255 25.157-48.489 25.157-32.279 0-59.34-27.048-59.34-59.34 0-15.325 5.824-29.87 16.398-40.955 4.467-4.679 4.148-13.84-4.183-13.84h-60.978c-4.141 0-7.497 3.356-7.497 7.497v217.587h-14.995zm246.409 233.034c0 5.178-4.213 9.391-9.391 9.391h-31.2c-5.178 0-9.391-4.213-9.391-9.391v-.105h49.982z"/><path d="m142.159 285.73h15.52v15.52c0 9.671 14.994 9.671 14.994 0v-15.52h15.52c9.671 0 9.671-14.994 0-14.994h-15.52v-15.52c0-9.671-14.994-9.671-14.994 0v15.52h-15.52c-9.671 0-9.671 14.994 0 14.994z"/><path d="m323.807 285.73h15.52v15.52c0 9.671 14.994 9.671 14.994 0v-15.52h15.52c9.671 0 9.671-14.994 0-14.994h-15.52v-15.52c0-9.671-14.994-9.671-14.994 0v15.52h-15.52c-9.671 0-9.671 14.994 0 14.994z"/><path d="m248.373 270.238h15.254c4.141 0 7.497-3.356 7.497-7.497s-3.356-7.497-7.497-7.497h-15.254c-4.141 0-7.497 3.356-7.497 7.497s3.356 7.497 7.497 7.497z"/><path d="m248.373 295.957h15.254c4.141 0 7.497-3.356 7.497-7.497s-3.356-7.497-7.497-7.497h-15.254c-4.141 0-7.497 3.356-7.497 7.497s3.356 7.497 7.497 7.497z"/></svg>
