<svg width="30" height="48" viewBox="0 0 30 48" fill="none" xmlns="http://www.w3.org/2000/svg">
<path d="M28.4323 19.3209L26.8001 18.6614V3.8759C26.8001 1.7387 25.0057 0 22.8001 0H3.9913C1.7895 0.0044 0 1.7415 0 3.8759C0 3.8759 0.000199725 44.1746 0.000499725 44.1837C0.0335997 46.2934 1.815 48 4 48H22.8C25.0056 48 26.8 46.2613 26.8 44.1241V34.2935C26.8 33.8517 26.4418 33.4935 26 33.4935C25.5582 33.4935 25.2 33.8517 25.2 34.2935V44.1241C25.2 45.379 24.1233 46.4 22.8 46.4H4C2.6767 46.4 1.6 45.3791 1.6 44.1241V3.8759C1.6 2.621 2.6767 1.6 4 1.6H19.371L18.6363 2.8712C18.4263 3.2346 18.0217 3.4604 17.5806 3.4604H9.2195C8.7777 3.4604 8.4195 3.8186 8.4195 4.2604C8.4195 4.7022 8.7777 5.0604 9.2195 5.0604H17.5806C18.5912 5.0604 19.5266 4.5284 20.0216 3.6719L21.2191 1.6H22.8C24.1233 1.6 25.2 2.6209 25.2 3.8759V18.0149L19.8353 15.8472C19.1677 15.5775 18.4324 15.5775 17.7648 15.8472L9.1678 19.3209C7.4801 20.0028 7.4793 22.3979 9.1678 23.08L10.8 23.7395V29.0852C10.8 29.9689 11.2811 30.7774 12.0555 31.1954C16.2566 33.4626 21.3063 33.4708 25.5356 31.1993C26.3156 30.7805 26.8001 29.9702 26.8001 29.0847V27.0548C26.8001 26.613 26.4419 26.2548 26.0001 26.2548C25.5583 26.2548 25.2001 26.613 25.2001 27.0548V29.0847C25.2001 29.3799 25.0386 29.65 24.7786 29.7897C20.999 31.8197 16.5197 31.7865 12.8155 29.7874C12.5592 29.6491 12.4001 29.3801 12.4001 29.0853C12.4001 22.7913 12.4056 23.1714 12.3885 23.069C12.3525 22.8512 12.2346 22.6707 12.0649 22.5497C11.9525 22.469 12.0405 22.515 9.7673 21.5966C9.411 21.4526 9.4089 20.9492 9.7673 20.8045L18.3643 17.3308C18.6454 17.2172 18.9549 17.2172 19.236 17.3308L27.833 20.8045C28.1894 20.9484 28.1914 21.4518 27.833 21.5966L19.2359 25.0703C18.955 25.1839 18.6454 25.1838 18.3643 25.0703L15.6548 23.9755C15.245 23.81 14.7788 24.0079 14.6134 24.4175C14.4479 24.8272 14.6457 25.2934 15.0554 25.459L17.7648 26.5537C18.4323 26.8235 19.1676 26.8236 19.8354 26.5537L28.4324 23.08C30.12 22.3982 30.1207 20.0031 28.4323 19.3209Z" fill="#24EBA3"/>
</svg>
