<svg width="58" height="48" viewBox="0 0 58 48" fill="none" xmlns="http://www.w3.org/2000/svg">
<path fill-rule="evenodd" clip-rule="evenodd" d="M45.4153 0.0504765L56.9443 3.89028C57.1338 3.95641 57.2983 4.07954 57.4152 4.2428C57.532 4.40606 57.5956 4.60146 57.597 4.80223V11.9347C57.5997 15.7822 56.2393 19.5062 53.7572 22.4461V43.2002C53.7572 44.4732 53.2515 45.6941 52.3514 46.5942C51.4513 47.4943 50.2304 48 48.9575 48H4.79975C3.52678 48 2.30594 47.4943 1.40581 46.5942C0.505687 45.6941 0 44.4732 0 43.2002V18.2415C0 16.9686 0.505687 15.7477 1.40581 14.8476C2.30594 13.9475 3.52678 13.4418 4.79975 13.4418H32.7151C32.6671 12.9426 32.6383 12.4434 32.6383 11.9443V4.80223C32.6398 4.60146 32.7033 4.40606 32.8202 4.2428C32.937 4.07954 33.1015 3.95641 33.2911 3.89028L44.8009 0.0504765C45.0001 -0.0168255 45.216 -0.0168255 45.4153 0.0504765ZM51.8373 43.2002V27.841V24.3756C51.3556 24.7829 50.8525 25.1642 50.3302 25.518L45.6456 28.6378C45.4856 28.7421 45.2991 28.7987 45.1081 28.801C44.9198 28.8 44.7361 28.7432 44.5801 28.6378L39.9051 25.518C36.3682 23.162 33.8915 19.5176 33.0031 15.3617H4.79975C4.03667 15.364 3.30549 15.6681 2.76591 16.2077C2.22632 16.7473 1.92218 17.4785 1.9199 18.2415V43.2002C1.92218 43.9633 2.22632 44.6945 2.76591 45.2341C3.30549 45.7737 4.03667 46.0778 4.79975 46.0801H48.9575C49.7206 46.0778 50.4517 45.7737 50.9913 45.2341C51.5309 44.6945 51.835 43.9633 51.8373 43.2002ZM53.9762 18.7347C55.095 16.6428 55.6793 14.3069 55.6771 11.9347V5.49339L45.1081 1.97038L34.5582 5.49339V11.9443C34.5573 14.3138 35.1412 16.647 36.2582 18.7368C37.3751 20.8267 38.9905 22.6085 40.9611 23.9244L45.1081 26.6891L49.2647 23.9244C51.2389 22.6093 52.8575 20.8265 53.9762 18.7347ZM37.4381 13.4419C37.4381 14.9607 37.8885 16.4455 38.7323 17.7084C39.5762 18.9713 40.7755 19.9556 42.1788 20.5369C43.5821 21.1181 45.1262 21.2702 46.6159 20.9739C48.1056 20.6776 49.474 19.9462 50.548 18.8722C51.622 17.7981 52.3534 16.4298 52.6497 14.9401C52.946 13.4504 52.7939 11.9063 52.2127 10.503C51.6314 9.09973 50.6471 7.90034 49.3842 7.0565C48.1213 6.21265 46.6366 5.76225 45.1177 5.76225C43.0816 5.76454 41.1296 6.57437 39.6899 8.01408C38.2502 9.45379 37.4403 11.4058 37.4381 13.4419ZM45.1177 7.68215C46.2568 7.68215 47.3704 8.01995 48.3176 8.65284C49.2648 9.28572 50.003 10.1853 50.4389 11.2377C50.8749 12.2902 50.9889 13.4482 50.7667 14.5655C50.5445 15.6828 49.9959 16.7091 49.1904 17.5146C48.3849 18.3201 47.3586 18.8686 46.2413 19.0909C45.1241 19.3131 43.966 19.1991 42.9135 18.7631C41.8611 18.3272 40.9615 17.589 40.3286 16.6418C39.6958 15.6946 39.358 14.581 39.358 13.4419C39.3595 11.9148 39.9668 10.4506 41.0466 9.37082C42.1264 8.29099 43.5906 7.68368 45.1177 7.68215ZM43.479 16.0404C43.659 16.2204 43.9031 16.3215 44.1577 16.3215C44.4122 16.3215 44.6563 16.2204 44.8364 16.0404L48.3469 12.5299C48.5218 12.3489 48.6185 12.1064 48.6163 11.8547C48.6141 11.603 48.5132 11.3622 48.3352 11.1842C48.1572 11.0062 47.9165 10.9053 47.6648 10.9031C47.4131 10.9009 47.1706 10.9977 46.9895 11.1725L44.1577 14.0044L43.0816 12.9273C42.993 12.8356 42.8871 12.7625 42.77 12.7122C42.6529 12.6619 42.5269 12.6354 42.3994 12.6343C42.272 12.6332 42.1456 12.6575 42.0276 12.7057C41.9096 12.754 41.8024 12.8253 41.7123 12.9154C41.6222 13.0056 41.5509 13.1127 41.5026 13.2307C41.4544 13.3487 41.4301 13.4751 41.4312 13.6026C41.4323 13.73 41.4588 13.856 41.5091 13.9731C41.5594 14.0902 41.6325 14.1961 41.7242 14.2847L43.479 16.0404ZM19.199 22.0814V25.9212C19.199 26.685 18.8956 27.4175 18.3555 27.9576C17.8154 28.4976 17.0829 28.8011 16.3192 28.8011H8.63955C7.87577 28.8011 7.14327 28.4976 6.60319 27.9576C6.06311 27.4175 5.7597 26.685 5.7597 25.9212V22.0814C5.7597 21.3176 6.06311 20.5851 6.60319 20.045C7.14327 19.505 7.87577 19.2016 8.63955 19.2016H16.3192C17.0829 19.2016 17.8154 19.505 18.3555 20.045C18.8956 20.5851 19.199 21.3176 19.199 22.0814ZM17.2791 23.0414V22.0814C17.2791 21.8268 17.178 21.5826 16.9979 21.4026C16.8179 21.2226 16.5737 21.1215 16.3192 21.1215H13.4393V23.0414H17.2791ZM7.6796 22.0814V25.9212C7.6796 26.1758 7.78074 26.42 7.96077 26.6C8.14079 26.78 8.38496 26.8812 8.63955 26.8812H11.5242V21.1215H8.63955C8.38496 21.1215 8.14079 21.2226 7.96077 21.4026C7.78074 21.5826 7.6796 21.8268 7.6796 22.0814ZM13.4393 26.8812H16.3192C16.5737 26.8812 16.8179 26.78 16.9979 26.6C17.178 26.42 17.2791 26.1758 17.2791 25.9212V24.9613H13.4393V26.8812ZM25.9187 21.1215C25.6641 21.1215 25.4199 21.2226 25.2399 21.4026C25.0598 21.5826 24.9587 21.8268 24.9587 22.0814V24.9613C24.9587 25.2159 25.0598 25.46 25.2399 25.64C25.4199 25.8201 25.6641 25.9212 25.9187 25.9212C26.1733 25.9212 26.4174 25.8201 26.5974 25.64C26.7775 25.46 26.8786 25.2159 26.8786 24.9613V22.0814C26.8786 21.8268 26.7775 21.5826 26.5974 21.4026C26.4174 21.2226 26.1733 21.1215 25.9187 21.1215ZM30.4372 25.64C30.2572 25.8201 30.0131 25.9212 29.7585 25.9212C29.5039 25.9212 29.2597 25.8201 29.0797 25.64C28.8996 25.46 28.7985 25.2159 28.7985 24.9613V22.0814C28.7985 21.8268 28.8996 21.5826 29.0797 21.4026C29.2597 21.2226 29.5039 21.1215 29.7585 21.1215C30.0131 21.1215 30.2572 21.2226 30.4372 21.4026C30.6173 21.5826 30.7184 21.8268 30.7184 22.0814V24.9613C30.7184 25.2159 30.6173 25.46 30.4372 25.64ZM33.5983 25.9212C33.8529 25.9212 34.097 25.8201 34.2771 25.64C34.4571 25.46 34.5582 25.2159 34.5582 24.9613V22.0814C34.5582 21.8268 34.4571 21.5826 34.2771 21.4026C34.097 21.2226 33.8529 21.1215 33.5983 21.1215C33.3437 21.1215 33.0995 21.2226 32.9195 21.4026C32.7394 21.5826 32.6383 21.8268 32.6383 22.0814V24.9613C32.6383 25.2159 32.7394 25.46 32.9195 25.64C33.0995 25.8201 33.3437 25.9212 33.5983 25.9212ZM29.0797 36.7618C29.2597 36.5818 29.5039 36.4807 29.7585 36.4807H35.5182C35.7728 36.4807 36.0169 36.5818 36.1969 36.7618C36.377 36.9419 36.4781 37.186 36.4781 37.4406V41.2804C36.4781 41.535 36.377 41.7792 36.1969 41.9592C36.0169 42.1392 35.7728 42.2404 35.5182 42.2404H29.7585C29.5039 42.2404 29.2597 42.1392 29.0797 41.9592C28.8996 41.7792 28.7985 41.535 28.7985 41.2804V37.4406C28.7985 37.186 28.8996 36.9419 29.0797 36.7618ZM30.7184 38.4006V40.3205H34.5582V38.4006H30.7184ZM12.4794 36.4807H6.71965C6.46506 36.4807 6.22089 36.5818 6.04087 36.7618C5.86084 36.9419 5.7597 37.186 5.7597 37.4406V41.2804C5.7597 41.535 5.86084 41.7792 6.04087 41.9592C6.22089 42.1392 6.46506 42.2404 6.71965 42.2404H12.4794C12.7339 42.2404 12.9781 42.1392 13.1581 41.9592C13.3382 41.7792 13.4393 41.535 13.4393 41.2804V37.4406C13.4393 37.186 13.3382 36.9419 13.1581 36.7618C12.9781 36.5818 12.7339 36.4807 12.4794 36.4807ZM11.5194 40.3205H7.6796V38.4006H11.5194V40.3205ZM18.2391 36.4807H23.9988C24.2534 36.4807 24.4975 36.5818 24.6775 36.7618C24.8576 36.9419 24.9587 37.186 24.9587 37.4406V41.2804C24.9587 41.535 24.8576 41.7792 24.6775 41.9592C24.4975 42.1392 24.2534 42.2404 23.9988 42.2404H18.2391C17.9845 42.2404 17.7403 42.1392 17.5603 41.9592C17.3802 41.7792 17.2791 41.535 17.2791 41.2804V37.4406C17.2791 37.186 17.3802 36.9419 17.5603 36.7618C17.7403 36.5818 17.9845 36.4807 18.2391 36.4807ZM19.199 40.3205H23.0388V38.4006H19.199V40.3205ZM47.0376 36.4807H41.2779C41.0233 36.4807 40.7791 36.5818 40.5991 36.7618C40.419 36.9419 40.3179 37.186 40.3179 37.4406V41.2804C40.3179 41.535 40.419 41.7792 40.5991 41.9592C40.7791 42.1392 41.0233 42.2404 41.2779 42.2404H47.0376C47.2922 42.2404 47.5363 42.1392 47.7164 41.9592C47.8964 41.7792 47.9975 41.535 47.9975 41.2804V37.4406C47.9975 37.186 47.8964 36.9419 47.7164 36.7618C47.5363 36.5818 47.2922 36.4807 47.0376 36.4807ZM46.0776 40.3205H42.2378V38.4006H46.0776V40.3205Z" fill="#24EBA3"/>
</svg>
