<svg width="58" height="48" viewBox="0 0 58 48" fill="none" xmlns="http://www.w3.org/2000/svg">
<path fill-rule="evenodd" clip-rule="evenodd" d="M27.1427 31.0215L0.877895 28.7236L0.877295 28.7235C0.623397 28.7012 0.388726 28.5791 0.224905 28.3838C0.0610853 28.1886 -0.0184646 27.9362 0.00375573 27.6823L0.338781 23.853C0.36125 23.5992 0.483491 23.3647 0.678677 23.201C0.873863 23.0372 1.12605 22.9575 1.37989 22.9795L2.33716 23.0636L2.50473 21.1491L1.54734 21.065C1.29345 21.0428 1.05878 20.9206 0.894955 20.7253C0.731135 20.5301 0.651585 20.2778 0.673805 20.0239L1.00883 16.1946C1.03139 15.9408 1.15365 15.7063 1.34881 15.5426C1.54397 15.3788 1.79611 15.2991 2.04994 15.3209L3.00721 15.405L3.17538 13.4905L2.21811 13.4064C2.09239 13.3954 1.97005 13.3597 1.8581 13.3015C1.74615 13.2432 1.64678 13.1634 1.56565 13.0668C1.48452 12.9701 1.42323 12.8584 1.38528 12.738C1.34733 12.6177 1.33345 12.491 1.34446 12.3653L1.67948 8.53608C1.69047 8.41035 1.72612 8.28802 1.78438 8.17607C1.84265 8.06412 1.9224 7.96474 2.01908 7.88361C2.11576 7.80248 2.22747 7.74119 2.34784 7.70324C2.4682 7.66529 2.59487 7.65142 2.72059 7.66242L4.63524 7.82987L4.8027 5.9151L2.88804 5.74765C2.63415 5.72543 2.39947 5.60325 2.23565 5.40801C2.07183 5.21276 1.99228 4.96044 2.01451 4.70654L2.34989 0.877236C2.36088 0.751508 2.39653 0.629176 2.45479 0.517225C2.51306 0.405274 2.59281 0.305897 2.68949 0.224769C2.78617 0.143641 2.89788 0.0823513 3.01825 0.0443989C3.13861 0.00644652 3.26528 -0.0074248 3.391 0.00357703L16.7936 1.17586C17.0475 1.19809 17.2821 1.32026 17.4459 1.5155C17.6098 1.71075 17.6893 1.96308 17.6671 2.21697L17.4158 5.08889L19.3304 5.25706C19.4562 5.26805 19.5785 5.3037 19.6905 5.36197C19.8024 5.42024 19.9018 5.49999 19.9829 5.59667C20.064 5.69334 20.1253 5.80505 20.1633 5.92542C20.2012 6.04579 20.2151 6.17245 20.2041 6.29818L19.8691 10.1275C19.8481 10.3669 19.7381 10.5897 19.5609 10.752C19.3837 10.9143 19.1521 11.0044 18.9118 11.0044C18.884 11.0044 18.8562 11.0033 18.8285 11.0008C19.8848 11.0939 20.9176 11.4052 21.859 11.9231C23.3724 12.7557 24.5612 14.0738 25.2338 15.6648C25.9063 17.2558 26.0234 19.027 25.5661 20.6926C25.1088 22.3583 24.1038 23.8214 22.7131 24.846L33.3996 25.7809L46.7416 8.10772C46.8416 7.97522 46.9742 7.87088 47.1265 7.80488C47.2788 7.73887 47.4457 7.71345 47.6107 7.73109C47.7758 7.74872 47.9335 7.80882 48.0684 7.90552C48.2033 8.00222 48.3109 8.13222 48.3807 8.28286L57.6939 28.3918H57.693C57.7638 28.5439 57.7935 28.7119 57.7793 28.879L57.4442 32.7083C57.4232 32.9475 57.3134 33.1702 57.1364 33.3325C56.9594 33.4948 56.7281 33.585 56.4879 33.5852C56.4598 33.5852 56.4316 33.5839 56.4031 33.5815L30.9489 31.3545L39.4032 46.5723C39.4845 46.7185 39.5261 46.8835 39.5241 47.0508C39.522 47.2182 39.4763 47.3821 39.3914 47.5263C39.3066 47.6705 39.1855 47.7901 39.0402 47.8732C38.895 47.9562 38.7305 47.9999 38.5632 47.9999H19.3434C19.1761 47.9999 19.0116 47.9562 18.8664 47.8732C18.7211 47.7901 18.6001 47.6705 18.5152 47.5263C18.4303 47.3821 18.3846 47.2182 18.3825 47.0508C18.3805 46.8835 18.4221 46.7185 18.5034 46.5723L27.1427 31.0215ZM16.8919 11.0755C17.5334 10.9687 18.1814 10.9445 18.8209 11.0002L16.9131 10.8333L16.8919 11.0755ZM20.9771 46.078H36.9295L28.9533 31.7199L20.9771 46.078ZM55.252 27.6928L47.3095 10.5447L35.6586 25.9785L55.252 27.6928ZM18.6602 12.9155C18.4898 12.9007 18.3209 12.8933 18.1535 12.8933L18.1541 12.8936C16.6685 12.8941 15.2404 13.4679 14.1676 14.4955C13.0947 15.5232 12.4599 16.9252 12.3955 18.4094C12.331 19.8936 12.842 21.3454 13.8217 22.4621C14.8014 23.5788 16.1744 24.2743 17.6544 24.4036H17.6574C17.8261 24.4183 17.9949 24.4257 18.1619 24.4257C19.6476 24.4252 21.0758 23.8512 22.1486 22.8234C23.2215 21.7957 23.8562 20.3934 23.9204 18.9091C23.9847 17.4248 23.4735 15.973 22.4935 14.8563C21.5135 13.7397 20.1403 13.0444 18.6602 12.9155ZM12.5975 23.9612C12.0223 23.3572 11.5485 22.6642 11.1944 21.9091L4.41998 21.3158L4.25253 23.2304L12.5975 23.9612ZM4.92258 15.5723L10.9089 16.0961V16.0959C11.1421 15.4401 11.4637 14.8191 11.865 14.2504L5.09003 13.6577L4.92258 15.5723ZM18.205 7.08787L16.2905 6.9203L16.2911 6.92018L6.71783 6.08267L6.55025 7.99732L16.1241 8.83483L18.0376 9.0024L18.205 7.08787ZM4.18009 2.00255L4.01252 3.91721L15.5005 4.92228L15.668 3.00763L4.18009 2.00255ZM14.9981 10.6662L3.51004 9.66128L3.34295 11.5753L13.6022 12.4735C14.0108 12.1722 14.4482 11.912 14.9079 11.6965L14.9981 10.6662ZM10.4986 17.9899L2.83999 17.3199L2.6735 19.2341L10.5744 19.9254C10.4676 19.286 10.4421 18.6357 10.4986 17.9899ZM55.7811 29.6689L2.16995 24.9786L2.00285 26.8927L55.6129 31.5835L55.7811 29.6689ZM16.9897 21.8205C16.9518 21.7002 16.9379 21.5735 16.9489 21.4478L16.9495 21.4475C16.8235 21.4369 16.7009 21.4015 16.5886 21.3433C16.4763 21.2852 16.3766 21.2055 16.2952 21.1087C16.2138 21.012 16.1523 20.9001 16.1142 20.7796C16.076 20.659 16.0621 20.5321 16.0731 20.4062C16.0842 20.2802 16.1199 20.1577 16.1784 20.0456C16.2369 19.9335 16.3169 19.834 16.4139 19.7529C16.5108 19.6717 16.6229 19.6105 16.7436 19.5728C16.8642 19.535 16.9912 19.5215 17.1171 19.5329L18.07 19.6166C17.6502 19.5792 17.2544 19.4048 16.9435 19.1202C16.6314 18.8346 16.4225 18.4539 16.3489 18.0374C16.2754 17.6208 16.3415 17.1916 16.5369 16.8165C16.7323 16.4413 17.0461 16.1411 17.4295 15.9626L17.4521 15.7039C17.4626 15.5778 17.4979 15.455 17.5559 15.3425C17.614 15.2301 17.6937 15.1302 17.7904 15.0486C17.8872 14.9671 17.9991 14.9054 18.1198 14.8672C18.2404 14.829 18.3675 14.8151 18.4935 14.8261C18.6196 14.8371 18.7423 14.8729 18.8545 14.9315C18.9667 14.99 19.0662 15.0702 19.1473 15.1673C19.2285 15.2644 19.2896 15.3766 19.3273 15.4975C19.3649 15.6183 19.3783 15.7454 19.3668 15.8714C19.6207 15.8937 19.8553 16.0159 20.0191 16.2113C20.1829 16.4066 20.2624 16.6589 20.2401 16.9129C20.2178 17.1668 20.0955 17.4014 19.9002 17.5652C19.7049 17.729 19.4525 17.8085 19.1986 17.7862L18.2437 17.7023C18.6216 17.7357 18.9812 17.8803 19.2772 18.1177C19.5737 18.3557 19.7931 18.6763 19.9074 19.0389C20.0217 19.4016 20.0259 19.79 19.9194 20.155C19.8129 20.52 19.6006 20.8453 19.3092 21.0896C19.1805 21.1977 19.0382 21.2886 18.886 21.36L18.8637 21.6156C18.8427 21.8548 18.7329 22.0775 18.5559 22.2398C18.3789 22.4021 18.1475 22.4922 17.9074 22.4925C17.8793 22.4925 17.851 22.4913 17.8226 22.4889C17.6968 22.4779 17.5745 22.4422 17.4626 22.384C17.3506 22.3257 17.2512 22.246 17.1701 22.1493C17.089 22.0526 17.0277 21.9409 16.9897 21.8205ZM46.3389 16.3018C46.085 16.2798 45.8328 16.3594 45.6376 16.5232C45.4424 16.687 45.3201 16.9216 45.2978 17.1755L44.9627 21.0048C44.9517 21.1305 44.9656 21.2571 45.0036 21.3775C45.0415 21.4979 45.1028 21.6096 45.1839 21.7063C45.2651 21.8029 45.3644 21.8827 45.4764 21.941C45.5883 21.9992 45.7107 22.0349 45.8364 22.0459C45.8649 22.0483 45.8932 22.0495 45.9212 22.0495C46.1614 22.0492 46.3927 21.9591 46.5697 21.7968C46.7467 21.6345 46.8565 21.4118 46.8775 21.1726L47.2125 17.3433C47.2236 17.2175 47.2098 17.0908 47.1718 16.9704C47.1339 16.85 47.0726 16.7382 46.9915 16.6415C46.9104 16.5448 46.811 16.465 46.699 16.4067C46.587 16.3484 46.4646 16.3128 46.3389 16.3018ZM45.1229 24.0754C45.2895 23.9839 45.4795 23.944 45.6688 23.9605C45.9227 23.9827 46.1574 24.1049 46.3213 24.3001C46.4851 24.4953 46.5647 24.7476 46.5425 25.0015C46.526 25.1909 46.4536 25.371 46.3347 25.5193C46.2157 25.6675 46.0555 25.7772 45.8742 25.8343C45.693 25.8915 45.4988 25.8936 45.3163 25.8405C45.1339 25.7873 44.9712 25.6812 44.8491 25.5356C44.7269 25.39 44.6506 25.2115 44.6299 25.0226C44.6092 24.8336 44.645 24.6428 44.7327 24.4742C44.8205 24.3056 44.9562 24.1668 45.1229 24.0754Z" fill="#24EBA3"/>
</svg>
