<svg width="48" height="49" viewBox="0 0 48 49" fill="none" xmlns="http://www.w3.org/2000/svg">
<path fill-rule="evenodd" clip-rule="evenodd" d="M35.6129 0.794945V23.2466C42.4428 23.2466 48 28.8037 48 35.6337C48 42.4636 42.4428 48.0208 35.6129 48.0208C34.5097 48.0208 33.4452 47.862 32.4271 47.5903C32.2994 47.8427 32.0446 48.0208 31.7419 48.0208H0.774194C0.346839 48.0208 0 47.6739 0 47.2466V3.89172C0 3.46436 0.346839 3.11753 0.774194 3.11753H3.09677V0.794945C3.09677 0.367591 3.44361 0.020752 3.87097 0.020752H34.8387C35.2661 0.020752 35.6129 0.367591 35.6129 0.794945ZM34.0645 1.56914H4.64516V3.11753H25.5484C25.7621 3.11753 25.9556 3.20424 26.0965 3.34514L32.2893 9.53791C32.4294 9.67804 32.5161 9.87159 32.5161 10.0853V23.6546C33.0217 23.5237 33.5365 23.4208 34.0645 23.3542V1.56914ZM29.873 9.31107L26.3226 5.76062V9.31107H29.873ZM1.54839 4.66591V46.4724H29.6292C25.8155 44.358 23.2258 40.2943 23.2258 35.6337C23.2258 30.4466 26.4341 26.0004 30.9677 24.1586V10.8595H25.5484C25.121 10.8595 24.7742 10.5126 24.7742 10.0853V4.66591H1.54839ZM24.7742 35.6337C24.7742 41.6104 29.6361 46.4724 35.6129 46.4724C41.5897 46.4724 46.4516 41.6104 46.4516 35.6337C46.4516 29.6569 41.5897 24.7949 35.6129 24.7949C29.6361 24.7949 24.7742 29.6569 24.7742 35.6337ZM23.3683 22.4724C23.6888 23.3712 24.5404 24.0208 25.5484 24.0208C26.8289 24.0208 27.871 22.9787 27.871 21.6982C27.871 20.4177 26.8289 19.3756 25.5484 19.3756C24.5404 19.3756 23.6888 20.0251 23.3683 20.924H22.0808C22.8085 19.5328 23.2258 17.9549 23.2258 16.2788L23.2257 16.274L23.225 16.2629L23.2245 16.2549L23.2243 16.2471H24.9074C25.2186 17.1629 26.0772 17.8272 27.0968 17.8272C28.3773 17.8272 29.4194 16.7851 29.4194 15.5046C29.4194 14.2241 28.3773 13.182 27.0968 13.182C26.1004 13.182 25.2557 13.8161 24.9267 14.6987H23.0895C22.3277 9.89869 18.1726 6.2143 13.1613 6.2143C7.61187 6.2143 3.09677 10.7294 3.09677 16.2788C3.09677 19.8324 4.95329 22.9547 7.74194 24.7462V27.26C6.8431 27.5805 6.19355 28.4321 6.19355 29.4401C6.19355 30.7206 7.23561 31.7627 8.51613 31.7627C9.79665 31.7627 10.8387 30.7206 10.8387 29.4401C10.8387 28.4321 10.1892 27.5805 9.29032 27.26V25.5668C10.2557 25.9702 11.2978 26.2202 12.3871 26.3039V31.1309C11.4883 31.4515 10.8387 32.3031 10.8387 33.3111C10.8387 34.5916 11.8808 35.6337 13.1613 35.6337C14.4418 35.6337 15.4839 34.5916 15.4839 33.3111C15.4839 32.3031 14.8343 31.4515 13.9355 31.1309V26.3039C16.8317 26.0817 19.3843 24.6324 21.0782 22.4724H23.3683ZM25.5484 20.924C25.975 20.924 26.3226 21.2716 26.3226 21.6982C26.3226 22.1248 25.975 22.4724 25.5484 22.4724C25.1218 22.4724 24.7742 22.1248 24.7742 21.6982C24.7742 21.2716 25.1218 20.924 25.5484 20.924ZM27.0968 14.7304C27.5234 14.7304 27.871 15.078 27.871 15.5046C27.871 15.9312 27.5234 16.2788 27.0968 16.2788C26.6702 16.2788 26.3226 15.9312 26.3226 15.5046C26.3226 15.078 26.6702 14.7304 27.0968 14.7304ZM8.51613 30.2143C8.08955 30.2143 7.74194 29.8667 7.74194 29.4401C7.74194 29.0135 8.08955 28.6659 8.51613 28.6659C8.94271 28.6659 9.29032 29.0135 9.29032 29.4401C9.29032 29.8667 8.94271 30.2143 8.51613 30.2143ZM13.1613 34.0853C12.7347 34.0853 12.3871 33.7377 12.3871 33.3111C12.3871 32.8845 12.7347 32.5369 13.1613 32.5369C13.5879 32.5369 13.9355 32.8845 13.9355 33.3111C13.9355 33.7377 13.5879 34.0853 13.1613 34.0853ZM13.1613 24.7949C8.46581 24.7949 4.64516 20.9743 4.64516 16.2788C4.64516 11.5833 8.46581 7.76269 13.1613 7.76269C17.8568 7.76269 21.6774 11.5833 21.6774 16.2788C21.6774 20.9743 17.8568 24.7949 13.1613 24.7949ZM19.3548 43.3756H3.09677V44.924H19.3548V43.3756ZM3.09677 40.2788H19.3548V41.8272H3.09677V40.2788ZM19.3548 37.182H3.09677V38.7304H19.3548V37.182ZM27.871 35.6337H26.3226C26.3226 40.7565 30.4901 44.924 35.6129 44.924V43.3756C31.344 43.3756 27.871 39.9026 27.871 35.6337ZM35.6129 27.8917V26.3433C40.7357 26.3433 44.9032 30.5108 44.9032 35.6337H43.3548C43.3548 31.3648 39.8818 27.8917 35.6129 27.8917ZM41.0323 33.3111C41.0323 31.6032 39.6434 30.2143 37.9355 30.2143V28.6659H36.3871V30.2143H35.6129V28.6659H34.0645V30.2143H30.9677V31.7627H32.5161V34.8595V36.4078V39.5046H30.9677V41.053H34.0645V42.6014H35.6129V41.053H36.3871V42.6014H37.9355V41.053C39.6434 41.053 41.0323 39.6641 41.0323 37.9562C41.0323 37.0272 40.6126 36.2019 39.9623 35.6337C40.6126 35.0654 41.0323 34.2401 41.0323 33.3111ZM39.4839 37.9562C39.4839 38.8102 38.7894 39.5046 37.9355 39.5046H34.0645V36.4078H37.9355C38.7894 36.4078 39.4839 37.1023 39.4839 37.9562ZM34.0645 34.8595V31.7627H37.9355C38.7894 31.7627 39.4839 32.4571 39.4839 33.3111C39.4839 34.165 38.7894 34.8595 37.9355 34.8595H34.0645ZM9.83765 17.2799L12.1749 19.6171L16.3393 11.2868L17.7244 11.9797L13.0792 21.27C12.9677 21.493 12.7564 21.6479 12.5109 21.6881C12.4699 21.6951 12.4281 21.6982 12.3871 21.6982C12.1835 21.6982 11.986 21.6177 11.8397 21.4713L8.74294 18.3746L9.83765 17.2799Z" fill="#24EBA3"/>
</svg>
