<svg width="52" height="48" viewBox="0 0 52 48" fill="none" xmlns="http://www.w3.org/2000/svg">
<path fill-rule="evenodd" clip-rule="evenodd" d="M25.651 6.10014C28.2621 2.31393 32.6052 0 37.2414 0C44.9992 0 51.3103 6.31117 51.3103 14.069C51.3103 17.4074 50.112 20.6491 47.9371 23.1956L46.6783 22.1206C48.5983 19.8737 49.6552 17.0143 49.6552 14.069C49.6552 7.224 44.0863 1.65517 37.2414 1.65517C32.8899 1.65517 28.8323 3.96497 26.5937 7.69324C27.5735 9.60993 28.1379 11.7724 28.1379 14.069C28.1379 16.0966 27.6935 18.0943 26.8568 19.9233C31.3697 20.3073 35.2717 22.829 37.5617 26.4703C40.0378 26.4066 42.4121 25.6188 44.4447 24.1655L45.4072 25.512C43.3316 26.9959 40.9415 27.8723 38.4356 28.0841C39.2549 29.8676 39.7241 31.843 39.7241 33.931C39.7241 37.2695 38.5258 40.5112 36.3509 43.0577L35.0921 41.9826C37.0121 39.7357 38.069 36.8764 38.069 33.931C38.069 27.0861 32.5001 21.5172 25.6552 21.5172C18.8102 21.5172 13.2414 27.0861 13.2414 33.931C13.2414 40.776 18.8102 46.3448 25.6552 46.3448C28.2472 46.3448 30.7382 45.5437 32.8585 44.0276L33.821 45.3741C31.4177 47.0921 28.5939 48 25.6552 48C17.8974 48 11.5862 41.6888 11.5862 33.931C11.5862 31.8406 12.0571 29.8626 12.8781 28.0775C5.67641 27.4701 0 21.4246 0 14.069C0 6.31117 6.31117 0 14.069 0C18.869 0 23.1112 2.41986 25.651 6.10014ZM13.7512 26.467C16.1379 22.6742 20.2759 20.1054 25.0262 19.8943C25.9763 18.1084 26.4828 16.1065 26.4828 14.069C26.4828 7.224 20.9139 1.65517 14.069 1.65517C7.224 1.65517 1.65517 7.224 1.65517 14.069C1.65517 20.8063 7.05352 26.2957 13.7512 26.467ZM22.3448 31.4483C22.3448 32.3611 23.0872 33.1035 24 33.1035H27.3103C29.136 33.1035 30.6207 34.5881 30.6207 36.4138C30.6207 38.2394 29.136 39.7241 27.3103 39.7241H26.4828V41.3793H24.8276V39.7241H24C22.1743 39.7241 20.6897 38.2394 20.6897 36.4138H22.3448C22.3448 37.3266 23.0872 38.069 24 38.069H27.3103C28.2232 38.069 28.9655 37.3266 28.9655 36.4138C28.9655 35.501 28.2232 34.7586 27.3103 34.7586H24C22.1743 34.7586 20.6897 33.2739 20.6897 31.4483C20.6897 29.6226 22.1743 28.1379 24 28.1379H24.8276V26.4828H26.4828V28.1379H27.3103C29.136 28.1379 30.6207 29.6226 30.6207 31.4483H28.9655C28.9655 30.5354 28.2232 29.7931 27.3103 29.7931H24C23.0872 29.7931 22.3448 30.5354 22.3448 31.4483ZM37.2414 19.8621C35.8726 19.8621 34.7586 18.7481 34.7586 17.3793V16.5517H36.4138V14.8966H34.7586V13.2414H36.4138V11.5862H34.7586V10.7586C34.7586 9.38979 35.8726 8.27586 37.2414 8.27586C38.6102 8.27586 39.7241 9.38979 39.7241 10.7586H41.3793C41.3793 8.47697 39.523 6.62069 37.2414 6.62069C34.9597 6.62069 33.1034 8.47697 33.1034 10.7586V11.5862H31.4483V13.2414H33.1034V14.8966H31.4483V16.5517H33.1034V17.3793C33.1034 19.661 34.9597 21.5172 37.2414 21.5172C39.523 21.5172 41.3793 19.661 41.3793 17.3793H39.7241C39.7241 18.7481 38.6102 19.8621 37.2414 19.8621ZM19.6626 7.15945L14.8965 12.72V14.8966H16.5517V16.5517H14.8965V18.2069H16.5517V19.8621H14.8965V20.6897H13.2414V19.8621H11.5862V18.2069H13.2414V16.5517H11.5862V14.8966H13.2414V12.72L8.47528 7.15945L9.73156 6.08193L14.0689 11.1418L18.4063 6.08193L19.6626 7.15945Z" fill="#24EBA3"/>
</svg>
