<svg width="49" height="48" viewBox="0 0 49 48" fill="none" xmlns="http://www.w3.org/2000/svg">
<path d="M2.76887 26.63L3.2009 26.7516V40.5125C3.20324 41.5866 3.91889 42.5283 4.95302 42.8183L22.9207 47.8514C23.6272 48.0495 24.3744 48.0495 25.0809 47.8514L43.0486 42.819C44.083 42.5305 44.7997 41.5903 44.8039 40.5165V26.7556L45.236 26.634C47.251 26.071 48.4281 23.9811 47.8652 21.966C47.7737 21.6385 47.6386 21.3249 47.4634 21.0335L44.6903 16.3932L44.6831 16.398C44.5816 16.2223 44.4167 16.092 44.2223 16.0339L38.4035 14.3787C38.4035 13.9731 38.3874 13.5786 38.3523 13.1466C38.2844 12.5604 37.8994 12.0593 37.3506 11.8426L35.5368 11.1121C35.2828 10.2302 34.9285 9.38031 34.4808 8.57907L35.2536 6.77013C35.4892 6.22756 35.4002 5.59864 35.0232 5.14279C34.7471 4.80433 34.4631 4.50271 34.1767 4.21076C33.8991 3.94111 33.5959 3.65075 33.2758 3.3931C32.8145 3.00767 32.1756 2.91476 31.6237 3.15309L29.8244 3.92198C29.0233 3.4743 28.1734 3.11999 27.2914 2.86591L26.5625 1.06822C26.3438 0.508771 25.8324 0.117243 25.2352 0.0521756C24.4071 -0.0173919 23.5744 -0.0173919 22.7463 0.0521756C22.1599 0.120243 21.6587 0.505583 21.4422 1.05462L20.7109 2.86825C19.8299 3.12168 18.9808 3.47523 18.1803 3.92189L16.3698 3.1498C15.8272 2.91626 15.1996 3.00579 14.744 3.38185C14.4089 3.65543 14.104 3.94186 13.8128 4.22754C13.544 4.50356 13.2575 4.80602 12.9943 5.1292C12.6071 5.58935 12.5141 6.22915 12.7542 6.78053L13.5239 8.58066C13.0762 9.38181 12.7219 10.2317 12.4678 11.1137L10.6685 11.8385C10.1077 12.0574 9.7153 12.5704 9.65089 13.169C9.61808 13.5755 9.60289 13.9731 9.60205 14.3787L3.78247 16.0332C3.58802 16.0912 3.4231 16.2215 3.32166 16.3973L3.31444 16.3925L0.542238 21.0328C-0.535871 22.8259 0.0437336 25.1534 1.83683 26.2314C2.12804 26.4065 2.44156 26.5416 2.76887 26.6331V26.63ZM5.38346 41.2846C5.03956 41.1874 4.80179 40.874 4.80104 40.5166V27.1996L16.7939 30.5599C18.4371 31.0173 20.1836 30.3221 21.0631 28.8605L23.2024 25.2931V46.2722L5.38346 41.2846ZM20.1989 20.5072C18.0803 19.2032 16.7933 16.8904 16.8018 14.4028C16.8018 14.2716 16.821 14.1204 16.8298 13.9795L23.5727 12.0594C23.8533 11.9793 24.1507 11.9793 24.4312 12.0594L31.1748 13.9795C31.1836 14.1204 31.2028 14.2708 31.2028 14.4028C31.2115 16.8905 29.9244 19.2033 27.8058 20.5072L24.0022 21.5721L20.1989 20.5072ZM17.1403 12.2273C18.3451 8.4375 22.3941 6.34194 26.184 7.54681C28.4113 8.25495 30.1564 10 30.8645 12.2273L24.8681 10.5208C24.3019 10.3604 23.7022 10.3604 23.1359 10.5208L17.1403 12.2273ZM43.2037 40.5166C43.2017 40.8733 42.9638 41.1855 42.6204 41.2822L24.8025 46.2714V25.2931L26.9418 28.8589C27.6278 30.0005 28.8621 30.6989 30.194 30.6991C30.5378 30.6995 30.88 30.6524 31.2109 30.5591L43.2038 27.1997V40.5166H43.2037ZM46.244 23.7954C45.9933 24.4286 45.4601 24.9076 44.8039 25.0891L30.7789 29.019C29.8295 29.284 28.8201 28.8818 28.3131 28.0365L25.2273 22.8913L43.6286 17.7382L46.0879 21.8545C46.4415 22.44 46.4993 23.1577 46.244 23.7922V23.7954ZM38.2609 16.0028L41.0563 16.7973L35.283 18.4126C35.3686 18.1726 35.4622 17.9382 35.5326 17.6926L37.3328 16.9678C37.7684 16.7971 38.1075 16.4446 38.2609 16.0028ZM11.2526 13.3291L13.4368 12.449C13.6759 12.3536 13.8546 12.1491 13.9168 11.8994C14.1681 10.8946 14.5686 9.9332 15.1049 9.0472C15.2373 8.82687 15.2558 8.55629 15.1545 8.31993L14.2241 6.15977C14.4569 5.87419 14.7041 5.61092 14.9441 5.35974C15.2065 5.10369 15.4697 4.85486 15.7514 4.62525L17.9219 5.55335C18.1587 5.65367 18.4291 5.6353 18.6499 5.50375C19.5359 4.967 20.4973 4.56628 21.5021 4.31483C21.7514 4.25173 21.9557 4.0734 22.0517 3.83479L22.9022 1.64501C23.6265 1.58032 24.3552 1.58219 25.0791 1.65063L25.9592 3.83479C26.0546 4.07387 26.2591 4.25257 26.5088 4.31483C27.5137 4.56619 28.4751 4.967 29.361 5.50375C29.5819 5.63539 29.8524 5.65386 30.089 5.55335L32.2492 4.62207C32.534 4.85486 32.7972 5.1021 33.0444 5.34212C33.3005 5.60454 33.5493 5.86772 33.7789 6.14936L32.8524 8.32236C32.7511 8.55863 32.7696 8.82921 32.902 9.04963C33.4383 9.93563 33.8388 10.8971 34.0901 11.9018C34.1523 12.1516 34.331 12.3562 34.5701 12.4514L36.7599 13.3026C36.7903 13.6722 36.8055 14.0347 36.8055 14.4051C36.8132 14.7637 36.7961 15.1225 36.7543 15.4788L34.5701 16.3589C34.3314 16.4539 34.1528 16.6578 34.0901 16.9069C33.9078 17.6203 33.6471 18.3112 33.3125 18.967L31.0979 19.587C32.2001 18.0827 32.7971 16.2676 32.8029 14.4027C32.8018 14.0442 32.7785 13.6862 32.7333 13.3306C32.1429 8.50875 27.7555 5.07857 22.9337 5.66895C18.9232 6.16005 15.7632 9.32012 15.2721 13.3306C15.2264 13.6861 15.2029 14.0441 15.2017 14.4027C15.2078 16.2667 15.8043 18.0808 16.9058 19.5846L14.6913 18.963C14.3566 18.3072 14.0958 17.6162 13.9136 16.9029C13.8509 16.6537 13.6723 16.4499 13.4336 16.3549L11.2431 15.5044C11.143 15.4604 11.2014 14.5027 11.2014 14.4028C11.1998 14.0441 11.2169 13.6858 11.2526 13.3291ZM9.74212 16.0028C9.89194 16.4403 10.225 16.7908 10.6542 16.9629L12.4688 17.6933C12.5392 17.9397 12.6327 18.1734 12.7183 18.4134L6.94835 16.7973L9.74212 16.0028ZM1.91521 21.8536L4.37379 17.7382L22.7751 22.8913L19.6885 28.0372C19.1816 28.8827 18.172 29.2847 17.2227 29.0189L3.2009 25.0891C2.03719 24.7633 1.35792 23.5558 1.68373 22.392C1.7367 22.2029 1.8148 22.0218 1.91606 21.8536H1.91521Z" fill="#24EBA3"/>
</svg>
