<svg width="48" height="48" viewBox="0 0 48 48" fill="none" xmlns="http://www.w3.org/2000/svg">
<path fill-rule="evenodd" clip-rule="evenodd" d="M3.31444 8.3053C3.004 8.45106 2.66503 8.52596 2.32208 8.52456C1.70623 8.52456 1.1156 8.27991 0.680123 7.84444C0.244647 7.40896 0 6.81833 0 6.20247C0 5.58662 0.244647 4.99599 0.680123 4.56051C1.1156 4.12504 1.70623 3.88039 2.32208 3.88039C2.86429 3.88272 3.38825 4.07654 3.80145 4.42763L7.01115 2.77637C6.94764 2.45802 6.95158 2.1299 7.02273 1.81317C7.09387 1.49644 7.23064 1.19815 7.42419 0.937543C7.61775 0.676938 7.86379 0.459811 8.14645 0.300175C8.42911 0.14054 8.74209 0.0419425 9.06521 0.0107471C9.38833 -0.0204483 9.7144 0.0164513 10.0224 0.119064C10.3303 0.221677 10.6134 0.387724 10.8532 0.606487C11.0931 0.82525 11.2844 1.09187 11.4148 1.38914C11.5452 1.68641 11.6119 2.00772 11.6104 2.33233C11.6073 2.54719 11.574 2.76053 11.5114 2.9661L14.9788 5.44541C16.591 4.18358 18.4497 3.27372 20.4351 2.77451C22.4205 2.2753 24.4885 2.19783 26.5057 2.5471C28.5229 2.89637 30.4445 3.66463 32.1465 4.8023C33.8484 5.93998 35.293 7.4218 36.3871 9.15218L40.3005 6.68232C40.2326 6.36381 40.2324 6.03457 40.3 5.71599C40.3676 5.39741 40.5015 5.0966 40.6929 4.83312C40.8843 4.56964 41.129 4.34937 41.4111 4.18661C41.6932 4.02386 42.0064 3.92226 42.3303 3.88842C42.6542 3.85459 42.9816 3.88926 43.2912 3.99019C43.6009 4.09113 43.8858 4.25607 44.1276 4.4743C44.3693 4.69253 44.5624 4.95917 44.6944 5.2569C44.8264 5.55464 44.8943 5.8768 44.8936 6.20247C44.8904 6.445 44.8488 6.68549 44.7701 6.91494L47.6163 8.63644L46.8151 9.96075L43.8243 8.15177C43.416 8.4192 42.9327 8.54858 42.4454 8.5209C41.9582 8.49322 41.4926 8.30993 41.1173 7.998L37.1493 10.5022C38.1822 12.5641 38.7139 14.8406 38.7012 17.1467C38.6885 19.4527 38.1317 21.7233 37.0762 23.7736C36.0206 25.824 34.4961 27.5963 32.6266 28.9464C30.757 30.2966 28.5952 31.1865 26.317 31.5437V34.0675H26.4719C26.8412 34.068 27.1953 34.2149 27.4565 34.476C27.7176 34.7372 27.8645 35.0913 27.865 35.4606V44.9039C27.8645 45.3143 27.7012 45.7077 27.411 45.9979C27.1208 46.2881 26.7274 46.4514 26.317 46.4519H21.6728C21.2624 46.4514 20.8689 46.2881 20.5787 45.9979C20.2885 45.7077 20.1253 45.3143 20.1247 44.9039V35.4606C20.1252 35.0913 20.2721 34.7372 20.5333 34.476C20.7944 34.2149 21.1485 34.068 21.5178 34.0675H21.6728V31.5437C18.9771 31.1177 16.4536 29.9484 14.3858 28.1672C12.3181 26.386 10.7879 24.0634 9.96738 21.4606C9.14682 18.8577 9.06833 16.0775 9.74073 13.4325C10.4131 10.7875 11.8098 8.38234 13.7738 6.48732L10.6179 4.23082C10.2029 4.5263 9.70112 4.67463 9.19218 4.65223C8.68324 4.62983 8.19639 4.43798 7.80898 4.10718L4.59928 5.75844C4.66652 6.09473 4.65814 6.44177 4.57472 6.77443C4.4913 7.10708 4.33495 7.41702 4.11698 7.68179C3.899 7.94656 3.62487 8.15954 3.31444 8.3053ZM43.0016 5.55889C42.8743 5.47384 42.7246 5.42845 42.5715 5.42845C42.3663 5.42858 42.1695 5.51018 42.0244 5.65531C41.8792 5.80043 41.7977 5.99723 41.7975 6.20247C41.7975 6.35556 41.8429 6.50521 41.928 6.6325C42.013 6.75979 42.1339 6.859 42.2753 6.91758C42.4168 6.97617 42.5724 6.9915 42.7226 6.96163C42.8727 6.93176 43.0106 6.85804 43.1189 6.74979C43.2271 6.64154 43.3008 6.50363 43.3307 6.35348C43.3606 6.20333 43.3452 6.0477 43.2867 5.90627C43.2281 5.76483 43.1289 5.64394 43.0016 5.55889ZM21.6728 44.9039H26.3185L26.317 35.6155H21.6728V44.9039ZM23.2208 31.7062V34.0675H24.7689V31.7062C24.6859 31.7105 24.6033 31.7161 24.5206 31.7218C24.3463 31.7336 24.1721 31.7454 23.9949 31.7454C23.8177 31.7454 23.6434 31.7336 23.4692 31.7218C23.3865 31.7161 23.3038 31.7105 23.2208 31.7062ZM31.3053 6.09799C29.1414 4.65212 26.5974 3.88039 23.9949 3.88039C20.5062 3.88428 17.1616 5.27187 14.6947 7.73872C12.2279 10.2056 10.8403 13.5502 10.8364 17.0389C10.8364 19.6414 11.6081 22.1854 13.054 24.3493C14.4999 26.5132 16.5549 28.1998 18.9593 29.1957C21.3637 30.1917 24.0095 30.4522 26.562 29.9445C29.1145 29.4368 31.4591 28.1836 33.2993 26.3433C35.1396 24.5031 36.3928 22.1585 36.9005 19.606C37.4082 17.0535 37.1477 14.4077 36.1517 12.0033C35.1558 9.59894 33.4692 7.54387 31.3053 6.09799ZM9.71836 1.68875C9.59108 1.6037 9.44143 1.55831 9.28834 1.55831C9.08309 1.55844 8.8863 1.64004 8.74117 1.78516C8.59604 1.93029 8.51445 2.12709 8.51431 2.33233C8.51431 2.48542 8.55971 2.63507 8.64476 2.76236C8.72981 2.88965 8.85069 2.98886 8.99213 3.04744C9.13356 3.10603 9.2892 3.12136 9.43934 3.09149C9.58949 3.06162 9.72741 2.9879 9.83566 2.87965C9.94391 2.7714 10.0176 2.63349 10.0475 2.48334C10.0774 2.33319 10.062 2.17756 10.0034 2.03613C9.94486 1.89469 9.84565 1.7738 9.71836 1.68875ZM2.75211 5.55889C2.62482 5.47384 2.47517 5.42845 2.32208 5.42845C2.11684 5.42858 1.92004 5.51018 1.77492 5.65531C1.62979 5.80043 1.54819 5.99723 1.54806 6.20247C1.54806 6.35556 1.59345 6.50521 1.6785 6.6325C1.76355 6.75979 1.88444 6.859 2.02588 6.91758C2.16731 6.97617 2.32294 6.9915 2.47309 6.96163C2.62324 6.93176 2.76115 6.85804 2.8694 6.74979C2.97765 6.64154 3.05137 6.50363 3.08124 6.35348C3.11111 6.20333 3.09578 6.0477 3.03719 5.90627C2.97861 5.76483 2.8794 5.64394 2.75211 5.55889ZM30.4453 26.6925C28.536 27.9683 26.2912 28.6493 23.9949 28.6493C20.9166 28.6459 17.9654 27.4216 15.7888 25.2449C13.6121 23.0683 12.3878 20.1171 12.3844 17.0388C12.3844 14.7425 13.0654 12.4978 14.3412 10.5884C15.6169 8.6791 17.4302 7.19097 19.5518 6.3122C21.6733 5.43344 24.0077 5.20351 26.26 5.6515C28.5122 6.09949 30.5809 7.20528 32.2047 8.82903C33.8284 10.4528 34.9342 12.5216 35.3822 14.7738C35.8302 17.026 35.6003 19.3604 34.7215 21.482C33.8427 23.6035 32.3546 25.4168 30.4453 26.6925ZM29.5852 8.67228C27.9305 7.56662 25.985 6.97647 23.9949 6.97647C21.3271 6.97955 18.7695 8.04068 16.8831 9.92707C14.9967 11.8135 13.9356 14.3711 13.9325 17.0388C13.9325 19.029 14.5227 20.9744 15.6283 22.6292C16.734 24.2839 18.3055 25.5737 20.1442 26.3352C21.9828 27.0968 24.006 27.2961 25.9579 26.9079C27.9099 26.5196 29.7028 25.5612 31.11 24.154C32.5173 22.7468 33.4756 20.9538 33.8639 19.0019C34.2522 17.05 34.0529 15.0268 33.2913 13.1881C32.5297 11.3495 31.24 9.77795 29.5852 8.67228ZM34.4714 47.746C35.0923 47.9135 35.7325 47.9989 36.3755 48L36.3999 47.9998L36.4233 47.9996C36.439 47.9994 36.4546 47.9992 36.47 47.9992C37.084 47.9895 37.6944 47.9034 38.2872 47.7429C38.4518 47.699 38.5973 47.6018 38.7011 47.4666C38.8048 47.3314 38.861 47.1658 38.8609 46.9954L38.8669 46.2221C39.1714 46.0843 39.4639 45.9214 39.7415 45.7353L39.8186 45.7474L40.4876 46.1208C40.6317 46.2015 40.798 46.2339 40.9619 46.2132C41.1258 46.1925 41.2788 46.1199 41.3984 46.0059C42.323 45.1297 42.9877 44.0151 43.3191 42.7851C43.3637 42.6187 43.3515 42.4421 43.2844 42.2835C43.2173 42.1248 43.0992 41.993 42.9487 41.909L42.2526 41.5198C42.2677 41.3565 42.2752 41.1945 42.2752 41.0337C42.2752 40.8727 42.2677 40.7107 42.2526 40.5477L42.9487 40.1584C43.099 40.0744 43.217 39.9428 43.284 39.7843C43.3511 39.6257 43.3634 39.4494 43.3191 39.2831C42.9893 38.0523 42.3256 36.9366 41.4014 36.0593C41.2814 35.9457 41.1283 35.8734 40.9644 35.8527C40.8005 35.8321 40.6343 35.8642 40.4898 35.9444L39.8179 36.32L40.1958 36.9958L39.7415 36.3321C39.4569 36.1459 39.163 35.9743 38.8609 35.8181V35.069C38.8609 34.8987 38.8046 34.7331 38.7009 34.5979C38.5972 34.4627 38.4518 34.3656 38.2872 34.3215C37.6347 34.1501 36.9625 34.0649 36.2879 34.0683C35.6741 34.078 35.064 34.1641 34.4715 34.3245C34.3068 34.3685 34.1613 34.4656 34.0576 34.6008C33.9538 34.736 33.8977 34.9017 33.8978 35.0721L33.8902 35.8453C33.5863 35.9833 33.2943 36.1461 33.0171 36.3321L32.94 36.32L32.2711 35.9466C32.1267 35.8665 31.9606 35.8345 31.7969 35.8551C31.6331 35.8758 31.4802 35.9481 31.3602 36.0615C30.4356 36.9378 29.771 38.0523 29.4395 39.2823C29.3949 39.4487 29.4072 39.6253 29.4743 39.784C29.5413 39.9427 29.6595 40.0744 29.8099 40.1584L30.5061 40.5477C30.491 40.711 30.4834 40.873 30.4834 41.0337C30.4834 41.1947 30.491 41.3567 30.5061 41.5198L29.8099 41.909C29.6597 41.993 29.5417 42.1247 29.4746 42.2832C29.4075 42.4417 29.3952 42.618 29.4395 42.7844C29.769 44.0152 30.4324 45.1309 31.3565 46.0082C31.4763 46.1217 31.6293 46.1941 31.7931 46.2148C31.9569 46.2355 32.123 46.2033 32.2673 46.1231L32.94 45.7474L33.0171 45.7353C33.3016 45.9218 33.5955 46.0933 33.8978 46.2493V46.9984C33.8978 47.1688 33.954 47.3344 34.0577 47.4696C34.1614 47.6047 34.3069 47.7019 34.4714 47.746ZM33.8826 44.4518C33.6321 44.2877 33.3413 44.1956 33.042 44.1858C32.7426 44.1759 32.4464 44.2486 32.1856 44.3959L32.0375 44.479C31.6485 44.0242 31.3386 43.5073 31.1206 42.9499L31.7238 42.6127C31.8657 42.5334 31.979 42.4114 32.0478 42.2641C32.1166 42.1168 32.1373 41.9516 32.107 41.7918C32.0062 41.2914 32.0062 40.7759 32.107 40.2755C32.1373 40.1158 32.1165 39.9506 32.0478 39.8033C31.979 39.656 31.8657 39.5341 31.7238 39.4547L31.1206 39.1176C31.3399 38.5609 31.6508 38.0448 32.0405 37.5907L32.1849 37.6716C32.4453 37.8189 32.7412 37.8918 33.0402 37.8822C33.3393 37.8726 33.6299 37.7809 33.8803 37.6171C34.086 37.4787 34.3029 37.3578 34.5289 37.2558C34.8036 37.1295 35.0362 36.9268 35.1988 36.6718C35.3614 36.4169 35.4472 36.1205 35.4458 35.8181V35.6949C35.7305 35.6462 36.0187 35.6199 36.3075 35.6163C36.6443 35.6094 36.981 35.6349 37.3128 35.6926V35.8181C37.3117 36.1203 37.3974 36.4165 37.5598 36.6714C37.7223 36.9263 37.9545 37.1292 38.229 37.2558C38.4543 37.3575 38.6707 37.4779 38.876 37.6156C39.1267 37.7797 39.4176 37.8718 39.717 37.8817C40.0165 37.8915 40.3129 37.8188 40.5737 37.6715L40.7211 37.5891C41.1103 38.0436 41.4202 38.5603 41.638 39.1175L41.0348 39.4547C40.893 39.534 40.7796 39.656 40.7108 39.8033C40.6421 39.9506 40.6213 40.1158 40.6516 40.2756C40.7524 40.776 40.7524 41.2915 40.6516 41.7919C40.6214 41.9516 40.6421 42.1168 40.7108 42.2641C40.7796 42.4114 40.8929 42.5333 41.0348 42.6127L41.638 42.9499C41.4187 43.5066 41.1077 44.0226 40.7181 44.4767L40.5737 44.3959C40.3132 44.2489 40.0173 44.1762 39.7184 44.1858C39.4194 44.1954 39.1288 44.2869 38.8783 44.4503C38.6722 44.5886 38.4551 44.7094 38.2289 44.8116C37.9545 44.9382 37.7222 45.1411 37.5598 45.3959C37.3974 45.6508 37.3116 45.947 37.3128 46.2493V46.3725C37.0278 46.4213 36.7395 46.4475 36.4503 46.4511C36.1138 46.4581 35.7774 46.4325 35.4458 46.3748V46.2493C35.4471 45.947 35.3615 45.6507 35.199 45.3958C35.0366 45.1409 34.8042 44.9381 34.5296 44.8116C34.3042 44.7102 34.0877 44.5898 33.8826 44.4518ZM39.4754 41.0337C39.4754 40.4213 39.2939 39.8227 38.9536 39.3136C38.6134 38.8044 38.1299 38.4076 37.5642 38.1733C36.9984 37.9389 36.3759 37.8776 35.7753 37.9971C35.1747 38.1165 34.623 38.4114 34.19 38.8444C33.757 39.2774 33.4622 39.8291 33.3427 40.4297C33.2232 41.0303 33.2846 41.6528 33.5189 42.2185C33.7532 42.7843 34.1501 43.2678 34.6592 43.608C35.1684 43.9482 35.767 44.1298 36.3793 44.1298C37.2002 44.129 37.9872 43.8025 38.5677 43.2221C39.1482 42.6416 39.4746 41.8546 39.4754 41.0337ZM34.8313 41.0337C34.8313 40.7275 34.9221 40.4282 35.0922 40.1736C35.2623 39.9191 35.504 39.7207 35.7869 39.6035C36.0698 39.4863 36.381 39.4557 36.6813 39.5154C36.9816 39.5751 37.2575 39.7226 37.474 39.9391C37.6905 40.1556 37.8379 40.4314 37.8976 40.7317C37.9574 41.032 37.9267 41.3432 37.8095 41.6261C37.6924 41.909 37.494 42.1508 37.2394 42.3209C36.9848 42.491 36.6855 42.5818 36.3793 42.5818C35.9689 42.5812 35.5755 42.418 35.2853 42.1278C34.9951 41.8376 34.8318 41.4441 34.8313 41.0337ZM17.0286 21.683H20.1247C20.2264 21.6831 20.3271 21.6631 20.421 21.6242C20.5149 21.5853 20.6003 21.5283 20.6722 21.4564C20.7441 21.3845 20.8011 21.2992 20.84 21.2052C20.8788 21.1113 20.8988 21.0106 20.8988 20.909V17.0388C20.8988 16.9372 20.8788 16.8365 20.84 16.7426C20.8011 16.6486 20.7441 16.5633 20.6722 16.4914C20.6003 16.4195 20.5149 16.3625 20.421 16.3236C20.3271 16.2847 20.2264 16.2647 20.1247 16.2648H17.0286C16.927 16.2647 16.8263 16.2847 16.7323 16.3236C16.6384 16.3625 16.5531 16.4195 16.4812 16.4914C16.4093 16.5633 16.3523 16.6486 16.3134 16.7426C16.2745 16.8365 16.2545 16.9372 16.2546 17.0388V20.909C16.2545 21.0106 16.2745 21.1113 16.3134 21.2052C16.3523 21.2992 16.4093 21.3845 16.4812 21.4564C16.5531 21.5283 16.6384 21.5853 16.7323 21.6242C16.8263 21.6631 16.927 21.6831 17.0286 21.683ZM17.8026 17.8129H19.3507V20.1349H17.8026V17.8129ZM25.5429 21.683H22.4468C22.3452 21.6831 22.2445 21.6631 22.1505 21.6242C22.0566 21.5853 21.9713 21.5283 21.8994 21.4564C21.8275 21.3845 21.7705 21.2992 21.7316 21.2052C21.6927 21.1113 21.6727 21.0106 21.6728 20.909V11.6206C21.6727 11.519 21.6927 11.4183 21.7316 11.3244C21.7705 11.2304 21.8275 11.1451 21.8994 11.0732C21.9713 11.0013 22.0566 10.9443 22.1505 10.9054C22.2445 10.8665 22.3452 10.8465 22.4468 10.8466H25.5429C25.6446 10.8465 25.7453 10.8665 25.8392 10.9054C25.9331 10.9443 26.0185 11.0013 26.0904 11.0732C26.1623 11.1451 26.2193 11.2304 26.2582 11.3244C26.297 11.4183 26.317 11.519 26.317 11.6206V20.909C26.317 21.0106 26.297 21.1113 26.2582 21.2052C26.2193 21.2992 26.1623 21.3845 26.0904 21.4564C26.0185 21.5283 25.9331 21.5853 25.8392 21.6242C25.7453 21.6631 25.6446 21.6831 25.5429 21.683ZM24.7689 12.3947H23.2208V20.1349H24.7689V12.3947ZM27.865 21.683H30.9611C31.0628 21.6831 31.1635 21.6631 31.2574 21.6242C31.3513 21.5853 31.4367 21.5283 31.5086 21.4564C31.5805 21.3845 31.6375 21.2992 31.6763 21.2052C31.7152 21.1113 31.7352 21.0106 31.7352 20.909V14.7167C31.7352 14.6151 31.7152 14.5144 31.6763 14.4205C31.6375 14.3265 31.5805 14.2412 31.5086 14.1693C31.4367 14.0974 31.3513 14.0404 31.2574 14.0015C31.1635 13.9626 31.0628 13.9427 30.9611 13.9427H27.865C27.7633 13.9427 27.6627 13.9626 27.5687 14.0015C27.4748 14.0404 27.3894 14.0974 27.3176 14.1693C27.2457 14.2412 27.1887 14.3265 27.1498 14.4205C27.1109 14.5144 27.0909 14.6151 27.091 14.7167V20.909C27.0909 21.0106 27.1109 21.1113 27.1498 21.2052C27.1887 21.2992 27.2457 21.3845 27.3176 21.4564C27.3894 21.5283 27.4748 21.5853 27.5687 21.6242C27.6627 21.6631 27.7633 21.6831 27.865 21.683ZM28.639 15.4908H30.1871V20.1349H28.639V15.4908Z" fill="#24EBA3"/>
</svg>
