<svg width="54" height="48" viewBox="0 0 54 48" fill="none" xmlns="http://www.w3.org/2000/svg">
<path fill-rule="evenodd" clip-rule="evenodd" d="M42.6698 0H10.6675C4.77598 0 0 4.77598 0 10.6675C0 16.5589 4.77598 21.3349 10.6675 21.3349H25.8001L29.2573 41.1719C29.357 41.7825 29.8078 42.2766 30.4067 42.4316C31.0127 42.5974 31.6594 42.3879 32.0531 41.8982L35.7628 37.2757L43.3509 47.2925C43.6354 47.6709 44.0596 47.9197 44.5288 47.9831C44.6113 47.9945 44.6945 48.0001 44.7777 48C45.165 47.9998 45.5416 47.8727 45.8498 47.6382L49.963 44.5268C50.7475 43.9314 50.9022 42.8133 50.3087 42.0271L42.7215 32.0077L48.1815 29.6848C48.7544 29.437 49.1271 28.8743 49.1318 28.25C49.1456 27.6324 48.7935 27.0647 48.2339 26.8028L36.8295 21.3348H42.6698C48.5613 21.3348 53.3373 16.5588 53.3373 10.6674C53.3373 4.77587 48.5613 0 42.6698 0ZM40.9808 30.8183C40.7291 30.9255 40.5407 31.1428 40.4702 31.4072C40.3997 31.6717 40.455 31.9538 40.62 32.1722L48.8926 43.1081L44.7678 46.2256L36.4925 35.2915C36.3278 35.0719 36.0709 34.9406 35.7964 34.9359H35.7831C35.5138 34.9361 35.2592 35.0584 35.0906 35.2683L30.9356 40.4474L27.1504 18.6679L32.5411 21.2521C32.5535 21.2574 32.565 21.2645 32.5784 21.2699L47.0816 28.2224L40.9808 30.8183ZM48.9619 16.955C47.2965 18.6284 45.0306 19.5654 42.6698 19.557H33.1207L27.9194 17.0679C27.3168 16.779 26.6032 16.8509 26.0706 17.2544C25.5378 17.6579 25.2753 18.3253 25.3903 18.9836L25.4907 19.5614H10.6675C5.75668 19.5614 1.77565 15.5804 1.77565 10.6696C1.77565 5.75886 5.75668 1.77794 10.6675 1.77794H42.6698C46.2663 1.77659 49.5094 3.94248 50.886 7.26512C52.2625 10.5878 51.5013 14.4126 48.9574 16.955H48.9619ZM48.0036 6.22264H42.6699C42.1789 6.22264 41.7809 6.62069 41.7809 7.11156C41.7809 7.60243 42.179 8.00048 42.6699 8.00048H44.4478V14.2231C44.4478 14.7141 44.8458 15.112 45.3367 15.112C45.8277 15.112 46.2257 14.7141 46.2257 14.2231V8.00048H48.0036C48.4946 8.00048 48.8925 7.60243 48.8925 7.11156C48.8925 6.62069 48.4946 6.22264 48.0036 6.22264ZM8.88953 6.22264C10.3624 6.22264 11.5564 7.41669 11.5564 8.8895C11.5531 9.86343 11.0172 10.7575 10.1599 11.2194L11.4632 13.8258C11.6827 14.2652 11.5043 14.7993 11.0649 15.0188C10.6255 15.2383 10.0914 15.06 9.8719 14.6206L8.34022 11.5564H7.11159V14.2232C7.11159 14.7142 6.71354 15.1122 6.22267 15.1122C5.7318 15.1122 5.33375 14.7142 5.33375 14.2232V7.11156C5.33375 6.62069 5.7317 6.22264 6.22267 6.22264H8.88953ZM8.88964 8.00058H7.11169V9.77842H8.88964C9.38051 9.77842 9.77856 9.38048 9.77856 8.8895C9.77856 8.39853 9.38061 8.00058 8.88964 8.00058ZM23.1129 6.22264H20.446C19.9551 6.22264 19.5571 6.62069 19.5571 7.11156V14.2232C19.5571 14.7142 19.9552 15.1122 20.446 15.1122C20.9369 15.1122 21.335 14.7142 21.335 14.2232V11.5564H23.1129C24.5857 11.5564 25.7798 10.3623 25.7798 8.8895C25.7798 7.41669 24.5857 6.22264 23.1129 6.22264ZM23.1129 9.77853H21.335V8.00058H23.1129C23.6039 8.00058 24.0018 8.39853 24.0018 8.8895C24.0018 9.38048 23.6038 9.77853 23.1129 9.77853ZM17.779 7.11166C17.779 7.60253 17.3811 8.00058 16.8901 8.00058H14.2232V9.77853H16.8901C17.381 9.77853 17.779 10.1765 17.779 10.6674C17.779 11.1583 17.3811 11.5564 16.8901 11.5564H14.2232V13.3344H16.8901C17.381 13.3344 17.779 13.7324 17.779 14.2233C17.779 14.7143 17.3811 15.1123 16.8901 15.1123H13.3343C12.8434 15.1123 12.4454 14.7143 12.4454 14.2233V7.11166C12.4454 6.62079 12.8433 6.22274 13.3343 6.22274H16.8901C17.381 6.22274 17.779 6.62079 17.779 7.11166ZM30.2244 6.22264C28.2633 6.22264 26.6686 8.21654 26.6686 10.6674C26.6686 13.1184 28.2634 15.1123 30.2244 15.1123C32.1855 15.1123 33.7802 13.1184 33.7802 10.6674C33.7802 8.21654 32.1855 6.22264 30.2244 6.22264ZM30.2244 13.3343C29.2608 13.3343 28.4465 12.1129 28.4465 10.6674C28.4465 9.22203 29.2608 8.00058 30.2244 8.00058C31.188 8.00058 32.0024 9.22203 32.0024 10.6674C32.0024 12.1129 31.188 13.3343 30.2244 13.3343ZM38.225 6.22264C39.6978 6.22264 40.8919 7.41669 40.8919 8.8895C40.8885 9.86343 40.3527 10.7575 39.4952 11.2195L40.7984 13.8259C40.9404 14.1101 40.92 14.4486 40.7448 14.7136C40.5697 14.9786 40.2663 15.1301 39.9492 15.1109C39.6321 15.0917 39.3492 14.9048 39.2073 14.6206L37.6756 11.5564H36.4471V14.2232C36.4471 14.7142 36.0491 15.1122 35.5581 15.1122C35.0672 15.1122 34.6692 14.7142 34.6692 14.2232V7.11156C34.6692 6.62069 35.0672 6.22264 35.5581 6.22264H38.225ZM38.2251 8.00058H36.4472V9.77842H38.2251C38.7161 9.77842 39.114 9.38048 39.114 8.8895C39.114 8.39853 38.7161 8.00058 38.2251 8.00058Z" fill="#24EBA3"/>
</svg>
