<svg width="48" height="48" viewBox="0 0 48 48" fill="none" xmlns="http://www.w3.org/2000/svg">
<path fill-rule="evenodd" clip-rule="evenodd" d="M32.8 0H15.2C13.8746 0 12.8 1.07461 12.8 2.4V31.2C12.8 32.5254 13.8746 33.6 15.2 33.6H20V32H15.2C14.7582 32 14.4 31.6418 14.4 31.2V2.4C14.4 1.9582 14.7582 1.6 15.2 1.6H32.8C33.2418 1.6 33.6 1.9582 33.6 2.4V31.2C33.6 31.6418 33.2418 32 32.8 32H28V33.6H32.8C34.1254 33.6 35.2 32.5254 35.2 31.2V2.4C35.2 1.07461 34.1254 0 32.8 0ZM2.4 30.4H11.2V28.8H2.4C1.9582 28.8 1.6 28.4418 1.6 28V5.6C1.6 5.1582 1.9582 4.8 2.4 4.8H11.2V3.2H2.4C1.07461 3.2 0 4.27461 0 5.6V28C0 29.3254 1.07461 30.4 2.4 30.4ZM20.8 4H19.2V5.6H20.8V4ZM22.4 4H28.8V5.6H22.4V4ZM18.4 8H16.8V11.2H18.4V8ZM20 8H21.6V11.2H20V8ZM24.8 8H23.2V11.2H24.8V8ZM26.4 8H28V11.2H26.4V8ZM31.2 8H29.6V11.2H31.2V8ZM23.2 13.6H28.8V15.2H23.2V13.6ZM26.4 28H21.6C20.2746 28 19.2 26.9254 19.2 25.6C19.2 24.2746 20.2746 23.2 21.6 23.2H26.4C27.7254 23.2 28.8 24.2746 28.8 25.6C28.8 26.9254 27.7254 28 26.4 28ZM26.4 24.8H21.6C21.1582 24.8 20.8 25.1582 20.8 25.6C20.8 26.0418 21.1582 26.4 21.6 26.4H26.4C26.8418 26.4 27.2 26.0418 27.2 25.6C27.2 25.1582 26.8418 24.8 26.4 24.8ZM8.8 6.4H11.2V8H8.8V6.4ZM4.8 10.4H3.2V12.8H4.8V10.4ZM6.4 10.4H8V12.8H6.4V10.4ZM11.2 10.4H9.6V12.8H11.2V10.4ZM5.6 6.4H7.2V8H5.6V6.4ZM11.2 26.4H6.4C5.07461 26.4 4 25.3254 4 24C4 22.6746 5.07461 21.6 6.4 21.6H11.2V23.2H6.4C5.9582 23.2 5.6 23.5582 5.6 24C5.6 24.4418 5.9582 24.8 6.4 24.8H11.2V26.4ZM45.6 3.2H36.8V4.8H45.6C46.0418 4.8 46.4 5.1582 46.4 5.6V28C46.4 28.4418 46.0418 28.8 45.6 28.8H36.8V30.4H45.6C46.9254 30.4 48 29.3254 48 28V5.6C48 4.27461 46.9254 3.2 45.6 3.2ZM42.4 6.4H36.8V8H42.4V6.4ZM43.2 10.4H44.8V12.8H43.2V10.4ZM41.6 10.4H40V12.8H41.6V10.4ZM36.8 10.4H38.4V12.8H36.8V10.4ZM36.8 23.2V21.6H41.6C42.9254 21.6 44 22.6746 44 24C44 25.3254 42.9254 26.4 41.6 26.4H36.8V24.8H41.6C42.0418 24.8 42.4 24.4418 42.4 24C42.4 23.5582 42.0418 23.2 41.6 23.2H36.8ZM36.0001 47.1999V38.4855C36.015 37.2913 35.1728 36.2581 34.0001 36.0319C33.3021 35.9167 32.5888 36.114 32.0489 36.571C32.0329 36.5839 32.0169 36.5976 32.0017 36.612C31.0915 35.7948 29.7118 35.7948 28.8017 36.612C28.14 36.0444 27.2298 35.864 26.4017 36.1358V32.0854C26.4169 30.8913 25.5743 29.8581 24.4017 29.6319C23.7048 29.5136 22.9907 29.7085 22.4509 30.1651C21.9107 30.6214 21.5997 31.2929 21.6001 31.9999V41.787L19.4771 40.5136C18.829 40.1222 18.0251 40.0917 17.3497 40.4335L17.2224 40.4968C16.5286 40.844 16.0673 41.5292 16.0068 42.3026C15.9462 43.0761 16.2954 43.8249 16.9267 44.2761L21.9353 47.8526C22.0712 47.9491 22.2337 48.0007 22.4001 47.9999H35.2001C35.6419 47.9999 36.0001 47.6417 36.0001 47.1999ZM34.4001 46.3999H22.656L17.856 42.9718C17.6814 42.8472 17.5845 42.6397 17.6009 42.4257C17.6173 42.2116 17.7443 42.0214 17.9361 41.9245L18.0634 41.8624C18.2501 41.7683 18.4724 41.7765 18.6513 41.8847L21.9864 43.8847C22.2337 44.0339 22.5419 44.0386 22.7931 43.8968C23.0446 43.755 23.2001 43.4886 23.2001 43.1999V31.9999C23.2001 31.7632 23.3048 31.5386 23.4861 31.3866C23.6677 31.2343 23.9071 31.1706 24.14 31.212C24.5396 31.3097 24.8154 31.6745 24.8001 32.0854V38.3999C24.8001 38.8417 25.1583 39.1999 25.6001 39.1999C26.0419 39.1999 26.4001 38.8417 26.4001 38.3999C26.4001 37.9581 26.7583 37.5999 27.2001 37.5999C27.6419 37.5999 28.0001 37.9581 28.0001 38.3999C28.0001 38.8417 28.3583 39.1999 28.8001 39.1999C29.2419 39.1999 29.6001 38.8417 29.6001 38.3999C29.6001 37.9581 29.9583 37.5999 30.4001 37.5999C30.8419 37.5999 31.2001 37.9581 31.2001 38.3999C31.2001 38.8417 31.5583 39.1999 32.0001 39.1999C32.4419 39.1999 32.8001 38.8417 32.8001 38.3999C32.8001 38.1632 32.9048 37.9386 33.0861 37.7866C33.2677 37.6343 33.5071 37.5706 33.74 37.612C34.1396 37.7097 34.4154 38.0745 34.4001 38.4855V46.3999ZM21.6 13.6H19.2V15.2H21.6V13.6ZM19.2 16.8H28.8V18.4H19.2V16.8ZM27.2 20H20.8V21.6H27.2V20ZM6.4 15.2H11.2V16.8H6.4V15.2ZM11.2 20V18.4H8V20H11.2ZM36.8 15.2H40.8V16.8H36.8V15.2ZM39.2 18.4H36.8V20H39.2V18.4Z" fill="#24EBA3"/>
</svg>
