<svg width="45" height="48" viewBox="0 0 45 48" fill="none" xmlns="http://www.w3.org/2000/svg">
<path fill-rule="evenodd" clip-rule="evenodd" d="M43.7751 22.0769L44.5718 23.2715C44.7878 23.5951 44.9016 23.9714 44.9016 24.36C44.9016 25.4423 44.0206 26.3226 42.939 26.3226C41.1824 26.3226 39.6007 25.3928 38.708 23.9667V28.6452C38.708 28.7992 38.691 28.951 38.6616 29.0988C40.5924 30.9337 41.8048 33.5187 41.8048 36.3871C41.8048 41.9365 37.2897 46.4516 31.7403 46.4516C26.1909 46.4516 21.6758 41.9365 21.6758 36.3871C21.6758 33.5187 22.8882 30.9337 24.819 29.0988C24.7896 28.951 24.7726 28.7992 24.7726 28.6452V16.2147C24.7726 15.6178 24.9142 15.0186 25.1806 14.4844L26.3209 12.2044V10.8387H24.7726V0H41.8048V10.8387H40.2564V12.1293L41.9302 14.3621C42.3351 14.9001 42.5922 15.5373 42.675 16.2046L43.2239 20.5935C43.2897 21.1215 43.4802 21.6341 43.7751 22.0769ZM40.2564 9.29032V1.54839H26.3209V4.64516H32.5145V6.19355H26.3209V9.29032H40.2564ZM31.7403 44.9032C36.4358 44.9032 40.2564 41.0826 40.2564 36.3871C40.2564 31.6916 36.4358 27.871 31.7403 27.871C27.0448 27.871 23.2242 31.6916 23.2242 36.3871C23.2242 41.0826 27.0448 44.9032 31.7403 44.9032ZM39.5635 22.0072C39.8848 23.6106 41.3047 24.7742 42.939 24.7742C43.1674 24.7742 43.3532 24.5884 43.3524 24.3585C43.3524 24.2764 43.3284 24.1966 43.2827 24.1285L42.4861 22.9339C42.058 22.2921 41.7824 21.5481 41.6871 20.784L41.1382 16.3951C41.0887 15.9948 40.9338 15.6132 40.6915 15.2903L38.708 12.6449V10.8387H27.8693V12.5698L26.5656 15.1757C26.4053 15.497 26.3209 15.8563 26.3209 16.2147V27.9197C26.811 27.6054 27.3266 27.3259 27.8693 27.0991V19.3548H29.4177V26.6044C29.9209 26.4844 30.4373 26.4023 30.9661 26.3621V19.3548H32.5145V26.3613C33.0433 26.4023 33.5597 26.4844 34.0629 26.6036V19.3548H35.6113V27.0991C36.154 27.3259 36.6696 27.6046 37.1597 27.9197V18.3631C35.3109 17.6431 34.0629 15.8663 34.0629 13.8403V12.3871H35.6113V13.8403C35.6113 15.3639 36.6433 16.6854 38.122 17.0555L38.5973 17.1747L39.5635 22.0072ZM21.6774 13.1607C21.6774 8.46518 17.8568 4.64453 13.1613 4.64453C8.46581 4.64453 4.64516 8.46518 4.64516 13.1607C4.64516 15.117 5.31561 16.9163 6.4289 18.3563C6.28026 18.666 6.19355 19.0035 6.19355 19.3542V24.0327C5.3009 22.6066 3.71923 21.6768 1.96258 21.6768C0.881032 21.6768 0 22.557 0 23.6394C0 24.028 0.113807 24.4043 0.329807 24.7279L1.12645 25.9225C1.42142 26.3653 1.61187 26.8778 1.67768 27.4058L2.22658 31.7947C2.30942 32.4621 2.56645 33.0992 2.97135 33.6373L4.64516 35.8701V37.1607H3.09677V47.9994H20.129V37.1607H18.5806V35.795L19.721 33.515C19.9874 32.9808 20.129 32.3816 20.129 31.7847V19.3542C20.129 19.0035 20.0415 18.666 19.8937 18.3563C21.007 16.917 21.6774 15.1178 21.6774 13.1607ZM13.1613 6.19292C17.0036 6.19292 20.129 9.31911 20.129 13.1607C20.129 17.0022 17.0036 20.1284 13.1613 20.1284C9.31897 20.1284 6.19355 17.0022 6.19355 13.1607C6.19355 9.31911 9.31897 6.19292 13.1613 6.19292ZM18.5806 38.709V40.2574H4.64516V38.709H18.5806ZM4.64516 46.451V41.8058H18.5806V46.451H4.64516ZM18.336 32.8229L17.0323 35.4296V37.1607H6.19355V35.3545L4.21006 32.709C3.96774 32.3862 3.8129 32.0045 3.76336 31.6043L3.21445 27.2154C3.11923 26.4512 2.84361 25.7072 2.41548 25.0654L1.61806 23.8693C1.57239 23.8012 1.54839 23.7214 1.54839 23.6394C1.54839 23.411 1.73419 23.2252 1.96258 23.2252C3.5969 23.2252 5.01677 24.3888 5.33807 25.9921L6.30426 30.8247L6.77961 30.9439C8.25832 31.314 9.29032 32.6355 9.29032 34.1591V35.6123H10.8387V34.1591C10.8387 32.133 9.59071 30.3563 7.74194 29.6363V19.725C8.21652 20.1176 8.73755 20.4536 9.29032 20.7369V28.6445H10.8387V21.347C11.3381 21.4887 11.8545 21.5893 12.3871 21.6381V28.6445H13.9355V21.6373C14.4681 21.5893 14.9845 21.4887 15.4839 21.3462V28.6445H17.0323V20.7369C17.585 20.4536 18.1061 20.1176 18.5806 19.725V31.7847C18.5806 32.1431 18.4963 32.5023 18.336 32.8229ZM13.1624 15.4841C12.7351 15.4841 12.3882 15.1365 12.3882 14.7099H10.8398C10.8398 15.7179 11.4894 16.5695 12.3882 16.8901V18.5809H13.9366V17.0325H15.485V14.7099C15.485 13.4294 14.4429 12.3873 13.1624 12.3873C12.7351 12.3873 12.3882 12.0397 12.3882 11.6132V10.839H13.1624C13.5898 10.839 13.9366 11.1866 13.9366 11.6132H15.485C15.485 10.6052 14.8355 9.75354 13.9366 9.43303V7.74219H12.3882V9.29058H10.8398V11.6132C10.8398 12.8937 11.8819 13.9357 13.1624 13.9357C13.5898 13.9357 13.9366 14.2833 13.9366 14.7099V15.4841H13.1624ZM26.543 40.4844L35.8321 31.1952L36.9268 32.2899L27.6377 41.5791L26.543 40.4844ZM32.5156 39.4827C32.5156 38.2022 33.5577 37.1602 34.8382 37.1602C36.1187 37.1602 37.1608 38.2022 37.1608 39.4827C37.1608 40.7633 36.1187 41.8053 34.8382 41.8053C33.5577 41.8053 32.5156 40.7633 32.5156 39.4827ZM34.064 39.4827C34.064 39.9093 34.4109 40.2569 34.8382 40.2569C35.2656 40.2569 35.6124 39.9093 35.6124 39.4827C35.6124 39.0562 35.2656 38.7085 34.8382 38.7085C34.4109 38.7085 34.064 39.0562 34.064 39.4827ZM28.6468 35.6139C29.9273 35.6139 30.9694 34.5718 30.9694 33.2913C30.9694 32.0108 29.9273 30.9688 28.6468 30.9688C27.3663 30.9688 26.3242 32.0108 26.3242 33.2913C26.3242 34.5718 27.3663 35.6139 28.6468 35.6139ZM28.6468 32.5171C29.0742 32.5171 29.421 32.8647 29.421 33.2913C29.421 33.7179 29.0742 34.0655 28.6468 34.0655C28.2194 34.0655 27.8726 33.7179 27.8726 33.2913C27.8726 32.8647 28.2194 32.5171 28.6468 32.5171ZM38.7116 5.42024C38.7116 6.70075 37.6695 7.74282 36.389 7.74282C35.1085 7.74282 34.0664 6.70075 34.0664 5.42024C34.0664 4.13972 35.1085 3.09766 36.389 3.09766C37.6695 3.09766 38.7116 4.13972 38.7116 5.42024ZM37.1632 5.42024C37.1632 4.99366 36.8163 4.64604 36.389 4.64604C35.9616 4.64604 35.6148 4.99366 35.6148 5.42024C35.6148 5.84682 35.9616 6.19443 36.389 6.19443C36.8163 6.19443 37.1632 5.84682 37.1632 5.42024Z" fill="#24EBA3"/>
</svg>
