<svg width="48" height="48" viewBox="0 0 48 48" fill="none" xmlns="http://www.w3.org/2000/svg">
<path fill-rule="evenodd" clip-rule="evenodd" d="M47.2258 0H0.774194C0.568865 0 0.371945 0.0815665 0.226756 0.226756C0.0815665 0.371945 0 0.568865 0 0.774194V28.6452C0 28.8505 0.0815665 29.0474 0.226756 29.1926C0.371945 29.3378 0.568865 29.4194 0.774194 29.4194H17.4281C17.8608 30.6454 18.6289 31.7254 19.6452 32.5364C19.7178 32.5948 19.8004 32.6394 19.889 32.6681L19.4845 34.2377L13.0287 36.389C12.0338 36.4244 11.0907 36.8412 10.3947 37.553C9.69876 38.2649 9.30331 39.2171 9.29032 40.2126L8.59742 46.4516H4.64516C4.43983 46.4516 4.24291 46.5332 4.09772 46.6784C3.95253 46.8236 3.87097 47.0205 3.87097 47.2258C3.87097 47.4311 3.95253 47.6281 4.09772 47.7732C4.24291 47.9184 4.43983 48 4.64516 48H43.3548C43.5602 48 43.7571 47.9184 43.9023 47.7732C44.0475 47.6281 44.129 47.4311 44.129 47.2258C44.129 47.0205 44.0475 46.8236 43.9023 46.6784C43.7571 46.5332 43.5602 46.4516 43.3548 46.4516H39.4026L38.7097 40.2126C38.6967 39.2171 38.3012 38.2649 37.6053 37.553C36.9093 36.8412 35.9662 36.4244 34.9713 36.389L28.5155 34.2377L28.111 32.6681C28.1996 32.6394 28.2822 32.5948 28.3548 32.5364C29.3711 31.7254 30.1392 30.6454 30.5719 29.4194H47.2258C47.4311 29.4194 47.6281 29.3378 47.7732 29.1926C47.9184 29.0474 48 28.8505 48 28.6452V0.774194C48 0.568865 47.9184 0.371945 47.7732 0.226756C47.6281 0.0815665 47.4311 0 47.2258 0ZM34.5939 37.8958C34.6729 37.922 34.7555 37.9354 34.8387 37.9355C35.4544 37.9363 36.0447 38.1813 36.4801 38.6167C36.9155 39.052 37.1605 39.6423 37.1613 40.2581C37.1615 40.2865 37.1631 40.3149 37.1661 40.3432L37.8445 46.4516H33.2903V42.5806C33.2903 42.3753 33.2088 42.1784 33.0636 42.0332C32.9184 41.888 32.7215 41.8064 32.5161 41.8064C32.3108 41.8064 32.1139 41.888 31.9687 42.0332C31.8235 42.1784 31.7419 42.3753 31.7419 42.5806V46.4516H16.2581V42.5806C16.2581 42.3753 16.1765 42.1784 16.0313 42.0332C15.8861 41.888 15.6892 41.8064 15.4839 41.8064C15.2785 41.8064 15.0816 41.888 14.9364 42.0332C14.7912 42.1784 14.7097 42.3753 14.7097 42.5806V46.4516H10.1555L10.8339 40.3432C10.8369 40.3149 10.8385 40.2865 10.8387 40.2581C10.8395 39.6423 11.0845 39.052 11.5199 38.6167C11.9553 38.1813 12.5456 37.9363 13.1613 37.9355C13.2445 37.9354 13.3271 37.922 13.4061 37.8958L20.2548 35.6129H27.7452L34.5939 37.8958ZM29.4194 27.0968C29.4207 27.876 29.2532 28.6463 28.9284 29.3546C28.6037 30.0629 28.1293 30.6925 27.5381 31.2C27.4083 31.1098 27.254 31.0616 27.096 31.0617C26.938 31.0617 26.7837 31.1102 26.6541 31.2005C26.5244 31.2908 26.4254 31.4186 26.3705 31.5667C26.3155 31.7149 26.3073 31.8763 26.3468 32.0294L26.8723 34.0645H21.1277L21.6532 32.0294C21.6927 31.8763 21.6845 31.7149 21.6295 31.5667C21.5746 31.4186 21.4756 31.2908 21.3459 31.2005C21.2163 31.1102 21.062 31.0617 20.904 31.0617C20.746 31.0616 20.5917 31.1098 20.4619 31.2C19.8707 30.6925 19.3963 30.0629 19.0716 29.3546C18.7468 28.6463 18.5793 27.876 18.5806 27.0968V24C18.5806 22.5627 19.1516 21.1843 20.1679 20.1679C21.1843 19.1516 22.5627 18.5806 24 18.5806C25.4373 18.5806 26.8157 19.1516 27.8321 20.1679C28.8484 21.1843 29.4194 22.5627 29.4194 24V27.0968ZM46.4516 27.871H30.9252C30.9535 27.6139 30.9677 27.3554 30.9677 27.0968V24C30.9677 22.152 30.2336 20.3798 28.9269 19.0731C27.6202 17.7664 25.848 17.0323 24 17.0323C22.152 17.0323 20.3798 17.7664 19.0731 19.0731C17.7664 20.3798 17.0323 22.152 17.0323 24V27.0968C17.0323 27.3554 17.0465 27.6139 17.0748 27.871H1.54839V1.54839H46.4516V27.871ZM8.51638 4.64604H24.7744C24.9798 4.64604 25.1767 4.56448 25.3219 4.41929C25.4671 4.2741 25.5486 4.07718 25.5486 3.87185C25.5486 3.66652 25.4671 3.4696 25.3219 3.32441C25.1767 3.17922 24.9798 3.09766 24.7744 3.09766H8.51638C8.31105 3.09766 8.11413 3.17922 7.96894 3.32441C7.82375 3.4696 7.74219 3.66652 7.74219 3.87185C7.74219 4.07718 7.82375 4.2741 7.96894 4.41929C8.11413 4.56448 8.31105 4.64604 8.51638 4.64604ZM22.4519 6.96636H8.51638C8.31105 6.96636 8.11413 6.88479 7.96894 6.7396C7.82375 6.59441 7.74219 6.39749 7.74219 6.19216C7.74219 5.98683 7.82375 5.78991 7.96894 5.64472C8.11413 5.49954 8.31105 5.41797 8.51638 5.41797H22.4519C22.6572 5.41797 22.8541 5.49954 22.9993 5.64472C23.1445 5.78991 23.2261 5.98683 23.2261 6.19216C23.2261 6.39749 23.1445 6.59441 22.9993 6.7396C22.8541 6.88479 22.6572 6.96636 22.4519 6.96636ZM8.51638 9.29058H16.2583C16.4636 9.29058 16.6606 9.20901 16.8058 9.06382C16.9509 8.91863 17.0325 8.72171 17.0325 8.51638C17.0325 8.31105 16.9509 8.11413 16.8058 7.96894C16.6606 7.82375 16.4636 7.74219 16.2583 7.74219H8.51638C8.31105 7.74219 8.11413 7.82375 7.96894 7.96894C7.82375 8.11413 7.74219 8.31105 7.74219 8.51638C7.74219 8.72171 7.82375 8.91863 7.96894 9.06382C8.11413 9.20901 8.31105 9.29058 8.51638 9.29058ZM6.19443 9.2912H3.87185C3.66652 9.2912 3.4696 9.20964 3.32441 9.06445C3.17922 8.91926 3.09766 8.72234 3.09766 8.51701V3.87185C3.09766 3.66652 3.17922 3.4696 3.32441 3.32441C3.4696 3.17922 3.66652 3.09766 3.87185 3.09766H6.19443C6.39976 3.09766 6.59668 3.17922 6.74187 3.32441C6.88706 3.4696 6.96862 3.66652 6.96862 3.87185V8.51701C6.96862 8.72234 6.88706 8.91926 6.74187 9.06445C6.59668 9.20964 6.39976 9.2912 6.19443 9.2912ZM5.42024 4.64604H4.64604V7.74282H5.42024V4.64604ZM37.9345 3.09766C36.5565 3.09766 35.2093 3.50631 34.0635 4.27193C32.9176 5.03756 32.0246 6.12577 31.4972 7.39896C30.9698 8.67215 30.8318 10.0731 31.1007 11.4247C31.3695 12.7763 32.0331 14.0179 33.0076 14.9923C33.9821 15.9668 35.2236 16.6304 36.5752 16.8993C37.9268 17.1681 39.3278 17.0301 40.601 16.5028C41.8742 15.9754 42.9624 15.0823 43.728 13.9365C44.4936 12.7906 44.9023 11.4435 44.9023 10.0654C44.9002 8.21809 44.1654 6.44705 42.8591 5.14081C41.5529 3.83456 39.7818 3.09978 37.9345 3.09766ZM38.7087 4.70217C39.8658 4.87101 40.9374 5.40885 41.7643 6.23568C42.5911 7.0625 43.1289 8.13415 43.2978 9.2912H38.7087V4.70217ZM32.5152 10.0654C32.517 8.7628 32.9873 7.50432 33.8401 6.51969C34.6929 5.53506 35.8714 4.88997 37.1603 4.70217V9.74508L33.5962 13.3093C32.8934 12.3739 32.514 11.2353 32.5152 10.0654ZM37.9345 15.4848C36.7646 15.486 35.626 15.1065 34.6907 14.4038L38.2549 10.8396H43.2978C43.11 12.1286 42.4649 13.307 41.4803 14.1598C40.4956 15.0126 39.2371 15.4829 37.9345 15.4848ZM35.6121 18.582H43.354C43.5593 18.582 43.7563 18.6636 43.9015 18.8088C44.0466 18.954 44.1282 19.1509 44.1282 19.3562C44.1282 19.5616 44.0466 19.7585 43.9015 19.9037C43.7563 20.0489 43.5593 20.1304 43.354 20.1304H35.6121C35.4068 20.1304 35.2098 20.0489 35.0646 19.9037C34.9195 19.7585 34.8379 19.5616 34.8379 19.3562C34.8379 19.1509 34.9195 18.954 35.0646 18.8088C35.2098 18.6636 35.4068 18.582 35.6121 18.582ZM43.3547 20.9023H35.6128C35.5111 20.9023 35.4105 20.9224 35.3165 20.9613C35.2226 21.0002 35.1372 21.0572 35.0653 21.1291L32.3557 23.8388C32.2105 23.984 32.1289 24.1809 32.1289 24.3862C32.1289 24.5915 32.2105 24.7885 32.3557 24.9337C32.5009 25.0789 32.6978 25.1604 32.9031 25.1604C33.1085 25.1604 33.3054 25.0789 33.4506 24.9337L35.9335 22.4507H43.3547C43.5601 22.4507 43.757 22.3692 43.9022 22.224C44.0474 22.0788 44.1289 21.8819 44.1289 21.6765C44.1289 21.4712 44.0474 21.2743 43.9022 21.1291C43.757 20.9839 43.5601 20.9023 43.3547 20.9023ZM16.2577 12.3882V19.356C16.4631 19.356 16.66 19.4375 16.8052 19.5827C16.9504 19.7279 17.0319 19.9248 17.0319 20.1302C17.0319 20.3355 16.9504 20.5324 16.8052 20.6776C16.66 20.8228 16.4631 20.9044 16.2577 20.9044H3.09646C2.89113 20.9044 2.69421 20.8228 2.54902 20.6776C2.40383 20.5324 2.32227 20.3355 2.32227 20.1302C2.32227 19.9248 2.40383 19.7279 2.54902 19.5827C2.69421 19.4375 2.89113 19.356 3.09646 19.356V11.614C3.09646 11.4087 3.17803 11.2118 3.32322 11.0666C3.4684 10.9214 3.66532 10.8398 3.87065 10.8398H6.19323C6.39856 10.8398 6.59548 10.9214 6.74067 11.0666C6.88586 11.2118 6.96743 11.4087 6.96743 11.614V19.356H7.74162V14.7108C7.74162 14.5055 7.82319 14.3086 7.96838 14.1634C8.11357 14.0182 8.31049 13.9366 8.51581 13.9366H10.8384C11.0437 13.9366 11.2406 14.0182 11.3858 14.1634C11.531 14.3086 11.6126 14.5055 11.6126 14.7108V19.356H12.3868V12.3882C12.3868 12.1829 12.4683 11.986 12.6135 11.8408C12.7587 11.6956 12.9556 11.614 13.161 11.614H15.4836C15.6889 11.614 15.8858 11.6956 16.031 11.8408C16.1762 11.986 16.2577 12.1829 16.2577 12.3882ZM4.64485 19.356H5.41904V12.3882H4.64485V19.356ZM9.29001 19.356H10.0642V15.485H9.29001V19.356ZM13.9352 19.356H14.7094V13.1624H13.9352V19.356ZM3.09646 23.2242H11.292L14.549 26.4813C14.6942 26.6265 14.8911 26.7081 15.0965 26.7081C15.3018 26.7081 15.4987 26.6265 15.6439 26.4813C15.7891 26.3361 15.8707 26.1392 15.8707 25.9338C15.8707 25.7285 15.7891 25.5316 15.6439 25.3864L12.16 21.9025C12.0881 21.8306 12.0028 21.7736 11.9089 21.7347C11.8149 21.6958 11.7143 21.6758 11.6126 21.6758H3.09646C2.89113 21.6758 2.69421 21.7573 2.54902 21.9025C2.40383 22.0477 2.32227 22.2446 2.32227 22.45C2.32227 22.6553 2.40383 22.8522 2.54902 22.9974C2.69421 23.1426 2.89113 23.2242 3.09646 23.2242ZM6.74067 25.3216C6.59548 25.4668 6.39856 25.5484 6.19323 25.5484H3.09646C2.89113 25.5484 2.69421 25.4668 2.54902 25.3216C2.40383 25.1764 2.32227 24.9795 2.32227 24.7742C2.32227 24.5689 2.40383 24.3719 2.54902 24.2268C2.69421 24.0816 2.89113 24 3.09646 24H6.19323C6.39856 24 6.59548 24.0816 6.74067 24.2268C6.88586 24.3719 6.96743 24.5689 6.96743 24.7742C6.96743 24.9795 6.88586 25.1764 6.74067 25.3216Z" fill="#24EBA3"/>
</svg>
