<svg width="20" height="20" viewBox="0 0 20 20" xmlns="http://www.w3.org/2000/svg">
  <path fill="#363636" id="Vector" fill-rule="nonzero" clip-rule="nonzero" d="M10 18.3334C14.6024 18.3334 18.3334 14.6024 18.3334 10C18.3334 5.39765 14.6024 1.66669 10 1.66669C5.39765 1.66669 1.66669 5.39765 1.66669 10C1.66669 14.6024 5.39765 18.3334 10 18.3334ZM10.3914 7.05808C10.6355 6.814 11.0312 6.814 11.2753 7.05808L13.7753 9.55808C14.0194 9.80216 14.0194 10.1979 13.7753 10.442L11.2753 12.942C11.0312 13.186 10.6355 13.186 10.3914 12.942C10.1473 12.6979 10.1473 12.3022 10.3914 12.0581L11.8245 10.625H6.66669C6.32151 10.625 6.04169 10.3452 6.04169 10C6.04169 9.65484 6.32151 9.37502 6.66669 9.37502H11.8245L10.3914 7.94196C10.1473 7.69788 10.1473 7.30216 10.3914 7.05808Z"/>
</svg>
