<svg width="26" height="28" viewBox="0 0 26 28" fill="none" xmlns="http://www.w3.org/2000/svg">
<g id="Rocket">
<path id="Vector" d="M22.6002 21.0043C22.6002 17.5168 20.5565 14.5043 17.6002 13.1011V7.9199C17.6002 7.44802 17.4346 6.99177 17.1283 6.6324L12.3658 0.985523C12.1658 0.748023 11.8815 0.629272 11.6002 0.629272C11.319 0.629272 11.0346 0.748023 10.8346 0.985523L6.0721 6.6324C5.76793 6.99251 5.6008 7.44852 5.60022 7.9199V13.1011C2.64397 14.5043 0.60022 17.5168 0.60022 21.0043H5.49085C5.41897 21.2293 5.38147 21.473 5.38147 21.748C5.38147 22.4387 5.61897 23.1136 6.05022 23.648C6.40223 24.0851 6.86842 24.4161 7.3971 24.6043C8.11897 26.2918 9.7596 27.3793 11.6002 27.3793C12.5096 27.3793 13.3908 27.1105 14.144 26.6043C14.8815 26.1105 15.4533 25.4199 15.8002 24.6043C16.3287 24.4172 16.7949 24.0873 17.1471 23.6511C17.5789 23.1119 17.8147 22.442 17.8158 21.7512C17.8158 21.4887 17.7815 21.2386 17.719 21.0074H22.6002V21.0043ZM19.4221 17.423C19.7158 17.8793 19.9533 18.3699 20.1252 18.8793H17.4752V15.4636C18.2549 15.9724 18.9183 16.6401 19.4221 17.423ZM7.72522 13.1011V7.96677L11.6002 3.37302L15.4752 7.96677V18.8793H7.72522V13.1011ZM3.07522 18.8793C3.24709 18.3699 3.4846 17.8793 3.77835 17.423C4.28772 16.6355 4.95022 15.9699 5.72522 15.4636V18.8793H3.07522ZM15.2283 22.5105C15.0658 22.6043 14.8783 22.6418 14.694 22.6168L14.0846 22.5418L13.9971 23.148C13.8283 24.3324 12.7971 25.2262 11.6002 25.2262C10.4033 25.2262 9.3721 24.3324 9.20335 23.148L9.11585 22.5386L8.50647 22.6168C8.32121 22.6389 8.13378 22.6005 7.9721 22.5074C7.70022 22.3511 7.53147 22.0605 7.53147 21.7449C7.53147 21.4137 7.71585 21.1387 7.98772 21.0012H15.2158C15.4908 21.1418 15.6721 21.4168 15.6721 21.7449C15.669 22.0637 15.5002 22.3574 15.2283 22.5105ZM10.1002 10.5043C10.1002 10.9021 10.2583 11.2836 10.5396 11.5649C10.8209 11.8462 11.2024 12.0043 11.6002 12.0043C11.998 12.0043 12.3796 11.8462 12.6609 11.5649C12.9422 11.2836 13.1002 10.9021 13.1002 10.5043C13.1002 10.1064 12.9422 9.72492 12.6609 9.44361C12.3796 9.16231 11.998 9.00427 11.6002 9.00427C11.2024 9.00427 10.8209 9.16231 10.5396 9.44361C10.2583 9.72492 10.1002 10.1064 10.1002 10.5043Z" fill="#363636"/>
</g>
</svg>
