<svg width="16" height="16" viewBox="0 0 16 16" fill="none" xmlns="http://www.w3.org/2000/svg">
<g id="ph:article">
<path id="Vector" d="M14.7692 1.23175H1.23077C0.904349 1.23175 0.591298 1.36142 0.360484 1.59223C0.12967 1.82305 0 2.1361 0 2.46252V13.5394C0 13.8659 0.12967 14.1789 0.360484 14.4097C0.591298 14.6405 0.904349 14.7702 1.23077 14.7702H14.7692C15.0957 14.7702 15.4087 14.6405 15.6395 14.4097C15.8703 14.1789 16 13.8659 16 13.5394V2.46252C16 2.1361 15.8703 1.82305 15.6395 1.59223C15.4087 1.36142 15.0957 1.23175 14.7692 1.23175ZM14.7692 13.5394H1.23077V2.46252H14.7692V13.5394ZM12.3077 5.53944C12.3077 5.70265 12.2429 5.85918 12.1275 5.97459C12.012 6.08999 11.8555 6.15483 11.6923 6.15483H4.30769C4.14448 6.15483 3.98796 6.08999 3.87255 5.97459C3.75714 5.85918 3.69231 5.70265 3.69231 5.53944C3.69231 5.37623 3.75714 5.21971 3.87255 5.1043C3.98796 4.98889 4.14448 4.92406 4.30769 4.92406H11.6923C11.8555 4.92406 12.012 4.98889 12.1275 5.1043C12.2429 5.21971 12.3077 5.37623 12.3077 5.53944ZM12.3077 8.00098C12.3077 8.16419 12.2429 8.32072 12.1275 8.43612C12.012 8.55153 11.8555 8.61637 11.6923 8.61637H4.30769C4.14448 8.61637 3.98796 8.55153 3.87255 8.43612C3.75714 8.32072 3.69231 8.16419 3.69231 8.00098C3.69231 7.83777 3.75714 7.68125 3.87255 7.56584C3.98796 7.45043 4.14448 7.3856 4.30769 7.3856H11.6923C11.8555 7.3856 12.012 7.45043 12.1275 7.56584C12.2429 7.68125 12.3077 7.83777 12.3077 8.00098ZM12.3077 10.4625C12.3077 10.6257 12.2429 10.7823 12.1275 10.8977C12.012 11.0131 11.8555 11.0779 11.6923 11.0779H4.30769C4.14448 11.0779 3.98796 11.0131 3.87255 10.8977C3.75714 10.7823 3.69231 10.6257 3.69231 10.4625C3.69231 10.2993 3.75714 10.1428 3.87255 10.0274C3.98796 9.91197 4.14448 9.84713 4.30769 9.84713H11.6923C11.8555 9.84713 12.012 9.91197 12.1275 10.0274C12.2429 10.1428 12.3077 10.2993 12.3077 10.4625Z" fill="#363636"/>
</g>
</svg>
