<svg width="46" height="46" viewBox="0 0 46 46" fill="none" xmlns="http://www.w3.org/2000/svg">
<g clip-path="url(#clip0_856_15824)">
<path d="M23 46C35.7025 46 46 35.7025 46 23C46 10.2975 35.7025 0 23 0C10.2975 0 0 10.2975 0 23C0 35.7025 10.2975 46 23 46Z" fill="#27273D"/>
<path d="M46 23C46 35.7021 35.7021 46 23 46C10.2979 46 0 35.7021 0 23C0 22.4208 0.021263 21.8467 0.0637891 21.2777C0.0979297 20.8165 0.145547 20.3595 0.206641 19.9067C0.35834 18.7775 0.594086 17.6613 0.911914 16.5672C1.08082 15.9856 1.27189 15.4142 1.48512 14.853C1.70254 14.2792 1.94212 13.7167 2.20387 13.1657C3.02477 11.4328 4.0591 9.80929 5.28281 8.33301C5.39062 8.20184 5.50113 8.07246 5.61164 7.94488C5.88656 7.62743 6.16957 7.31807 6.46066 7.0168C6.58225 6.89102 6.70474 6.76823 6.82812 6.64844C6.90988 6.56758 6.99254 6.48672 7.0752 6.40766C7.15785 6.32859 7.23961 6.25133 7.32227 6.17316C7.72776 5.79582 8.14703 5.43285 8.58008 5.08426H8.58547C9.79326 4.11139 11.0963 3.26314 12.4748 2.55246C12.8881 2.33863 13.3074 2.13768 13.7326 1.94961C14.6532 1.54325 15.5999 1.19869 16.5663 0.918203C17.0185 0.785234 17.4761 0.665443 17.9391 0.558828C18.5494 0.421667 19.1688 0.309063 19.7971 0.221016C20.0253 0.18957 20.2544 0.16082 20.4844 0.136562C20.6748 0.115 20.8653 0.0970313 21.0576 0.0817578C21.6973 0.0269531 22.3459 0 23 0C35.7021 0 46 10.2979 46 23Z" fill="#1B35A5"/>
<path d="M21.0573 0.0817261V2.25325L16.6648 6.64841L14.9775 8.33298L13.4035 9.90704L10.488 12.8225L8.58336 14.7263L7.32555 15.9841L2.03195 21.2777H0.0634766C0.0976172 20.8165 0.145234 20.3595 0.206328 19.9066C0.358028 18.7775 0.593773 17.6612 0.911602 16.5672L7.32195 10.1568L7.57262 9.90704L8.58336 8.8945L9.14668 8.33208L13.7341 3.74466L16.5678 0.910984C17.0188 0.782807 17.4758 0.665411 17.9388 0.558796C18.5491 0.421635 19.1685 0.309031 19.7968 0.220984C20.025 0.189539 20.2541 0.160789 20.4841 0.136531C20.6745 0.114968 20.865 0.0969995 21.0573 0.0817261Z" fill="white"/>
<path d="M21.0573 17.5609V21.2777H18.9441L13.7332 16.0668L7.57262 9.9071L5.99945 8.33304L5.61133 7.94491C5.88625 7.62747 6.16926 7.3181 6.46035 7.01683C6.58194 6.89105 6.70443 6.76826 6.82781 6.64847C6.90957 6.56761 6.99223 6.48675 7.07488 6.40769C7.15754 6.32863 7.2393 6.25136 7.32195 6.1732C7.72745 5.79585 8.14672 5.43288 8.57977 5.08429L10.4898 6.99437L13.4053 9.9098L16.6639 13.1684L18.3512 14.8557L21.0573 17.5609Z" fill="white"/>
<path d="M20.4847 0.136597L13.6045 7.01683H11.4814L12.4697 6.02855L13.7275 4.77074L17.9322 0.56605C18.5426 0.428888 19.1619 0.316284 19.7902 0.228237C20.0256 0.189604 20.2547 0.160854 20.4847 0.136597Z" fill="#DB1B1B"/>
<path d="M21.0575 18.3021V20.4251L15.8564 15.2249H17.9795L21.0575 18.3021Z" fill="#DB1B1B"/>
<path d="M7.6873 7.01679H6.46094C6.58253 6.89101 6.70501 6.76823 6.8284 6.64844C6.91016 6.56758 6.99281 6.48672 7.07547 6.40765L7.6873 7.01679Z" fill="#DB1B1B"/>
<path d="M21.0576 6.64842V14.8556H13.7344V21.2804H7.32227V14.853H1.48242C1.69984 14.2792 1.93943 13.7167 2.20117 13.1657C3.02291 11.4326 4.05816 9.80913 5.28281 8.33299C5.39062 8.20182 5.50113 8.07245 5.61164 7.94487C5.88656 7.62742 6.16957 7.31806 6.46066 7.01678C6.58225 6.891 6.70474 6.76821 6.82812 6.64842H7.32227V6.17045C7.72776 5.79311 8.14703 5.43014 8.58008 5.08155H8.58547C9.79326 4.10868 11.0963 3.26043 12.4748 2.54975C12.8881 2.33592 13.3074 2.13497 13.7326 1.9469V6.64842H21.0576Z" fill="white"/>
<path d="M20.5198 34.128L17.042 31.8487L19.2602 28.5505L15.3628 29.9898L14.1032 26.0322L12.8436 29.9898L8.94613 28.5505L11.1653 31.8487L7.68652 34.128L11.8247 34.4272L11.1653 38.7451L14.1032 35.5071L17.042 38.7451L16.3816 34.4272L20.5198 34.128Z" fill="white"/>
<path d="M36.3016 9.13981L34.6422 8.0527L35.7006 6.47953L33.8417 7.16594L33.2407 5.27832L32.6396 7.16594L30.7807 6.47953L31.8391 8.0527L30.1797 9.13981L32.1536 9.28356L31.8391 11.3428L33.2407 9.79836L34.6422 11.3428L34.3278 9.28356L36.3016 9.13981Z" fill="white"/>
<path d="M29.122 20.9596L27.4625 19.8725L28.5209 18.2993L26.6611 18.9857L26.061 17.0972L25.4599 18.9857L23.6011 18.2993L24.6594 19.8725L23 20.9596L24.9739 21.1025L24.6594 23.1617L26.061 21.6173L27.4625 23.1617L27.1481 21.1025L29.122 20.9596Z" fill="white"/>
<path d="M43.3173 16.5672L41.6579 15.4801L42.7162 13.9069L40.8564 14.5933L40.2563 12.7057L39.6552 14.5933L37.7964 13.9069L38.8547 15.4801L37.1953 16.5672L39.1692 16.71L38.8547 18.7701L40.2563 17.2248L41.6579 18.7701L41.3434 16.71L43.3173 16.5672Z" fill="white"/>
<path d="M36.3016 38.5636L34.6422 37.4765L35.7006 35.9034L33.8417 36.5898L33.2407 34.7021L32.6396 36.5898L30.7807 35.9034L31.8391 37.4765L30.1797 38.5636L32.1536 38.7065L31.8391 40.7666L33.2407 39.2222L34.6422 40.7666L34.3278 38.7065L36.3016 38.5636Z" fill="white"/>
<path d="M37.9445 24.7996L38.4898 26.4787H40.2562L38.8277 27.5173L39.373 29.1965L37.9445 28.1588L36.516 29.1965L37.0613 27.5173L35.6328 26.4787H37.3982L37.9445 24.7996Z" fill="white"/>
<path d="M25.2461 45.8913C24.507 45.9638 23.7583 46 23 46C10.2979 46 0 35.7021 0 23C0 22.4208 0.021263 21.8467 0.0637891 21.2777C0.0979297 20.8165 0.145547 20.3595 0.206641 19.9067C0.35834 18.7775 0.594086 17.6613 0.911914 16.5672C1.08082 15.9856 1.27189 15.4142 1.48512 14.853C1.70254 14.2792 1.94212 13.7167 2.20387 13.1657C3.02477 11.4328 4.0591 9.80929 5.28281 8.33301C5.39062 8.20184 5.50113 8.07246 5.61164 7.94488C5.88656 7.62743 6.16957 7.31807 6.46066 7.0168C6.58225 6.89102 6.70474 6.76823 6.82812 6.64844C6.90988 6.56758 6.99254 6.48672 7.0752 6.40766C7.15785 6.32859 7.23961 6.25133 7.32227 6.17316C7.72776 5.79582 8.14703 5.43285 8.58008 5.08426H8.58547C9.79326 4.11139 11.0963 3.26314 12.4748 2.55246C12.8881 2.33863 13.3074 2.13768 13.7326 1.94961C14.6532 1.54325 15.5999 1.19869 16.5663 0.918203C17.0185 0.785234 17.4761 0.665443 17.9391 0.558828C18.5494 0.421667 19.1688 0.309063 19.7971 0.221016C20.0253 0.18957 20.2544 0.16082 20.4844 0.136562C20.6748 0.115 20.8653 0.0970313 21.0576 0.0817578C21.6973 0.0269531 22.3459 0 23 0C23.7571 0 24.5058 0.036237 25.2461 0.108711C23.8282 0.245274 22.4262 0.514179 21.0585 0.911914C20.3589 1.11496 19.6743 1.35005 19.0046 1.61719C17.3954 2.2565 15.8636 3.076 14.4388 4.06004L13.7344 4.76172V4.56496C13.302 4.8884 12.8827 5.22651 12.4766 5.5793C10.0396 7.67591 8.06945 10.2603 6.69336 13.1657C6.43221 13.7161 6.19263 14.2786 5.97461 14.853C5.92789 14.9761 5.88477 15.1 5.83805 15.2249C5.635 15.7867 5.45531 16.3584 5.29898 16.94C5.17201 17.4042 5.0597 17.8744 4.96207 18.3506C4.64872 19.8805 4.49129 21.4383 4.49219 23C4.49219 34.9492 13.5961 44.7638 25.2461 45.8913Z" fill="#1A358E"/>
<path d="M21.0573 0.0817261V0.911882C20.3583 1.11493 19.674 1.35002 19.0043 1.61716C17.395 2.25647 15.8633 3.07597 14.4385 4.06001L13.7341 4.76169V4.56493C13.3017 4.88837 12.8824 5.22648 12.4763 5.57927C10.0393 7.67588 8.06913 10.2603 6.69305 13.1657C6.4319 13.7161 6.19232 14.2785 5.9743 14.8529C5.92758 14.976 5.88445 15.1 5.83773 15.2249C5.63469 15.7867 5.455 16.3584 5.29867 16.94C5.17169 17.4042 5.05939 17.8744 4.96176 18.3506L2.03195 21.2777H0.0634766C0.0976172 20.8165 0.145234 20.3595 0.206328 19.9066C0.358028 18.7775 0.593773 17.6612 0.911602 16.5672L2.62582 14.8529L4.31219 13.1657L7.32195 10.1568L7.57262 9.90704L8.58336 8.8945L9.14668 8.33208L10.488 6.99071L12.4727 5.00606L13.7305 3.74825L16.5642 0.914578C17.0176 0.784005 17.4758 0.665411 17.9388 0.558796C18.5491 0.421635 19.1685 0.309031 19.7968 0.220984C20.025 0.189539 20.2541 0.160789 20.4841 0.136531C20.6745 0.114968 20.865 0.0969995 21.0573 0.0817261Z" fill="#DDDBDB"/>
<path d="M10.7369 7.24054C9.78677 8.25196 8.9295 9.34677 8.17547 10.5118L7.57441 9.9107L5.99945 8.33304L5.61133 7.94491C5.88625 7.62747 6.16926 7.3181 6.46035 7.01683C6.58194 6.89105 6.70443 6.76826 6.82781 6.64847C6.90957 6.56761 6.99223 6.48675 7.07488 6.40769C7.15754 6.32863 7.2393 6.25136 7.32195 6.1732C7.72745 5.79585 8.14672 5.43288 8.57977 5.08429L10.7369 7.24054Z" fill="white"/>
<path d="M20.4841 0.136597L19.0043 1.61722C17.395 2.25653 15.8633 3.07604 14.4385 4.06007L17.9424 0.556167C18.5527 0.419006 19.172 0.306401 19.8004 0.218355C20.025 0.189605 20.2541 0.160854 20.4841 0.136597Z" fill="#BF1B1B"/>
<path d="M7.6873 7.01679H6.46094C6.58253 6.89101 6.70501 6.76823 6.8284 6.64844C6.91016 6.56758 6.99281 6.48672 7.07547 6.40765L7.6873 7.01679Z" fill="#DB1B1B"/>
<path d="M13.7344 1.9433V4.56494C13.302 4.88838 12.8827 5.22649 12.4766 5.57928C10.0396 7.67589 8.06945 10.2603 6.69336 13.1657C6.43221 13.7161 6.19263 14.2785 5.97461 14.8529H1.48242C1.69984 14.2791 1.93943 13.7167 2.20117 13.1657C3.02291 11.4326 4.05816 9.80912 5.28281 8.33299C5.39062 8.20181 5.50113 8.07244 5.61164 7.94486C5.88656 7.62741 6.16957 7.31805 6.46066 7.01678C6.58225 6.89099 6.70474 6.76821 6.82812 6.64842H7.32227V6.17045C7.72776 5.7931 8.14703 5.43013 8.58008 5.08154H8.58547C9.79326 4.10867 11.0963 3.26042 12.4748 2.54974C12.8869 2.33352 13.3068 2.13137 13.7344 1.9433Z" fill="#DDDBDB"/>
<path d="M21.0579 8.33304V13.1657H12.4733V21.2777H8.58398V13.1657H2.20508C3.0257 11.4329 4.05973 9.80938 5.28312 8.33304H8.58398V5.078C9.79178 4.10513 11.0948 3.25688 12.4733 2.5462V8.33304H21.0579Z" fill="#DB1B1B"/>
<path d="M12.473 2.5462V5.57933C10.0373 7.6763 8.0684 10.2607 6.69336 13.1657H2.20117C3.02291 11.4327 4.05816 9.80918 5.28281 8.33304H8.58367V5.078C9.79146 4.10513 11.0945 3.25688 12.473 2.5462Z" fill="#BF1B1B"/>
<path d="M7.0075 15.2249L0.95832 21.2777H0.0634766C0.0976172 20.8165 0.145234 20.3595 0.206328 19.9067L4.88898 15.2249H7.0075Z" fill="#DB1B1B"/>
<path d="M5.83953 15.2249C5.63648 15.7867 5.4568 16.3584 5.30047 16.94L0.95832 21.2777H0.0634766C0.0976172 20.8165 0.145234 20.3595 0.206328 19.9067L4.88898 15.2249H5.83953Z" fill="#BF1B1B"/>
<path d="M42.698 26.2667C43.5058 26.2667 44.1607 25.6119 44.1607 24.8041C44.1607 23.9963 43.5058 23.3414 42.698 23.3414C41.8902 23.3414 41.2354 23.9963 41.2354 24.8041C41.2354 25.6119 41.8902 26.2667 42.698 26.2667Z" fill="#2548B7"/>
<path d="M42.698 22.7934C43.2701 22.7934 43.7339 22.3296 43.7339 21.7575C43.7339 21.1853 43.2701 20.7216 42.698 20.7216C42.1259 20.7216 41.6621 21.1853 41.6621 21.7575C41.6621 22.3296 42.1259 22.7934 42.698 22.7934Z" fill="#2548B7"/>
</g>
<defs>
<clipPath id="clip0_856_15824">
<rect width="46" height="46" fill="white"/>
</clipPath>
</defs>
</svg>
