<?xml version="1.0" encoding="UTF-8"?>
<svg width="218px" height="14px" viewBox="0 0 218 14" version="1.1" xmlns="http://www.w3.org/2000/svg" xmlns:xlink="http://www.w3.org/1999/xlink">
    <title>squiggly-short</title>
    <g id="PHASE-2-[Desktop]" stroke="none" stroke-width="1" fill="none" fill-rule="evenodd">
        <g id="01-Homepage" transform="translate(-465.000000, -3641.000000)" fill="#5C5AEA" fill-rule="nonzero">
            <g id="Group-6" transform="translate(229.000000, 3641.000000)">
                <g id="Group-34" transform="translate(236.000000, 0.000000)">
                    <path d="M3.40625,6 L0,6 L0,0 L3.40625,0 C11.3700862,0 15.5271743,1.13381839 22.5674608,4.33413803 C28.726393,7.13381839 31.9022043,8 38.6041667,8 C45.306129,8 48.4819403,7.13381839 54.6408726,4.33413803 C61.681159,1.13381839 65.8382471,0 73.8020833,0 C81.7659196,0 85.9230076,1.13381839 92.9632941,4.33413803 C99.1222264,7.13381839 102.298038,8 109,8 C115.701962,8 118.877774,7.13381839 125.036706,4.33413803 C132.076992,1.13381839 136.23408,0 144.197917,0 C152.161753,0 156.318841,1.13381839 163.359127,4.33413803 C169.51806,7.13381839 172.693871,8 179.395833,8 C186.097796,8 189.273607,7.13381839 195.432539,4.33413803 C202.472826,1.13381839 206.629914,0 214.59375,0 L218,0 L218,6 L214.59375,6 C207.891788,6 204.715976,6.86618161 198.557044,9.66586197 C191.516758,12.8661816 187.35967,14 179.395833,14 C171.431997,14 167.274909,12.8661816 160.234623,9.66586197 C154.07569,6.86618161 150.899879,6 144.197917,6 C137.495954,6 134.320143,6.86618161 128.161211,9.66586197 C121.120924,12.8661816 116.963836,14 109,14 C101.036164,14 96.8790757,12.8661816 89.8387892,9.66586197 C83.679857,6.86618161 80.5040457,6 73.8020833,6 C67.100121,6 63.9243097,6.86618161 57.7653774,9.66586197 C50.725091,12.8661816 46.5680029,14 38.6041667,14 C30.6403304,14 26.4832424,12.8661816 19.4429559,9.66586197 C13.2840236,6.86618161 10.1082124,6 3.40625,6 Z" id="squiggly-short"></path>
                </g>
            </g>
        </g>
    </g>
</svg>