<svg width="103" height="30" viewBox="0 0 103 30" fill="none" xmlns="http://www.w3.org/2000/svg">
<path d="M13.692 2.1637C15.1748 0.773607 17.1311 0 19.1636 0H95C99.4183 0 103 3.58172 103 8V22C103 26.4183 99.4183 30 95 30H19.1636C17.1311 30 15.1748 29.2264 13.6921 27.8363L3.11269 17.9181C1.42705 16.3379 1.42705 13.6621 3.11269 12.0819L13.692 2.1637Z" fill="#FFCC00"/>
<path opacity="0.6" d="M23.092 21.252C25.396 21.252 27.412 20.118 28.492 18.336L26.008 16.896C25.468 17.868 24.37 18.444 23.092 18.444C20.86 18.444 19.42 16.95 19.42 14.7C19.42 12.45 20.86 10.956 23.092 10.956C24.37 10.956 25.45 11.532 26.008 12.504L28.492 11.064C27.394 9.282 25.378 8.148 23.092 8.148C19.294 8.148 16.54 10.992 16.54 14.7C16.54 18.408 19.294 21.252 23.092 21.252ZM37.0417 8.4V13.224H33.0817V8.4H30.2017V21H33.0817V15.996H37.0417V21H39.9217V8.4H37.0417ZM48.4565 21.252C52.0745 21.252 55.0085 18.408 55.0085 14.7C55.0085 10.992 52.0745 8.148 48.4565 8.148C44.8385 8.148 41.9045 10.992 41.9045 14.7C41.9045 18.408 44.8385 21.252 48.4565 21.252ZM48.4565 18.444C46.4045 18.444 44.7845 16.95 44.7845 14.7C44.7845 12.45 46.4045 10.956 48.4565 10.956C50.5085 10.956 52.1285 12.45 52.1285 14.7C52.1285 16.95 50.5085 18.444 48.4565 18.444ZM63.0021 21.252C66.6201 21.252 69.5541 18.408 69.5541 14.7C69.5541 10.992 66.6201 8.148 63.0021 8.148C59.3841 8.148 56.4501 10.992 56.4501 14.7C56.4501 18.408 59.3841 21.252 63.0021 21.252ZM63.0021 18.444C60.9501 18.444 59.3301 16.95 59.3301 14.7C59.3301 12.45 60.9501 10.956 63.0021 10.956C65.0541 10.956 66.6741 12.45 66.6741 14.7C66.6741 16.95 65.0541 18.444 63.0021 18.444ZM75.4886 21.252C78.2246 21.252 80.1686 19.812 80.1686 17.382C80.1686 14.718 78.0266 14.052 76.1186 13.476C74.1566 12.882 73.8506 12.486 73.8506 11.91C73.8506 11.406 74.3006 10.956 75.2006 10.956C76.3526 10.956 76.9466 11.514 77.3786 12.414L79.8086 10.992C78.8906 9.138 77.2706 8.148 75.2006 8.148C73.0226 8.148 70.9706 9.552 70.9706 11.982C70.9706 14.394 72.8066 15.294 74.6786 15.816C76.5686 16.338 77.2886 16.644 77.2886 17.418C77.2886 17.904 76.9466 18.444 75.5786 18.444C74.1566 18.444 73.3826 17.742 72.9326 16.698L70.4486 18.138C71.1506 19.992 72.8426 21.252 75.4886 21.252ZM84.76 18.228V15.996H89.26V13.26H84.76V11.172H89.71V8.4H81.88V21H89.8V18.228H84.76Z" fill="black"/>
</svg>
