<svg width="19" height="19" viewBox="0 0 19 19" fill="none" xmlns="http://www.w3.org/2000/svg">
<path d="M19 9.5C19 12.0196 17.9991 14.4359 16.2175 16.2175C14.4359 17.9991 12.0196 19 9.5 19C6.98044 19 4.56408 17.9991 2.78249 16.2175C1.00089 14.4359 0 12.0196 0 9.5C0 6.98044 1.00089 4.56408 2.78249 2.78249C4.56408 1.00089 6.98044 0 9.5 0C12.0196 0 14.4359 1.00089 16.2175 2.78249C17.9991 4.56408 19 6.98044 19 9.5ZM6.5265 7.16419H7.50619C7.67006 7.16419 7.80069 7.03 7.82206 6.86731C7.92894 6.08831 8.46331 5.52069 9.41569 5.52069C10.2303 5.52069 10.9761 5.928 10.9761 6.90769C10.9761 7.66175 10.5319 8.0085 9.83012 8.53575C9.03094 9.11644 8.398 9.7945 8.44312 10.8953L8.44669 11.153C8.44793 11.2309 8.47976 11.3052 8.5353 11.3599C8.59084 11.4145 8.66564 11.4451 8.74356 11.4451H9.70662C9.78536 11.4451 9.86087 11.4138 9.91655 11.3582C9.97222 11.3025 10.0035 11.227 10.0035 11.1482V11.0236C10.0035 10.1709 10.3277 9.92275 11.2029 9.25894C11.9261 8.70912 12.6801 8.09875 12.6801 6.81744C12.6801 5.02313 11.1649 4.15625 9.50594 4.15625C8.00138 4.15625 6.35313 4.85687 6.24031 6.87087C6.23869 6.90922 6.24492 6.9475 6.25864 6.98335C6.27235 7.0192 6.29325 7.05187 6.32006 7.07934C6.34687 7.10681 6.37901 7.12851 6.41451 7.1431C6.45001 7.15769 6.48812 7.16487 6.5265 7.16419ZM9.28744 14.8152C10.0118 14.8152 10.5094 14.3474 10.5094 13.7144C10.5094 13.0589 10.0106 12.5982 9.28744 12.5982C8.59394 12.5982 8.08925 13.0589 8.08925 13.7144C8.08925 14.3474 8.59394 14.8152 9.28862 14.8152H9.28744Z" fill="#363636"/>
</svg>
