<svg width="19" height="18" viewBox="0 0 19 18" fill="none" xmlns="http://www.w3.org/2000/svg">
<path opacity="0.6" d="M8.61555 1.17634C8.99076 0.465194 10.0092 0.465192 10.3844 1.17634L12.4799 5.14788C12.6246 5.42212 12.8883 5.61373 13.1938 5.6666L17.6185 6.43218C18.4108 6.56926 18.7255 7.5379 18.1651 8.1145L15.0355 11.3346C14.8194 11.557 14.7186 11.867 14.7628 12.1739L15.402 16.6186C15.5164 17.4145 14.6924 18.0131 13.9709 17.6584L9.94125 15.677C9.66299 15.5401 9.33701 15.5401 9.05875 15.677L5.02912 17.6584C4.30757 18.0131 3.4836 17.4145 3.59805 16.6186L4.23724 12.1739C4.28138 11.867 4.18064 11.557 3.96453 11.3346L0.834891 8.1145C0.274496 7.5379 0.589223 6.56926 1.38151 6.43218L5.80619 5.6666C6.11172 5.61373 6.37545 5.42213 6.52014 5.14788L8.61555 1.17634Z" fill="black"/>
</svg>
