<svg width="24" height="18" viewBox="0 0 24 18" fill="none" xmlns="http://www.w3.org/2000/svg">
<path d="M22.5185 0.980566L22.5194 0.98146C22.6717 1.13341 22.7926 1.31392 22.875 1.51265C22.9575 1.71138 22.9999 1.92442 22.9999 2.13958C22.9999 2.35474 22.9575 2.56779 22.875 2.76652C22.7926 2.96525 22.6717 3.14576 22.5194 3.2977L22.5189 3.29815L9.70433 16.1127L9.70388 16.1132C9.55194 16.2655 9.37143 16.3864 9.1727 16.4688C8.97397 16.5513 8.76092 16.5938 8.54576 16.5938C8.3306 16.5938 8.11755 16.5513 7.91883 16.4688C7.72009 16.3864 7.53959 16.2655 7.38764 16.1132L7.38719 16.1127L0.979895 9.70545C0.827749 9.5533 0.707061 9.37268 0.624721 9.17389L0.165474 9.36412L0.624721 9.17389C0.54238 8.97511 0.5 8.76205 0.5 8.54688C0.5 8.33171 0.54238 8.11865 0.624721 7.91987C0.707061 7.72108 0.82775 7.54046 0.979895 7.38831C1.28717 7.08104 1.70392 6.90842 2.13846 6.90842C2.35363 6.90842 2.56669 6.9508 2.76548 7.03314C2.9642 7.11545 3.14477 7.23608 3.29688 7.38816C3.29693 7.38821 3.29698 7.38826 3.29703 7.38831L8.19205 12.2876C8.28582 12.3815 8.41304 12.4342 8.5457 12.4342C8.67836 12.4342 8.80559 12.3815 8.89938 12.2877L20.2019 0.980947L20.2022 0.980567C20.3542 0.828235 20.5347 0.707376 20.7334 0.624912L20.5424 0.164445L20.7334 0.624911C20.9322 0.542448 21.1452 0.5 21.3604 0.5C21.5755 0.5 21.7886 0.542447 21.9873 0.624912C22.186 0.707376 22.3665 0.828236 22.5185 0.980566Z" stroke="white" stroke-linecap="round" stroke-linejoin="round"/>
</svg>
