<svg width="24" height="18" viewBox="0 0 24 18" fill="none" xmlns="http://www.w3.org/2000/svg">
<path opacity="0.08" d="M22.8725 0.62746C23.0714 0.825854 23.2292 1.06154 23.3368 1.32102C23.4445 1.58049 23.4999 1.85866 23.4999 2.13958C23.4999 2.42051 23.4445 2.69868 23.3368 2.95815C23.2292 3.21762 23.0714 3.45331 22.8725 3.65171L10.0579 16.4663C9.85949 16.6652 9.62381 16.823 9.36433 16.9307C9.10486 17.0383 8.82669 17.0938 8.54576 17.0938C8.26483 17.0938 7.98667 17.0383 7.72719 16.9307C7.46772 16.823 7.23203 16.6652 7.03364 16.4663L0.626342 10.059C0.427767 9.86043 0.270249 9.62469 0.162781 9.36524C0.0553132 9.10579 0 8.82771 0 8.54688C0 8.26605 0.0553132 7.98798 0.162781 7.72852C0.270249 7.46907 0.427767 7.23333 0.626342 7.03476C1.02738 6.63372 1.57131 6.40842 2.13846 6.40842C2.41929 6.40842 2.69737 6.46373 2.95682 6.5712C3.21627 6.67866 3.45201 6.83618 3.65059 7.03476L8.54576 11.9342L19.8482 0.62746C20.0466 0.428564 20.2823 0.270763 20.5418 0.163093C20.8013 0.0554225 21.0794 0 21.3604 0C21.6413 0 21.9194 0.0554225 22.1789 0.163093C22.4384 0.270763 22.6741 0.428564 22.8725 0.62746Z" fill="#363636"/>
</svg>
