<svg width="1920" height="401" viewBox="0 0 1920 401" fill="none" xmlns="http://www.w3.org/2000/svg">
<mask id="mask0_1204_3845" style="mask-type:alpha" maskUnits="userSpaceOnUse" x="347" y="33" width="610" height="293">
<path d="M354.884 189.611C344.924 186.292 344.924 172.203 354.884 168.884L756.642 34.9785C767.526 31.3509 779.504 33.4327 788.526 40.5198L951.452 168.509C958.412 173.977 958.412 184.518 951.452 189.986L788.526 317.975C779.504 325.062 767.526 327.144 756.642 323.517L354.884 189.611Z" fill="black"/>
</mask>
<g mask="url(#mask0_1204_3845)">
<path d="M354.884 189.611C344.924 186.292 344.924 172.203 354.884 168.884L756.642 34.9785C767.526 31.3509 779.504 33.4327 788.526 40.5198L951.452 168.509C958.412 173.977 958.412 184.518 951.452 189.986L788.526 317.975C779.504 325.062 767.526 327.144 756.642 323.517L354.884 189.611Z" fill="#24EBA3"/>
<rect opacity="0.2" x="343.801" y="12.3101" width="204.831" height="333.874" fill="black"/>
<rect opacity="0.1" x="548.631" y="12.3101" width="204.831" height="333.874" fill="black"/>
<rect x="546.583" y="12.3101" width="4.09662" height="333.874" fill="white"/>
<rect x="751.414" y="12.3101" width="4.09662" height="333.874" fill="white"/>
<g clip-path="url(#clip0_1204_3845)">
<path d="M487.718 161.08L478.868 169.931L481.527 172.589L485.838 168.278V178.907C485.838 182.017 483.308 184.547 480.197 184.547H461.394C456.211 184.547 451.993 188.89 451.993 194.074V200.061C449.809 200.84 448.232 202.908 448.232 205.356C448.232 208.466 450.763 210.997 453.873 210.997C456.984 210.997 459.514 208.466 459.514 205.356C459.514 202.908 457.937 200.84 455.754 200.061V194.074C455.754 190.964 458.284 188.308 461.394 188.308H480.197C485.381 188.308 489.599 184.09 489.599 178.907V168.278L493.91 172.59L496.569 169.931L487.718 161.08Z" fill="white"/>
<path d="M490.15 192.745L485.838 197.056L481.527 192.745L478.868 195.404L483.18 199.715L478.868 204.027L481.527 206.686L485.838 202.374L490.15 206.686L492.809 204.027L488.497 199.715L492.809 195.404L490.15 192.745Z" fill="white"/>
<path d="M462.725 165.193L467.037 160.882L471.348 165.193L474.007 162.535L469.695 158.223L474.007 153.912L471.348 151.253L467.037 155.564L462.725 151.253L460.066 153.912L464.378 158.223L460.066 162.535L462.725 165.193Z" fill="white"/>
<path d="M456.305 180.236L458.964 177.577L454.652 173.266L458.964 168.954L456.305 166.295L451.994 170.607L447.682 166.295L445.023 168.954L449.335 173.266L445.023 177.577L447.682 180.236L451.994 175.924L456.305 180.236Z" fill="white"/>
<path d="M487.72 158.098C490.835 158.098 493.361 155.573 493.361 152.457C493.361 149.342 490.835 146.816 487.72 146.816C484.605 146.816 482.079 149.342 482.079 152.457C482.079 155.573 484.605 158.098 487.72 158.098Z" fill="white"/>
</g>
<g clip-path="url(#clip1_1204_3845)">
<path d="M854.325 178.371L854.325 178.376C854.317 180.887 855.286 183.245 857.054 185.024C858.822 186.803 861.177 187.787 863.685 187.795C864.185 187.797 864.664 187.599 865.018 187.247C865.372 186.894 865.571 186.415 865.571 185.915L865.571 181.5C865.571 179.853 865.846 178.246 866.388 176.724C867.246 174.319 868.758 170.904 871.095 168.296C871.787 167.522 871.722 166.334 870.949 165.641C870.175 164.948 868.987 165.014 868.294 165.787C865.55 168.85 863.817 172.739 862.847 175.462C862.16 177.39 861.811 179.422 861.811 181.5L861.811 183.707C861.033 183.429 860.321 182.978 859.721 182.374C858.661 181.308 858.082 179.887 858.085 178.376L858.085 172.146C858.085 167.734 854.495 164.144 850.083 164.144L820.066 164.144C819.061 164.144 818.244 163.327 818.244 162.322C818.244 161.317 819.061 160.5 820.066 160.5L846.444 160.5C847.482 160.5 848.324 159.658 848.324 158.62C848.324 157.582 847.482 156.74 846.444 156.74L838.128 156.74C837.123 156.74 836.306 155.922 836.306 154.918C836.306 153.913 837.123 153.095 838.128 153.095L846.444 153.095C847.482 153.095 848.324 152.254 848.324 151.215C848.324 150.177 847.482 149.336 846.444 149.336L838.128 149.336C837.39 149.336 836.803 149.029 836.518 148.494C836.029 147.578 834.89 147.232 833.975 147.721C833.34 148.059 832.979 148.709 832.979 149.381C832.979 149.68 833.051 149.983 833.201 150.264C833.398 150.633 833.636 150.969 833.905 151.273C833.059 152.252 832.546 153.526 832.546 154.918C832.546 155.556 832.655 156.168 832.853 156.74L820.066 156.74C816.988 156.74 814.484 159.244 814.484 162.322C814.484 165.4 816.988 167.904 820.066 167.904L850.083 167.904C852.422 167.904 854.325 169.807 854.325 172.146L854.325 178.371Z" fill="white"/>
<path d="M844.818 211.418C845.712 210.89 846.008 209.737 845.48 208.844C845.319 208.571 845.135 208.318 844.933 208.08C845.865 207.083 846.436 205.745 846.436 204.276C846.436 203.638 846.327 203.025 846.129 202.454L858.916 202.454C861.994 202.454 864.498 199.949 864.498 196.871C864.498 193.793 861.994 191.289 858.916 191.289L828.899 191.289C826.56 191.289 824.657 189.386 824.657 187.047L824.657 180.817C824.657 180.807 824.657 180.797 824.657 180.787C824.657 178.29 823.688 175.941 821.928 174.169C820.16 172.39 817.805 171.406 815.297 171.398C814.797 171.396 814.318 171.594 813.964 171.946C813.61 172.299 813.411 172.778 813.411 173.278L813.411 177.694C813.411 179.34 813.136 180.947 812.594 182.469C811.736 184.875 810.224 188.29 807.888 190.898C807.566 191.256 807.408 191.705 807.408 192.151C807.408 192.667 807.619 193.181 808.033 193.552C808.807 194.245 809.995 194.18 810.688 193.406C813.431 190.344 815.164 186.455 816.135 183.731C816.822 181.803 817.171 179.772 817.171 177.694L817.171 175.486C817.949 175.765 818.661 176.216 819.261 176.819C820.321 177.886 820.899 179.306 820.897 180.811L820.897 187.047C820.897 191.46 824.487 195.049 828.899 195.049L858.916 195.049C859.921 195.049 860.738 195.867 860.738 196.871C860.738 197.876 859.921 198.694 858.916 198.694L832.538 198.694C831.5 198.694 830.658 199.535 830.658 200.574C830.658 201.612 831.5 202.454 832.538 202.454L840.854 202.454C841.859 202.454 842.676 203.271 842.676 204.276C842.676 205.28 841.859 206.098 840.854 206.098L832.538 206.098C831.5 206.098 830.658 206.94 830.658 207.978C830.658 209.016 831.5 209.858 832.538 209.858L840.672 209.858C841.324 209.858 841.911 210.193 842.243 210.756C842.771 211.65 843.924 211.946 844.818 211.418Z" fill="white"/>
</g>
<g clip-path="url(#clip2_1204_3845)">
<path d="M680.964 196.527C686.292 187.963 681.397 177.972 670.908 177.397C662.158 176.535 656.146 181.018 656.219 189.533C655.411 191.165 653.726 194.547 653.294 195.312C653.053 195.737 652.926 196.221 652.926 196.71C652.926 198.13 653.987 199.34 655.395 199.525L656.526 199.674C656.539 200.418 656.55 201.34 656.559 202.416C656.58 204.84 658.568 206.824 660.991 206.84L662.855 206.851L662.569 209.605C662.514 210.134 662.687 210.662 663.043 211.057C663.399 211.452 663.906 211.678 664.438 211.678H678.678C679.846 211.702 680.786 210.538 680.514 209.4C679.355 203.797 678.832 200.005 680.964 196.527ZM677.788 194.518C675.208 198.729 675.497 202.82 676.377 207.919H666.522L666.807 205.178C666.941 204.108 666.028 203.088 664.949 203.105L661.015 203.08C660.634 203.078 660.321 202.766 660.317 202.385C660.3 200.258 660.274 198.764 660.24 197.943C660.203 197.029 659.514 196.275 658.607 196.156L657.194 195.97C658.154 194.102 659.684 191.004 659.766 190.838C660.043 190.372 659.964 189.275 660.009 188.753C660.386 182.392 664.601 180.727 670.605 181.144C678.349 181.559 681.563 188.259 677.788 194.518Z" fill="white"/>
<path d="M645.874 189.533C645.945 181.018 639.936 176.534 631.185 177.397C620.696 177.972 615.801 187.965 621.129 196.527C623.259 199.999 622.739 203.797 621.578 209.4C621.308 210.536 622.246 211.703 623.415 211.678H637.654C638.736 211.701 639.659 210.68 639.523 209.605L639.238 206.851L641.101 206.84C643.525 206.824 645.513 204.84 645.533 202.416C645.542 201.341 645.554 200.419 645.567 199.674L646.698 199.525C648.106 199.34 649.167 198.13 649.167 196.71C649.167 196.221 649.04 195.738 648.799 195.312C648.367 194.547 646.682 191.165 645.874 189.533ZM643.486 196.156C642.579 196.275 641.89 197.029 641.853 197.943C641.819 198.764 641.793 200.259 641.775 202.385C641.772 202.766 641.459 203.078 641.078 203.08L637.143 203.105C636.066 203.088 635.151 204.108 635.286 205.178L635.57 207.919H625.716C626.595 202.817 626.887 198.736 624.305 194.518C620.531 188.258 623.743 181.56 631.488 181.144C637.495 180.729 641.704 182.389 642.084 188.755C642.129 189.283 642.049 190.368 642.326 190.838C642.409 191.004 643.939 194.102 644.899 195.97L643.486 196.156Z" fill="white"/>
<path d="M656.94 166.532L656.628 166.219C655.894 165.485 654.704 165.485 653.971 166.219C653.237 166.953 653.237 168.143 653.971 168.877L657.49 172.398C658.19 173.125 659.448 173.125 660.148 172.398L663.668 168.877C664.402 168.143 664.402 166.953 663.668 166.219C662.934 165.485 661.744 165.485 661.011 166.219L660.698 166.531C660.961 161.057 658.804 155.65 654.7 152.032C663.648 148.851 673.476 155.866 673.35 165.383C673.35 165.383 673.35 171.336 673.35 171.336C673.35 172.374 674.191 173.216 675.229 173.216C676.267 173.216 677.108 172.374 677.108 171.336V165.383C677.229 152.149 662.712 143.33 651.048 149.515C639.378 143.331 624.868 152.148 624.987 165.383C624.987 165.383 624.987 171.336 624.987 171.336C624.987 172.374 625.828 173.216 626.866 173.216C627.904 173.216 628.745 172.374 628.745 171.336V165.383C628.618 155.868 638.45 148.85 647.395 152.032C643.291 155.65 641.134 161.057 641.397 166.531L641.085 166.219C640.377 165.489 639.135 165.49 638.427 166.219C637.684 166.955 637.706 168.167 638.427 168.877L641.947 172.398C642.647 173.125 643.905 173.125 644.605 172.398L648.125 168.877C648.858 168.143 648.858 166.953 648.125 166.219C647.391 165.485 646.201 165.485 645.467 166.219L645.155 166.532C644.871 161.634 647.002 156.772 651.048 153.918C655.093 156.771 657.224 161.634 656.94 166.532Z" fill="white"/>
</g>
</g>
<mask id="mask1_1204_3845" style="mask-type:alpha" maskUnits="userSpaceOnUse" x="963" y="33" width="610" height="293">
<path d="M1565.12 189.611C1575.08 186.292 1575.08 172.203 1565.12 168.884L1163.36 34.9785C1152.47 31.3509 1140.49 33.4327 1131.47 40.5198L968.547 168.509C961.588 173.977 961.588 184.518 968.547 189.986L1131.47 317.975C1140.49 325.062 1152.47 327.144 1163.36 323.517L1565.12 189.611Z" fill="#5C5AEA"/>
</mask>
<g mask="url(#mask1_1204_3845)">
<path d="M1565.12 189.611C1575.08 186.292 1575.08 172.203 1565.12 168.884L1163.36 34.9785C1152.47 31.3509 1140.49 33.4327 1131.47 40.5198L968.547 168.509C961.588 173.977 961.588 184.518 968.547 189.986L1131.47 317.975C1140.49 325.062 1152.47 327.144 1163.36 323.517L1565.12 189.611Z" fill="#5C5AEA"/>
<rect opacity="0.4" width="204.831" height="333.874" transform="matrix(-1 0 0 1 1576.2 12.3101)" fill="black"/>
<path fill-rule="evenodd" clip-rule="evenodd" d="M1445.43 150.4C1445.21 150.356 1444.98 150.368 1444.77 150.436C1444.53 150.394 1444.29 150.373 1444.06 150.374H1422.36C1421.29 150.374 1420.27 150.798 1419.51 151.553C1418.76 152.308 1418.33 153.332 1418.33 154.399V200.015C1418.33 201.083 1418.76 202.107 1419.51 202.861C1420.27 203.616 1421.29 204.04 1422.36 204.04H1454.56C1455.63 204.04 1456.65 203.616 1457.4 202.861C1458.16 202.107 1458.58 201.083 1458.58 200.015V164.903C1458.58 164.664 1458.56 164.427 1458.52 164.193C1458.59 163.978 1458.6 163.75 1458.56 163.529C1458.51 163.268 1458.38 163.029 1458.19 162.842L1446.12 150.767C1445.93 150.579 1445.69 150.452 1445.43 150.4ZM1422.36 153.057H1443.83V161.107C1443.83 162.174 1444.25 163.198 1445.01 163.953C1445.76 164.708 1446.78 165.132 1447.85 165.132H1455.9V200.015C1455.9 200.371 1455.76 200.712 1455.51 200.964C1455.26 201.216 1454.91 201.357 1454.56 201.357H1422.36C1422 201.357 1421.66 201.216 1421.41 200.964C1421.16 200.712 1421.02 200.371 1421.02 200.015V154.399C1421.02 154.043 1421.16 153.702 1421.41 153.45C1421.66 153.199 1422 153.057 1422.36 153.057ZM1454 162.449L1446.51 154.955V161.107C1446.51 161.463 1446.65 161.804 1446.9 162.056C1447.15 162.307 1447.5 162.449 1447.85 162.449H1454ZM1472 169.063V169.063V191.535C1472 192.264 1471.8 192.979 1471.42 193.603L1468.93 197.748C1468.7 198.146 1468.36 198.475 1467.96 198.703C1467.55 198.931 1467.1 199.05 1466.63 199.048C1466.17 199.05 1465.71 198.931 1465.31 198.703C1464.91 198.475 1464.57 198.146 1464.33 197.748L1461.84 193.603C1461.47 192.979 1461.27 192.264 1461.27 191.535V169.063V169.063V163.696C1461.27 162.629 1461.69 161.605 1462.45 160.85C1463.2 160.095 1464.22 159.671 1465.29 159.671H1467.97C1469.04 159.671 1470.07 160.095 1470.82 160.85C1471.58 161.605 1472 162.629 1472 163.696V169.063ZM1463.95 167.721H1469.32V163.696C1469.32 163.341 1469.18 162.999 1468.92 162.748C1468.67 162.496 1468.33 162.355 1467.97 162.355H1465.29C1464.94 162.355 1464.59 162.496 1464.34 162.748C1464.09 162.999 1463.95 163.341 1463.95 163.696V167.721ZM1463.95 170.405V191.535C1463.95 191.776 1464.02 192.013 1464.14 192.22L1466.63 196.364L1469.12 192.221C1469.25 192.014 1469.32 191.777 1469.32 191.535V170.405H1463.95ZM1437.12 166.473H1442.48C1442.84 166.473 1443.18 166.332 1443.43 166.08C1443.68 165.829 1443.82 165.488 1443.82 165.132C1443.82 164.776 1443.68 164.435 1443.43 164.183C1443.18 163.931 1442.84 163.79 1442.48 163.79H1437.12C1436.76 163.79 1436.42 163.931 1436.17 164.183C1435.92 164.435 1435.77 164.776 1435.77 165.132C1435.77 165.488 1435.92 165.829 1436.17 166.08C1436.42 166.332 1436.76 166.473 1437.12 166.473ZM1450.53 171.84H1437.12C1436.76 171.84 1436.42 171.699 1436.17 171.447C1435.92 171.195 1435.77 170.854 1435.77 170.498C1435.77 170.143 1435.92 169.801 1436.17 169.55C1436.42 169.298 1436.76 169.157 1437.12 169.157H1450.53C1450.89 169.157 1451.23 169.298 1451.48 169.55C1451.73 169.801 1451.87 170.143 1451.87 170.498C1451.87 170.854 1451.73 171.195 1451.48 171.447C1451.23 171.699 1450.89 171.84 1450.53 171.84ZM1437.12 178.548H1442.48C1442.84 178.548 1443.18 178.407 1443.43 178.155C1443.68 177.903 1443.82 177.562 1443.82 177.206C1443.82 176.851 1443.68 176.509 1443.43 176.258C1443.18 176.006 1442.84 175.865 1442.48 175.865H1437.12C1436.76 175.865 1436.42 176.006 1436.17 176.258C1435.92 176.509 1435.77 176.851 1435.77 177.206C1435.77 177.562 1435.92 177.903 1436.17 178.155C1436.42 178.407 1436.76 178.548 1437.12 178.548ZM1450.53 183.915H1437.12C1436.76 183.915 1436.42 183.774 1436.17 183.522C1435.92 183.271 1435.77 182.929 1435.77 182.574C1435.77 182.218 1435.92 181.876 1436.17 181.625C1436.42 181.373 1436.76 181.232 1437.12 181.232H1450.53C1450.89 181.232 1451.23 181.373 1451.48 181.625C1451.73 181.876 1451.87 182.218 1451.87 182.574C1451.87 182.929 1451.73 183.271 1451.48 183.522C1451.23 183.774 1450.89 183.915 1450.53 183.915ZM1426.38 183.915H1431.75C1432.11 183.915 1432.45 183.773 1432.7 183.522C1432.95 183.27 1433.09 182.929 1433.09 182.573V177.206C1433.09 176.851 1432.95 176.509 1432.7 176.258C1432.45 176.006 1432.11 175.865 1431.75 175.865H1426.38C1426.03 175.865 1425.69 176.006 1425.43 176.258C1425.18 176.509 1425.04 176.851 1425.04 177.206V182.573C1425.04 182.929 1425.18 183.27 1425.43 183.522C1425.69 183.773 1426.03 183.915 1426.38 183.915ZM1430.41 181.231H1427.73V178.548H1430.41V181.231ZM1442.48 190.623H1437.12C1436.76 190.623 1436.42 190.481 1436.17 190.23C1435.92 189.978 1435.77 189.637 1435.77 189.281C1435.77 188.925 1435.92 188.584 1436.17 188.332C1436.42 188.081 1436.76 187.939 1437.12 187.939H1442.48C1442.84 187.939 1443.18 188.081 1443.43 188.332C1443.68 188.584 1443.82 188.925 1443.82 189.281C1443.82 189.637 1443.68 189.978 1443.43 190.23C1443.18 190.481 1442.84 190.623 1442.48 190.623ZM1437.12 195.99H1450.53C1450.89 195.99 1451.23 195.849 1451.48 195.597C1451.73 195.345 1451.87 195.004 1451.87 194.648C1451.87 194.292 1451.73 193.951 1451.48 193.7C1451.23 193.448 1450.89 193.307 1450.53 193.307H1437.12C1436.76 193.307 1436.42 193.448 1436.17 193.7C1435.92 193.951 1435.77 194.292 1435.77 194.648C1435.77 195.004 1435.92 195.345 1436.17 195.597C1436.42 195.849 1436.76 195.99 1437.12 195.99ZM1431.75 195.989H1426.38C1426.03 195.989 1425.69 195.848 1425.43 195.596C1425.18 195.345 1425.04 195.004 1425.04 194.648V189.281C1425.04 188.925 1425.18 188.584 1425.43 188.332C1425.69 188.081 1426.03 187.939 1426.38 187.939H1431.75C1432.11 187.939 1432.45 188.081 1432.7 188.332C1432.95 188.584 1433.09 188.925 1433.09 189.281V194.648C1433.09 195.004 1432.95 195.345 1432.7 195.596C1432.45 195.848 1432.11 195.989 1431.75 195.989ZM1427.73 193.306H1430.41V190.623H1427.73V193.306ZM1428.12 170.105C1428.37 170.357 1428.71 170.498 1429.07 170.498L1429.14 170.497C1429.33 170.487 1429.51 170.436 1429.68 170.35C1429.85 170.263 1429.99 170.143 1430.11 169.995L1435.48 163.287C1435.59 163.149 1435.67 162.991 1435.72 162.822C1435.77 162.653 1435.78 162.476 1435.76 162.3C1435.75 162.125 1435.69 161.956 1435.61 161.801C1435.52 161.647 1435.41 161.511 1435.27 161.401C1435.13 161.291 1434.97 161.209 1434.8 161.16C1434.64 161.11 1434.46 161.095 1434.28 161.115C1434.11 161.134 1433.94 161.188 1433.78 161.273C1433.63 161.358 1433.49 161.472 1433.38 161.61L1428.96 167.148L1427.33 165.525C1427.08 165.281 1426.74 165.145 1426.39 165.148C1426.04 165.151 1425.7 165.293 1425.45 165.541C1425.2 165.79 1425.06 166.127 1425.06 166.478C1425.06 166.83 1425.19 167.169 1425.44 167.422L1428.12 170.105Z" fill="white"/>
<rect opacity="0.2" width="204.831" height="333.874" transform="matrix(-1 0 0 1 1371.37 12.3101)" fill="black"/>
<path d="M1226.62 137.154C1237.47 126.225 1252.51 119.458 1269.12 119.458C1286.21 119.458 1301.62 126.613 1312.53 138.091" stroke="#4A48BB" stroke-width="6.86317" stroke-linecap="square"/>
<g clip-path="url(#clip3_1204_3845)">
<path d="M1075.45 158.173C1069.52 159.555 1064.75 164.255 1063.29 170.146C1061.83 176.056 1063.5 182.081 1067.77 186.261C1069.28 187.74 1070.18 190.11 1070.18 192.601V192.999C1070.18 194.64 1070.89 196.116 1072.03 197.133V200.402C1072.03 203.464 1074.52 205.955 1077.58 205.955H1081.28C1084.34 205.955 1086.83 203.464 1086.83 200.402V197.133C1087.97 196.116 1088.68 194.64 1088.68 192.999V192.594C1088.68 190.14 1089.63 187.725 1091.22 186.133C1094.36 182.988 1096.09 178.81 1096.09 174.367C1096.09 163.746 1086.24 155.656 1075.45 158.173ZM1083.13 200.402C1083.13 201.423 1082.3 202.253 1081.28 202.253H1077.58C1076.56 202.253 1075.73 201.423 1075.73 200.402V198.551H1083.13V200.402ZM1088.6 183.518C1086.3 185.823 1084.98 189.131 1084.98 192.594V192.999C1084.98 194.02 1084.15 194.85 1083.13 194.85H1075.73C1074.71 194.85 1073.88 194.02 1073.88 192.999V192.601C1073.88 189.085 1072.6 185.81 1070.36 183.618C1067.04 180.364 1065.74 175.66 1066.89 171.035C1068.01 166.481 1071.7 162.847 1076.29 161.778C1084.76 159.803 1092.39 166.128 1092.39 174.367C1092.39 177.822 1091.04 181.072 1088.6 183.518Z" fill="white" stroke="#5C5AEA" stroke-width="0.336041"/>
<path d="M1065.03 157.354L1059.8 152.119C1059.07 151.396 1057.9 151.396 1057.18 152.119C1056.46 152.842 1056.46 154.013 1057.18 154.736L1062.41 159.971C1063.14 160.694 1064.31 160.694 1065.03 159.971C1065.76 159.248 1065.76 158.077 1065.03 157.354Z" fill="white" stroke="#5C5AEA" stroke-width="0.336041"/>
<path d="M1057.22 172.517H1049.69C1048.67 172.517 1047.84 173.345 1047.84 174.367C1047.84 175.39 1048.67 176.218 1049.69 176.218H1057.22C1058.24 176.218 1059.07 175.39 1059.07 174.367C1059.07 173.345 1058.24 172.517 1057.22 172.517Z" fill="white" stroke="#5C5AEA" stroke-width="0.336041"/>
<path d="M1109.17 172.517H1101.64C1100.62 172.517 1099.79 173.345 1099.79 174.367C1099.79 175.39 1100.62 176.218 1101.64 176.218H1109.17C1110.19 176.218 1111.02 175.39 1111.02 174.367C1111.02 173.345 1110.19 172.517 1109.17 172.517Z" fill="white" stroke="#5C5AEA" stroke-width="0.336041"/>
<path d="M1101.68 152.119C1100.96 151.396 1099.78 151.396 1099.06 152.119L1093.83 157.354C1093.1 158.076 1093.1 159.248 1093.83 159.971C1094.55 160.694 1095.72 160.694 1096.44 159.971L1101.68 154.736C1102.4 154.014 1102.4 152.842 1101.68 152.119Z" fill="white" stroke="#5C5AEA" stroke-width="0.336041"/>
<path d="M1079.43 142.78C1078.41 142.78 1077.58 143.608 1077.58 144.631V152.157C1077.58 153.18 1078.41 154.008 1079.43 154.008C1080.45 154.008 1081.28 153.18 1081.28 152.157V144.631C1081.28 143.608 1080.45 142.78 1079.43 142.78Z" fill="white" stroke="#5C5AEA" stroke-width="0.336041"/>
<path d="M1079.43 165.114C1078.67 165.114 1077.89 165.205 1077.13 165.384C1073.94 166.129 1071.26 168.756 1070.48 171.922C1070.23 172.914 1070.84 173.917 1071.83 174.164C1072.82 174.41 1073.83 173.805 1074.07 172.813C1074.52 170.992 1076.13 169.419 1077.97 168.989C1078.46 168.874 1078.95 168.815 1079.43 168.815C1080.45 168.815 1081.28 167.987 1081.28 166.965C1081.28 165.942 1080.45 165.114 1079.43 165.114Z" fill="white" stroke="#5C5AEA" stroke-width="0.336041"/>
</g>
<g clip-path="url(#clip4_1204_3845)">
<path d="M1296.56 165.887L1285.86 164.925C1285.86 170.594 1286.07 165.887 1284.79 185.249C1284.76 185.693 1284.46 186.072 1284.03 186.201L1273.6 189.324L1252.4 211.552C1252.05 211.919 1251.48 211.98 1251.05 211.698C1250.62 211.416 1250.45 210.87 1250.65 210.397L1259.12 190.362L1257.93 183.687L1255.1 181.547L1234.36 177.483C1233.95 177.401 1233.62 177.088 1233.52 176.68C1233.43 176.273 1233.58 175.847 1233.91 175.589L1240.43 170.551L1233.88 165.674C1233.53 165.426 1233.36 164.993 1233.45 164.573C1233.54 164.153 1233.87 163.828 1234.29 163.748L1254.62 159.469C1255.01 159.395 1253.76 159.095 1271.18 164.069C1271.34 163.909 1270.27 164.732 1284.15 154.314C1284.54 154.012 1285.08 154.012 1285.47 154.314L1297.23 163.941C1297.63 164.214 1297.79 164.716 1297.63 165.17C1297.48 165.623 1297.04 165.916 1296.56 165.887ZM1282.65 184.329L1283.43 173.375L1275.4 186.532L1282.65 184.329ZM1254.84 205.85L1271.05 188.875L1262.96 186.447C1260.63 192.287 1262.27 188.351 1254.84 205.85ZM1237 175.9L1251.12 178.606L1242.17 171.888L1237 175.9ZM1253.99 161.812L1237.05 165.374L1257.38 180.595L1253.99 161.812ZM1256.2 162.037L1260.59 186.639L1261.33 184.767C1261.51 184.224 1262.09 183.917 1262.64 184.072L1272.55 187.046L1283.15 169.738L1256.2 162.037ZM1283.72 157.33L1274.24 164.443L1283.72 167.652V157.33ZM1285.86 157.448V162.796L1293.18 163.459L1285.86 157.448Z" fill="white" stroke="white" stroke-width="0.68277"/>
</g>
<path opacity="0.5" d="M1309.39 158.036C1307.92 156.561 1305.52 156.561 1304.05 158.035C1304.05 158.035 1304.05 158.036 1304.05 158.036C1302.57 159.511 1302.57 161.902 1304.05 163.377L1322.93 182.26C1325.31 184.633 1329.38 182.942 1329.38 179.589C1329.38 146.188 1302.35 119.164 1268.95 119.164C1242.73 119.164 1220.3 135.867 1211.97 159.447L1211 159.106L1211.97 159.447C1211.27 161.411 1212.3 163.571 1214.27 164.267C1216.24 164.962 1218.39 163.93 1219.09 161.964L1219.09 161.964C1226.54 140.88 1246.58 126.717 1268.95 126.717C1293.85 126.717 1314.22 143.774 1320.08 166.026L1321.05 169.691L1318.36 167.011L1309.39 158.036ZM1217.83 193.152L1216.86 189.487L1219.54 192.167L1228.52 201.142C1229.99 202.616 1232.38 202.616 1233.86 201.142C1235.33 199.667 1235.33 197.276 1233.86 195.801L1214.98 176.919L1214.98 176.919C1212.6 174.545 1208.53 176.235 1208.53 179.589C1208.53 212.989 1235.56 240.014 1268.95 240.014C1295.18 240.014 1317.61 223.31 1325.94 199.73L1325.94 199.73C1326.63 197.763 1325.6 195.606 1323.64 194.911C1321.67 194.216 1319.51 195.246 1318.82 197.213L1318.82 197.213C1311.37 218.297 1291.33 232.461 1268.95 232.461C1244.06 232.461 1223.69 215.403 1217.83 193.152ZM1268.95 231.437C1290.89 231.437 1310.55 217.546 1317.85 196.871L1234.58 195.077C1236.46 196.952 1236.46 199.991 1234.58 201.866C1232.71 203.741 1229.67 203.741 1227.79 201.866L1220.3 194.376C1220.13 193.798 1219.96 193.216 1219.81 192.63L1218.82 192.891L1218.1 193.615L1219.4 194.919C1225.82 215.739 1245.3 231.437 1268.95 231.437Z" fill="white" fill-opacity="0.5" stroke="#4A48BB" stroke-width="2.04831"/>
<path opacity="0.56" d="M1246.49 112.07V104.292H1248.55V112.07H1246.49ZM1251.7 112.07V105.953H1249.38V104.292H1256.09V105.953H1253.77V112.07H1251.7ZM1256.92 112.07V104.292H1262.47V105.865H1258.91V107.329H1262.24V108.902H1258.91V110.497H1262.47V112.07H1256.92ZM1270.27 112.07H1268.1L1267.09 109.481C1266.98 109.19 1266.7 109.044 1266.27 109.044H1265.53V112.07H1263.51V104.292H1267.12C1268.06 104.292 1268.77 104.496 1269.24 104.904C1269.72 105.305 1269.95 105.88 1269.95 106.63C1269.95 107.154 1269.81 107.61 1269.53 107.996C1269.25 108.374 1268.86 108.644 1268.35 108.804C1268.57 108.848 1268.76 108.95 1268.94 109.11C1269.11 109.27 1269.25 109.485 1269.35 109.754L1270.27 112.07ZM1266.8 107.515C1267.23 107.515 1267.55 107.449 1267.75 107.318C1267.94 107.18 1268.04 106.969 1268.04 106.685C1268.04 106.386 1267.94 106.171 1267.75 106.04C1267.56 105.909 1267.24 105.843 1266.8 105.843H1265.51V107.515H1266.8ZM1277.12 112.07L1276.43 110.464H1272.98L1272.29 112.07H1270.24L1273.88 104.292H1275.49L1279.14 112.07H1277.12ZM1273.65 108.924H1275.77L1274.71 106.466L1273.65 108.924ZM1280.32 112.07V105.953H1278V104.292H1284.71V105.953H1282.4V112.07H1280.32ZM1285.54 112.07V104.292H1291.09V105.865H1287.54V107.329H1290.86V108.902H1287.54V110.497H1291.09V112.07H1285.54Z" fill="white"/>
<rect x="1164.49" y="12.3101" width="4.09662" height="333.874" fill="white"/>
<rect x="1369.32" y="12.3101" width="4.09662" height="333.874" fill="white"/>
</g>
<path d="M424.015 357.835V373.607H427.124V368.425H429.895C431.405 368.425 432.689 367.907 433.726 366.893C434.762 365.879 435.28 364.617 435.28 363.13C435.28 361.643 434.762 360.381 433.726 359.368C432.689 358.354 431.405 357.835 429.895 357.835H424.015ZM427.124 365.519V360.742H429.895C431.225 360.742 432.194 361.756 432.194 363.13C432.194 364.482 431.225 365.519 429.895 365.519H427.124ZM440.076 373.607V357.159H437.169V373.607H440.076ZM451.298 363.671C450.419 362.567 449.203 362.026 447.626 362.026C446.116 362.026 444.832 362.612 443.75 363.761C442.691 364.91 442.15 366.307 442.15 367.975C442.15 369.642 442.691 371.061 443.75 372.21C444.832 373.36 446.116 373.923 447.626 373.923C449.203 373.923 450.419 373.382 451.298 372.278V373.607H454.205V362.342H451.298V363.671ZM445.936 370.273C445.35 369.664 445.057 368.898 445.057 367.975C445.057 367.051 445.35 366.285 445.936 365.699C446.522 365.091 447.265 364.798 448.166 364.798C449.068 364.798 449.811 365.091 450.397 365.699C451.005 366.285 451.298 367.051 451.298 367.975C451.298 368.898 451.005 369.664 450.397 370.273C449.811 370.859 449.068 371.151 448.166 371.151C447.265 371.151 446.522 370.859 445.936 370.273ZM463.104 362.026C461.572 362.026 460.445 362.545 459.747 363.603V362.342H456.84V373.607H459.747V367.524C459.747 365.654 460.716 364.73 462.225 364.73C463.577 364.73 464.456 365.541 464.456 367.051V373.607H467.363V366.69C467.363 365.226 466.957 364.099 466.146 363.266C465.357 362.432 464.343 362.026 463.104 362.026Z" fill="black"/>
<path d="M594.4 367.096H600.371V364.167H594.4V360.81H600.934V357.835H591.291V373.607H601.047V370.633H594.4V367.096ZM615.563 362.026C614.076 362.026 612.95 362.567 612.206 363.649C611.553 362.567 610.516 362.026 609.142 362.026C607.722 362.026 606.686 362.522 606.01 363.536V362.342H603.104V373.607H606.01V367.276C606.01 365.631 606.844 364.73 608.128 364.73C609.322 364.73 610.021 365.519 610.021 366.871V373.607H612.927V367.276C612.927 365.631 613.693 364.73 615.023 364.73C616.217 364.73 616.915 365.519 616.915 366.871V373.607H619.822V366.668C619.822 363.851 618.155 362.026 615.563 362.026ZM628.847 362.026C627.27 362.026 626.053 362.567 625.197 363.671V362.342H622.29V378.114H625.197V372.278C626.053 373.382 627.27 373.923 628.847 373.923C630.357 373.923 631.663 373.36 632.722 372.21C633.804 371.061 634.345 369.642 634.345 367.975C634.345 366.307 633.804 364.91 632.722 363.761C631.663 362.612 630.357 362.026 628.847 362.026ZM626.076 370.273C625.49 369.664 625.197 368.898 625.197 367.975C625.197 367.051 625.49 366.285 626.076 365.699C626.662 365.091 627.405 364.798 628.306 364.798C629.208 364.798 629.951 365.091 630.537 365.699C631.145 366.285 631.438 367.051 631.438 367.975C631.438 368.898 631.145 369.664 630.537 370.273C629.951 370.859 629.208 371.151 628.306 371.151C627.405 371.151 626.662 370.859 626.076 370.273ZM644.956 363.671C644.078 362.567 642.861 362.026 641.284 362.026C639.774 362.026 638.49 362.612 637.408 363.761C636.349 364.91 635.809 366.307 635.809 367.975C635.809 369.642 636.349 371.061 637.408 372.21C638.49 373.36 639.774 373.923 641.284 373.923C642.861 373.923 644.078 373.382 644.956 372.278V373.607H647.863V362.342H644.956V363.671ZM639.594 370.273C639.008 369.664 638.715 368.898 638.715 367.975C638.715 367.051 639.008 366.285 639.594 365.699C640.18 365.091 640.923 364.798 641.825 364.798C642.726 364.798 643.469 365.091 644.055 365.699C644.664 366.285 644.956 367.051 644.956 367.975C644.956 368.898 644.664 369.664 644.055 370.273C643.469 370.859 642.726 371.151 641.825 371.151C640.923 371.151 640.18 370.859 639.594 370.273ZM656.943 362.342H654.397V359.187L651.49 360.066V362.342H649.53V365.136H651.49V369.822C651.49 372.909 652.955 374.058 656.943 373.607V370.971C655.275 371.061 654.397 371.039 654.397 369.822V365.136H656.943V362.342ZM665.256 362.026C663.724 362.026 662.597 362.545 661.899 363.603V357.835H658.992V373.607H661.899V367.524C661.899 365.654 662.867 364.73 664.377 364.73C665.729 364.73 666.608 365.541 666.608 367.051V373.607H669.514V366.69C669.514 365.226 669.109 364.099 668.297 363.266C667.509 362.432 666.495 362.026 665.256 362.026ZM673.438 360.99C674.429 360.99 675.24 360.179 675.24 359.21C675.24 358.241 674.429 357.407 673.438 357.407C672.469 357.407 671.658 358.241 671.658 359.21C671.658 360.179 672.469 360.99 673.438 360.99ZM674.902 373.607V362.342H671.996V373.607H674.902ZM685.877 364.279V362.342H677.428V365.068H681.956L677.202 371.67V373.607H686.102V370.881H681.1L685.877 364.279ZM698.481 369.169C698.548 368.741 698.593 368.358 698.593 367.975C698.593 366.285 698.052 364.888 696.971 363.739C695.912 362.59 694.538 362.026 692.893 362.026C691.158 362.026 689.716 362.59 688.612 363.739C687.508 364.865 686.944 366.285 686.944 367.975C686.944 369.687 687.508 371.106 688.634 372.233C689.761 373.36 691.248 373.923 693.118 373.923C695.281 373.923 696.926 373.112 698.03 371.512L695.687 370.16C695.123 370.904 694.267 371.287 693.163 371.287C691.428 371.287 690.369 370.588 689.986 369.169H698.481ZM689.941 366.916C690.279 365.474 691.338 364.64 692.893 364.64C694.222 364.64 695.349 365.383 695.687 366.916H689.941Z" fill="black"/>
<path d="M825.3 373.607L821.808 367.659C823.633 366.825 824.849 365.022 824.849 363.062C824.849 361.62 824.331 360.381 823.317 359.367C822.303 358.353 821.064 357.835 819.599 357.835H813.291V373.607H816.4V368.132H818.766L821.943 373.607H825.3ZM819.599 360.742C820.771 360.742 821.74 361.778 821.74 363.062C821.74 364.347 820.771 365.406 819.599 365.406H816.4V360.742H819.599ZM837.374 369.168C837.441 368.74 837.486 368.357 837.486 367.974C837.486 366.284 836.946 364.887 835.864 363.738C834.805 362.589 833.431 362.026 831.786 362.026C830.051 362.026 828.609 362.589 827.505 363.738C826.401 364.865 825.838 366.284 825.838 367.974C825.838 369.686 826.401 371.106 827.528 372.233C828.654 373.359 830.141 373.922 832.011 373.922C834.174 373.922 835.819 373.111 836.923 371.512L834.58 370.16C834.017 370.903 833.16 371.286 832.056 371.286C830.321 371.286 829.262 370.588 828.879 369.168H837.374ZM828.834 366.915C829.172 365.473 830.231 364.639 831.786 364.639C833.115 364.639 834.242 365.383 834.58 366.915H828.834ZM845.246 357.52C841.731 357.317 839.951 359.052 839.951 362.229V362.341H838.329V365.135H839.951V373.607H842.858V365.135H845.246V362.341H842.858V362.229C842.858 360.832 843.647 360.201 845.246 360.313V357.52ZM849.485 362.341H846.579V373.607H849.485V368.222C849.485 367.14 849.823 366.374 850.522 365.901C851.22 365.428 852.031 365.248 852.91 365.36V362.116C851.378 362.116 850.026 362.837 849.485 364.279V362.341ZM862.754 363.671C861.875 362.567 860.658 362.026 859.081 362.026C857.571 362.026 856.287 362.612 855.206 363.761C854.147 364.91 853.606 366.307 853.606 367.974C853.606 369.641 854.147 371.061 855.206 372.21C856.287 373.359 857.571 373.922 859.081 373.922C860.658 373.922 861.875 373.382 862.754 372.278V373.607H865.66V362.341H862.754V363.671ZM857.391 370.272C856.805 369.664 856.512 368.898 856.512 367.974C856.512 367.05 856.805 366.284 857.391 365.698C857.977 365.09 858.72 364.797 859.622 364.797C860.523 364.797 861.267 365.09 861.852 365.698C862.461 366.284 862.754 367.05 862.754 367.974C862.754 368.898 862.461 369.664 861.852 370.272C861.267 370.858 860.523 371.151 859.622 371.151C858.72 371.151 857.977 370.858 857.391 370.272ZM880.756 362.026C879.269 362.026 878.142 362.567 877.398 363.648C876.745 362.567 875.709 362.026 874.334 362.026C872.915 362.026 871.878 362.521 871.202 363.535V362.341H868.296V373.607H871.202V367.276C871.202 365.631 872.036 364.73 873.32 364.73C874.514 364.73 875.213 365.518 875.213 366.87V373.607H878.119V367.276C878.119 365.631 878.886 364.73 880.215 364.73C881.409 364.73 882.108 365.518 882.108 366.87V373.607H885.014V366.667C885.014 363.851 883.347 362.026 880.756 362.026ZM898.433 369.168C898.501 368.74 898.546 368.357 898.546 367.974C898.546 366.284 898.005 364.887 896.923 363.738C895.864 362.589 894.49 362.026 892.845 362.026C891.11 362.026 889.668 362.589 888.564 363.738C887.46 364.865 886.897 366.284 886.897 367.974C886.897 369.686 887.46 371.106 888.587 372.233C889.713 373.359 891.2 373.922 893.07 373.922C895.233 373.922 896.878 373.111 897.982 371.512L895.639 370.16C895.076 370.903 894.22 371.286 893.116 371.286C891.381 371.286 890.322 370.588 889.939 369.168H898.433ZM889.894 366.915C890.232 365.473 891.29 364.639 892.845 364.639C894.175 364.639 895.301 365.383 895.639 366.915H889.894Z" fill="black"/>
<path d="M1031.01 373.607H1034.12V357.835H1031.01V373.607ZM1045.44 363.671C1044.58 362.567 1043.37 362.026 1041.79 362.026C1040.28 362.026 1038.97 362.612 1037.89 363.761C1036.83 364.91 1036.29 366.307 1036.29 367.975C1036.29 369.642 1036.83 371.061 1037.89 372.21C1038.97 373.36 1040.28 373.923 1041.79 373.923C1043.37 373.923 1044.58 373.382 1045.44 372.278V373.607H1048.35V357.835H1045.44V363.671ZM1040.08 370.273C1039.49 369.664 1039.2 368.898 1039.2 367.975C1039.2 367.051 1039.49 366.285 1040.08 365.699C1040.69 365.091 1041.43 364.798 1042.33 364.798C1043.23 364.798 1043.98 365.091 1044.56 365.699C1045.15 366.285 1045.44 367.051 1045.44 367.975C1045.44 368.898 1045.15 369.664 1044.56 370.273C1043.98 370.859 1043.23 371.151 1042.33 371.151C1041.43 371.151 1040.69 370.859 1040.08 370.273ZM1061.96 369.169C1062.02 368.741 1062.07 368.358 1062.07 367.975C1062.07 366.285 1061.53 364.888 1060.45 363.739C1059.39 362.59 1058.01 362.026 1056.37 362.026C1054.63 362.026 1053.19 362.59 1052.09 363.739C1050.98 364.865 1050.42 366.285 1050.42 367.975C1050.42 369.687 1050.98 371.106 1052.11 372.233C1053.24 373.36 1054.72 373.923 1056.59 373.923C1058.76 373.923 1060.4 373.112 1061.51 371.512L1059.16 370.16C1058.6 370.904 1057.74 371.287 1056.64 371.287C1054.9 371.287 1053.84 370.588 1053.46 369.169H1061.96ZM1053.42 366.916C1053.75 365.474 1054.81 364.64 1056.37 364.64C1057.7 364.64 1058.82 365.383 1059.16 366.916H1053.42ZM1072.57 363.671C1071.69 362.567 1070.48 362.026 1068.9 362.026C1067.39 362.026 1066.11 362.612 1065.02 363.761C1063.96 364.91 1063.42 366.307 1063.42 367.975C1063.42 369.642 1063.96 371.061 1065.02 372.21C1066.11 373.36 1067.39 373.923 1068.9 373.923C1070.48 373.923 1071.69 373.382 1072.57 372.278V373.607H1075.48V362.342H1072.57V363.671ZM1067.21 370.273C1066.62 369.664 1066.33 368.898 1066.33 367.975C1066.33 367.051 1066.62 366.285 1067.21 365.699C1067.8 365.091 1068.54 364.798 1069.44 364.798C1070.34 364.798 1071.08 365.091 1071.67 365.699C1072.28 366.285 1072.57 367.051 1072.57 367.975C1072.57 368.898 1072.28 369.664 1071.67 370.273C1071.08 370.859 1070.34 371.151 1069.44 371.151C1068.54 371.151 1067.8 370.859 1067.21 370.273ZM1084.56 362.342H1082.01V359.187L1079.11 360.066V362.342H1077.15V365.136H1079.11V369.822C1079.11 372.909 1080.57 374.058 1084.56 373.607V370.971C1082.89 371.061 1082.01 371.039 1082.01 369.822V365.136H1084.56V362.342ZM1097.21 369.169C1097.27 368.741 1097.32 368.358 1097.32 367.975C1097.32 366.285 1096.78 364.888 1095.7 363.739C1094.64 362.59 1093.26 362.026 1091.62 362.026C1089.88 362.026 1088.44 362.59 1087.34 363.739C1086.23 364.865 1085.67 366.285 1085.67 367.975C1085.67 369.687 1086.23 371.106 1087.36 372.233C1088.49 373.36 1089.97 373.923 1091.84 373.923C1094.01 373.923 1095.65 373.112 1096.75 371.512L1094.41 370.16C1093.85 370.904 1092.99 371.287 1091.89 371.287C1090.15 371.287 1089.09 370.588 1088.71 369.169H1097.21ZM1088.67 366.916C1089 365.474 1090.06 364.64 1091.62 364.64C1092.95 364.64 1094.07 365.383 1094.41 366.916H1088.67Z" fill="black"/>
<path d="M1219.34 357.835V373.607H1222.45V368.425H1225.22C1226.73 368.425 1228.01 367.907 1229.05 366.893C1230.08 365.879 1230.6 364.617 1230.6 363.13C1230.6 361.643 1230.08 360.381 1229.05 359.368C1228.01 358.354 1226.73 357.835 1225.22 357.835H1219.34ZM1222.45 365.519V360.742H1225.22C1226.55 360.742 1227.52 361.756 1227.52 363.13C1227.52 364.482 1226.55 365.519 1225.22 365.519H1222.45ZM1235.16 362.342H1232.25L1232.25 373.607H1235.16V368.222C1235.16 367.141 1235.49 366.375 1236.19 365.902C1236.89 365.429 1237.7 365.248 1238.58 365.361V362.116C1237.05 362.116 1235.7 362.837 1235.16 364.279V362.342ZM1249.46 372.21C1250.61 371.061 1251.2 369.642 1251.2 367.975C1251.2 366.307 1250.61 364.91 1249.46 363.761C1248.31 362.612 1246.89 362.026 1245.23 362.026C1243.56 362.026 1242.14 362.612 1240.99 363.761C1239.84 364.91 1239.28 366.307 1239.28 367.975C1239.28 369.642 1239.84 371.061 1240.99 372.21C1242.14 373.36 1243.56 373.923 1245.23 373.923C1246.89 373.923 1248.31 373.36 1249.46 372.21ZM1243.04 370.205C1242.48 369.619 1242.18 368.876 1242.18 367.975C1242.18 367.073 1242.48 366.33 1243.04 365.744C1243.63 365.158 1244.35 364.865 1245.23 364.865C1246.1 364.865 1246.83 365.158 1247.41 365.744C1248 366.33 1248.29 367.073 1248.29 367.975C1248.29 368.876 1248 369.619 1247.41 370.205C1246.83 370.791 1246.1 371.084 1245.23 371.084C1244.35 371.084 1243.63 370.791 1243.04 370.205ZM1259.44 362.342H1256.9V359.187L1253.99 360.066V362.342H1252.03V365.136H1253.99V369.822C1253.99 372.909 1255.45 374.058 1259.44 373.607V370.971C1257.78 371.061 1256.9 371.039 1256.9 369.822V365.136H1259.44V362.342ZM1270.74 372.21C1271.89 371.061 1272.47 369.642 1272.47 367.975C1272.47 366.307 1271.89 364.91 1270.74 363.761C1269.59 362.612 1268.17 362.026 1266.5 362.026C1264.84 362.026 1263.42 362.612 1262.27 363.761C1261.12 364.91 1260.55 366.307 1260.55 367.975C1260.55 369.642 1261.12 371.061 1262.27 372.21C1263.42 373.36 1264.84 373.923 1266.5 373.923C1268.17 373.923 1269.59 373.36 1270.74 372.21ZM1264.32 370.205C1263.75 369.619 1263.46 368.876 1263.46 367.975C1263.46 367.073 1263.75 366.33 1264.32 365.744C1264.9 365.158 1265.62 364.865 1266.5 364.865C1267.38 364.865 1268.1 365.158 1268.69 365.744C1269.27 366.33 1269.57 367.073 1269.57 367.975C1269.57 368.876 1269.27 369.619 1268.69 370.205C1268.1 370.791 1267.38 371.084 1266.5 371.084C1265.62 371.084 1264.9 370.791 1264.32 370.205ZM1280.72 362.342H1278.17V359.187L1275.27 360.066V362.342H1273.31V365.136H1275.27V369.822C1275.27 372.909 1276.73 374.058 1280.72 373.607V370.971C1279.05 371.061 1278.17 371.039 1278.17 369.822V365.136H1280.72V362.342ZM1287.86 369.912L1284.93 362.342H1281.75L1286.37 373.247C1285.83 374.779 1284.97 375.432 1283.42 375.41V378.114C1286.3 378.271 1288.19 376.852 1289.37 373.607L1293.47 362.342H1290.36L1287.86 369.912ZM1301.41 362.026C1299.83 362.026 1298.61 362.567 1297.76 363.671V362.342H1294.85V378.114H1297.76V372.278C1298.61 373.382 1299.83 373.923 1301.41 373.923C1302.92 373.923 1304.22 373.36 1305.28 372.21C1306.36 371.061 1306.9 369.642 1306.9 367.975C1306.9 366.307 1306.36 364.91 1305.28 363.761C1304.22 362.612 1302.92 362.026 1301.41 362.026ZM1298.63 370.273C1298.05 369.664 1297.76 368.898 1297.76 367.975C1297.76 367.051 1298.05 366.285 1298.63 365.699C1299.22 365.091 1299.96 364.798 1300.87 364.798C1301.77 364.798 1302.51 365.091 1303.1 365.699C1303.7 366.285 1304 367.051 1304 367.975C1304 368.898 1303.7 369.664 1303.1 370.273C1302.51 370.859 1301.77 371.151 1300.87 371.151C1299.96 371.151 1299.22 370.859 1298.63 370.273ZM1319.9 369.169C1319.97 368.741 1320.02 368.358 1320.02 367.975C1320.02 366.285 1319.48 364.888 1318.39 363.739C1317.34 362.59 1315.96 362.026 1314.32 362.026C1312.58 362.026 1311.14 362.59 1310.03 363.739C1308.93 364.865 1308.37 366.285 1308.37 367.975C1308.37 369.687 1308.93 371.106 1310.06 372.233C1311.18 373.36 1312.67 373.923 1314.54 373.923C1316.7 373.923 1318.35 373.112 1319.45 371.512L1317.11 370.16C1316.55 370.904 1315.69 371.287 1314.59 371.287C1312.85 371.287 1311.79 370.588 1311.41 369.169H1319.9ZM1311.36 366.916C1311.7 365.474 1312.76 364.64 1314.32 364.64C1315.65 364.64 1316.77 365.383 1317.11 366.916H1311.36Z" fill="black"/>
<path d="M1453 357.835V360.81H1457.23V373.607H1460.34V360.81H1464.6V357.835H1453ZM1475.11 369.169C1475.17 368.741 1475.22 368.358 1475.22 367.975C1475.22 366.285 1474.68 364.888 1473.6 363.739C1472.54 362.59 1471.16 362.026 1469.52 362.026C1467.78 362.026 1466.34 362.59 1465.24 363.739C1464.13 364.865 1463.57 366.285 1463.57 367.975C1463.57 369.687 1464.13 371.106 1465.26 372.233C1466.39 373.36 1467.87 373.923 1469.74 373.923C1471.91 373.923 1473.55 373.112 1474.66 371.512L1472.31 370.16C1471.75 370.904 1470.89 371.287 1469.79 371.287C1468.05 371.287 1466.99 370.588 1466.61 369.169H1475.11ZM1466.57 366.916C1466.9 365.474 1467.96 364.64 1469.52 364.64C1470.85 364.64 1471.97 365.383 1472.31 366.916H1466.57ZM1479.49 365.541C1479.49 364.978 1480.05 364.617 1480.8 364.617C1481.63 364.617 1482.24 365 1482.6 365.766L1485.08 364.415C1484.2 362.882 1482.62 362.026 1480.8 362.026C1479.58 362.026 1478.56 362.342 1477.73 362.995C1476.92 363.626 1476.51 364.505 1476.51 365.609C1476.51 367.952 1478.61 368.651 1480.28 369.079C1481.43 369.372 1482.33 369.709 1482.33 370.318C1482.33 370.971 1481.81 371.287 1480.77 371.287C1479.62 371.287 1478.9 370.791 1478.56 369.822L1476.04 371.242C1476.87 373.022 1478.45 373.923 1480.77 373.923C1482.06 373.923 1483.14 373.607 1483.99 372.999C1484.87 372.368 1485.3 371.467 1485.3 370.318C1485.32 367.907 1483.18 367.118 1481.54 366.78C1480.39 366.487 1479.49 366.15 1479.49 365.541ZM1493.28 362.342H1490.74V359.187L1487.83 360.066V362.342H1485.87V365.136H1487.83V369.822C1487.83 372.909 1489.3 374.058 1493.28 373.607V370.971C1491.62 371.061 1490.74 371.039 1490.74 369.822V365.136H1493.28V362.342Z" fill="black"/>
<path d="M404.522 116.756C403.511 116.137 402.383 116.073 401.132 116.546C399.934 117 399.072 117.857 398.559 119.094C398.064 120.324 398.054 121.594 398.555 122.918C399.056 124.241 399.911 125.205 401.096 125.799C402.3 126.386 403.506 126.441 404.704 125.987C405.955 125.514 406.759 124.719 407.107 123.586L407.506 124.641L409.812 123.768L405.076 111.252L402.77 112.125L404.522 116.756ZM402.249 123.605C401.601 123.298 401.139 122.778 400.861 122.045C400.584 121.312 400.586 120.616 400.875 119.975C401.176 119.31 401.678 118.854 402.393 118.583C403.108 118.313 403.786 118.322 404.434 118.629C405.074 118.918 405.537 119.438 405.814 120.171C406.092 120.904 406.089 121.6 405.807 122.259C405.518 122.899 405.016 123.355 404.301 123.626C403.586 123.896 402.908 123.887 402.249 123.605ZM409.277 112.524C410.064 112.226 410.464 111.339 410.173 110.57C409.882 109.801 408.988 109.383 408.202 109.681C407.433 109.972 407.039 110.877 407.33 111.646C407.621 112.415 408.509 112.815 409.277 112.524ZM414.228 122.097L410.846 113.157L408.539 114.03L411.922 122.97L414.228 122.097ZM419.026 117.216L414.494 111.776L411.955 112.737L418.735 120.392L421.364 119.397L421.378 109.172L418.839 110.132L419.026 117.216ZM432.881 111.013C432.806 110.653 432.727 110.335 432.612 110.031C432.105 108.69 431.256 107.744 430.053 107.157C428.867 106.563 427.607 106.529 426.302 107.023C424.925 107.543 423.95 108.423 423.419 109.667C422.881 110.892 422.86 112.188 423.368 113.529C423.882 114.888 424.755 115.845 425.988 116.401C427.22 116.957 428.569 116.957 430.053 116.396C431.77 115.746 432.831 114.609 433.227 113.008L430.962 112.638C430.738 113.398 430.173 113.959 429.297 114.29C427.921 114.811 426.87 114.575 426.14 113.563L432.881 111.013ZM425.428 111.789C425.263 110.543 425.853 109.563 427.087 109.097C428.142 108.697 429.259 108.949 429.987 110.064L425.428 111.789ZM434.837 104.079L432.531 104.952L435.914 113.892L438.22 113.019L436.603 108.746C436.278 107.888 436.317 107.178 436.729 106.593C437.141 106.008 437.731 105.621 438.462 105.447L437.488 102.872C436.272 103.332 435.415 104.31 435.419 105.617L434.837 104.079ZM445.84 101.183C444.816 100.529 443.699 100.44 442.465 100.907C441.213 101.38 440.328 102.227 439.808 103.445C439.288 104.664 439.264 105.899 439.745 107.169C440.225 108.438 441.067 109.367 442.246 109.943C443.435 110.494 444.659 110.542 445.929 110.062C447.163 109.595 447.941 108.789 448.276 107.62L448.641 108.586C449.176 109.998 448.579 111.123 447.131 111.671C446.022 112.091 445.08 111.977 444.315 111.306L442.774 113.177C444.102 114.309 445.906 114.485 447.837 113.755C449.125 113.268 450.08 112.497 450.715 111.419C451.349 110.341 451.415 109.11 450.894 107.733L447.674 99.2223L445.421 100.075L445.84 101.183ZM447.058 104.402C447.599 105.832 446.93 107.251 445.482 107.799C444.033 108.347 442.593 107.727 442.051 106.296C441.788 105.599 441.797 104.921 442.092 104.298C442.399 103.65 442.901 103.195 443.635 102.917C444.368 102.64 445.046 102.649 445.686 102.938C446.338 103.202 446.794 103.704 447.058 104.402ZM460.505 100.561C460.43 100.201 460.351 99.8831 460.236 99.5791C459.728 98.2381 458.88 97.2919 457.677 96.7047C456.491 96.1108 455.231 96.0765 453.926 96.5704C452.549 97.0913 451.574 97.9713 451.043 99.2147C450.505 100.44 450.484 101.736 450.992 103.077C451.506 104.436 452.379 105.393 453.611 105.949C454.844 106.505 456.193 106.505 457.677 105.944C459.393 105.294 460.455 104.156 460.851 102.555L458.586 102.186C458.362 102.945 457.797 103.507 456.921 103.838C455.544 104.359 454.494 104.123 453.764 103.111L460.505 100.561ZM453.052 101.337C452.887 100.091 453.477 99.1113 454.711 98.6445C455.766 98.2453 456.883 98.4971 457.611 99.6115L453.052 101.337Z" fill="#24EBA3"/>
<path d="M404.522 116.756C403.511 116.137 402.383 116.073 401.132 116.546C399.934 117 399.072 117.857 398.559 119.094C398.064 120.324 398.054 121.594 398.555 122.918C399.056 124.241 399.911 125.205 401.096 125.799C402.3 126.386 403.506 126.441 404.704 125.987C405.955 125.514 406.759 124.719 407.107 123.586L407.506 124.641L409.812 123.768L405.076 111.252L402.77 112.125L404.522 116.756ZM402.249 123.605C401.601 123.298 401.139 122.778 400.861 122.045C400.584 121.312 400.586 120.616 400.875 119.975C401.176 119.31 401.678 118.854 402.393 118.583C403.108 118.313 403.786 118.322 404.434 118.629C405.074 118.918 405.537 119.438 405.814 120.171C406.092 120.904 406.089 121.6 405.807 122.259C405.518 122.899 405.016 123.355 404.301 123.626C403.586 123.896 402.908 123.887 402.249 123.605ZM409.277 112.524C410.064 112.226 410.464 111.339 410.173 110.57C409.882 109.801 408.988 109.383 408.202 109.681C407.433 109.972 407.039 110.877 407.33 111.646C407.621 112.415 408.509 112.815 409.277 112.524ZM414.228 122.097L410.846 113.157L408.539 114.03L411.922 122.97L414.228 122.097ZM419.026 117.216L414.494 111.776L411.955 112.737L418.735 120.392L421.364 119.397L421.378 109.172L418.839 110.132L419.026 117.216ZM432.881 111.013C432.806 110.653 432.727 110.335 432.612 110.031C432.105 108.69 431.256 107.744 430.053 107.157C428.867 106.563 427.607 106.529 426.302 107.023C424.925 107.543 423.95 108.423 423.419 109.667C422.881 110.892 422.86 112.188 423.368 113.529C423.882 114.888 424.755 115.845 425.988 116.401C427.22 116.957 428.569 116.957 430.053 116.396C431.77 115.746 432.831 114.609 433.227 113.008L430.962 112.638C430.738 113.398 430.173 113.959 429.297 114.29C427.921 114.811 426.87 114.575 426.14 113.563L432.881 111.013ZM425.428 111.789C425.263 110.543 425.853 109.563 427.087 109.097C428.142 108.697 429.259 108.949 429.987 110.064L425.428 111.789ZM434.837 104.079L432.531 104.952L435.914 113.892L438.22 113.019L436.603 108.746C436.278 107.888 436.317 107.178 436.729 106.593C437.141 106.008 437.731 105.621 438.462 105.447L437.488 102.872C436.272 103.332 435.415 104.31 435.419 105.617L434.837 104.079ZM445.84 101.183C444.816 100.529 443.699 100.44 442.465 100.907C441.213 101.38 440.328 102.227 439.808 103.445C439.288 104.664 439.264 105.899 439.745 107.169C440.225 108.438 441.067 109.367 442.246 109.943C443.435 110.494 444.659 110.542 445.929 110.062C447.163 109.595 447.941 108.789 448.276 107.62L448.641 108.586C449.176 109.998 448.579 111.123 447.131 111.671C446.022 112.091 445.08 111.977 444.315 111.306L442.774 113.177C444.102 114.309 445.906 114.485 447.837 113.755C449.125 113.268 450.08 112.497 450.715 111.419C451.349 110.341 451.415 109.11 450.894 107.733L447.674 99.2223L445.421 100.075L445.84 101.183ZM447.058 104.402C447.599 105.832 446.93 107.251 445.482 107.799C444.033 108.347 442.593 107.727 442.051 106.296C441.788 105.599 441.797 104.921 442.092 104.298C442.399 103.65 442.901 103.195 443.635 102.917C444.368 102.64 445.046 102.649 445.686 102.938C446.338 103.202 446.794 103.704 447.058 104.402ZM460.505 100.561C460.43 100.201 460.351 99.8831 460.236 99.5791C459.728 98.2381 458.88 97.2919 457.677 96.7047C456.491 96.1108 455.231 96.0765 453.926 96.5704C452.549 97.0913 451.574 97.9713 451.043 99.2147C450.505 100.44 450.484 101.736 450.992 103.077C451.506 104.436 452.379 105.393 453.611 105.949C454.844 106.505 456.193 106.505 457.677 105.944C459.393 105.294 460.455 104.156 460.851 102.555L458.586 102.186C458.362 102.945 457.797 103.507 456.921 103.838C455.544 104.359 454.494 104.123 453.764 103.111L460.505 100.561ZM453.052 101.337C452.887 100.091 453.477 99.1113 454.711 98.6445C455.766 98.2453 456.883 98.4971 457.611 99.6115L453.052 101.337Z" fill="black" fill-opacity="0.5"/>
<path d="M855.764 52.0519C857.147 53.2869 859.009 53.6419 860.642 53.0755L859.86 50.7368C859.052 51.0668 858.121 50.8759 857.379 50.2138C856.823 49.7172 856.532 49.1244 856.494 48.4496C856.469 47.7605 856.703 47.1244 857.2 46.5682C858.218 45.4273 859.757 45.3402 860.855 46.3206C861.582 46.9699 861.865 47.8882 861.628 48.7275L864.038 49.2138C864.459 47.5652 863.87 45.7572 862.486 44.5222C861.417 43.5673 860.2 43.1217 858.823 43.1996C857.461 43.2903 856.315 43.8562 855.36 44.9258C854.405 45.9953 853.972 47.1978 854.036 48.5617C854.114 49.9384 854.694 51.097 855.764 52.0519ZM866.891 60.0387C868.268 59.9607 869.441 59.3933 870.383 58.338C871.325 57.2827 871.744 56.0675 871.666 54.6909C871.588 53.3142 871.02 52.1413 869.965 51.1991C868.91 50.2569 867.68 49.8256 866.304 49.9036C864.927 49.9815 863.781 50.5474 862.839 51.6027C861.897 52.658 861.451 53.8747 861.529 55.2514C861.607 56.628 862.187 57.7867 863.242 58.7289C864.298 59.671 865.514 60.1166 866.891 60.0387ZM863.96 55.1408C863.934 54.4517 864.169 53.8156 864.678 53.2451C865.188 52.6747 865.793 52.3696 866.481 52.3171C867.183 52.2774 867.805 52.4994 868.361 52.996C868.917 53.4925 869.208 54.0854 869.247 54.7872C869.287 55.489 869.052 56.1251 868.543 56.6956C868.034 57.266 867.428 57.5711 866.726 57.6108C866.025 57.6506 865.403 57.4285 864.847 56.932C864.29 56.4354 864 55.8426 863.96 55.1408ZM879.003 59.2681C878.033 58.4024 877.027 58.0937 875.987 58.3693L876.7 57.5707L874.86 55.9283L868.494 63.0587L870.334 64.7011L873.771 60.8507C874.828 59.6671 875.963 59.6298 876.919 60.4829C877.774 61.2468 877.872 62.2568 877.019 63.2123L873.314 67.3622L875.154 69.0046L879.063 64.6265C879.89 63.6996 880.27 62.7573 880.228 61.7713C880.2 60.7981 879.787 59.9684 879.003 59.2681ZM881.461 70.7916L884.192 64.2597L882.167 62.4517L878.51 72.0013L880.607 73.8729L889.682 69.1616L887.657 67.3536L881.461 70.7916ZM893.364 80.2138C893.648 79.981 893.893 79.764 894.11 79.5216C895.065 78.452 895.512 77.2623 895.477 75.9238C895.456 74.5981 894.904 73.4649 893.863 72.5355C892.765 71.5551 891.534 71.0968 890.186 71.2002C888.85 71.2894 887.692 71.8695 886.737 72.9391C885.769 74.0229 885.324 75.2396 885.4 76.5893C885.477 77.9389 886.099 79.1358 887.283 80.1925C888.652 81.4148 890.152 81.8309 891.754 81.4422L891.035 79.2624C890.258 79.4147 889.5 79.1734 888.801 78.5495C887.703 77.5691 887.428 76.5286 887.987 75.4137L893.364 80.2138ZM889.232 73.9622C890.261 73.2405 891.402 73.3112 892.386 74.1897C893.228 74.9409 893.52 76.0482 892.869 77.2089L889.232 73.9622ZM900.417 78.7454L898.577 77.103L892.211 84.2334L894.051 85.8759L897.094 82.4675C897.705 81.783 898.352 81.4891 899.061 81.5843C899.77 81.6795 900.386 82.0238 900.878 82.5917L902.712 80.5381C901.742 79.6723 900.479 79.3647 899.322 79.9719L900.417 78.7454ZM908.068 87.1657C908.176 85.9545 907.738 84.9232 906.754 84.0447C905.756 83.1534 904.596 82.7588 903.275 82.8606C901.954 82.9625 900.848 83.5126 899.944 84.5251C899.04 85.5377 898.605 86.7132 898.639 88.0246C898.7 89.3345 899.223 90.4423 900.235 91.3462C901.219 92.2248 902.293 92.543 903.485 92.2996L902.797 93.0697C901.791 94.1963 900.518 94.1871 899.363 93.1558C898.479 92.3664 898.144 91.4782 898.386 90.4896L896.015 89.9875C895.624 91.6886 896.301 93.3698 897.842 94.7449C898.868 95.6616 899.993 96.1531 901.242 96.2177C902.492 96.2824 903.614 95.772 904.594 94.6739L910.654 87.8857L908.858 86.2815L908.068 87.1657ZM905.776 89.7326C904.758 90.8735 903.191 90.9352 902.036 89.9038C900.88 88.8725 900.765 87.3085 901.783 86.1676C902.28 85.6114 902.885 85.3063 903.575 85.2809C904.291 85.2538 904.927 85.4886 905.511 86.0106C906.096 86.5326 906.401 87.1382 906.441 87.84C906.508 88.5403 906.273 89.1764 905.776 89.7326ZM915.396 99.884C915.68 99.6512 915.925 99.4343 916.142 99.1918C917.097 98.1223 917.544 96.9325 917.509 95.5941C917.488 94.2684 916.936 93.1352 915.895 92.2057C914.797 91.2253 913.566 90.767 912.218 90.8704C910.882 90.9596 909.724 91.5397 908.769 92.6093C907.801 93.6931 907.356 94.9099 907.432 96.2595C907.508 97.6092 908.131 98.806 909.315 99.8628C910.684 101.085 912.183 101.501 913.786 101.112L913.067 98.9327C912.29 99.085 911.532 98.8436 910.833 98.2197C909.735 97.2393 909.46 96.1988 910.019 95.084L915.396 99.884ZM911.264 93.6324C912.293 92.9107 913.434 92.9815 914.418 93.86C915.259 94.6112 915.552 95.7184 914.9 96.8791L911.264 93.6324Z" fill="#24EBA3"/>
<path d="M855.764 52.0519C857.147 53.2869 859.009 53.6419 860.642 53.0755L859.86 50.7368C859.052 51.0668 858.121 50.8759 857.379 50.2138C856.823 49.7172 856.532 49.1244 856.494 48.4496C856.469 47.7605 856.703 47.1244 857.2 46.5682C858.218 45.4273 859.757 45.3402 860.855 46.3206C861.582 46.9699 861.865 47.8882 861.628 48.7275L864.038 49.2138C864.459 47.5652 863.87 45.7572 862.486 44.5222C861.417 43.5673 860.2 43.1217 858.823 43.1996C857.461 43.2903 856.315 43.8562 855.36 44.9258C854.405 45.9953 853.972 47.1978 854.036 48.5617C854.114 49.9384 854.694 51.097 855.764 52.0519ZM866.891 60.0387C868.268 59.9607 869.441 59.3933 870.383 58.338C871.325 57.2827 871.744 56.0675 871.666 54.6909C871.588 53.3142 871.02 52.1413 869.965 51.1991C868.91 50.2569 867.68 49.8256 866.304 49.9036C864.927 49.9815 863.781 50.5474 862.839 51.6027C861.897 52.658 861.451 53.8747 861.529 55.2514C861.607 56.628 862.187 57.7867 863.242 58.7289C864.298 59.671 865.514 60.1166 866.891 60.0387ZM863.96 55.1408C863.934 54.4517 864.169 53.8156 864.678 53.2451C865.188 52.6747 865.793 52.3696 866.481 52.3171C867.183 52.2774 867.805 52.4994 868.361 52.996C868.917 53.4925 869.208 54.0854 869.247 54.7872C869.287 55.489 869.052 56.1251 868.543 56.6956C868.034 57.266 867.428 57.5711 866.726 57.6108C866.025 57.6506 865.403 57.4285 864.847 56.932C864.29 56.4354 864 55.8426 863.96 55.1408ZM879.003 59.2681C878.033 58.4024 877.027 58.0937 875.987 58.3693L876.7 57.5707L874.86 55.9283L868.494 63.0587L870.334 64.7011L873.771 60.8507C874.828 59.6671 875.963 59.6298 876.919 60.4829C877.774 61.2468 877.872 62.2568 877.019 63.2123L873.314 67.3622L875.154 69.0046L879.063 64.6265C879.89 63.6996 880.27 62.7573 880.228 61.7713C880.2 60.7981 879.787 59.9684 879.003 59.2681ZM881.461 70.7916L884.192 64.2597L882.167 62.4517L878.51 72.0013L880.607 73.8729L889.682 69.1616L887.657 67.3536L881.461 70.7916ZM893.364 80.2138C893.648 79.981 893.893 79.764 894.11 79.5216C895.065 78.452 895.512 77.2623 895.477 75.9238C895.456 74.5981 894.904 73.4649 893.863 72.5355C892.765 71.5551 891.534 71.0968 890.186 71.2002C888.85 71.2894 887.692 71.8695 886.737 72.9391C885.769 74.0229 885.324 75.2396 885.4 76.5893C885.477 77.9389 886.099 79.1358 887.283 80.1925C888.652 81.4148 890.152 81.8309 891.754 81.4422L891.035 79.2624C890.258 79.4147 889.5 79.1734 888.801 78.5495C887.703 77.5691 887.428 76.5286 887.987 75.4137L893.364 80.2138ZM889.232 73.9622C890.261 73.2405 891.402 73.3112 892.386 74.1897C893.228 74.9409 893.52 76.0482 892.869 77.2089L889.232 73.9622ZM900.417 78.7454L898.577 77.103L892.211 84.2334L894.051 85.8759L897.094 82.4675C897.705 81.783 898.352 81.4891 899.061 81.5843C899.77 81.6795 900.386 82.0238 900.878 82.5917L902.712 80.5381C901.742 79.6723 900.479 79.3647 899.322 79.9719L900.417 78.7454ZM908.068 87.1657C908.176 85.9545 907.738 84.9232 906.754 84.0447C905.756 83.1534 904.596 82.7588 903.275 82.8606C901.954 82.9625 900.848 83.5126 899.944 84.5251C899.04 85.5377 898.605 86.7132 898.639 88.0246C898.7 89.3345 899.223 90.4423 900.235 91.3462C901.219 92.2248 902.293 92.543 903.485 92.2996L902.797 93.0697C901.791 94.1963 900.518 94.1871 899.363 93.1558C898.479 92.3664 898.144 91.4782 898.386 90.4896L896.015 89.9875C895.624 91.6886 896.301 93.3698 897.842 94.7449C898.868 95.6616 899.993 96.1531 901.242 96.2177C902.492 96.2824 903.614 95.772 904.594 94.6739L910.654 87.8857L908.858 86.2815L908.068 87.1657ZM905.776 89.7326C904.758 90.8735 903.191 90.9352 902.036 89.9038C900.88 88.8725 900.765 87.3085 901.783 86.1676C902.28 85.6114 902.885 85.3063 903.575 85.2809C904.291 85.2538 904.927 85.4886 905.511 86.0106C906.096 86.5326 906.401 87.1382 906.441 87.84C906.508 88.5403 906.273 89.1764 905.776 89.7326ZM915.396 99.884C915.68 99.6512 915.925 99.4343 916.142 99.1918C917.097 98.1223 917.544 96.9325 917.509 95.5941C917.488 94.2684 916.936 93.1352 915.895 92.2057C914.797 91.2253 913.566 90.767 912.218 90.8704C910.882 90.9596 909.724 91.5397 908.769 92.6093C907.801 93.6931 907.356 94.9099 907.432 96.2595C907.508 97.6092 908.131 98.806 909.315 99.8628C910.684 101.085 912.183 101.501 913.786 101.112L913.067 98.9327C912.29 99.085 911.532 98.8436 910.833 98.2197C909.735 97.2393 909.46 96.1988 910.019 95.084L915.396 99.884ZM911.264 93.6324C912.293 92.9107 913.434 92.9815 914.418 93.86C915.259 94.6112 915.552 95.7184 914.9 96.8791L911.264 93.6324Z" fill="black" fill-opacity="0.5"/>
<path d="M1006.53 89.7971C1005.37 89.5822 1004.29 89.9275 1003.29 90.8188C1002.34 91.6718 1001.84 92.7811 1001.81 94.1196C1001.79 95.4453 1002.23 96.635 1003.18 97.6903C1004.12 98.7456 1005.26 99.3384 1006.58 99.4673C1007.92 99.5834 1009.06 99.2014 1010.02 98.3483C1011.01 97.4571 1011.48 96.4273 1011.4 95.2447L1012.15 96.086L1013.99 94.4435L1005.08 84.4611L1003.24 86.1036L1006.53 89.7971ZM1006.87 97.0058C1006.16 96.9518 1005.54 96.6325 1005.02 96.0478C1004.49 95.4631 1004.25 94.8127 1004.29 94.1109C1004.33 93.3821 1004.63 92.7765 1005.2 92.2672C1005.77 91.7579 1006.41 91.5231 1007.12 91.5771C1007.83 91.6169 1008.44 91.9362 1008.97 92.5209C1009.49 93.1056 1009.73 93.756 1009.71 94.472C1009.67 95.1739 1009.36 95.7794 1008.79 96.2887C1008.22 96.798 1007.59 97.0328 1006.87 97.0058ZM1009.45 84.1406C1010.08 83.5804 1010.14 82.6086 1009.59 81.9954C1009.04 81.3822 1008.06 81.3129 1007.43 81.8732C1006.82 82.4207 1006.77 83.4067 1007.32 84.0199C1007.87 84.6331 1008.84 84.6881 1009.45 84.1406ZM1017.51 91.2989L1011.14 84.1686L1009.3 85.8111L1015.67 92.9414L1017.51 91.2989ZM1020.24 85.0209L1014.05 81.5703L1012.03 83.3783L1021.1 88.0894L1023.2 86.2177L1019.54 76.6683L1017.52 78.4763L1020.24 85.0209ZM1030.94 74.2579C1030.74 73.9488 1030.55 73.6809 1030.34 73.4384C1029.38 72.3689 1028.25 71.7903 1026.92 71.6742C1025.6 71.5453 1024.41 71.9655 1023.37 72.895C1022.27 73.8754 1021.68 75.0468 1021.63 76.3979C1021.56 77.7349 1022.01 78.9516 1022.97 80.0211C1023.93 81.1049 1025.09 81.685 1026.44 81.7614C1027.79 81.8379 1029.05 81.354 1030.23 80.2972C1031.6 79.0749 1032.19 77.632 1031.98 75.9957L1029.73 76.4642C1029.8 77.2531 1029.47 77.9794 1028.77 78.6033C1027.67 79.5837 1026.61 79.74 1025.57 79.0581L1030.94 74.2579ZM1024.26 77.6575C1023.66 76.5538 1023.86 75.4277 1024.85 74.5492C1025.69 73.798 1026.82 73.6319 1027.9 74.4107L1024.26 77.6575ZM1030.28 67.0842L1028.44 68.7267L1034.81 75.8569L1036.64 74.2145L1033.6 70.8062C1032.99 70.1217 1032.77 69.4458 1032.95 68.7516C1033.12 68.0575 1033.53 67.485 1034.15 67.0597L1032.32 65.0062C1031.35 65.872 1030.9 67.0923 1031.37 68.3106L1030.28 67.0842ZM1039.51 60.4321C1038.32 60.1886 1037.24 60.5069 1036.26 61.3855C1035.26 62.2767 1034.74 63.3845 1034.69 64.7087C1034.64 66.0329 1035.06 67.1941 1035.97 68.2066C1036.87 69.2191 1037.99 69.7834 1039.3 69.898C1040.61 69.9856 1041.77 69.5909 1042.78 68.6869C1043.76 67.8083 1044.2 66.777 1044.09 65.5659L1044.78 66.3359C1045.79 67.4625 1045.63 68.7266 1044.48 69.758C1043.59 70.5474 1042.67 70.7796 1041.72 70.4277L1040.95 72.7267C1042.6 73.3073 1044.35 72.824 1045.89 71.4488C1046.91 70.5321 1047.53 69.4702 1047.73 68.2362C1047.94 67.0021 1047.56 65.8297 1046.58 64.7316L1040.52 57.9436L1038.72 59.5479L1039.51 60.4321ZM1041.8 62.999C1042.82 64.1398 1042.7 65.7039 1041.55 66.7352C1040.39 67.7666 1038.83 67.7049 1037.81 66.5641C1037.31 66.0079 1037.08 65.3718 1037.13 64.6842C1037.18 63.9697 1037.49 63.3641 1038.07 62.8421C1038.66 62.3201 1039.29 62.0853 1040 62.125C1040.7 62.1377 1041.3 62.4428 1041.8 62.999ZM1052.97 54.5872C1052.77 54.278 1052.59 54.0101 1052.37 53.7677C1051.41 52.6981 1050.28 52.1196 1048.95 52.0034C1047.63 51.8746 1046.44 52.2947 1045.4 53.2242C1044.3 54.2046 1043.71 55.376 1043.66 56.7272C1043.6 58.0641 1044.04 59.2809 1045 60.3504C1045.96 61.4342 1047.12 62.0143 1048.47 62.0907C1049.82 62.1671 1051.08 61.6833 1052.27 60.6265C1053.63 59.4042 1054.22 57.9613 1054.01 56.3249L1051.76 56.7935C1051.83 57.5824 1051.5 58.3086 1050.8 58.9325C1049.71 59.9129 1048.64 60.0693 1047.6 59.3873L1052.97 54.5872ZM1046.29 57.9867C1045.69 56.8831 1045.89 55.757 1046.88 54.8784C1047.72 54.1272 1048.85 53.9612 1049.93 54.7399L1046.29 57.9867Z" fill="#5C5AEA"/>
<path d="M1006.53 89.7971C1005.37 89.5822 1004.29 89.9275 1003.29 90.8188C1002.34 91.6718 1001.84 92.7811 1001.81 94.1196C1001.79 95.4453 1002.23 96.635 1003.18 97.6903C1004.12 98.7456 1005.26 99.3384 1006.58 99.4673C1007.92 99.5834 1009.06 99.2014 1010.02 98.3483C1011.01 97.4571 1011.48 96.4273 1011.4 95.2447L1012.15 96.086L1013.99 94.4435L1005.08 84.4611L1003.24 86.1036L1006.53 89.7971ZM1006.87 97.0058C1006.16 96.9518 1005.54 96.6325 1005.02 96.0478C1004.49 95.4631 1004.25 94.8127 1004.29 94.1109C1004.33 93.3821 1004.63 92.7765 1005.2 92.2672C1005.77 91.7579 1006.41 91.5231 1007.12 91.5771C1007.83 91.6169 1008.44 91.9362 1008.97 92.5209C1009.49 93.1056 1009.73 93.756 1009.71 94.472C1009.67 95.1739 1009.36 95.7794 1008.79 96.2887C1008.22 96.798 1007.59 97.0328 1006.87 97.0058ZM1009.45 84.1406C1010.08 83.5804 1010.14 82.6086 1009.59 81.9954C1009.04 81.3822 1008.06 81.3129 1007.43 81.8732C1006.82 82.4207 1006.77 83.4067 1007.32 84.0199C1007.87 84.6331 1008.84 84.6881 1009.45 84.1406ZM1017.51 91.2989L1011.14 84.1686L1009.3 85.8111L1015.67 92.9414L1017.51 91.2989ZM1020.24 85.0209L1014.05 81.5703L1012.03 83.3783L1021.1 88.0894L1023.2 86.2177L1019.54 76.6683L1017.52 78.4763L1020.24 85.0209ZM1030.94 74.2579C1030.74 73.9488 1030.55 73.6809 1030.34 73.4384C1029.38 72.3689 1028.25 71.7903 1026.92 71.6742C1025.6 71.5453 1024.41 71.9655 1023.37 72.895C1022.27 73.8754 1021.68 75.0468 1021.63 76.3979C1021.56 77.7349 1022.01 78.9516 1022.97 80.0211C1023.93 81.1049 1025.09 81.685 1026.44 81.7614C1027.79 81.8379 1029.05 81.354 1030.23 80.2972C1031.6 79.0749 1032.19 77.632 1031.98 75.9957L1029.73 76.4642C1029.8 77.2531 1029.47 77.9794 1028.77 78.6033C1027.67 79.5837 1026.61 79.74 1025.57 79.0581L1030.94 74.2579ZM1024.26 77.6575C1023.66 76.5538 1023.86 75.4277 1024.85 74.5492C1025.69 73.798 1026.82 73.6319 1027.9 74.4107L1024.26 77.6575ZM1030.28 67.0842L1028.44 68.7267L1034.81 75.8569L1036.64 74.2145L1033.6 70.8062C1032.99 70.1217 1032.77 69.4458 1032.95 68.7516C1033.12 68.0575 1033.53 67.485 1034.15 67.0597L1032.32 65.0062C1031.35 65.872 1030.9 67.0923 1031.37 68.3106L1030.28 67.0842ZM1039.51 60.4321C1038.32 60.1886 1037.24 60.5069 1036.26 61.3855C1035.26 62.2767 1034.74 63.3845 1034.69 64.7087C1034.64 66.0329 1035.06 67.1941 1035.97 68.2066C1036.87 69.2191 1037.99 69.7834 1039.3 69.898C1040.61 69.9856 1041.77 69.5909 1042.78 68.6869C1043.76 67.8083 1044.2 66.777 1044.09 65.5659L1044.78 66.3359C1045.79 67.4625 1045.63 68.7266 1044.48 69.758C1043.59 70.5474 1042.67 70.7796 1041.72 70.4277L1040.95 72.7267C1042.6 73.3073 1044.35 72.824 1045.89 71.4488C1046.91 70.5321 1047.53 69.4702 1047.73 68.2362C1047.94 67.0021 1047.56 65.8297 1046.58 64.7316L1040.52 57.9436L1038.72 59.5479L1039.51 60.4321ZM1041.8 62.999C1042.82 64.1398 1042.7 65.7039 1041.55 66.7352C1040.39 67.7666 1038.83 67.7049 1037.81 66.5641C1037.31 66.0079 1037.08 65.3718 1037.13 64.6842C1037.18 63.9697 1037.49 63.3641 1038.07 62.8421C1038.66 62.3201 1039.29 62.0853 1040 62.125C1040.7 62.1377 1041.3 62.4428 1041.8 62.999ZM1052.97 54.5872C1052.77 54.278 1052.59 54.0101 1052.37 53.7677C1051.41 52.6981 1050.28 52.1196 1048.95 52.0034C1047.63 51.8746 1046.44 52.2947 1045.4 53.2242C1044.3 54.2046 1043.71 55.376 1043.66 56.7272C1043.6 58.0641 1044.04 59.2809 1045 60.3504C1045.96 61.4342 1047.12 62.0143 1048.47 62.0907C1049.82 62.1671 1051.08 61.6833 1052.27 60.6265C1053.63 59.4042 1054.22 57.9613 1054.01 56.3249L1051.76 56.7935C1051.83 57.5824 1051.5 58.3086 1050.8 58.9325C1049.71 59.9129 1048.64 60.0693 1047.6 59.3873L1052.97 54.5872ZM1046.29 57.9867C1045.69 56.8831 1045.89 55.757 1046.88 54.8784C1047.72 54.1272 1048.85 53.9612 1049.93 54.7399L1046.29 57.9867Z" fill="black" fill-opacity="0.5"/>
<path d="M1437.22 98.5231C1438.95 99.1795 1440.82 98.8428 1442.14 97.728L1440.57 95.8258C1439.93 96.4236 1439 96.5796 1438.07 96.2277C1437.37 95.9638 1436.89 95.5148 1436.61 94.8986C1436.34 94.2646 1436.33 93.5866 1436.59 92.8893C1437.13 91.4589 1438.54 90.8254 1439.91 91.3465C1440.83 91.6916 1441.42 92.4475 1441.5 93.3159L1443.92 92.9048C1443.72 91.2149 1442.53 89.7389 1440.79 89.0825C1439.45 88.575 1438.15 88.5957 1436.9 89.1624C1435.66 89.736 1434.79 90.6753 1434.28 92.0163C1433.78 93.3573 1433.8 94.635 1434.35 95.8853C1434.92 97.1423 1435.88 98.0156 1437.22 98.5231ZM1450.47 101.985C1451.73 101.418 1452.62 100.468 1453.12 99.1447C1453.62 97.8216 1453.57 96.5371 1453.01 95.2801C1452.44 94.0231 1451.49 93.132 1450.17 92.6312C1448.84 92.1304 1447.54 92.169 1446.29 92.7358C1445.03 93.3025 1444.16 94.2419 1443.66 95.565C1443.16 96.8881 1443.18 98.1837 1443.75 99.4407C1444.31 100.698 1445.27 101.571 1446.59 102.072C1447.92 102.573 1449.21 102.552 1450.47 101.985ZM1445.98 98.4652C1445.71 97.8311 1445.7 97.1531 1445.97 96.4379C1446.24 95.7227 1446.69 95.2207 1447.32 94.925C1447.96 94.636 1448.62 94.6201 1449.31 94.8841C1450.01 95.148 1450.5 95.597 1450.79 96.2378C1451.07 96.8786 1451.08 97.5566 1450.81 98.2718C1450.54 98.987 1450.09 99.489 1449.45 99.778C1448.8 100.067 1448.14 100.083 1447.45 99.8189C1446.75 99.555 1446.27 99.106 1445.98 98.4652ZM1461.5 96.9197C1460.28 96.4596 1459.23 96.5325 1458.36 97.1631L1458.74 96.1618L1456.43 95.2889L1453.05 104.229L1455.36 105.102L1457.18 100.274C1457.75 98.7901 1458.79 98.348 1459.99 98.8014C1461.06 99.2074 1461.52 100.115 1461.06 101.313L1459.09 106.516L1461.4 107.389L1463.48 101.9C1463.92 100.738 1463.93 99.7218 1463.54 98.8167C1463.17 97.9183 1462.48 97.2919 1461.5 96.9197ZM1467.93 106.794L1468.13 99.7169L1465.59 98.756L1465.61 108.982L1468.24 109.976L1475.02 102.322L1472.48 101.361L1467.93 106.794ZM1482.42 111.317C1482.6 110.998 1482.75 110.707 1482.87 110.403C1483.37 109.062 1483.37 107.791 1482.85 106.555C1482.36 105.325 1481.44 104.465 1480.13 103.971C1478.75 103.45 1477.44 103.464 1476.22 104.044C1475 104.607 1474.13 105.564 1473.62 106.905C1473.11 108.264 1473.13 109.559 1473.69 110.792C1474.24 112.024 1475.25 112.918 1476.74 113.479C1478.45 114.129 1480 113.979 1481.36 113.041L1479.9 111.265C1479.23 111.686 1478.44 111.733 1477.56 111.401C1476.19 110.88 1475.56 110.008 1475.68 108.766L1482.42 111.317ZM1476.32 106.965C1477.02 105.922 1478.11 105.578 1479.35 106.045C1480.4 106.444 1481.07 107.373 1480.88 108.69L1476.32 106.965ZM1488.48 107.416L1486.17 106.543L1482.79 115.483L1485.09 116.356L1486.71 112.082C1487.03 111.224 1487.53 110.718 1488.23 110.552C1488.93 110.386 1489.62 110.487 1490.29 110.84L1491.26 108.266C1490.05 107.805 1488.76 107.972 1487.89 108.953L1488.48 107.416ZM1498.64 112.53C1498.3 111.361 1497.53 110.555 1496.29 110.088C1495.04 109.614 1493.82 109.662 1492.62 110.231C1491.42 110.8 1490.59 111.711 1490.11 112.98C1489.63 114.25 1489.64 115.503 1490.15 116.715C1490.67 117.916 1491.56 118.762 1492.83 119.243C1494.06 119.709 1495.18 119.621 1496.2 118.966L1495.84 119.932C1495.3 121.344 1494.11 121.793 1492.66 121.245C1491.55 120.825 1490.92 120.116 1490.79 119.107L1488.4 119.489C1488.65 121.217 1489.88 122.543 1491.81 123.274C1493.1 123.761 1494.33 123.816 1495.52 123.428C1496.71 123.04 1497.57 122.161 1498.09 120.785L1501.31 112.274L1499.06 111.421L1498.64 112.53ZM1497.42 115.748C1496.88 117.178 1495.44 117.798 1493.99 117.25C1492.54 116.702 1491.87 115.284 1492.41 113.853C1492.68 113.156 1493.13 112.654 1493.77 112.383C1494.43 112.101 1495.11 112.092 1495.84 112.369C1496.57 112.646 1497.07 113.102 1497.36 113.743C1497.68 114.373 1497.69 115.051 1497.42 115.748ZM1510.04 121.772C1510.22 121.452 1510.38 121.162 1510.49 120.858C1511 119.517 1510.99 118.246 1510.48 117.009C1509.98 115.779 1509.06 114.919 1507.75 114.425C1506.38 113.904 1505.06 113.918 1503.84 114.499C1502.63 115.061 1501.75 116.018 1501.25 117.359C1500.73 118.718 1500.75 120.014 1501.31 121.246C1501.86 122.478 1502.88 123.372 1504.36 123.934C1506.08 124.583 1507.62 124.434 1508.98 123.496L1507.53 121.719C1506.86 122.14 1506.06 122.187 1505.19 121.855C1503.81 121.334 1503.18 120.462 1503.3 119.22L1510.04 121.772ZM1503.94 117.419C1504.64 116.376 1505.73 116.033 1506.97 116.5C1508.02 116.899 1508.69 117.827 1508.5 119.145L1503.94 117.419Z" fill="#24EBA3"/>
<path d="M1437.22 98.5231C1438.95 99.1795 1440.82 98.8428 1442.14 97.728L1440.57 95.8258C1439.93 96.4236 1439 96.5796 1438.07 96.2277C1437.37 95.9638 1436.89 95.5148 1436.61 94.8986C1436.34 94.2646 1436.33 93.5866 1436.59 92.8893C1437.13 91.4589 1438.54 90.8254 1439.91 91.3465C1440.83 91.6916 1441.42 92.4475 1441.5 93.3159L1443.92 92.9048C1443.72 91.2149 1442.53 89.7389 1440.79 89.0825C1439.45 88.575 1438.15 88.5957 1436.9 89.1624C1435.66 89.736 1434.79 90.6753 1434.28 92.0163C1433.78 93.3573 1433.8 94.635 1434.35 95.8853C1434.92 97.1423 1435.88 98.0156 1437.22 98.5231ZM1450.47 101.985C1451.73 101.418 1452.62 100.468 1453.12 99.1447C1453.62 97.8216 1453.57 96.5371 1453.01 95.2801C1452.44 94.0231 1451.49 93.132 1450.17 92.6312C1448.84 92.1304 1447.54 92.169 1446.29 92.7358C1445.03 93.3025 1444.16 94.2419 1443.66 95.565C1443.16 96.8881 1443.18 98.1837 1443.75 99.4407C1444.31 100.698 1445.27 101.571 1446.59 102.072C1447.92 102.573 1449.21 102.552 1450.47 101.985ZM1445.98 98.4652C1445.71 97.8311 1445.7 97.1531 1445.97 96.4379C1446.24 95.7227 1446.69 95.2207 1447.32 94.925C1447.96 94.636 1448.62 94.6201 1449.31 94.8841C1450.01 95.148 1450.5 95.597 1450.79 96.2378C1451.07 96.8786 1451.08 97.5566 1450.81 98.2718C1450.54 98.987 1450.09 99.489 1449.45 99.778C1448.8 100.067 1448.14 100.083 1447.45 99.8189C1446.75 99.555 1446.27 99.106 1445.98 98.4652ZM1461.5 96.9197C1460.28 96.4596 1459.23 96.5325 1458.36 97.1631L1458.74 96.1618L1456.43 95.2889L1453.05 104.229L1455.36 105.102L1457.18 100.274C1457.75 98.7901 1458.79 98.348 1459.99 98.8014C1461.06 99.2074 1461.52 100.115 1461.06 101.313L1459.09 106.516L1461.4 107.389L1463.48 101.9C1463.92 100.738 1463.93 99.7218 1463.54 98.8167C1463.17 97.9183 1462.48 97.2919 1461.5 96.9197ZM1467.93 106.794L1468.13 99.7169L1465.59 98.756L1465.61 108.982L1468.24 109.976L1475.02 102.322L1472.48 101.361L1467.93 106.794ZM1482.42 111.317C1482.6 110.998 1482.75 110.707 1482.87 110.403C1483.37 109.062 1483.37 107.791 1482.85 106.555C1482.36 105.325 1481.44 104.465 1480.13 103.971C1478.75 103.45 1477.44 103.464 1476.22 104.044C1475 104.607 1474.13 105.564 1473.62 106.905C1473.11 108.264 1473.13 109.559 1473.69 110.792C1474.24 112.024 1475.25 112.918 1476.74 113.479C1478.45 114.129 1480 113.979 1481.36 113.041L1479.9 111.265C1479.23 111.686 1478.44 111.733 1477.56 111.401C1476.19 110.88 1475.56 110.008 1475.68 108.766L1482.42 111.317ZM1476.32 106.965C1477.02 105.922 1478.11 105.578 1479.35 106.045C1480.4 106.444 1481.07 107.373 1480.88 108.69L1476.32 106.965ZM1488.48 107.416L1486.17 106.543L1482.79 115.483L1485.09 116.356L1486.71 112.082C1487.03 111.224 1487.53 110.718 1488.23 110.552C1488.93 110.386 1489.62 110.487 1490.29 110.84L1491.26 108.266C1490.05 107.805 1488.76 107.972 1487.89 108.953L1488.48 107.416ZM1498.64 112.53C1498.3 111.361 1497.53 110.555 1496.29 110.088C1495.04 109.614 1493.82 109.662 1492.62 110.231C1491.42 110.8 1490.59 111.711 1490.11 112.98C1489.63 114.25 1489.64 115.503 1490.15 116.715C1490.67 117.916 1491.56 118.762 1492.83 119.243C1494.06 119.709 1495.18 119.621 1496.2 118.966L1495.84 119.932C1495.3 121.344 1494.11 121.793 1492.66 121.245C1491.55 120.825 1490.92 120.116 1490.79 119.107L1488.4 119.489C1488.65 121.217 1489.88 122.543 1491.81 123.274C1493.1 123.761 1494.33 123.816 1495.52 123.428C1496.71 123.04 1497.57 122.161 1498.09 120.785L1501.31 112.274L1499.06 111.421L1498.64 112.53ZM1497.42 115.748C1496.88 117.178 1495.44 117.798 1493.99 117.25C1492.54 116.702 1491.87 115.284 1492.41 113.853C1492.68 113.156 1493.13 112.654 1493.77 112.383C1494.43 112.101 1495.11 112.092 1495.84 112.369C1496.57 112.646 1497.07 113.102 1497.36 113.743C1497.68 114.373 1497.69 115.051 1497.42 115.748ZM1510.04 121.772C1510.22 121.452 1510.38 121.162 1510.49 120.858C1511 119.517 1510.99 118.246 1510.48 117.009C1509.98 115.779 1509.06 114.919 1507.75 114.425C1506.38 113.904 1505.06 113.918 1503.84 114.499C1502.63 115.061 1501.75 116.018 1501.25 117.359C1500.73 118.718 1500.75 120.014 1501.31 121.246C1501.86 122.478 1502.88 123.372 1504.36 123.934C1506.08 124.583 1507.62 124.434 1508.98 123.496L1507.53 121.719C1506.86 122.14 1506.06 122.187 1505.19 121.855C1503.81 121.334 1503.18 120.462 1503.3 119.22L1510.04 121.772ZM1503.94 117.419C1504.64 116.376 1505.73 116.033 1506.97 116.5C1508.02 116.899 1508.69 117.827 1508.5 119.145L1503.94 117.419Z" fill="#2E2D75"/>
<path d="M0 0.207031H90.296C101.138 0.207031 111.685 3.73083 120.35 10.2474L334.374 171.215C339.693 175.216 339.693 183.199 334.374 187.199L120.35 348.167C111.685 354.683 101.137 358.207 90.296 358.207H0V0.207031Z" fill="#363636"/>
<path d="M1920 0.207031H1829.7C1818.86 0.207031 1808.31 3.73083 1799.65 10.2474L1585.63 171.215C1580.31 175.216 1580.31 183.199 1585.63 187.199L1799.65 348.167C1808.31 354.683 1818.86 358.207 1829.7 358.207H1920V0.207031Z" fill="#FFCC00"/>
<path d="M41.401 169.207H47.001V149.607H41.401V169.207ZM61.5555 158.567L55.3955 149.607H50.9155V169.207H56.5155V160.247L62.6755 169.207H67.1555V149.607H61.5555V158.567ZM81.7068 158.567L75.5468 149.607H71.0668V169.207H76.6668V160.247L82.8268 169.207H87.3068V149.607H81.7068V158.567ZM108.27 166.715C110.286 164.727 111.294 162.291 111.294 159.407C111.294 156.523 110.286 154.087 108.27 152.127C106.282 150.139 103.818 149.159 100.906 149.159C97.994 149.159 95.53 150.139 93.514 152.127C91.526 154.087 90.518 156.523 90.518 159.407C90.518 162.291 91.526 164.727 93.514 166.715C95.53 168.675 97.994 169.655 100.906 169.655C103.818 169.655 106.282 168.675 108.27 166.715ZM97.462 162.823C96.566 161.899 96.118 160.779 96.118 159.407C96.118 158.035 96.566 156.915 97.462 156.019C98.386 155.095 99.534 154.647 100.906 154.647C102.278 154.647 103.426 155.095 104.322 156.019C105.246 156.915 105.694 158.035 105.694 159.407C105.694 160.779 105.246 161.899 104.322 162.823C103.426 163.719 102.278 164.167 100.906 164.167C99.534 164.167 98.386 163.719 97.462 162.823ZM124.509 169.207L130.753 149.607H124.593L121.373 162.067L118.153 149.607H111.993L118.237 169.207H124.509ZM149.509 169.207L143.265 149.607H136.713L130.469 169.207H136.489L137.161 166.687H142.817L143.489 169.207H149.509ZM139.989 156.187L141.613 162.207H138.365L139.989 156.187ZM149.239 149.607V155.039H153.859V169.207H159.459V155.039H164.079V149.607H149.239ZM166.874 169.207H172.474V149.607H166.874V169.207ZM193.44 166.715C195.456 164.727 196.464 162.291 196.464 159.407C196.464 156.523 195.456 154.087 193.44 152.127C191.452 150.139 188.988 149.159 186.076 149.159C183.164 149.159 180.7 150.139 178.684 152.127C176.696 154.087 175.688 156.523 175.688 159.407C175.688 162.291 176.696 164.727 178.684 166.715C180.7 168.675 183.164 169.655 186.076 169.655C188.988 169.655 191.452 168.675 193.44 166.715ZM182.632 162.823C181.736 161.899 181.288 160.779 181.288 159.407C181.288 158.035 181.736 156.915 182.632 156.019C183.556 155.095 184.704 154.647 186.076 154.647C187.448 154.647 188.596 155.095 189.492 156.019C190.416 156.915 190.864 158.035 190.864 159.407C190.864 160.779 190.416 161.899 189.492 162.823C188.596 163.719 187.448 164.167 186.076 164.167C184.704 164.167 183.556 163.719 182.632 162.823ZM210.324 158.567L204.164 149.607H199.684V169.207H205.284V160.247L211.444 169.207H215.924V149.607H210.324V158.567ZM50.949 205.655C54.561 205.655 57.837 203.807 59.545 200.867L54.673 198.067C54.029 199.383 52.629 200.167 50.949 200.167C49.577 200.167 48.457 199.719 47.589 198.823C46.721 197.927 46.301 196.779 46.301 195.407C46.301 194.035 46.721 192.887 47.589 191.991C48.457 191.095 49.577 190.647 50.949 190.647C52.601 190.647 54.029 191.459 54.673 192.719L59.545 189.919C57.837 187.007 54.561 185.159 50.949 185.159C48.009 185.159 45.545 186.139 43.613 188.099C41.681 190.059 40.701 192.495 40.701 195.407C40.701 198.319 41.681 200.755 43.613 202.715C45.545 204.675 48.009 205.655 50.949 205.655ZM72.4318 192.551H67.6718V185.607H62.0718V205.207H67.6718V197.983H72.4318V205.207H78.0318V185.607H72.4318V192.551ZM99.3096 205.207L93.0656 185.607H86.5136L80.2696 205.207H86.2896L86.9616 202.687H92.6176L93.2896 205.207H99.3096ZM89.7896 192.187L91.4136 198.207H88.1656L89.7896 192.187ZM107.154 185.607H101.554V205.207H113.594V199.775H107.154V185.607ZM122.001 185.607H116.401V205.207H128.441V199.775H122.001V185.607ZM136.847 197.871H143.287V192.831H136.847V190.703H143.987V185.607H131.247V205.207H144.127V200.055H136.847V197.871ZM158.128 194.567L151.968 185.607H147.488V205.207H153.088V196.247L159.248 205.207H163.728V185.607H158.128V194.567ZM177.187 193.643V198.403H181.359C180.715 199.775 179.399 200.475 177.467 200.475C175.787 200.475 174.555 199.971 173.743 198.991C172.931 197.983 172.539 196.807 172.539 195.463C172.539 194.035 172.959 192.887 173.827 191.991C174.695 191.095 175.843 190.647 177.243 190.647C178.951 190.647 180.211 191.235 180.995 192.439L185.755 189.723C183.991 186.923 180.799 185.159 177.131 185.159C174.219 185.159 171.783 186.139 169.851 188.127C167.919 190.087 166.939 192.523 166.939 195.435C166.939 198.347 167.919 200.783 169.851 202.743C171.783 204.675 174.303 205.655 177.355 205.655C180.295 205.655 182.647 204.731 184.439 202.911C186.259 201.091 187.155 198.767 187.155 195.967V193.643H177.187ZM195.988 197.871H202.428V192.831H195.988V190.703H203.128V185.607H190.388V205.207H203.268V200.055H195.988V197.871Z" fill="white"/>
<path d="M1738.93 151.207L1745.18 131.607H1739.02L1735.8 144.067L1732.58 131.607H1726.42L1732.66 151.207H1738.93ZM1763.93 151.207L1757.69 131.607H1751.14L1744.89 151.207H1750.91L1751.59 148.687H1757.24L1757.91 151.207H1763.93ZM1754.41 138.187L1756.04 144.207H1752.79L1754.41 138.187ZM1771.78 131.607H1766.18V151.207H1778.22V145.775H1771.78V131.607ZM1781.03 151.207H1786.63V131.607H1781.03V151.207ZM1790.54 131.607V151.207H1798.66C1801.38 151.207 1803.62 150.283 1805.44 148.407C1807.26 146.531 1808.18 144.179 1808.18 141.407C1808.18 138.635 1807.26 136.311 1805.44 134.435C1803.62 132.559 1801.38 131.607 1798.66 131.607H1790.54ZM1796.42 145.775V137.039H1798.66C1800.93 137.039 1802.58 138.831 1802.58 141.407C1802.58 143.983 1800.93 145.775 1798.66 145.775H1796.42ZM1828.05 151.207L1821.81 131.607H1815.26L1809.01 151.207H1815.03L1815.7 148.687H1821.36L1822.03 151.207H1828.05ZM1818.53 138.187L1820.16 144.207H1816.91L1818.53 138.187ZM1827.78 131.607V137.039H1832.4V151.207H1838V137.039H1842.62V131.607H1827.78ZM1851.02 143.871H1857.46V138.831H1851.02V136.703H1858.16V131.607H1845.42V151.207H1858.3V146.055H1851.02V143.871ZM1861.66 131.607V151.207H1869.78C1872.49 151.207 1874.73 150.283 1876.55 148.407C1878.37 146.531 1879.3 144.179 1879.3 141.407C1879.3 138.635 1878.37 136.311 1876.55 134.435C1874.73 132.559 1872.49 131.607 1869.78 131.607H1861.66ZM1867.54 145.775V137.039H1869.78C1872.04 137.039 1873.7 138.831 1873.7 141.407C1873.7 143.983 1872.04 145.775 1869.78 145.775H1867.54ZM1745.4 187.655C1750.1 187.655 1753.04 185.387 1753.04 181.383C1753.04 179.451 1752.4 177.995 1751.08 177.099C1749.77 176.175 1748.79 175.783 1746.91 175.223C1745.65 174.859 1744.81 174.579 1744.36 174.355C1743.94 174.131 1743.72 173.823 1743.72 173.403C1743.72 172.815 1744.22 172.367 1745.2 172.367C1746.46 172.367 1747.36 173.067 1747.89 174.439L1752.54 171.723C1751.31 168.783 1748.51 167.159 1745.18 167.159C1743.08 167.159 1741.37 167.747 1740.05 168.923C1738.76 170.099 1738.12 171.583 1738.12 173.375C1738.12 176.399 1740.08 178.499 1743.97 179.675L1745.06 179.983C1745.54 180.123 1745.88 180.207 1746.07 180.291C1746.27 180.347 1746.52 180.431 1746.77 180.543C1747.3 180.767 1747.44 181.075 1747.44 181.439C1747.44 182.111 1746.8 182.447 1745.54 182.447C1743.83 182.447 1742.66 181.607 1742.01 179.955L1737.22 182.727C1738.2 185.751 1741.14 187.655 1745.4 187.655ZM1772.76 184.715C1774.77 182.727 1775.78 180.291 1775.78 177.407C1775.78 174.523 1774.77 172.087 1772.76 170.127C1770.77 168.139 1768.31 167.159 1765.39 167.159C1762.48 167.159 1760.02 168.139 1758 170.127C1756.01 172.087 1755.01 174.523 1755.01 177.407C1755.01 180.291 1756.01 182.727 1758 184.715C1760.02 186.675 1762.48 187.655 1765.39 187.655C1768.31 187.655 1770.77 186.675 1772.76 184.715ZM1761.95 180.823C1761.05 179.899 1760.61 178.779 1760.61 177.407C1760.61 176.035 1761.05 174.915 1761.95 174.019C1762.87 173.095 1764.02 172.647 1765.39 172.647C1766.77 172.647 1767.91 173.095 1768.81 174.019C1769.73 174.915 1770.18 176.035 1770.18 177.407C1770.18 178.779 1769.73 179.899 1768.81 180.823C1767.91 181.719 1766.77 182.167 1765.39 182.167C1764.02 182.167 1762.87 181.719 1761.95 180.823ZM1784.6 167.607H1779V187.207H1791.04V181.775H1784.6V167.607ZM1793.43 180.655C1793.43 182.755 1794.16 184.435 1795.64 185.723C1797.13 187.011 1799.03 187.655 1801.41 187.655C1803.79 187.655 1805.7 187.011 1807.18 185.723C1808.66 184.435 1809.39 182.755 1809.39 180.655V167.607H1803.79V180.039C1803.79 181.495 1803.01 182.223 1801.41 182.223C1799.82 182.223 1799.03 181.495 1799.03 180.039V167.607H1793.43V180.655ZM1811.92 167.607V173.039H1816.54V187.207H1822.14V173.039H1826.76V167.607H1811.92ZM1829.56 187.207H1835.16V167.607H1829.56V187.207ZM1856.12 184.715C1858.14 182.727 1859.15 180.291 1859.15 177.407C1859.15 174.523 1858.14 172.087 1856.12 170.127C1854.14 168.139 1851.67 167.159 1848.76 167.159C1845.85 167.159 1843.38 168.139 1841.37 170.127C1839.38 172.087 1838.37 174.523 1838.37 177.407C1838.37 180.291 1839.38 182.727 1841.37 184.715C1843.38 186.675 1845.85 187.655 1848.76 187.655C1851.67 187.655 1854.14 186.675 1856.12 184.715ZM1845.32 180.823C1844.42 179.899 1843.97 178.779 1843.97 177.407C1843.97 176.035 1844.42 174.915 1845.32 174.019C1846.24 173.095 1847.39 172.647 1848.76 172.647C1850.13 172.647 1851.28 173.095 1852.18 174.019C1853.1 174.915 1853.55 176.035 1853.55 177.407C1853.55 178.779 1853.1 179.899 1852.18 180.823C1851.28 181.719 1850.13 182.167 1848.76 182.167C1847.39 182.167 1846.24 181.719 1845.32 180.823ZM1873.01 176.567L1866.85 167.607H1862.37V187.207H1867.97V178.247L1874.13 187.207H1878.61V167.607H1873.01V176.567ZM1745.21 223.655C1749.91 223.655 1752.85 221.387 1752.85 217.383C1752.85 215.451 1752.21 213.995 1750.89 213.099C1749.58 212.175 1748.6 211.783 1746.72 211.223C1745.46 210.859 1744.62 210.579 1744.17 210.355C1743.75 210.131 1743.53 209.823 1743.53 209.403C1743.53 208.815 1744.03 208.367 1745.01 208.367C1746.27 208.367 1747.17 209.067 1747.7 210.439L1752.35 207.723C1751.12 204.783 1748.32 203.159 1744.98 203.159C1742.88 203.159 1741.18 203.747 1739.86 204.923C1738.57 206.099 1737.93 207.583 1737.93 209.375C1737.93 212.399 1739.89 214.499 1743.78 215.675L1744.87 215.983C1745.35 216.123 1745.68 216.207 1745.88 216.291C1746.08 216.347 1746.33 216.431 1746.58 216.543C1747.11 216.767 1747.25 217.075 1747.25 217.439C1747.25 218.111 1746.61 218.447 1745.35 218.447C1743.64 218.447 1742.46 217.607 1741.82 215.955L1737.03 218.727C1738.01 221.751 1740.95 223.655 1745.21 223.655ZM1754.12 203.607V209.039H1758.74V223.207H1764.34V209.039H1768.96V203.607H1754.12ZM1787.86 223.179L1783.99 215.871C1785.9 214.723 1787.02 212.791 1787.02 210.467C1787.02 208.395 1786.32 206.743 1784.92 205.483C1783.52 204.223 1781.75 203.579 1779.6 203.579H1771.76V223.179H1777.36V217.019H1778.76L1781.86 223.179H1787.86ZM1779.48 208.731C1780.69 208.731 1781.42 209.431 1781.42 210.579C1781.42 211.727 1780.69 212.399 1779.48 212.371H1777.36V208.731H1779.48ZM1808.28 223.207L1802.04 203.607H1795.49L1789.24 223.207H1795.26L1795.93 220.687H1801.59L1802.26 223.207H1808.28ZM1798.76 210.187L1800.39 216.207H1797.14L1798.76 210.187ZM1808.01 203.607V209.039H1812.63V223.207H1818.23V209.039H1822.85V203.607H1808.01ZM1831.25 215.871H1837.69V210.831H1831.25V208.703H1838.39V203.607H1825.65V223.207H1838.53V218.055H1831.25V215.871ZM1851.3 211.643V216.403H1855.47C1854.83 217.775 1853.51 218.475 1851.58 218.475C1849.9 218.475 1848.67 217.971 1847.86 216.991C1847.04 215.983 1846.65 214.807 1846.65 213.463C1846.65 212.035 1847.07 210.887 1847.94 209.991C1848.81 209.095 1849.96 208.647 1851.36 208.647C1853.06 208.647 1854.32 209.235 1855.11 210.439L1859.87 207.723C1858.1 204.923 1854.91 203.159 1851.24 203.159C1848.33 203.159 1845.9 204.139 1843.96 206.127C1842.03 208.087 1841.05 210.523 1841.05 213.435C1841.05 216.347 1842.03 218.783 1843.96 220.743C1845.9 222.675 1848.42 223.655 1851.47 223.655C1854.41 223.655 1856.76 222.731 1858.55 220.911C1860.37 219.091 1861.27 216.767 1861.27 213.967V211.643H1851.3ZM1873.79 203.607L1870.57 210.495L1867.35 203.607H1861.13L1867.77 215.759V223.207H1873.37V215.759L1880 203.607H1873.79Z" fill="#796100"/>
<defs>
<clipPath id="clip0_1204_3845">
<rect width="64.1804" height="64.1804" fill="white" transform="translate(438.706 146.816)"/>
</clipPath>
<clipPath id="clip1_1204_3845">
<rect width="64.1804" height="64.1804" fill="white" transform="translate(871.581 147.499) rotate(90)"/>
</clipPath>
<clipPath id="clip2_1204_3845">
<rect width="64.1804" height="64.1804" fill="white" transform="translate(618.956 147.499)"/>
</clipPath>
<clipPath id="clip3_1204_3845">
<rect width="64.6559" height="64.6559" fill="white" transform="translate(1047.14 141.466)"/>
</clipPath>
<clipPath id="clip4_1204_3845">
<rect width="64.1804" height="64.1804" fill="white" transform="matrix(-1 0 0 1 1297.63 150.913)"/>
</clipPath>
</defs>
</svg>
