<svg width="78" height="78" viewBox="0 0 78 78" fill="none" xmlns="http://www.w3.org/2000/svg">
<rect x="1" y="1" width="76" height="76" rx="15" fill="white" stroke="#5C5AEA" stroke-width="2"/>
<g clip-path="url(#clip0_1214_1729)">
<path d="M35.3438 49.2188C35.8612 49.2188 36.2813 48.7987 36.2813 48.2813C36.2813 47.7638 35.8612 47.3438 35.3438 47.3438C34.8263 47.3438 34.4062 47.7638 34.4062 48.2813C34.4062 48.7987 34.8263 49.2188 35.3438 49.2188Z" fill="#5C5AEA"/>
<path d="M15.3684 51.3816L26.6184 62.6316C26.9846 62.9979 27.5779 62.9979 27.9441 62.6316L34.1316 56.4441C34.4978 56.0779 34.4978 55.4847 34.1316 55.1185L33.857 54.8438H47.3709C48.5578 54.8438 49.6905 54.3988 50.5639 53.5881L61.9373 42.9287C63.0261 41.9176 63.3868 40.3114 62.8345 38.9323C62.4354 37.934 61.6202 37.1701 60.5984 36.8365C59.5763 36.5021 58.4678 36.6376 57.556 37.2074C57.5501 37.2111 55.0309 38.8642 55.0309 38.8642C55.0137 33.7822 51.9423 28.3631 47.7144 25.9234C47.9557 25.6461 48.1454 25.318 48.2663 24.9507C48.75 23.4789 47.9458 21.8859 46.4718 21.3992C46.4257 21.3838 46.3796 21.3702 46.3334 21.356L48.7467 17.0208C48.8855 16.7714 48.9035 16.4722 48.7947 16.2085C48.6863 15.9445 48.4637 15.7441 48.1894 15.6647C46.459 15.1615 44.6606 14.9062 42.8438 14.9062C41.0274 14.9062 39.2285 15.1615 37.4982 15.6643C37.2239 15.7441 37.0012 15.9441 36.8925 16.2081C36.7841 16.4722 36.8017 16.7714 36.9408 17.0208L39.3542 21.356C39.3073 21.3706 39.2604 21.3845 39.2135 21.3999C37.7417 21.8859 36.9379 23.4785 37.4217 24.9514C37.5425 25.318 37.7337 25.645 37.9757 25.9226C33.6848 28.3986 30.6563 33.8734 30.6563 38.9063C30.6563 39.0436 30.6596 39.1791 30.664 39.3135C28.9849 39.7716 27.4237 40.6062 26.1109 41.7558L23.2617 44.2486L22.8816 43.8684C22.5154 43.5022 21.9221 43.5022 21.5559 43.8684L15.3684 50.056C15.0022 50.4222 15.0022 51.0154 15.3684 51.3816ZM39.1718 17.1735C40.373 16.9127 41.6034 16.7813 42.8438 16.7813C44.0841 16.7813 45.3146 16.9127 46.5162 17.1735L44.4269 20.926C43.3737 20.7792 42.3131 20.7792 41.261 20.926L39.1718 17.1735ZM39.7987 23.1812C41.7224 22.5516 43.8197 22.504 45.8863 23.1804C46.3781 23.3427 46.6465 23.8744 46.485 24.3651C46.3634 24.7346 46.0338 24.9855 45.6519 25.0078C43.8033 24.4201 41.8832 24.419 40.0353 25.006C40.0353 25.006 40.0353 25.006 40.0349 25.006C39.6497 24.9818 39.3227 24.7299 39.2025 24.3655C39.041 23.874 39.3095 23.3423 39.7987 23.1812ZM40.3173 26.8891C41.9429 26.3035 43.6271 26.2896 45.2568 26.8495C49.6125 28.3473 53.1563 33.7559 53.1563 38.9063C53.1563 39.3428 53.1288 39.7588 53.0746 40.1477L48.5684 43.1042C47.8708 42.2399 46.8135 41.7188 45.6563 41.7188H43.7813V40.6201C44.8726 40.2331 45.6563 39.1908 45.6563 37.9688C45.6563 36.4179 44.3947 35.1563 42.8438 35.1563C42.3271 35.1563 41.9063 34.7359 41.9063 34.2188C41.9063 33.7017 42.3271 33.2813 42.8438 33.2813C43.1759 33.2813 43.5264 33.4508 43.8578 33.7713C44.2299 34.1312 44.8235 34.1214 45.1835 33.7497C45.5435 33.3776 45.5336 32.784 45.1615 32.424C44.6858 31.9633 44.2098 31.7029 43.7813 31.5608V30.4688C43.7813 29.9509 43.3616 29.5313 42.8438 29.5313C42.326 29.5313 41.9063 29.9509 41.9063 30.4688V31.5674C40.8153 31.9545 40.0313 32.9967 40.0313 34.2188C40.0313 35.7697 41.2929 37.0313 42.8438 37.0313C43.3609 37.0313 43.7813 37.4517 43.7813 37.9688C43.7813 38.4859 43.3609 38.9063 42.8438 38.9063C42.4431 38.9063 42.011 38.6543 41.6265 38.1969C41.2932 37.8007 40.7018 37.7494 40.3056 38.0827C39.9093 38.4159 39.8581 39.0074 40.1913 39.4036C40.6923 39.9998 41.2819 40.4151 41.9063 40.6245V41.7188H41.5943C41.1336 41.7188 40.9267 41.4185 40.6022 41.2086C38.6214 39.724 36.1677 38.9063 33.6929 38.9063C33.3058 38.9063 32.918 38.9264 32.532 38.9656C32.532 38.9458 32.5313 38.9264 32.5313 38.9063C32.5313 33.828 36.0242 28.4374 40.3173 26.8891ZM27.3457 43.1664C29.1072 41.6239 31.3707 40.7813 33.6929 40.7813C35.7649 40.7813 37.819 41.4657 39.4765 42.7083C39.7156 42.8482 40.3814 43.5938 41.5939 43.5938H45.6563C46.7234 43.5938 47.5313 44.4613 47.5313 45.4688C47.5313 46.5026 46.6901 47.3438 45.6563 47.3438H39.0938C38.576 47.3438 38.1563 47.7635 38.1563 48.2813C38.1563 48.7991 38.576 49.2188 39.0938 49.2188H45.6563C47.7239 49.2188 49.4063 47.5364 49.4063 45.4688C49.4063 45.2538 49.3872 45.0418 49.3514 44.833L58.5575 38.7928C58.9955 38.5221 59.5269 38.4588 60.0162 38.6184C60.5084 38.7796 60.9013 39.1476 61.0936 39.6288C61.3642 40.3041 61.1943 41.0603 60.6581 41.558L49.2851 52.217C48.7629 52.7018 48.0832 52.9688 47.3709 52.9688H31.982L24.5907 45.5772L27.3457 43.1664ZM22.2188 45.857L32.1431 55.7813L27.2813 60.6431L17.3569 50.7188L22.2188 45.857Z" fill="#5C5AEA"/>
</g>
<defs>
<clipPath id="clip0_1214_1729">
<rect width="48" height="48" fill="white" transform="translate(15 15)"/>
</clipPath>
</defs>
</svg>
