<svg width="78" height="78" viewBox="0 0 78 78" fill="none" xmlns="http://www.w3.org/2000/svg">
<rect x="1" y="1" width="76" height="76" rx="15" fill="white" stroke="#5C5AEA" stroke-width="2"/>
<path d="M28.7736 23.9891C28.5122 24.7965 28.7877 25.6395 29.4753 26.1369L33.5505 29.0842L31.9895 33.853C31.7252 34.6604 31.9986 35.5049 32.6859 36.0043C33.3732 36.5036 34.2608 36.5028 34.9473 36.0019L39.0003 33.0436L43.0534 36.002C43.3971 36.2529 43.7913 36.3783 44.1856 36.3783C44.5785 36.3783 44.9716 36.2537 45.3148 36.0044C46.002 35.505 46.2754 34.6605 46.0111 33.8531L44.4501 29.0843L48.5253 26.1371C49.213 25.6396 49.4884 24.7966 49.227 23.9891C48.9657 23.1818 48.2484 22.66 47.3997 22.66H42.3686L40.828 17.8941C40.5668 17.0862 39.8494 16.5641 39.0003 16.5641C38.1512 16.5641 37.4338 17.0861 37.1727 17.8941L35.6321 22.66H30.601C29.7523 22.6599 29.035 23.1816 28.7736 23.9891ZM36.3144 24.5349C36.7211 24.5349 37.0813 24.2726 37.2065 23.8857L38.9569 18.4707C38.962 18.4549 38.9668 18.4475 38.968 18.4462C38.9799 18.4367 39.0209 18.4366 39.0327 18.4461C39.034 18.4475 39.0388 18.4549 39.0438 18.4707L40.7942 23.8857C40.9194 24.2726 41.2797 24.5349 41.6863 24.5349H47.3997C47.4163 24.5349 47.4249 24.5371 47.4264 24.5379C47.4391 24.5462 47.4518 24.5853 47.4463 24.5993C47.4455 24.601 47.4399 24.6079 47.4265 24.6175L42.7968 27.9657C42.4665 28.2046 42.3284 28.6296 42.4552 29.0171L44.2291 34.4363C44.2343 34.452 44.2348 34.4609 44.2346 34.4625C44.2307 34.4771 44.2014 34.5038 44.1823 34.5006C44.1804 34.5002 44.1721 34.497 44.1587 34.4873L39.553 31.1257C39.3883 31.0055 39.1943 30.9454 39.0002 30.9454C38.8062 30.9454 38.6121 31.0055 38.4475 31.1257L33.8418 34.4872C33.8283 34.4969 33.8201 34.5002 33.8183 34.5006C33.8072 34.4986 33.7698 34.4772 33.7659 34.4627C33.7656 34.4608 33.7662 34.452 33.7713 34.4363L35.5453 29.0171C35.6721 28.6296 35.534 28.2046 35.2036 27.9657L30.574 24.6175C30.5606 24.6078 30.5549 24.6009 30.5541 24.5995C30.5487 24.5853 30.5613 24.5462 30.574 24.538C30.5757 24.5371 30.5842 24.5349 30.6008 24.5349H36.3144Z" fill="#5C5AEA"/>
<path d="M39.8815 45.5625H38.1182C37.6005 45.5625 37.1807 45.9823 37.1807 46.5C37.1807 47.0177 37.6005 47.4375 38.1182 47.4375H38.944V54.75C38.944 55.2677 39.3638 55.6875 39.8815 55.6875C40.3992 55.6875 40.819 55.2677 40.819 54.75V46.5C40.819 45.9822 40.3993 45.5625 39.8815 45.5625Z" fill="#5C5AEA"/>
<path d="M45.2344 20.0018C45.4744 20.0018 45.7143 19.9103 45.8974 19.7273L49.0242 16.6004C49.3903 16.2343 49.3903 15.6407 49.0242 15.2745C48.658 14.9085 48.0646 14.9085 47.6983 15.2745L44.5714 18.4013C44.2054 18.7674 44.2054 19.3611 44.5714 19.7273C44.7546 19.9103 44.9944 20.0018 45.2344 20.0018Z" fill="#5C5AEA"/>
<path d="M32.0088 19.7273C32.1919 19.9103 32.4318 20.0018 32.6717 20.0018C32.9116 20.0018 33.1516 19.9103 33.3346 19.7273C33.7007 19.3612 33.7007 18.7675 33.3346 18.4013L30.2079 15.2745C29.8417 14.9085 29.2483 14.9085 28.882 15.2745C28.5159 15.6406 28.5159 16.2342 28.882 16.6004L32.0088 19.7273Z" fill="#5C5AEA"/>
<path d="M47.8701 30.1787C47.6464 30.6456 47.8435 31.2054 48.3105 31.4292L51.7624 33.0831C51.8931 33.1457 52.0309 33.1752 52.1667 33.1752C52.5163 33.1752 52.8517 32.9788 53.0128 32.6425C53.2365 32.1757 53.0393 31.6158 52.5724 31.392L49.1205 29.7382C48.6539 29.5146 48.0938 29.7117 47.8701 30.1787Z" fill="#5C5AEA"/>
<path d="M25.8329 33.1752C25.9687 33.1752 26.1067 33.1456 26.2373 33.0831L29.6892 31.4292C30.1561 31.2054 30.3533 30.6456 30.1296 30.1787C29.9058 29.7116 29.346 29.5146 28.8791 29.7382L25.4272 31.3921C24.9602 31.6159 24.7631 32.1756 24.9868 32.6426C25.1479 32.9789 25.4834 33.1752 25.8329 33.1752Z" fill="#5C5AEA"/>
<path d="M62.0625 45.375H48.9375V40.125H50.3438C50.8614 40.125 51.2812 39.7052 51.2812 39.1875C51.2812 38.6698 50.8614 38.25 50.3438 38.25H27.6562C27.1386 38.25 26.7188 38.6698 26.7188 39.1875C26.7188 39.7052 27.1386 40.125 27.6562 40.125H29.0625V45.375H15.9375C15.4198 45.375 15 45.7948 15 46.3125V62.0625C15 62.5802 15.4198 63 15.9375 63H62.0625C62.5802 63 63 62.5802 63 62.0625V46.3125C63 45.7947 62.5802 45.375 62.0625 45.375ZM16.875 47.25H29.0625V61.125H16.875V47.25ZM61.125 61.125H48.9375V58.4062C48.9375 57.8886 48.5177 57.4688 48 57.4688C47.4823 57.4688 47.0625 57.8886 47.0625 58.4062V61.125H30.9375V40.125H47.0625V49.9688C47.0625 50.4864 47.4823 50.9062 48 50.9062C48.5177 50.9062 48.9375 50.4864 48.9375 49.9688V47.25H61.125V61.125Z" fill="#5C5AEA"/>
<path d="M48 53.25C47.7534 53.25 47.5116 53.3502 47.3372 53.5247C47.1628 53.6992 47.0625 53.9409 47.0625 54.1875C47.0625 54.4341 47.1627 54.6759 47.3372 54.8502C47.5116 55.0246 47.7534 55.125 48 55.125C48.2466 55.125 48.4884 55.0247 48.6627 54.8502C48.8372 54.6759 48.9375 54.4341 48.9375 54.1875C48.9375 53.9409 48.8372 53.6991 48.6627 53.5247C48.4884 53.3502 48.2466 53.25 48 53.25Z" fill="#5C5AEA"/>
</svg>
