<svg width="78" height="78" viewBox="0 0 78 78" fill="none" xmlns="http://www.w3.org/2000/svg">
<rect x="1" y="1" width="76" height="76" rx="15" fill="white" stroke="#5C5AEA" stroke-width="2"/>
<g clip-path="url(#clip0_1214_1719)">
<path d="M29.5166 42.303L29.7367 42.2699C29.7693 42.2587 29.8136 42.2587 29.8467 42.2587H30.0668C30.0995 42.2587 30.1437 42.2587 30.1768 42.2699L30.3969 42.303C30.4408 42.303 30.4739 42.3137 30.507 42.3249L30.727 42.3799C30.749 42.3911 30.7709 42.3911 30.7928 42.4019L31.0021 42.4681C31.0241 42.4788 31.0572 42.49 31.0791 42.5012L31.288 42.5888C31.3099 42.6 31.3323 42.6112 31.3542 42.6219L31.5631 42.732C31.5962 42.7432 31.6293 42.7651 31.6624 42.787L31.8494 42.9082C31.8713 42.919 31.8932 42.9301 31.9152 42.9521L32.1026 43.0952C32.1352 43.1171 32.1576 43.1391 32.1903 43.1722L32.3553 43.3372C32.3777 43.3484 32.3884 43.3703 32.4103 43.3922L32.5535 43.5685C32.5647 43.5904 32.5754 43.6123 32.5978 43.6342L32.7297 43.8217C32.7517 43.8436 32.7736 43.8874 32.7955 43.9205L32.9055 44.1187C32.9167 44.1406 32.9279 44.1625 32.9386 44.1845L33.0379 44.3938C33.0487 44.4376 33.0706 44.4707 33.0818 44.5146L33.148 44.7239V44.7347L33.2137 44.944C33.2249 44.9771 33.2249 44.999 33.2357 45.0321L33.2799 45.2522C33.2799 45.2741 33.2907 45.2961 33.2907 45.3292L33.4889 45.3072C33.5108 45.2961 33.5219 45.2961 33.5439 45.2961L33.764 45.2849H33.819H34.0391C34.0722 45.2849 34.116 45.2849 34.1491 45.2961L34.3692 45.3292C34.4135 45.3292 34.4461 45.3399 34.4792 45.3511L34.6993 45.4061C34.7212 45.4061 34.7324 45.4061 34.7543 45.4173L34.9744 45.483C35.0187 45.4942 35.0737 45.5161 35.1176 45.5381L35.3046 45.6374C35.3265 45.6481 35.3488 45.6593 35.3707 45.67L35.5689 45.7912C35.6016 45.8132 35.6239 45.8351 35.6566 45.8574L35.8328 45.9894C35.844 46.0002 35.8548 46.0113 35.8659 46.0225L36.0417 46.1652L36.1299 46.2533L36.273 46.4184C36.3061 46.4403 36.328 46.4734 36.35 46.5065L36.4819 46.6935C36.4931 46.7154 36.515 46.7378 36.5262 46.7597L36.6362 46.9467C36.647 46.9686 36.6582 46.9905 36.6693 47.0129L36.7682 47.2218C36.7794 47.2437 36.7901 47.2656 36.8013 47.2987L36.8782 47.5081C36.8894 47.5408 36.9002 47.5739 36.9113 47.6181L36.9664 47.8382C36.9664 47.8601 36.9664 47.8709 36.9771 47.8932L37.0214 48.1133C37.0214 48.1241 37.0321 48.146 37.0321 48.1683L37.0652 48.4103C37.0764 48.4434 37.0764 48.4761 37.0764 48.5092V48.7405C37.7036 48.7074 38.3307 48.8393 38.9029 49.1695C40.1795 49.9067 40.8067 51.3922 40.4765 52.812C40.4765 52.8451 40.4658 52.8778 40.4546 52.9109C40.3777 53.1972 40.2565 53.4611 40.1026 53.7031C40.0807 53.7581 40.0476 53.8132 40.0033 53.8682L39.9263 53.9675L40.4765 54.3195L40.4877 54.3307L40.6309 54.4296L40.7297 54.4846L40.851 54.5284L40.9386 54.5508L41.071 54.5727L41.203 54.5835L41.3461 54.5727L41.4669 54.5508L41.5881 54.5177L41.7313 54.4627L41.8521 54.4077L41.984 54.3307L42.1053 54.2426L42.1934 54.1656L42.2815 54.0664L42.4023 53.9125L42.4792 53.8024L42.5343 53.6924L42.5893 53.5492L42.6336 53.4173L42.6774 53.131V52.9879L42.6667 52.8451L42.6443 52.7458L42.6005 52.6139L42.5566 52.4927L42.5016 52.3938L42.4242 52.2726L42.3584 52.1849L42.2815 52.1075L41.0379 51.2714C40.6085 50.9852 40.4985 50.4019 40.7848 49.984C41.071 49.5546 41.6539 49.4446 42.0722 49.7309L43.3708 50.6112L43.547 50.7212L43.7009 50.8094L43.8659 50.8863L44.031 50.9413L44.1961 50.9852L44.3392 51.0071L44.5043 51.0183H44.6913L44.8451 51.0071L44.9664 50.9852L45.1095 50.9413L45.2415 50.8863L45.3627 50.8201L45.4835 50.7432L45.6047 50.655L45.6816 50.5893L45.7805 50.4792L45.8579 50.3799L45.9017 50.2918L45.9567 50.1491L46.0006 50.0279L46.0229 49.9067L46.0449 49.7309L46.0556 49.5877L46.0449 49.4557L46.0229 49.3345L45.9787 49.1806L45.9129 49.0044L45.8467 48.8505L45.7805 48.7293L45.6816 48.5862L45.5604 48.4323L45.4396 48.3003L45.3077 48.1791L45.1645 48.069L43.2057 46.6828C42.7874 46.3853 42.6886 45.8024 42.9856 45.3842C43.2826 44.9659 43.8659 44.8671 44.2842 45.1641L47.2773 47.288L47.4204 47.3757L47.5304 47.4419L47.6405 47.4857L47.7724 47.5188L47.9156 47.5408L48.0364 47.5519L48.1795 47.5408L48.3227 47.5188L48.4327 47.4857L48.5758 47.4307L48.7297 47.3649L48.851 47.2987L48.961 47.2218L49.071 47.1229L49.1592 47.0236L49.258 46.9028L49.335 46.7816L49.4012 46.6604L49.4562 46.5177L49.5 46.3853L49.522 46.2645L49.5331 46.1214V45.9782L49.5112 45.8351L49.4781 45.6924L49.445 45.5823L49.3792 45.4499L49.313 45.3292L49.2468 45.2299L49.1592 45.131L49.071 45.0429L48.9829 44.9771L45.7586 42.6989C45.3403 42.4019 45.2415 41.8185 45.5385 41.4007C45.8355 40.9825 46.4188 40.8832 46.8371 41.1806L50.0502 43.4584C50.0614 43.4584 50.0722 43.4692 50.0833 43.4804L50.0945 43.4915L50.9525 44.0968L51.1068 44.1956L51.2719 44.2838L51.415 44.3495L51.5577 44.4045L51.679 44.4376L51.844 44.4596L52.0203 44.4707H52.163L52.2842 44.4488L52.4273 44.4157L52.5705 44.3719L52.6913 44.3276L52.7794 44.2838L52.9995 44.1187L53.0657 44.0417L53.1645 43.9205L53.2307 43.8324L53.2857 43.7224L53.3296 43.6016L53.3627 43.4804L53.3846 43.3484L53.4285 43.2164L53.4177 43.0733L53.3958 42.9301L53.3627 42.7982L53.3077 42.6439L53.2527 42.5231L53.1757 42.3799L53.0876 42.2368L53.0545 42.1929C53.0326 42.1598 52.9995 42.1267 52.9775 42.0937L52.8894 42.006L52.7682 41.8959L52.6255 41.7859L39.4973 32.4873C39.1453 32.2341 38.6939 32.2449 38.3638 32.5092L36.0198 34.732C35.5358 35.2383 34.9306 35.6342 34.2591 35.8986C34.2372 35.9094 34.2153 35.9205 34.1934 35.9313C33.874 36.0525 33.5331 36.1075 33.203 36.1075C32.3665 36.1075 31.5524 35.7335 31.0129 35.0509C30.2645 34.1156 30.2095 32.8062 30.859 31.7828L32.8179 28.5808C32.9055 28.4376 33.0048 28.2945 33.1149 28.1733C32.5647 28.1733 32.0145 28.1956 31.4642 28.2395C31.3211 28.2614 31.1672 28.2726 31.0241 28.2726C30.7597 28.2726 30.4958 28.2395 30.2426 28.1733L22.3965 39.2656C22.6058 39.6069 22.7709 40.0028 22.8478 40.4103C22.9359 40.6962 23.0348 40.9713 23.1449 41.2464L23.156 41.2357C23.156 41.2357 23.156 41.2357 23.1668 41.2245C23.1668 41.2245 23.1668 41.2245 23.178 41.2133L23.3211 41.0263C23.3318 41.0044 23.3542 40.9825 23.3761 40.9606L23.6512 40.8062C23.662 40.7843 23.6843 40.7731 23.7062 40.7512L23.8821 40.5973C23.8932 40.5754 23.9044 40.5642 23.9263 40.5531L24.1245 40.3992C24.1352 40.388 24.1572 40.3661 24.1795 40.3553L24.3772 40.2229C24.3996 40.2122 24.4215 40.201 24.4546 40.1791L24.6524 40.069C24.6855 40.0471 24.7186 40.0359 24.7624 40.014L24.9717 39.9371C24.9937 39.9259 25.0156 39.9259 25.0375 39.9152L25.2576 39.849C25.2907 39.8378 25.3238 39.8378 25.3569 39.827L25.577 39.7828C25.5989 39.7828 25.6101 39.772 25.632 39.772L25.8521 39.7389C25.8852 39.7277 25.9071 39.7277 25.9402 39.7277L26.1603 39.717C26.1929 39.717 26.226 39.717 26.2703 39.7277L26.4792 39.7501C26.5012 39.7501 26.5343 39.7501 26.5562 39.7608L26.7763 39.8051C26.7982 39.8051 26.8205 39.8051 26.8425 39.8159L27.0514 39.8709C27.0956 39.8821 27.1283 39.8928 27.1726 39.9152L27.3707 39.9921C27.3927 40.0028 27.4258 40.014 27.4584 40.0359L27.6566 40.146C27.6785 40.1572 27.7116 40.1791 27.7447 40.201L27.921 40.3222C27.9429 40.333 27.9536 40.3441 27.9648 40.3553L28.141 40.4873C28.1737 40.5092 28.1961 40.5311 28.2287 40.5642L28.3938 40.7293C28.405 40.7512 28.4269 40.7731 28.4488 40.7955L28.5812 40.9606C28.592 40.9713 28.6139 40.9932 28.6251 41.0156L28.757 41.2026C28.7789 41.2357 28.8013 41.2683 28.8232 41.3014L28.9333 41.4996C28.944 41.5215 28.9664 41.5546 28.9771 41.5877L29.0541 41.7859C29.0541 41.8078 29.0652 41.8297 29.0764 41.8516L29.1422 42.061C29.1533 42.0937 29.1641 42.1267 29.1753 42.171L29.2084 42.3688C29.2191 42.3688 29.2303 42.358 29.2415 42.358L29.4616 42.3137C29.4835 42.3137 29.4942 42.303 29.5166 42.303ZM62.9033 39.7501C63.2773 41.0375 62.5401 42.3911 61.1426 42.732L58.6228 43.4692C58.6228 43.4692 58.6116 43.4804 58.6005 43.4804C58.3804 43.5466 58.1603 43.5792 57.9402 43.5792C57.5443 43.5792 57.148 43.4804 56.7848 43.2822C56.3777 43.0621 56.0476 42.732 55.8275 42.3361C55.5855 42.3911 55.3215 42.4238 55.0684 42.4569L55.0903 42.545C55.1014 42.5781 55.1014 42.6 55.1122 42.6331L55.1453 42.8532C55.1453 42.8751 55.1565 42.897 55.1565 42.9301L55.1672 43.1614V43.2603L55.1565 43.4804C55.1453 43.5242 55.1453 43.5573 55.1341 43.6016L55.0903 43.8105C55.0903 43.8324 55.0903 43.8436 55.0791 43.8655L55.0241 44.0744C55.0133 44.1187 55.0022 44.1518 54.9802 44.1956L54.9033 44.3938C54.9033 44.4157 54.8921 44.4269 54.8814 44.4488L54.7821 44.647C54.7601 44.6908 54.7382 44.7347 54.7051 44.7789L54.5839 44.9548C54.5732 44.9771 54.562 44.9879 54.5512 44.999L54.4188 45.1748C54.3969 45.1972 54.3862 45.2191 54.3638 45.241L54.2211 45.4061C54.188 45.4499 54.1437 45.483 54.0999 45.5161L53.7478 45.7912C53.7036 45.8243 53.6597 45.8574 53.6159 45.8794L53.4177 45.9894C53.3846 46.0002 53.3515 46.0225 53.3184 46.0333L53.1207 46.1102C53.0983 46.1102 53.0764 46.1214 53.0545 46.1326L52.8456 46.1983C52.8232 46.2095 52.8013 46.2095 52.7794 46.2202L52.5593 46.2753C52.5262 46.2864 52.4931 46.2864 52.4604 46.2976L52.2403 46.3303C52.2072 46.3415 52.163 46.3415 52.1303 46.3415H51.9102C51.8879 46.3415 51.8771 46.3415 51.8552 46.3415L51.6351 46.3303C51.6128 46.3303 51.602 46.3195 51.5801 46.3195L51.3377 46.2864C51.3269 46.2864 51.3157 46.2753 51.2938 46.2753L51.2826 46.4734C51.2826 46.5065 51.2826 46.5504 51.2719 46.5835L51.2276 46.8036C51.2169 46.8478 51.2057 46.8805 51.1949 46.9248L51.1287 47.1337C51.1176 47.1556 51.1176 47.1668 51.1068 47.1887L51.0299 47.398C51.0187 47.4307 51.0075 47.4531 50.9856 47.4857L50.8756 47.6951C50.8648 47.7282 50.8425 47.7608 50.8205 47.7939L50.6886 47.9809C50.6774 48.0033 50.6667 48.014 50.6555 48.0359L50.5123 48.2234C50.5016 48.2453 50.4797 48.2672 50.4573 48.2891L50.3034 48.4542C50.2815 48.4761 50.2596 48.5092 50.2265 48.5311L50.0502 48.6855C50.0283 48.7074 50.0064 48.7185 49.9845 48.7405L49.7971 48.8724C49.7644 48.8944 49.7313 48.9163 49.6982 48.9386L49.5 49.0487C49.4781 49.0594 49.4562 49.0706 49.4343 49.0813L49.2249 49.1806C49.2142 49.1914 49.203 49.1914 49.1811 49.2026L48.9717 49.2795C48.9391 49.2907 48.906 49.3014 48.8729 49.3126L48.664 49.3676C48.6197 49.3788 48.5866 49.3788 48.5427 49.3896L48.3227 49.4226C48.3007 49.4338 48.2896 49.4338 48.2676 49.4338L48.0476 49.4446C48.0256 49.4446 48.0145 49.4446 47.9925 49.4446C47.9706 49.4446 47.9594 49.4446 47.9375 49.4446L47.8386 49.4338L47.8494 49.5546V49.6647L47.8386 49.8847C47.8386 49.9067 47.8275 49.9178 47.8275 49.9398L47.7944 50.1598C47.7944 50.1818 47.7944 50.1929 47.7836 50.2149L47.7393 50.435C47.7286 50.49 47.7174 50.545 47.6955 50.6L47.6186 50.8094C47.6186 50.8201 47.6074 50.8201 47.6074 50.8313L47.5304 51.0294C47.5193 51.0621 47.5085 51.0952 47.4862 51.1283L47.3761 51.3265C47.3435 51.3703 47.3211 51.4146 47.2884 51.4584L47.156 51.6347C47.1453 51.6454 47.1341 51.6566 47.1234 51.6673L46.9802 51.8436C46.9583 51.8767 46.936 51.8986 46.9033 51.9317L46.7382 52.0748C46.7159 52.1075 46.6832 52.1299 46.6501 52.1518L46.4631 52.2838C46.4519 52.2949 46.43 52.3057 46.4188 52.3169L46.2319 52.4376C46.1988 52.46 46.1768 52.4707 46.1437 52.4927L45.9348 52.6027C45.9129 52.6251 45.8798 52.6358 45.8467 52.647L45.6378 52.7239C45.6154 52.7351 45.5935 52.7351 45.5716 52.7458L45.3515 52.812C45.3184 52.8228 45.2853 52.8228 45.2526 52.834L45.0326 52.8778C44.9995 52.8778 44.9664 52.889 44.9225 52.889L44.6801 52.9002C44.6582 52.9002 44.6474 52.9002 44.6251 52.9002H44.4273V52.9328V52.9879V53.2079C44.4273 53.241 44.4273 53.2853 44.4162 53.318L44.3831 53.5381C44.3831 53.5604 44.3831 53.5712 44.3723 53.5931L44.328 53.8132C44.3173 53.8463 44.3061 53.8794 44.2949 53.9232L44.2292 54.1325C44.218 54.1545 44.218 54.1656 44.2072 54.1876L44.1299 54.3965C44.1191 54.4184 44.1079 54.4515 44.086 54.4846L43.976 54.6935C43.9541 54.7378 43.9321 54.7709 43.899 54.8147L43.7671 55.0017C43.7559 55.0129 43.7447 55.0236 43.734 55.0348L43.5908 55.2218C43.5908 55.233 43.5797 55.2437 43.5689 55.2549L43.4258 55.4311C43.3927 55.475 43.3596 55.5081 43.3157 55.5412L43.1395 55.6839C43.1287 55.6951 43.1068 55.7062 43.0845 55.7282L42.8975 55.8601C42.8756 55.8713 42.8536 55.8932 42.8317 55.904L42.6336 56.0252C42.6005 56.0364 42.5785 56.0583 42.5454 56.069L42.3473 56.1683C42.3253 56.1791 42.3034 56.1903 42.2815 56.2014L42.0722 56.2784C42.0502 56.2891 42.0283 56.2891 42.0064 56.3003L41.7863 56.3665C41.742 56.3772 41.6982 56.3884 41.6432 56.3992L41.4338 56.4323C41.4119 56.4323 41.39 56.4434 41.3681 56.4434L41.148 56.4542C41.1261 56.4542 41.1149 56.4542 41.093 56.4542C41.0818 56.4542 41.0599 56.4542 41.0379 56.4542L40.8286 56.4434C40.8067 56.4434 40.7959 56.4323 40.7736 56.4323L40.5535 56.3992C40.5096 56.3992 40.4658 56.3884 40.4215 56.3772L40.2234 56.3222C40.1907 56.3115 40.1683 56.3003 40.1357 56.2891L39.9263 56.2122C39.8932 56.2014 39.8713 56.1903 39.8382 56.1683L39.6512 56.069C39.6181 56.0471 39.5962 56.0364 39.5631 56.014L39.3761 55.8932L38.6058 55.4088C38.0118 55.8821 37.2746 56.1352 36.5262 56.1352C35.9429 56.1352 35.3377 55.9702 34.7986 55.6512C34.0502 55.2111 33.5331 54.5177 33.3019 53.7362C33.3019 53.7474 33.2907 53.7474 33.2907 53.7474L33.0706 53.8243C33.0599 53.8355 33.0487 53.8355 33.0268 53.8463L32.8067 53.9125C32.7736 53.9232 32.7405 53.9232 32.7078 53.9344L32.4877 53.9782C32.4654 53.9782 32.4546 53.9894 32.4327 53.9894L32.2126 54.0225C32.1795 54.0333 32.1352 54.0333 32.1026 54.0333H31.8601C31.8275 54.0333 31.7832 54.0333 31.7501 54.0225L31.53 53.9894C31.5081 53.9894 31.4862 53.9894 31.4642 53.9782L31.2549 53.9344C31.2111 53.9232 31.178 53.9125 31.1449 53.9013L30.936 53.8355C30.914 53.8243 30.8921 53.8132 30.859 53.8024L30.6497 53.7143C30.6277 53.7031 30.5946 53.6924 30.5727 53.6812L30.3746 53.5712C30.3307 53.5492 30.2976 53.5273 30.2645 53.5054L30.0887 53.373C30.0887 53.3623 30.0775 53.3623 30.0668 53.3511L29.8905 53.2191C29.8574 53.1972 29.8355 53.1753 29.8024 53.1422L29.6374 52.9771C29.6043 52.9552 29.5823 52.9328 29.5604 52.9002L29.4173 52.7239C29.3954 52.702 29.3842 52.6801 29.3623 52.647L29.2303 52.4488C29.2084 52.4157 29.1864 52.3826 29.1641 52.3388L29.0652 52.1406C29.0652 52.1406 29.0652 52.1299 29.0541 52.1187L28.9552 51.9098C28.9333 51.8767 28.9221 51.8436 28.9113 51.7997L28.8782 51.6897L28.7789 51.7335C28.7463 51.7447 28.7132 51.7555 28.6801 51.7666L28.4712 51.8324C28.4488 51.8436 28.4269 51.8436 28.405 51.8548L28.1849 51.9098C28.1518 51.9205 28.1187 51.9205 28.086 51.9317L27.8767 51.9648C27.8548 51.9648 27.8328 51.9755 27.8109 51.9755L27.5685 51.9867C27.5466 51.9867 27.5358 51.9867 27.5135 51.9867C27.4808 51.9867 27.4365 51.9867 27.4034 51.9755L26.9525 51.9205C26.8975 51.9205 26.8425 51.9098 26.7874 51.8874L26.5781 51.8217C26.5562 51.8105 26.5454 51.8105 26.5231 51.7997L26.3142 51.7224C26.2922 51.7116 26.2591 51.7004 26.226 51.6785L26.0171 51.5685C25.9952 51.5573 25.9729 51.5466 25.9509 51.5354L25.7528 51.4146C25.7309 51.4034 25.7089 51.3922 25.687 51.3703L25.5 51.2383C25.4558 51.2052 25.4119 51.1722 25.3788 51.1395L25.0599 50.8201C25.0268 50.7763 24.9937 50.7432 24.9606 50.6993L24.8286 50.5119C24.8174 50.49 24.7955 50.4681 24.7847 50.4461L24.6635 50.248C24.6524 50.2149 24.6304 50.1929 24.6197 50.1598L24.5204 49.9617C24.5096 49.9398 24.4985 49.9178 24.4873 49.8959L24.4103 49.6866C24.3996 49.6539 24.3884 49.6208 24.3772 49.5765L24.3222 49.3565C24.3222 49.3345 24.3222 49.3126 24.3115 49.2907L24.2672 49.0594C24.2672 49.0263 24.2565 48.9937 24.2565 48.9606L24.2453 48.7405C24.2453 48.7405 24.2453 48.7405 24.2453 48.7293H24.2345L24.0145 48.7405C23.9921 48.7405 23.9814 48.7405 23.9594 48.7405C23.9263 48.7405 23.8932 48.7405 23.8494 48.7293L23.42 48.6743C23.3869 48.6743 23.343 48.6635 23.3099 48.6524L23.101 48.5973C23.0567 48.5862 23.0241 48.5754 22.9798 48.5535L22.7816 48.4761C22.7597 48.4761 22.749 48.4654 22.7266 48.4542L22.5289 48.3553C22.4958 48.3334 22.4515 48.311 22.4188 48.2891L22.2314 48.1683C22.1988 48.146 22.1657 48.1241 22.1326 48.1021L21.9787 47.9702C21.9675 47.959 21.9563 47.9483 21.9456 47.9371L21.7805 47.7939C21.7693 47.7832 21.7474 47.7608 21.7255 47.7389L21.5823 47.5739C21.5492 47.5408 21.5161 47.4969 21.4835 47.4531L21.3623 47.2656C21.3623 47.2549 21.3511 47.233 21.3403 47.2218L21.2303 47.0348C21.2191 47.0129 21.2084 46.9905 21.1972 46.9686L21.0983 46.7705C21.0872 46.7266 21.0652 46.6935 21.0541 46.6497L20.9883 46.4403C20.9771 46.4184 20.9771 46.4077 20.9659 46.3853L20.9109 46.1764C20.9002 46.1326 20.9002 46.0995 20.889 46.0552L20.8559 45.8351C20.8451 45.8132 20.8451 45.8024 20.8451 45.7801L20.834 45.56C20.834 45.5273 20.834 45.483 20.834 45.4499L20.8451 45.2079C20.8451 45.1972 20.8559 45.1748 20.8559 45.1529L20.889 44.9328C20.889 44.889 20.9002 44.8559 20.9109 44.8228L20.9659 44.6027C20.9659 44.5808 20.9659 44.5696 20.9771 44.5477L21.0433 44.3276C21.0541 44.2945 21.0652 44.2507 21.0872 44.2176L21.186 44.0086C21.1972 43.9975 21.1972 43.9867 21.2084 43.9644L21.3184 43.7555C21.3292 43.7335 21.3403 43.7116 21.3511 43.6893L21.4723 43.5023L21.4835 43.4915C21.4942 43.4804 21.5054 43.4584 21.5161 43.4473C21.5161 43.4365 21.5273 43.4253 21.5385 43.4142L21.5492 43.4034L21.8905 42.9413C21.5604 42.2918 21.2853 41.6208 21.076 40.9382C20.7682 41.1806 20.3938 41.3457 19.9867 41.4115C19.8548 41.4334 19.7228 41.4446 19.5904 41.4446C19.0733 41.4446 18.5893 41.2907 18.171 40.9932L16.0252 39.4857C15.4862 39.1118 15.1449 38.5504 15.0348 37.912C14.9248 37.2741 15.0787 36.6358 15.4531 36.1075L24.9717 22.6492C25.7528 21.56 27.2715 21.2956 28.3611 22.0659L30.507 23.5958C31.0241 23.9697 31.3873 24.5092 31.5081 25.1033C31.5962 25.5323 31.5631 25.9724 31.4092 26.3688C32.8067 26.2806 34.2153 26.3026 35.6128 26.4569L36.6582 25.7966C37.1203 25.4996 37.6485 25.3453 38.1876 25.3565H38.1988H38.2099L49.1592 25.5103H49.1811C49.2361 25.5103 49.2911 25.5103 49.3461 25.4996L50.9198 25.2245C50.9087 24.8062 51.0187 24.3992 51.2169 24.0248C51.5358 23.4526 52.0422 23.0456 52.6693 22.8586L55.1891 22.1209C55.8055 21.934 56.4658 22.0109 57.0379 22.3191C57.6101 22.6385 58.0176 23.1444 58.2046 23.7716L62.9033 39.7501ZM60.7355 40.9932C61.0437 40.8944 61.2088 40.5862 61.1207 40.278L56.4108 24.2999C56.3669 24.1567 56.2676 24.0359 56.1357 23.959C56.0037 23.8816 55.8494 23.8709 55.7067 23.9147L53.1865 24.6519C53.0433 24.6962 52.9225 24.7951 52.8456 24.927C52.7682 25.0594 52.7575 25.2133 52.8013 25.3565L52.9113 25.7197C52.9113 25.7197 52.9225 25.7304 52.9225 25.7416L57.5112 41.3457C57.5551 41.4884 57.6544 41.6096 57.7863 41.6866C57.9075 41.7635 58.0726 41.7747 58.2153 41.7309L60.7355 40.9932ZM55.3542 40.5531L51.3708 27.0071L49.6651 27.2929C49.5 27.326 49.335 27.3372 49.1811 27.3372C49.1699 27.3372 49.148 27.3372 49.1368 27.3372L38.1876 27.1941C38.0006 27.1941 37.8248 27.2491 37.6705 27.348L34.6993 29.241C34.5785 29.3287 34.4792 29.428 34.4023 29.5488L32.4434 32.7512C32.4434 32.7624 32.4434 32.7624 32.4327 32.7731L32.4215 32.7843C32.1903 33.1364 32.2126 33.5877 32.4654 33.9067C32.7078 34.2149 33.1256 34.3357 33.5108 34.2037C33.5219 34.2037 33.5219 34.1929 33.5331 34.1929C33.9733 34.0279 34.3692 33.7747 34.6774 33.4446L34.6993 33.4226C34.7105 33.4115 34.7105 33.4115 34.7212 33.4003L37.1095 31.1444C37.1095 31.1337 37.1203 31.1337 37.1314 31.1225C37.1314 31.1118 37.1422 31.1118 37.1534 31.1006C37.1534 31.0894 37.1645 31.0894 37.1753 31.0787L37.1864 31.0675C38.1549 30.2864 39.5412 30.2422 40.5647 30.9686L53.6928 40.278L53.7036 40.2891C53.7036 40.2891 53.7036 40.3003 53.7147 40.3003L53.9017 40.443C53.9237 40.4654 53.946 40.4761 53.9679 40.498L54.1549 40.6631C54.5512 40.6743 54.9471 40.6524 55.3542 40.5531ZM38.6058 52.46C38.7709 51.8324 38.4958 51.1502 37.9236 50.8094C37.3734 50.49 36.6582 50.5781 36.1961 51.0294L35.1726 52.2726C34.9194 52.944 35.1726 53.7031 35.7997 54.0775C36.46 54.4627 37.3296 54.2976 37.7805 53.6924L38.375 52.9002C38.3969 52.8671 38.4188 52.8228 38.4519 52.7789C38.5177 52.6908 38.562 52.6027 38.5951 52.5038C38.5951 52.4927 38.5951 52.4819 38.6058 52.46ZM35.2164 48.7185V48.5862L35.1945 48.4323L35.1614 48.256L35.1287 48.1133L35.0845 47.9921L35.0187 47.8601L34.9413 47.7389L34.8644 47.6289L34.7986 47.5519L34.6886 47.4531L34.5785 47.3649L34.4573 47.288L34.3692 47.2437L34.2484 47.2106L34.0941 47.178L33.9733 47.1556H33.8302L33.6539 47.1668L33.4889 47.1887L33.3681 47.2218L33.2137 47.2768L33.0599 47.343L32.9055 47.4307L32.7736 47.5188L32.6416 47.6289L32.4985 47.7608L32.3777 47.8932L32.2453 48.0471L30.8147 49.929L30.7821 49.9948L30.727 50.1598L30.6828 50.3249L30.6497 50.49L30.6389 50.6331L30.6497 50.7982L30.672 50.9852L30.7047 51.1283L30.7378 51.2495L30.804 51.4034L30.8698 51.5354L30.936 51.6454L31.0129 51.7447L31.0898 51.8217L31.1999 51.9098L31.3099 51.9975L31.42 52.0525L31.5524 52.1075L31.6731 52.1518L31.8051 52.1737L31.9483 52.1956H32.0802L32.2234 52.1737L32.3777 52.1406L32.5316 52.0968L32.6855 52.0417L32.8398 51.9648L32.9717 51.8874L33.1037 51.7886L33.2468 51.6673L33.3788 51.5354L33.5 51.4034L33.6101 51.2495C33.6101 51.2383 33.6208 51.2272 33.632 51.2164C33.632 51.2052 33.632 51.2052 33.6432 51.1945L34.7655 49.8409L34.8536 49.6978L34.9525 49.5327L35.0406 49.3896L35.0956 49.2245L35.1507 49.0263L35.1945 48.8613L35.2164 48.7185ZM31.398 45.6481V45.5273L31.3761 45.428L31.288 45.1091L31.233 44.9879L31.1672 44.8778L31.0898 44.7678L30.991 44.647L30.8921 44.5477L30.7821 44.4596L30.672 44.3826L30.5396 44.3169L30.3969 44.2618L30.2538 44.2176L30.1106 44.1845L29.9894 44.1625H29.8686L29.7255 44.1845L29.5823 44.2068L29.4723 44.2395L29.3403 44.2945L29.2303 44.3495L29.1091 44.4376L28.9883 44.5369L28.889 44.6246L28.8671 44.647C28.8563 44.6689 28.8451 44.6908 28.8232 44.7127L28.5038 45.1422L26.3804 47.9702L26.3142 48.069L26.2703 48.1791L26.226 48.311L26.1822 48.4654L26.1603 48.5973L26.1491 48.7185L26.1603 48.8393L26.1822 48.9825L26.2153 49.1256L26.2591 49.2576L26.3142 49.3788L26.3911 49.5108L26.4573 49.6096L26.6662 49.819L26.7655 49.8847L26.9082 49.9729L27.0514 50.0391L27.1945 50.0941L27.3046 50.1267L27.5908 50.1598L27.7228 50.1491L27.8548 50.1267L27.9979 50.0941L28.1299 50.0498L28.2511 49.9948L28.35 49.929L28.4712 49.8409L28.5481 49.764L28.6362 49.6647L28.757 49.5108L29.1864 48.9386C29.2191 48.8944 29.2522 48.8505 29.2853 48.8062L30.727 46.9136L31.0898 46.3965L31.1891 46.2426L31.2773 46.1652L31.3211 46.0444L31.3649 45.9125L31.3873 45.7912L31.398 45.6481ZM29.5935 25.8516C29.7917 25.5765 29.6485 25.2903 29.4173 25.1252L27.2715 23.5958C27.0183 23.4195 26.6662 23.4746 26.4792 23.7389L16.9717 37.1748C16.8836 37.2961 16.8505 37.4499 16.8724 37.6043C16.9055 37.7582 16.9825 37.8794 17.1037 37.9671L19.2495 39.4857C19.3703 39.585 19.5354 39.6177 19.6897 39.5958C19.8328 39.5627 19.9648 39.4857 20.0529 39.3649L29.0983 26.545C29.1091 26.5226 29.1314 26.49 29.1533 26.4676L29.5935 25.8516ZM27.3596 43.0402L27.3484 42.897L27.3265 42.7212L27.3046 42.5781L27.2607 42.4569L27.2057 42.3361L27.1507 42.2368L27.0733 42.1267L26.9856 42.0279L26.8975 41.9398L26.7874 41.8516L26.6774 41.7747L26.5674 41.7197L26.4681 41.6758L26.3473 41.6427L26.1929 41.6096L26.0722 41.5985L25.9402 41.6096L25.7859 41.6316L25.632 41.6647L25.4888 41.7085L25.3676 41.7528L25.2576 41.8078L25.1256 41.8959L24.9825 42.006L24.8617 42.116L24.7517 42.2368L24.6416 42.3799L23.7944 43.5242C23.7613 43.5792 23.717 43.6235 23.6731 43.6785L23.0679 44.5038L22.991 44.6358L22.914 44.8009L22.8478 44.944L22.804 45.0871L22.7709 45.241L22.749 45.3842L22.7378 45.5381L22.749 45.6812L22.7709 45.8243L22.804 45.9563L22.8478 46.0883L22.9029 46.1983L22.9798 46.3303L23.046 46.4296L23.1118 46.5065L23.2218 46.6166L23.3211 46.7047L23.4092 46.7597L23.53 46.8147L23.6512 46.8586L23.7501 46.8805L24.0364 46.9136L24.1464 46.9028L24.3222 46.8805L24.4546 46.8478L24.5973 46.8036L24.7405 46.7378L24.8836 46.6604L24.9937 46.5946L25.1149 46.4953L25.2357 46.3853L25.3788 46.2314L26.9856 44.0525L27.0956 43.8874L27.1726 43.7666L27.2276 43.6235L27.2826 43.4692L27.3157 43.3153L27.3484 43.1722L27.3596 43.0402Z" fill="#5C5AEA"/>
</g>
<defs>
<clipPath id="clip0_1214_1719">
<rect width="48" height="48" fill="white" transform="translate(15 15)"/>
</clipPath>
</defs>
</svg>
