<svg width="78" height="78" viewBox="0 0 78 78" fill="none" xmlns="http://www.w3.org/2000/svg">
<rect x="1" y="1" width="76" height="76" rx="15" fill="white" stroke="#5C5AEA" stroke-width="2"/>
<path d="M34.3781 15.093C23.7411 15.093 15.091 23.74 15.0938 34.3774C15.0948 38.6585 16.5262 42.8161 19.1527 46.1953C19.2417 46.3193 19.3548 46.4241 19.4852 46.5033C19.6156 46.5826 19.7607 46.6348 19.9118 46.6566C20.0629 46.6785 20.2168 46.6697 20.3644 46.6307C20.5119 46.5917 20.6501 46.5233 20.7706 46.4296C20.8912 46.3359 20.9915 46.2189 21.0658 46.0855C21.14 45.9522 21.1865 45.8052 21.2026 45.6534C21.2187 45.5016 21.204 45.3481 21.1593 45.2022C21.1147 45.0562 21.0411 44.9207 20.9429 44.8039C18.6248 41.8215 17.3635 38.1534 17.3625 34.3774C17.3601 24.9668 24.9672 17.3618 34.3781 17.3618C43.789 17.3618 51.3937 24.9665 51.3937 34.3774C51.3937 43.7883 43.7882 51.3985 34.3781 51.393C30.6042 51.3908 26.9402 50.1224 23.9605 47.8016C23.843 47.7093 23.7084 47.6411 23.5646 47.6009C23.4207 47.5607 23.2702 47.5494 23.1219 47.5674C22.9736 47.5855 22.8304 47.6327 22.7003 47.7063C22.5703 47.7799 22.4561 47.8784 22.3642 47.9962C22.2724 48.114 22.2047 48.2488 22.165 48.3929C22.1254 48.5369 22.1145 48.6874 22.1332 48.8356C22.1518 48.9838 22.1995 49.1269 22.2735 49.2567C22.3476 49.3864 22.4465 49.5003 22.5647 49.5917C25.94 52.2206 30.0968 53.6593 34.3781 53.6617C39.29 53.6637 43.7632 51.8042 47.1708 48.772L48.4692 50.0703L46.0631 52.4764C45.8504 52.6892 45.7309 52.9776 45.7309 53.2785C45.7309 53.5793 45.8504 53.8677 46.0631 54.0805L53.0598 61.0728C54.3547 62.3669 55.9245 62.9401 57.3891 62.8741C58.8537 62.8081 60.1861 62.1468 61.1711 61.1615C62.156 60.1762 62.816 58.8464 62.8815 57.3817C62.947 55.917 62.3725 54.3469 61.078 53.0525L54.0857 46.0601C53.9782 45.9526 53.8503 45.8678 53.7095 45.8108C53.5687 45.7537 53.4178 45.7254 53.2659 45.7278C52.9712 45.7325 52.6899 45.8517 52.4816 46.0601L50.0732 48.4684L48.7749 47.1701C51.8057 43.7621 53.6625 39.288 53.6625 34.3774C53.6625 23.7403 45.0151 15.093 34.3781 15.093ZM53.2836 48.4662L55.2688 50.4514L50.4543 55.2614L48.4692 53.2785L53.2836 48.4662ZM56.8706 52.0532L59.4739 54.6565C60.3784 55.5611 60.6524 56.4421 60.615 57.2798C60.5777 58.1175 60.1832 58.941 59.5648 59.5596C58.9464 60.1782 58.1248 60.5698 57.2872 60.6076C56.4495 60.6462 55.5687 60.3731 54.6639 59.4688L52.0606 56.8677L56.8706 52.0532Z" fill="#5C5AEA"/>
<path fill-rule="evenodd" clip-rule="evenodd" d="M34.3764 24.1703C31.2573 24.1703 28.7067 26.7209 28.7067 29.8399C28.7067 31.4818 29.4237 32.9522 30.5478 33.9897C26.8093 35.5076 24.167 39.1732 24.167 43.4547C24.167 43.7558 24.2866 44.0446 24.4996 44.2576C24.7125 44.4705 25.0013 44.5901 25.3025 44.5901C25.6036 44.5901 25.8924 44.4705 26.1054 44.2576C26.3183 44.0446 26.438 43.7558 26.438 43.4547C26.438 39.036 29.9576 35.5096 34.3764 35.5096C38.7951 35.5096 42.3236 39.036 42.3236 43.4547C42.3203 43.6057 42.3471 43.756 42.4026 43.8965C42.4581 44.0371 42.5412 44.1652 42.6468 44.2732C42.7525 44.3812 42.8787 44.4671 43.018 44.5257C43.1573 44.5843 43.3069 44.6145 43.458 44.6145C43.6091 44.6145 43.7587 44.5843 43.898 44.5257C44.0373 44.4671 44.1635 44.3812 44.2692 44.2732C44.3748 44.1652 44.4579 44.0371 44.5134 43.8965C44.5689 43.756 44.5957 43.6057 44.5924 43.4547C44.5924 39.1732 41.9458 35.5076 38.2049 33.9897C39.3318 32.9521 40.0527 31.4822 40.0527 29.8399C40.0527 26.7209 37.4954 24.1703 34.3764 24.1703ZM34.3764 26.439C36.2693 26.439 37.7839 27.947 37.7839 29.8399C37.7839 31.7329 36.2693 33.2386 34.3764 33.2386C32.4834 33.2386 30.9755 31.7329 30.9755 29.8399C30.9755 27.947 32.4834 26.439 34.3764 26.439Z" fill="#5C5AEA"/>
</svg>
