<svg width="78" height="78" viewBox="0 0 78 78" fill="none" xmlns="http://www.w3.org/2000/svg">
<rect x="1" y="1" width="76" height="76" rx="15" fill="white" stroke="#5C5AEA" stroke-width="2"/>
<g clip-path="url(#clip0_1214_1734)">
<path d="M25.4993 53.2469C24.906 53.2469 24.326 53.4228 23.8327 53.7524C23.3394 54.0821 22.9549 54.5506 22.7279 55.0987C22.5008 55.6468 22.4414 56.25 22.5572 56.8319C22.6729 57.4138 22.9586 57.9483 23.3781 58.3678C23.7976 58.7873 24.3322 59.073 24.914 59.1888C25.4959 59.3045 26.0991 59.2451 26.6472 59.0181C27.1954 58.791 27.6639 58.4065 27.9935 57.9132C28.3231 57.4199 28.499 56.8399 28.499 56.2466C28.4981 55.4513 28.1818 54.6889 27.6194 54.1265C27.0571 53.5641 26.2946 53.2478 25.4993 53.2469ZM25.4993 57.7465C25.2026 57.7465 24.9126 57.6586 24.666 57.4937C24.4193 57.3289 24.2271 57.0947 24.1136 56.8206C24 56.5466 23.9703 56.245 24.0282 55.954C24.0861 55.6631 24.2289 55.3958 24.4387 55.1861C24.6485 54.9763 24.9157 54.8335 25.2067 54.7756C25.4976 54.7177 25.7992 54.7474 26.0732 54.8609C26.3473 54.9745 26.5816 55.1667 26.7464 55.4134C26.9112 55.66 26.9991 55.95 26.9991 56.2466C26.9988 56.6443 26.8406 57.0256 26.5594 57.3068C26.2782 57.588 25.8969 57.7461 25.4993 57.7465Z" fill="#5C5AEA"/>
<path d="M60.1013 23.2283L60.0995 23.2211C60.0953 23.2128 60.0875 23.2081 60.0832 23.1999C58.0682 20.0933 55.1435 17.6842 51.7085 16.3016C48.2734 14.9189 44.4954 14.6301 40.8901 15.4744C37.2848 16.3188 34.0279 18.2552 31.564 21.0194C29.1001 23.7835 27.5494 27.2407 27.1234 30.919C25.9766 30.6765 24.7902 30.6931 23.6508 30.9677C22.5113 31.2424 21.4476 31.768 20.5372 32.5064C19.6269 33.2447 18.893 34.177 18.3892 35.2353C17.8853 36.2935 17.6241 37.451 17.6248 38.6231V40.4979C17.6254 41.0944 17.8627 41.6663 18.2845 42.0881C18.7062 42.5098 19.2781 42.7471 19.8746 42.7477H20.4707C20.7457 43.6614 21.2645 44.4829 21.9712 45.1239C20.8019 45.35 19.7134 45.8817 18.8165 46.6651C17.9195 47.4485 17.2461 48.4556 16.8648 49.5838C16.3398 49.7204 15.8827 50.0439 15.5793 50.4935C15.2759 50.9432 15.147 51.4881 15.2168 52.0261L16.4004 61.4962H15.7499C15.551 61.4962 15.3603 61.5752 15.2197 61.7159C15.079 61.8565 15 62.0473 15 62.2462C15 62.445 15.079 62.6358 15.2197 62.7764C15.3603 62.9171 15.551 62.9961 15.7499 62.9961H35.2484C35.4472 62.9961 35.638 62.9171 35.7786 62.7764C35.9193 62.6358 35.9983 62.445 35.9983 62.2462C35.9983 62.0473 35.9193 61.8565 35.7786 61.7159C35.638 61.5752 35.4472 61.4962 35.2484 61.4962H34.5979L35.7815 52.0261C35.8513 51.4881 35.7224 50.9432 35.419 50.4935C35.1156 50.0439 34.6585 49.7204 34.1335 49.5838C33.7522 48.4556 33.0788 47.4485 32.1818 46.6651C31.2849 45.8817 30.1963 45.35 29.0271 45.1239C29.5647 44.6356 29.9956 44.0413 30.2925 43.3785C33.0066 47.2299 37.123 49.8631 41.7575 50.7124C46.3919 51.5617 51.1746 50.5593 55.078 47.9207C58.9814 45.282 61.6942 41.2176 62.6334 36.6006C63.5727 31.9835 62.6636 27.1823 60.1013 23.2283ZM58.3262 23.2909C55.6696 24.8136 53.4159 26.9498 51.7535 29.5213C50.972 30.7718 50.4381 30.9457 50.2448 30.9626C50.0221 30.9889 49.7629 30.8374 49.4879 30.5315C49.1455 30.1036 48.9854 29.5579 49.0423 29.0128C49.0993 28.4677 49.3687 27.9669 49.7922 27.619C50.1202 27.3511 50.3797 27.0089 50.5491 26.6208C50.7186 26.2327 50.7931 25.8098 50.7666 25.3871C50.6541 24.0564 49.5029 22.7121 47.2484 21.2774C46.0553 20.5183 45.4145 19.7918 45.4906 19.2851C45.576 18.7167 46.6398 17.8462 49.3207 17.0785C52.9402 18.0682 56.1158 20.2589 58.3264 23.2909H58.3262ZM25.4991 32.2486C27.1466 32.2512 28.7291 32.8913 29.9151 34.0347C31.1012 35.1782 31.7987 36.7362 31.8615 38.3825C31.6249 38.2962 31.3755 38.2508 31.1237 38.2481H30.4082L28.7014 35.5933C28.6382 35.4949 28.5529 35.4127 28.4522 35.3532C28.3516 35.2936 28.2384 35.2585 28.1218 35.2505C28.0053 35.2432 27.8887 35.2629 27.781 35.308C27.6733 35.3531 27.5775 35.4224 27.501 35.5105C26.7654 36.3697 25.8524 37.0592 24.8248 37.5318C23.7972 38.0044 22.6794 38.2488 21.5484 38.2481H19.8746C19.6228 38.2508 19.3734 38.2962 19.1368 38.3825C19.1996 36.7362 19.8971 35.1782 21.0831 34.0347C22.2692 32.8913 23.8517 32.2512 25.4991 32.2486ZM21.7495 39.7458C24.0614 39.6974 26.2728 38.7918 27.9547 37.2049L29.2488 39.2182V41.2479C29.2488 42.2423 28.8538 43.1961 28.1506 43.8993C27.4474 44.6025 26.4936 44.9976 25.4991 44.9976C24.5047 44.9976 23.5509 44.6025 22.8477 43.8993C22.1445 43.1961 21.7495 42.2423 21.7495 41.2479V39.7458ZM30.7487 41.2479V39.748H31.1237C31.3226 39.748 31.5133 39.827 31.654 39.9676C31.7946 40.1083 31.8736 40.299 31.8736 40.4979C31.8736 40.6968 31.7946 40.8876 31.654 41.0282C31.5133 41.1689 31.3226 41.2479 31.1237 41.2479H30.7487ZM19.8746 41.2479C19.6757 41.2479 19.485 41.1689 19.3443 41.0282C19.2037 40.8876 19.1247 40.6968 19.1247 40.4979C19.1247 40.299 19.2037 40.1083 19.3443 39.9676C19.485 39.827 19.6757 39.748 19.8746 39.748H20.2496V41.2479H19.8746ZM17.9118 61.4962L16.7049 51.84C16.6917 51.7345 16.7011 51.6274 16.7325 51.5258C16.7639 51.4242 16.8165 51.3304 16.8868 51.2507C16.9572 51.171 17.0437 51.1072 17.1406 51.0634C17.2376 51.0197 17.3427 50.9971 17.449 50.9971H33.5493C33.6556 50.9971 33.7607 51.0197 33.8577 51.0634C33.9546 51.1072 34.0411 51.171 34.1115 51.2507C34.1818 51.3304 34.2344 51.4242 34.2658 51.5258C34.2972 51.6274 34.3066 51.7345 34.2934 51.84L33.0865 61.4962H17.9118ZM27.749 46.4974C28.7402 46.4987 29.7108 46.7812 30.5478 47.3122C31.3849 47.8432 32.054 48.6009 32.4775 49.4972H18.5208C18.9443 48.6009 19.6134 47.8432 20.4505 47.3122C21.2875 46.7812 22.2581 46.4987 23.2493 46.4974H27.749ZM31.6438 42.6811C32.1354 42.5643 32.5734 42.2854 32.8871 41.8893C33.2009 41.4933 33.3722 41.0032 33.3735 40.4979V38.6231C33.3717 37.0823 32.9185 35.5758 32.07 34.2897C31.2214 33.0036 30.0146 31.9944 28.5987 31.3866C28.8375 28.9515 29.6158 26.6001 30.877 24.5034C32.1382 22.4066 33.8506 20.6172 35.8899 19.2651C35.5683 20.6055 35.7592 22.0178 36.4252 23.2247C36.8312 23.7972 37.3654 24.2668 37.9853 24.5961C38.6051 24.9253 39.2933 25.105 39.9949 25.1208C41.8233 25.3036 42.2568 25.7942 42.3583 25.9967C42.5414 26.3618 42.2543 26.9382 42.0672 27.2491C41.5952 28.0037 40.9102 28.6013 40.0986 28.9665C39.3425 29.2889 38.6622 29.7659 38.1016 30.367C37.5409 30.9681 37.1123 31.6799 36.8432 32.4566C36.3503 34.1589 36.8085 36.1349 38.2047 38.3294C38.6489 38.9404 38.9646 39.6351 39.1329 40.3715C39.3011 41.1079 39.3183 41.8708 39.1835 42.6141C38.7444 44.5426 37.0698 45.9713 35.8899 46.767C34.2405 45.6712 32.8022 44.2871 31.6438 42.6811ZM37.3012 47.5998C38.93 46.4917 40.1146 44.8436 40.646 42.9467C40.8285 42.0103 40.8183 41.0465 40.6162 40.1141C40.414 39.1818 40.0241 38.3003 39.4701 37.5236C38.3152 35.7087 37.916 34.1441 38.2841 32.8734C38.4905 32.2996 38.8158 31.7759 39.2386 31.3365C39.6615 30.897 40.1723 30.5519 40.7378 30.3237C41.8179 29.8323 42.7278 29.0314 43.3524 28.0225C44.1184 26.7494 43.9635 25.8526 43.6988 25.3246C43.2228 24.3743 42.0597 23.8196 40.1441 23.628C39.6691 23.6276 39.2005 23.518 38.7746 23.3076C38.3487 23.0973 37.9768 22.7918 37.6878 22.4149C36.9344 21.2405 37.3174 19.3953 37.6848 18.2264C39.9557 17.092 42.4591 16.5009 44.9976 16.4999C45.47 16.4999 45.9367 16.5245 46.3992 16.5636C44.9506 17.2701 44.1528 18.0949 44.0074 19.0624C43.8298 20.2481 44.6263 21.3866 46.4432 22.543C48.8135 24.0512 49.233 25.0517 49.2724 25.5138C49.2821 25.7071 49.2425 25.8997 49.1574 26.0735C49.0722 26.2473 48.9441 26.3965 48.7854 26.5072C48.0679 27.1216 47.6221 27.9944 47.5449 28.9358C47.4676 29.8772 47.7652 30.8111 48.3729 31.5342C48.5923 31.8129 48.8698 32.0404 49.186 32.201C49.5023 32.3616 49.8497 32.4514 50.2042 32.4641C50.2642 32.4641 50.3213 32.4616 50.3751 32.4566C51.3093 32.3753 52.1764 31.6749 53.026 30.3156C54.5725 27.9234 56.6774 25.943 59.1594 24.545C60.6916 27.0983 61.4994 30.0208 61.4962 32.9985C61.4962 33.3015 61.4868 33.6022 61.4706 33.9012C59.7913 31.4975 57.8184 31.5751 56.656 31.9271C55.6497 32.2474 54.7616 32.8602 54.105 33.6873C53.4484 34.5144 53.0531 35.5183 52.9694 36.571C52.798 38.6367 51.601 39.6407 49.3097 39.6407C47.6762 39.6407 46.5077 40.1691 45.8368 41.2109C44.3999 43.4428 45.9782 47.0712 46.1862 47.5242L47.1747 49.3491C43.7817 49.8074 40.3303 49.1959 37.3012 47.5998ZM48.7272 49.0666L47.5282 46.8574C47.1207 45.9603 46.2485 43.3428 47.098 42.0231C47.4805 41.4295 48.2038 41.1409 49.3097 41.1409C52.3512 41.1409 54.2293 39.5206 54.464 36.6955C54.5213 35.9419 54.8018 35.2225 55.2696 34.629C55.7374 34.0355 56.3714 33.5947 57.0907 33.3629C58.7325 32.8661 60.0898 33.9052 61.1353 36.4287C60.477 39.4944 58.9612 42.3101 56.7644 44.5476C54.5676 46.7851 51.7803 48.3523 48.7272 49.0668V49.0666Z" fill="#5C5AEA"/>
</g>
<defs>
<clipPath id="clip0_1214_1734">
<rect width="47.9961" height="47.9961" fill="white" transform="translate(15 15)"/>
</clipPath>
</defs>
</svg>
