<?xml version="1.0" encoding="UTF-8"?>
<svg width="40px" height="40px" viewBox="0 0 40 40" version="1.1" xmlns="http://www.w3.org/2000/svg" xmlns:xlink="http://www.w3.org/1999/xlink">
    <title>Digital Consultancy@1x</title>
    <g id="Digital-Consultancy" stroke="none" stroke-width="1" fill="none" fill-rule="evenodd">
        <path d="M35.8066667,0.0272800669 C36.0080593,-0.0324541937 36.2258563,0.00714526928 36.3933333,0.133946734 C36.5664728,0.256073983 36.6686331,0.455411037 36.6666667,0.667280067 L36.6666667,0.667280067 L36.6666667,4.0006134 L37.3333333,4.0006134 C38.4379028,4.00061342 39.3333333,4.89604392 39.3333333,6.0006134 C39.3333333,7.10518288 38.4379028,8.00061338 37.3333333,8.0006134 L37.3333333,8.0006134 L36.6666667,8.0006134 L36.6666667,8.66728007 L38,8.66728007 C39.1032019,8.67057487 39.9967052,9.5640782 40,10.6672801 L40,10.6672801 L40,32.0006134 C39.9967052,33.1038153 39.1032019,33.9973186 38,34.0006134 L38,34.0006134 L22.6666667,34.0006134 L22.6666667,36.0006134 L26.6666667,36.0006134 C27.0348565,36.0006134 27.3333333,36.2990902 27.3333333,36.6672801 L27.3333333,36.6672801 L27.3333333,39.3339467 C27.3333333,39.7021366 27.0348565,40.0006134 26.6666667,40.0006134 L26.6666667,40.0006134 L13.3333333,40.0006134 C12.9651435,40.0006134 12.6666667,39.7021366 12.6666667,39.3339467 L12.6666667,39.3339467 L12.6666667,36.6672801 C12.6666667,36.2990902 12.9651435,36.0006134 13.3333333,36.0006134 L13.3333333,36.0006134 L17.3333333,36.0006134 L17.3333333,34.0006134 L2,34.0006134 C0.896798134,33.9973186 0.00329480111,33.1038153 0,32.0006134 L0,32.0006134 L0,10.6672801 C0.00329480111,9.5640782 0.896798134,8.67057487 2,8.66728007 L2,8.66728007 L3.33333333,8.66728007 L3.33333333,2.66728007 C3.33333333,2.29909023 3.63181017,2.0006134 4,2.0006134 L4,2.0006134 L17.3333333,2.0006134 C17.7015232,2.0006134 18,2.29909023 18,2.66728007 L18,2.66728007 L18,8.66728007 L22,8.66728007 L22,8.0006134 L20.6666667,8.0006134 C20.2984768,8.0006134 20,7.70213657 20,7.33394673 L20,7.33394673 L20,4.66728007 C20,4.29909023 20.2984768,4.0006134 20.6666667,4.0006134 L20.6666667,4.0006134 L22,4.0006134 L22,3.33394673 C22,2.9657569 22.2984768,2.66728007 22.6666667,2.66728007 L22.6666667,2.66728007 L27.2333333,2.66728007 Z M26,37.3339467 L14,37.3339467 L14,38.6672801 L26,38.6672801 L26,37.3339467 Z M21.3333333,34.0006134 L18.6666667,34.0006134 L18.6666667,36.0006134 L21.3333333,36.0006134 L21.3333333,34.0006134 Z M38.6666667,31.3339467 L1.33333333,31.3339467 L1.33333333,32.0006134 C1.33333333,32.3688032 1.63181017,32.6672801 2,32.6672801 L2,32.6672801 L38,32.6672801 C38.3681898,32.6672801 38.6666667,32.3688032 38.6666667,32.0006134 L38.6666667,32.0006134 L38.6666667,31.3339467 Z M27.2333333,9.33394673 L26.58,9.33394673 L25.9933333,13.4272801 C25.9468404,13.7561015 25.6654254,14.0005631 25.3333333,14.0006134 L25.3333333,14.0006134 L23.3333333,14.0006134 C22.9651435,14.0006134 22.6666667,13.7021366 22.6666667,13.3339467 L22.6666667,13.3339467 L22.6666667,10.0006134 L18,10.0006134 L18,13.3339467 C18,13.7021366 17.7015232,14.0006134 17.3333333,14.0006134 L17.3333333,14.0006134 L4,14.0006134 C3.63181017,14.0006134 3.33333333,13.7021366 3.33333333,13.3339467 L3.33333333,13.3339467 L3.33333333,10.0006134 L2,10.0006134 C1.63181017,10.0006134 1.33333333,10.2990902 1.33333333,10.6672801 L1.33333333,10.6672801 L1.33333333,30.0006134 L38.6666667,30.0006134 L38.6666667,10.6672801 C38.6666667,10.2990902 38.3681898,10.0006134 38,10.0006134 L38,10.0006134 L36.6666667,10.0006134 L36.6666667,11.3339467 C36.6612975,11.6998895 36.3659428,11.9952442 36,12.0006134 C35.9345486,12.0020433 35.8692871,11.9930417 35.8066667,11.9739467 L35.8066667,11.9739467 L27.2333333,9.33394673 Z M20.6666667,16.6672801 C21.0348565,16.6672801 21.3333333,16.9657569 21.3333333,17.3339467 L21.3333333,17.3339467 L21.3333333,28.0006134 C21.3333333,28.3688032 21.0348565,28.6672801 20.6666667,28.6672801 L20.6666667,28.6672801 L3.33333333,28.6672801 C2.9651435,28.6672801 2.66666667,28.3688032 2.66666667,28.0006134 L2.66666667,28.0006134 L2.66666667,17.3339467 C2.66666667,16.9657569 2.9651435,16.6672801 3.33333333,16.6672801 L3.33333333,16.6672801 Z M20,18.5266134 L12.3493333,23.2352801 C12.1350937,23.3670861 11.8649063,23.3670861 11.6506667,23.2352801 L11.6506667,23.2352801 L4,18.5266134 L4,27.3339467 L20,27.3339467 L20,18.5266134 Z M35.3333333,15.3339467 C35.7015232,15.3339467 36,15.6324236 36,16.0006134 L36,16.0006134 L36,18.0006134 L36.6666667,18.0006134 C37.0348565,18.0006134 37.3333333,18.2990902 37.3333333,18.6672801 L37.3333333,18.6672801 L37.3333333,26.6672801 C37.3333333,27.0354699 37.0348565,27.3339467 36.6666667,27.3339467 L36.6666667,27.3339467 L25.3333333,27.3339467 C24.9651435,27.3339467 24.6666667,27.0354699 24.6666667,26.6672801 L24.6666667,26.6672801 L24.6666667,24.6672801 L23.3333333,24.6672801 C22.9651435,24.6672801 22.6666667,24.3688032 22.6666667,24.0006134 L22.6666667,24.0006134 L22.6666667,16.0006134 C22.6666667,15.6324236 22.9651435,15.3339467 23.3333333,15.3339467 L23.3333333,15.3339467 Z M36,19.3339467 L26,19.3339467 L26,26.0006134 L36,26.0006134 L36,19.3339467 Z M30,23.3339467 L30,24.6672801 L27.3333333,24.6672801 L27.3333333,23.3339467 L30,23.3339467 Z M34.6666667,23.3339467 L34.6666667,24.6672801 L31.3333333,24.6672801 L31.3333333,23.3339467 L34.6666667,23.3339467 Z M34.6666667,16.6672801 L24,16.6672801 L24,23.3339467 L24.6666667,23.3339467 L24.6666667,18.6672801 C24.6666667,18.2990902 24.9651435,18.0006134 25.3333333,18.0006134 L25.3333333,18.0006134 L34.6666667,18.0006134 L34.6666667,16.6672801 Z M28.6666667,20.6672801 L28.6666667,22.0006134 L27.3333333,22.0006134 L27.3333333,20.6672801 L28.6666667,20.6672801 Z M34.6666667,20.6672801 L34.6666667,22.0006134 L30,22.0006134 L30,20.6672801 L34.6666667,20.6672801 Z M18.3113333,18.0006134 L5.68866667,18.0006134 L12,21.8846134 L18.3113333,18.0006134 Z M25.2333333,9.33394673 L24,9.33394673 L24,12.6672801 L24.7533333,12.6672801 L25.2333333,9.33394673 Z M16.6666667,3.33394673 L4.66666667,3.33394673 L4.66666667,12.6672801 L16.6666667,12.6672801 L16.6666667,3.33394673 Z M8.98264604,5.43332567 C9.17917051,5.31177114 9.42462559,5.30065452 9.63133333,5.40394673 L9.63133333,5.40394673 L13.6313333,7.40394673 C13.8576097,7.51672239 14.0006226,7.74779067 14.0006226,8.0006134 C14.0006226,8.25343613 13.8576097,8.48450441 13.6313333,8.59728007 L13.6313333,8.59728007 L9.63133333,10.5972801 C9.42463894,10.7005783 9.179194,10.6894791 8.98266667,10.5679467 C8.78612048,10.4463887 8.66654757,10.2317124 8.66666658,10.0006134 L8.66666658,10.0006134 L8.66666658,6.0006134 C8.66655896,5.76953471 8.78612156,5.5548802 8.98264604,5.43332567 Z M35.3333333,1.56728007 L28,3.82728007 L28,8.17394673 L35.3333333,10.4339467 L35.3333333,1.56728007 Z M10,7.07928007 L10,8.92194673 L11.8426667,8.0006134 L10,7.07928007 Z M26.6666667,4.0006134 L23.3333333,4.0006134 L23.3333333,8.0006134 L26.6666667,8.0006134 L26.6666667,4.0006134 Z M37.3333333,5.33394673 L36.6666667,5.33394673 L36.6666667,6.66728007 L37.3333333,6.66728007 C37.7015232,6.66728007 38,6.36880323 38,6.0006134 C38,5.63242357 37.7015232,5.33394673 37.3333333,5.33394673 L37.3333333,5.33394673 Z M22,5.33394673 L21.3333333,5.33394673 L21.3333333,6.66728007 L22,6.66728007 L22,5.33394673 Z" id="Combined-Shape" fill="#000000" fill-rule="nonzero"></path>
    </g>
</svg>