<?xml version="1.0" encoding="UTF-8"?>
<svg width="40px" height="40px" viewBox="0 0 40 40" version="1.1" xmlns="http://www.w3.org/2000/svg" xmlns:xlink="http://www.w3.org/1999/xlink">
    <title>Growth Consultancy@1x</title>
    <g id="Growth-Consultancy" stroke="none" stroke-width="1" fill="none" fill-rule="evenodd">
        <path d="M19.5,37.3912873 C19.9864619,37.3912873 20.3809524,37.7806812 20.3809524,38.2608582 L20.3809524,38.2608582 L20.3809524,39.1304291 C20.3809524,39.6106931 19.9864619,40 19.5,40 C19.01345,40 18.6190476,39.6106931 18.6190476,39.1304291 L18.6190476,39.1304291 L18.6190476,38.2608582 C18.6190476,37.7806812 19.01345,37.3912873 19.5,37.3912873 Z M16.8571429,35.6521456 C17.3436929,35.6521456 17.7380952,36.0415394 17.7380952,36.5217164 L17.7380952,36.5217164 L17.7380952,37.3912873 C17.7380952,37.8715513 17.3436929,38.2608582 16.8571429,38.2608582 C16.3705929,38.2608582 15.9761905,37.8715513 15.9761905,37.3912873 L15.9761905,37.3912873 L15.9761905,36.5217164 C15.9761905,36.0415394 16.3705929,35.6521456 16.8571429,35.6521456 Z M22.1428571,35.6521456 C22.629319,35.6521456 23.0238095,36.0415394 23.0238095,36.5217164 L23.0238095,36.5217164 L23.0238095,37.3912873 C23.0238095,37.8715513 22.629319,38.2608582 22.1428571,38.2608582 C21.6563071,38.2608582 21.2619048,37.8715513 21.2619048,37.3912873 L21.2619048,37.3912873 L21.2619048,36.5217164 C21.2619048,36.0415394 21.6563071,35.6521456 22.1428571,35.6521456 Z M18.8194643,0.317219463 C19.171581,-0.10565286 19.828419,-0.105826774 20.1806238,0.317219463 C20.2863381,0.444176813 22.7949381,3.4800227 24.8450905,7.9641389 L24.8450905,7.9641389 C26.5595119,11.7143373 27.4285714,15.3243608 27.4285714,18.6955132 C27.4285714,18.8403837 27.4268976,18.9844716 27.4254,19.1286465 C29.6424048,20.7691789 30.952381,23.3351087 30.952381,26.0868658 L30.952381,26.0868658 L30.952381,34.7825747 C30.952381,35.3051868 30.4886476,35.7076242 29.9680929,35.6461455 L29.9680929,35.6461455 L22.5598119,34.7825747 L16.4400119,34.7825747 C9.64051242,35.5733223 9.05423392,35.6469886 8.95970556,35.6522287 L8.92848333,35.6521456 C8.44237381,35.6521456 8.04761905,35.2629256 8.04761905,34.7825747 L8.04761905,34.7825747 L8.04761905,26.0868658 C8.04761905,23.3351087 9.35759524,20.769092 11.5746,19.1286465 C11.5731905,18.9843847 11.5714286,18.8403837 11.5714286,18.6955132 C11.5714286,13.1160855 14.0038262,8.3947504 14.1551738,7.96379107 C16.2052381,3.47993574 18.7136619,0.444176813 18.8194643,0.317219463 Z M11.6590833,21.3893569 C10.4813381,22.6577999 9.80952381,24.3248543 9.80952381,26.0868658 L9.80952381,26.0868658 L9.80952381,33.8043074 L14.8155357,33.2208254 C13.1062238,30.4540247 11.9706762,26.1901708 11.6590833,21.3893569 Z M27.3409167,21.3892699 C27.0294119,26.1901708 25.8937762,30.4541117 24.1843762,33.2207384 L24.1843762,33.2207384 L29.1904762,33.8043074 L29.1904762,26.0868658 C29.1904762,24.3248543 28.5186619,22.6578869 27.3409167,21.3892699 Z M23.6128143,9.53188825 C20.9718071,10.7532875 17.9476738,10.7159829 15.3870976,9.53188825 C14.0250571,12.746257 13.3334214,15.8252336 13.3334214,18.6955132 C13.3334214,24.6812044 14.6913214,30.2381972 16.8154738,33.0434329 L16.8154738,33.0434329 L22.1845262,33.0434329 C24.3087667,30.2382842 25.6666667,24.6812044 25.6666667,18.6955132 C25.6666667,15.8252336 24.9748548,12.746257 23.6128143,9.53188825 Z M35.3571429,26.0868658 C36.8144143,26.0868658 38,27.2571343 38,28.6955785 C38,30.1340226 36.8144143,31.3042911 35.3571429,31.3042911 C33.8998714,31.3042911 32.7142857,30.1340226 32.7142857,28.6955785 C32.7142857,27.2571343 33.8998714,26.0868658 35.3571429,26.0868658 Z M35.3571429,27.8260076 C34.8713857,27.8260076 34.4761905,28.2160971 34.4761905,28.6955785 C34.4761905,29.1750598 34.8713857,29.5651493 35.3571429,29.5651493 C35.8429,29.5651493 36.2380952,29.1750598 36.2380952,28.6955785 C36.2380952,28.2160971 35.8429,27.8260076 35.3571429,27.8260076 Z M19.5,12.1737316 C21.9287857,12.1737316 23.9047619,14.1241791 23.9047619,16.521586 C23.9047619,18.918993 21.9287857,20.8694405 19.5,20.8694405 C17.0712143,20.8694405 15.0952381,18.918993 15.0952381,16.521586 C15.0952381,14.1241791 17.0712143,12.1737316 19.5,12.1737316 Z M19.5,13.9128733 C18.0427286,13.9128733 16.8571429,15.0831418 16.8571429,16.521586 C16.8571429,17.9600302 18.0427286,19.1302987 19.5,19.1302987 C20.9572714,19.1302987 22.1428571,17.9600302 22.1428571,16.521586 C22.1428571,15.0831418 20.9572714,13.9128733 19.5,13.9128733 Z M3.64285714,7.82587713 C5.10012857,7.82587713 6.28571429,8.99614563 6.28571429,10.4345898 C6.28571429,11.873034 5.10012857,13.0433025 3.64285714,13.0433025 C2.18558571,13.0433025 1,11.873034 1,10.4345898 C1,8.99614563 2.18558571,7.82587713 3.64285714,7.82587713 Z M3.64285714,9.5650189 C3.1571,9.5650189 2.76190476,9.95510841 2.76190476,10.4345898 C2.76190476,10.9140712 3.1571,11.3041607 3.64285714,11.3041607 C4.12861429,11.3041607 4.52380952,10.9140712 4.52380952,10.4345898 C4.52380952,9.95510841 4.12861429,9.5650189 3.64285714,9.5650189 Z M19.5003524,2.30949333 C18.7064381,3.3941091 17.3443095,5.40247002 16.1075405,7.94483443 C18.2740667,8.95658015 20.7757952,8.93336261 22.8923714,7.94474747 C21.6535762,5.39716564 20.2935619,3.39236995 19.5003524,2.30949333 Z" id="Combined-Shape" fill="#000000" fill-rule="nonzero"></path>
    </g>
</svg>