<?xml version="1.0" encoding="UTF-8"?>
<svg width="40px" height="40px" viewBox="0 0 40 40" version="1.1" xmlns="http://www.w3.org/2000/svg" xmlns:xlink="http://www.w3.org/1999/xlink">
    <title>Marketing Strategy@1x</title>
    <g id="Marketing-Strategy" stroke="none" stroke-width="1" fill="none" fill-rule="evenodd">
        <path d="M21.5783567,1.84567096 C22.4133176,1.85695865 23.1613035,2.31975308 23.5787839,3.08408966 L23.5787839,3.08408966 L26.4611692,8.36026934 L29.4668454,8.16966894 C29.76134,8.15128618 30.042407,8.30995858 30.1904172,8.58086267 L30.1904172,8.58086267 L31.7529172,11.4408359 C31.9009274,11.7117399 31.8911618,12.0474675 31.728198,12.3086965 L31.728198,12.3086965 L30.0689572,14.964524 L32.6653928,19.7169558 C33.542468,21.3214175 32.5021238,23.3283654 30.7656735,23.4280194 C16.7193478,26.3399158 15.9228391,26.5050383 15.8016843,26.5298712 L15.8016843,26.5298712 L16.8176145,28.3894343 C17.0333738,28.7841802 16.9051999,29.2889003 16.5316648,29.5172338 L16.5316648,29.5172338 L14.5019407,30.7556525 L16.8456907,35.0462573 C17.7102536,36.6268536 17.1966428,38.6447667 15.702197,39.5574554 C14.1918821,40.4801419 12.2820921,39.9041482 11.433093,38.3483847 L11.433093,38.3483847 L7.49876682,31.1465284 C5.02623268,32.1927342 2.11424534,31.1981292 0.733019713,28.669691 C-0.778821068,25.9045343 0.125109557,22.3666558 2.73466768,20.7750942 L2.73466768,20.7750942 L9.3694944,16.7270131 L19.5751828,2.98766068 C20.0091428,2.27008737 20.7415647,1.84567096 21.5484494,1.84567096 L21.5484494,1.84567096 Z M11.5862913,28.7209693 L8.87999237,30.3721942 L12.7862424,37.5230947 C13.2128782,38.304524 14.1692991,38.5863933 14.9203367,38.1274688 C15.6689328,37.6704795 15.9243649,36.6610392 15.4928464,35.8721923 C15.4821938,35.8527517 15.4878805,35.8632115 15.4910799,35.8691082 L15.489,35.865 L15.488,35.864 C15.5072237,35.8988979 15.6214553,36.1079289 11.7643629,29.0469554 L11.5862913,28.7209693 Z M9.60509003,18.4898248 L3.51591768,22.2050809 C2.31077854,22.940392 1.56187721,24.3116827 1.56187721,25.78424 C1.56187721,26.5047158 1.74315159,27.2168066 2.08616917,27.8440785 C3.16313448,29.8152283 5.55662815,30.4931336 7.42216768,29.3553364 L7.42216768,29.3553364 L13.51134,25.6397578 L9.60509003,18.4898248 Z M14.29259,27.0697443 L12.9394407,27.8953568 L13.7206907,29.3253434 L15.07384,28.4997309 L14.29259,27.0697443 Z M7.21281713,25.6694282 C7.58635229,25.4414173 8.06425753,25.5768693 8.28001682,25.9716153 C8.49577612,26.3666837 8.36760229,26.8714038 7.99406713,27.0994148 L7.99406713,27.0994148 L6.64091768,27.9250273 C5.5166501,28.6106726 4.08232393,28.1956089 3.43931862,27.018466 C3.22355932,26.6237201 3.35173315,26.1186775 3.72526831,25.8906665 C4.09880346,25.6626556 4.5767087,25.7981076 4.79246799,26.1928536 L4.85160462,26.2859362 C5.08699014,26.6070596 5.51781998,26.7037551 5.85966768,26.4950406 L5.85966768,26.4950406 Z M9.91911596,24.0182032 C10.2926511,23.7905148 10.7705564,23.9259669 10.9863157,24.3203903 C11.2017697,24.7151363 11.0739011,25.2205014 10.700366,25.4481899 C10.3268308,25.6762008 9.84862034,25.5407488 9.63316628,25.1460028 C9.41740698,24.7515793 9.54558081,24.2462142 9.91911596,24.0182032 Z M19.5745725,5.66251612 L10.8315915,17.4326539 L14.9758786,25.0182909 L28.6056394,22.1931482 L19.5745725,5.66251612 Z M21.5591306,3.4968959 C21.4242429,3.49302584 21.0916013,3.5304364 20.8819455,3.89293188 C20.8419675,3.96227044 20.8160275,3.9887158 20.6143064,4.2628449 L20.6143064,4.2628449 L30.226428,21.8570981 C30.4992551,21.8032399 30.5483884,21.782922 30.6548947,21.780342 C31.2484617,21.7648618 31.6082639,21.084054 31.3122434,20.5425683 L31.3122434,20.5425683 L22.2253293,3.90937956 C22.0248289,3.54236906 21.6924924,3.4985084 21.5591306,3.4968959 Z M34.4067258,11.8916976 C34.5184202,11.451156 34.9468869,11.189927 35.3637571,11.3079638 L35.3637571,11.3079638 L38.3822507,12.1626017 C38.7991208,12.2803161 39.0466184,12.7331128 38.9349241,13.1736545 C38.82384,13.6109711 38.3975095,13.8763926 37.978198,13.7573883 L37.978198,13.7573883 L34.9593992,12.9027504 C34.542529,12.7847136 34.2950314,12.3322393 34.4067258,11.8916976 Z M29.0786618,9.84830677 L27.3345822,9.95892596 L29.1955442,13.3655449 L30.1583738,11.8246166 L29.0786618,9.84830677 Z M38.8387937,3.61170763 C39.2156858,3.38982428 39.6914548,3.53301644 39.9011106,3.93163246 C40.1110715,4.32992591 39.9755735,4.83271103 39.5983762,5.05459438 L39.5983762,5.05459438 L35.2453489,7.61463808 C34.8675413,7.83684391 34.3920774,7.69268421 34.1827267,7.29471325 C33.9727658,6.89641971 34.1085691,6.3936346 34.4854611,6.17175125 L34.4854611,6.17175125 Z M30.7968015,0.612089771 C30.9084958,0.171548159 31.3369626,-0.0896808266 31.7535275,0.0283559971 C32.1703977,0.146392821 32.41759,0.599189576 32.3058957,1.03973127 L32.3058957,1.03973127 L31.4965696,4.22994944 C31.38457,4.67081362 30.9561032,4.93139756 30.5395383,4.8136833 C30.1226682,4.69532399 29.8754758,4.24284964 29.9871702,3.80230803 L29.9871702,3.80230803 Z" id="Combined-Shape" fill="#000000" fill-rule="nonzero"></path>
    </g>
</svg>