<?xml version="1.0" encoding="UTF-8"?>
<svg width="40px" height="40px" viewBox="0 0 40 40" version="1.1" xmlns="http://www.w3.org/2000/svg" xmlns:xlink="http://www.w3.org/1999/xlink">
    <title>Salesforce Integration@1x</title>
    <g id="Salesforce-Integration" stroke="none" stroke-width="1" fill="none" fill-rule="evenodd">
        <path d="M17.2361204,1 C18.5703681,1 19.655431,2.11769308 19.655431,3.49202367 C19.655431,4.54369952 19.0096295,5.46777495 18.0552447,5.8252634 L18.0552447,5.8252634 L17.9811916,5.85 L17.9811916,10.922 L18.1583235,10.7446391 C19.1656069,9.77964798 20.4363667,9.19980628 21.8451192,9.07624616 L21.8451192,9.07624616 L22.1286724,9.05763896 L22.4157545,9.05141306 C22.6871719,9.05141306 22.9668832,9.072798 23.2680162,9.1142968 L23.2680162,9.1142968 L23.4035052,9.135 L23.4035052,7.065 L23.3307294,7.04178875 C22.4333294,6.71047979 21.7990958,5.86671247 21.7313951,4.88131757 L21.7313951,4.88131757 L21.7253907,4.70602964 C21.7253907,3.39555352 22.7158114,2.30836437 23.9829349,2.21986847 L23.9829349,2.21986847 L24.14408,2.21432596 C25.4777571,2.21432596 26.5627693,3.33207119 26.5627693,4.70602964 C26.5627693,5.75795334 25.9169049,6.68219813 24.9625085,7.03966352 L24.9625085,7.03966352 L24.8886716,7.064 L24.8886716,9.528 L25.0559144,9.59512454 C27.3347963,10.5502272 28.8178626,12.5621038 29.0005753,15.0101281 L29.0005753,15.0101281 L29.0151528,15.2740571 L29.017046,15.332 L31.637928,13.848 L31.637928,8.12 L31.5647627,8.09623572 C30.6682185,7.7643494 30.0348484,6.92107851 29.9672411,5.93636352 L29.9672411,5.93636352 L29.9612449,5.76119731 C29.9612449,4.45044186 30.9515829,3.36321423 32.2187823,3.27471617 L32.2187823,3.27471617 L32.3799343,3.26917364 C33.714182,3.26917364 34.7992448,4.38686672 34.7992448,5.76119731 C34.7992448,6.8140554 34.1522877,7.73896485 33.196658,8.09570239 L33.196658,8.09570239 L33.1230944,8.12 L33.1224796,14.3007086 C33.1224796,14.5045046 33.0437923,14.6978313 32.9019903,14.8433782 L32.9019903,14.8433782 L32.8259019,14.9119972 L32.7374227,14.9711817 L30.3012782,16.351 L30.4700363,16.4215895 C31.8390416,17.0242946 32.7238507,18.1282274 33.0141628,19.6091487 L33.0141628,19.6091487 L33.0532371,19.8340988 L33.0706768,19.96 L36.8369812,19.96 L36.8369812,17.918 L36.7643933,17.8940508 C35.8686778,17.5617107 35.2361283,16.7188394 35.1686096,15.7347563 L35.1686096,15.7347563 L35.1626213,15.5597038 C35.1626213,14.2489484 36.1529593,13.1617208 37.4201586,13.0732227 L37.4201586,13.0732227 L37.5813107,13.0676802 C38.9150276,13.0676802 40,14.1855304 40,15.5597678 C40,16.6132002 39.3524018,17.5384536 38.3960383,17.8948116 L38.3960383,17.8948116 L38.3221477,17.919 L38.321806,20.7254049 C38.321806,21.071264 38.0978311,21.3680148 37.7785171,21.4613479 L37.7785171,21.4613479 L37.6799914,21.483091 L37.5792607,21.4903658 L33.0561163,21.49 L33.0322561,21.6396369 C32.8725333,22.4907511 32.4923784,23.2754404 31.9348622,23.9203979 L31.9348622,23.9203979 L31.7623296,24.10962 L31.6748145,24.196 L35.469083,28.468708 C35.5440232,28.5530868 35.5992716,28.6530864 35.6318889,28.7650604 L35.6318889,28.7650604 L35.6568536,28.8808907 L35.6640909,28.9852532 L35.6643792,31.746 L35.7367477,31.7707052 C36.6338646,32.1022213 37.2678066,32.9458294 37.3354757,33.9309775 L37.3354757,33.9309775 L37.3414773,34.1062209 C37.3414773,35.4169764 36.3511393,36.504204 35.08394,36.5927021 L35.08394,36.5927021 L34.922788,36.5982446 C33.5885403,36.5982446 32.5034774,35.4805515 32.5034774,34.1062209 C32.5034774,33.0537791 33.1498252,32.1292977 34.1049149,31.7721872 L34.1049149,31.7721872 L34.1801835,31.747 L34.2108806,29.3183876 L30.4410586,25.072 L30.2802869,25.1494013 C29.8698162,25.3312585 29.4376285,25.4520165 28.991797,25.5066276 L28.991797,25.5066276 L28.7227254,25.5314162 L28.4486802,25.5398469 L28.0541146,25.539 L28.0531721,28.7037344 C28.0531721,28.8248466 28.0252225,28.9435142 27.9700267,29.0535518 L27.9700267,29.0535518 L27.905775,29.1604835 L27.8356148,29.2445797 L24.8876814,32.2294074 L24.8877009,34.637 L24.9602703,34.6613865 C25.8562659,34.9935733 26.4891041,35.8366003 26.5566541,36.8208777 L26.5566541,36.8208777 L26.5626451,36.9959647 C26.5626451,38.3064409 25.5722243,39.39363 24.3051008,39.4821259 L24.3051008,39.4821259 L24.1439558,39.4876684 C22.8102786,39.4876684 21.7252664,38.3699232 21.7252664,36.9959647 C21.7252664,35.9427985 22.3725601,35.0176979 23.3284733,34.6611539 L23.3284733,34.6611539 L23.4035052,34.636 L23.4026528,31.9643995 C23.4026528,31.8432873 23.4306025,31.7246197 23.4857982,31.6145821 L23.4857982,31.6145821 L23.5500499,31.5076504 L23.6202101,31.4235542 L26.5681435,28.4387265 L26.5689482,25.539 L20.1206078,25.539 L20.1206078,28.757 L20.1927794,28.7819347 C21.0904324,29.1130956 21.7249257,29.9569879 21.7926545,30.9425966 L21.7926545,30.9425966 L21.7986614,31.1179232 C21.7986614,32.4283993 20.8082407,33.5155884 19.5411171,33.6040843 L19.5411171,33.6040843 L19.3799721,33.6096269 C18.046295,33.6096269 16.9612827,32.4918816 16.9612827,31.1179232 C16.9612827,30.0662105 17.6068972,29.1420881 18.5609581,28.7845087 L18.5609581,28.7845087 L18.6354414,28.759 L18.6354414,25.539 L12.3870647,25.539 L12.352658,28.3496036 L15.3421088,31.4227075 C15.4534746,31.536887 15.5264911,31.6844203 15.5522957,31.8536618 L15.5522957,31.8536618 L15.5604264,31.9643995 L15.5612439,34.638 L15.6329851,34.6622268 C16.5282296,34.9949536 17.1601555,35.8374179 17.2276064,36.8210013 L17.2276064,36.8210013 L17.2335886,36.9959647 C17.2335886,38.3065384 16.2430732,39.3936388 14.9754956,39.482126 L14.9754956,39.482126 L14.8142781,39.4876684 C13.4806009,39.4876684 12.3955887,38.3699232 12.3955887,36.9959647 C12.3955887,35.9418635 13.0440269,35.0160601 14.0011358,34.6602203 L14.0011358,34.6602203 L14.0770482,34.635 L14.1110286,32.3184663 L11.1215778,29.2453625 C11.010212,29.1311829 10.9371955,28.9836497 10.9113909,28.8144081 L10.9113909,28.8144081 L10.9032602,28.7036704 L10.9038396,25.488 L10.7423384,25.4645933 C10.4757127,25.4161138 10.2141991,25.3434091 9.95909569,25.2472588 L9.95909569,25.2472588 L9.70617716,25.1433221 L9.55262938,25.069 L5.81708617,29.2335581 L5.81738725,31.748 L5.88964484,31.772291 C6.78488934,32.1050179 7.41681528,32.9474821 7.48426618,33.9310655 L7.48426618,33.9310655 L7.49024838,34.106029 C7.49024838,35.4168619 6.4997784,36.5040193 5.23215541,36.5925102 L5.23215541,36.5925102 L5.07093782,36.5980526 C3.73721006,36.5980526 2.65224847,35.4802552 2.65224847,34.106029 C2.65224847,33.0519278 3.30068661,32.1261243 4.2577956,31.7702845 L4.2577956,31.7702845 L4.3322208,31.745 L4.33205761,28.9851252 C4.33205761,28.8711464 4.35686678,28.7591326 4.40613111,28.6539457 L4.40613111,28.6539457 L4.46353403,28.5512144 L4.52638039,28.469292 L8.32081486,24.191 L8.22747452,24.0991705 C7.64335004,23.4887625 7.22585493,22.729559 7.02224132,21.8931514 L7.02224132,21.8931514 L6.96762094,21.6399846 L6.94339579,21.49 L2.41688784,21.4903018 C2.08104621,21.4903018 1.79306064,21.2594789 1.70249465,20.9305327 L1.70249465,20.9305327 L1.68139701,20.8290378 L1.6743425,20.7253409 L1.67445236,17.917 L1.60175913,17.8939793 C0.705993772,17.5616084 0.0735000514,16.718823 0.00598767926,15.7348084 L0.00598767926,15.7348084 L0,15.5597678 C0,14.248893 0.990449892,13.1617183 2.25808722,13.0731665 L2.25808722,13.0731665 L2.41931056,13.0676162 C3.75303831,13.0676162 4.8379999,14.1854136 4.8379999,15.5596398 C4.8379999,16.6132899 4.19014422,17.5387624 3.23365064,17.8949233 L3.23365064,17.8949233 L3.1596188,17.919 L3.1596188,19.96 L6.92980603,19.96 L6.94490145,19.8388747 C7.21731499,17.9985691 8.3577136,16.7070916 10.1701522,16.1779243 L10.1701522,16.1779243 L10.4146083,16.112 L8.00337085,13.6335889 C7.91430062,13.5420247 7.84980217,13.4294082 7.81436109,13.3014655 L7.81436109,13.3014655 L7.79329862,13.2027243 L7.78516771,13.0920143 L7.7859608,8.737 L7.71260904,8.7127536 C6.81736454,8.38002674 6.1854386,7.53756251 6.1179877,6.55397906 L6.1179877,6.55397906 L6.1120055,6.37901563 C6.1120055,5.06818268 7.10247548,3.98102531 8.37009847,3.89253444 L8.37009847,3.89253444 L8.53131606,3.88699196 C9.86504382,3.88699196 10.9500054,5.00478936 10.9500054,6.37901563 C10.9500054,7.43311683 10.3015673,8.35892026 9.34445828,8.71476011 L9.34445828,8.71476011 L9.27015655,8.739 L9.23457443,12.7379567 L11.0290596,14.582 L11.0561197,14.4446268 C11.4284383,12.8158168 12.8619158,11.582623 14.5097218,11.4159353 L14.5097218,11.4159353 L14.7007562,11.4014733 L14.8657524,11.3969941 C15.4428586,11.3945229 16.0058919,11.529608 16.5233495,11.8039031 L16.5233495,11.8039031 L16.4960252,11.789 L16.4960252,5.851 L16.4233196,5.82769448 C15.5256992,5.49654827 14.8911711,4.65269839 14.8234384,3.66730954 L14.8234384,3.66730954 L14.8174311,3.49202367 C14.8174311,2.18126822 15.807769,1.0940406 17.0749684,1.00554253 L17.0749684,1.00554253 Z M14.8144023,35.9888582 C14.2326408,35.9888582 13.7594665,36.4766364 13.7594665,37.0759599 C13.7594665,37.6752833 14.2326408,38.1627416 14.8144023,38.1627416 C15.3961638,38.1627416 15.8699593,37.6752833 15.8699593,37.0759599 C15.8699593,36.4765724 15.3961638,35.9888582 14.8144023,35.9888582 Z M24.1440179,35.9888582 C23.5622564,35.9888582 23.0890821,36.4766364 23.0890821,37.0759599 C23.0890821,37.6752833 23.5622564,38.1627416 24.1440179,38.1627416 C24.7257794,38.1627416 25.1989537,37.6752833 25.1989537,37.0759599 C25.1989537,36.4765724 24.7257794,35.9888582 24.1440179,35.9888582 Z M5.07099994,33.0989864 C4.48923845,33.0989864 4.01606415,33.5867646 4.01606415,34.1860881 C4.01606415,34.7854115 4.48923845,35.2731898 5.07099994,35.2731898 C5.65276143,35.2731898 6.12655694,34.7854115 6.12655694,34.1860881 C6.12655694,33.5867646 5.65276143,33.0989864 5.07099994,33.0989864 Z M34.9229743,33.0989864 C34.3412128,33.0989864 33.8674173,33.5867646 33.8674173,34.1860881 C33.8674173,34.7854115 34.3412128,35.2731898 34.9229743,35.2731898 C35.5047358,35.2731898 35.9779101,34.7854115 35.9779101,34.1860881 C35.9779101,33.5867646 35.5047358,33.0989864 34.9229743,33.0989864 Z M19.3800342,30.1107526 C18.7982727,30.1107526 18.3250984,30.5985308 18.3250984,31.1978543 C18.3250984,31.7971777 18.7982727,32.284636 19.3800342,32.284636 C19.9617957,32.284636 20.43497,31.7971777 20.43497,31.1978543 C20.43497,30.5985308 19.9617957,30.1107526 19.3800342,30.1107526 Z M22.465318,10.3958129 C20.3354279,10.3958129 18.6249097,11.5847986 17.7687948,13.6571147 C17.5940723,14.1096542 16.9691668,14.2139558 16.672278,13.806089 C14.917889,11.3964418 11.1501339,13.6573759 12.4233386,16.4663342 C12.4253673,16.4707753 12.4246699,16.4758696 12.4265718,16.4803107 C12.5967931,16.8747888 12.379024,17.3803608 11.7937416,17.3994316 C10.3782738,17.4424715 8.00588955,17.9511784 8.0003106,20.8657445 L8.0003106,20.8657445 L8.00227592,20.8758024 C8.00227592,20.8788067 8.00069099,20.8812232 8.00062759,20.8841622 C8.00525558,22.7989483 9.51822822,24.3553733 11.3776662,24.3553733 L11.3776662,24.3553733 L28.6223844,24.3553733 C30.4846753,24.3553733 32.0003106,22.7943112 32.0003106,20.8755411 C32.0003106,18.0433975 29.7368427,17.4827684 28.3871811,17.4004766 C27.9041583,17.3704335 27.66737,16.9925444 27.7284214,16.6306565 C28.3447684,12.977685 25.6276939,10.3958129 22.465318,10.3958129 Z M2.41931056,14.5526612 C1.83754906,14.5526612 1.36375356,15.0404395 1.36375356,15.639763 C1.36375356,16.2367186 1.8340703,16.7223209 2.41266363,16.7260967 C2.41415453,16.7260967 2.41539694,16.7252648 2.41688784,16.7252648 L2.41979976,16.7258807 C3.00281143,16.7245608 3.47424635,16.2378705 3.47424635,15.639763 C3.47424635,15.0404395 3.00107205,14.5526612 2.41931056,14.5526612 Z M37.5813107,14.5526612 C36.9995492,14.5526612 36.5263749,15.0404395 36.5263749,15.639763 C36.5263749,16.2369105 36.9962568,16.7226409 37.5750986,16.7262247 C37.5766516,16.7262247 37.5779561,16.7253288 37.5795091,16.7253288 L37.5823046,16.7259047 C38.1651221,16.7243048 38.6362464,16.2377425 38.6362464,15.639763 C38.6362464,15.0403755 38.1630721,14.5526612 37.5813107,14.5526612 Z M8.53131606,5.37197304 C7.94955457,5.37197304 7.47575906,5.8597513 7.47575906,6.45907475 C7.47575906,7.05475043 7.94402581,7.53913689 8.52087976,7.54508853 C8.52324035,7.54502454 8.52522822,7.54368062 8.52765093,7.54368062 C8.53094333,7.54368062 8.53361453,7.5455365 8.53684481,7.5456005 C9.11605935,7.5424007 9.58625185,7.05647832 9.58625185,6.45907475 C9.58625185,5.8597513 9.11307755,5.37197304 8.53131606,5.37197304 Z M32.3798721,4.75415471 C31.7981107,4.75415471 31.3249364,5.24193297 31.3249364,5.84125642 C31.3249364,6.43782805 31.7938243,6.92298246 32.3718586,6.92752619 L32.3718586,6.92752619 L32.3798721,6.92586229 C32.96592,6.92298246 33.4354291,6.43776405 33.4354291,5.84125642 C33.4354291,5.24193297 32.9616336,4.75415471 32.3798721,4.75415471 Z M24.1440179,3.69924303 C23.5622564,3.69924303 23.0890821,4.18670131 23.0890821,4.78602477 C23.0890821,5.38368432 23.5597094,5.86992668 24.1392346,5.87261451 C24.1415952,5.87261451 24.1434588,5.87127059 24.1458194,5.87127059 L24.1485216,5.87184656 C24.7295687,5.86826278 25.1989537,5.38285237 25.1989537,4.78602477 C25.1989537,4.18670131 24.7257794,3.69924303 24.1440179,3.69924303 Z M17.2360583,2.48491708 C16.6542968,2.48491708 16.1811225,2.97269534 16.1811225,3.57201879 C16.1811225,4.16948636 16.6515014,4.65515275 17.2307159,4.65828856 L17.2307159,4.65828856 C17.2407174,4.65662466 17.242581,4.65784058 17.2447552,4.65790458 C17.8224167,4.65304088 18.2916774,4.16833443 18.2916774,3.57201879 C18.2916774,2.97269534 17.8178198,2.48491708 17.2360583,2.48491708 Z" id="Shape" fill="#000000" fill-rule="nonzero"></path>
    </g>
</svg>