<?xml version="1.0" encoding="UTF-8"?>
<svg width="40px" height="40px" viewBox="0 0 40 40" version="1.1" xmlns="http://www.w3.org/2000/svg" xmlns:xlink="http://www.w3.org/1999/xlink">
    <title>Software Development@1x</title>
    <g id="Software-Development" stroke="none" stroke-width="1" fill="none" fill-rule="evenodd">
        <path d="M35.8333333,1 C38.1333333,1.00277604 39.9972917,2.91333333 40,5.27083333 L40,5.27083333 L40,28.3333333 C39.9972917,30.6908333 38.1333333,32.6013906 35.8333333,32.6041667 L35.8333333,32.6041667 L24.4383333,32.6041667 L25.6283333,36.875 L28.3333333,36.875 L28.3333333,38.5833333 L11.6666667,38.5833333 L11.6666667,36.875 L14.3716667,36.875 L15.5616667,32.6041667 L4.16666667,32.6041667 C1.86666667,32.6013906 0.00270833333,30.6908333 0,28.3333333 L0,28.3333333 L0,5.27083333 C0.00270833333,2.91333333 1.86666667,1.00277604 4.16666667,1 L4.16666667,1 Z M22.705,32.6041667 L17.295,32.6041667 L16.105,36.875 L23.895,36.875 L22.705,32.6041667 Z M38.3333333,26.625 L1.66666667,26.625 L1.66666667,28.3333333 C1.66666667,29.7485807 2.7859375,30.8958333 4.16666667,30.8958333 L4.16666667,30.8958333 L35.8333333,30.8958333 C37.2140625,30.8958333 38.3333333,29.7485807 38.3333333,28.3333333 L38.3333333,28.3333333 L38.3333333,26.625 Z M35.8333333,2.70833333 L4.16666667,2.70833333 C2.7859375,2.70833333 1.66666667,3.85558594 1.66666667,5.27083333 L1.66666667,5.27083333 L1.66666667,24.9166667 L38.3333333,24.9166667 L38.3333333,5.27083333 C38.3333333,3.85558594 37.2140625,2.70833333 35.8333333,2.70833333 L35.8333333,2.70833333 Z M20.8617788,8.47058278 L22.4634111,8.94033968 L19.1269639,20.8918185 L17.5253316,20.4220616 L20.8617788,8.47058278 Z M14.4666667,9.73983333 L15.5333333,11.0518333 L11.3016667,14.6666667 L15.5333333,18.2815 L14.4666667,19.5935 L9.46666667,15.3226667 C9.428125,15.2897813 9.39260417,15.2532656 9.36041667,15.2137604 C9.065625,14.8513802 9.11322917,14.3128281 9.46666667,14.0106667 L9.46666667,14.0106667 L14.4666667,9.73983333 Z M25.5333333,9.73983333 L30.5333333,14.0106667 C30.571875,14.0435521 30.6073958,14.0800677 30.6395833,14.1195729 C30.934375,14.4819531 30.8867708,15.0205052 30.5333333,15.3226667 L30.5333333,15.3226667 L25.5333333,19.5935 L24.4666667,18.2815 L28.6983333,14.6666667 L24.4666667,11.0518333 L25.5333333,9.73983333 Z" id="Combined-Shape" fill="#000000" fill-rule="nonzero"></path>
    </g>
</svg>