<?xml version="1.0" encoding="UTF-8"?>
<svg width="40px" height="40px" viewBox="0 0 40 40" version="1.1" xmlns="http://www.w3.org/2000/svg" xmlns:xlink="http://www.w3.org/1999/xlink">
    <title>Technical Consultancy@1x</title>
    <g id="Technical-Consultancy" stroke="none" stroke-width="1" fill="none" fill-rule="evenodd">
        <path d="M16.9380952,0 C17.4189491,0 17.8243887,0.358407567 17.8833333,0.835634921 L17.8833333,0.835634921 L18.1319048,2.84833333 L19.6534127,3.4784127 L21.2524603,2.23190476 C21.631595,1.93624908 22.1716367,1.96954001 22.5115873,2.30952381 L22.5115873,2.30952381 L26.2623016,6.05984127 C26.6022854,6.3997919 26.6355763,6.93983354 26.3399206,7.31896825 L26.3399206,7.31896825 L25.0930159,8.91801587 L25.7230952,10.4395238 L27.7357937,10.6880952 C28.213021,10.7470399 28.5714487,11.1524795 28.5714286,11.6333333 L28.5714286,11.6333333 L28.5714286,14.0652381 C35.0024603,14.8506349 40,20.3444444 40,26.984127 C40,34.1611111 34.1611111,40 26.984127,40 C20.3444444,40 14.8509524,35.0024603 14.0652381,28.5714286 L14.0652381,28.5714286 L11.6333333,28.5714286 C11.1524795,28.5714487 10.7470399,28.213021 10.6880952,27.7357937 L10.6880952,27.7357937 L10.4395238,25.7230952 L8.91801587,25.0930159 L7.31896825,26.3399206 C6.93983354,26.6355763 6.3997919,26.6022854 6.05984127,26.2623016 L6.05984127,26.2623016 L2.30912698,22.5115873 C1.96914319,22.1716367 1.93585225,21.631595 2.23150794,21.2524603 L2.23150794,21.2524603 L3.4784127,19.6534127 L2.84833333,18.1319048 L0.835634921,17.8833333 C0.358407567,17.8243887 0,17.4189491 0,16.9380952 L0,16.9380952 L0,11.6333333 C0,11.1523457 0.358646946,10.7468559 0.836031746,10.6880952 L0.836031746,10.6880952 L2.84873016,10.4395238 L3.47880952,8.91801587 L2.23190476,7.31896825 C1.93624908,6.93983354 1.96954001,6.3997919 2.30952381,6.05984127 L2.30952381,6.05984127 L6.05984127,2.30912698 C6.3997919,1.96914319 6.93983354,1.93585225 7.31896825,2.23150794 L7.31896825,2.23150794 L8.91801587,3.4784127 L10.4395238,2.84833333 L10.6880952,0.835634921 C10.7470399,0.358407567 11.1524795,0 11.6333333,0 L11.6333333,0 Z M26.984127,15.8730159 C20.8571429,15.8730159 15.8730159,20.8571429 15.8730159,26.984127 C15.8730159,33.1111111 20.8571429,38.0952381 26.984127,38.0952381 C33.1111111,38.0952381 38.0952381,33.1111111 38.0952381,26.984127 C38.0952381,20.8571429 33.1111111,15.8730159 26.984127,15.8730159 Z M26.984127,17.7777778 C30.3153683,17.7777778 33.015873,20.4782825 33.015873,23.8095238 L33.015873,23.8095238 L33.015873,24.7619048 L34.6031746,24.7619048 C35.4794001,24.7629107 36.1894703,25.4729809 36.1904762,26.3492063 L36.1904762,26.3492063 L36.1904762,29.6825397 C36.1895578,30.4711372 35.5505022,31.1101927 34.7619048,31.1111111 L34.7619048,31.1111111 L32.0634921,31.1111111 C31.5375066,31.1111111 31.1111111,30.6847156 31.1111111,30.1587302 L31.1111111,30.1587302 L31.1111111,23.8095238 C31.1111111,21.5302534 29.2633974,19.6825397 26.984127,19.6825397 C24.7048566,19.6825397 22.8571429,21.5302534 22.8571429,23.8095238 L22.8571429,23.8095238 L22.8571429,31.4285714 C22.8577115,31.9543212 23.2837741,32.3803837 23.8095238,32.3809524 L23.8095238,32.3809524 L28.2539683,32.3809524 C28.7799537,32.3809524 29.2063492,32.8073479 29.2063492,33.3333333 C29.2063492,33.8593188 28.7799537,34.2857143 28.2539683,34.2857143 L28.2539683,34.2857143 L23.8095238,34.2857143 C22.2322926,34.2839647 20.9541305,33.0058026 20.952381,31.4285714 L20.952381,31.4285714 L20.952381,31.1111111 L19.2063492,31.1111111 C18.4177517,31.1101927 17.7786962,30.4711372 17.7777778,29.6825397 L17.7777778,29.6825397 L17.7777778,26.3492063 C17.7787837,25.4729809 18.4888539,24.7629107 19.3650794,24.7619048 L19.3650794,24.7619048 L20.952381,24.7619048 L20.952381,23.8095238 C20.952381,20.4782825 23.6528856,17.7777778 26.984127,17.7777778 Z M20.952381,26.6666667 L19.6825397,26.6666667 L19.6825397,29.2063492 L20.952381,29.2063492 L20.952381,26.6666667 Z M34.2857143,26.6666667 L33.015873,26.6666667 L33.015873,29.2063492 L34.2857143,29.2063492 L34.2857143,26.6666667 Z M16.0961111,1.9047619 L12.4753175,1.9047619 L12.2622222,3.63230159 C12.2201004,3.97268731 11.9982789,4.26416524 11.6814286,4.39547619 L11.6814286,4.39547619 L9.13460317,5.4502381 C8.81779972,5.58144254 8.45492174,5.53221409 8.18452381,5.32134921 L8.18452381,5.32134921 L6.81150794,4.25087302 L4.25119048,6.81119048 L5.32166667,8.18420635 C5.53253155,8.45460428 5.58176,8.81748226 5.45055556,9.13428571 L5.45055556,9.13428571 L4.39579365,11.6811111 C4.2644827,11.9979614 3.97300477,12.2197829 3.63261905,12.2619048 L3.63261905,12.2619048 L1.9047619,12.4753175 L1.9047619,16.0961111 L3.63230159,16.3092063 C3.97268731,16.3513282 4.26416524,16.5731497 4.39547619,16.89 L4.39547619,16.89 L5.4502381,19.4368254 C5.58144254,19.7536289 5.53221409,20.1165068 5.32134921,20.3869048 L5.32134921,20.3869048 L4.25087302,21.7599206 L6.81119048,24.3202381 L8.18420635,23.2497619 C8.45460428,23.038897 8.81748226,22.9896686 9.13428571,23.120873 L9.13428571,23.120873 L11.6811111,24.1756349 C11.9979614,24.3069459 12.2197829,24.5984238 12.2619048,24.9388095 L12.2619048,24.9388095 L12.4753175,26.6666667 L13.9723016,26.6666667 C14.014256,24.8658106 14.4320749,23.0935947 15.1989683,21.4636508 C14.8922993,21.5028742 14.5834528,21.5226228 14.2742857,21.5227778 C10.4003245,21.5216568 7.21247434,18.4736208 7.03772641,14.6036027 C6.86297848,10.7335847 9.76315191,7.41064825 13.6212469,7.06039175 C17.4793419,6.71013525 20.9305127,9.45646596 21.4555556,13.2946825 C21.5414927,13.9265484 21.5437609,14.5669858 21.4623016,15.1994444 C23.0926236,14.4322039 24.8653197,14.014218 26.6666667,13.9723016 L26.6666667,13.9723016 L26.6666667,12.4753175 L24.939127,12.2622222 C24.5987413,12.2201004 24.3072633,11.9982789 24.1759524,11.6814286 L24.1759524,11.6814286 L23.1211905,9.13460317 C22.989986,8.81779972 23.0392145,8.45492174 23.2500794,8.18452381 L23.2500794,8.18452381 L24.3205556,6.81150794 L21.7602381,4.25119048 L20.3872222,5.32166667 C20.1168243,5.53253155 19.7539463,5.58176 19.4371429,5.45055556 L19.4371429,5.45055556 L16.8903175,4.39579365 C16.5734671,4.2644827 16.3516456,3.97300477 16.3095238,3.63261905 L16.3095238,3.63261905 L16.0961111,1.9047619 Z M18.056746,10.5146825 C16.7142556,9.14394076 14.7389531,8.59993666 12.8839683,9.09008442 C11.0289835,9.58023217 9.58023217,11.0289835 9.09008442,12.8839683 C8.59993666,14.7389531 9.14394076,16.7142556 10.5146825,18.056746 C12.141178,19.6701365 14.6127579,20.0725654 16.6670635,19.0584921 C17.3577776,18.1615872 18.1615872,17.3577776 19.0584921,16.6670635 C20.0723644,14.6127278 19.6699555,12.1412702 18.056746,10.5146825 Z" id="Combined-Shape" fill="#000000" fill-rule="nonzero"></path>
    </g>
</svg>