<?xml version="1.0" encoding="UTF-8"?>
<svg width="40px" height="40px" viewBox="0 0 40 40" version="1.1" xmlns="http://www.w3.org/2000/svg" xmlns:xlink="http://www.w3.org/1999/xlink">
    <title>UIUX Design@1x</title>
    <g id="UIUX-Design" stroke="none" stroke-width="1" fill="none" fill-rule="evenodd">
        <path d="M38.6666667,4.59016393 L39.3333333,4.59016393 C39.7013333,4.59016393 40,4.29704918 40,3.93442623 L40,1.31147541 C40,0.948852459 39.7013333,0.655737705 39.3333333,0.655737705 L36.6666667,0.655737705 C36.2986667,0.655737705 36,0.948852459 36,1.31147541 L36,1.96721311 L22.6666667,1.96721311 L22.6666667,0.655737705 C22.6666667,0.293114754 22.368,0 22,0 L18,0 C17.632,0 17.3333333,0.293114754 17.3333333,0.655737705 L17.3333333,1.96721311 L4,1.96721311 L4,1.31147541 C4,0.948852459 3.70133333,0.655737705 3.33333333,0.655737705 L0.666666667,0.655737705 C0.298666667,0.655737705 0,0.948852459 0,1.31147541 L0,3.93442623 C0,4.29704918 0.298666667,4.59016393 0.666666667,4.59016393 L1.33333333,4.59016393 L1.33333333,35.4098361 L0.666666667,35.4098361 C0.298666667,35.4098361 0,35.7029508 0,36.0655738 L0,38.6885246 C0,39.0511475 0.298666667,39.3442623 0.666666667,39.3442623 L3.33333333,39.3442623 C3.70133333,39.3442623 4,39.0511475 4,38.6885246 L4,38.0327869 L17.3333333,38.0327869 L17.3333333,39.3442623 C17.3333333,39.7068852 17.632,40 18,40 L22,40 C22.368,40 22.6666667,39.7068852 22.6666667,39.3442623 L22.6666667,38.0327869 L36,38.0327869 L36,38.6885246 C36,39.0511475 36.2986667,39.3442623 36.6666667,39.3442623 L39.3333333,39.3442623 C39.7013333,39.3442623 40,39.0511475 40,38.6885246 L40,36.0655738 C40,35.7029508 39.7013333,35.4098361 39.3333333,35.4098361 L38.6666667,35.4098361 L38.6666667,20 L38.6666667,4.59016393 Z M37.3333333,1.96721311 L38.6666667,1.96721311 L38.6666667,3.27868852 L37.3333333,3.27868852 L37.3333333,1.96721311 Z M18.6666667,1.31147541 L21.3333333,1.31147541 L21.3333333,2.73442623 L21.3333333,3.93442623 L18.6666667,3.93442623 L18.6666667,2.73442623 L18.6666667,2.62295082 L18.6666667,1.31147541 Z M1.33333333,1.96721311 L2.66666667,1.96721311 L2.66666667,3.27868852 L1.33333333,3.27868852 L1.33333333,1.96721311 Z M2.66666667,4.59016393 L3.33333333,4.59016393 C3.70133333,4.59016393 4,4.29704918 4,3.93442623 L4,3.27868852 L12.9966667,3.27868852 C8.26533333,5.11803279 4.54133333,8.75934426 2.66666667,13.2918033 L2.66666667,4.59016393 Z M2.66666667,38.0327869 L1.33333333,38.0327869 L1.33333333,36.7213115 L2.66666667,36.7213115 L2.66666667,38.0327869 Z M3.33333333,35.4098361 L2.66666667,35.4098361 L2.66666667,26.7081967 C4.54133333,31.2406557 8.26533333,34.8819672 12.9966667,36.7213115 L4,36.7213115 L4,36.0655738 C4,35.7029508 3.70133333,35.4098361 3.33333333,35.4098361 Z M16.1666667,15.6616393 L18.5273333,22.0078689 C17.6813333,22.6177049 17.2993333,23.7193443 17.678,24.735082 C17.8993333,25.3311475 18.344,25.8072131 18.93,26.0747541 C19.254,26.2229508 19.5993333,26.2970492 19.946,26.2970492 C20.2266667,26.2970492 20.5073333,26.2485246 20.778,26.1508197 C21.3846667,25.932459 21.868,25.495082 22.14,24.9193443 C22.412,24.3429508 22.44,23.6977049 22.218,23.1016393 C21.8406667,22.0859016 20.8266667,21.4865574 19.78,21.557377 L17.418,15.2078689 L26.5973333,22.3829508 C25.5133333,23.8459016 25.2126667,25.5993443 25.8006667,27.1895082 L26.5733333,29.2688525 L18.5066667,32.1711475 L17.7326667,30.0891803 C17.1353333,28.4845902 15.7153333,27.3455738 13.8626667,26.9495082 L16.1666667,15.6616393 Z M20.966,23.5521311 C21.0653333,23.8190164 21.0526667,24.1088525 20.9306667,24.3665574 C20.8086667,24.624918 20.592,24.8209836 20.3193333,24.9193443 C20.048,25.0163934 19.7526667,25.0052459 19.4913333,24.8845902 C19.2286667,24.7645902 19.0293333,24.5514754 18.93,24.2839344 C18.7246667,23.7318033 19.014,23.1186885 19.5753333,22.9167213 C19.698,22.8727869 19.8233333,22.8511475 19.9466667,22.8511475 C20.3886667,22.8518033 20.8046667,23.1206557 20.966,23.5521311 L20.966,23.5521311 Z M18.9646667,33.4039344 L27.0313333,30.5009836 L28.5333333,34.5416393 C28.496,34.5619672 28.4593333,34.5836066 28.422,34.6032787 C28.0333333,34.8131148 27.6393333,35.0078689 27.2386667,35.1868852 C27.1873333,35.2098361 27.136,35.2321311 27.084,35.2544262 C27.0573333,35.2655738 27.0306667,35.2767213 27.0046667,35.2878689 C26.6013333,35.4609836 26.1926667,35.6203279 25.7773333,35.762623 C25.7733333,35.7639344 25.7686667,35.7659016 25.7646667,35.7672131 C25.7006667,35.7895082 25.6353333,35.8091803 25.5706667,35.8308197 C25.1653333,35.9639344 24.7553333,36.0813115 24.34,36.1842623 C24.2513333,36.2065574 24.1633333,36.2281967 24.0746667,36.2485246 C23.632,36.3508197 23.1846667,36.4386885 22.732,36.5068852 C22.71,36.5101639 22.688,36.5121311 22.666,36.5154098 L22.666,35.4098361 C22.666,35.0472131 22.3673333,34.7540984 21.9993333,34.7540984 L19.4666667,34.7540984 L18.9646667,33.4039344 Z M21.3333333,38.6885246 L18.6666667,38.6885246 L18.6666667,37.2655738 L18.6666667,36.0655738 L19,36.0655738 L21.3333333,36.0655738 L21.3333333,37.2655738 L21.3333333,37.3770492 L21.3333333,38.6885246 Z M38.6666667,38.0327869 L37.3333333,38.0327869 L37.3333333,37.3770492 L37.3333333,36.7213115 L38,36.7213115 L38.6666667,36.7213115 L38.6666667,38.0327869 Z M37.3333333,26.7363934 L37.3333333,35.4098361 L36.6666667,35.4098361 C36.2986667,35.4098361 36,35.7029508 36,36.0655738 L36,36.7213115 L26.9933333,36.7213115 C27.0053333,36.7167213 27.0166667,36.7108197 27.0286667,36.7055738 C27.428,36.5481967 27.8206667,36.372459 28.2093333,36.1868852 C28.3113333,36.1383607 28.412,36.0891803 28.5133333,36.0386885 C28.9126667,35.8393443 29.3086667,35.6301639 29.6966667,35.4013115 C29.6973333,35.4006557 29.698,35.4 29.6986667,35.4 C30.1,35.1645902 30.486,34.9134426 30.864,34.6531148 C30.9846667,34.5704918 31.1,34.4832787 31.218,34.3980328 C31.4766667,34.2111475 31.73,34.0203279 31.9766667,33.8222951 C32.1013333,33.7219672 32.2246667,33.6209836 32.3466667,33.5180328 C32.59,33.3127869 32.8246667,33.1009836 33.0553333,32.8845902 C33.156,32.7901639 33.2593333,32.6977049 33.358,32.6013115 C33.676,32.2885246 33.9846667,31.9685246 34.2766667,31.6360656 C34.3046667,31.6045902 34.3293333,31.5704918 34.3566667,31.5383607 C34.62,31.2340984 34.872,30.9219672 35.1133333,30.602623 C35.1993333,30.4885246 35.28,30.3718033 35.3633333,30.2563934 C35.542,30.0078689 35.7146667,29.7560656 35.8793333,29.4990164 C35.962,29.3704918 36.0433333,29.2419672 36.122,29.1121311 C36.286,28.8413115 36.4413333,28.5665574 36.59,28.2878689 C36.65,28.1763934 36.7133333,28.0662295 36.7706667,27.9534426 C36.9686667,27.562623 37.1546667,27.1659016 37.3233333,26.7613115 C37.3253333,26.7527869 37.33,26.744918 37.3333333,26.7363934 L37.3333333,26.7363934 Z M29.6946667,33.8465574 L27.0533333,26.7396721 C26.556,25.3954098 26.9133333,23.932459 28.0333333,22.7239344 C28.158,22.5895082 28.22,22.4104918 28.2046667,22.2295082 C28.19,22.0485246 28.0993333,21.8819672 27.9546667,21.7685246 L16.558,12.8603279 C16.4506667,12.4629508 16.2346667,11.36 16.8733333,10.5606557 C17.6006667,9.65114754 19.29,9.31868852 21.7566667,9.59147541 C24.232,9.87081967 25.95,9.49836066 26.868,8.49377049 C27.5893333,7.70557377 27.606,6.71803279 27.5026667,6.25836066 L26.2013333,6.54295082 C26.2026667,6.54885246 26.312,7.14163934 25.8773333,7.61770492 C25.2806667,8.26885246 23.87,8.50557377 21.9073333,8.28918033 C18.9126667,7.95278689 16.868,8.44721311 15.8253333,9.75081967 C14.772,11.0681967 15.1313333,12.7331148 15.292,13.2845902 L12.4193333,27.36 C12.3826667,27.5409836 12.4246667,27.7285246 12.5353333,27.877377 C12.6466667,28.0262295 12.8153333,28.1219672 13.002,28.1409836 C14.7113333,28.32 15.9793333,29.1947541 16.4806667,30.5416393 L18.0466667,34.7540984 L18,34.7540984 C17.632,34.7540984 17.3333333,35.0472131 17.3333333,35.4098361 L17.3333333,36.5193443 C8.92066667,35.2754098 2.66666667,28.2963934 2.66666667,20 C2.66666667,11.7036066 8.92066667,4.72459016 17.3333333,3.48065574 L17.3333333,4.59016393 C17.3333333,4.95278689 17.632,5.24590164 18,5.24590164 L22,5.24590164 C22.368,5.24590164 22.6666667,4.95278689 22.6666667,4.59016393 L22.6666667,3.48065574 C31.0793333,4.72459016 37.3333333,11.7036066 37.3333333,20 C37.3333333,25.6190164 34.4906667,30.7344262 29.6946667,33.8465574 Z M27.0033333,3.27868852 L36,3.27868852 L36,3.93442623 C36,4.29704918 36.2986667,4.59016393 36.6666667,4.59016393 L37.3333333,4.59016393 L37.3333333,13.2918033 C35.4586667,8.75934426 31.7346667,5.11803279 27.0033333,3.27868852 Z" id="Shape" fill="#000000" fill-rule="nonzero"></path>
    </g>
</svg>