<svg id="Capa_1" enable-background="new 0 0 320.941 320.941" height="512" viewBox="0 0 320.941 320.941" width="512" xmlns="http://www.w3.org/2000/svg"><path d="m293.454 215.872h-195.073c-2.964 0-5.367-2.403-5.367-5.367s2.403-5.367 5.367-5.367h189.706v-189.589h-259.41v189.588h27.246c2.964 0 5.367 2.403 5.367 5.367s-2.403 5.367-5.367 5.367h-32.613c-2.964 0-5.367-2.403-5.367-5.367v-200.322c0-2.964 2.403-5.367 5.367-5.367h270.145c2.964 0 5.367 2.403 5.367 5.367v200.323c0 2.964-2.404 5.367-5.368 5.367z"/><path d="m76.872 122.699c-14.517 0-26.326-11.809-26.326-26.326s11.809-26.329 26.326-26.329 26.328 11.812 26.328 26.329-11.812 26.326-26.328 26.326zm0-41.92c-8.596 0-15.591 6.995-15.591 15.594 0 8.596 6.995 15.591 15.591 15.591 8.599 0 15.594-6.995 15.594-15.591-.001-8.599-6.996-15.594-15.594-15.594z"/><path d="m55.923 251.246c-2.964 0-5.367-2.403-5.367-5.367v-53.85c-1.253.349-2.571.535-3.934.535-8.119 0-14.724-6.581-14.724-14.669v-27.959c0-6.35 2.49-12.376 7.008-16.965 4.618-4.545 10.641-7.013 17.022-7.013h41.839c.406-.105.831-.16 1.268-.16h2.377c10.593 0 19.211 8.617 19.211 19.211v32.124c0 7.433-6.046 13.479-13.479 13.479-1.088 0-2.149-.131-3.163-.375l-.611 54.993c-.034 2.943-2.43 5.307-5.367 5.307-.018 0-.039 0-.06 0-2.964-.034-5.339-2.464-5.307-5.428l1.033-92.374c.034-2.943 2.43-5.307 5.367-5.307h.031c2.951.016 5.336 2.414 5.336 5.367v24.337c0 1.512 1.229 2.744 2.741 2.744s2.744-1.232 2.744-2.744v-32.124c0-4.752-3.724-8.476-8.476-8.476h-1.109c-.406.105-.831.16-1.268.16h-43.107c-3.546 0-6.898 1.373-9.435 3.871-2.469 2.508-3.86 5.858-3.86 9.372v27.959c0 2.133 1.827 3.934 3.989 3.934 2.133 0 3.934-1.801 3.934-3.934 0-2.964 2.403-5.367 5.367-5.367s5.367 2.403 5.367 5.367v67.984c.001 2.964-2.403 5.368-5.367 5.368z"/><path d="m55.913 183.246c-2.964 0-5.367-2.403-5.367-5.367v-25.079c0-2.964 2.403-5.367 5.367-5.367s5.367 2.403 5.367 5.367v25.079c0 2.963-2.403 5.367-5.367 5.367z"/><path d="m95.996 255.518h-38.665c-2.964 0-5.367-2.401-5.367-5.367 0-2.964 2.403-5.367 5.367-5.367h38.665c2.964 0 5.367 2.403 5.367 5.367 0 2.966-2.403 5.367-5.367 5.367z"/><path d="m77.393 250.108c-2.964 0-5.367-2.403-5.367-5.367v-37.858c0-2.964 2.403-5.367 5.367-5.367s5.367 2.403 5.367 5.367v37.858c.001 2.964-2.403 5.367-5.367 5.367z"/><path d="m117.096 283.01c-6.476 0-12.745-2.312-17.654-6.51-6.08-5.168-9.574-12.727-9.574-20.715 0-15.015 12.213-27.228 27.228-27.228s27.23 12.213 27.23 27.228c0 7.988-3.494 15.542-9.587 20.726-4.895 4.188-11.167 6.499-17.643 6.499zm0-43.718c-9.094 0-16.493 7.399-16.493 16.493 0 4.838 2.115 9.409 5.805 12.549 5.955 5.095 15.437 5.084 21.365.01 3.701-3.15 5.818-7.726 5.818-12.559.001-9.094-7.398-16.493-16.495-16.493z"/><path d="m153.07 316.127h-10.735v-20.642c0-7.197-4.057-13.702-10.329-16.925-8.806 5.776-21.014 5.776-29.82 0-6.272 3.224-10.329 9.729-10.329 16.925v20.642h-10.734v-20.642c0-12.69 8.059-23.996 20.057-28.137 1.795-.629 3.79-.236 5.239.996 5.934 5.074 15.421 5.074 21.355 0 1.441-1.232 3.444-1.625 5.239-.996 11.998 4.141 20.057 15.447 20.057 28.137z"/><path d="m35.973 281.925c-6.476 0-12.745-2.312-17.654-6.51-6.083-5.174-9.577-12.727-9.577-20.715 0-15.015 12.216-27.228 27.23-27.228 15.015.005 27.228 12.221 27.228 27.228 0 7.988-3.494 15.542-9.587 20.726-4.894 4.188-11.163 6.499-17.64 6.499zm-.002-43.718c-9.094 0-16.493 7.399-16.493 16.493 0 4.833 2.118 9.409 5.808 12.549 5.952 5.09 15.429 5.084 21.362.01 3.701-3.15 5.818-7.726 5.818-12.559 0-9.089-7.398-16.488-16.495-16.493z"/><path d="m71.944 315.047h-10.735v-20.642c0-7.197-4.057-13.696-10.329-16.925-8.809 5.776-21.014 5.776-29.817 0-6.272 3.229-10.329 9.734-10.329 16.925v20.642h-10.734v-20.642c0-12.685 8.059-23.991 20.055-28.137 1.785-.634 3.79-.246 5.242.996 5.926 5.069 15.413 5.074 21.352 0 1.444-1.242 3.439-1.63 5.242-.996 11.996 4.146 20.055 15.452 20.055 28.137v20.642z"/><path d="m203.631 281.925c-6.476 0-12.745-2.312-17.654-6.51-6.08-5.168-9.574-12.727-9.574-20.715 0-15.015 12.213-27.228 27.228-27.228 15.015.005 27.23 12.221 27.23 27.228 0 7.988-3.494 15.542-9.587 20.726-4.896 4.188-11.167 6.499-17.643 6.499zm-.003-43.718c-9.092 0-16.49 7.399-16.49 16.493 0 4.838 2.115 9.409 5.805 12.549 5.955 5.095 15.437 5.084 21.365.01 3.701-3.15 5.818-7.726 5.818-12.559 0-9.089-7.401-16.488-16.498-16.493z"/><path d="m239.604 315.047h-10.735v-20.642c0-7.192-4.057-13.696-10.329-16.925-8.806 5.776-21.014 5.776-29.82 0-6.272 3.229-10.329 9.734-10.329 16.925v20.642h-10.735v-20.642c0-12.685 8.059-23.991 20.055-28.137 1.79-.634 3.792-.246 5.242.996 5.928 5.074 15.421 5.074 21.355 0 1.447-1.242 3.441-1.63 5.242-.996 11.996 4.146 20.055 15.452 20.055 28.137v20.642z"/><path d="m284.968 281.925c-6.473 0-12.742-2.312-17.651-6.51-6.083-5.174-9.577-12.727-9.577-20.715 0-15.015 12.213-27.228 27.228-27.228 15.015.005 27.23 12.221 27.23 27.228 0 7.988-3.494 15.542-9.587 20.726-4.895 4.188-11.167 6.499-17.643 6.499zm-.003-43.718c-9.092 0-16.49 7.399-16.49 16.493 0 4.833 2.118 9.409 5.808 12.549 5.954 5.095 15.434 5.079 21.362.01 3.701-3.15 5.818-7.726 5.818-12.559 0-9.089-7.401-16.488-16.498-16.493z"/><path d="m320.941 315.047h-10.735v-20.642c0-7.197-4.057-13.696-10.329-16.925-8.806 5.776-21.011 5.776-29.817 0-6.272 3.229-10.329 9.734-10.329 16.925v20.642h-10.735v-20.642c0-12.685 8.059-23.991 20.055-28.137 1.79-.634 3.792-.246 5.242.996 5.928 5.074 15.418 5.069 21.352 0 1.444-1.242 3.436-1.63 5.242-.996 11.996 4.146 20.055 15.452 20.055 28.137v20.642z"/><path d="m115.39 107.043c-2.804 0-5.163-2.175-5.352-5.014l-3.929-59.359c-.194-2.956 2.044-5.514 5.003-5.711l17.659-1.169c2.996-.199 5.512 2.044 5.708 5.001l.364 5.438 18.726-1.237-.362-5.441c-.092-1.42.383-2.82 1.321-3.892.938-1.069 2.262-1.725 3.682-1.819l17.659-1.164c2.972-.215 5.514 2.044 5.711 5.003l3.929 59.359c.092 1.42-.383 2.82-1.318 3.889-.938 1.072-2.264 1.727-3.685 1.821l-64.758 4.282c-.12.01-.24.013-.358.013zm1.787-59.727 3.218 48.648 54.047-3.572-3.218-48.65-6.948.459.359 5.438c.194 2.959-2.044 5.514-5.003 5.711l-29.435 1.947c-2.972.157-5.512-2.044-5.708-5.001l-.364-5.438z"/><path d="m129.831 57.31c-2.802 0-5.163-2.175-5.352-5.014l-1.428-21.583c-.092-1.42.383-2.82 1.318-3.889.938-1.072 2.264-1.727 3.685-1.821l29.435-1.947c2.956-.181 5.514 2.044 5.711 5.003l1.428 21.583c.092 1.42-.383 2.82-1.318 3.889-.938 1.072-2.264 1.727-3.685 1.821l-29.435 1.947c-.121.008-.241.011-.359.011zm4.287-21.95.718 10.871 18.723-1.237-.718-10.871z"/><path d="m259.564 125.716c-.406 0-.82-.045-1.232-.142l-63.186-14.834c-1.386-.325-2.587-1.19-3.336-2.398-.75-1.211-.988-2.668-.663-4.054l13.602-57.915c.679-2.888 3.554-4.686 6.452-3.999l17.235 4.041c1.386.325 2.587 1.187 3.336 2.398s.988 2.668.663 4.054l-1.248 5.307 18.267 4.29 1.245-5.305c.679-2.886 3.572-4.678 6.452-3.999l17.229 4.047c2.886.679 4.676 3.567 3.999 6.452l-13.597 57.915c-.579 2.475-2.783 4.142-5.218 4.142zm-56.738-24.201 52.734 12.381 11.144-47.463-6.78-1.593-1.245 5.305c-.679 2.888-3.58 4.681-6.452 3.999l-28.716-6.746c-1.386-.328-2.587-1.19-3.336-2.398-.75-1.211-.988-2.671-.663-4.054l1.248-5.305-6.783-1.591z"/><path d="m253.452 74.287c-.409 0-.823-.047-1.227-.142l-28.718-6.745c-2.886-.679-4.676-3.567-3.999-6.452l4.945-21.056c.679-2.886 3.572-4.676 6.452-3.999l28.716 6.743c2.886.679 4.676 3.567 3.999 6.452l-4.943 21.058c-.325 1.386-1.187 2.587-2.398 3.336-.856.53-1.836.805-2.827.805zm-22.266-16.11 18.267 4.29 2.49-10.606-18.267-4.29z"/><path d="m203.963 198.263c-.034 0-.071 0-.105 0l-64.886-1.271c-2.964-.06-5.32-2.508-5.263-5.472l1.158-59.477c.058-2.964 2.545-5.281 5.472-5.263l17.696.343c2.964.058 5.32 2.508 5.263 5.472l-.107 5.449 18.763.37.105-5.449c.029-1.423.621-2.775 1.646-3.764 1.025-.985 2.267-1.549 3.826-1.499l17.696.343c1.423.029 2.775.621 3.764 1.646.988 1.027 1.525 2.403 1.499 3.826l-1.159 59.483c-.029 1.423-.621 2.778-1.646 3.764-1.001.962-2.335 1.499-3.722 1.499zm-59.416-11.898 54.154 1.059.951-48.747-6.964-.136-.105 5.451c-.029 1.423-.621 2.778-1.646 3.764-1.025.985-2.453 1.426-3.826 1.499l-29.495-.582c-2.964-.06-5.32-2.508-5.263-5.472l.107-5.446-6.964-.136z"/><path d="m187.211 149.243c-.037 0-.071 0-.107 0l-29.492-.574c-1.423-.029-2.778-.621-3.764-1.646-.988-1.027-1.525-2.403-1.499-3.826l.422-21.627c.058-2.962 2.561-5.137 5.472-5.263l29.492.574c1.423.029 2.778.621 3.764 1.646.988 1.027 1.525 2.403 1.499 3.826l-.422 21.627c-.058 2.928-2.451 5.263-5.365 5.263zm-24.022-11.204 18.757.367.212-10.895-18.757-.367z"/><path d="m223.415 142.023h54.089v10.735h-54.089z"/><path d="m223.415 158.248h37.863v10.735h-37.863z"/><path d="m223.415 174.474h54.089v10.735h-54.089z"/></svg>