<svg width="150" height="53" viewBox="0 0 150 53" fill="none" xmlns="http://www.w3.org/2000/svg">
<path d="M0 13.6C0 10.2397 0 8.55953 0.653961 7.27606C1.2292 6.14708 2.14708 5.2292 3.27606 4.65396C4.55953 4 6.23969 4 9.6 4H136.4C139.76 4 141.44 4 142.724 4.65396C143.853 5.2292 144.771 6.14708 145.346 7.27606C146 8.55953 146 10.2397 146 13.6V42.7787C146 46.139 146 47.8192 145.346 49.1026C144.771 50.2316 143.853 51.1495 142.724 51.7247C141.44 52.3787 139.76 52.3787 136.4 52.3787H9.60001C6.23969 52.3787 4.55953 52.3787 3.27606 51.7247C2.14708 51.1495 1.2292 50.2316 0.653961 49.1026C0 47.8192 0 46.139 0 42.7787V13.6Z" fill="#1E53AA"/>
<path d="M2 11.6C2 8.23969 2 6.55953 2.65396 5.27606C3.2292 4.14708 4.14708 3.2292 5.27606 2.65396C6.55953 2 8.23969 2 11.6 2H138.4C141.76 2 143.44 2 144.724 2.65396C145.853 3.2292 146.771 4.14708 147.346 5.27606C148 6.55953 148 8.23969 148 11.6V40.7787C148 44.139 148 45.8192 147.346 47.1026C146.771 48.2316 145.853 49.1495 144.724 49.7247C143.44 50.3787 141.76 50.3787 138.4 50.3787H11.6C8.23969 50.3787 6.55953 50.3787 5.27606 49.7247C4.14708 49.1495 3.2292 48.2316 2.65396 47.1026C2 45.8192 2 44.139 2 40.7787V11.6Z" fill="#F7F7F7"/>
<g clip-path="url(#clip0_1664_1394)">
<path d="M4 9.60001C4 6.23969 4 4.55953 4.65396 3.27606C5.2292 2.14708 6.14708 1.2292 7.27606 0.653961C8.55953 0 10.2397 0 13.6 0H140.4C143.76 0 145.44 0 146.724 0.653961C147.853 1.2292 148.771 2.14708 149.346 3.27606C150 4.55953 150 6.23969 150 9.6V38.7787C150 42.139 150 43.8192 149.346 45.1026C148.771 46.2316 147.853 47.1495 146.724 47.7247C145.44 48.3787 143.76 48.3787 140.4 48.3787H13.6C10.2397 48.3787 8.55953 48.3787 7.27606 47.7247C6.14708 47.1495 5.2292 46.2316 4.65396 45.1026C4 43.8192 4 42.139 4 38.7787V9.60001Z" fill="#4A86E8"/>
<path d="M20.2072 32.3431C20.9675 32.3431 21.5895 32.2855 22.0733 32.1704C22.5801 32.0321 22.9833 31.8593 23.2827 31.652C23.5822 31.4216 23.7896 31.1567 23.9048 30.8572C24.0199 30.5577 24.0775 30.2237 24.0775 29.8551C24.0775 29.0718 23.7089 28.4268 22.9717 27.9199C22.2345 27.3901 20.9675 26.8257 19.1706 26.2267C18.3873 25.9502 17.604 25.6392 16.8207 25.2937C16.0375 24.9251 15.3348 24.4758 14.7128 23.946C14.0908 23.3931 13.584 22.7365 13.1923 21.9763C12.8007 21.193 12.6049 20.2485 12.6049 19.1427C12.6049 18.0369 12.8122 17.0462 13.2269 16.1708C13.6416 15.2724 14.229 14.5121 14.9893 13.8901C15.7495 13.2681 16.671 12.7958 17.7538 12.4733C18.8365 12.1277 20.0575 11.955 21.4167 11.955C23.0293 11.955 24.4231 12.1277 25.598 12.4733C26.7729 12.8189 27.7405 13.199 28.5007 13.6137L26.9457 17.8641C26.2776 17.5185 25.5289 17.219 24.6996 16.9656C23.8932 16.6892 22.9141 16.5509 21.7623 16.5509C20.4722 16.5509 19.5392 16.7352 18.9632 17.1038C18.4103 17.4494 18.1339 17.9908 18.1339 18.728C18.1339 19.1657 18.2375 19.5343 18.4449 19.8338C18.6522 20.1333 18.9402 20.4097 19.3088 20.6631C19.7004 20.8935 20.1381 21.1124 20.6219 21.3197C21.1287 21.504 21.6816 21.6998 22.2806 21.9072C23.5246 22.3679 24.6074 22.8287 25.5289 23.2894C26.4504 23.7271 27.2106 24.2455 27.8096 24.8444C28.4316 25.4434 28.8924 26.1461 29.1919 26.9524C29.4913 27.7587 29.6411 28.7378 29.6411 29.8896C29.6411 32.1243 28.8578 33.8636 27.2913 35.1076C25.7247 36.3286 23.3634 36.9391 20.2072 36.9391C19.1475 36.9391 18.1915 36.87 17.3391 36.7318C16.4867 36.6166 15.7265 36.4668 15.0584 36.2825C14.4133 36.0982 13.8489 35.9024 13.3651 35.6951C12.9044 35.4877 12.5127 35.2919 12.1902 35.1076L13.7107 30.8227C14.4248 31.2143 15.3003 31.5714 16.3369 31.8939C17.3967 32.1934 18.6868 32.3431 20.2072 32.3431ZM48.2334 12.5079H53.6242V36.4553H48.2334V26.2958H39.1797V36.4553H33.7889V12.5079H39.1797V21.6653H48.2334V12.5079ZM59.1661 36.4553V12.5079H75.2002V17.0347H64.5569V22.0454H74.0253V26.5722H64.5569V36.4553H59.1661ZM97.5133 12.5079V17.1038H90.291V36.4553H84.9003V17.1038H77.678V12.5079H97.5133Z" fill="white"/>
<g opacity="0.2" clip-path="url(#clip1_1664_1394)">
<path d="M141.253 7.95792C140.821 9.42359 141.014 11.0026 141.786 12.3214C142.715 8.96728 144.177 5.78417 146.116 2.8938C143.638 4.19003 141.857 5.99442 141.253 7.95792Z" fill="white"/>
<path d="M143.22 25.0667C143.938 25.0885 144.648 25.2264 145.321 25.4749C145.371 25.3982 145.431 25.3174 145.478 25.2408C146.634 23.456 147.256 21.3777 147.27 19.2511C147.313 17.076 147.052 14.9054 146.494 12.8025C145.436 13.7015 144.243 14.428 142.959 14.9551C142.549 18.3202 142.637 21.7273 143.22 25.0667Z" fill="white"/>
<path d="M148.395 2.64404C146.059 5.71609 144.344 9.21441 143.346 12.9431C144.434 12.3783 145.416 11.6275 146.245 10.7246C146.258 10.7075 146.272 10.6911 146.287 10.6755C148.213 8.47855 148.994 5.50378 148.395 2.64404Z" fill="white"/>
<path d="M132.46 16.6392C129.523 16.9724 126.962 19.7215 125.598 21.4892C128.286 21.0935 133.341 20.1288 136.803 18.1429C135.634 17.0486 134.055 16.502 132.46 16.6392Z" fill="white"/>
<path d="M147.722 29.255C147.48 29.2288 147.261 29.0976 147.123 28.8959C146.292 27.6802 144.966 26.8946 143.5 26.75C143.597 27.2948 143.697 27.8399 143.801 28.3853H144.662C145.123 28.3853 145.495 28.7582 145.495 29.2183C145.495 29.6784 145.123 30.0514 144.662 30.0514H141.33C140.87 30.0514 140.497 29.6784 140.497 29.2183C140.497 28.7582 140.87 28.3853 141.33 28.3853H142.107C142.01 27.8771 141.917 27.3684 141.828 26.8591C140.623 27.1464 139.568 27.8726 138.869 28.8959C138.731 29.0982 138.511 29.2295 138.268 29.255C137.142 29.3724 136.092 29.8768 135.296 30.682C133.867 32.1115 133.439 34.2616 134.213 36.1295C134.986 37.9974 136.809 39.2152 138.831 39.2149H147.162C149.797 39.1927 151.962 37.1287 152.11 34.4977C152.258 31.8668 150.338 29.5728 147.722 29.255Z" fill="white"/>
<path d="M107.925 34.7766C107.884 34.8482 107.841 34.9282 107.8 35.0007C108.145 35.2781 108.616 35.6313 108.816 35.7788C108.998 35.9121 109.119 36.1138 109.15 36.3377C109.18 36.5615 109.119 36.7882 108.979 36.9659C108.856 37.1268 108.748 37.2995 108.658 37.4815L108.83 37.5806C109.568 37.8974 110.131 38.5192 110.373 39.2842C110.495 39.8721 110.47 40.481 110.301 41.057C110.262 41.2311 110.222 41.4052 110.201 41.5793C110.151 42.0831 110.218 42.5915 110.396 43.0655C110.579 43.8344 111.335 44.3232 112.111 44.1742C114.539 43.5912 116.931 42.8681 119.275 42.0083C120.156 41.7084 120.954 41.4302 121.578 41.2119C122.141 41.0153 122.564 40.8679 122.785 40.7954C126.25 39.7008 126.951 38.4504 126.932 37.5931C126.927 37.3713 127.011 37.1566 127.165 36.9967C127.318 36.8367 127.529 36.7446 127.751 36.7409C128.208 36.74 128.584 37.0989 128.604 37.5548C128.653 39.6308 126.868 41.2561 123.299 42.3865C123.089 42.4548 122.678 42.5981 122.132 42.7881L121.353 43.0605C122.727 44.583 123.73 46.4033 124.282 48.3787L143.178 48.3262C143.159 48.2979 143.142 48.2704 143.124 48.2429C142.883 47.8945 142.667 47.5298 142.476 47.1516C142.062 46.3119 141.716 45.4398 141.442 44.5441C141.082 43.3431 140.806 42.1183 140.617 40.8787H138.831C135.373 40.8708 132.496 38.2197 132.205 34.7741C131.915 31.3286 134.308 28.2332 137.715 27.6465C138.67 26.4085 140.03 25.5463 141.557 25.2115C141.366 23.9553 141.215 22.6907 141.123 21.4103C140.84 20.312 139.933 19.4855 138.813 19.3052C138.494 21.3482 137.27 23.1379 135.481 24.1752C134.184 24.845 132.738 25.1749 131.278 25.134C128.587 25.029 125.941 24.4106 123.483 23.3121C123.457 23.3005 123.441 23.2771 123.417 23.263C123.352 23.2271 123.293 23.1825 123.24 23.1305C123.212 23.0999 123.187 23.0667 123.164 23.0314C123.125 22.978 123.093 22.9197 123.068 22.8581C123.06 22.8373 123.043 22.8223 123.036 22.8015C123.03 22.7807 123.036 22.7507 123.03 22.7248C123.019 22.6937 123.01 22.662 123.003 22.6299C123.004 22.598 123.007 22.5663 123.013 22.5349C123.014 22.4842 123.019 22.4338 123.03 22.3841C123.043 22.3222 123.064 22.2621 123.091 22.205C123.099 22.1767 123.108 22.1489 123.119 22.1217C123.279 21.8551 127.112 15.5748 132.266 14.9841C134.539 14.7275 136.687 15.6031 138.649 17.5874C139.506 17.6533 140.328 17.9533 141.025 18.4546C141.04 17.1788 141.137 15.9052 141.315 14.6417C139.04 11.7077 139.149 9.13027 139.657 7.46666C139.896 6.71793 140.244 6.00897 140.692 5.36321C137.321 2.81167 133.157 1.53271 128.934 1.75193C126.306 1.93633 123.694 2.31248 121.12 2.87738C117.758 3.54383 115.247 4.73842 113.653 6.42452C112.337 7.83385 111.32 9.49501 110.664 11.3079C110.387 12.1144 110.16 12.9371 109.984 13.7712L109.901 14.1252C109.702 14.881 109.431 15.6158 109.091 16.3195C108.933 16.6702 108.777 17.0201 108.641 17.3766C108.561 17.5568 108.517 17.751 108.511 17.9481C108.549 18.2189 108.866 18.5104 109.203 18.8195C109.89 19.3055 110.334 20.0648 110.42 20.9021C110.404 21.2968 110.294 21.682 110.1 22.0259C109.054 24.2221 107.773 26.2985 106.279 28.2188C105.645 28.991 105.513 29.3018 105.509 29.4234C105.663 29.5725 105.83 29.7077 106.009 29.8274C106.226 29.9797 106.456 30.1132 106.696 30.2265C107.406 30.5897 108.38 31.0878 108.58 32.105C108.699 32.7346 108.621 33.3854 108.358 33.9694C108.208 34.2801 108.059 34.55 107.925 34.7766ZM111.523 14.5051L111.607 14.1444C111.768 13.3815 111.974 12.6288 112.223 11.8902C112.803 10.2871 113.7 8.81762 114.861 7.56996C116.138 6.33907 117.711 5.45797 119.427 5.01166C119.712 4.92505 120.022 4.99698 120.239 5.20034C120.456 5.4037 120.549 5.7076 120.481 5.99757C120.414 6.28753 120.197 6.51952 119.912 6.60612C118.474 6.97044 117.152 7.6962 116.073 8.71458C115.066 9.79757 114.289 11.0726 113.787 12.4633C113.562 13.1376 113.375 13.8243 113.23 14.5201L113.146 14.8825C113.038 15.3265 112.592 15.6001 112.147 15.4956C111.702 15.3912 111.424 14.9477 111.524 14.5018L111.523 14.5051ZM111.34 16.7227C111.8 16.7227 112.173 17.0957 112.173 17.5558C112.173 18.0158 111.8 18.3888 111.34 18.3888C110.88 18.3888 110.507 18.0158 110.507 17.5558C110.507 17.0957 110.88 16.7227 111.34 16.7227Z" fill="white"/>
<path d="M134.681 22.7138C135.736 22.1173 136.528 21.1445 136.897 19.9897C133.875 21.401 130.669 22.3802 127.374 22.8988C129.612 23.4911 132.57 23.8868 134.681 22.7138Z" fill="white"/>
</g>
</g>
<defs>
<clipPath id="clip0_1664_1394">
<path d="M4 9.60001C4 6.23969 4 4.55953 4.65396 3.27606C5.2292 2.14708 6.14708 1.2292 7.27606 0.653961C8.55953 0 10.2397 0 13.6 0H140.4C143.76 0 145.44 0 146.724 0.653961C147.853 1.2292 148.771 2.14708 149.346 3.27606C150 4.55953 150 6.23969 150 9.6V38.7787C150 42.139 150 43.8192 149.346 45.1026C148.771 46.2316 147.853 47.1495 146.724 47.7247C145.44 48.3787 143.76 48.3787 140.4 48.3787H13.6C10.2397 48.3787 8.55953 48.3787 7.27606 47.7247C6.14708 47.1495 5.2292 46.2316 4.65396 45.1026C4 43.8192 4 42.139 4 38.7787V9.60001Z" fill="white"/>
</clipPath>
<clipPath id="clip1_1664_1394">
<rect width="46.6509" height="46.6509" fill="white" transform="translate(105.509 1.72778)"/>
</clipPath>
</defs>
</svg>
