<svg width="1366" height="379" viewBox="0 0 1366 379" fill="none" xmlns="http://www.w3.org/2000/svg">
<path d="M887 190.043C887.024 194.461 890.624 198.023 895.043 198C899.461 197.976 903.023 194.376 903 189.957C902.976 185.539 899.376 181.977 894.957 182C890.539 182.024 886.977 185.624 887 190.043ZM1091.07 190.018C1091.65 189.429 1091.64 188.479 1091.05 187.896L1081.46 178.401C1080.87 177.819 1079.92 177.824 1079.34 178.413C1078.75 179.002 1078.76 179.951 1079.35 180.534L1087.88 188.974L1079.44 197.504C1078.86 198.093 1078.86 199.043 1079.45 199.626C1080.04 200.208 1080.99 200.203 1081.57 199.614L1091.07 190.018ZM895.008 191.5L1090.01 190.463L1089.99 187.463L894.992 188.5L895.008 191.5Z" fill="#4140A6"/>
<circle cx="568.5" cy="189.5" r="189.5" fill="#5C5AEA"/>
<path d="M693.595 109.34C694.408 109.5 695.197 108.972 695.358 108.159L697.978 94.9159C698.138 94.1033 697.61 93.3141 696.797 93.1534C695.985 92.9926 695.195 93.5211 695.035 94.3338L692.706 106.106L680.934 103.777C680.121 103.616 679.332 104.145 679.172 104.957C679.011 105.77 679.539 106.559 680.352 106.72L693.595 109.34ZM566.185 42.0627L566.142 40.5633L566.185 42.0627ZM494.924 62.6697L494.161 61.3785L494.924 62.6697ZM434.522 115.175C434.522 119.593 438.104 123.175 442.522 123.175C446.94 123.175 450.522 119.593 450.522 115.175C450.522 110.756 446.94 107.175 442.522 107.175C438.104 107.175 434.522 110.756 434.522 115.175ZM695.133 107.034C681.011 85.9466 661.77 68.7876 639.21 57.1624L637.836 59.8291C659.944 71.2218 678.801 88.0377 692.64 108.703L695.133 107.034ZM639.21 57.1624C616.65 45.5372 591.51 39.826 566.142 40.5633L566.229 43.5621C591.09 42.8394 615.727 48.4364 637.836 59.8291L639.21 57.1624ZM566.142 40.5633C540.774 41.3007 516.007 48.4626 494.161 61.3785L495.688 63.9609C517.097 51.3033 541.368 44.2847 566.229 43.5621L566.142 40.5633ZM494.161 61.3785C472.315 74.2945 454.102 92.5422 441.229 114.414L443.815 115.936C456.43 94.5014 474.278 76.6186 495.688 63.9609L494.161 61.3785Z" fill="white"/>
<path d="M443.813 269.836C443 269.675 442.211 270.204 442.05 271.016L439.431 284.26C439.27 285.073 439.798 285.862 440.611 286.022C441.424 286.183 442.213 285.655 442.373 284.842L444.702 273.07L456.474 275.399C457.287 275.56 458.076 275.031 458.237 274.218C458.397 273.406 457.869 272.617 457.056 272.456L443.813 269.836ZM571.223 337.113L571.267 338.612L571.223 337.113ZM642.484 316.506L643.247 317.797L642.484 316.506ZM702.886 264.001C702.886 259.583 699.305 256.001 694.886 256.001C690.468 256.001 686.886 259.583 686.886 264.001C686.886 268.419 690.468 272.001 694.886 272.001C699.305 272.001 702.886 268.419 702.886 264.001ZM442.275 272.142C456.397 293.229 475.639 310.388 498.198 322.013L499.573 319.347C477.464 307.954 458.608 291.138 444.768 270.473L442.275 272.142ZM498.198 322.013C520.758 333.639 545.898 339.35 571.267 338.612L571.179 335.614C546.319 336.336 521.681 330.739 499.573 319.347L498.198 322.013ZM571.267 338.612C596.635 337.875 621.401 330.713 643.247 317.797L641.721 315.215C620.311 327.872 596.04 334.891 571.179 335.614L571.267 338.612ZM643.247 317.797C665.094 304.881 683.306 286.634 696.179 264.762L693.594 263.24C680.978 284.674 663.13 302.557 641.721 315.215L643.247 317.797Z" fill="white"/>
<path d="M1113.22 270.572C1113.63 270.491 1114.02 270.756 1114.1 271.162L1115.41 277.784C1115.49 278.19 1115.23 278.585 1114.82 278.665C1114.41 278.745 1114.02 278.481 1113.94 278.075L1112.77 272.189L1106.89 273.353C1106.48 273.434 1106.09 273.169 1106.01 272.763C1105.93 272.357 1106.19 271.962 1106.6 271.882L1113.22 270.572ZM1058 320.68L1057.66 320.013L1058 320.68ZM985.663 337.113L985.641 337.863L985.663 337.113ZM914.402 316.506L914.021 317.152L914.402 316.506ZM858 264.001C858 261.792 859.791 260.001 862 260.001C864.209 260.001 866 261.792 866 264.001C866 266.21 864.209 268.001 862 268.001C859.791 268.001 858 266.21 858 264.001ZM862.646 263.621C863.699 265.409 864.787 267.172 865.911 268.91L864.652 269.725C863.516 267.969 862.417 266.188 861.354 264.382L862.646 263.621ZM873.094 279.054C875.631 282.335 878.304 285.506 881.103 288.558L879.998 289.572C877.17 286.489 874.47 283.286 871.907 279.971L873.094 279.054ZM889.883 297.355C892.929 300.16 896.095 302.839 899.372 305.383L898.452 306.568C895.142 303.998 891.944 301.292 888.867 298.458L889.883 297.355ZM909.501 312.585C911.237 313.712 912.998 314.805 914.784 315.86L914.021 317.152C912.216 316.085 910.437 314.982 908.684 313.843L909.501 312.585ZM914.784 315.86C916.57 316.916 918.376 317.933 920.2 318.911L919.492 320.233C917.649 319.246 915.825 318.218 914.021 317.152L914.784 315.86ZM931.393 324.314C935.201 325.959 939.074 327.442 943 328.758L942.523 330.181C938.557 328.851 934.645 327.353 930.798 325.692L931.393 324.314ZM954.94 332.211C958.963 333.193 963.029 334.007 967.128 334.648L966.896 336.13C962.755 335.482 958.648 334.66 954.584 333.668L954.94 332.211ZM979.477 336.052C981.541 336.199 983.611 336.303 985.685 336.363L985.641 337.863C983.546 337.802 981.456 337.697 979.37 337.548L979.477 336.052ZM985.685 336.363C987.759 336.424 989.831 336.44 991.901 336.413L991.92 337.913C989.83 337.94 987.736 337.924 985.641 337.863L985.685 336.363ZM1004.31 335.729C1008.44 335.327 1012.55 334.751 1016.62 334.004L1016.89 335.479C1012.78 336.234 1008.63 336.815 1004.46 337.222L1004.31 335.729ZM1028.74 331.251C1032.74 330.164 1036.69 328.909 1040.59 327.488L1041.1 328.898C1037.16 330.333 1033.17 331.601 1029.13 332.698L1028.74 331.251ZM1052.07 322.744C1053.95 321.874 1055.81 320.964 1057.66 320.013L1058.34 321.347C1056.48 322.307 1054.6 323.226 1052.7 324.105L1052.07 322.744ZM1057.66 320.013C1059.5 319.063 1061.32 318.075 1063.12 317.05L1063.86 318.354C1062.05 319.389 1060.21 320.387 1058.34 321.347L1057.66 320.013ZM1073.65 310.449C1077.07 308.099 1080.39 305.609 1083.59 302.985L1084.54 304.146C1081.3 306.796 1077.96 309.312 1074.5 311.685L1073.65 310.449ZM1092.87 294.713C1095.84 291.829 1098.69 288.819 1101.42 285.69L1102.55 286.675C1099.79 289.836 1096.91 292.876 1093.91 295.79L1092.87 294.713ZM1109.17 275.981C1110.4 274.311 1111.59 272.614 1112.74 270.89L1113.99 271.725C1112.82 273.466 1111.62 275.181 1110.38 276.868L1109.17 275.981ZM1113.07 269.836C1113.89 269.675 1114.68 270.204 1114.84 271.016L1117.46 284.26C1117.62 285.073 1117.09 285.862 1116.28 286.022C1115.46 286.183 1114.67 285.655 1114.51 284.842L1112.18 273.07L1100.41 275.399C1099.6 275.56 1098.81 275.031 1098.65 274.218C1098.49 273.406 1099.02 272.617 1099.83 272.456L1113.07 269.836ZM1058 320.68L1057.31 319.347L1058 320.68ZM985.663 337.113L985.62 338.612L985.663 337.113ZM914.402 316.506L913.639 317.797L914.402 316.506ZM854 264.001C854 259.583 857.582 256.001 862 256.001C866.418 256.001 870 259.583 870 264.001C870 268.419 866.418 272.001 862 272.001C857.582 272.001 854 268.419 854 264.001ZM863.293 263.24C864.34 265.019 865.423 266.774 866.541 268.503L864.022 270.132C862.881 268.368 861.776 266.577 860.707 264.762L863.293 263.24ZM873.687 278.595C876.212 281.86 878.871 285.015 881.656 288.051L879.445 290.079C876.603 286.981 873.89 283.762 871.314 280.43L873.687 278.595ZM890.391 296.803C893.422 299.594 896.571 302.259 899.831 304.791L897.992 307.16C894.665 304.577 891.451 301.858 888.359 299.01L890.391 296.803ZM909.909 311.956C911.636 313.078 913.389 314.164 915.166 315.215L913.639 317.797C911.826 316.725 910.038 315.617 908.275 314.472L909.909 311.956ZM915.166 315.215C916.943 316.265 918.739 317.277 920.554 318.25L919.138 320.894C917.285 319.902 915.452 318.869 913.639 317.797L915.166 315.215ZM931.69 323.626C935.479 325.263 939.332 326.737 943.239 328.047L942.285 330.892C938.299 329.555 934.367 328.05 930.501 326.38L931.69 323.626ZM955.118 331.483C959.12 332.46 963.166 333.269 967.244 333.907L966.78 336.871C962.619 336.22 958.491 335.394 954.406 334.397L955.118 331.483ZM979.53 335.304C981.584 335.45 983.643 335.554 985.707 335.614L985.62 338.612C983.514 338.551 981.413 338.446 979.317 338.296L979.53 335.304ZM985.707 335.614C987.77 335.674 989.832 335.69 991.891 335.663L991.93 338.663C989.829 338.69 987.725 338.674 985.62 338.612L985.707 335.614ZM1004.24 334.983C1008.35 334.582 1012.43 334.009 1016.48 333.266L1017.03 336.217C1012.89 336.975 1008.72 337.56 1004.53 337.968L1004.24 334.983ZM1028.54 330.527C1032.52 329.446 1036.45 328.197 1040.33 326.784L1041.36 329.602C1037.4 331.045 1033.39 332.319 1029.33 333.422L1028.54 330.527ZM1051.76 322.063C1053.63 321.198 1055.48 320.292 1057.31 319.347L1058.69 322.013C1056.82 322.978 1054.93 323.902 1053.02 324.786L1051.76 322.063ZM1057.31 319.347C1059.15 318.401 1060.96 317.418 1062.75 316.399L1064.24 319.005C1062.41 320.046 1060.56 321.049 1058.69 322.013L1057.31 319.347ZM1073.23 309.831C1076.63 307.493 1079.93 305.016 1083.12 302.405L1085.02 304.726C1081.76 307.39 1078.4 309.918 1074.93 312.303L1073.23 309.831ZM1092.34 294.175C1095.3 291.306 1098.14 288.311 1100.85 285.198L1103.11 287.168C1100.35 290.344 1097.45 293.4 1094.43 296.328L1092.34 294.175ZM1108.57 275.538C1109.79 273.877 1110.97 272.188 1112.12 270.473L1114.61 272.142C1113.44 273.892 1112.23 275.616 1110.99 277.311L1108.57 275.538Z" fill="#E0E0E0"/>
<circle cx="801.5" cy="188.5" r="78.5" fill="url(#paint0_linear_4308_264808)"/>
<path d="M880 188.5C880 231.854 844.854 267 801.5 267C758.146 267 723 231.854 723 188.5C723 145.146 758.146 110 801.5 110C844.854 110 880 145.146 880 188.5ZM725.239 188.5C725.239 230.618 759.382 264.761 801.5 264.761C843.618 264.761 877.761 230.618 877.761 188.5C877.761 146.382 843.618 112.239 801.5 112.239C759.382 112.239 725.239 146.382 725.239 188.5Z" fill="url(#paint1_linear_4308_264808)"/>
<path d="M872.606 159.919C873.114 160.137 873.702 159.902 873.919 159.394L877.464 151.122C877.682 150.614 877.447 150.026 876.939 149.809C876.432 149.591 875.844 149.826 875.626 150.334L872.475 157.687L865.122 154.536C864.614 154.318 864.026 154.553 863.809 155.061C863.591 155.568 863.826 156.156 864.334 156.374L872.606 159.919ZM870.072 154.371L872.072 159.371L873.928 158.629L871.928 153.629L870.072 154.371Z" fill="#363636"/>
<circle cx="862" cy="264" r="5" fill="white"/>
<path d="M782.125 179.584V180.72C782.125 182.363 781.608 183.696 780.573 184.72C779.549 185.733 778.216 186.24 776.573 186.24C774.824 186.24 773.384 185.68 772.253 184.56C771.133 183.44 770.573 182.059 770.573 180.416C770.573 178.773 771.133 177.387 772.253 176.256C773.373 175.125 774.76 174.56 776.413 174.56C777.458 174.56 778.413 174.795 779.277 175.264C780.152 175.733 780.834 176.357 781.325 177.136L778.893 178.528C778.669 178.176 778.338 177.893 777.901 177.68C777.474 177.467 776.989 177.36 776.445 177.36C775.56 177.36 774.834 177.648 774.269 178.224C773.704 178.8 773.421 179.536 773.421 180.432C773.421 181.296 773.698 182.027 774.253 182.624C774.818 183.221 775.608 183.52 776.621 183.52C777.922 183.52 778.781 183.029 779.197 182.048H776.477V179.584H782.125ZM789.298 186L787.346 182.384H786.322V186H783.458V174.8H787.938C789.079 174.8 790.034 175.168 790.802 175.904C791.581 176.629 791.97 177.552 791.97 178.672C791.97 179.344 791.799 179.963 791.458 180.528C791.117 181.083 790.653 181.525 790.066 181.856L792.37 186H789.298ZM786.322 177.44V179.952H787.906C788.258 179.963 788.546 179.851 788.77 179.616C788.994 179.381 789.106 179.077 789.106 178.704C789.106 178.331 788.994 178.027 788.77 177.792C788.546 177.557 788.258 177.44 787.906 177.44H786.322ZM802.824 184.56C801.693 185.68 800.306 186.24 798.664 186.24C797.021 186.24 795.629 185.68 794.488 184.56C793.357 183.429 792.792 182.043 792.792 180.4C792.792 178.757 793.357 177.376 794.488 176.256C795.629 175.125 797.021 174.56 798.664 174.56C800.306 174.56 801.693 175.125 802.824 176.256C803.965 177.376 804.536 178.757 804.536 180.4C804.536 182.043 803.965 183.429 802.824 184.56ZM796.504 182.592C797.08 183.157 797.8 183.44 798.664 183.44C799.528 183.44 800.248 183.157 800.824 182.592C801.4 182.016 801.688 181.285 801.688 180.4C801.688 179.515 801.4 178.789 800.824 178.224C800.248 177.648 799.528 177.36 798.664 177.36C797.8 177.36 797.08 177.648 796.504 178.224C795.928 178.789 795.64 179.515 795.64 180.4C795.64 181.285 795.928 182.016 796.504 182.592ZM807.638 186L804.502 174.8H807.59L809.318 181.856L811.318 174.8H813.574L815.574 181.856L817.318 174.8H820.39L817.27 186H814.246L812.454 179.68L810.662 186H807.638ZM829.076 174.8V177.568H826.308V186H823.444V177.568H820.676V174.8H829.076ZM836.13 174.8H838.978V186H836.13V181.696H832.978V186H830.114V174.8H832.978V178.944H836.13V174.8ZM784.437 194.8V206H781.589V199.968L778.869 204.464H778.581L775.877 199.984V206H773.013V194.8H775.877L778.725 199.584L781.589 194.8H784.437ZM789.08 203.312H793.416V206H786.216V194.8H793.336V197.472H789.08V199.024H792.936V201.664H789.08V203.312ZM802.458 194.8V197.568H799.69V206H796.826V197.568H794.058V194.8H802.458ZM809.337 206L807.385 202.384H806.361V206H803.497V194.8H807.977C809.119 194.8 810.073 195.168 810.841 195.904C811.62 196.629 812.009 197.552 812.009 198.672C812.009 199.344 811.839 199.963 811.497 200.528C811.156 201.083 810.692 201.525 810.105 201.856L812.409 206H809.337ZM806.361 197.44V199.952H807.945C808.297 199.963 808.585 199.851 808.809 199.616C809.033 199.381 809.145 199.077 809.145 198.704C809.145 198.331 809.033 198.027 808.809 197.792C808.585 197.557 808.297 197.44 807.945 197.44H806.361ZM813.419 194.8H816.283V206H813.419V194.8ZM823.452 206.24C821.767 206.24 820.369 205.685 819.26 204.576C818.161 203.456 817.612 202.064 817.612 200.4C817.612 198.736 818.161 197.349 819.26 196.24C820.369 195.12 821.767 194.56 823.452 194.56C824.465 194.56 825.404 194.8 826.268 195.28C827.132 195.76 827.809 196.405 828.3 197.216L825.82 198.64C825.607 198.245 825.287 197.936 824.86 197.712C824.444 197.477 823.975 197.36 823.452 197.36C822.556 197.36 821.831 197.643 821.276 198.208C820.732 198.763 820.46 199.493 820.46 200.4C820.46 201.307 820.732 202.043 821.276 202.608C821.831 203.163 822.556 203.44 823.452 203.44C823.975 203.44 824.444 203.328 824.86 203.104C825.287 202.869 825.607 202.549 825.82 202.144L828.3 203.584C827.809 204.405 827.132 205.056 826.268 205.536C825.415 206.005 824.476 206.24 823.452 206.24ZM833.372 206.24C832.188 206.24 831.206 205.989 830.428 205.488C829.649 204.987 829.105 204.309 828.796 203.456L831.244 202.032C831.66 203.024 832.396 203.52 833.452 203.52C834.326 203.52 834.764 203.269 834.764 202.768C834.764 202.437 834.513 202.171 834.012 201.968C833.798 201.883 833.329 201.739 832.604 201.536C831.58 201.237 830.769 200.821 830.172 200.288C829.574 199.744 829.276 198.992 829.276 198.032C829.276 196.997 829.644 196.16 830.38 195.52C831.126 194.88 832.054 194.56 833.164 194.56C834.102 194.56 834.934 194.779 835.66 195.216C836.385 195.653 836.94 196.288 837.324 197.12L834.924 198.528C834.572 197.696 833.99 197.28 833.18 197.28C832.838 197.28 832.577 197.349 832.396 197.488C832.225 197.627 832.14 197.803 832.14 198.016C832.14 198.261 832.268 198.469 832.524 198.64C832.79 198.811 833.302 199.008 834.06 199.232C834.604 199.392 835.041 199.541 835.372 199.68C835.702 199.819 836.065 200.021 836.46 200.288C836.854 200.544 837.148 200.88 837.34 201.296C837.532 201.701 837.628 202.181 837.628 202.736C837.628 203.835 837.238 204.693 836.46 205.312C835.681 205.931 834.652 206.24 833.372 206.24Z" fill="#363636"/>
<circle cx="703" cy="189" r="44" fill="white"/>
<path d="M747 189C747 213.301 727.301 233 703 233C678.699 233 659 213.301 659 189C659 164.699 678.699 145 703 145C727.301 145 747 164.699 747 189ZM660.874 189C660.874 212.266 679.734 231.126 703 231.126C726.266 231.126 745.126 212.266 745.126 189C745.126 165.734 726.266 146.874 703 146.874C679.734 146.874 660.874 165.734 660.874 189Z" fill="#4140A6"/>
<path fill-rule="evenodd" clip-rule="evenodd" d="M681.645 167C682.001 167 682.289 167.289 682.289 167.645V169.791H683.184C683.54 169.791 683.829 170.079 683.829 170.435C683.829 170.791 683.54 171.08 683.184 171.08H682.289V175.679H683.184C683.54 175.679 683.829 175.967 683.829 176.323C683.829 176.679 683.54 176.968 683.184 176.968H682.289V181.567H683.184C683.54 181.567 683.829 181.856 683.829 182.212C683.829 182.568 683.54 182.856 683.184 182.856H682.289V187.455H683.184C683.54 187.455 683.829 187.744 683.829 188.1C683.829 188.456 683.54 188.744 683.184 188.744H682.289V200.522L685.343 199.673C685.341 199.623 685.34 199.574 685.34 199.524C685.34 197.9 686.657 196.583 688.282 196.583C688.708 196.583 689.114 196.674 689.48 196.837L691.775 193.757C691.987 193.471 692.391 193.412 692.676 193.625C692.962 193.837 693.021 194.241 692.808 194.527L690.513 197.608C690.956 198.123 691.223 198.792 691.223 199.524C691.223 200.928 690.241 202.101 688.926 202.395V206.797C688.926 207.153 688.638 207.441 688.282 207.441C687.926 207.441 687.637 207.153 687.637 206.797V202.395C686.793 202.207 686.087 201.656 685.688 200.915L682.289 201.859V209.711H703.697V208.816C703.697 208.46 703.986 208.171 704.342 208.171C704.698 208.171 704.987 208.46 704.987 208.816V209.711H709.586V208.816C709.586 208.46 709.874 208.171 710.23 208.171C710.586 208.171 710.875 208.46 710.875 208.816V209.711H715.474V208.816C715.474 208.46 715.762 208.171 716.118 208.171C716.474 208.171 716.763 208.46 716.763 208.816V209.711H721.362V208.816C721.362 208.46 721.65 208.171 722.006 208.171C722.362 208.171 722.651 208.46 722.651 208.816V209.711H724.355C724.711 209.711 725 209.999 725 210.355C725 210.711 724.711 211 724.355 211H681.645C681.289 211 681 210.711 681 210.355V201.384C681 201.374 681 201.364 681 201.355V167.645C681 167.289 681.289 167 681.645 167ZM686.697 199.994C686.899 200.678 687.532 201.177 688.282 201.177C689.194 201.177 689.934 200.437 689.934 199.524C689.934 198.986 689.677 198.508 689.278 198.206C689.275 198.204 689.272 198.201 689.269 198.199C689.266 198.197 689.262 198.194 689.259 198.192C688.985 197.99 688.647 197.872 688.282 197.872C687.369 197.872 686.629 198.612 686.629 199.524C686.629 199.668 686.647 199.808 686.682 199.941C686.685 199.95 686.687 199.958 686.69 199.967C686.692 199.976 686.694 199.985 686.697 199.994ZM722.328 169.526C722.637 169.704 722.742 170.098 722.564 170.406L716.928 180.156V203.787C716.928 204.143 716.64 204.431 716.284 204.431C715.928 204.431 715.639 204.143 715.639 203.787V180.46L714.342 180.063C713.938 180.772 713.249 181.296 712.43 181.479V199.896C712.43 200.252 712.141 200.54 711.785 200.54C711.429 200.54 711.141 200.252 711.141 199.896V181.479C710.809 181.405 710.498 181.275 710.219 181.099L707.775 183.561C707.524 183.813 707.116 183.814 706.863 183.564C706.611 183.313 706.609 182.905 706.86 182.652L709.305 180.191C709.013 179.734 708.843 179.191 708.843 178.608C708.843 176.984 710.161 175.667 711.785 175.667C713.41 175.667 714.727 176.984 714.727 178.608C714.727 178.683 714.724 178.757 714.719 178.831L715.983 179.217L721.448 169.761C721.626 169.453 722.02 169.347 722.328 169.526ZM710.635 179.795C710.63 179.79 710.625 179.785 710.621 179.78C710.616 179.776 710.611 179.771 710.606 179.767C710.313 179.468 710.132 179.059 710.132 178.608C710.132 177.696 710.872 176.956 711.785 176.956C712.698 176.956 713.438 177.696 713.438 178.608C713.438 179.521 712.698 180.261 711.785 180.261C711.338 180.261 710.932 180.083 710.635 179.795ZM686.093 175.718C686.093 172.345 688.827 169.611 692.2 169.611C695.01 169.611 697.373 171.507 698.086 174.088C698.181 174.431 697.98 174.786 697.637 174.881C697.294 174.976 696.939 174.774 696.844 174.431C696.28 172.394 694.415 170.9 692.2 170.9C689.539 170.9 687.382 173.057 687.382 175.718C687.382 178.38 689.539 180.537 692.2 180.537C694.432 180.537 696.31 179.019 696.857 176.958C696.949 176.614 697.302 176.409 697.646 176.5C697.99 176.592 698.195 176.944 698.103 177.289C697.41 179.9 695.032 181.826 692.2 181.826C688.827 181.826 686.093 179.092 686.093 175.718ZM701.582 171.532C701.753 171.532 701.917 171.6 702.038 171.721L703.016 172.699C703.268 172.95 703.268 173.358 703.016 173.61C702.764 173.862 702.356 173.862 702.104 173.61L701.582 173.088L701.06 173.61C700.809 173.862 700.401 173.862 700.149 173.61C699.897 173.358 699.897 172.95 700.149 172.699L701.127 171.721C701.247 171.6 701.411 171.532 701.582 171.532ZM692.2 171.936C692.556 171.936 692.845 172.225 692.845 172.581V172.81C693.348 172.892 693.782 173.181 694.055 173.585C694.254 173.88 694.176 174.281 693.881 174.48C693.586 174.679 693.186 174.602 692.987 174.307C692.892 174.166 692.733 174.076 692.553 174.076H691.848C691.559 174.076 691.325 174.31 691.325 174.598C691.325 174.886 691.559 175.12 691.848 175.12H692.553C693.554 175.12 694.365 175.931 694.365 176.931C694.365 177.832 693.707 178.58 692.845 178.719V178.856C692.845 179.212 692.556 179.5 692.2 179.5C691.845 179.5 691.556 179.212 691.556 178.856V178.719C690.933 178.618 690.417 178.2 690.179 177.637C690.04 177.309 690.194 176.931 690.522 176.792C690.849 176.653 691.228 176.807 691.366 177.134C691.446 177.323 691.632 177.454 691.848 177.454H692.553C692.842 177.454 693.075 177.22 693.075 176.931C693.075 176.643 692.842 176.409 692.553 176.409H691.848C690.847 176.409 690.036 175.598 690.036 174.598C690.036 173.697 690.694 172.95 691.556 172.81V172.581C691.556 172.225 691.845 171.936 692.2 171.936ZM701.582 174.585C701.753 174.585 701.917 174.653 702.038 174.774L703.016 175.752C703.268 176.003 703.268 176.411 703.016 176.663C702.764 176.915 702.356 176.915 702.104 176.663L701.582 176.141L701.06 176.663C700.809 176.915 700.401 176.915 700.149 176.663C699.897 176.411 699.897 176.003 700.149 175.752L701.127 174.774C701.247 174.653 701.411 174.585 701.582 174.585ZM701.582 179.194L701.06 179.716C700.809 179.968 700.401 179.968 700.149 179.716C699.897 179.464 699.897 179.056 700.149 178.805L701.127 177.827C701.378 177.575 701.786 177.575 702.038 177.827L703.016 178.805C703.267 179.056 703.268 179.464 703.016 179.716C702.764 179.968 702.356 179.968 702.104 179.716L701.582 179.194ZM705.759 184.676C706.012 184.926 706.013 185.335 705.762 185.587L702.108 189.265V204.573C702.108 204.929 701.82 205.217 701.464 205.217C701.108 205.217 700.819 204.929 700.819 204.573V189.506L699.581 189.202C699.191 189.984 698.464 190.568 697.59 190.763V203.059C697.59 203.415 697.302 203.704 696.946 203.704C696.59 203.704 696.301 203.415 696.301 203.059V190.763C696.109 190.72 695.924 190.658 695.748 190.58L694.525 192.221C694.313 192.506 693.909 192.565 693.623 192.353C693.338 192.14 693.279 191.736 693.492 191.451L694.714 189.809C694.272 189.294 694.004 188.624 694.004 187.892C694.004 186.267 695.321 184.95 696.946 184.95C698.571 184.95 699.888 186.267 699.888 187.892C699.888 187.912 699.888 187.931 699.887 187.95L701.263 188.287L704.848 184.679C705.098 184.426 705.507 184.425 705.759 184.676ZM698.557 188.263C698.584 188.144 698.599 188.02 698.599 187.892C698.599 186.979 697.859 186.239 696.946 186.239C696.033 186.239 695.293 186.979 695.293 187.892C695.293 188.805 696.033 189.545 696.946 189.545C697.714 189.545 698.36 189.021 698.545 188.31C698.547 188.302 698.549 188.294 698.551 188.286C698.553 188.278 698.555 188.271 698.557 188.263Z" fill="#4140A6"/>
<path d="M941.429 102.8V114H938.581V107.968L935.861 112.464H935.573L932.869 107.984V114H930.005V102.8H932.869L935.717 107.584L938.581 102.8H941.429ZM952.808 112.56C951.677 113.68 950.291 114.24 948.648 114.24C947.005 114.24 945.613 113.68 944.472 112.56C943.341 111.429 942.776 110.043 942.776 108.4C942.776 106.757 943.341 105.376 944.472 104.256C945.613 103.125 947.005 102.56 948.648 102.56C950.291 102.56 951.677 103.125 952.808 104.256C953.949 105.376 954.52 106.757 954.52 108.4C954.52 110.043 953.949 111.429 952.808 112.56ZM946.488 110.592C947.064 111.157 947.784 111.44 948.648 111.44C949.512 111.44 950.232 111.157 950.808 110.592C951.384 110.016 951.672 109.285 951.672 108.4C951.672 107.515 951.384 106.789 950.808 106.224C950.232 105.648 949.512 105.36 948.648 105.36C947.784 105.36 947.064 105.648 946.488 106.224C945.912 106.789 945.624 107.515 945.624 108.4C945.624 109.285 945.912 110.016 946.488 110.592ZM962.025 102.8H964.873V114H962.665L958.713 108.368V114H955.849V102.8H958.073L962.025 108.432V102.8ZM974.326 102.8V105.568H971.558V114H968.694V105.568H965.926V102.8H974.326ZM981.38 102.8H984.228V114H981.38V109.696H978.228V114H975.364V102.8H978.228V106.944H981.38V102.8ZM988.869 111.232H992.725V114H986.005V102.8H988.869V111.232ZM1001.87 102.8L998.093 109.696V114H995.229V109.728L991.453 102.8H994.669L996.653 106.944L998.653 102.8H1001.87ZM911.32 127.584V128.72C911.32 130.363 910.803 131.696 909.768 132.72C908.744 133.733 907.411 134.24 905.768 134.24C904.019 134.24 902.579 133.68 901.448 132.56C900.328 131.44 899.768 130.059 899.768 128.416C899.768 126.773 900.328 125.387 901.448 124.256C902.568 123.125 903.955 122.56 905.608 122.56C906.654 122.56 907.608 122.795 908.472 123.264C909.347 123.733 910.03 124.357 910.52 125.136L908.088 126.528C907.864 126.176 907.534 125.893 907.096 125.68C906.67 125.467 906.184 125.36 905.64 125.36C904.755 125.36 904.03 125.648 903.464 126.224C902.899 126.8 902.616 127.536 902.616 128.432C902.616 129.296 902.894 130.027 903.448 130.624C904.014 131.221 904.803 131.52 905.816 131.52C907.118 131.52 907.976 131.029 908.392 130.048H905.672V127.584H911.32ZM918.493 134L916.541 130.384H915.517V134H912.653V122.8H917.133C918.275 122.8 919.229 123.168 919.997 123.904C920.776 124.629 921.165 125.552 921.165 126.672C921.165 127.344 920.995 127.963 920.653 128.528C920.312 129.083 919.848 129.525 919.261 129.856L921.565 134H918.493ZM915.517 125.44V127.952H917.101C917.453 127.963 917.741 127.851 917.965 127.616C918.189 127.381 918.301 127.077 918.301 126.704C918.301 126.331 918.189 126.027 917.965 125.792C917.741 125.557 917.453 125.44 917.101 125.44H915.517ZM932.019 132.56C930.888 133.68 929.502 134.24 927.859 134.24C926.216 134.24 924.824 133.68 923.683 132.56C922.552 131.429 921.987 130.043 921.987 128.4C921.987 126.757 922.552 125.376 923.683 124.256C924.824 123.125 926.216 122.56 927.859 122.56C929.502 122.56 930.888 123.125 932.019 124.256C933.16 125.376 933.731 126.757 933.731 128.4C933.731 130.043 933.16 131.429 932.019 132.56ZM925.699 130.592C926.275 131.157 926.995 131.44 927.859 131.44C928.723 131.44 929.443 131.157 930.019 130.592C930.595 130.016 930.883 129.285 930.883 128.4C930.883 127.515 930.595 126.789 930.019 126.224C929.443 125.648 928.723 125.36 927.859 125.36C926.995 125.36 926.275 125.648 925.699 126.224C925.123 126.789 924.835 127.515 924.835 128.4C924.835 129.285 925.123 130.016 925.699 130.592ZM936.833 134L933.697 122.8H936.785L938.513 129.856L940.513 122.8H942.769L944.769 129.856L946.513 122.8H949.585L946.465 134H943.441L941.649 127.68L939.857 134H936.833ZM958.271 122.8V125.568H955.503V134H952.639V125.568H949.871V122.8H958.271ZM965.326 122.8H968.174V134H965.326V129.696H962.174V134H959.31V122.8H962.174V126.944H965.326V122.8ZM979.415 134L977.463 130.384H976.439V134H973.575V122.8H978.055C979.197 122.8 980.151 123.168 980.919 123.904C981.698 124.629 982.087 125.552 982.087 126.672C982.087 127.344 981.917 127.963 981.575 128.528C981.234 129.083 980.77 129.525 980.183 129.856L982.487 134H979.415ZM976.439 125.44V127.952H978.023C978.375 127.963 978.663 127.851 978.887 127.616C979.111 127.381 979.223 127.077 979.223 126.704C979.223 126.331 979.111 126.027 978.887 125.792C978.663 125.557 978.375 125.44 978.023 125.44H976.439ZM986.361 131.312H990.697V134H983.497V122.8H990.617V125.472H986.361V127.024H990.217V129.664H986.361V131.312ZM996.412 122.8C997.542 122.8 998.492 123.168 999.26 123.904C1000.03 124.64 1000.41 125.579 1000.41 126.72C1000.41 127.861 1000.03 128.8 999.26 129.536C998.492 130.272 997.542 130.64 996.412 130.64H994.924V134H992.06V122.8H996.412ZM996.412 127.92C996.732 127.92 996.998 127.808 997.212 127.584C997.436 127.36 997.548 127.072 997.548 126.72C997.548 126.368 997.436 126.085 997.212 125.872C996.998 125.648 996.732 125.536 996.412 125.536H994.924V127.92H996.412ZM1011.11 132.56C1009.98 133.68 1008.6 134.24 1006.95 134.24C1005.31 134.24 1003.92 133.68 1002.78 132.56C1001.65 131.429 1001.08 130.043 1001.08 128.4C1001.08 126.757 1001.65 125.376 1002.78 124.256C1003.92 123.125 1005.31 122.56 1006.95 122.56C1008.6 122.56 1009.98 123.125 1011.11 124.256C1012.25 125.376 1012.82 126.757 1012.82 128.4C1012.82 130.043 1012.25 131.429 1011.11 132.56ZM1004.79 130.592C1005.37 131.157 1006.09 131.44 1006.95 131.44C1007.82 131.44 1008.54 131.157 1009.11 130.592C1009.69 130.016 1009.98 129.285 1009.98 128.4C1009.98 127.515 1009.69 126.789 1009.11 126.224C1008.54 125.648 1007.82 125.36 1006.95 125.36C1006.09 125.36 1005.37 125.648 1004.79 126.224C1004.22 126.789 1003.93 127.515 1003.93 128.4C1003.93 129.285 1004.22 130.016 1004.79 130.592ZM1019.99 134L1018.04 130.384H1017.02V134H1014.15V122.8H1018.63C1019.77 122.8 1020.73 123.168 1021.5 123.904C1022.28 124.629 1022.67 125.552 1022.67 126.672C1022.67 127.344 1022.49 127.963 1022.15 128.528C1021.81 129.083 1021.35 129.525 1020.76 129.856L1023.07 134H1019.99ZM1017.02 125.44V127.952H1018.6C1018.95 127.963 1019.24 127.851 1019.47 127.616C1019.69 127.381 1019.8 127.077 1019.8 126.704C1019.8 126.331 1019.69 126.027 1019.47 125.792C1019.24 125.557 1018.95 125.44 1018.6 125.44H1017.02ZM1031.52 122.8V125.568H1028.75V134H1025.89V125.568H1023.12V122.8H1031.52Z" fill="#363636"/>
<circle cx="966" cy="189" r="44" fill="white"/>
<path d="M1010 189C1010 213.301 990.301 233 966 233C941.699 233 922 213.301 922 189C922 164.699 941.699 145 966 145C990.301 145 1010 164.699 1010 189ZM923.874 189C923.874 212.266 942.734 231.126 966 231.126C989.266 231.126 1008.13 212.266 1008.13 189C1008.13 165.734 989.266 146.874 966 146.874C942.734 146.874 923.874 165.734 923.874 189Z" fill="#4140A6"/>
<path fill-rule="evenodd" clip-rule="evenodd" d="M950 167.645C950 167.289 950.289 167 950.645 167H981.897C982.253 167 982.541 167.289 982.541 167.645V172.341C982.541 172.697 982.253 172.986 981.897 172.986C981.541 172.986 981.252 172.697 981.252 172.341V168.289H951.289V198.261C951.289 198.617 951 198.905 950.645 198.905C950.289 198.905 950 198.617 950 198.261V167.645ZM958.681 170.422C958.681 170.066 958.97 169.778 959.326 169.778H973.216C973.572 169.778 973.86 170.066 973.86 170.422V173.2C973.86 173.556 973.572 173.845 973.216 173.845H959.326C958.97 173.845 958.681 173.556 958.681 173.2V170.422ZM959.97 171.067V172.556H972.571V171.067H959.97ZM981.897 174.704C982.253 174.704 982.541 174.993 982.541 175.349V210.355C982.541 210.711 982.253 211 981.897 211H950.645C950.289 211 950 210.711 950 210.355V201.268C950 200.912 950.289 200.624 950.645 200.624C951.001 200.624 951.289 200.912 951.289 201.268V209.711H981.252V175.349C981.252 174.993 981.541 174.704 981.897 174.704ZM957.763 176.71C955.722 176.71 954.067 178.364 954.067 180.406C954.067 182.447 955.722 184.102 957.763 184.102C959.804 184.102 961.459 182.447 961.459 180.406C961.459 178.364 959.804 176.71 957.763 176.71ZM952.778 180.406C952.778 177.652 955.01 175.421 957.763 175.421C960.516 175.421 962.748 177.652 962.748 180.406C962.748 183.159 960.516 185.391 957.763 185.391C955.01 185.391 952.778 183.159 952.778 180.406ZM965.626 176.065C965.626 175.709 965.915 175.421 966.271 175.421H979.119C979.475 175.421 979.763 175.709 979.763 176.065C979.763 176.421 979.475 176.71 979.119 176.71H966.271C965.915 176.71 965.626 176.421 965.626 176.065ZM965.626 178.959C965.626 178.603 965.915 178.314 966.271 178.314H979.119C979.475 178.314 979.763 178.603 979.763 178.959C979.763 179.315 979.475 179.603 979.119 179.603H966.271C965.915 179.603 965.626 179.315 965.626 178.959ZM965.626 181.853C965.626 181.497 965.915 181.208 966.271 181.208H979.119C979.475 181.208 979.763 181.497 979.763 181.853C979.763 182.209 979.475 182.497 979.119 182.497H966.271C965.915 182.497 965.626 182.209 965.626 181.853ZM965.626 184.746C965.626 184.39 965.915 184.102 966.271 184.102H973.91C974.266 184.102 974.555 184.39 974.555 184.746C974.555 185.102 974.266 185.391 973.91 185.391H966.271C965.915 185.391 965.626 185.102 965.626 184.746ZM953.907 189C953.907 188.644 954.195 188.355 954.551 188.355H966.271C966.627 188.355 966.915 188.644 966.915 189C966.915 189.356 966.627 189.644 966.271 189.644H954.551C954.195 189.644 953.907 189.356 953.907 189ZM953.907 191.894C953.907 191.538 954.195 191.249 954.551 191.249H966.271C966.627 191.249 966.915 191.538 966.915 191.894C966.915 192.25 966.627 192.538 966.271 192.538H954.551C954.195 192.538 953.907 192.25 953.907 191.894ZM973.96 191.952C973.96 191.596 974.249 191.307 974.605 191.307H978.771C979.127 191.307 979.416 191.596 979.416 191.952V194.225C979.416 194.581 979.127 194.869 978.771 194.869C978.415 194.869 978.127 194.581 978.127 194.225V192.596H975.249V206.932H978.127V197.233C978.127 196.877 978.415 196.588 978.771 196.588C979.127 196.588 979.416 196.877 979.416 197.233V207.577C979.416 207.933 979.127 208.221 978.771 208.221H974.605C974.249 208.221 973.96 207.933 973.96 207.577V191.952ZM953.907 194.787C953.907 194.431 954.195 194.143 954.551 194.143H961.062C961.418 194.143 961.707 194.431 961.707 194.787C961.707 195.143 961.418 195.432 961.062 195.432H954.551C954.195 195.432 953.907 195.143 953.907 194.787ZM967.015 195.424C967.015 195.068 967.304 194.779 967.66 194.779H971.826C972.182 194.779 972.471 195.068 972.471 195.424V207.577C972.471 207.933 972.182 208.222 971.826 208.222H967.66C967.304 208.222 967.015 207.933 967.015 207.577V195.424ZM968.304 196.068V206.933H971.182V196.068H968.304ZM960.07 200.633C960.07 200.277 960.359 199.988 960.715 199.988H964.882C965.238 199.988 965.526 200.277 965.526 200.633V207.577C965.526 207.933 965.238 208.222 964.882 208.222H960.715C960.359 208.222 960.07 207.933 960.07 207.577V200.633ZM961.359 201.277V206.933H964.237V201.277H961.359ZM953.125 204.8C953.125 204.444 953.414 204.155 953.77 204.155H957.937C958.293 204.155 958.581 204.444 958.581 204.8V207.577C958.581 207.933 958.293 208.222 957.937 208.222H953.77C953.414 208.222 953.125 207.933 953.125 207.577V204.8ZM954.414 205.444V206.933H957.292V205.444H954.414Z" fill="#4140A6"/>
<path d="M1023.32 219.36C1021.54 219.36 1020.07 218.984 1018.9 218.232C1017.74 217.48 1016.92 216.464 1016.46 215.184L1020.13 213.048C1020.75 214.536 1021.86 215.28 1023.44 215.28C1024.75 215.28 1025.41 214.904 1025.41 214.152C1025.41 213.656 1025.03 213.256 1024.28 212.952C1023.96 212.824 1023.26 212.608 1022.17 212.304C1020.63 211.856 1019.42 211.232 1018.52 210.432C1017.62 209.616 1017.18 208.488 1017.18 207.048C1017.18 205.496 1017.73 204.24 1018.83 203.28C1019.95 202.32 1021.34 201.84 1023.01 201.84C1024.42 201.84 1025.66 202.168 1026.75 202.824C1027.84 203.48 1028.67 204.432 1029.25 205.68L1025.65 207.792C1025.12 206.544 1024.25 205.92 1023.03 205.92C1022.52 205.92 1022.13 206.024 1021.86 206.232C1021.6 206.44 1021.47 206.704 1021.47 207.024C1021.47 207.392 1021.66 207.704 1022.05 207.96C1022.45 208.216 1023.22 208.512 1024.35 208.848C1025.17 209.088 1025.82 209.312 1026.32 209.52C1026.82 209.728 1027.36 210.032 1027.95 210.432C1028.54 210.816 1028.98 211.32 1029.27 211.944C1029.56 212.552 1029.7 213.272 1029.7 214.104C1029.7 215.752 1029.12 217.04 1027.95 217.968C1026.78 218.896 1025.24 219.36 1023.32 219.36ZM1035.56 214.968H1042.07V219H1031.27V202.2H1041.95V206.208H1035.56V208.536H1041.35V212.496H1035.56V214.968ZM1053.37 202.2H1057.65V219H1054.33L1048.41 210.552V219H1044.11V202.2H1047.45L1053.37 210.648V202.2ZM1067.14 202.2C1069.46 202.2 1071.4 203.008 1072.95 204.624C1074.52 206.224 1075.3 208.216 1075.3 210.6C1075.3 212.984 1074.52 214.984 1072.95 216.6C1071.4 218.2 1069.46 219 1067.14 219H1060.3V202.2H1067.14ZM1067.14 214.848C1068.31 214.848 1069.26 214.464 1070 213.696C1070.74 212.912 1071.1 211.88 1071.1 210.6C1071.1 209.32 1070.74 208.296 1070 207.528C1069.26 206.744 1068.31 206.352 1067.14 206.352H1064.72V214.848H1067.14Z" fill="#4140A6"/>
<path d="M943.987 359.64H949.407V363H940.407V349H949.307V352.34H943.987V354.28H948.807V357.58H943.987V359.64ZM954.15 355.92C954.15 356.107 954.316 356.26 954.65 356.38C954.996 356.5 955.41 356.613 955.89 356.72C956.383 356.827 956.87 356.98 957.35 357.18C957.843 357.367 958.256 357.693 958.59 358.16C958.936 358.627 959.11 359.213 959.11 359.92C959.11 361.067 958.683 361.913 957.83 362.46C956.976 363.007 955.963 363.28 954.79 363.28C952.55 363.28 951.056 362.487 950.31 360.9L953.21 359.44C953.463 360.173 953.983 360.54 954.77 360.54C955.37 360.54 955.67 360.36 955.67 360C955.67 359.813 955.503 359.66 955.17 359.54C954.836 359.42 954.43 359.3 953.95 359.18C953.47 359.06 952.99 358.9 952.51 358.7C952.03 358.5 951.623 358.18 951.29 357.74C950.956 357.287 950.79 356.733 950.79 356.08C950.79 355.013 951.183 354.187 951.97 353.6C952.756 353.013 953.703 352.72 954.81 352.72C956.783 352.72 958.156 353.493 958.93 355.04L956.13 356.3C955.836 355.727 955.423 355.44 954.89 355.44C954.396 355.44 954.15 355.6 954.15 355.92ZM965.204 363.28C963.684 363.28 962.418 362.773 961.404 361.76C960.391 360.747 959.884 359.493 959.884 358C959.884 356.507 960.391 355.253 961.404 354.24C962.418 353.227 963.684 352.72 965.204 352.72C966.191 352.72 967.084 352.953 967.884 353.42C968.698 353.887 969.324 354.513 969.764 355.3L966.924 356.94C966.564 356.287 965.984 355.96 965.184 355.96C964.624 355.96 964.158 356.153 963.784 356.54C963.411 356.913 963.224 357.4 963.224 358C963.224 358.6 963.411 359.093 963.784 359.48C964.158 359.853 964.624 360.04 965.184 360.04C966.011 360.04 966.591 359.707 966.924 359.04L969.764 360.68C969.324 361.48 968.698 362.113 967.884 362.58C967.084 363.047 966.191 363.28 965.204 363.28ZM977.698 353H981.018V363H977.698V362.08C977.018 362.88 976.071 363.28 974.858 363.28C973.524 363.28 972.404 362.78 971.498 361.78C970.604 360.767 970.158 359.507 970.158 358C970.158 356.493 970.604 355.24 971.498 354.24C972.404 353.227 973.524 352.72 974.858 352.72C976.071 352.72 977.018 353.12 977.698 353.92V353ZM974.078 359.58C974.464 359.98 974.971 360.18 975.598 360.18C976.224 360.18 976.731 359.98 977.118 359.58C977.504 359.18 977.698 358.653 977.698 358C977.698 357.347 977.504 356.82 977.118 356.42C976.731 356.02 976.224 355.82 975.598 355.82C974.971 355.82 974.464 356.02 974.078 356.42C973.691 356.82 973.498 357.347 973.498 358C973.498 358.653 973.691 359.18 974.078 359.58ZM982.942 363V348.4H986.262V363H982.942ZM995.217 353H998.537V363H995.217V362.08C994.537 362.88 993.591 363.28 992.377 363.28C991.044 363.28 989.924 362.78 989.017 361.78C988.124 360.767 987.677 359.507 987.677 358C987.677 356.493 988.124 355.24 989.017 354.24C989.924 353.227 991.044 352.72 992.377 352.72C993.591 352.72 994.537 353.12 995.217 353.92V353ZM991.597 359.58C991.984 359.98 992.491 360.18 993.117 360.18C993.744 360.18 994.251 359.98 994.637 359.58C995.024 359.18 995.217 358.653 995.217 358C995.217 357.347 995.024 356.82 994.637 356.42C994.251 356.02 993.744 355.82 993.117 355.82C992.491 355.82 991.984 356.02 991.597 356.42C991.211 356.82 991.017 357.347 991.017 358C991.017 358.653 991.211 359.18 991.597 359.58ZM1006.66 356.18H1004.58V359.08C1004.58 359.52 1004.74 359.793 1005.06 359.9C1005.38 360.007 1005.92 360.04 1006.66 360V363C1004.68 363.24 1003.28 363.06 1002.46 362.46C1001.66 361.847 1001.26 360.747 1001.26 359.16V356.18H999.762V353H1001.26V351.2L1004.58 350.2V353H1006.66V356.18ZM1011.2 351.62C1010.82 351.993 1010.38 352.18 1009.86 352.18C1009.34 352.18 1008.88 351.993 1008.5 351.62C1008.12 351.233 1007.94 350.78 1007.94 350.26C1007.94 349.74 1008.12 349.293 1008.5 348.92C1008.88 348.547 1009.34 348.36 1009.86 348.36C1010.38 348.36 1010.82 348.547 1011.2 348.92C1011.58 349.293 1011.78 349.74 1011.78 350.26C1011.78 350.78 1011.58 351.233 1011.2 351.62ZM1008.2 363V353H1011.52V363H1008.2ZM1018.27 363.28C1016.79 363.28 1015.53 362.773 1014.49 361.76C1013.45 360.733 1012.93 359.48 1012.93 358C1012.93 356.52 1013.45 355.273 1014.49 354.26C1015.53 353.233 1016.79 352.72 1018.27 352.72C1019.76 352.72 1021.02 353.233 1022.05 354.26C1023.09 355.273 1023.61 356.52 1023.61 358C1023.61 359.48 1023.09 360.733 1022.05 361.76C1021.02 362.773 1019.76 363.28 1018.27 363.28ZM1018.27 360.08C1018.86 360.08 1019.34 359.887 1019.71 359.5C1020.1 359.113 1020.29 358.613 1020.29 358C1020.29 357.387 1020.1 356.887 1019.71 356.5C1019.34 356.113 1018.86 355.92 1018.27 355.92C1017.7 355.92 1017.22 356.113 1016.83 356.5C1016.46 356.887 1016.27 357.387 1016.27 358C1016.27 358.613 1016.46 359.113 1016.83 359.5C1017.22 359.887 1017.7 360.08 1018.27 360.08ZM1031.17 352.72C1032.25 352.72 1033.13 353.093 1033.81 353.84C1034.5 354.573 1034.85 355.633 1034.85 357.02V363H1031.53V357.44C1031.53 356.92 1031.39 356.527 1031.11 356.26C1030.84 355.993 1030.48 355.86 1030.03 355.86C1029.51 355.86 1029.1 356.02 1028.81 356.34C1028.53 356.647 1028.39 357.093 1028.39 357.68V363H1025.07V353H1028.39V354C1028.99 353.147 1029.92 352.72 1031.17 352.72Z" fill="#E0E0E0"/>
<path d="M282.596 278H286.176V292H282.596V278ZM299.717 281.72C300.877 281.72 301.791 282.093 302.457 282.84C303.137 283.573 303.477 284.587 303.477 285.88V292H300.137V286.26C300.137 285.327 299.724 284.86 298.897 284.86C298.444 284.86 298.097 285.013 297.857 285.32C297.631 285.613 297.517 286.02 297.517 286.54V292H294.197V286.26C294.197 285.327 293.777 284.86 292.937 284.86C292.484 284.86 292.137 285.013 291.897 285.32C291.671 285.613 291.557 286.02 291.557 286.54V292H288.237V282H291.557V282.94C292.171 282.127 293.071 281.72 294.257 281.72C295.404 281.72 296.257 282.147 296.817 283C297.511 282.147 298.477 281.72 299.717 281.72ZM311.429 281.72C312.762 281.72 313.875 282.227 314.769 283.24C315.675 284.24 316.129 285.493 316.129 287C316.129 288.507 315.675 289.767 314.769 290.78C313.875 291.78 312.762 292.28 311.429 292.28C310.215 292.28 309.269 291.88 308.589 291.08V296H305.269V282H308.589V282.92C309.269 282.12 310.215 281.72 311.429 281.72ZM309.169 288.58C309.555 288.98 310.062 289.18 310.689 289.18C311.315 289.18 311.822 288.98 312.209 288.58C312.595 288.18 312.789 287.653 312.789 287C312.789 286.347 312.595 285.82 312.209 285.42C311.822 285.02 311.315 284.82 310.689 284.82C310.062 284.82 309.555 285.02 309.169 285.42C308.782 285.82 308.589 286.347 308.589 287C308.589 287.653 308.782 288.18 309.169 288.58ZM320.893 283.86C321.08 283.207 321.453 282.7 322.013 282.34C322.573 281.98 323.2 281.8 323.893 281.8V285.48C323.133 285.36 322.44 285.5 321.813 285.9C321.2 286.3 320.893 286.953 320.893 287.86V292H317.573V282H320.893V283.86ZM329.758 292.28C328.278 292.28 327.018 291.773 325.978 290.76C324.938 289.733 324.418 288.48 324.418 287C324.418 285.52 324.938 284.273 325.978 283.26C327.018 282.233 328.278 281.72 329.758 281.72C331.251 281.72 332.511 282.233 333.538 283.26C334.578 284.273 335.098 285.52 335.098 287C335.098 288.48 334.578 289.733 333.538 290.76C332.511 291.773 331.251 292.28 329.758 292.28ZM329.758 289.08C330.344 289.08 330.824 288.887 331.198 288.5C331.584 288.113 331.778 287.613 331.778 287C331.778 286.387 331.584 285.887 331.198 285.5C330.824 285.113 330.344 284.92 329.758 284.92C329.184 284.92 328.704 285.113 328.318 285.5C327.944 285.887 327.758 286.387 327.758 287C327.758 287.613 327.944 288.113 328.318 288.5C328.704 288.887 329.184 289.08 329.758 289.08ZM342.607 282H346.287L342.547 292H338.947L335.207 282H338.887L340.747 287.74L342.607 282ZM349.733 288.22C350.066 289.033 350.813 289.44 351.973 289.44C352.693 289.44 353.299 289.207 353.793 288.74L356.193 290.42C355.206 291.66 353.773 292.28 351.893 292.28C350.199 292.28 348.839 291.787 347.813 290.8C346.799 289.8 346.293 288.54 346.293 287.02C346.293 285.513 346.793 284.253 347.793 283.24C348.793 282.227 350.066 281.72 351.613 281.72C353.106 281.72 354.339 282.22 355.313 283.22C356.286 284.22 356.773 285.473 356.773 286.98C356.773 287.42 356.726 287.833 356.633 288.22H349.733ZM349.693 285.92H353.533C353.266 284.987 352.639 284.52 351.653 284.52C350.626 284.52 349.973 284.987 349.693 285.92ZM365.219 278H368.539V292H365.219V291.08C364.539 291.88 363.593 292.28 362.379 292.28C361.046 292.28 359.926 291.78 359.019 290.78C358.126 289.767 357.679 288.507 357.679 287C357.679 285.493 358.126 284.24 359.019 283.24C359.926 282.227 361.046 281.72 362.379 281.72C363.593 281.72 364.539 282.12 365.219 282.92V278ZM361.599 288.58C361.986 288.98 362.493 289.18 363.119 289.18C363.746 289.18 364.253 288.98 364.639 288.58C365.026 288.18 365.219 287.653 365.219 287C365.219 286.347 365.026 285.82 364.639 285.42C364.253 285.02 363.746 284.82 363.119 284.82C362.493 284.82 361.986 285.02 361.599 285.42C361.213 285.82 361.019 286.347 361.019 287C361.019 287.653 361.213 288.18 361.599 288.58ZM304.089 305.62C303.716 305.993 303.269 306.18 302.749 306.18C302.229 306.18 301.776 305.993 301.389 305.62C301.016 305.233 300.829 304.78 300.829 304.26C300.829 303.74 301.016 303.293 301.389 302.92C301.776 302.547 302.229 302.36 302.749 302.36C303.269 302.36 303.716 302.547 304.089 302.92C304.476 303.293 304.669 303.74 304.669 304.26C304.669 304.78 304.476 305.233 304.089 305.62ZM301.089 317V307H304.409V317H301.089ZM312.523 310.18H310.443V313.08C310.443 313.52 310.603 313.793 310.923 313.9C311.243 314.007 311.777 314.04 312.523 314V317C310.537 317.24 309.137 317.06 308.323 316.46C307.523 315.847 307.123 314.747 307.123 313.16V310.18H305.623V307H307.123V305.2L310.443 304.2V307H312.523V310.18ZM316.842 313.22C317.175 314.033 317.922 314.44 319.082 314.44C319.802 314.44 320.409 314.207 320.902 313.74L323.302 315.42C322.315 316.66 320.882 317.28 319.002 317.28C317.309 317.28 315.949 316.787 314.922 315.8C313.909 314.8 313.402 313.54 313.402 312.02C313.402 310.513 313.902 309.253 314.902 308.24C315.902 307.227 317.175 306.72 318.722 306.72C320.215 306.72 321.449 307.22 322.422 308.22C323.395 309.22 323.882 310.473 323.882 311.98C323.882 312.42 323.835 312.833 323.742 313.22H316.842ZM316.802 310.92H320.642C320.375 309.987 319.749 309.52 318.762 309.52C317.735 309.52 317.082 309.987 316.802 310.92ZM336.788 306.72C337.948 306.72 338.861 307.093 339.528 307.84C340.208 308.573 340.548 309.587 340.548 310.88V317H337.208V311.26C337.208 310.327 336.794 309.86 335.968 309.86C335.514 309.86 335.168 310.013 334.928 310.32C334.701 310.613 334.588 311.02 334.588 311.54V317H331.268V311.26C331.268 310.327 330.848 309.86 330.008 309.86C329.554 309.86 329.208 310.013 328.968 310.32C328.741 310.613 328.628 311.02 328.628 311.54V317H325.308V307H328.628V307.94C329.241 307.127 330.141 306.72 331.328 306.72C332.474 306.72 333.328 307.147 333.888 308C334.581 307.147 335.548 306.72 336.788 306.72ZM345.519 309.92C345.519 310.107 345.686 310.26 346.019 310.38C346.366 310.5 346.779 310.613 347.259 310.72C347.752 310.827 348.239 310.98 348.719 311.18C349.212 311.367 349.626 311.693 349.959 312.16C350.306 312.627 350.479 313.213 350.479 313.92C350.479 315.067 350.052 315.913 349.199 316.46C348.346 317.007 347.332 317.28 346.159 317.28C343.919 317.28 342.426 316.487 341.679 314.9L344.579 313.44C344.832 314.173 345.352 314.54 346.139 314.54C346.739 314.54 347.039 314.36 347.039 314C347.039 313.813 346.872 313.66 346.539 313.54C346.206 313.42 345.799 313.3 345.319 313.18C344.839 313.06 344.359 312.9 343.879 312.7C343.399 312.5 342.992 312.18 342.659 311.74C342.326 311.287 342.159 310.733 342.159 310.08C342.159 309.013 342.552 308.187 343.339 307.6C344.126 307.013 345.072 306.72 346.179 306.72C348.152 306.72 349.526 307.493 350.299 309.04L347.499 310.3C347.206 309.727 346.792 309.44 346.259 309.44C345.766 309.44 345.519 309.6 345.519 309.92Z" fill="#E0E0E0"/>
<circle cx="131" cy="189" r="155" fill="#24EBA3"/>
<path d="M86.5982 128.462C85.5929 128.462 84.7349 128.115 84.0242 127.422C83.3309 126.711 82.9842 125.853 82.9842 124.848C82.9842 123.877 83.3309 123.045 84.0242 122.352C84.7349 121.659 85.5929 121.312 86.5982 121.312C87.5689 121.312 88.4009 121.659 89.0942 122.352C89.7875 123.045 90.1342 123.877 90.1342 124.848C90.1342 125.853 89.7875 126.711 89.0942 127.422C88.4009 128.115 87.5689 128.462 86.5982 128.462ZM105.639 134.364C103.837 134.364 102.32 133.965 101.089 133.168C99.8587 132.353 98.992 131.253 98.4894 129.866L101.557 128.072C102.268 129.927 103.663 130.854 105.743 130.854C106.749 130.854 107.485 130.672 107.953 130.308C108.421 129.944 108.655 129.485 108.655 128.93C108.655 128.289 108.369 127.795 107.797 127.448C107.225 127.084 106.203 126.694 104.729 126.278C103.915 126.035 103.221 125.793 102.649 125.55C102.095 125.307 101.531 124.987 100.959 124.588C100.405 124.172 99.98 123.652 99.6854 123.028C99.3907 122.404 99.2434 121.676 99.2434 120.844C99.2434 119.197 99.824 117.889 100.985 116.918C102.164 115.93 103.577 115.436 105.223 115.436C106.697 115.436 107.988 115.8 109.097 116.528C110.224 117.239 111.099 118.235 111.723 119.518L108.707 121.26C107.979 119.7 106.818 118.92 105.223 118.92C104.478 118.92 103.889 119.093 103.455 119.44C103.039 119.769 102.831 120.203 102.831 120.74C102.831 121.312 103.065 121.78 103.533 122.144C104.019 122.491 104.937 122.872 106.289 123.288C106.844 123.461 107.26 123.6 107.537 123.704C107.832 123.791 108.222 123.938 108.707 124.146C109.21 124.337 109.591 124.519 109.851 124.692C110.129 124.865 110.441 125.099 110.787 125.394C111.134 125.689 111.394 125.992 111.567 126.304C111.758 126.616 111.914 126.997 112.035 127.448C112.174 127.881 112.243 128.358 112.243 128.878C112.243 130.559 111.628 131.894 110.397 132.882C109.184 133.87 107.598 134.364 105.639 134.364ZM124.663 121H128.017V134H124.663V132.466C123.658 133.731 122.245 134.364 120.425 134.364C118.692 134.364 117.201 133.705 115.953 132.388C114.722 131.053 114.107 129.424 114.107 127.5C114.107 125.576 114.722 123.955 115.953 122.638C117.201 121.303 118.692 120.636 120.425 120.636C122.245 120.636 123.658 121.269 124.663 122.534V121ZM118.475 130.152C119.151 130.828 120.009 131.166 121.049 131.166C122.089 131.166 122.947 130.828 123.623 130.152C124.316 129.459 124.663 128.575 124.663 127.5C124.663 126.425 124.316 125.55 123.623 124.874C122.947 124.181 122.089 123.834 121.049 123.834C120.009 123.834 119.151 124.181 118.475 124.874C117.799 125.55 117.461 126.425 117.461 127.5C117.461 128.575 117.799 129.459 118.475 130.152ZM131.058 134V115.02H134.412V134H131.058ZM140.316 128.878C140.767 130.507 141.989 131.322 143.982 131.322C145.265 131.322 146.236 130.889 146.894 130.022L149.598 131.582C148.316 133.437 146.426 134.364 143.93 134.364C141.781 134.364 140.056 133.714 138.756 132.414C137.456 131.114 136.806 129.476 136.806 127.5C136.806 125.541 137.448 123.912 138.73 122.612C140.013 121.295 141.66 120.636 143.67 120.636C145.577 120.636 147.146 121.295 148.376 122.612C149.624 123.929 150.248 125.559 150.248 127.5C150.248 127.933 150.205 128.393 150.118 128.878H140.316ZM140.264 126.278H146.894C146.704 125.394 146.305 124.735 145.698 124.302C145.109 123.869 144.433 123.652 143.67 123.652C142.769 123.652 142.024 123.886 141.434 124.354C140.845 124.805 140.455 125.446 140.264 126.278ZM155.176 124.692C155.176 125.039 155.401 125.325 155.852 125.55C156.32 125.758 156.883 125.949 157.542 126.122C158.201 126.278 158.859 126.486 159.518 126.746C160.177 126.989 160.731 127.405 161.182 127.994C161.65 128.583 161.884 129.32 161.884 130.204C161.884 131.539 161.381 132.57 160.376 133.298C159.388 134.009 158.149 134.364 156.658 134.364C153.989 134.364 152.169 133.333 151.198 131.27L154.11 129.632C154.491 130.759 155.341 131.322 156.658 131.322C157.854 131.322 158.452 130.949 158.452 130.204C158.452 129.857 158.218 129.58 157.75 129.372C157.299 129.147 156.745 128.947 156.086 128.774C155.427 128.601 154.769 128.384 154.11 128.124C153.451 127.864 152.888 127.457 152.42 126.902C151.969 126.33 151.744 125.619 151.744 124.77C151.744 123.487 152.212 122.482 153.148 121.754C154.101 121.009 155.28 120.636 156.684 120.636C157.741 120.636 158.703 120.879 159.57 121.364C160.437 121.832 161.121 122.508 161.624 123.392L158.764 124.952C158.348 124.068 157.655 123.626 156.684 123.626C156.251 123.626 155.887 123.721 155.592 123.912C155.315 124.103 155.176 124.363 155.176 124.692ZM60.5982 159.462C59.5929 159.462 58.7349 159.115 58.0242 158.422C57.3309 157.711 56.9842 156.853 56.9842 155.848C56.9842 154.877 57.3309 154.045 58.0242 153.352C58.7349 152.659 59.5929 152.312 60.5982 152.312C61.5689 152.312 62.4009 152.659 63.0942 153.352C63.7875 154.045 64.1342 154.877 64.1342 155.848C64.1342 156.853 63.7875 157.711 63.0942 158.422C62.4009 159.115 61.5689 159.462 60.5982 159.462ZM77.0134 161.568H83.9554V165H73.4254V146.8H77.0134V161.568ZM88.4178 159.878C88.8685 161.507 90.0905 162.322 92.0838 162.322C93.3665 162.322 94.3371 161.889 94.9958 161.022L97.6998 162.582C96.4171 164.437 94.5278 165.364 92.0318 165.364C89.8825 165.364 88.1578 164.714 86.8578 163.414C85.5578 162.114 84.9078 160.476 84.9078 158.5C84.9078 156.541 85.5491 154.912 86.8318 153.612C88.1145 152.295 89.7611 151.636 91.7718 151.636C93.6785 151.636 95.2471 152.295 96.4778 153.612C97.7258 154.929 98.3498 156.559 98.3498 158.5C98.3498 158.933 98.3065 159.393 98.2198 159.878H88.4178ZM88.3658 157.278H94.9958C94.8051 156.394 94.4065 155.735 93.7998 155.302C93.2105 154.869 92.5345 154.652 91.7718 154.652C90.8705 154.652 90.1251 154.886 89.5358 155.354C88.9465 155.805 88.5565 156.446 88.3658 157.278ZM110.47 152H113.824V165H110.47V163.466C109.464 164.731 108.052 165.364 106.232 165.364C104.498 165.364 103.008 164.705 101.76 163.388C100.529 162.053 99.9137 160.424 99.9137 158.5C99.9137 156.576 100.529 154.955 101.76 153.638C103.008 152.303 104.498 151.636 106.232 151.636C108.052 151.636 109.464 152.269 110.47 153.534V152ZM104.282 161.152C104.958 161.828 105.816 162.166 106.856 162.166C107.896 162.166 108.754 161.828 109.43 161.152C110.123 160.459 110.47 159.575 110.47 158.5C110.47 157.425 110.123 156.55 109.43 155.874C108.754 155.181 107.896 154.834 106.856 154.834C105.816 154.834 104.958 155.181 104.282 155.874C103.606 156.55 103.268 157.425 103.268 158.5C103.268 159.575 103.606 160.459 104.282 161.152ZM126.719 146.8H130.073V165H126.719V163.466C125.731 164.731 124.327 165.364 122.507 165.364C120.756 165.364 119.257 164.705 118.009 163.388C116.778 162.053 116.163 160.424 116.163 158.5C116.163 156.576 116.778 154.955 118.009 153.638C119.257 152.303 120.756 151.636 122.507 151.636C124.327 151.636 125.731 152.269 126.719 153.534V146.8ZM120.531 161.152C121.224 161.828 122.091 162.166 123.131 162.166C124.171 162.166 125.029 161.828 125.705 161.152C126.381 160.459 126.719 159.575 126.719 158.5C126.719 157.425 126.381 156.55 125.705 155.874C125.029 155.181 124.171 154.834 123.131 154.834C122.091 154.834 121.224 155.181 120.531 155.874C119.855 156.55 119.517 157.425 119.517 158.5C119.517 159.575 119.855 160.459 120.531 161.152ZM157.658 155.224V156.628C157.658 159.228 156.826 161.334 155.162 162.946C153.498 164.558 151.349 165.364 148.714 165.364C145.906 165.364 143.575 164.454 141.72 162.634C139.883 160.797 138.964 158.561 138.964 155.926C138.964 153.274 139.874 151.029 141.694 149.192C143.532 147.355 145.802 146.436 148.506 146.436C150.205 146.436 151.756 146.826 153.16 147.606C154.564 148.369 155.656 149.391 156.436 150.674L153.368 152.442C152.935 151.697 152.276 151.09 151.392 150.622C150.526 150.154 149.555 149.92 148.48 149.92C146.747 149.92 145.317 150.492 144.19 151.636C143.081 152.763 142.526 154.193 142.526 155.926C142.526 157.642 143.09 159.063 144.216 160.19C145.36 161.299 146.868 161.854 148.74 161.854C150.127 161.854 151.271 161.551 152.172 160.944C153.091 160.32 153.715 159.471 154.044 158.396H148.532V155.224H157.658ZM162.889 159.878C163.339 161.507 164.561 162.322 166.555 162.322C167.837 162.322 168.808 161.889 169.467 161.022L172.171 162.582C170.888 164.437 168.999 165.364 166.503 165.364C164.353 165.364 162.629 164.714 161.329 163.414C160.029 162.114 159.379 160.476 159.379 158.5C159.379 156.541 160.02 154.912 161.303 153.612C162.585 152.295 164.232 151.636 166.243 151.636C168.149 151.636 169.718 152.295 170.949 153.612C172.197 154.929 172.821 156.559 172.821 158.5C172.821 158.933 172.777 159.393 172.691 159.878H162.889ZM162.837 157.278H169.467C169.276 156.394 168.877 155.735 168.271 155.302C167.681 154.869 167.005 154.652 166.243 154.652C165.341 154.652 164.596 154.886 164.007 155.354C163.417 155.805 163.027 156.446 162.837 157.278ZM182.39 151.636C183.811 151.636 184.981 152.113 185.9 153.066C186.836 154.019 187.304 155.337 187.304 157.018V165H183.95V157.434C183.95 156.567 183.716 155.909 183.248 155.458C182.78 154.99 182.156 154.756 181.376 154.756C180.509 154.756 179.816 155.025 179.296 155.562C178.776 156.099 178.516 156.905 178.516 157.98V165H175.162V152H178.516V153.456C179.331 152.243 180.622 151.636 182.39 151.636ZM25.8511 190.462C24.8458 190.462 23.9878 190.115 23.2771 189.422C22.5838 188.711 22.2371 187.853 22.2371 186.848C22.2371 185.877 22.5838 185.045 23.2771 184.352C23.9878 183.659 24.8458 183.312 25.8511 183.312C26.8218 183.312 27.6538 183.659 28.3471 184.352C29.0405 185.045 29.3871 185.877 29.3871 186.848C29.3871 187.853 29.0405 188.711 28.3471 189.422C27.6538 190.115 26.8218 190.462 25.8511 190.462ZM45.4643 196.364C43.4363 196.364 41.7723 195.792 40.4723 194.648C39.1723 193.504 38.5223 191.97 38.5223 190.046V177.8H42.0843V189.76C42.0843 190.713 42.3529 191.467 42.8903 192.022C43.4449 192.577 44.3029 192.854 45.4643 192.854C46.6256 192.854 47.4749 192.577 48.0123 192.022C48.5669 191.467 48.8443 190.713 48.8443 189.76V177.8H52.4323V190.046C52.4323 191.97 51.7823 193.504 50.4823 194.648C49.1823 195.792 47.5096 196.364 45.4643 196.364ZM58.4757 186.692C58.4757 187.039 58.701 187.325 59.1517 187.55C59.6197 187.758 60.183 187.949 60.8417 188.122C61.5003 188.278 62.159 188.486 62.8177 188.746C63.4763 188.989 64.031 189.405 64.4817 189.994C64.9497 190.583 65.1837 191.32 65.1837 192.204C65.1837 193.539 64.681 194.57 63.6757 195.298C62.6877 196.009 61.4483 196.364 59.9577 196.364C57.2883 196.364 55.4683 195.333 54.4977 193.27L57.4097 191.632C57.791 192.759 58.6403 193.322 59.9577 193.322C61.1537 193.322 61.7517 192.949 61.7517 192.204C61.7517 191.857 61.5177 191.58 61.0497 191.372C60.599 191.147 60.0443 190.947 59.3857 190.774C58.727 190.601 58.0683 190.384 57.4097 190.124C56.751 189.864 56.1877 189.457 55.7197 188.902C55.269 188.33 55.0437 187.619 55.0437 186.77C55.0437 185.487 55.5117 184.482 56.4477 183.754C57.401 183.009 58.5797 182.636 59.9837 182.636C61.041 182.636 62.003 182.879 62.8697 183.364C63.7363 183.832 64.421 184.508 64.9237 185.392L62.0637 186.952C61.6477 186.068 60.9543 185.626 59.9837 185.626C59.5503 185.626 59.1863 185.721 58.8917 185.912C58.6143 186.103 58.4757 186.363 58.4757 186.692ZM69.9969 190.878C70.4476 192.507 71.6696 193.322 73.6629 193.322C74.9456 193.322 75.9162 192.889 76.5749 192.022L79.2789 193.582C77.9962 195.437 76.1069 196.364 73.6109 196.364C71.4616 196.364 69.7369 195.714 68.4369 194.414C67.1369 193.114 66.4869 191.476 66.4869 189.5C66.4869 187.541 67.1282 185.912 68.4109 184.612C69.6936 183.295 71.3402 182.636 73.3509 182.636C75.2576 182.636 76.8262 183.295 78.0569 184.612C79.3049 185.929 79.9289 187.559 79.9289 189.5C79.9289 189.933 79.8856 190.393 79.7989 190.878H69.9969ZM69.9449 188.278H76.5749C76.3842 187.394 75.9856 186.735 75.3789 186.302C74.7896 185.869 74.1136 185.652 73.3509 185.652C72.4496 185.652 71.7042 185.886 71.1149 186.354C70.5256 186.805 70.1356 187.446 69.9449 188.278ZM85.6243 185.236C85.9363 184.404 86.4477 183.78 87.1583 183.364C87.8863 182.948 88.6923 182.74 89.5763 182.74V186.484C88.5537 186.363 87.635 186.571 86.8203 187.108C86.023 187.645 85.6243 188.538 85.6243 189.786V196H82.2703V183H85.6243V185.236ZM101.782 192.568H109.452V196H98.1939V177.8H109.322V181.232H101.782V185.106H108.672V188.486H101.782V192.568ZM123.811 196H119.937L117.129 192.048L114.295 196H110.421L115.179 189.37L110.629 183H114.503L117.129 186.666L119.755 183H123.603L119.053 189.344L123.811 196ZM133.051 182.636C134.802 182.636 136.293 183.303 137.523 184.638C138.771 185.955 139.395 187.576 139.395 189.5C139.395 191.424 138.771 193.053 137.523 194.388C136.293 195.705 134.802 196.364 133.051 196.364C131.231 196.364 129.827 195.731 128.839 194.466V201.2H125.485V183H128.839V184.534C129.827 183.269 131.231 182.636 133.051 182.636ZM129.853 192.152C130.529 192.828 131.387 193.166 132.427 193.166C133.467 193.166 134.325 192.828 135.001 192.152C135.695 191.459 136.041 190.575 136.041 189.5C136.041 188.425 135.695 187.55 135.001 186.874C134.325 186.181 133.467 185.834 132.427 185.834C131.387 185.834 130.529 186.181 129.853 186.874C129.177 187.55 128.839 188.425 128.839 189.5C128.839 190.575 129.177 191.459 129.853 192.152ZM144.595 190.878C145.045 192.507 146.267 193.322 148.261 193.322C149.543 193.322 150.514 192.889 151.173 192.022L153.877 193.582C152.594 195.437 150.705 196.364 148.209 196.364C146.059 196.364 144.335 195.714 143.035 194.414C141.735 193.114 141.085 191.476 141.085 189.5C141.085 187.541 141.726 185.912 143.009 184.612C144.291 183.295 145.938 182.636 147.949 182.636C149.855 182.636 151.424 183.295 152.655 184.612C153.903 185.929 154.527 187.559 154.527 189.5C154.527 189.933 154.483 190.393 154.397 190.878H144.595ZM144.543 188.278H151.173C150.982 187.394 150.583 186.735 149.977 186.302C149.387 185.869 148.711 185.652 147.949 185.652C147.047 185.652 146.302 185.886 145.713 186.354C145.123 186.805 144.733 187.446 144.543 188.278ZM160.222 185.236C160.534 184.404 161.045 183.78 161.756 183.364C162.484 182.948 163.29 182.74 164.174 182.74V186.484C163.151 186.363 162.233 186.571 161.418 187.108C160.621 187.645 160.222 188.538 160.222 189.786V196H156.868V183H160.222V185.236ZM167.8 181.44C167.245 181.44 166.76 181.241 166.344 180.842C165.945 180.426 165.746 179.941 165.746 179.386C165.746 178.831 165.945 178.346 166.344 177.93C166.76 177.514 167.245 177.306 167.8 177.306C168.372 177.306 168.857 177.514 169.256 177.93C169.672 178.346 169.88 178.831 169.88 179.386C169.88 179.941 169.672 180.426 169.256 180.842C168.857 181.241 168.372 181.44 167.8 181.44ZM166.136 196V183H169.49V196H166.136ZM175.393 190.878C175.844 192.507 177.066 193.322 179.059 193.322C180.342 193.322 181.313 192.889 181.971 192.022L184.675 193.582C183.393 195.437 181.503 196.364 179.007 196.364C176.858 196.364 175.133 195.714 173.833 194.414C172.533 193.114 171.883 191.476 171.883 189.5C171.883 187.541 172.525 185.912 173.807 184.612C175.09 183.295 176.737 182.636 178.747 182.636C180.654 182.636 182.223 183.295 183.453 184.612C184.701 185.929 185.325 187.559 185.325 189.5C185.325 189.933 185.282 190.393 185.195 190.878H175.393ZM175.341 188.278H181.971C181.781 187.394 181.382 186.735 180.775 186.302C180.186 185.869 179.51 185.652 178.747 185.652C177.846 185.652 177.101 185.886 176.511 186.354C175.922 186.805 175.532 187.446 175.341 188.278ZM194.895 182.636C196.316 182.636 197.486 183.113 198.405 184.066C199.341 185.019 199.809 186.337 199.809 188.018V196H196.455V188.434C196.455 187.567 196.221 186.909 195.753 186.458C195.285 185.99 194.661 185.756 193.881 185.756C193.014 185.756 192.321 186.025 191.801 186.562C191.281 187.099 191.021 187.905 191.021 188.98V196H187.667V183H191.021V184.456C191.835 183.243 193.127 182.636 194.895 182.636ZM208.861 196.364C206.902 196.364 205.264 195.705 203.947 194.388C202.647 193.071 201.997 191.441 201.997 189.5C201.997 187.559 202.647 185.929 203.947 184.612C205.264 183.295 206.902 182.636 208.861 182.636C210.126 182.636 211.279 182.939 212.319 183.546C213.359 184.153 214.147 184.967 214.685 185.99L211.799 187.68C211.539 187.143 211.14 186.718 210.603 186.406C210.083 186.094 209.493 185.938 208.835 185.938C207.829 185.938 206.997 186.276 206.339 186.952C205.68 187.611 205.351 188.46 205.351 189.5C205.351 190.523 205.68 191.372 206.339 192.048C206.997 192.707 207.829 193.036 208.835 193.036C209.511 193.036 210.109 192.889 210.629 192.594C211.166 192.282 211.565 191.857 211.825 191.32L214.737 192.984C214.165 194.007 213.359 194.83 212.319 195.454C211.279 196.061 210.126 196.364 208.861 196.364ZM219.141 190.878C219.592 192.507 220.814 193.322 222.807 193.322C224.09 193.322 225.061 192.889 225.719 192.022L228.423 193.582C227.141 195.437 225.251 196.364 222.755 196.364C220.606 196.364 218.881 195.714 217.581 194.414C216.281 193.114 215.631 191.476 215.631 189.5C215.631 187.541 216.273 185.912 217.555 184.612C218.838 183.295 220.485 182.636 222.495 182.636C224.402 182.636 225.971 183.295 227.201 184.612C228.449 185.929 229.073 187.559 229.073 189.5C229.073 189.933 229.03 190.393 228.943 190.878H219.141ZM219.089 188.278H225.719C225.529 187.394 225.13 186.735 224.523 186.302C223.934 185.869 223.258 185.652 222.495 185.652C221.594 185.652 220.849 185.886 220.259 186.354C219.67 186.805 219.28 187.446 219.089 188.278ZM42.1646 221.462C41.1593 221.462 40.3013 221.115 39.5906 220.422C38.8973 219.711 38.5506 218.853 38.5506 217.848C38.5506 216.877 38.8973 216.045 39.5906 215.352C40.3013 214.659 41.1593 214.312 42.1646 214.312C43.1353 214.312 43.9673 214.659 44.6606 215.352C45.354 216.045 45.7006 216.877 45.7006 217.848C45.7006 218.853 45.354 219.711 44.6606 220.422C43.9673 221.115 43.1353 221.462 42.1646 221.462ZM61.7778 208.8C63.5284 208.8 65.0018 209.389 66.1978 210.568C67.3938 211.747 67.9918 213.194 67.9918 214.91C67.9918 216.626 67.3938 218.073 66.1978 219.252C65.0018 220.431 63.5284 221.02 61.7778 221.02H58.5798V227H54.9918V208.8H61.7778ZM61.7778 217.666C62.5404 217.666 63.1731 217.406 63.6758 216.886C64.1784 216.349 64.4298 215.69 64.4298 214.91C64.4298 214.113 64.1784 213.454 63.6758 212.934C63.1731 212.414 62.5404 212.154 61.7778 212.154H58.5798V217.666H61.7778ZM72.1424 221.878C72.5931 223.507 73.8151 224.322 75.8084 224.322C77.0911 224.322 78.0617 223.889 78.7204 223.022L81.4244 224.582C80.1417 226.437 78.2524 227.364 75.7564 227.364C73.6071 227.364 71.8824 226.714 70.5824 225.414C69.2824 224.114 68.6324 222.476 68.6324 220.5C68.6324 218.541 69.2737 216.912 70.5564 215.612C71.8391 214.295 73.4857 213.636 75.4964 213.636C77.4031 213.636 78.9717 214.295 80.2024 215.612C81.4504 216.929 82.0744 218.559 82.0744 220.5C82.0744 220.933 82.0311 221.393 81.9444 221.878H72.1424ZM72.0904 219.278H78.7204C78.5297 218.394 78.1311 217.735 77.5244 217.302C76.9351 216.869 76.2591 216.652 75.4964 216.652C74.5951 216.652 73.8497 216.886 73.2604 217.354C72.6711 217.805 72.2811 218.446 72.0904 219.278ZM87.7698 216.236C88.0818 215.404 88.5932 214.78 89.3038 214.364C90.0318 213.948 90.8378 213.74 91.7218 213.74V217.484C90.6992 217.363 89.7805 217.571 88.9658 218.108C88.1685 218.645 87.7698 219.538 87.7698 220.786V227H84.4158V214H87.7698V216.236ZM100.677 211.66C98.8401 211.521 97.9214 212.258 97.9214 213.87V214H100.677V217.224H97.9214V227H94.5674V217.224H92.6954V214H94.5674V213.87C94.5674 212.033 95.0787 210.637 96.1014 209.684C97.1241 208.731 98.6494 208.315 100.677 208.436V211.66ZM112.808 225.388C111.474 226.705 109.844 227.364 107.92 227.364C105.996 227.364 104.367 226.705 103.032 225.388C101.715 224.053 101.056 222.424 101.056 220.5C101.056 218.576 101.715 216.955 103.032 215.638C104.367 214.303 105.996 213.636 107.92 213.636C109.844 213.636 111.474 214.303 112.808 215.638C114.143 216.955 114.81 218.576 114.81 220.5C114.81 222.424 114.143 224.053 112.808 225.388ZM105.398 223.074C106.074 223.75 106.915 224.088 107.92 224.088C108.926 224.088 109.766 223.75 110.442 223.074C111.118 222.398 111.456 221.54 111.456 220.5C111.456 219.46 111.118 218.602 110.442 217.926C109.766 217.25 108.926 216.912 107.92 216.912C106.915 216.912 106.074 217.25 105.398 217.926C104.74 218.602 104.41 219.46 104.41 220.5C104.41 221.54 104.74 222.398 105.398 223.074ZM120.524 216.236C120.836 215.404 121.347 214.78 122.058 214.364C122.786 213.948 123.592 213.74 124.476 213.74V217.484C123.453 217.363 122.534 217.571 121.72 218.108C120.922 218.645 120.524 219.538 120.524 220.786V227H117.17V214H120.524V216.236ZM140.815 213.636C142.306 213.636 143.493 214.121 144.377 215.092C145.279 216.063 145.729 217.363 145.729 218.992V227H142.375V219.226C142.375 218.446 142.185 217.839 141.803 217.406C141.422 216.973 140.885 216.756 140.191 216.756C139.429 216.756 138.831 217.007 138.397 217.51C137.981 218.013 137.773 218.741 137.773 219.694V227H134.419V219.226C134.419 218.446 134.229 217.839 133.847 217.406C133.466 216.973 132.929 216.756 132.235 216.756C131.49 216.756 130.892 217.007 130.441 217.51C130.008 218.013 129.791 218.741 129.791 219.694V227H126.437V214H129.791V215.378C130.571 214.217 131.776 213.636 133.405 213.636C135 213.636 136.179 214.26 136.941 215.508C137.808 214.26 139.099 213.636 140.815 213.636ZM158.458 214H161.812V227H158.458V225.466C157.453 226.731 156.04 227.364 154.22 227.364C152.487 227.364 150.996 226.705 149.748 225.388C148.517 224.053 147.902 222.424 147.902 220.5C147.902 218.576 148.517 216.955 149.748 215.638C150.996 214.303 152.487 213.636 154.22 213.636C156.04 213.636 157.453 214.269 158.458 215.534V214ZM152.27 223.152C152.946 223.828 153.804 224.166 154.844 224.166C155.884 224.166 156.742 223.828 157.418 223.152C158.111 222.459 158.458 221.575 158.458 220.5C158.458 219.425 158.111 218.55 157.418 217.874C156.742 217.181 155.884 216.834 154.844 216.834C153.804 216.834 152.946 217.181 152.27 217.874C151.594 218.55 151.256 219.425 151.256 220.5C151.256 221.575 151.594 222.459 152.27 223.152ZM172.081 213.636C173.503 213.636 174.673 214.113 175.591 215.066C176.527 216.019 176.995 217.337 176.995 219.018V227H173.641V219.434C173.641 218.567 173.407 217.909 172.939 217.458C172.471 216.99 171.847 216.756 171.067 216.756C170.201 216.756 169.507 217.025 168.987 217.562C168.467 218.099 168.207 218.905 168.207 219.98V227H164.853V214H168.207V215.456C169.022 214.243 170.313 213.636 172.081 213.636ZM186.047 227.364C184.089 227.364 182.451 226.705 181.133 225.388C179.833 224.071 179.183 222.441 179.183 220.5C179.183 218.559 179.833 216.929 181.133 215.612C182.451 214.295 184.089 213.636 186.047 213.636C187.313 213.636 188.465 213.939 189.505 214.546C190.545 215.153 191.334 215.967 191.871 216.99L188.985 218.68C188.725 218.143 188.327 217.718 187.789 217.406C187.269 217.094 186.68 216.938 186.021 216.938C185.016 216.938 184.184 217.276 183.525 217.952C182.867 218.611 182.537 219.46 182.537 220.5C182.537 221.523 182.867 222.372 183.525 223.048C184.184 223.707 185.016 224.036 186.021 224.036C186.697 224.036 187.295 223.889 187.815 223.594C188.353 223.282 188.751 222.857 189.011 222.32L191.923 223.984C191.351 225.007 190.545 225.83 189.505 226.454C188.465 227.061 187.313 227.364 186.047 227.364ZM196.328 221.878C196.779 223.507 198.001 224.322 199.994 224.322C201.277 224.322 202.247 223.889 202.906 223.022L205.61 224.582C204.327 226.437 202.438 227.364 199.942 227.364C197.793 227.364 196.068 226.714 194.768 225.414C193.468 224.114 192.818 222.476 192.818 220.5C192.818 218.541 193.459 216.912 194.742 215.612C196.025 214.295 197.671 213.636 199.682 213.636C201.589 213.636 203.157 214.295 204.388 215.612C205.636 216.929 206.26 218.559 206.26 220.5C206.26 220.933 206.217 221.393 206.13 221.878H196.328ZM196.276 219.278H202.906C202.715 218.394 202.317 217.735 201.71 217.302C201.121 216.869 200.445 216.652 199.682 216.652C198.781 216.652 198.035 216.886 197.446 217.354C196.857 217.805 196.467 218.446 196.276 219.278ZM64.191 252.462C63.1857 252.462 62.3277 252.115 61.617 251.422C60.9237 250.711 60.577 249.853 60.577 248.848C60.577 247.877 60.9237 247.045 61.617 246.352C62.3277 245.659 63.1857 245.312 64.191 245.312C65.1617 245.312 65.9937 245.659 66.687 246.352C67.3803 247.045 67.727 247.877 67.727 248.848C67.727 249.853 67.3803 250.711 66.687 251.422C65.9937 252.115 65.1617 252.462 64.191 252.462ZM87.0021 258L83.3361 251.682H80.6061V258H77.0181V239.8H84.2981C85.9795 239.8 87.4095 240.389 88.5881 241.568C89.7668 242.747 90.3561 244.168 90.3561 245.832C90.3561 246.959 90.0355 248.007 89.3941 248.978C88.7528 249.931 87.9035 250.651 86.8461 251.136L90.8761 258H87.0021ZM80.6061 243.154V248.536H84.2981C84.9741 248.536 85.5548 248.276 86.0401 247.756C86.5255 247.219 86.7681 246.577 86.7681 245.832C86.7681 245.087 86.5255 244.454 86.0401 243.934C85.5548 243.414 84.9741 243.154 84.2981 243.154H80.6061ZM95.0067 252.878C95.4573 254.507 96.6793 255.322 98.6727 255.322C99.9553 255.322 100.926 254.889 101.585 254.022L104.289 255.582C103.006 257.437 101.117 258.364 98.6207 258.364C96.4713 258.364 94.7467 257.714 93.4467 256.414C92.1467 255.114 91.4967 253.476 91.4967 251.5C91.4967 249.541 92.138 247.912 93.4207 246.612C94.7033 245.295 96.35 244.636 98.3607 244.636C100.267 244.636 101.836 245.295 103.067 246.612C104.315 247.929 104.939 249.559 104.939 251.5C104.939 251.933 104.895 252.393 104.809 252.878H95.0067ZM94.9547 250.278H101.585C101.394 249.394 100.995 248.735 100.389 248.302C99.7993 247.869 99.1233 247.652 98.3607 247.652C97.4593 247.652 96.714 247.886 96.1247 248.354C95.5353 248.805 95.1453 249.446 94.9547 250.278ZM114.335 248.224H111.397V253.632C111.397 254.083 111.51 254.412 111.735 254.62C111.961 254.828 112.29 254.949 112.723 254.984C113.157 255.001 113.694 254.993 114.335 254.958V258C112.03 258.26 110.401 258.043 109.447 257.35C108.511 256.657 108.043 255.417 108.043 253.632V248.224H105.781V245H108.043V242.374L111.397 241.36V245H114.335V248.224ZM119.128 252.878C119.578 254.507 120.8 255.322 122.794 255.322C124.076 255.322 125.047 254.889 125.706 254.022L128.41 255.582C127.127 257.437 125.238 258.364 122.742 258.364C120.592 258.364 118.868 257.714 117.568 256.414C116.268 255.114 115.618 253.476 115.618 251.5C115.618 249.541 116.259 247.912 117.542 246.612C118.824 245.295 120.471 244.636 122.482 244.636C124.388 244.636 125.957 245.295 127.188 246.612C128.436 247.929 129.06 249.559 129.06 251.5C129.06 251.933 129.016 252.393 128.93 252.878H119.128ZM119.076 250.278H125.706C125.515 249.394 125.116 248.735 124.51 248.302C123.92 247.869 123.244 247.652 122.482 247.652C121.58 247.652 120.835 247.886 120.246 248.354C119.656 248.805 119.266 249.446 119.076 250.278ZM138.629 244.636C140.051 244.636 141.221 245.113 142.139 246.066C143.075 247.019 143.543 248.337 143.543 250.018V258H140.189V250.434C140.189 249.567 139.955 248.909 139.487 248.458C139.019 247.99 138.395 247.756 137.615 247.756C136.749 247.756 136.055 248.025 135.535 248.562C135.015 249.099 134.755 249.905 134.755 250.98V258H131.401V245H134.755V246.456C135.57 245.243 136.861 244.636 138.629 244.636ZM153.843 248.224H150.905V253.632C150.905 254.083 151.018 254.412 151.243 254.62C151.468 254.828 151.798 254.949 152.231 254.984C152.664 255.001 153.202 254.993 153.843 254.958V258C151.538 258.26 149.908 258.043 148.955 257.35C148.019 256.657 147.551 255.417 147.551 253.632V248.224H145.289V245H147.551V242.374L150.905 241.36V245H153.843V248.224ZM157.872 243.44C157.317 243.44 156.832 243.241 156.416 242.842C156.017 242.426 155.818 241.941 155.818 241.386C155.818 240.831 156.017 240.346 156.416 239.93C156.832 239.514 157.317 239.306 157.872 239.306C158.444 239.306 158.929 239.514 159.328 239.93C159.744 240.346 159.952 240.831 159.952 241.386C159.952 241.941 159.744 242.426 159.328 242.842C158.929 243.241 158.444 243.44 157.872 243.44ZM156.208 258V245H159.562V258H156.208ZM173.708 256.388C172.373 257.705 170.744 258.364 168.82 258.364C166.896 258.364 165.266 257.705 163.932 256.388C162.614 255.053 161.956 253.424 161.956 251.5C161.956 249.576 162.614 247.955 163.932 246.638C165.266 245.303 166.896 244.636 168.82 244.636C170.744 244.636 172.373 245.303 173.708 246.638C175.042 247.955 175.71 249.576 175.71 251.5C175.71 253.424 175.042 255.053 173.708 256.388ZM166.298 254.074C166.974 254.75 167.814 255.088 168.82 255.088C169.825 255.088 170.666 254.75 171.342 254.074C172.018 253.398 172.356 252.54 172.356 251.5C172.356 250.46 172.018 249.602 171.342 248.926C170.666 248.25 169.825 247.912 168.82 247.912C167.814 247.912 166.974 248.25 166.298 248.926C165.639 249.602 165.31 250.46 165.31 251.5C165.31 252.54 165.639 253.398 166.298 254.074ZM185.297 244.636C186.718 244.636 187.888 245.113 188.807 246.066C189.743 247.019 190.211 248.337 190.211 250.018V258H186.857V250.434C186.857 249.567 186.623 248.909 186.155 248.458C185.687 247.99 185.063 247.756 184.283 247.756C183.416 247.756 182.723 248.025 182.203 248.562C181.683 249.099 181.423 249.905 181.423 250.98V258H178.069V245H181.423V246.456C182.238 245.243 183.529 244.636 185.297 244.636Z" fill="#363636"/>
<circle cx="1259" cy="189" r="155" fill="#363636"/>
<path d="M1243 175.2L1232.62 194.164V206H1224.74V194.252L1214.36 175.2H1223.2L1228.66 186.596L1234.16 175.2H1243ZM1269.21 202.04C1266.11 205.12 1262.29 206.66 1257.77 206.66C1253.26 206.66 1249.43 205.12 1246.29 202.04C1243.18 198.931 1241.63 195.117 1241.63 190.6C1241.63 186.083 1243.18 182.284 1246.29 179.204C1249.43 176.095 1253.26 174.54 1257.77 174.54C1262.29 174.54 1266.11 176.095 1269.21 179.204C1272.35 182.284 1273.92 186.083 1273.92 190.6C1273.92 195.117 1272.35 198.931 1269.21 202.04ZM1251.83 196.628C1253.42 198.183 1255.4 198.96 1257.77 198.96C1260.15 198.96 1262.13 198.183 1263.71 196.628C1265.3 195.044 1266.09 193.035 1266.09 190.6C1266.09 188.165 1265.3 186.171 1263.71 184.616C1262.13 183.032 1260.15 182.24 1257.77 182.24C1255.4 182.24 1253.42 183.032 1251.83 184.616C1250.25 186.171 1249.46 188.165 1249.46 190.6C1249.46 193.035 1250.25 195.044 1251.83 196.628ZM1298.08 203.712C1295.82 205.677 1292.91 206.66 1289.33 206.66C1285.75 206.66 1282.82 205.677 1280.53 203.712C1278.27 201.747 1277.14 199.136 1277.14 195.88V175.2H1285.02V195.132C1285.02 197.713 1286.45 199.004 1289.33 199.004C1292.2 199.004 1293.64 197.713 1293.64 195.132V175.2H1301.52V195.88C1301.52 199.136 1300.37 201.747 1298.08 203.712Z" fill="white"/>
<path opacity="0.7" d="M544.919 62C546.839 62 548.439 62.6733 549.719 64.02C551.012 65.3667 551.659 67.0267 551.659 69C551.659 70.9733 551.012 72.6333 549.719 73.98C548.439 75.3267 546.839 76 544.919 76H539.359V62H544.919ZM544.919 73.36C546.132 73.36 547.119 72.96 547.879 72.16C548.639 71.3467 549.019 70.2933 549.019 69C549.019 67.7067 548.639 66.66 547.879 65.86C547.119 65.0467 546.132 64.64 544.919 64.64H542.119V73.36H544.919ZM555.676 72.06C556.023 73.3133 556.963 73.94 558.496 73.94C559.483 73.94 560.23 73.6067 560.736 72.94L562.816 74.14C561.83 75.5667 560.376 76.28 558.456 76.28C556.803 76.28 555.476 75.78 554.476 74.78C553.476 73.78 552.976 72.52 552.976 71C552.976 69.4933 553.47 68.24 554.456 67.24C555.443 66.2267 556.71 65.72 558.256 65.72C559.723 65.72 560.93 66.2267 561.876 67.24C562.836 68.2533 563.316 69.5067 563.316 71C563.316 71.3333 563.283 71.6867 563.216 72.06H555.676ZM555.636 70.06H560.736C560.59 69.38 560.283 68.8733 559.816 68.54C559.363 68.2067 558.843 68.04 558.256 68.04C557.563 68.04 556.99 68.22 556.536 68.58C556.083 68.9267 555.783 69.42 555.636 70.06ZM573.605 66V76H571.025V68.48H568.085V76H565.505V68.48H564.065V66H565.505V65.9C565.505 63.1133 567.071 61.72 570.205 61.72C570.911 61.72 571.691 61.8133 572.545 62V64.36C571.651 64.2533 570.871 64.2 570.205 64.2C569.485 64.2 568.951 64.3267 568.605 64.58C568.258 64.82 568.085 65.26 568.085 65.9V66H573.605ZM581.517 65.72C582.611 65.72 583.511 66.0867 584.217 66.82C584.937 67.5533 585.297 68.5667 585.297 69.86V76H582.717V70.18C582.717 69.5133 582.537 69.0067 582.177 68.66C581.817 68.3 581.337 68.12 580.737 68.12C580.071 68.12 579.537 68.3267 579.137 68.74C578.737 69.1533 578.537 69.7733 578.537 70.6V76H575.957V66H578.537V67.12C579.164 66.1867 580.157 65.72 581.517 65.72ZM589.68 72.06C590.027 73.3133 590.967 73.94 592.5 73.94C593.487 73.94 594.234 73.6067 594.74 72.94L596.82 74.14C595.834 75.5667 594.38 76.28 592.46 76.28C590.807 76.28 589.48 75.78 588.48 74.78C587.48 73.78 586.98 72.52 586.98 71C586.98 69.4933 587.474 68.24 588.46 67.24C589.447 66.2267 590.714 65.72 592.26 65.72C593.727 65.72 594.934 66.2267 595.88 67.24C596.84 68.2533 597.32 69.5067 597.32 71C597.32 71.3333 597.287 71.6867 597.22 72.06H589.68ZM589.64 70.06H594.74C594.594 69.38 594.287 68.8733 593.82 68.54C593.367 68.2067 592.847 68.04 592.26 68.04C591.567 68.04 590.994 68.22 590.54 68.58C590.087 68.9267 589.787 69.42 589.64 70.06Z" fill="white"/>
<path opacity="0.7" d="M541.91 303V305.64H538.13V317H535.37V305.64H531.61V303H541.91ZM544.641 308.72C544.881 308.08 545.274 307.6 545.821 307.28C546.381 306.96 547.001 306.8 547.681 306.8V309.68C546.894 309.587 546.188 309.747 545.561 310.16C544.948 310.573 544.641 311.26 544.641 312.22V317H542.061V307H544.641V308.72ZM556.419 307H558.999V317H556.419V315.82C555.645 316.793 554.559 317.28 553.159 317.28C551.825 317.28 550.679 316.773 549.719 315.76C548.772 314.733 548.299 313.48 548.299 312C548.299 310.52 548.772 309.273 549.719 308.26C550.679 307.233 551.825 306.72 553.159 306.72C554.559 306.72 555.645 307.207 556.419 308.18V307ZM551.659 314.04C552.179 314.56 552.839 314.82 553.639 314.82C554.439 314.82 555.099 314.56 555.619 314.04C556.152 313.507 556.419 312.827 556.419 312C556.419 311.173 556.152 310.5 555.619 309.98C555.099 309.447 554.439 309.18 553.639 309.18C552.839 309.18 552.179 309.447 551.659 309.98C551.139 310.5 550.879 311.173 550.879 312C550.879 312.827 551.139 313.507 551.659 314.04ZM566.098 317.28C564.592 317.28 563.332 316.773 562.318 315.76C561.318 314.747 560.818 313.493 560.818 312C560.818 310.507 561.318 309.253 562.318 308.24C563.332 307.227 564.592 306.72 566.098 306.72C567.072 306.72 567.958 306.953 568.758 307.42C569.558 307.887 570.165 308.513 570.578 309.3L568.358 310.6C568.158 310.187 567.852 309.86 567.438 309.62C567.038 309.38 566.585 309.26 566.078 309.26C565.305 309.26 564.665 309.52 564.158 310.04C563.652 310.547 563.398 311.2 563.398 312C563.398 312.787 563.652 313.44 564.158 313.96C564.665 314.467 565.305 314.72 566.078 314.72C566.598 314.72 567.058 314.607 567.458 314.38C567.872 314.14 568.178 313.813 568.378 313.4L570.618 314.68C570.178 315.467 569.558 316.1 568.758 316.58C567.958 317.047 567.072 317.28 566.098 317.28ZM581.203 317H578.203L574.563 312.46V317H571.983V303H574.563V311.4L578.003 307H581.083L577.063 311.94L581.203 317ZM583.948 313.06C584.295 314.313 585.235 314.94 586.768 314.94C587.755 314.94 588.501 314.607 589.008 313.94L591.088 315.14C590.101 316.567 588.648 317.28 586.728 317.28C585.075 317.28 583.748 316.78 582.748 315.78C581.748 314.78 581.248 313.52 581.248 312C581.248 310.493 581.741 309.24 582.728 308.24C583.715 307.227 584.981 306.72 586.528 306.72C587.995 306.72 589.201 307.227 590.148 308.24C591.108 309.253 591.588 310.507 591.588 312C591.588 312.333 591.555 312.687 591.488 313.06H583.948ZM583.908 311.06H589.008C588.861 310.38 588.555 309.873 588.088 309.54C587.635 309.207 587.115 309.04 586.528 309.04C585.835 309.04 585.261 309.22 584.808 309.58C584.355 309.927 584.055 310.42 583.908 311.06ZM600.891 303H603.471V317H600.891V315.82C600.131 316.793 599.051 317.28 597.651 317.28C596.304 317.28 595.151 316.773 594.191 315.76C593.244 314.733 592.771 313.48 592.771 312C592.771 310.52 593.244 309.273 594.191 308.26C595.151 307.233 596.304 306.72 597.651 306.72C599.051 306.72 600.131 307.207 600.891 308.18V303ZM596.131 314.04C596.664 314.56 597.331 314.82 598.131 314.82C598.931 314.82 599.591 314.56 600.111 314.04C600.631 313.507 600.891 312.827 600.891 312C600.891 311.173 600.631 310.5 600.111 309.98C599.591 309.447 598.931 309.18 598.131 309.18C597.331 309.18 596.664 309.447 596.131 309.98C595.611 310.5 595.351 311.173 595.351 312C595.351 312.827 595.611 313.507 596.131 314.04Z" fill="white"/>
<circle cx="329.5" cy="188.5" r="78.5" fill="url(#paint2_linear_4308_264808)"/>
<path d="M408 188.5C408 231.854 372.854 267 329.5 267C286.146 267 251 231.854 251 188.5C251 145.146 286.146 110 329.5 110C372.854 110 408 145.146 408 188.5ZM253.239 188.5C253.239 230.618 287.382 264.761 329.5 264.761C371.618 264.761 405.761 230.618 405.761 188.5C405.761 146.382 371.618 112.239 329.5 112.239C287.382 112.239 253.239 146.382 253.239 188.5Z" fill="url(#paint3_linear_4308_264808)"/>
<path d="M367.196 121.981C367.738 121.872 368.089 121.345 367.981 120.804L366.216 111.979C366.107 111.437 365.58 111.086 365.039 111.194C364.497 111.303 364.146 111.829 364.254 112.371L365.823 120.216L357.979 121.784C357.437 121.893 357.086 122.42 357.194 122.961C357.303 123.503 357.829 123.854 358.371 123.746L367.196 121.981ZM363.445 119.832L366.445 121.832L367.555 120.168L364.555 118.168L363.445 119.832Z" fill="#363636"/>
<path d="M280 247C279.448 247 279 247.448 279 248L279 257C279 257.552 279.448 258 280 258C280.552 258 281 257.552 281 257L281 249L289 249C289.552 249 290 248.552 290 248C290 247.448 289.552 247 289 247L280 247ZM282.707 249.293L280.707 247.293L279.293 248.707L281.293 250.707L282.707 249.293Z" fill="#4140A6"/>
<path d="M275.439 186L274.959 184.384H271.231L270.751 186H267.647L271.343 174.8H274.831L278.527 186H275.439ZM271.967 181.92H274.223L273.087 178.112L271.967 181.92ZM285.517 174.8H288.365V186H286.157L282.205 180.368V186H279.341V174.8H281.565L285.517 180.432V174.8ZM296.97 186L296.49 184.384H292.762L292.282 186H289.178L292.874 174.8H296.362L300.058 186H296.97ZM293.498 181.92H295.754L294.618 178.112L293.498 181.92ZM303.736 183.232H307.592V186H300.872V174.8H303.736V183.232ZM316.736 174.8L312.96 181.696V186H310.096V181.728L306.32 174.8H309.536L311.52 178.944L313.52 174.8H316.736ZM325.302 174.8V177.568H322.534V186H319.67V177.568H316.902V174.8H325.302ZM326.341 174.8H329.205V186H326.341V174.8ZM336.374 186.24C334.689 186.24 333.291 185.685 332.182 184.576C331.083 183.456 330.534 182.064 330.534 180.4C330.534 178.736 331.083 177.349 332.182 176.24C333.291 175.12 334.689 174.56 336.374 174.56C337.387 174.56 338.326 174.8 339.19 175.28C340.054 175.76 340.731 176.405 341.222 177.216L338.742 178.64C338.529 178.245 338.209 177.936 337.782 177.712C337.366 177.477 336.897 177.36 336.374 177.36C335.478 177.36 334.753 177.643 334.198 178.208C333.654 178.763 333.382 179.493 333.382 180.4C333.382 181.307 333.654 182.043 334.198 182.608C334.753 183.163 335.478 183.44 336.374 183.44C336.897 183.44 337.366 183.328 337.782 183.104C338.209 182.869 338.529 182.549 338.742 182.144L341.222 183.584C340.731 184.405 340.054 185.056 339.19 185.536C338.337 186.005 337.398 186.24 336.374 186.24ZM346.294 186.24C345.11 186.24 344.128 185.989 343.35 185.488C342.571 184.987 342.027 184.309 341.718 183.456L344.166 182.032C344.582 183.024 345.318 183.52 346.374 183.52C347.248 183.52 347.686 183.269 347.686 182.768C347.686 182.437 347.435 182.171 346.934 181.968C346.72 181.883 346.251 181.739 345.526 181.536C344.502 181.237 343.691 180.821 343.094 180.288C342.496 179.744 342.198 178.992 342.198 178.032C342.198 176.997 342.566 176.16 343.302 175.52C344.048 174.88 344.976 174.56 346.086 174.56C347.024 174.56 347.856 174.779 348.582 175.216C349.307 175.653 349.862 176.288 350.246 177.12L347.846 178.528C347.494 177.696 346.912 177.28 346.102 177.28C345.76 177.28 345.499 177.349 345.318 177.488C345.147 177.627 345.062 177.803 345.062 178.016C345.062 178.261 345.19 178.469 345.446 178.64C345.712 178.811 346.224 179.008 346.982 179.232C347.526 179.392 347.963 179.541 348.294 179.68C348.624 179.819 348.987 180.021 349.382 180.288C349.776 180.544 350.07 180.88 350.262 181.296C350.454 181.701 350.55 182.181 350.55 182.736C350.55 183.835 350.16 184.693 349.382 185.312C348.603 185.931 347.574 186.24 346.294 186.24ZM362.126 186L361.646 184.384H357.918L357.438 186H354.334L358.03 174.8H361.518L365.214 186H362.126ZM358.654 181.92H360.91L359.774 178.112L358.654 181.92ZM369.778 186.24C368.594 186.24 367.613 185.989 366.834 185.488C366.055 184.987 365.511 184.309 365.202 183.456L367.65 182.032C368.066 183.024 368.802 183.52 369.858 183.52C370.733 183.52 371.17 183.269 371.17 182.768C371.17 182.437 370.919 182.171 370.418 181.968C370.205 181.883 369.735 181.739 369.01 181.536C367.986 181.237 367.175 180.821 366.578 180.288C365.981 179.744 365.682 178.992 365.682 178.032C365.682 176.997 366.05 176.16 366.786 175.52C367.533 174.88 368.461 174.56 369.57 174.56C370.509 174.56 371.341 174.779 372.066 175.216C372.791 175.653 373.346 176.288 373.73 177.12L371.33 178.528C370.978 177.696 370.397 177.28 369.586 177.28C369.245 177.28 368.983 177.349 368.802 177.488C368.631 177.627 368.546 177.803 368.546 178.016C368.546 178.261 368.674 178.469 368.93 178.64C369.197 178.811 369.709 179.008 370.466 179.232C371.01 179.392 371.447 179.541 371.778 179.68C372.109 179.819 372.471 180.021 372.866 180.288C373.261 180.544 373.554 180.88 373.746 181.296C373.938 181.701 374.034 182.181 374.034 182.736C374.034 183.835 373.645 184.693 372.866 185.312C372.087 185.931 371.058 186.24 369.778 186.24ZM288.235 206L287.755 204.384H284.027L283.547 206H280.443L284.139 194.8H287.627L291.323 206H288.235ZM284.763 201.92H287.019L285.883 198.112L284.763 201.92ZM298.314 194.8H301.162V206H298.954L295.002 200.368V206H292.138V194.8H294.362L298.314 200.432V194.8ZM309.424 203.312H313.76V206H306.56V194.8H313.68V197.472H309.424V199.024H313.28V201.664H309.424V203.312ZM321.298 194.8H324.146V206H321.938L317.986 200.368V206H315.122V194.8H317.346L321.298 200.432V194.8ZM337.039 199.584V200.72C337.039 202.363 336.522 203.696 335.487 204.72C334.463 205.733 333.13 206.24 331.487 206.24C329.738 206.24 328.298 205.68 327.167 204.56C326.047 203.44 325.487 202.059 325.487 200.416C325.487 198.773 326.047 197.387 327.167 196.256C328.287 195.125 329.674 194.56 331.327 194.56C332.372 194.56 333.327 194.795 334.191 195.264C335.066 195.733 335.748 196.357 336.239 197.136L333.807 198.528C333.583 198.176 333.252 197.893 332.815 197.68C332.388 197.467 331.903 197.36 331.359 197.36C330.474 197.36 329.748 197.648 329.183 198.224C328.618 198.8 328.335 199.536 328.335 200.432C328.335 201.296 328.612 202.027 329.167 202.624C329.732 203.221 330.522 203.52 331.535 203.52C332.836 203.52 333.695 203.029 334.111 202.048H331.391V199.584H337.039ZM338.372 194.8H341.236V206H338.372V194.8ZM349.173 194.8H352.021V206H349.813L345.861 200.368V206H342.997V194.8H345.221L349.173 200.432V194.8ZM356.658 203.312H360.994V206H353.794V194.8H360.914V197.472H356.658V199.024H360.514V201.664H356.658V203.312Z" fill="#363636"/>
<circle cx="428" cy="189" r="44" fill="white"/>
<path d="M472 189C472 213.301 452.301 233 428 233C403.699 233 384 213.301 384 189C384 164.699 403.699 145 428 145C452.301 145 472 164.699 472 189ZM385.874 189C385.874 212.266 404.734 231.126 428 231.126C451.266 231.126 470.126 212.266 470.126 189C470.126 165.734 451.266 146.874 428 146.874C404.734 146.874 385.874 165.734 385.874 189Z" fill="#4140A6"/>
<path d="M407.844 211.681C404.182 211.497 401.632 211.308 400.46 211.214C400.274 209.033 399.758 202.02 399.758 191.434C399.758 178.588 400.518 171.004 400.526 170.928C400.575 170.446 400.224 170.014 399.741 169.965C399.258 169.916 398.827 170.266 398.777 170.749C398.769 170.825 398 178.488 398 191.434C398 204.379 398.769 212.042 398.777 212.118C398.82 212.536 399.153 212.865 399.572 212.904C399.601 212.906 402.581 213.176 407.756 213.436C408.236 213.462 408.655 213.088 408.678 212.602C408.702 212.118 408.329 211.705 407.844 211.681Z" fill="#4140A6"/>
<path d="M457.996 211.948C457.952 211.465 457.523 211.107 457.041 211.153C456.93 211.163 445.701 212.172 428.386 212.172C422.709 212.172 417.107 212.065 411.735 211.854C410.571 211.846 410.505 213.526 411.666 213.61C417.061 213.823 422.686 213.93 428.386 213.93C445.78 213.93 457.089 212.914 457.201 212.904C457.685 212.859 458.041 212.432 457.996 211.948Z" fill="#4140A6"/>
<path d="M404.279 194.616H407.527C408.69 194.576 408.69 192.899 407.527 192.859H404.279C403.115 192.899 403.116 194.577 404.279 194.616Z" fill="#4140A6"/>
<path d="M404.461 188.236H411.355C412.519 188.196 412.518 186.518 411.355 186.478H404.461C403.297 186.519 403.298 188.196 404.461 188.236Z" fill="#4140A6"/>
<path d="M404.734 181.856H407.982C409.146 181.816 409.145 180.138 407.982 180.098H404.734C403.57 180.138 403.571 181.816 404.734 181.856Z" fill="#4140A6"/>
<path d="M407.8 205.619H404.552C403.388 205.66 403.389 207.337 404.552 207.377H407.8C408.964 207.337 408.963 205.659 407.8 205.619Z" fill="#4140A6"/>
<path d="M411.264 199.239H404.37C403.206 199.28 403.207 200.957 404.37 200.997H411.264C412.427 200.957 412.427 199.279 411.264 199.239Z" fill="#4140A6"/>
<path d="M404.917 175.476H411.811C412.974 175.435 412.973 173.758 411.811 173.718H404.917C403.753 173.758 403.754 175.436 404.917 175.476Z" fill="#4140A6"/>
<path d="M419.971 206.431C419.734 203.983 419.614 201.152 419.614 198.001C419.614 197.515 419.221 197.122 418.735 197.122C418.25 197.122 417.856 197.515 417.856 198.001C417.856 201.542 418.006 204.694 418.301 207.371C418.348 207.797 418.695 208.127 419.123 208.152C419.76 208.225 424.209 208.289 425.843 208.152C426.272 208.128 426.62 207.798 426.667 207.371C427.26 202.215 427.26 193.787 426.667 188.63C426.62 188.205 426.274 187.875 425.846 187.849C425.713 187.842 422.548 187.658 419.126 187.849C418.697 187.873 418.348 188.204 418.301 188.63C418.121 190.26 417.994 192.087 417.924 194.061C417.906 194.547 418.286 194.954 418.771 194.971C419.253 194.988 419.663 194.61 419.681 194.124C419.739 192.49 419.837 190.961 419.971 189.568C422.052 189.484 423.983 189.532 424.997 189.57C425.473 194.305 425.473 201.699 424.997 206.433C422.916 206.518 420.986 206.47 419.971 206.431Z" fill="#4140A6"/>
<path d="M442.733 193.909C442.733 195.652 442.751 197.35 442.786 198.957C442.797 199.442 443.201 199.825 443.684 199.816C444.17 199.806 444.554 199.404 444.544 198.918C444.415 193.337 444.517 186.245 444.872 181.405C446.931 181.285 448.841 181.353 449.85 181.408C450.358 188.386 450.358 199.435 449.85 206.413C447.791 206.533 445.881 206.466 444.872 206.411C444.785 205.163 444.712 203.833 444.654 202.447C444.634 201.962 444.225 201.58 443.74 201.605C443.255 201.625 442.878 202.035 442.898 202.52C442.968 204.212 443.061 205.822 443.175 207.305C443.208 207.734 443.547 208.077 443.977 208.113C444.619 208.219 449.094 208.311 450.741 208.114C451.172 208.079 451.514 207.736 451.547 207.305C451.84 203.481 451.989 198.974 451.989 193.909C451.989 188.844 451.84 184.337 451.547 180.513C451.514 180.084 451.174 179.742 450.745 179.705C450.611 179.693 447.424 179.428 443.981 179.705C443.55 179.739 443.208 180.082 443.175 180.513C442.882 184.337 442.733 188.844 442.733 193.909Z" fill="#4140A6"/>
<path d="M431.247 208.08C431.335 208.089 432.762 208.239 434.717 208.239C435.724 208.239 436.871 208.199 438.048 208.08C438.477 208.037 438.811 207.689 438.837 207.259C439.288 200.207 439.384 189.388 439.168 181.427C439.155 180.941 438.747 180.557 438.266 180.571C437.781 180.584 437.398 180.987 437.411 181.473C437.618 189.15 437.536 199.497 437.127 206.396C435.077 206.546 433.176 206.462 432.173 206.393C431.65 197.498 431.65 183.312 432.174 174.418C434.223 174.268 436.125 174.353 437.127 174.422C437.186 175.47 437.24 176.568 437.286 177.695C437.373 178.856 439.049 178.787 439.042 177.624C438.984 176.209 438.915 174.84 438.837 173.555C438.811 173.127 438.48 172.781 438.054 172.735C437.919 172.72 434.714 172.384 431.252 172.734C430.823 172.778 430.49 173.125 430.463 173.555C429.876 182.814 429.876 198 430.463 207.259C430.489 207.687 430.82 208.034 431.247 208.08Z" fill="#4140A6"/>
<path d="M422.484 184.377C424.1 184.377 425.414 183.063 425.414 181.447C425.253 177.56 419.715 177.561 419.555 181.447C419.555 183.063 420.869 184.377 422.484 184.377ZM422.484 180.275C423.131 180.275 423.656 180.801 423.656 181.447C423.592 183.002 421.377 183.001 421.313 181.447C421.313 180.801 421.838 180.275 422.484 180.275Z" fill="#4140A6"/>
<path d="M434.65 169.844C436.266 169.844 437.58 168.53 437.58 166.915C437.419 163.028 431.881 163.029 431.721 166.915C431.721 168.53 433.035 169.844 434.65 169.844ZM434.65 165.743C435.297 165.743 435.822 166.268 435.822 166.915C435.758 168.469 433.543 168.469 433.478 166.915C433.478 166.268 434.004 165.743 434.65 165.743Z" fill="#4140A6"/>
<path d="M447.361 175.952C448.976 175.952 450.291 174.638 450.291 173.023C450.13 169.136 444.592 169.137 444.431 173.023C444.431 174.638 445.746 175.952 447.361 175.952ZM447.361 171.851C448.007 171.851 448.533 172.376 448.533 173.023C448.469 174.577 446.253 174.577 446.189 173.023C446.189 172.376 446.715 171.851 447.361 171.851Z" fill="#4140A6"/>
<path d="M423.785 175.93C424.191 176.183 424.738 176.061 424.995 175.645L428.939 169.276C429.194 168.864 429.067 168.322 428.654 168.066C428.241 167.811 427.7 167.938 427.444 168.351L423.501 174.72C423.245 175.133 423.372 175.674 423.785 175.93Z" fill="#4140A6"/>
<path d="M439.862 169.723L441.889 170.912C442.3 171.155 442.844 171.021 443.091 170.599C443.337 170.18 443.197 169.641 442.778 169.396L440.752 168.207C440.333 167.962 439.795 168.102 439.549 168.521C439.303 168.939 439.444 169.478 439.862 169.723Z" fill="#4140A6"/>
<defs>
<linearGradient id="paint0_linear_4308_264808" x1="723" y1="191.5" x2="873" y2="204" gradientUnits="userSpaceOnUse">
<stop stop-color="#E9FDF6"/>
<stop offset="1" stop-color="#EFEFFD"/>
</linearGradient>
<linearGradient id="paint1_linear_4308_264808" x1="798.5" y1="174" x2="802" y2="186.5" gradientUnits="userSpaceOnUse">
<stop stop-color="#363636"/>
<stop offset="1" stop-color="#4140A6"/>
</linearGradient>
<linearGradient id="paint2_linear_4308_264808" x1="251" y1="191.5" x2="401" y2="204" gradientUnits="userSpaceOnUse">
<stop stop-color="#E9FDF6"/>
<stop offset="1" stop-color="#EFEFFD"/>
</linearGradient>
<linearGradient id="paint3_linear_4308_264808" x1="315.599" y1="178.279" x2="329.5" y2="188.5" gradientUnits="userSpaceOnUse">
<stop stop-color="#363636"/>
<stop offset="1" stop-color="#4140A6"/>
</linearGradient>
</defs>
</svg>
