<?xml version="1.0" encoding="UTF-8"?>
<svg width="50px" height="60px" viewBox="0 0 50 60" version="1.1" xmlns="http://www.w3.org/2000/svg" xmlns:xlink="http://www.w3.org/1999/xlink">
    <title>growth_icon</title>
    <g id="PHASE-2-[Desktop]" stroke="none" stroke-width="1" fill="none" fill-rule="evenodd">
        <g id="Career-Page-Assets" transform="translate(-838.000000, -2243.000000)" fill="#5C5AEA" fill-rule="nonzero">
            <path d="M873.988446,2243.25755 C874.321832,2242.9886 874.774692,2242.92509 875.168164,2243.09161 C875.561869,2243.25813 875.833306,2243.62833 875.875576,2244.05595 C875.888734,2244.18813 876.180316,2247.33028 874.891837,2250.73458 C873.742628,2253.77068 871.105118,2257.55009 865.069355,2258.79322 L865.069355,2258.79322 L865.069355,2278.64796 C866.39859,2276.57092 868.186856,2274.86385 870.305132,2273.64135 C869.896754,2271.60534 870.477705,2269.44616 871.8371,2267.88557 C873.100776,2266.43479 875.081179,2265.43869 877.023154,2265.79541 L877.023154,2265.79541 L887.054657,2267.63889 C887.916593,2267.79721 888.303312,2268.88869 887.725388,2269.55936 L887.725388,2269.55936 L881.045327,2277.31319 C880.419428,2278.17276 879.217935,2278.62886 878.756691,2278.76796 C877.824654,2279.04909 876.828689,2279.12139 875.866493,2278.9755 C873.938374,2278.68311 872.187836,2277.52401 871.168116,2275.85092 C869.03738,2277.15827 867.323174,2279.05624 866.217982,2281.37386 L866.217982,2281.37386 L865.085424,2283.74878 C865.08065,2283.75874 865.074246,2283.76741 865.069238,2283.77714 L865.069238,2283.77714 L865.069238,2286.47257 C865.641456,2286.03335 866.34747,2285.78808 867.075027,2285.78808 C869.188062,2285.78808 871.17091,2286.82952 872.379391,2288.57386 L872.379391,2288.57386 L880.749554,2300.65625 L886.825025,2300.65625 C887.468158,2300.65625 887.989489,2301.1809 887.989489,2301.82812 C887.989489,2302.47535 887.468042,2303 886.825025,2303 L886.825025,2303 L864.035661,2303 C863.392644,2303 862.871197,2302.47535 862.871197,2301.82812 C862.871197,2301.1809 863.392644,2300.65625 864.035661,2300.65625 L864.035661,2300.65625 L877.910592,2300.65625 L870.469321,2289.91425 C869.696001,2288.79816 868.427202,2288.13183 867.075376,2288.13183 C866.804522,2288.13183 866.543798,2288.24656 866.359813,2288.44648 L866.359813,2288.44648 L866.329421,2288.47941 C865.7062,2289.15687 864.822605,2289.54534 863.905241,2289.54534 L863.905241,2289.54534 L863.694036,2289.53849 C862.853363,2289.48387 862.056225,2289.10476 861.480944,2288.47952 L861.480944,2288.47952 L861.44962,2288.44542 C861.26645,2288.24656 861.005727,2288.13183 860.734989,2288.13183 C859.382931,2288.13183 858.114248,2288.79816 857.341044,2289.91425 L857.341044,2289.91425 L849.89954,2300.65625 L853.524631,2300.65625 C854.167765,2300.65625 854.689095,2301.1809 854.689095,2301.82812 C854.689095,2302.47535 854.167765,2303 853.524631,2303 L853.524631,2303 L840.984874,2303 C840.341741,2303 839.820411,2302.47535 839.820411,2301.82812 C839.820411,2301.1809 840.341741,2300.65625 840.984874,2300.65625 L840.984874,2300.65625 L847.060462,2300.65625 L855.430392,2288.57374 C856.638756,2286.82941 858.621721,2285.78796 860.734756,2285.78796 C861.462429,2285.78796 862.168327,2286.03323 862.740428,2286.47234 L862.740428,2286.47234 L862.740428,2278.12319 L862.274177,2276.91686 C861.371368,2274.58155 859.68476,2272.70291 857.49091,2271.56444 C856.027063,2273.84174 853.512754,2275.16713 850.896205,2275.16713 C849.842947,2275.16713 848.773621,2274.95268 847.749359,2274.49928 C846.891382,2274.11948 846.142865,2273.51819 845.584738,2272.76045 L845.584738,2272.76045 L838.228938,2262.77326 C837.979976,2262.43529 837.930254,2261.98881 838.098519,2261.60361 C838.2669,2261.21853 838.627534,2260.95381 839.043364,2260.90998 L839.043364,2260.90998 L851.329036,2259.61705 L851.329036,2259.61705 L851.640217,2259.59348 C852.470375,2259.55494 853.302762,2259.71021 854.065408,2260.04771 C855.98328,2260.89662 857.457956,2262.44631 858.217536,2264.41143 C858.844948,2266.03424 858.921104,2267.77963 858.454038,2269.42553 C860.154038,2270.28698 861.610083,2271.50854 862.740428,2273.00268 L862.740428,2273.00268 L862.740428,2256.76494 C858.326413,2255.77259 856.376635,2252.95529 855.517261,2250.68443 C854.542373,2248.10853 854.763853,2245.72271 854.773751,2245.62239 C854.816138,2245.19478 855.087574,2244.82458 855.481279,2244.65806 C855.874984,2244.49165 856.327844,2244.5554 856.660881,2244.82411 L856.660881,2244.82411 L861.82155,2248.98779 C862.877252,2249.8395 863.701693,2250.90533 864.255744,2252.09923 C864.950347,2250.89185 865.869108,2249.8081 866.985596,2248.90728 L866.985596,2248.90728 Z M858.332002,2300.74648 C858.91633,2300.50238 859.61233,2300.79019 859.852792,2301.38047 C860.097329,2301.97121 859.807494,2302.66402 859.222817,2302.90977 C858.638023,2303.15551 857.944469,2302.86594 857.702028,2302.27695 C857.459004,2301.68633 857.746044,2300.99129 858.332002,2300.74648 Z M876.604879,2268.10096 C875.073144,2267.81959 873.555149,2269.12729 872.933093,2270.43135 C872.607392,2271.11444 872.466842,2271.85389 872.512023,2272.58983 C872.636388,2272.54225 872.761567,2272.49596 872.887562,2272.45143 L872.887562,2272.45143 L877.341286,2270.87631 C877.948204,2270.66162 878.612647,2270.98284 878.825977,2271.59338 C879.03919,2272.20393 878.720243,2272.87295 878.113441,2273.08752 L878.113441,2273.08752 L873.659718,2274.66264 C873.529182,2274.70893 873.399926,2274.75768 873.27137,2274.80772 C874.470301,2276.56624 877.686666,2277.63323 879.285707,2275.77768 L879.285707,2275.77768 L884.62908,2269.57553 Z M851.798946,2261.93293 L851.571361,2261.94826 L841.315116,2263.02756 L847.455681,2271.36487 C847.773114,2271.79588 848.198958,2272.13795 848.686985,2272.35393 C851.083101,2273.41471 853.832166,2272.61491 855.332112,2270.58475 L855.332112,2270.58475 L850.332837,2268.37178 C849.744201,2268.11127 849.476957,2267.41963 849.735817,2266.82725 C849.994677,2266.23486 850.68171,2265.96592 851.27058,2266.22643 L851.27058,2266.22643 L856.297219,2268.45147 C856.842886,2265.92643 855.567333,2263.27307 853.128015,2262.1933 C852.639872,2261.97721 852.101657,2261.89248 851.571361,2261.94826 Z M873.48796,2246.66525 L868.44234,2250.73587 C866.675732,2252.16122 865.529551,2254.1622 865.179979,2256.36931 C868.904632,2255.45173 871.435942,2253.2806 872.715338,2249.90021 C873.156204,2248.7356 873.379082,2247.60392 873.48796,2246.66525 L873.48796,2246.66525 Z M857.263141,2248.31396 C857.36049,2248.82021 857.505932,2249.369 857.721707,2249.92341 C858.579101,2252.12701 860.204576,2253.59431 862.564128,2254.2999 C862.241106,2252.93818 861.478266,2251.71462 860.364923,2250.81638 L860.364923,2250.81638 Z" id="growth_icon"></path>
        </g>
    </g>
</svg>