<svg width="59" height="60" viewBox="0 0 59 60" fill="none" xmlns="http://www.w3.org/2000/svg">
<path id="impact" fill-rule="evenodd" clip-rule="evenodd" d="M57.1307 4.69143C57.1307 5.33908 56.6078 5.86429 55.9627 5.86429C55.3176 5.86429 54.7947 5.3392 54.7947 4.69143L54.7946 1.17286C54.7946 0.525206 55.3175 0 55.9626 0C56.6076 0 57.1306 0.525206 57.1306 1.17286L57.1307 4.69143ZM26.2239 14.0743C25.925 14.0743 25.6261 13.9599 25.398 13.7308C24.9419 13.2729 24.9419 12.5303 25.398 12.0723C27.3922 10.0696 27.3922 6.81095 25.398 4.80829C24.9418 4.35017 24.9419 3.60764 25.398 3.14964C25.8542 2.69152 26.5938 2.69164 27.0498 3.14964C29.9547 6.06688 29.9547 10.8136 27.0498 13.7308C26.8218 13.9597 26.5228 14.0743 26.2239 14.0743ZM48.5438 12.4561C48.3974 11.6052 48.3904 11.3222 48.6259 11.0856C48.8615 10.849 49.1433 10.856 49.9909 11.003C50.9014 11.1608 52.2778 11.3994 53.405 10.2672C53.8611 9.80922 53.861 9.06656 53.4048 8.60856C52.9488 8.15068 52.2091 8.15056 51.753 8.60868C51.5173 8.84513 51.2353 8.83821 50.3881 8.69137C49.4774 8.5335 48.1011 8.29517 46.9739 9.4271C45.8469 10.5591 46.0844 11.9408 46.2417 12.8552L46.2417 12.8554C46.388 13.7063 46.3951 13.9893 46.1595 14.226C45.9241 14.4624 45.6425 14.4556 44.7947 14.3085L44.7943 14.3085C43.8838 14.1507 42.5078 13.9123 41.3807 15.044C40.2536 16.1758 40.4913 17.5575 40.6487 18.4719L40.6487 18.4722C40.7952 19.323 40.8021 19.606 40.5667 19.8424C40.3311 20.0789 40.0493 20.072 39.2021 19.9249L39.202 19.9249C38.2915 19.767 36.9154 19.5284 35.7881 20.6604C35.332 21.1184 35.3321 21.861 35.7882 22.319C36.0162 22.548 36.3151 22.6624 36.614 22.6624C36.9129 22.6624 37.2119 22.5479 37.4399 22.3188C37.6754 22.0825 37.9571 22.0895 38.8045 22.2363C39.7151 22.3943 41.0913 22.633 42.2185 21.501C43.3455 20.3692 43.108 18.9874 42.9507 18.0731L42.9507 18.0727C42.8042 17.222 42.7973 16.9389 43.0325 16.7026C43.268 16.4661 43.55 16.473 44.3971 16.62C45.308 16.778 46.684 17.0165 47.8112 15.8845C48.9388 14.7525 48.7011 13.3706 48.5438 12.4561ZM25.1957 18.0585C27.9146 19.8251 31.144 22.5372 34.289 25.6951C37.434 28.8531 40.1349 32.0958 41.8941 34.8259C44.0595 38.1863 44.5299 40.2919 43.3741 41.4524C43.1562 41.6713 42.9036 41.8301 42.6166 41.9324L1.63545 59.902C1.48489 59.968 1.32592 60 1.16824 60C0.863849 60 0.564367 59.8805 0.340574 59.6549C0.000912369 59.3125 -0.0948656 58.7961 0.0993769 58.3538L18.1128 17.3446C18.2144 17.0512 18.3755 16.7944 18.5964 16.5725C19.7522 15.4122 21.8492 15.8841 25.1957 18.0585ZM28.26 41.2318L31.3351 44.3196L38.6891 41.0948C38.1021 40.7906 37.4653 40.4151 36.7748 39.9664C34.0558 38.1997 30.8264 35.4877 27.6815 32.3297C24.5365 29.1716 21.8357 25.9289 20.0763 23.1987C19.6256 22.4994 19.2494 21.8552 18.945 21.2618L15.709 28.6288L21.6525 34.5969C22.1086 35.055 22.1086 35.7977 21.6525 36.2557C21.4245 36.4848 21.1255 36.5992 20.8266 36.5992C20.5277 36.5992 20.2288 36.4848 20.0007 36.2557L14.698 30.931L9.6507 42.4216L17.5572 50.3608L29.0354 45.3279L26.6081 42.8906C26.152 42.4324 26.152 41.6898 26.6081 41.2318C27.0643 40.7738 27.8039 40.7738 28.26 41.2318ZM32.637 27.3539C35.4137 30.1421 37.8644 33.0363 39.5376 35.5031C41.152 37.8833 41.5841 39.1952 41.6414 39.7127C41.1259 39.6553 39.8194 39.2213 37.4491 37.6003C34.9923 35.9202 32.1101 33.4594 29.3333 30.6711C26.5566 27.8828 24.1058 24.9887 22.4326 22.5218C20.8183 20.1416 20.3861 18.8298 20.3289 18.3122C20.8443 18.3697 22.1509 18.8037 24.5212 20.4246C26.9781 22.1048 29.8602 24.5655 32.637 27.3539ZM15.2578 51.3691L8.63961 44.7236L3.44552 56.5487L15.2578 51.3691ZM52.4477 34.8401C50.4576 34.8401 48.5865 35.6184 47.1794 37.0316C46.7233 37.4897 46.7233 38.2323 47.1795 38.6904C47.6355 39.1483 48.3752 39.1483 48.8313 38.6903C49.7974 37.7202 51.0817 37.1858 52.4478 37.1858C53.8139 37.1858 55.0981 37.7201 56.0642 38.6903C56.2922 38.9193 56.5912 39.0338 56.8901 39.0338C57.189 39.0338 57.4879 38.9193 57.7159 38.6904C58.1721 38.2324 58.1721 37.4897 57.716 37.0316C56.3087 35.6184 54.4377 34.8401 52.4477 34.8401ZM35.1103 8.21966H36.2688V9.38302C36.2688 10.0308 36.7919 10.5559 37.437 10.5559C38.082 10.5559 38.6049 10.0307 38.6049 9.38302V8.21966H39.7633C40.4084 8.21966 40.9314 7.69445 40.9314 7.0468C40.9314 6.39915 40.4083 5.87394 39.7633 5.87394H38.6048V4.71059C38.6048 4.06282 38.0817 3.53773 37.4366 3.53773C36.7917 3.53773 36.2687 4.06293 36.2687 4.71059V5.87394H35.1103C34.4652 5.87394 33.9423 6.39915 33.9423 7.0468C33.9423 7.69445 34.4653 8.21966 35.1103 8.21966ZM54.2565 16.5374L57.7605 16.5373C58.4058 16.5372 58.9287 17.0625 58.9287 17.7102C58.9287 18.3578 58.4058 18.883 57.7608 18.883L54.2567 18.8831C53.6116 18.8831 53.0886 18.3579 53.0886 17.7103C53.0886 17.0626 53.6115 16.5374 54.2565 16.5374ZM53.6726 27.3276C53.6726 29.2678 52.1006 30.8462 50.1685 30.8462C48.2364 30.8462 46.6644 29.2678 46.6644 27.3276C46.6644 25.3875 48.2364 23.8091 50.1685 23.8091C52.1006 23.8091 53.6726 25.3875 53.6726 27.3276ZM51.3365 27.3276C51.3365 26.6809 50.8125 26.1548 50.1685 26.1548C49.5244 26.1548 49.0005 26.6809 49.0005 27.3276C49.0005 27.9743 49.5244 28.5005 50.1685 28.5005C50.8125 28.5005 51.3365 27.9743 51.3365 27.3276ZM22.9625 38.7439C22.9625 38.0961 23.4855 37.571 24.1305 37.571C24.7756 37.571 25.2991 38.0961 25.2991 38.7439C25.2991 39.3916 24.7766 39.9167 24.1317 39.9167H24.1305C23.4855 39.9167 22.9625 39.3916 22.9625 38.7439ZM50.285 42.2512C49.64 42.2512 49.117 42.7763 49.117 43.4241C49.117 44.0718 49.64 44.5969 50.285 44.5969H50.2862C50.9312 44.5969 51.4536 44.0718 51.4536 43.4241C51.4536 42.7763 50.93 42.2512 50.285 42.2512ZM56.125 24.63C56.125 23.9822 56.648 23.4571 57.293 23.4571C57.938 23.4571 58.4616 23.9822 58.4616 24.63C58.4616 25.2777 57.9391 25.8028 57.2942 25.8028H57.293C56.648 25.8028 56.125 25.2777 56.125 24.63ZM42.0699 27.0579C41.4249 27.0579 40.9018 27.583 40.9018 28.2307C40.9018 28.8785 41.4249 29.4036 42.0699 29.4036H42.071C42.716 29.4036 43.2385 28.8785 43.2385 28.2307C43.2385 27.583 42.715 27.0579 42.0699 27.0579ZM31.4905 16.5372C31.4905 15.8895 32.0135 15.3644 32.6585 15.3644C33.3035 15.3644 33.8271 15.8895 33.8271 16.5372C33.8271 17.185 33.3047 17.7101 32.6597 17.7101H32.6585C32.0135 17.7101 31.4905 17.185 31.4905 16.5372ZM46.7916 1.28932C46.1466 1.28932 45.6236 1.81441 45.6236 2.46218C45.6236 3.10995 46.1466 3.63504 46.7916 3.63504H46.7928C47.4378 3.63504 47.9602 3.10995 47.9602 2.46218C47.9602 1.81441 47.4366 1.28932 46.7916 1.28932ZM18.7482 8.20999C18.7482 7.56222 19.2712 7.03714 19.9162 7.03714C20.5612 7.03714 21.0848 7.56222 21.0848 8.20999C21.0848 8.85776 20.5623 9.38285 19.9174 9.38285H19.9162C19.2712 9.38285 18.7482 8.85776 18.7482 8.20999Z" fill="#5C5AEA"/>
</svg>
