<svg width="60" height="60" viewBox="0 0 60 60" fill="none" xmlns="http://www.w3.org/2000/svg">
<path id="innovative" fill-rule="evenodd" clip-rule="evenodd" d="M16.6125 22.8081C26.9347 9.03127 41.7362 -0.132151 58.8353 0.00144148C59.4759 0.00601177 59.9941 0.524329 59.9987 1.16499C60.0449 7.6385 58.7825 14.1451 55.9746 20.4926C55.7131 21.0838 55.022 21.3523 54.4289 21.0903C53.837 20.8285 53.5694 20.1364 53.8312 19.5444C54.6664 17.6567 55.3698 15.716 55.9337 13.7589C53.5155 13.3696 51.2777 12.235 49.5212 10.4796C47.7648 8.72213 46.6301 6.48363 46.2411 4.06454C28.5981 9.14178 16.7695 24.7624 13.0403 33.159C16.693 36.811 16.7538 36.8719 16.9103 37.0286L16.9104 37.0287C17.0306 37.1491 17.2078 37.3265 19.112 39.2308L25.7412 32.6016C26.1988 32.1441 26.9409 32.1441 27.3984 32.6016C27.8561 33.0594 27.8561 33.8014 27.3984 34.259L20.7693 40.8881L26.8411 46.9599C28.2492 46.3345 31.1483 44.8822 34.9945 42.0942C38.7084 39.404 44.0984 34.8582 48.6862 28.4777C49.0642 27.9524 49.7965 27.8327 50.3218 28.2104C50.8473 28.5883 50.9669 29.3205 50.5891 29.846C46.147 36.0236 40.9911 40.5404 37.1909 43.3869C39.258 47.809 38.3597 53.1289 34.8563 56.6324C34.3986 57.0899 33.6564 57.0898 33.1989 56.6324L23.7397 47.1732L17.4842 48.9338C17.0787 49.0481 16.6394 48.9357 16.3381 48.6344L11.3658 43.6621C11.066 43.3623 10.9515 42.924 11.0664 42.516L12.8269 36.2603L3.36777 26.8012C2.91015 26.3435 2.91038 25.6014 3.36777 25.1439C6.87038 21.6413 12.19 20.7427 16.6125 22.8081ZM33.9757 54.0944C36.0311 51.4467 36.5147 47.8811 35.2451 44.7875C32.9378 46.3827 30.601 47.7682 28.6079 48.7265L33.9757 54.0944ZM14.727 38.1601L21.8398 45.2729L17.5099 46.4914L13.5085 42.4898L14.727 38.1601ZM5.90566 26.0245L11.2737 31.3923C12.2325 29.3977 13.6176 27.0604 15.2119 24.754C12.118 23.4857 8.55269 23.9696 5.90566 26.0245ZM56.5272 11.4794C54.5089 11.2033 52.6364 10.2794 51.1783 8.82209C49.7207 7.3637 48.7967 5.49129 48.5206 3.47287C51.4955 2.7865 54.5562 2.40987 57.6482 2.35186C57.5901 5.44383 57.2134 8.50487 56.5272 11.4794ZM31.4167 16.9829C28.2145 20.185 28.2141 25.381 31.4167 28.5835C34.6188 31.7855 39.8148 31.786 43.0173 28.5835C46.2196 25.3813 46.22 20.1854 43.0173 16.9829C39.8153 13.7809 34.6192 13.7804 31.4167 16.9829ZM41.3602 26.9262C39.074 29.2125 35.3605 29.2127 33.0742 26.9262C30.788 24.6403 30.7877 20.9265 33.0742 18.6403C35.3604 16.354 39.0737 16.3539 41.3603 18.6403C43.6464 20.9263 43.6467 24.64 41.3602 26.9262ZM53.4699 24.6064C53.4699 25.2536 52.9453 25.7782 52.2981 25.7782C51.6509 25.7782 51.1262 25.2536 51.1262 24.6064C51.1262 23.9592 51.6509 23.4345 52.2981 23.4345C52.9453 23.4345 53.4699 23.9592 53.4699 24.6064ZM6.39328 46.9773C4.95446 48.4173 0.913014 56.6759 0.117429 58.3169C-0.100305 58.7659 -0.00971958 59.3038 0.343249 59.6568C0.698092 60.0115 1.23657 60.0993 1.68317 59.8826C3.32414 59.087 11.5828 55.0456 13.0229 53.6068L13.0233 53.6064C14.851 51.7787 14.851 48.8046 13.0233 46.9769C11.1914 45.1449 8.22656 45.1438 6.39328 46.9773ZM11.3662 51.9486C10.7214 52.5928 7.16475 54.5106 3.76831 56.2315C5.48932 52.8352 7.40698 49.2785 8.05081 48.6341C8.9671 47.7177 10.4492 47.7174 11.3658 48.6341C12.2796 49.548 12.2797 51.0348 11.3662 51.9486Z" fill="#5C5AEA"/>
</svg>
