<svg width="60" height="60" viewBox="0 0 60 60" fill="none" xmlns="http://www.w3.org/2000/svg">
<path id="international" fill-rule="evenodd" clip-rule="evenodd" d="M8.78686 8.78694C20.5026 -2.92896 39.4979 -2.92896 51.2138 8.78682C56.8393 14.4126 59.9997 22.0427 60 29.9988C60.0004 46.5676 46.5691 59.9996 30.0004 60C29.3114 60 28.6157 59.9765 27.9323 59.9297L28.0684 57.9345C28.7066 57.9778 29.3566 58 30.0004 58C32.585 58.002 35.1576 57.6478 37.6455 56.9475L34.0773 48.3842C33.9487 48.0756 33.9829 47.7231 34.1684 47.4448L40.0819 38.5747L41.9971 31.8714C41.3989 30.6932 41.0005 29.388 41.0005 27.9996C41 25.2237 42.6402 22.7099 45.1811 21.5921C48.7192 20.0356 52.8492 21.642 54.4057 25.1802L57.0105 22.5755C55.8687 18.4044 53.7688 14.5576 50.8778 11.3415L47.6006 13.7994C47.4811 13.889 47.343 13.9508 47.1965 13.98L42.6025 14.8987L38.9705 20.3468L37.9955 30.0991C37.9613 30.4405 37.7546 30.7405 37.4477 30.894L33.4477 32.894C33.0214 33.1075 32.5037 32.99 32.2112 32.6135L25.2932 23.7191L21.4003 20.7995C21.1944 20.6451 21.056 20.4173 21.0138 20.1635L20.1178 14.7869L13.7254 12.9609C13.4002 12.8679 13.1439 12.6169 13.0444 12.2935L11.9151 8.62307C11.325 9.1222 10.7536 9.64796 10.2011 10.2003C8.64898 11.7509 7.28297 13.4771 6.13095 15.3442L8.70048 18.2817L14.5281 23.1378L17.3938 24.3661L16.6063 26.2045L13.6063 24.9188C13.5173 24.8807 13.4344 24.8298 13.36 24.7678L7.35997 19.7677C7.31972 19.7341 7.28209 19.6975 7.24747 19.658L5.08844 17.1902C3.04991 21.1517 1.9909 25.5443 2.00003 29.9996C2.00003 30.9674 2.0494 31.9346 2.14815 32.8974L0.158627 33.1019C0.0530007 32.0711 0 31.0357 0 29.9996C0.000250003 22.0432 3.16091 14.4129 8.78686 8.78694ZM41.8045 13.0194L46.5821 12.064L49.4809 9.88923C39.7292 0.443479 24.6073 -0.648162 13.6003 7.29932L14.7966 11.1869L21.2751 13.0379C21.6464 13.1439 21.9234 13.4542 21.9869 13.835L22.9209 19.4399L26.6005 22.1995C26.6718 22.2531 26.7357 22.3161 26.7902 22.3869L33.287 30.7398L36.0609 29.3522L37.0061 19.9006C37.0221 19.7379 37.078 19.5815 37.1686 19.4454L41.1686 13.4453C41.3158 13.2246 41.5445 13.0714 41.8045 13.0194ZM48.0005 22.9995C50.7607 23.0026 52.9975 25.2394 53.0006 27.9996C53.0006 31.5556 49.4051 34.677 47.9993 35.7613C47.1888 35.1368 46.4317 34.4461 45.7354 33.6964C44.488 32.3447 43.0005 30.2592 43.0005 27.9996C43.0036 25.2394 45.2404 23.0026 48.0005 22.9995ZM39.5562 56.3334C43.4092 54.934 46.9066 52.7028 49.7996 49.7988C55.0679 44.5592 58.021 37.4296 58.0007 29.9995C58.0007 28.2824 57.8446 26.5689 57.5341 24.88L54.9757 27.4383C54.9909 27.6236 55.0007 27.8104 55.0007 27.9995C55.0007 33.4718 48.8185 37.6563 48.5554 37.8316C48.2195 38.0557 47.7817 38.0557 47.4458 37.8316C45.9413 36.7816 44.5933 35.5235 43.4419 34.0951L41.962 39.2744C41.9336 39.3739 41.8899 39.4683 41.8325 39.5544L36.1293 48.1092L39.5562 56.3334ZM18.0002 39.9997V45.9998C17.9984 47.6558 16.6562 48.9978 15.0002 48.9998H14.0002V59C14.0002 59.5522 13.5524 60 13.0002 60H5.00006C4.44781 60 4.00005 59.5522 4.00005 59V48.9998H3.00004C1.34402 48.9979 0.00187502 47.6558 0 45.9998V39.9997C0.00387505 37.0499 2.14828 34.539 5.06106 34.0736C3.64642 32.2642 3.64642 29.7237 5.06106 27.9143C6.76196 25.7388 9.90425 25.354 12.0798 27.0549C14.2553 28.7558 14.6401 31.8981 12.9392 34.0736C15.8519 34.5391 17.9964 37.0499 18.0002 39.9997ZM12.0002 30.9996C12.0002 29.3427 10.657 27.9996 9.00014 27.9996C7.34412 28.0014 6.00198 29.3435 6.0001 30.9996C6.0001 32.6565 7.34325 33.9997 9.00014 33.9997C10.657 33.9997 12.0002 32.6565 12.0002 30.9996ZM16.0002 45.9997C15.9996 46.5517 15.5522 46.9991 15.0002 46.9997H14.0002V41.9997H12.0002V57.9999H10.0001V50.9998H8.00011V57.9999H6.00008V41.9997H4.00006V46.9997H3.00005C2.44804 46.9991 2.00066 46.5517 2.00003 45.9997V39.9996C2.00253 37.7915 3.79193 36.0021 6.00008 35.9996H8.00011V39.9996H10.0001V35.9996H12.0002C14.2083 36.0021 15.9977 37.7915 16.0002 39.9996V45.9997ZM30.0003 45.9998V39.9997C29.9964 37.0499 27.852 34.5392 24.9392 34.0737C26.6351 31.8964 26.2449 28.7565 24.0676 27.0606C21.8903 25.3647 18.7504 25.7549 17.0545 27.9322C15.3586 30.1095 15.7489 33.2494 17.9261 34.9453C18.5346 35.4192 19.2445 35.7459 20.0002 35.8997V39.9997H22.0002V35.9997H24.0002C26.2084 36.0022 27.9978 37.7916 28.0003 39.9997V45.9998C27.9996 46.5518 27.5523 46.9992 27.0002 46.9998H26.0002V41.9998H24.0002V58H22.0002V50.9999H20.0002V58H18.0001V50.9999H16.0001V59C16.0001 59.5522 16.4479 60 17.0001 60H25.0002C25.5525 60 26.0002 59.5522 26.0002 59V48.9999H27.0002C28.6563 48.9978 29.9984 47.6558 30.0003 45.9998ZM18 30.9996C18 29.3427 19.3432 27.9995 21.0001 27.9995C22.657 27.9995 24.0001 29.3427 24.0001 30.9996C24.0001 32.6564 22.657 33.9996 21.0001 33.9996C19.3441 33.9976 18.0019 32.6556 18 30.9996ZM48.0006 30.9996C49.6575 30.9996 51.0006 29.6565 51.0006 27.9996C51.0006 26.3427 49.6575 24.9995 48.0006 24.9995C46.3437 24.9995 45.0005 26.3427 45.0005 27.9996C45.0024 29.6556 46.3445 30.9976 48.0006 30.9996ZM48.0006 26.9996C48.5529 26.9996 49.0006 27.4473 49.0006 27.9996C49.0006 28.5518 48.5529 28.9996 48.0006 28.9996C47.4483 28.9996 47.0006 28.5518 47.0006 27.9996C47.0012 27.4476 47.4486 27.0002 48.0006 26.9996ZM28.0002 10.9994C28.0002 9.3425 29.3434 7.99935 31.0003 7.99935C32.6563 8.00123 33.9984 9.34325 34.0003 10.9994C34.0003 12.6563 32.6572 13.9994 31.0003 13.9994C29.3434 13.9994 28.0002 12.6563 28.0002 10.9994ZM30.0002 10.9994C30.0002 11.5516 30.448 11.9994 31.0003 11.9994C31.5523 11.9988 31.9996 11.5514 32.0003 10.9994C32.0003 10.4471 31.5525 9.99936 31.0003 9.99936C30.448 9.99936 30.0002 10.4471 30.0002 10.9994ZM31.0005 3.99928C27.1362 4.00366 24.0048 7.13508 24.0004 10.9994C24.0004 16.4717 30.1826 20.6561 30.4457 20.8315C30.7816 21.0555 31.2194 21.0555 31.5553 20.8315C31.8184 20.6561 38.0006 16.4717 38.0006 10.9994C37.9962 7.13508 34.8648 4.00354 31.0005 3.99928ZM30.9992 18.7611C30.1887 18.1366 29.4316 17.446 28.7353 16.6962C27.4879 15.3446 26.0004 13.2591 26.0004 10.9994C26.0004 8.23799 28.239 5.99934 31.0004 5.99934C33.7619 5.99934 36.0005 8.23799 36.0005 10.9994C36.0005 14.5555 32.405 17.6769 30.9992 18.7611ZM39.0004 46.9998H41.0004V48.9998H39.0004V46.9998ZM50.0006 41.9998H48.0006V43.9998H50.0006V41.9998ZM32.0003 23.9995H34.0003V25.9995H32.0003V23.9995ZM7.00011 22.9995H5.00009V24.9995H7.00011V22.9995ZM17.0003 6.99934H19.0003V8.99936H17.0003V6.99934ZM44.0005 7.99935H42.0005V9.99938H44.0005V7.99935Z" fill="#5C5AEA"/>
</svg>
