<svg width="53" height="60" viewBox="0 0 53 60" fill="none" xmlns="http://www.w3.org/2000/svg">
<path id="thinking" fill-rule="evenodd" clip-rule="evenodd" d="M45.4486 6.03589C40.9056 1.78554 34.9555 -0.345544 28.711 0.0457061L28.8316 1.97691C34.5372 1.62394 39.968 3.56601 44.1175 7.4459C48.2689 11.3291 50.5556 16.5907 50.5556 22.2586C50.5556 29.0889 47.1353 35.4226 41.4059 39.2019C39.4297 40.506 37.9343 42.3664 37.0129 44.5163H23.2247C22.2905 42.3508 20.7894 40.4772 18.8098 39.1612C12.9053 35.2331 9.51247 28.6731 9.73322 21.6103L7.78972 21.5503C7.54762 29.2845 11.2642 36.4697 17.7298 40.7697C19.1578 41.7199 20.2981 43.0137 21.0927 44.5163H18.4723V46.4518H21.8684C22.0569 47.0788 22.2079 47.7215 22.2843 48.3873H20.4167V50.3227H22.3612V53.2259C22.3612 53.7613 22.797 54.1936 23.3334 54.1936H24.3056C24.3056 57.3959 26.9218 60 30.139 60C33.3561 60 35.9723 57.3959 35.9723 54.1936H36.9445C37.4814 54.1936 37.9167 53.7613 37.9167 53.2259V50.3227H39.8612V48.3873H37.9851C38.0539 47.7224 38.1911 47.0779 38.3758 46.4518H41.8056V44.5163H39.1429C39.9262 43.0303 41.0599 41.7525 42.4807 40.816C48.7541 36.6748 52.5001 29.7382 52.5001 22.2586C52.5001 16.1408 49.9295 10.2272 45.4486 6.03589ZM30.1389 58.0645C27.9941 58.0645 26.25 56.3285 26.25 54.1936H34.0278C34.0278 56.3285 32.2837 58.0645 30.1389 58.0645ZM24.3057 52.2582H35.9724V50.3227H24.3057V52.2582ZM36.0417 48.3872H24.2279C24.1628 47.7285 24.0579 47.0812 23.8984 46.4518H36.3441C36.1893 47.0802 36.0996 47.7304 36.0417 48.3872ZM13.6111 16.4522C13.6111 14.3835 14.9285 12.6281 16.7671 11.9368C16.6213 11.5314 16.5278 11.1009 16.5278 10.6458C16.5278 8.51146 18.2719 6.77493 20.4167 6.77493C20.9009 6.77493 21.36 6.87464 21.7877 7.0353C22.4176 5.74153 23.7388 4.83948 25.2778 4.83948C27.4226 4.83948 29.1667 6.576 29.1667 8.71039V35.8068C29.1667 37.9417 27.4226 39.6777 25.2778 39.6777C23.7388 39.6777 22.4176 38.7761 21.7877 37.4819C21.36 37.6426 20.9009 37.7423 20.4167 37.7423C18.2719 37.7423 16.5278 36.0062 16.5278 33.8713C16.5278 33.4168 16.6213 32.9858 16.7671 32.5804C14.9285 31.8896 13.6111 30.1341 13.6111 28.065C13.6111 27.2688 13.8243 26.5274 14.1685 25.8635C12.7101 25.305 11.6667 23.9058 11.6667 22.2586C11.6667 20.6118 12.7101 19.2122 14.1685 18.6542C13.8243 17.9903 13.6111 17.2489 13.6111 16.4522ZM22.361 10.6458C22.361 9.57839 21.4889 8.71036 20.4165 8.71036C19.3441 8.71036 18.4721 9.57839 18.4721 10.6458C18.4721 11.7132 19.3441 12.5813 20.4165 12.5813V14.5167C19.4695 14.5167 18.6121 14.1647 17.9375 13.6033C16.5841 13.8543 15.5554 15.0337 15.5554 16.4522C15.5554 18.0531 16.8642 19.3554 18.4721 19.3554C20.0804 19.3554 21.3887 18.0531 21.3887 16.4522H23.3332C23.3332 19.1205 21.1528 21.2908 18.4721 21.2908C17.3736 21.2908 16.37 20.9128 15.5554 20.2981V20.3231C14.483 20.3231 13.611 21.1911 13.611 22.2586C13.611 23.326 14.483 24.194 15.5554 24.194V24.2195C16.37 23.6048 17.3736 23.2263 18.4721 23.2263C21.1528 23.2263 23.3332 25.3971 23.3332 28.0649H21.3887C21.3887 26.4645 20.0804 25.1617 18.4721 25.1617C16.8642 25.1617 15.5554 26.4645 15.5554 28.0649C15.5554 29.4839 16.5841 30.6633 17.9375 30.9143C18.6121 30.3529 19.4695 30.0004 20.4165 30.0004V31.9358C19.3441 31.9358 18.4721 32.8039 18.4721 33.8713C18.4721 34.9387 19.3441 35.8068 20.4165 35.8068C21.4889 35.8068 22.361 34.9387 22.361 33.8713H24.3054C24.3054 34.8017 23.9603 35.6452 23.4091 36.3128C23.6346 37.1336 24.3823 37.7422 25.2776 37.7422C26.35 37.7422 27.2221 36.8742 27.2221 35.8068V8.71036C27.2221 7.64293 26.35 6.7749 25.2776 6.7749C24.3823 6.7749 23.6346 7.38399 23.4091 8.20429C23.9603 8.87196 24.3054 9.71589 24.3054 10.6458H22.361ZM38.4907 7.0353C38.9184 6.87464 39.377 6.77493 39.8612 6.77493C42.006 6.77493 43.7501 8.51146 43.7501 10.6458C43.7501 11.1009 43.657 11.5314 43.5108 11.9368C45.3494 12.6281 46.6667 14.3835 46.6667 16.4522C46.6667 17.2489 46.4541 17.9903 46.1099 18.6542C47.5682 19.2122 48.6112 20.6118 48.6112 22.2586C48.6112 23.9058 47.5682 25.305 46.1099 25.8635C46.4541 26.5274 46.6667 27.2688 46.6667 28.065C46.6667 30.1341 45.3494 31.8896 43.5108 32.5804C43.657 32.9858 43.7501 33.4168 43.7501 33.8713C43.7501 36.0062 42.006 37.7423 39.8612 37.7423C39.377 37.7423 38.9184 37.6426 38.4907 37.4819C37.8603 38.7761 36.5391 39.6777 35.0001 39.6777C32.8553 39.6777 31.1112 37.9417 31.1112 35.8068V8.71039C31.1112 6.576 32.8553 4.83948 35.0001 4.83948C36.5391 4.83948 37.8603 5.74153 38.4907 7.0353ZM41.8056 19.3554C43.414 19.3554 44.7223 18.0531 44.7223 16.4522C44.7223 15.0337 43.6936 13.8543 42.3406 13.6033C41.6656 14.1647 40.8082 14.5167 39.8612 14.5167V12.5813C40.9336 12.5813 41.8056 11.7132 41.8056 10.6458C41.8056 9.57839 40.9336 8.71036 39.8612 8.71036C38.7888 8.71036 37.9167 9.57839 37.9167 10.6458H35.9723C35.9723 9.71589 36.3174 8.87196 36.8685 8.20429C36.6431 7.38399 35.8954 6.7749 35.0001 6.7749C33.9277 6.7749 33.0556 7.64293 33.0556 8.71036V35.8068C33.0556 36.8742 33.9277 37.7422 35.0001 37.7422C35.8954 37.7422 36.6431 37.1336 36.8685 36.3128C36.3174 35.6452 35.9723 34.8017 35.9723 33.8713H37.9167C37.9167 34.9387 38.7888 35.8068 39.8612 35.8068C40.9336 35.8068 41.8056 34.9387 41.8056 33.8713C41.8056 32.8039 40.9336 31.9358 39.8612 31.9358V30.0004C40.8082 30.0004 41.6656 30.3529 42.3406 30.9143C43.6936 30.6633 44.7223 29.4839 44.7223 28.0649C44.7223 26.4645 43.414 25.1617 41.8056 25.1617C40.1977 25.1617 38.8889 26.4645 38.8889 28.0649H36.9445C36.9445 25.3971 39.1254 23.2263 41.8056 23.2263C42.9041 23.2263 43.9077 23.6048 44.7223 24.2195V24.194C45.7947 24.194 46.6667 23.326 46.6667 22.2586C46.6667 21.1911 45.7947 20.3231 44.7223 20.3231V20.2981C43.9077 20.9128 42.9041 21.2908 41.8056 21.2908C39.1254 21.2908 36.9445 19.1205 36.9445 16.4522H38.8889C38.8889 18.0531 40.1977 19.3554 41.8056 19.3554ZM10.6943 10.6458C10.6943 8.51141 8.95021 6.77489 6.80544 6.77489C6.26901 6.77489 5.83322 6.34253 5.83322 5.80716C5.83322 5.27226 6.26901 4.83943 6.80544 4.83943C8.95021 4.83943 10.6943 3.10338 10.6943 0.968513C10.6943 0.433617 11.1301 0.000784738 11.6666 0.000784738C12.2035 0.000784738 12.6388 0.433617 12.6388 0.968513C12.6388 3.10338 14.3829 4.83943 16.5277 4.83943C17.0646 4.83943 17.4999 5.27226 17.4999 5.80716C17.4999 6.34253 17.0646 6.77489 16.5277 6.77489C14.3829 6.77489 12.6388 8.51141 12.6388 10.6458C12.6388 11.1812 12.2035 11.6135 11.6666 11.6135C11.1301 11.6135 10.6943 11.1812 10.6943 10.6458ZM13.3066 5.80717C12.6572 5.37764 12.0984 4.82101 11.6664 4.1746C11.2349 4.82101 10.6757 5.37764 10.0263 5.80717C10.6757 6.23716 11.2349 6.79332 11.6664 7.43973C12.0984 6.79332 12.6572 6.23716 13.3066 5.80717ZM10.6944 16.4521C11.2313 16.4521 11.6667 16.0198 11.6667 15.4844C11.6667 14.9495 11.2313 14.5167 10.6944 14.5167C8.54967 14.5167 6.80556 12.7806 6.80556 10.6458C6.80556 10.1109 6.37024 9.67804 5.83333 9.67804C5.2969 9.67804 4.86111 10.1109 4.86111 10.6458C4.86111 12.7806 3.117 14.5167 0.972222 14.5167C0.435791 14.5167 0 14.9495 0 15.4844C0 16.0198 0.435791 16.4521 0.972222 16.4521C3.117 16.4521 4.86111 18.1887 4.86111 20.3231C4.86111 20.8584 5.2969 21.2908 5.83333 21.2908C6.37024 21.2908 6.80556 20.8584 6.80556 20.3231C6.80556 18.1887 8.54967 16.4521 10.6944 16.4521ZM5.83327 17.117C5.40175 16.4706 4.84253 15.9144 4.19312 15.4844C4.84253 15.0549 5.4008 14.4983 5.83327 13.8519C6.26526 14.4983 6.824 15.054 7.47342 15.4844C6.824 15.9144 6.26526 16.4706 5.83327 17.117Z" fill="#5C5AEA"/>
</svg>
