<?xml version="1.0" encoding="UTF-8"?>
<svg width="2761px" height="567px" viewBox="0 0 2761 567" version="1.1" xmlns="http://www.w3.org/2000/svg" xmlns:xlink="http://www.w3.org/1999/xlink">
    <title>testimonials-bkg</title>
    <g id="PHASE-2-[Desktop]" stroke="none" stroke-width="1" fill="none" fill-rule="evenodd" fill-opacity="0.2" opacity="0.25">
        <g id="testimonials-bkg">
            <g id="Group">
                <path d="M1348,0 C1349.10457,2.02906125e-16 1350,0.8954305 1350,2 L1350,2 L1350,185.333333 C1350,184.228764 1350.89543,183.333333 1352,183.333333 L1352,183.333333 L1378,183.333333 C1379.10457,183.333333 1380,184.228764 1380,185.333333 L1380,185.333333 L1380,112 C1380,110.895431 1380.89543,110 1382,110 L1382,110 L1408,110 C1409.10457,110 1410,110.895431 1410,112 L1410,112 L1410,293 L1380,293 L1380,293 L1350,293 L1350,293 L1320,293 L1320,293 L1260,293 L1260,293 L1230,293 L1230,293 L1200,293 L1200,293 L1170,293 L1170,293 L1110,293 L1110,293 L1080,293 L1080,293 L1020,293 L1020,185.333333 C1020,184.228764 1020.89543,183.333333 1022,183.333333 L1022,183.333333 L1048,183.333333 C1049.10457,183.333333 1050,184.228764 1050,185.333333 C1050,184.228764 1050.89543,183.333333 1052,183.333333 L1052,183.333333 L1078,183.333333 C1079.10457,183.333333 1080,184.228764 1080,185.333333 L1080,185.333333 L1080,112 C1080,110.895431 1080.89543,110 1082,110 L1082,110 L1108,110 C1109.10457,110 1110,110.895431 1110,112 L1110,112 L1110,185.333333 C1110,184.228764 1110.89543,183.333333 1112,183.333333 L1112,183.333333 L1138,183.333333 C1139.10457,183.333333 1140,184.228764 1140,185.333333 L1140,185.333333 L1140,222 C1140,220.895431 1140.89543,220 1142,220 L1142,220 L1168,220 C1169.10457,220 1170,220.895431 1170,222 L1170,222 L1170,112 C1170,110.895431 1170.89543,110 1172,110 L1172,110 L1198,110 C1199.10457,110 1200,110.895431 1200,112 L1200,112 L1200,148.666667 C1200,147.562097 1200.89543,146.666667 1202,146.666667 L1202,146.666667 L1228,146.666667 C1229.10457,146.666667 1230,147.562097 1230,148.666667 L1230,148.666667 L1230,75.3333333 C1230,74.2287638 1230.89543,73.3333333 1232,73.3333333 L1232,73.3333333 L1258,73.3333333 C1259.10457,73.3333333 1260,74.2287638 1260,75.3333333 L1260,75.3333333 L1260,258.666667 C1260,257.562097 1260.89543,256.666667 1262,256.666667 L1262,256.666667 L1288,256.666667 C1289.10457,256.666667 1290,257.562097 1290,258.666667 L1290,258.666667 L1290,38.6666667 C1290,37.5620972 1290.89543,36.6666667 1292,36.6666667 L1292,36.6666667 L1318,36.6666667 C1319.10457,36.6666667 1320,37.5620972 1320,38.6666667 L1320,38.6666667 L1320,2 C1320,0.8954305 1320.89543,-2.02906125e-16 1322,0 L1322,0 Z M960,293.333333 L60,293.333333 L60,75.3333333 C60,74.2287638 60.8954305,73.3333333 62,73.3333333 L88,73.3333333 C89.1045695,73.3333333 90,74.2287638 90,75.3333333 L90,148.666667 C90,147.562097 90.8954305,146.666667 92,146.666667 L118,146.666667 C119.104569,146.666667 120,147.562097 120,148.666667 L120,2 C120,0.8954305 120.895431,2.02906125e-16 122,0 L148,0 C149.054362,-1.9368312e-16 149.918165,0.815877791 149.994514,1.85073766 L150,2 C150,0.8954305 150.895431,2.02906125e-16 152,0 L178,0 C179.104569,-2.02906125e-16 180,0.8954305 180,2 L180,222 C180,220.895431 180.895431,220 182,220 L208,220 C209.104569,220 210,220.895431 210,222 L210,38.6666667 C210,37.5620972 210.895431,36.6666667 212,36.6666667 L238,36.6666667 C239.104569,36.6666667 240,37.5620972 240,38.6666667 L240,112 C240,110.895431 240.895431,110 242,110 L268,110 C269.104569,110 270,110.895431 270,112 L270,75.3333333 C270,74.2287638 270.895431,73.3333333 272,73.3333333 L298,73.3333333 C299.104569,73.3333333 300,74.2287638 300,75.3333333 L300,185.333333 C300,184.228764 300.895431,183.333333 302,183.333333 L328,183.333333 C329.104569,183.333333 330,184.228764 330,185.333333 L330,148.666667 C330,147.562097 330.895431,146.666667 332,146.666667 L358,146.666667 C359.104569,146.666667 360,147.562097 360,148.666667 L360,75.3333333 C360,74.2287638 360.895431,73.3333333 362,73.3333333 L388,73.3333333 C389.104569,73.3333333 390,74.2287638 390,75.3333333 L390,148.666667 C390,147.562097 390.895431,146.666667 392,146.666667 L418,146.666667 C419.054362,146.666667 419.918165,147.482544 419.994514,148.517404 L420,148.666667 C420,147.562097 420.895431,146.666667 422,146.666667 L448,146.666667 C449.104569,146.666667 450,147.562097 450,148.666667 L450,258.666667 C450,257.562097 450.895431,256.666667 452,256.666667 L478,256.666667 C479.104569,256.666667 480,257.562097 480,258.666667 L480,112 C480,110.895431 480.895431,110 482,110 L508,110 C509.104569,110 510,110.895431 510,112 L510,75.3333333 C510,74.2287638 510.895431,73.3333333 512,73.3333333 L538,73.3333333 C539.104569,73.3333333 540,74.2287638 540,75.3333333 L540,148.666667 C540,147.562097 540.895431,146.666667 542,146.666667 L568,146.666667 C569.104569,146.666667 570,147.562097 570,148.666667 L570,2 C570,0.8954305 570.895431,2.02906125e-16 572,0 L598,0 C599.104569,-2.02906125e-16 600,0.8954305 600,2 L600,38.6666667 C600,37.5620972 600.895431,36.6666667 602,36.6666667 L628,36.6666667 C629.104569,36.6666667 630,37.5620972 630,38.6666667 L630,222 C630,220.895431 630.895431,220 632,220 L658,220 C659.104569,220 660,220.895431 660,222 L660,38.6666667 C660,37.5620972 660.895431,36.6666667 662,36.6666667 L688,36.6666667 C689.104569,36.6666667 690,37.5620972 690,38.6666667 L690,112 C690,110.895431 690.895431,110 692,110 L718,110 C719.104569,110 720,110.895431 720,112 L720,75.3333333 C720,74.2287638 720.895431,73.3333333 722,73.3333333 L748,73.3333333 C749.104569,73.3333333 750,74.2287638 750,75.3333333 L750,185.333333 C750,184.228764 750.895431,183.333333 752,183.333333 L778,183.333333 C779.104569,183.333333 780,184.228764 780,185.333333 L780,148.666667 C780,147.562097 780.895431,146.666667 782,146.666667 L808,146.666667 C809.104569,146.666667 810,147.562097 810,148.666667 L810,75.3333333 C810,74.2287638 810.895431,73.3333333 812,73.3333333 L838,73.3333333 C839.104569,73.3333333 840,74.2287638 840,75.3333333 L840,148.666667 C840,147.562097 840.895431,146.666667 842,146.666667 L868,146.666667 C869.054362,146.666667 869.918165,147.482544 869.994514,148.517404 L870,148.666667 C870,147.562097 870.895431,146.666667 872,146.666667 L898,146.666667 C899.104569,146.666667 900,147.562097 900,148.666667 L900,258.666667 C900,257.562097 900.895431,256.666667 902,256.666667 L928,256.666667 C929.104569,256.666667 930,257.562097 930,258.666667 L930,112 C930,110.895431 930.895431,110 932,110 L958,110 C959.104569,110 960,110.895431 960,112 L960,148.666667 C960,147.562097 960.895431,146.666667 962,146.666667 L962,146.666667 L988,146.666667 C989.104569,146.666667 990,147.562097 990,148.666667 L990,148.666667 L990,293 L960,293 L960,293.333333 Z" id="Combined-Shape" fill="#17EFCE" transform="translate(735.000000, 146.666667) scale(-1, 1) translate(-735.000000, -146.666667) "></path>
                <path d="M960.5,293 L990.5,293 L990.5,484.666667 L990.494514,484.815929 C990.418165,485.850789 989.554362,486.666667 988.5,486.666667 L988.5,486.666667 L962.5,486.666667 L962.350738,486.661181 C961.315878,486.584832 960.5,485.721028 960.5,484.666667 L960.5,484.666667 L960.5,448 C960.5,449.054362 959.684122,449.918165 958.649262,449.994514 L958.5,450 L932.5,450 C931.445638,450 930.581835,449.184122 930.505486,448.149262 L930.5,448 L930.5,564.666667 C930.5,565.721028 929.684122,566.584832 928.649262,566.661181 L928.5,566.666667 L902.5,566.666667 C901.445638,566.666667 900.581835,565.850789 900.505486,564.815929 L900.5,564.666667 L900.5,484.666667 C900.5,485.721028 899.684122,486.584832 898.649262,486.661181 L898.5,486.666667 L872.5,486.666667 C871.445638,486.666667 870.581835,485.850789 870.505486,484.815929 L870.5,484.666667 L870.494514,484.815929 C870.421983,485.799046 869.638773,486.584531 868.65665,486.660622 L868.5,486.666667 L842.5,486.666667 C841.445638,486.666667 840.581835,485.850789 840.505486,484.815929 L840.5,484.666667 L840.5,411.333333 C840.5,412.387695 839.684122,413.251498 838.649262,413.327848 L838.5,413.333333 L812.5,413.333333 C811.445638,413.333333 810.581835,412.517456 810.505486,411.482596 L810.5,411.333333 L810.5,484.666667 C810.5,485.721028 809.684122,486.584832 808.649262,486.661181 L808.5,486.666667 L782.5,486.666667 C781.445638,486.666667 780.581835,485.850789 780.505486,484.815929 L780.5,484.666667 L780.5,521.333333 C780.5,522.387695 779.684122,523.251498 778.649262,523.327848 L778.5,523.333333 L752.5,523.333333 C751.445638,523.333333 750.581835,522.517456 750.505486,521.482596 L750.5,521.333333 L750.5,411.333333 C750.5,412.387695 749.684122,413.251498 748.649262,413.327848 L748.5,413.333333 L722.5,413.333333 C721.445638,413.333333 720.581835,412.517456 720.505486,411.482596 L720.5,411.333333 L720.5,448 C720.5,449.054362 719.684122,449.918165 718.649262,449.994514 L718.5,450 L692.5,450 C691.445638,450 690.581835,449.184122 690.505486,448.149262 L690.5,448 L690.5,374.666667 C690.5,375.721028 689.684122,376.584832 688.649262,376.661181 L688.5,376.666667 L662.5,376.666667 C661.445638,376.666667 660.581835,375.850789 660.505486,374.815929 L660.5,374.666667 L660.5,558 C660.5,559.054362 659.684122,559.918165 658.649262,559.994514 L658.5,560 L632.5,560 C631.445638,560 630.581835,559.184122 630.505486,558.149262 L630.5,558 L630.5,374.666667 C630.5,375.721028 629.684122,376.584832 628.649262,376.661181 L628.5,376.666667 L602.5,376.666667 C601.445638,376.666667 600.581835,375.850789 600.505486,374.815929 L600.5,374.666667 L600.5,338 C600.5,339.054362 599.684122,339.918165 598.649262,339.994514 L598.5,340 L572.5,340 C571.445638,340 570.581835,339.184122 570.505486,338.149262 L570.5,338 L570.5,484.666667 C570.5,485.721028 569.684122,486.584832 568.649262,486.661181 L568.5,486.666667 L542.5,486.666667 C541.445638,486.666667 540.581835,485.850789 540.505486,484.815929 L540.5,484.666667 L540.5,411.333333 C540.5,412.387695 539.684122,413.251498 538.649262,413.327848 L538.5,413.333333 L512.5,413.333333 C511.445638,413.333333 510.581835,412.517456 510.505486,411.482596 L510.5,411.333333 L510.5,448 C510.5,449.054362 509.684122,449.918165 508.649262,449.994514 L508.5,450 L482.5,450 C481.445638,450 480.581835,449.184122 480.505486,448.149262 L480.5,448 L480.5,564.666667 C480.5,565.721028 479.684122,566.584832 478.649262,566.661181 L478.5,566.666667 L452.5,566.666667 C451.445638,566.666667 450.581835,565.850789 450.505486,564.815929 L450.5,564.666667 L450.5,484.666667 C450.5,485.721028 449.684122,486.584832 448.649262,486.661181 L448.5,486.666667 L422.5,486.666667 C421.445638,486.666667 420.581835,485.850789 420.505486,484.815929 L420.5,484.666667 L420.494514,484.815929 C420.421983,485.799046 419.638773,486.584531 418.65665,486.660622 L418.5,486.666667 L392.5,486.666667 C391.445638,486.666667 390.581835,485.850789 390.505486,484.815929 L390.5,484.666667 L390.5,411.333333 C390.5,412.387695 389.684122,413.251498 388.649262,413.327848 L388.5,413.333333 L362.5,413.333333 C361.445638,413.333333 360.581835,412.517456 360.505486,411.482596 L360.5,411.333333 L360.5,484.666667 C360.5,485.721028 359.684122,486.584832 358.649262,486.661181 L358.5,486.666667 L332.5,486.666667 C331.445638,486.666667 330.581835,485.850789 330.505486,484.815929 L330.5,484.666667 L330.5,521.333333 C330.5,522.387695 329.684122,523.251498 328.649262,523.327848 L328.5,523.333333 L302.5,523.333333 C301.445638,523.333333 300.581835,522.517456 300.505486,521.482596 L300.5,521.333333 L300.5,411.333333 C300.5,412.387695 299.684122,413.251498 298.649262,413.327848 L298.5,413.333333 L272.5,413.333333 C271.445638,413.333333 270.581835,412.517456 270.505486,411.482596 L270.5,411.333333 L270.5,448 C270.5,449.054362 269.684122,449.918165 268.649262,449.994514 L268.5,450 L242.5,450 C241.445638,450 240.581835,449.184122 240.505486,448.149262 L240.5,448 L240.5,374.666667 C240.5,375.721028 239.684122,376.584832 238.649262,376.661181 L238.5,376.666667 L212.5,376.666667 C211.445638,376.666667 210.581835,375.850789 210.505486,374.815929 L210.5,374.666667 L210.5,558 C210.5,559.054362 209.684122,559.918165 208.649262,559.994514 L208.5,560 L182.5,560 C181.445638,560 180.581835,559.184122 180.505486,558.149262 L180.5,558 L180.5,338 C180.5,339.054362 179.684122,339.918165 178.649262,339.994514 L178.5,340 L152.5,340 C151.445638,340 150.581835,339.184122 150.505486,338.149262 L150.5,338 L150.494514,338.149262 C150.421983,339.132379 149.638773,339.917865 148.65665,339.993956 L148.5,340 L122.5,340 C121.445638,340 120.581835,339.184122 120.505486,338.149262 L120.5,338 L120.5,484.666667 C120.5,485.721028 119.684122,486.584832 118.649262,486.661181 L118.5,486.666667 L92.5,486.666667 C91.4456382,486.666667 90.5818349,485.850789 90.5054857,484.815929 L90.5,484.666667 L90.5,411.333333 C90.5,412.387695 89.6841222,413.251498 88.6492623,413.327848 L88.5,413.333333 L62.5,413.333333 C61.4456382,413.333333 60.5818349,412.517456 60.5054857,411.482596 L60.5,411.333333 L60.5,293.333333 L960.5,293.333333 L960.5,293 Z M1410.5,293 L1410.5,448 L1410.49451,448.149262 C1410.41817,449.184122 1409.55436,450 1408.5,450 L1408.5,450 L1382.5,450 L1382.35074,449.994514 C1381.31588,449.918165 1380.5,449.054362 1380.5,448 L1380.5,448 L1380.5,521.333333 L1380.49451,521.482596 C1380.41817,522.517456 1379.55436,523.333333 1378.5,523.333333 L1378.5,523.333333 L1352.5,523.333333 L1352.35074,523.327848 C1351.31588,523.251498 1350.5,522.387695 1350.5,521.333333 L1350.5,521.333333 L1350.5,338 L1350.49451,338.149262 C1350.41817,339.184122 1349.55436,340 1348.5,340 L1348.5,340 L1322.5,340 L1322.35074,339.994514 C1321.31588,339.918165 1320.5,339.054362 1320.5,338 L1320.5,338 L1320.5,374.666667 L1320.49451,374.815929 C1320.41817,375.850789 1319.55436,376.666667 1318.5,376.666667 L1318.5,376.666667 L1292.5,376.666667 L1292.35074,376.661181 C1291.31588,376.584832 1290.5,375.721028 1290.5,374.666667 L1290.5,374.666667 L1290.5,564.666667 L1290.49451,564.815929 C1290.41817,565.850789 1289.55436,566.666667 1288.5,566.666667 L1288.5,566.666667 L1262.5,566.666667 L1262.35074,566.661181 C1261.31588,566.584832 1260.5,565.721028 1260.5,564.666667 L1260.5,564.666667 L1260.5,411.333333 L1260.49451,411.482596 C1260.41817,412.517456 1259.55436,413.333333 1258.5,413.333333 L1258.5,413.333333 L1232.5,413.333333 L1232.35074,413.327848 C1231.31588,413.251498 1230.5,412.387695 1230.5,411.333333 L1230.5,411.333333 L1230.5,484.666667 L1230.49451,484.815929 C1230.41817,485.850789 1229.55436,486.666667 1228.5,486.666667 L1228.5,486.666667 L1202.5,486.666667 L1202.35074,486.661181 C1201.31588,486.584832 1200.5,485.721028 1200.5,484.666667 L1200.5,484.666667 L1200.5,448 L1200.49451,448.149262 C1200.41817,449.184122 1199.55436,450 1198.5,450 L1198.5,450 L1172.5,450 L1172.35074,449.994514 C1171.31588,449.918165 1170.5,449.054362 1170.5,448 L1170.5,448 L1170.5,558 L1170.49451,558.149262 C1170.41817,559.184122 1169.55436,560 1168.5,560 L1168.5,560 L1142.5,560 L1142.35074,559.994514 C1141.31588,559.918165 1140.5,559.054362 1140.5,558 L1140.5,558 L1140.5,521.333333 L1140.49451,521.482596 C1140.41817,522.517456 1139.55436,523.333333 1138.5,523.333333 L1138.5,523.333333 L1112.5,523.333333 L1112.35074,523.327848 C1111.31588,523.251498 1110.5,522.387695 1110.5,521.333333 L1110.5,521.333333 L1110.5,448 L1110.49451,448.149262 C1110.41817,449.184122 1109.55436,450 1108.5,450 L1108.5,450 L1082.5,450 L1082.35074,449.994514 C1081.31588,449.918165 1080.5,449.054362 1080.5,448 L1080.5,448 L1080.5,521.333333 L1080.49451,521.482596 C1080.41817,522.517456 1079.55436,523.333333 1078.5,523.333333 L1078.5,523.333333 L1052.5,523.333333 L1052.34335,523.327289 C1051.36123,523.251198 1050.57802,522.465713 1050.50549,521.482596 L1050.50549,521.482596 L1050.5,521.333333 L1050.49451,521.482596 C1050.41817,522.517456 1049.55436,523.333333 1048.5,523.333333 L1048.5,523.333333 L1022.5,523.333333 L1022.35074,523.327848 C1021.31588,523.251498 1020.5,522.387695 1020.5,521.333333 L1020.5,521.333333 L1020.5,293 L1410.5,293 Z" id="Combined-Shape" fill="#17EFCE" transform="translate(735.500000, 429.833333) scale(-1, 1) translate(-735.500000, -429.833333) "></path>
                <path d="M0,293 L0,122 C-1.3527075e-16,120.895431 0.8954305,120 2,120 L28,120 C29.1045695,120 30,120.895431 30,122 L30,182 C30,180.895431 30.8954305,180 32,180 L58,180 C59.1045695,180 60,180.895431 60,182 L60,62 C60,60.8954305 60.8954305,60 62,60 L88,60 C89.0543618,60 89.9181651,60.8158778 89.9945143,61.8507377 L90,62 C90,60.8954305 90.8954305,60 92,60 L118,60 C119.104569,60 120,60.8954305 120,62 L120,242 C120,240.895431 120.895431,240 122,240 L148,240 C149.104569,240 150,240.895431 150,242 L150,92 C150,90.8954305 150.895431,90 152,90 L178,90 C179.104569,90 180,90.8954305 180,92 L180,152 C180,150.895431 180.895431,150 182,150 L208,150 C209.104569,150 210,150.895431 210,152 L210,122 C210,120.895431 210.895431,120 212,120 L238,120 C239.104569,120 240,120.895431 240,122 L240,212 C240,210.895431 240.895431,210 242,210 L268,210 C269.104569,210 270,210.895431 270,212 L270,182 C270,180.895431 270.895431,180 272,180 L298,180 C299.104569,180 300,180.895431 300,182 L300,122 C300,120.895431 300.895431,120 302,120 L328,120 C329.104569,120 330,120.895431 330,122 L330,182 C330,180.895431 330.895431,180 332,180 L358,180 C359.054362,180 359.918165,180.815878 359.994514,181.850738 L360,182 C360,180.895431 360.895431,180 362,180 L388,180 C389.104569,180 390,180.895431 390,182 L390,272 C390,270.895431 390.895431,270 392,270 L418,270 C419.104569,270 420,270.895431 420,272 L420,152 C420,150.895431 420.895431,150 422,150 L448,150 C449.104569,150 450,150.895431 450,152 L450,122 C450,120.895431 450.895431,120 452,120 L478,120 C479.104569,120 480,120.895431 480,122 L480,182 C480,180.895431 480.895431,180 482,180 L508,180 C509.104569,180 510,180.895431 510,182 L510,62 C510,60.8954305 510.895431,60 512,60 L538,60 C539.104569,60 540,60.8954305 540,62 L540,92 C540,90.8954305 540.895431,90 542,90 L568,90 C569.104569,90 570,90.8954305 570,92 L570,242 C570,240.895431 570.895431,240 572,240 L598,240 C599.104569,240 600,240.895431 600,242 L600,92 C600,90.8954305 600.895431,90 602,90 L628,90 C629.104569,90 630,90.8954305 630,92 L630,152 C630,150.895431 630.895431,150 632,150 L658,150 C659.104569,150 660,150.895431 660,152 L660,122 C660,120.895431 660.895431,120 662,120 L688,120 C689.104569,120 690,120.895431 690,122 L690,212 C690,210.895431 690.895431,210 692,210 L718,210 C719.104569,210 720,210.895431 720,212 L720,182 C720,180.895431 720.895431,180 722,180 L748,180 C749.104569,180 750,180.895431 750,182 L750,122 C750,120.895431 750.895431,120 752,120 L778,120 C779.104569,120 780,120.895431 780,122 L780,182 C780,180.895431 780.895431,180 782,180 L808,180 C809.054362,180 809.918165,180.815878 809.994514,181.850738 L810,182 C810,180.895431 810.895431,180 812,180 L838,180 C839.104569,180 840,180.895431 840,182 L840,272 C840,270.895431 840.895431,270 842,270 L868,270 C869.104569,270 870,270.895431 870,272 L870,152 C870,150.895431 870.895431,150 872,150 L898,150 C899.104569,150 900,150.895431 900,152 L900,182 C900,180.895431 900.895431,180 902,180 L902,180 L928,180 C929.104569,180 930,180.895431 930,182 L930,182 L930,293 L0,293 Z M1288,60 C1289.10457,60 1290,60.8954305 1290,62 L1290,62 L1290,212 C1290,210.895431 1290.89543,210 1292,210 L1292,210 L1318,210 C1319.10457,210 1320,210.895431 1320,212 L1320,212 L1320,152 C1320,150.895431 1320.89543,150 1322,150 L1322,150 L1348,150 C1349.10457,150 1350,150.895431 1350,152 L1350,152 L1350,293 L960,293 L960,212 C960,210.895431 960.895431,210 962,210 L962,210 L988,210 C989.104569,210 990,210.895431 990,212 L990,212 L990.005486,211.850738 C990.081835,210.815878 990.945638,210 992,210 L992,210 L1018,210 C1019.10457,210 1020,210.895431 1020,212 L1020,212 L1020,152 C1020,150.895431 1020.89543,150 1022,150 L1022,150 L1048,150 C1049.10457,150 1050,150.895431 1050,152 L1050,152 L1050,212 C1050,210.895431 1050.89543,210 1052,210 L1052,210 L1078,210 C1079.10457,210 1080,210.895431 1080,212 L1080,212 L1080,242 C1080,240.895431 1080.89543,240 1082,240 L1082,240 L1108,240 C1109.10457,240 1110,240.895431 1110,242 L1110,242 L1110,152 C1110,150.895431 1110.89543,150 1112,150 L1112,150 L1138,150 C1139.10457,150 1140,150.895431 1140,152 L1140,152 L1140,182 C1140,180.895431 1140.89543,180 1142,180 L1142,180 L1168,180 C1169.10457,180 1170,180.895431 1170,182 L1170,182 L1170,122 C1170,120.895431 1170.89543,120 1172,120 L1172,120 L1198,120 C1199.10457,120 1200,120.895431 1200,122 L1200,122 L1200,272 C1200,270.895431 1200.89543,270 1202,270 L1202,270 L1228,270 C1229.10457,270 1230,270.895431 1230,272 L1230,272 L1230,92 C1230,90.8954305 1230.89543,90 1232,90 L1232,90 L1258,90 C1259.10457,90 1260,90.8954305 1260,92 L1260,92 L1260,62 C1260,60.8954305 1260.89543,60 1262,60 L1262,60 Z" id="Combined-Shape" fill="#5C5AEA"></path>
                <path d="M930.5,293 L930.5,443 L930.494514,443.149262 C930.418165,444.184122 929.554362,445 928.5,445 L928.5,445 L902.5,445 L902.350738,444.994514 C901.315878,444.918165 900.5,444.054362 900.5,443 L900.5,443 L900.5,413 C900.5,414.054362 899.684122,414.918165 898.649262,414.994514 L898.5,415 L872.5,415 C871.445638,415 870.581835,414.184122 870.505486,413.149262 L870.5,413 L870.5,533 C870.5,534.054362 869.684122,534.918165 868.649262,534.994514 L868.5,535 L842.5,535 C841.445638,535 840.581835,534.184122 840.505486,533.149262 L840.5,533 L840.5,443 C840.5,444.054362 839.684122,444.918165 838.649262,444.994514 L838.5,445 L812.5,445 C811.445638,445 810.581835,444.184122 810.505486,443.149262 L810.5,443 L810.494514,443.149262 C810.421983,444.132379 809.638773,444.917865 808.65665,444.993956 L808.5,445 L782.5,445 C781.445638,445 780.581835,444.184122 780.505486,443.149262 L780.5,443 L780.5,383 C780.5,384.054362 779.684122,384.918165 778.649262,384.994514 L778.5,385 L752.5,385 C751.445638,385 750.581835,384.184122 750.505486,383.149262 L750.5,383 L750.5,443 C750.5,444.054362 749.684122,444.918165 748.649262,444.994514 L748.5,445 L722.5,445 C721.445638,445 720.581835,444.184122 720.505486,443.149262 L720.5,443 L720.5,473 C720.5,474.054362 719.684122,474.918165 718.649262,474.994514 L718.5,475 L692.5,475 C691.445638,475 690.581835,474.184122 690.505486,473.149262 L690.5,473 L690.5,383 C690.5,384.054362 689.684122,384.918165 688.649262,384.994514 L688.5,385 L662.5,385 C661.445638,385 660.581835,384.184122 660.505486,383.149262 L660.5,383 L660.5,413 C660.5,414.054362 659.684122,414.918165 658.649262,414.994514 L658.5,415 L632.5,415 C631.445638,415 630.581835,414.184122 630.505486,413.149262 L630.5,413 L630.5,353 C630.5,354.054362 629.684122,354.918165 628.649262,354.994514 L628.5,355 L602.5,355 C601.445638,355 600.581835,354.184122 600.505486,353.149262 L600.5,353 L600.5,503 C600.5,504.054362 599.684122,504.918165 598.649262,504.994514 L598.5,505 L572.5,505 C571.445638,505 570.581835,504.184122 570.505486,503.149262 L570.5,503 L570.5,353 C570.5,354.054362 569.684122,354.918165 568.649262,354.994514 L568.5,355 L542.5,355 C541.445638,355 540.581835,354.184122 540.505486,353.149262 L540.5,353 L540.5,323 C540.5,324.054362 539.684122,324.918165 538.649262,324.994514 L538.5,325 L512.5,325 C511.445638,325 510.581835,324.184122 510.505486,323.149262 L510.5,323 L510.5,443 C510.5,444.054362 509.684122,444.918165 508.649262,444.994514 L508.5,445 L482.5,445 C481.445638,445 480.581835,444.184122 480.505486,443.149262 L480.5,443 L480.5,383 C480.5,384.054362 479.684122,384.918165 478.649262,384.994514 L478.5,385 L452.5,385 C451.445638,385 450.581835,384.184122 450.505486,383.149262 L450.5,383 L450.5,413 C450.5,414.054362 449.684122,414.918165 448.649262,414.994514 L448.5,415 L422.5,415 C421.445638,415 420.581835,414.184122 420.505486,413.149262 L420.5,413 L420.5,533 C420.5,534.054362 419.684122,534.918165 418.649262,534.994514 L418.5,535 L392.5,535 C391.445638,535 390.581835,534.184122 390.505486,533.149262 L390.5,533 L390.5,443 C390.5,444.054362 389.684122,444.918165 388.649262,444.994514 L388.5,445 L362.5,445 C361.445638,445 360.581835,444.184122 360.505486,443.149262 L360.5,443 L360.494514,443.149262 C360.421983,444.132379 359.638773,444.917865 358.65665,444.993956 L358.5,445 L332.5,445 C331.445638,445 330.581835,444.184122 330.505486,443.149262 L330.5,443 L330.5,383 C330.5,384.054362 329.684122,384.918165 328.649262,384.994514 L328.5,385 L302.5,385 C301.445638,385 300.581835,384.184122 300.505486,383.149262 L300.5,383 L300.5,443 C300.5,444.054362 299.684122,444.918165 298.649262,444.994514 L298.5,445 L272.5,445 C271.445638,445 270.581835,444.184122 270.505486,443.149262 L270.5,443 L270.5,473 C270.5,474.054362 269.684122,474.918165 268.649262,474.994514 L268.5,475 L242.5,475 C241.445638,475 240.581835,474.184122 240.505486,473.149262 L240.5,473 L240.5,383 C240.5,384.054362 239.684122,384.918165 238.649262,384.994514 L238.5,385 L212.5,385 C211.445638,385 210.581835,384.184122 210.505486,383.149262 L210.5,383 L210.5,413 C210.5,414.054362 209.684122,414.918165 208.649262,414.994514 L208.5,415 L182.5,415 C181.445638,415 180.581835,414.184122 180.505486,413.149262 L180.5,413 L180.5,353 C180.5,354.054362 179.684122,354.918165 178.649262,354.994514 L178.5,355 L152.5,355 C151.445638,355 150.581835,354.184122 150.505486,353.149262 L150.5,353 L150.5,503 C150.5,504.054362 149.684122,504.918165 148.649262,504.994514 L148.5,505 L122.5,505 C121.445638,505 120.581835,504.184122 120.505486,503.149262 L120.5,503 L120.5,323 C120.5,324.054362 119.684122,324.918165 118.649262,324.994514 L118.5,325 L92.5,325 C91.4456382,325 90.5818349,324.184122 90.5054857,323.149262 L90.5,323 L90.4945143,323.149262 C90.4219826,324.132379 89.6387735,324.917865 88.6566505,324.993956 L88.5,325 L62.5,325 C61.4456382,325 60.5818349,324.184122 60.5054857,323.149262 L60.5,323 L60.5,443 C60.5,444.054362 59.6841222,444.918165 58.6492623,444.994514 L58.5,445 L32.5,445 C31.4456382,445 30.5818349,444.184122 30.5054857,443.149262 L30.5,443 L30.5,383 C30.5,384.054362 29.6841222,384.918165 28.6492623,384.994514 L28.5,385 L2.5,385 C1.4456382,385 0.581834878,384.184122 0.505485736,383.149262 L0.5,383 L0.5,293 L930.5,293 Z M1350.5,293 L1350.5,413 L1350.49451,413.149262 C1350.41817,414.184122 1349.55436,415 1348.5,415 L1348.5,415 L1322.5,415 L1322.35074,414.994514 C1321.31588,414.918165 1320.5,414.054362 1320.5,413 L1320.5,413 L1320.5,473 L1320.49451,473.149262 C1320.41817,474.184122 1319.55436,475 1318.5,475 L1318.5,475 L1292.5,475 L1292.35074,474.994514 C1291.31588,474.918165 1290.5,474.054362 1290.5,473 L1290.5,473 L1290.5,323 L1290.49451,323.149262 C1290.41817,324.184122 1289.55436,325 1288.5,325 L1288.5,325 L1262.5,325 L1262.35074,324.994514 C1261.31588,324.918165 1260.5,324.054362 1260.5,323 L1260.5,323 L1260.5,353 L1260.49451,353.149262 C1260.41817,354.184122 1259.55436,355 1258.5,355 L1258.5,355 L1232.5,355 L1232.35074,354.994514 C1231.31588,354.918165 1230.5,354.054362 1230.5,353 L1230.5,353 L1230.5,533 L1230.49451,533.149262 C1230.41817,534.184122 1229.55436,535 1228.5,535 L1228.5,535 L1202.5,535 L1202.35074,534.994514 C1201.31588,534.918165 1200.5,534.054362 1200.5,533 L1200.5,533 L1200.5,383 L1200.49451,383.149262 C1200.41817,384.184122 1199.55436,385 1198.5,385 L1198.5,385 L1172.5,385 L1172.35074,384.994514 C1171.31588,384.918165 1170.5,384.054362 1170.5,383 L1170.5,383 L1170.5,443 L1170.49451,443.149262 C1170.41817,444.184122 1169.55436,445 1168.5,445 L1168.5,445 L1142.5,445 L1142.35074,444.994514 C1141.31588,444.918165 1140.5,444.054362 1140.5,443 L1140.5,443 L1140.5,413 L1140.49451,413.149262 C1140.41817,414.184122 1139.55436,415 1138.5,415 L1138.5,415 L1112.5,415 L1112.35074,414.994514 C1111.31588,414.918165 1110.5,414.054362 1110.5,413 L1110.5,413 L1110.5,503 L1110.49451,503.149262 C1110.41817,504.184122 1109.55436,505 1108.5,505 L1108.5,505 L1082.5,505 L1082.35074,504.994514 C1081.31588,504.918165 1080.5,504.054362 1080.5,503 L1080.5,503 L1080.5,473 L1080.49451,473.149262 C1080.41817,474.184122 1079.55436,475 1078.5,475 L1078.5,475 L1052.5,475 L1052.35074,474.994514 C1051.31588,474.918165 1050.5,474.054362 1050.5,473 L1050.5,473 L1050.5,413 L1050.49451,413.149262 C1050.41817,414.184122 1049.55436,415 1048.5,415 L1048.5,415 L1022.5,415 L1022.35074,414.994514 C1021.31588,414.918165 1020.5,414.054362 1020.5,413 L1020.5,413 L1020.5,473 L1020.49451,473.149262 C1020.41817,474.184122 1019.55436,475 1018.5,475 L1018.5,475 L992.5,475 L992.34335,474.993956 C991.361227,474.917865 990.578017,474.132379 990.505486,473.149262 L990.505486,473.149262 L990.5,473 L990.494514,473.149262 C990.418165,474.184122 989.554362,475 988.5,475 L988.5,475 L962.5,475 L962.350738,474.994514 C961.315878,474.918165 960.5,474.054362 960.5,473 L960.5,473 L960.5,293 L1350.5,293 Z" id="Combined-Shape" fill="#5C5AEA"></path>
            </g>
            <g id="Group" transform="translate(1350.000000, 0.000000)">
                <path d="M1348,0 C1349.10457,2.02906125e-16 1350,0.8954305 1350,2 L1350,2 L1350,185.333333 C1350,184.228764 1350.89543,183.333333 1352,183.333333 L1352,183.333333 L1378,183.333333 C1379.10457,183.333333 1380,184.228764 1380,185.333333 L1380,185.333333 L1380,112 C1380,110.895431 1380.89543,110 1382,110 L1382,110 L1408,110 C1409.10457,110 1410,110.895431 1410,112 L1410,112 L1410,293 L1380,293 L1380,293 L1350,293 L1350,293 L1320,293 L1320,293 L1260,293 L1260,293 L1230,293 L1230,293 L1200,293 L1200,293 L1170,293 L1170,293 L1110,293 L1110,293 L1080,293 L1080,293 L1020,293 L1020,185.333333 C1020,184.228764 1020.89543,183.333333 1022,183.333333 L1022,183.333333 L1048,183.333333 C1049.10457,183.333333 1050,184.228764 1050,185.333333 C1050,184.228764 1050.89543,183.333333 1052,183.333333 L1052,183.333333 L1078,183.333333 C1079.10457,183.333333 1080,184.228764 1080,185.333333 L1080,185.333333 L1080,112 C1080,110.895431 1080.89543,110 1082,110 L1082,110 L1108,110 C1109.10457,110 1110,110.895431 1110,112 L1110,112 L1110,185.333333 C1110,184.228764 1110.89543,183.333333 1112,183.333333 L1112,183.333333 L1138,183.333333 C1139.10457,183.333333 1140,184.228764 1140,185.333333 L1140,185.333333 L1140,222 C1140,220.895431 1140.89543,220 1142,220 L1142,220 L1168,220 C1169.10457,220 1170,220.895431 1170,222 L1170,222 L1170,112 C1170,110.895431 1170.89543,110 1172,110 L1172,110 L1198,110 C1199.10457,110 1200,110.895431 1200,112 L1200,112 L1200,148.666667 C1200,147.562097 1200.89543,146.666667 1202,146.666667 L1202,146.666667 L1228,146.666667 C1229.10457,146.666667 1230,147.562097 1230,148.666667 L1230,148.666667 L1230,75.3333333 C1230,74.2287638 1230.89543,73.3333333 1232,73.3333333 L1232,73.3333333 L1258,73.3333333 C1259.10457,73.3333333 1260,74.2287638 1260,75.3333333 L1260,75.3333333 L1260,258.666667 C1260,257.562097 1260.89543,256.666667 1262,256.666667 L1262,256.666667 L1288,256.666667 C1289.10457,256.666667 1290,257.562097 1290,258.666667 L1290,258.666667 L1290,38.6666667 C1290,37.5620972 1290.89543,36.6666667 1292,36.6666667 L1292,36.6666667 L1318,36.6666667 C1319.10457,36.6666667 1320,37.5620972 1320,38.6666667 L1320,38.6666667 L1320,2 C1320,0.8954305 1320.89543,-2.02906125e-16 1322,0 L1322,0 Z M960,293.333333 L60,293.333333 L60,75.3333333 C60,74.2287638 60.8954305,73.3333333 62,73.3333333 L88,73.3333333 C89.1045695,73.3333333 90,74.2287638 90,75.3333333 L90,148.666667 C90,147.562097 90.8954305,146.666667 92,146.666667 L118,146.666667 C119.104569,146.666667 120,147.562097 120,148.666667 L120,2 C120,0.8954305 120.895431,2.02906125e-16 122,0 L148,0 C149.054362,-1.9368312e-16 149.918165,0.815877791 149.994514,1.85073766 L150,2 C150,0.8954305 150.895431,2.02906125e-16 152,0 L178,0 C179.104569,-2.02906125e-16 180,0.8954305 180,2 L180,222 C180,220.895431 180.895431,220 182,220 L208,220 C209.104569,220 210,220.895431 210,222 L210,38.6666667 C210,37.5620972 210.895431,36.6666667 212,36.6666667 L238,36.6666667 C239.104569,36.6666667 240,37.5620972 240,38.6666667 L240,112 C240,110.895431 240.895431,110 242,110 L268,110 C269.104569,110 270,110.895431 270,112 L270,75.3333333 C270,74.2287638 270.895431,73.3333333 272,73.3333333 L298,73.3333333 C299.104569,73.3333333 300,74.2287638 300,75.3333333 L300,185.333333 C300,184.228764 300.895431,183.333333 302,183.333333 L328,183.333333 C329.104569,183.333333 330,184.228764 330,185.333333 L330,148.666667 C330,147.562097 330.895431,146.666667 332,146.666667 L358,146.666667 C359.104569,146.666667 360,147.562097 360,148.666667 L360,75.3333333 C360,74.2287638 360.895431,73.3333333 362,73.3333333 L388,73.3333333 C389.104569,73.3333333 390,74.2287638 390,75.3333333 L390,148.666667 C390,147.562097 390.895431,146.666667 392,146.666667 L418,146.666667 C419.054362,146.666667 419.918165,147.482544 419.994514,148.517404 L420,148.666667 C420,147.562097 420.895431,146.666667 422,146.666667 L448,146.666667 C449.104569,146.666667 450,147.562097 450,148.666667 L450,258.666667 C450,257.562097 450.895431,256.666667 452,256.666667 L478,256.666667 C479.104569,256.666667 480,257.562097 480,258.666667 L480,112 C480,110.895431 480.895431,110 482,110 L508,110 C509.104569,110 510,110.895431 510,112 L510,75.3333333 C510,74.2287638 510.895431,73.3333333 512,73.3333333 L538,73.3333333 C539.104569,73.3333333 540,74.2287638 540,75.3333333 L540,148.666667 C540,147.562097 540.895431,146.666667 542,146.666667 L568,146.666667 C569.104569,146.666667 570,147.562097 570,148.666667 L570,2 C570,0.8954305 570.895431,2.02906125e-16 572,0 L598,0 C599.104569,-2.02906125e-16 600,0.8954305 600,2 L600,38.6666667 C600,37.5620972 600.895431,36.6666667 602,36.6666667 L628,36.6666667 C629.104569,36.6666667 630,37.5620972 630,38.6666667 L630,222 C630,220.895431 630.895431,220 632,220 L658,220 C659.104569,220 660,220.895431 660,222 L660,38.6666667 C660,37.5620972 660.895431,36.6666667 662,36.6666667 L688,36.6666667 C689.104569,36.6666667 690,37.5620972 690,38.6666667 L690,112 C690,110.895431 690.895431,110 692,110 L718,110 C719.104569,110 720,110.895431 720,112 L720,75.3333333 C720,74.2287638 720.895431,73.3333333 722,73.3333333 L748,73.3333333 C749.104569,73.3333333 750,74.2287638 750,75.3333333 L750,185.333333 C750,184.228764 750.895431,183.333333 752,183.333333 L778,183.333333 C779.104569,183.333333 780,184.228764 780,185.333333 L780,148.666667 C780,147.562097 780.895431,146.666667 782,146.666667 L808,146.666667 C809.104569,146.666667 810,147.562097 810,148.666667 L810,75.3333333 C810,74.2287638 810.895431,73.3333333 812,73.3333333 L838,73.3333333 C839.104569,73.3333333 840,74.2287638 840,75.3333333 L840,148.666667 C840,147.562097 840.895431,146.666667 842,146.666667 L868,146.666667 C869.054362,146.666667 869.918165,147.482544 869.994514,148.517404 L870,148.666667 C870,147.562097 870.895431,146.666667 872,146.666667 L898,146.666667 C899.104569,146.666667 900,147.562097 900,148.666667 L900,258.666667 C900,257.562097 900.895431,256.666667 902,256.666667 L928,256.666667 C929.104569,256.666667 930,257.562097 930,258.666667 L930,112 C930,110.895431 930.895431,110 932,110 L958,110 C959.104569,110 960,110.895431 960,112 L960,148.666667 C960,147.562097 960.895431,146.666667 962,146.666667 L962,146.666667 L988,146.666667 C989.104569,146.666667 990,147.562097 990,148.666667 L990,148.666667 L990,293 L960,293 L960,293.333333 Z" id="Combined-Shape" fill="#17EFCE" transform="translate(735.000000, 146.666667) scale(-1, 1) translate(-735.000000, -146.666667) "></path>
                <path d="M960.5,293 L990.5,293 L990.5,484.666667 L990.494514,484.815929 C990.418165,485.850789 989.554362,486.666667 988.5,486.666667 L988.5,486.666667 L962.5,486.666667 L962.350738,486.661181 C961.315878,486.584832 960.5,485.721028 960.5,484.666667 L960.5,484.666667 L960.5,448 C960.5,449.054362 959.684122,449.918165 958.649262,449.994514 L958.5,450 L932.5,450 C931.445638,450 930.581835,449.184122 930.505486,448.149262 L930.5,448 L930.5,564.666667 C930.5,565.721028 929.684122,566.584832 928.649262,566.661181 L928.5,566.666667 L902.5,566.666667 C901.445638,566.666667 900.581835,565.850789 900.505486,564.815929 L900.5,564.666667 L900.5,484.666667 C900.5,485.721028 899.684122,486.584832 898.649262,486.661181 L898.5,486.666667 L872.5,486.666667 C871.445638,486.666667 870.581835,485.850789 870.505486,484.815929 L870.5,484.666667 L870.494514,484.815929 C870.421983,485.799046 869.638773,486.584531 868.65665,486.660622 L868.5,486.666667 L842.5,486.666667 C841.445638,486.666667 840.581835,485.850789 840.505486,484.815929 L840.5,484.666667 L840.5,411.333333 C840.5,412.387695 839.684122,413.251498 838.649262,413.327848 L838.5,413.333333 L812.5,413.333333 C811.445638,413.333333 810.581835,412.517456 810.505486,411.482596 L810.5,411.333333 L810.5,484.666667 C810.5,485.721028 809.684122,486.584832 808.649262,486.661181 L808.5,486.666667 L782.5,486.666667 C781.445638,486.666667 780.581835,485.850789 780.505486,484.815929 L780.5,484.666667 L780.5,521.333333 C780.5,522.387695 779.684122,523.251498 778.649262,523.327848 L778.5,523.333333 L752.5,523.333333 C751.445638,523.333333 750.581835,522.517456 750.505486,521.482596 L750.5,521.333333 L750.5,411.333333 C750.5,412.387695 749.684122,413.251498 748.649262,413.327848 L748.5,413.333333 L722.5,413.333333 C721.445638,413.333333 720.581835,412.517456 720.505486,411.482596 L720.5,411.333333 L720.5,448 C720.5,449.054362 719.684122,449.918165 718.649262,449.994514 L718.5,450 L692.5,450 C691.445638,450 690.581835,449.184122 690.505486,448.149262 L690.5,448 L690.5,374.666667 C690.5,375.721028 689.684122,376.584832 688.649262,376.661181 L688.5,376.666667 L662.5,376.666667 C661.445638,376.666667 660.581835,375.850789 660.505486,374.815929 L660.5,374.666667 L660.5,558 C660.5,559.054362 659.684122,559.918165 658.649262,559.994514 L658.5,560 L632.5,560 C631.445638,560 630.581835,559.184122 630.505486,558.149262 L630.5,558 L630.5,374.666667 C630.5,375.721028 629.684122,376.584832 628.649262,376.661181 L628.5,376.666667 L602.5,376.666667 C601.445638,376.666667 600.581835,375.850789 600.505486,374.815929 L600.5,374.666667 L600.5,338 C600.5,339.054362 599.684122,339.918165 598.649262,339.994514 L598.5,340 L572.5,340 C571.445638,340 570.581835,339.184122 570.505486,338.149262 L570.5,338 L570.5,484.666667 C570.5,485.721028 569.684122,486.584832 568.649262,486.661181 L568.5,486.666667 L542.5,486.666667 C541.445638,486.666667 540.581835,485.850789 540.505486,484.815929 L540.5,484.666667 L540.5,411.333333 C540.5,412.387695 539.684122,413.251498 538.649262,413.327848 L538.5,413.333333 L512.5,413.333333 C511.445638,413.333333 510.581835,412.517456 510.505486,411.482596 L510.5,411.333333 L510.5,448 C510.5,449.054362 509.684122,449.918165 508.649262,449.994514 L508.5,450 L482.5,450 C481.445638,450 480.581835,449.184122 480.505486,448.149262 L480.5,448 L480.5,564.666667 C480.5,565.721028 479.684122,566.584832 478.649262,566.661181 L478.5,566.666667 L452.5,566.666667 C451.445638,566.666667 450.581835,565.850789 450.505486,564.815929 L450.5,564.666667 L450.5,484.666667 C450.5,485.721028 449.684122,486.584832 448.649262,486.661181 L448.5,486.666667 L422.5,486.666667 C421.445638,486.666667 420.581835,485.850789 420.505486,484.815929 L420.5,484.666667 L420.494514,484.815929 C420.421983,485.799046 419.638773,486.584531 418.65665,486.660622 L418.5,486.666667 L392.5,486.666667 C391.445638,486.666667 390.581835,485.850789 390.505486,484.815929 L390.5,484.666667 L390.5,411.333333 C390.5,412.387695 389.684122,413.251498 388.649262,413.327848 L388.5,413.333333 L362.5,413.333333 C361.445638,413.333333 360.581835,412.517456 360.505486,411.482596 L360.5,411.333333 L360.5,484.666667 C360.5,485.721028 359.684122,486.584832 358.649262,486.661181 L358.5,486.666667 L332.5,486.666667 C331.445638,486.666667 330.581835,485.850789 330.505486,484.815929 L330.5,484.666667 L330.5,521.333333 C330.5,522.387695 329.684122,523.251498 328.649262,523.327848 L328.5,523.333333 L302.5,523.333333 C301.445638,523.333333 300.581835,522.517456 300.505486,521.482596 L300.5,521.333333 L300.5,411.333333 C300.5,412.387695 299.684122,413.251498 298.649262,413.327848 L298.5,413.333333 L272.5,413.333333 C271.445638,413.333333 270.581835,412.517456 270.505486,411.482596 L270.5,411.333333 L270.5,448 C270.5,449.054362 269.684122,449.918165 268.649262,449.994514 L268.5,450 L242.5,450 C241.445638,450 240.581835,449.184122 240.505486,448.149262 L240.5,448 L240.5,374.666667 C240.5,375.721028 239.684122,376.584832 238.649262,376.661181 L238.5,376.666667 L212.5,376.666667 C211.445638,376.666667 210.581835,375.850789 210.505486,374.815929 L210.5,374.666667 L210.5,558 C210.5,559.054362 209.684122,559.918165 208.649262,559.994514 L208.5,560 L182.5,560 C181.445638,560 180.581835,559.184122 180.505486,558.149262 L180.5,558 L180.5,338 C180.5,339.054362 179.684122,339.918165 178.649262,339.994514 L178.5,340 L152.5,340 C151.445638,340 150.581835,339.184122 150.505486,338.149262 L150.5,338 L150.494514,338.149262 C150.421983,339.132379 149.638773,339.917865 148.65665,339.993956 L148.5,340 L122.5,340 C121.445638,340 120.581835,339.184122 120.505486,338.149262 L120.5,338 L120.5,484.666667 C120.5,485.721028 119.684122,486.584832 118.649262,486.661181 L118.5,486.666667 L92.5,486.666667 C91.4456382,486.666667 90.5818349,485.850789 90.5054857,484.815929 L90.5,484.666667 L90.5,411.333333 C90.5,412.387695 89.6841222,413.251498 88.6492623,413.327848 L88.5,413.333333 L62.5,413.333333 C61.4456382,413.333333 60.5818349,412.517456 60.5054857,411.482596 L60.5,411.333333 L60.5,293.333333 L960.5,293.333333 L960.5,293 Z M1410.5,293 L1410.5,448 L1410.49451,448.149262 C1410.41817,449.184122 1409.55436,450 1408.5,450 L1408.5,450 L1382.5,450 L1382.35074,449.994514 C1381.31588,449.918165 1380.5,449.054362 1380.5,448 L1380.5,448 L1380.5,521.333333 L1380.49451,521.482596 C1380.41817,522.517456 1379.55436,523.333333 1378.5,523.333333 L1378.5,523.333333 L1352.5,523.333333 L1352.35074,523.327848 C1351.31588,523.251498 1350.5,522.387695 1350.5,521.333333 L1350.5,521.333333 L1350.5,338 L1350.49451,338.149262 C1350.41817,339.184122 1349.55436,340 1348.5,340 L1348.5,340 L1322.5,340 L1322.35074,339.994514 C1321.31588,339.918165 1320.5,339.054362 1320.5,338 L1320.5,338 L1320.5,374.666667 L1320.49451,374.815929 C1320.41817,375.850789 1319.55436,376.666667 1318.5,376.666667 L1318.5,376.666667 L1292.5,376.666667 L1292.35074,376.661181 C1291.31588,376.584832 1290.5,375.721028 1290.5,374.666667 L1290.5,374.666667 L1290.5,564.666667 L1290.49451,564.815929 C1290.41817,565.850789 1289.55436,566.666667 1288.5,566.666667 L1288.5,566.666667 L1262.5,566.666667 L1262.35074,566.661181 C1261.31588,566.584832 1260.5,565.721028 1260.5,564.666667 L1260.5,564.666667 L1260.5,411.333333 L1260.49451,411.482596 C1260.41817,412.517456 1259.55436,413.333333 1258.5,413.333333 L1258.5,413.333333 L1232.5,413.333333 L1232.35074,413.327848 C1231.31588,413.251498 1230.5,412.387695 1230.5,411.333333 L1230.5,411.333333 L1230.5,484.666667 L1230.49451,484.815929 C1230.41817,485.850789 1229.55436,486.666667 1228.5,486.666667 L1228.5,486.666667 L1202.5,486.666667 L1202.35074,486.661181 C1201.31588,486.584832 1200.5,485.721028 1200.5,484.666667 L1200.5,484.666667 L1200.5,448 L1200.49451,448.149262 C1200.41817,449.184122 1199.55436,450 1198.5,450 L1198.5,450 L1172.5,450 L1172.35074,449.994514 C1171.31588,449.918165 1170.5,449.054362 1170.5,448 L1170.5,448 L1170.5,558 L1170.49451,558.149262 C1170.41817,559.184122 1169.55436,560 1168.5,560 L1168.5,560 L1142.5,560 L1142.35074,559.994514 C1141.31588,559.918165 1140.5,559.054362 1140.5,558 L1140.5,558 L1140.5,521.333333 L1140.49451,521.482596 C1140.41817,522.517456 1139.55436,523.333333 1138.5,523.333333 L1138.5,523.333333 L1112.5,523.333333 L1112.35074,523.327848 C1111.31588,523.251498 1110.5,522.387695 1110.5,521.333333 L1110.5,521.333333 L1110.5,448 L1110.49451,448.149262 C1110.41817,449.184122 1109.55436,450 1108.5,450 L1108.5,450 L1082.5,450 L1082.35074,449.994514 C1081.31588,449.918165 1080.5,449.054362 1080.5,448 L1080.5,448 L1080.5,521.333333 L1080.49451,521.482596 C1080.41817,522.517456 1079.55436,523.333333 1078.5,523.333333 L1078.5,523.333333 L1052.5,523.333333 L1052.34335,523.327289 C1051.36123,523.251198 1050.57802,522.465713 1050.50549,521.482596 L1050.50549,521.482596 L1050.5,521.333333 L1050.49451,521.482596 C1050.41817,522.517456 1049.55436,523.333333 1048.5,523.333333 L1048.5,523.333333 L1022.5,523.333333 L1022.35074,523.327848 C1021.31588,523.251498 1020.5,522.387695 1020.5,521.333333 L1020.5,521.333333 L1020.5,293 L1410.5,293 Z" id="Combined-Shape" fill="#17EFCE" transform="translate(735.500000, 429.833333) scale(-1, 1) translate(-735.500000, -429.833333) "></path>
                <path d="M0,293 L0,122 C-1.3527075e-16,120.895431 0.8954305,120 2,120 L28,120 C29.1045695,120 30,120.895431 30,122 L30,182 C30,180.895431 30.8954305,180 32,180 L58,180 C59.1045695,180 60,180.895431 60,182 L60,62 C60,60.8954305 60.8954305,60 62,60 L88,60 C89.0543618,60 89.9181651,60.8158778 89.9945143,61.8507377 L90,62 C90,60.8954305 90.8954305,60 92,60 L118,60 C119.104569,60 120,60.8954305 120,62 L120,242 C120,240.895431 120.895431,240 122,240 L148,240 C149.104569,240 150,240.895431 150,242 L150,92 C150,90.8954305 150.895431,90 152,90 L178,90 C179.104569,90 180,90.8954305 180,92 L180,152 C180,150.895431 180.895431,150 182,150 L208,150 C209.104569,150 210,150.895431 210,152 L210,122 C210,120.895431 210.895431,120 212,120 L238,120 C239.104569,120 240,120.895431 240,122 L240,212 C240,210.895431 240.895431,210 242,210 L268,210 C269.104569,210 270,210.895431 270,212 L270,182 C270,180.895431 270.895431,180 272,180 L298,180 C299.104569,180 300,180.895431 300,182 L300,122 C300,120.895431 300.895431,120 302,120 L328,120 C329.104569,120 330,120.895431 330,122 L330,182 C330,180.895431 330.895431,180 332,180 L358,180 C359.054362,180 359.918165,180.815878 359.994514,181.850738 L360,182 C360,180.895431 360.895431,180 362,180 L388,180 C389.104569,180 390,180.895431 390,182 L390,272 C390,270.895431 390.895431,270 392,270 L418,270 C419.104569,270 420,270.895431 420,272 L420,152 C420,150.895431 420.895431,150 422,150 L448,150 C449.104569,150 450,150.895431 450,152 L450,122 C450,120.895431 450.895431,120 452,120 L478,120 C479.104569,120 480,120.895431 480,122 L480,182 C480,180.895431 480.895431,180 482,180 L508,180 C509.104569,180 510,180.895431 510,182 L510,62 C510,60.8954305 510.895431,60 512,60 L538,60 C539.104569,60 540,60.8954305 540,62 L540,92 C540,90.8954305 540.895431,90 542,90 L568,90 C569.104569,90 570,90.8954305 570,92 L570,242 C570,240.895431 570.895431,240 572,240 L598,240 C599.104569,240 600,240.895431 600,242 L600,92 C600,90.8954305 600.895431,90 602,90 L628,90 C629.104569,90 630,90.8954305 630,92 L630,152 C630,150.895431 630.895431,150 632,150 L658,150 C659.104569,150 660,150.895431 660,152 L660,122 C660,120.895431 660.895431,120 662,120 L688,120 C689.104569,120 690,120.895431 690,122 L690,212 C690,210.895431 690.895431,210 692,210 L718,210 C719.104569,210 720,210.895431 720,212 L720,182 C720,180.895431 720.895431,180 722,180 L748,180 C749.104569,180 750,180.895431 750,182 L750,122 C750,120.895431 750.895431,120 752,120 L778,120 C779.104569,120 780,120.895431 780,122 L780,182 C780,180.895431 780.895431,180 782,180 L808,180 C809.054362,180 809.918165,180.815878 809.994514,181.850738 L810,182 C810,180.895431 810.895431,180 812,180 L838,180 C839.104569,180 840,180.895431 840,182 L840,272 C840,270.895431 840.895431,270 842,270 L868,270 C869.104569,270 870,270.895431 870,272 L870,152 C870,150.895431 870.895431,150 872,150 L898,150 C899.104569,150 900,150.895431 900,152 L900,182 C900,180.895431 900.895431,180 902,180 L902,180 L928,180 C929.104569,180 930,180.895431 930,182 L930,182 L930,293 L0,293 Z M1288,60 C1289.10457,60 1290,60.8954305 1290,62 L1290,62 L1290,212 C1290,210.895431 1290.89543,210 1292,210 L1292,210 L1318,210 C1319.10457,210 1320,210.895431 1320,212 L1320,212 L1320,152 C1320,150.895431 1320.89543,150 1322,150 L1322,150 L1348,150 C1349.10457,150 1350,150.895431 1350,152 L1350,152 L1350,293 L960,293 L960,212 C960,210.895431 960.895431,210 962,210 L962,210 L988,210 C989.104569,210 990,210.895431 990,212 L990,212 L990.005486,211.850738 C990.081835,210.815878 990.945638,210 992,210 L992,210 L1018,210 C1019.10457,210 1020,210.895431 1020,212 L1020,212 L1020,152 C1020,150.895431 1020.89543,150 1022,150 L1022,150 L1048,150 C1049.10457,150 1050,150.895431 1050,152 L1050,152 L1050,212 C1050,210.895431 1050.89543,210 1052,210 L1052,210 L1078,210 C1079.10457,210 1080,210.895431 1080,212 L1080,212 L1080,242 C1080,240.895431 1080.89543,240 1082,240 L1082,240 L1108,240 C1109.10457,240 1110,240.895431 1110,242 L1110,242 L1110,152 C1110,150.895431 1110.89543,150 1112,150 L1112,150 L1138,150 C1139.10457,150 1140,150.895431 1140,152 L1140,152 L1140,182 C1140,180.895431 1140.89543,180 1142,180 L1142,180 L1168,180 C1169.10457,180 1170,180.895431 1170,182 L1170,182 L1170,122 C1170,120.895431 1170.89543,120 1172,120 L1172,120 L1198,120 C1199.10457,120 1200,120.895431 1200,122 L1200,122 L1200,272 C1200,270.895431 1200.89543,270 1202,270 L1202,270 L1228,270 C1229.10457,270 1230,270.895431 1230,272 L1230,272 L1230,92 C1230,90.8954305 1230.89543,90 1232,90 L1232,90 L1258,90 C1259.10457,90 1260,90.8954305 1260,92 L1260,92 L1260,62 C1260,60.8954305 1260.89543,60 1262,60 L1262,60 Z" id="Combined-Shape" fill="#5C5AEA"></path>
                <path d="M930.5,293 L930.5,443 L930.494514,443.149262 C930.418165,444.184122 929.554362,445 928.5,445 L928.5,445 L902.5,445 L902.350738,444.994514 C901.315878,444.918165 900.5,444.054362 900.5,443 L900.5,443 L900.5,413 C900.5,414.054362 899.684122,414.918165 898.649262,414.994514 L898.5,415 L872.5,415 C871.445638,415 870.581835,414.184122 870.505486,413.149262 L870.5,413 L870.5,533 C870.5,534.054362 869.684122,534.918165 868.649262,534.994514 L868.5,535 L842.5,535 C841.445638,535 840.581835,534.184122 840.505486,533.149262 L840.5,533 L840.5,443 C840.5,444.054362 839.684122,444.918165 838.649262,444.994514 L838.5,445 L812.5,445 C811.445638,445 810.581835,444.184122 810.505486,443.149262 L810.5,443 L810.494514,443.149262 C810.421983,444.132379 809.638773,444.917865 808.65665,444.993956 L808.5,445 L782.5,445 C781.445638,445 780.581835,444.184122 780.505486,443.149262 L780.5,443 L780.5,383 C780.5,384.054362 779.684122,384.918165 778.649262,384.994514 L778.5,385 L752.5,385 C751.445638,385 750.581835,384.184122 750.505486,383.149262 L750.5,383 L750.5,443 C750.5,444.054362 749.684122,444.918165 748.649262,444.994514 L748.5,445 L722.5,445 C721.445638,445 720.581835,444.184122 720.505486,443.149262 L720.5,443 L720.5,473 C720.5,474.054362 719.684122,474.918165 718.649262,474.994514 L718.5,475 L692.5,475 C691.445638,475 690.581835,474.184122 690.505486,473.149262 L690.5,473 L690.5,383 C690.5,384.054362 689.684122,384.918165 688.649262,384.994514 L688.5,385 L662.5,385 C661.445638,385 660.581835,384.184122 660.505486,383.149262 L660.5,383 L660.5,413 C660.5,414.054362 659.684122,414.918165 658.649262,414.994514 L658.5,415 L632.5,415 C631.445638,415 630.581835,414.184122 630.505486,413.149262 L630.5,413 L630.5,353 C630.5,354.054362 629.684122,354.918165 628.649262,354.994514 L628.5,355 L602.5,355 C601.445638,355 600.581835,354.184122 600.505486,353.149262 L600.5,353 L600.5,503 C600.5,504.054362 599.684122,504.918165 598.649262,504.994514 L598.5,505 L572.5,505 C571.445638,505 570.581835,504.184122 570.505486,503.149262 L570.5,503 L570.5,353 C570.5,354.054362 569.684122,354.918165 568.649262,354.994514 L568.5,355 L542.5,355 C541.445638,355 540.581835,354.184122 540.505486,353.149262 L540.5,353 L540.5,323 C540.5,324.054362 539.684122,324.918165 538.649262,324.994514 L538.5,325 L512.5,325 C511.445638,325 510.581835,324.184122 510.505486,323.149262 L510.5,323 L510.5,443 C510.5,444.054362 509.684122,444.918165 508.649262,444.994514 L508.5,445 L482.5,445 C481.445638,445 480.581835,444.184122 480.505486,443.149262 L480.5,443 L480.5,383 C480.5,384.054362 479.684122,384.918165 478.649262,384.994514 L478.5,385 L452.5,385 C451.445638,385 450.581835,384.184122 450.505486,383.149262 L450.5,383 L450.5,413 C450.5,414.054362 449.684122,414.918165 448.649262,414.994514 L448.5,415 L422.5,415 C421.445638,415 420.581835,414.184122 420.505486,413.149262 L420.5,413 L420.5,533 C420.5,534.054362 419.684122,534.918165 418.649262,534.994514 L418.5,535 L392.5,535 C391.445638,535 390.581835,534.184122 390.505486,533.149262 L390.5,533 L390.5,443 C390.5,444.054362 389.684122,444.918165 388.649262,444.994514 L388.5,445 L362.5,445 C361.445638,445 360.581835,444.184122 360.505486,443.149262 L360.5,443 L360.494514,443.149262 C360.421983,444.132379 359.638773,444.917865 358.65665,444.993956 L358.5,445 L332.5,445 C331.445638,445 330.581835,444.184122 330.505486,443.149262 L330.5,443 L330.5,383 C330.5,384.054362 329.684122,384.918165 328.649262,384.994514 L328.5,385 L302.5,385 C301.445638,385 300.581835,384.184122 300.505486,383.149262 L300.5,383 L300.5,443 C300.5,444.054362 299.684122,444.918165 298.649262,444.994514 L298.5,445 L272.5,445 C271.445638,445 270.581835,444.184122 270.505486,443.149262 L270.5,443 L270.5,473 C270.5,474.054362 269.684122,474.918165 268.649262,474.994514 L268.5,475 L242.5,475 C241.445638,475 240.581835,474.184122 240.505486,473.149262 L240.5,473 L240.5,383 C240.5,384.054362 239.684122,384.918165 238.649262,384.994514 L238.5,385 L212.5,385 C211.445638,385 210.581835,384.184122 210.505486,383.149262 L210.5,383 L210.5,413 C210.5,414.054362 209.684122,414.918165 208.649262,414.994514 L208.5,415 L182.5,415 C181.445638,415 180.581835,414.184122 180.505486,413.149262 L180.5,413 L180.5,353 C180.5,354.054362 179.684122,354.918165 178.649262,354.994514 L178.5,355 L152.5,355 C151.445638,355 150.581835,354.184122 150.505486,353.149262 L150.5,353 L150.5,503 C150.5,504.054362 149.684122,504.918165 148.649262,504.994514 L148.5,505 L122.5,505 C121.445638,505 120.581835,504.184122 120.505486,503.149262 L120.5,503 L120.5,323 C120.5,324.054362 119.684122,324.918165 118.649262,324.994514 L118.5,325 L92.5,325 C91.4456382,325 90.5818349,324.184122 90.5054857,323.149262 L90.5,323 L90.4945143,323.149262 C90.4219826,324.132379 89.6387735,324.917865 88.6566505,324.993956 L88.5,325 L62.5,325 C61.4456382,325 60.5818349,324.184122 60.5054857,323.149262 L60.5,323 L60.5,443 C60.5,444.054362 59.6841222,444.918165 58.6492623,444.994514 L58.5,445 L32.5,445 C31.4456382,445 30.5818349,444.184122 30.5054857,443.149262 L30.5,443 L30.5,383 C30.5,384.054362 29.6841222,384.918165 28.6492623,384.994514 L28.5,385 L2.5,385 C1.4456382,385 0.581834878,384.184122 0.505485736,383.149262 L0.5,383 L0.5,293 L930.5,293 Z M1350.5,293 L1350.5,413 L1350.49451,413.149262 C1350.41817,414.184122 1349.55436,415 1348.5,415 L1348.5,415 L1322.5,415 L1322.35074,414.994514 C1321.31588,414.918165 1320.5,414.054362 1320.5,413 L1320.5,413 L1320.5,473 L1320.49451,473.149262 C1320.41817,474.184122 1319.55436,475 1318.5,475 L1318.5,475 L1292.5,475 L1292.35074,474.994514 C1291.31588,474.918165 1290.5,474.054362 1290.5,473 L1290.5,473 L1290.5,323 L1290.49451,323.149262 C1290.41817,324.184122 1289.55436,325 1288.5,325 L1288.5,325 L1262.5,325 L1262.35074,324.994514 C1261.31588,324.918165 1260.5,324.054362 1260.5,323 L1260.5,323 L1260.5,353 L1260.49451,353.149262 C1260.41817,354.184122 1259.55436,355 1258.5,355 L1258.5,355 L1232.5,355 L1232.35074,354.994514 C1231.31588,354.918165 1230.5,354.054362 1230.5,353 L1230.5,353 L1230.5,533 L1230.49451,533.149262 C1230.41817,534.184122 1229.55436,535 1228.5,535 L1228.5,535 L1202.5,535 L1202.35074,534.994514 C1201.31588,534.918165 1200.5,534.054362 1200.5,533 L1200.5,533 L1200.5,383 L1200.49451,383.149262 C1200.41817,384.184122 1199.55436,385 1198.5,385 L1198.5,385 L1172.5,385 L1172.35074,384.994514 C1171.31588,384.918165 1170.5,384.054362 1170.5,383 L1170.5,383 L1170.5,443 L1170.49451,443.149262 C1170.41817,444.184122 1169.55436,445 1168.5,445 L1168.5,445 L1142.5,445 L1142.35074,444.994514 C1141.31588,444.918165 1140.5,444.054362 1140.5,443 L1140.5,443 L1140.5,413 L1140.49451,413.149262 C1140.41817,414.184122 1139.55436,415 1138.5,415 L1138.5,415 L1112.5,415 L1112.35074,414.994514 C1111.31588,414.918165 1110.5,414.054362 1110.5,413 L1110.5,413 L1110.5,503 L1110.49451,503.149262 C1110.41817,504.184122 1109.55436,505 1108.5,505 L1108.5,505 L1082.5,505 L1082.35074,504.994514 C1081.31588,504.918165 1080.5,504.054362 1080.5,503 L1080.5,503 L1080.5,473 L1080.49451,473.149262 C1080.41817,474.184122 1079.55436,475 1078.5,475 L1078.5,475 L1052.5,475 L1052.35074,474.994514 C1051.31588,474.918165 1050.5,474.054362 1050.5,473 L1050.5,473 L1050.5,413 L1050.49451,413.149262 C1050.41817,414.184122 1049.55436,415 1048.5,415 L1048.5,415 L1022.5,415 L1022.35074,414.994514 C1021.31588,414.918165 1020.5,414.054362 1020.5,413 L1020.5,413 L1020.5,473 L1020.49451,473.149262 C1020.41817,474.184122 1019.55436,475 1018.5,475 L1018.5,475 L992.5,475 L992.34335,474.993956 C991.361227,474.917865 990.578017,474.132379 990.505486,473.149262 L990.505486,473.149262 L990.5,473 L990.494514,473.149262 C990.418165,474.184122 989.554362,475 988.5,475 L988.5,475 L962.5,475 L962.350738,474.994514 C961.315878,474.918165 960.5,474.054362 960.5,473 L960.5,473 L960.5,293 L1350.5,293 Z" id="Combined-Shape" fill="#5C5AEA"></path>
            </g>
        </g>
    </g>
</svg>