<svg width="42" height="42" viewBox="0 0 42 42" fill="none" xmlns="http://www.w3.org/2000/svg">
<rect x="1" y="1" width="40" height="40" rx="20" fill="white"/>
<rect x="1" y="1" width="40" height="40" rx="20" stroke="#E0E0E0" stroke-width="2"/>
<path d="M20.9991 10.1807C20.4909 10.1807 20.0788 10.5928 20.0788 11.101C20.0788 11.6093 20.4909 12.0213 20.9991 12.0213C23.6583 12.0213 25.8218 14.1845 25.8218 16.8432C25.8218 17.3515 26.2339 17.7635 26.7422 17.7635C27.2504 17.7635 27.6625 17.3515 27.6625 16.8432C27.6625 13.1694 24.6734 10.1807 20.9991 10.1807Z" fill="#E0E0E0" stroke="#E0E0E0" stroke-width="0.2"/>
<path d="M18.865 7.12253L18.865 7.12253C15.1202 7.90504 12.0846 10.9115 11.2857 14.6796L11.3833 14.7003L11.2857 14.6796C10.6115 17.8591 11.4423 21.0531 13.5661 23.4406C14.5779 24.578 15.1578 26.0794 15.1578 27.562V29.2026C15.1578 30.3176 15.874 31.2675 16.87 31.6184C17.2256 33.5514 18.9142 35.0994 21 35.0994C23.0852 35.0994 24.7742 33.5519 25.1299 31.6184C26.1259 31.2675 26.8421 30.3176 26.8421 29.2025V27.5619C26.8421 26.0774 27.4233 24.5939 28.4821 23.3858C30.0695 21.5749 30.9437 19.2513 30.9437 16.8432C30.9437 10.5692 25.2007 5.7989 18.865 7.12253ZM13.0863 15.0614L12.9885 15.0407L13.0863 15.0614C13.7299 12.026 16.2042 9.55894 19.2415 8.92431L19.2211 8.82642L19.2415 8.92431C24.4307 7.83988 29.1031 11.7361 29.1031 16.8432C29.1031 18.8048 28.391 20.6974 27.098 22.1726C25.962 23.4686 25.2541 25.0279 25.0576 26.6417H16.9425C16.7464 25.0272 16.0412 23.4537 14.9415 22.2173L14.8668 22.2838L14.9415 22.2173C13.211 20.272 12.5343 17.6645 13.0863 15.0614ZM21 33.2589C20.0402 33.2589 19.188 32.6289 18.8249 31.7581H23.175C22.8119 32.6289 21.9597 33.2589 21 33.2589ZM25.0015 29.2026C25.0015 29.5997 24.6783 29.9229 24.2812 29.9229H17.7187C17.3216 29.9229 16.9984 29.5997 16.9984 29.2026V28.4823H25.0015V29.2026Z" fill="#E0E0E0" stroke="#E0E0E0" stroke-width="0.2"/>
</svg>
