<svg width="263" height="75" viewBox="0 0 263 75" fill="none" xmlns="http://www.w3.org/2000/svg">
<g filter="url(#filter0_d_210_8749)">
<rect x="6" y="4" width="251" height="63" rx="30" fill="white"/>
</g>
<path d="M55.96 43L51.1 29H53.62L57.34 40.22L61.08 29H63.58L58.72 43H55.96ZM65.0758 29H67.3758V43H65.0758V29ZM72.4734 40.8H78.6734V43H70.1734V29H78.5734V31.2H72.4734V34.84H78.0734V37.02H72.4734V40.8ZM83.7389 43L79.7789 29H82.1989L85.1389 39.94L88.3189 29H90.4389L93.5989 39.94L96.5389 29H98.9589L94.9989 43H92.3389L89.3789 32.78L86.3989 43H83.7389ZM117.459 41.16C116.059 42.56 114.346 43.26 112.319 43.26C110.293 43.26 108.573 42.56 107.159 41.16C105.759 39.7467 105.059 38.0267 105.059 36C105.059 33.9733 105.759 32.26 107.159 30.86C108.573 29.4467 110.293 28.74 112.319 28.74C114.346 28.74 116.059 29.4467 117.459 30.86C118.873 32.26 119.579 33.9733 119.579 36C119.579 38.0267 118.873 39.7467 117.459 41.16ZM108.779 39.6C109.739 40.5467 110.919 41.02 112.319 41.02C113.719 41.02 114.893 40.5467 115.839 39.6C116.799 38.64 117.279 37.44 117.279 36C117.279 34.56 116.799 33.3667 115.839 32.42C114.893 31.46 113.719 30.98 112.319 30.98C110.919 30.98 109.739 31.46 108.779 32.42C107.833 33.3667 107.359 34.56 107.359 36C107.359 37.44 107.833 38.64 108.779 39.6ZM130.54 41.94C129.553 42.82 128.28 43.26 126.72 43.26C125.16 43.26 123.887 42.82 122.9 41.94C121.913 41.0467 121.42 39.8533 121.42 38.36V29H123.72V38.22C123.72 39.0733 123.967 39.7533 124.46 40.26C124.967 40.7667 125.72 41.02 126.72 41.02C127.72 41.02 128.467 40.7667 128.96 40.26C129.467 39.7533 129.72 39.0733 129.72 38.22V29H132.02V38.36C132.02 39.8533 131.527 41.0467 130.54 41.94ZM142.646 43L139.686 37.9H136.966V43H134.666V29H140.266C141.519 29 142.579 29.44 143.446 30.32C144.326 31.1867 144.766 32.2467 144.766 33.5C144.766 34.3933 144.506 35.2133 143.986 35.96C143.479 36.6933 142.812 37.2267 141.986 37.56L145.166 43H142.646ZM136.966 31.16V35.84H140.266C140.879 35.84 141.399 35.6133 141.826 35.16C142.252 34.7067 142.466 34.1533 142.466 33.5C142.466 32.8467 142.252 32.2933 141.826 31.84C141.399 31.3867 140.879 31.16 140.266 31.16H136.966ZM154.891 43L150.931 29H153.351L156.291 39.94L159.471 29H161.591L164.751 39.94L167.691 29H170.111L166.151 43H163.491L160.531 32.78L157.551 43H154.891ZM183.006 41.16C181.606 42.56 179.893 43.26 177.866 43.26C175.84 43.26 174.12 42.56 172.706 41.16C171.306 39.7467 170.606 38.0267 170.606 36C170.606 33.9733 171.306 32.26 172.706 30.86C174.12 29.4467 175.84 28.74 177.866 28.74C179.893 28.74 181.606 29.4467 183.006 30.86C184.42 32.26 185.126 33.9733 185.126 36C185.126 38.0267 184.42 39.7467 183.006 41.16ZM174.326 39.6C175.286 40.5467 176.466 41.02 177.866 41.02C179.266 41.02 180.44 40.5467 181.386 39.6C182.346 38.64 182.826 37.44 182.826 36C182.826 34.56 182.346 33.3667 181.386 32.42C180.44 31.46 179.266 30.98 177.866 30.98C176.466 30.98 175.286 31.46 174.326 32.42C173.38 33.3667 172.906 34.56 172.906 36C172.906 37.44 173.38 38.64 174.326 39.6ZM195.204 43L192.244 37.9H189.524V43H187.224V29H192.824C194.078 29 195.138 29.44 196.004 30.32C196.884 31.1867 197.324 32.2467 197.324 33.5C197.324 34.3933 197.064 35.2133 196.544 35.96C196.038 36.6933 195.371 37.2267 194.544 37.56L197.724 43H195.204ZM189.524 31.16V35.84H192.824C193.438 35.84 193.958 35.6133 194.384 35.16C194.811 34.7067 195.024 34.1533 195.024 33.5C195.024 32.8467 194.811 32.2933 194.384 31.84C193.958 31.3867 193.438 31.16 192.824 31.16H189.524ZM210.05 43H207.31L201.79 36.34V43H199.49V29H201.79V35.28L207.11 29H209.85L204.19 35.82L210.05 43Z" fill="#363636"/>
<defs>
<filter id="filter0_d_210_8749" x="0" y="0" width="263" height="75" filterUnits="userSpaceOnUse" color-interpolation-filters="sRGB">
<feFlood flood-opacity="0" result="BackgroundImageFix"/>
<feColorMatrix in="SourceAlpha" type="matrix" values="0 0 0 0 0 0 0 0 0 0 0 0 0 0 0 0 0 0 127 0" result="hardAlpha"/>
<feOffset dy="2"/>
<feGaussianBlur stdDeviation="3"/>
<feColorMatrix type="matrix" values="0 0 0 0 0 0 0 0 0 0 0 0 0 0 0 0 0 0 0.303458 0"/>
<feBlend mode="normal" in2="BackgroundImageFix" result="effect1_dropShadow_210_8749"/>
<feBlend mode="normal" in="SourceGraphic" in2="effect1_dropShadow_210_8749" result="shape"/>
</filter>
</defs>
</svg>
