<svg width="72" height="70" viewBox="0 0 72 70" fill="none" xmlns="http://www.w3.org/2000/svg">
<path fill-rule="evenodd" clip-rule="evenodd" d="M6.13634 0.331978C6.66034 -0.110659 7.42724 -0.110659 7.95125 0.331978L11.6181 3.42939C12.2114 3.93056 12.286 4.81781 11.7849 5.41112C11.2837 6.00442 10.3964 6.07911 9.80314 5.57793L8.45005 4.43495L8.45005 15.0335H19.822C20.5986 15.0335 21.2282 15.6631 21.2282 16.4398C21.2282 17.2164 20.5986 17.846 19.822 17.846H8.45032L8.45037 34.4117H26.68L43.2457 17.846H32.2164C31.4397 17.846 30.8101 17.2164 30.8101 16.4398C30.8101 15.6631 31.4397 15.0335 32.2164 15.0335H46.0582L52.2334 8.85827L48.7351 5.35995C48.3339 4.95874 48.2131 4.35574 48.4288 3.83096C48.6445 3.30617 49.1544 2.96243 49.7218 2.95935L64.4353 2.87947C64.8096 2.87744 65.1692 3.0247 65.4346 3.28864C65.7 3.55258 65.8492 3.91142 65.8492 4.2857V19.0804C65.8492 19.6493 65.5065 20.1621 64.981 20.3797C64.4554 20.5973 63.8505 20.4769 63.4484 20.0746L60.0619 16.6869L53.8126 22.9362V60.3961L67.565 60.3961L66.4221 59.0432C65.9209 58.4499 65.9956 57.5627 66.5889 57.0615C67.1822 56.5603 68.0694 56.635 68.5706 57.2283L71.668 60.8949C72.1107 61.4189 72.1107 62.1858 71.668 62.7099L68.5706 66.3766C68.0695 66.97 67.1822 67.0446 66.5889 66.5435C65.9956 66.0423 65.9209 65.155 66.4221 64.5617L67.5651 63.2086L8.45009 63.2086L8.45009 67.953C8.45009 68.7296 7.82049 69.3592 7.04384 69.3592C6.26719 69.3592 5.63759 68.7296 5.63759 67.953L5.63758 63.2086H1.40625C0.629599 63.2086 -5.02914e-07 62.579 0 61.8023C5.02915e-07 61.0257 0.629601 60.3961 1.40625 60.3961H5.63758L5.63754 4.43495L4.28445 5.57793C3.69115 6.07911 2.80389 6.00442 2.30272 5.41112C1.80155 4.81781 1.87623 3.93056 2.46954 3.42939L6.13634 0.331978ZM8.45008 56.62L8.45008 60.3961H12.375L59.0677 13.7036C59.3314 13.4399 59.6891 13.2917 60.0622 13.2918C60.4352 13.2918 60.7929 13.44 61.0566 13.7038L63.0367 15.6846V5.69961L53.1061 5.75352L55.2165 7.8639C55.7657 8.41307 55.7657 9.30346 55.2165 9.85264L47.654 17.4151C47.6479 17.4215 47.6417 17.4278 47.6354 17.4341L28.2579 36.8123L8.45008 56.62ZM23.8675 37.2242H8.45037V52.6413L23.8675 37.2242ZM51.0001 60.3958V25.7487L34.4359 42.3128V60.3958H51.0001ZM31.6234 60.3956V45.1253L16.3532 60.3956H31.6234Z" fill="#5C5AEA"/>
<path d="M27.4957 16.4353C27.4957 17.2129 26.8653 17.8433 26.0877 17.8433C25.3101 17.8433 24.6797 17.2129 24.6797 16.4353C24.6797 15.6576 25.3101 15.0272 26.0877 15.0272C26.8653 15.0272 27.4957 15.6576 27.4957 16.4353Z" fill="#5C5AEA"/>
</svg>
