<svg width="69" height="72" viewBox="0 0 69 72" fill="none" xmlns="http://www.w3.org/2000/svg">
<path d="M39.4884 59.2262H37.1659V51.8151L38.8462 50.9743C39.2399 50.7781 39.4884 50.3751 39.4884 49.935V44.1288C39.4884 41.8063 38.1088 39.8124 36.1324 38.8845C36.7688 38.0891 37.1659 37.0951 37.1659 36C37.1659 33.4383 35.0826 31.355 32.5209 31.355C29.9592 31.355 27.8759 33.4383 27.8759 36C27.8759 37.0951 28.273 38.0891 28.9094 38.8845C26.9329 39.8135 25.5534 41.8074 25.5534 44.1299V49.9362C25.5534 50.3763 25.8019 50.7781 26.1955 50.9755L27.8759 51.8163V59.2262H25.5534C24.9124 59.2262 24.3921 59.7465 24.3921 60.3875V70.8387C24.3921 71.4798 24.9124 72 25.5534 72H39.4884C40.1294 72 40.6497 71.4798 40.6497 70.8387V60.3875C40.6497 59.7465 40.1294 59.2262 39.4884 59.2262ZM32.5209 33.6786C33.8018 33.6786 34.8434 34.7203 34.8434 36.0012C34.8434 37.282 33.8018 38.3237 32.5209 38.3237C31.24 38.3237 30.1984 37.282 30.1984 36.0012C30.1984 34.7203 31.24 33.6786 32.5209 33.6786ZM27.8759 44.1299C27.8759 42.2092 29.4389 40.6462 31.3596 40.6462H33.6821C35.6029 40.6462 37.1659 42.2092 37.1659 44.1299V49.2185L35.4856 50.0593C35.0919 50.2555 34.8434 50.6585 34.8434 51.0986V59.2274H30.1984V51.0986C30.1984 50.6585 29.9499 50.2567 29.5562 50.0593L27.8759 49.2185V44.1299ZM38.3272 69.6775H26.7146V61.5487H38.3272V69.6775Z" fill="#5C5AEA"/>
<path d="M58.0685 65.0325H55.746V57.6214L57.4263 56.7806C57.82 56.5844 58.0685 56.1814 58.0685 55.7413V49.935C58.0685 47.6125 56.6889 45.6187 54.7124 44.6908C55.3488 43.8954 55.746 42.9013 55.746 41.8063C55.746 39.2445 53.6627 37.1612 51.1009 37.1612C48.5392 37.1612 46.4559 39.2445 46.4559 41.8063C46.4559 42.9013 46.8531 43.8954 47.4894 44.6908C45.513 45.6198 44.1334 47.6137 44.1334 49.9362V55.7425C44.1334 56.1826 44.3819 56.5844 44.7756 56.7818L46.4559 57.6225V65.0325H44.1334C43.4924 65.0325 42.9722 65.5527 42.9722 66.1937V70.8387C42.9722 71.4798 43.4924 72 44.1334 72H58.0685C58.7095 72 59.2297 71.4798 59.2297 70.8387V66.1937C59.2297 65.5527 58.7095 65.0325 58.0685 65.0325ZM51.1009 39.4849C52.3818 39.4849 53.4235 40.5266 53.4235 41.8074C53.4235 43.0883 52.3818 44.1299 51.1009 44.1299C49.8201 44.1299 48.7784 43.0883 48.7784 41.8074C48.7784 40.5266 49.8201 39.4849 51.1009 39.4849ZM46.4559 49.9362C46.4559 48.0155 48.019 46.4524 49.9397 46.4524H52.2622C54.1829 46.4524 55.746 48.0155 55.746 49.9362V55.0248L54.0656 55.8655C53.672 56.0618 53.4235 56.4648 53.4235 56.9049V65.0336H48.7784V56.9049C48.7784 56.4648 48.5299 56.063 48.1363 55.8655L46.4559 55.0248V49.9362ZM56.9072 69.6775H45.2947V67.355H56.9072V69.6775Z" fill="#5C5AEA"/>
<path d="M20.9084 65.0325H18.5859V57.6214L20.2662 56.7806C20.6599 56.5844 20.9084 56.1814 20.9084 55.7413V49.935C20.9084 47.6125 19.5288 45.6187 17.5523 44.6908C18.1887 43.8954 18.5859 42.9013 18.5859 41.8063C18.5859 39.2445 16.5026 37.1612 13.9408 37.1612C11.3791 37.1612 9.29584 39.2445 9.29584 41.8063C9.29584 42.9013 9.69298 43.8954 10.3294 44.6908C8.3529 45.6198 6.97333 47.6137 6.97333 49.9362V55.7425C6.97333 56.1826 7.22184 56.5844 7.6155 56.7818L9.29584 57.6225V65.0325H6.97333C6.33232 65.0325 5.81208 65.5527 5.81208 66.1937V70.8387C5.81208 71.4798 6.33232 72 6.97333 72H20.9084C21.5494 72 22.0696 71.4798 22.0696 70.8387V66.1937C22.0696 65.5527 21.5494 65.0325 20.9084 65.0325ZM13.9408 39.4849C15.2217 39.4849 16.2634 40.5266 16.2634 41.8074C16.2634 43.0883 15.2217 44.1299 13.9408 44.1299C12.66 44.1299 11.6183 43.0883 11.6183 41.8074C11.6183 40.5266 12.66 39.4849 13.9408 39.4849ZM9.29584 49.9362C9.29584 48.0155 10.8589 46.4524 12.7796 46.4524H15.1021C17.0228 46.4524 18.5859 48.0155 18.5859 49.9362V55.0248L16.9055 55.8655C16.5119 56.0618 16.2634 56.4648 16.2634 56.9049V65.0336H11.6183V56.9049C11.6183 56.4648 11.3698 56.063 10.9762 55.8655L9.29584 55.0248V49.9362ZM19.7471 69.6775H8.13458V67.355H19.7471V69.6775Z" fill="#5C5AEA"/>
<path d="M40.4941 29.389L38.9066 27.6924C38.398 28.1685 37.8371 28.5866 37.2402 28.9349L38.4096 30.9416C39.1575 30.505 39.8588 29.9836 40.4941 29.389Z" fill="#5C5AEA"/>
<path d="M27.3661 28.6028C26.7901 28.2138 26.2583 27.7597 25.7833 27.2534L24.089 28.8409C24.6824 29.4738 25.3467 30.0404 26.0643 30.5259L27.3661 28.6028Z" fill="#5C5AEA"/>
<path d="M43.3914 25.1121L41.2268 24.269C40.9748 24.9147 40.6497 25.5348 40.2595 26.1108L42.1825 27.4137C42.6691 26.6937 43.0767 25.9203 43.3914 25.1121Z" fill="#5C5AEA"/>
<path d="M21.4832 24.3782C21.7421 25.2073 22.0963 26.0074 22.5353 26.7588L24.5408 25.5859C24.1901 24.9867 23.9079 24.348 23.7012 23.6861L21.4832 24.3782Z" fill="#5C5AEA"/>
<path d="M43.756 19.9944L41.8272 20.1814C41.8818 20.877 41.8574 21.5772 41.7587 22.26L44.0568 22.5968C44.1822 21.7421 44.2112 20.8689 44.1404 19.9677L43.756 19.9944Z" fill="#5C5AEA"/>
<path d="M20.9873 21.8048L20.9897 21.8269L23.3029 21.6249C23.2495 20.9351 23.2715 20.243 23.3691 19.5648L21.0709 19.2327C20.949 20.0792 20.9211 20.9444 20.9873 21.8048Z" fill="#5C5AEA"/>
<path d="M40.5811 16.203C40.9318 16.801 41.2163 17.4397 41.4254 18.1028L43.6399 17.4025C43.3786 16.5746 43.0233 15.7756 42.5831 15.0278L40.5811 16.203Z" fill="#5C5AEA"/>
<path d="M21.7305 16.7174L23.8963 17.5558C24.1459 16.9102 24.4711 16.2901 24.8589 15.7129L22.9347 14.4135C22.4482 15.1335 22.0441 15.9092 21.7305 16.7174Z" fill="#5C5AEA"/>
<path d="M37.7489 13.193C38.3248 13.5808 38.859 14.0337 39.334 14.54L41.0259 12.948C40.4313 12.3174 39.7659 11.7507 39.046 11.2665L37.7489 13.193Z" fill="#5C5AEA"/>
<path d="M24.6197 12.4335L26.2095 14.1266C26.7158 13.6505 27.2755 13.2313 27.8747 12.8806L26.7007 10.8763C25.9528 11.3152 25.2515 11.839 24.6197 12.4335Z" fill="#5C5AEA"/>
<path d="M36.7409 10.0657C35.9303 9.7522 35.0826 9.53156 34.2233 9.40731L33.8935 11.7066C34.5798 11.8053 35.2568 11.9818 35.9036 12.2315L36.7409 10.0657Z" fill="#5C5AEA"/>
<path d="M31.6279 9.3295C30.7593 9.39918 29.9011 9.5664 29.0778 9.82536L29.7734 12.041C30.4318 11.8343 31.1181 11.7008 31.8149 11.6439L31.6279 9.3295Z" fill="#5C5AEA"/>
<path d="M26.775 19.4394C26.6368 19.8516 26.7413 20.308 27.0444 20.6192L28.957 22.5794L28.503 25.3618C28.431 25.8007 28.6168 26.242 28.9802 26.4986C29.3449 26.7553 29.8233 26.7808 30.2112 26.566L32.5197 25.2898L34.8283 26.566C35.006 26.6624 35.1987 26.7111 35.3915 26.7111C35.6261 26.7111 35.8607 26.6391 36.0604 26.4986C36.4239 26.2432 36.6097 25.8007 36.5377 25.3618L36.0836 22.5794L37.9962 20.6192C38.3005 20.308 38.405 19.8528 38.2656 19.4394C38.1263 19.026 37.7698 18.7252 37.3401 18.6602L34.7435 18.263L33.5718 15.7663C33.3814 15.3587 32.9715 15.0986 32.5209 15.0986C32.0703 15.0986 31.6616 15.3587 31.47 15.7663L30.2971 18.263L27.7005 18.6602C27.2697 18.7264 26.9132 19.0271 26.775 19.4394ZM31.2609 20.4659C31.6442 20.4079 31.9728 20.1628 32.1365 19.8121L32.5209 18.9935L32.9053 19.8121C33.0702 20.1628 33.3976 20.4079 33.7809 20.4671L34.7563 20.6157L34.0119 21.3787C33.7542 21.6423 33.638 22.0127 33.6973 22.3762L33.861 23.3772L33.0829 22.9475C32.9088 22.8511 32.7148 22.8024 32.5209 22.8024C32.327 22.8024 32.1342 22.8511 31.9589 22.9475L31.1808 23.3772L31.3445 22.3762C31.4038 22.0127 31.2876 21.6423 31.0299 21.3787L30.2855 20.6157L31.2609 20.4659Z" fill="#5C5AEA"/>
<path d="M4.92836 44.793C3.36067 41.2744 2.5025 37.5398 2.3585 33.6787H5.81207V31.3562H2.35734C2.53385 26.7077 3.76478 22.3262 5.8202 18.443L8.80927 20.1686L9.97052 18.1574L6.9861 16.4352C9.39338 12.6263 12.6275 9.39221 16.4364 6.98494L18.1585 9.96936L20.1698 8.8081L18.4442 5.81904C22.3274 3.76362 26.7088 2.53269 31.3573 2.35618V5.80859H33.6798V2.35386C38.3283 2.53037 42.7097 3.7613 46.5929 5.81672L44.8673 8.80578L46.8786 9.96703L48.6008 6.98261C52.4097 9.38989 55.6438 12.624 58.051 16.4329L55.0666 18.155L56.2279 20.1663L59.2169 18.4407C61.2724 22.3239 62.5033 26.7053 62.6798 31.3538H59.2251V33.6763H62.6775C62.6229 35.1175 62.4673 36.5481 62.2106 37.9579L59.5409 37.2042C59.1136 37.0835 58.6549 37.217 58.3599 37.5468C58.0638 37.8778 57.9825 38.3469 58.1486 38.758L60.5175 44.5921C60.6464 44.908 60.9066 45.1518 61.2305 45.2587C61.349 45.2982 61.4721 45.3167 61.594 45.3167C61.8054 45.3167 62.0155 45.2587 62.199 45.1472L67.9809 41.6147C68.3746 41.3731 68.5882 40.9226 68.5255 40.465C68.4628 40.0075 68.1354 39.6312 67.6906 39.5058L64.4507 38.5908C64.827 36.5969 65.0302 34.5601 65.0302 32.5151C65.0302 14.5865 50.4437 0 32.5151 0C14.5865 0 0 14.5865 0 32.5151C0 37.1171 0.942937 41.5659 2.80094 45.7371L4.92836 44.793ZM62.1595 42.4542L61.198 40.0865L64.5064 41.0201L62.1595 42.4542Z" fill="#5C5AEA"/>
</svg>
