<svg width="72" height="72" viewBox="0 0 72 72" fill="none" xmlns="http://www.w3.org/2000/svg">
<path d="M46.5119 7.39552L40.3261 6.50618L37.5657 0.96494C37.421 0.675023 37.1983 0.431166 36.9227 0.260725C36.6471 0.0902843 36.3295 0 36.0055 0C35.6814 0 35.3638 0.0902843 35.0882 0.260725C34.8126 0.431166 34.59 0.675023 34.4452 0.96494L31.6848 6.50738L25.5039 7.39672C25.1817 7.44276 24.8789 7.57835 24.63 7.78804C24.3811 7.99774 24.1961 8.2731 24.0961 8.58279C23.996 8.89248 23.9849 9.22404 24.0641 9.53972C24.1432 9.8554 24.3094 10.1425 24.5437 10.3684L29.0084 14.6782L27.9558 20.7632C27.8992 21.0825 27.9339 21.4114 28.0557 21.712C28.1776 22.0126 28.3817 22.2728 28.6448 22.4626C28.9075 22.6557 29.2193 22.771 29.5444 22.7952C29.8696 22.8194 30.195 22.7515 30.4834 22.5994L36.0055 19.7214L41.5347 22.6018C41.8231 22.7533 42.1482 22.821 42.473 22.7971C42.7979 22.7733 43.1096 22.659 43.3728 22.4671C43.6361 22.2752 43.8403 22.0134 43.9624 21.7114C44.0844 21.4094 44.1195 21.0793 44.0635 20.7584L43.0109 14.6746L47.4756 10.3648C47.7098 10.1388 47.8759 9.85157 47.955 9.53585C48.0341 9.22012 48.023 8.88854 47.923 8.57881C47.8229 8.26909 47.638 7.99365 47.3892 7.78382C47.1404 7.574 46.8376 7.43822 46.5155 7.39192L46.5119 7.39552ZM40.8854 13.3964C40.7443 13.5326 40.6386 13.7012 40.5777 13.8877C40.5169 14.0741 40.5026 14.2726 40.5362 14.4658L41.4711 19.8666L36.6704 17.3678C36.4666 17.2613 36.2402 17.2057 36.0103 17.2057C35.7804 17.2057 35.5539 17.2613 35.3502 17.3678L30.5494 19.869L31.4844 14.4682C31.518 14.275 31.5037 14.0765 31.4428 13.8901C31.3819 13.7036 31.2763 13.535 31.1351 13.3988L27.1757 9.57985L32.645 8.79493C32.716 8.78468 32.7859 8.7678 32.8538 8.74452C33.1589 8.64218 33.4112 8.42349 33.5559 8.13603L36.0055 3.21048L38.461 8.13843C38.5486 8.31258 38.6769 8.46301 38.8351 8.57689C38.9933 8.69078 39.1767 8.76476 39.3696 8.79253L44.8352 9.57985L40.8854 13.3964Z" fill="#5C5AEA"/>
<path d="M19.971 15.432L18.2152 11.7006C18.0892 11.4325 17.8895 11.2059 17.6394 11.0471C17.3894 10.8884 17.0993 10.8041 16.8032 10.8041C16.507 10.8041 16.2169 10.8884 15.9669 11.0471C15.7168 11.2059 15.5171 11.4325 15.3911 11.7006L13.6365 15.4308L9.73228 16.0308C9.44709 16.0752 9.17966 16.1974 8.95944 16.3839C8.73922 16.5705 8.57473 16.8142 8.48409 17.0882C8.39051 17.3658 8.37563 17.6639 8.44109 17.9495C8.50655 18.235 8.64979 18.4969 8.85494 18.706L11.7114 21.6225L11.0333 25.7619C10.9837 26.0554 11.0183 26.3569 11.133 26.6315C11.2477 26.9062 11.4378 27.1427 11.6814 27.3138C11.9189 27.4826 12.1993 27.5808 12.4902 27.5972C12.7811 27.6135 13.0707 27.5473 13.3256 27.4062L16.8062 25.4859L20.2867 27.4062C20.5455 27.5462 20.8386 27.6104 21.1323 27.5917C21.426 27.5729 21.7084 27.4718 21.9473 27.3C22.1863 27.1282 22.372 26.8926 22.4833 26.6202C22.5946 26.3477 22.6269 26.0495 22.5766 25.7595L21.8985 21.6213L24.7562 18.7C24.9613 18.4909 25.1046 18.229 25.17 17.9435C25.2355 17.6579 25.2206 17.3598 25.127 17.0822C25.0363 16.808 24.8716 16.5642 24.6512 16.3776C24.4307 16.1911 24.163 16.069 23.8776 16.0248L19.971 15.432ZM19.7538 20.3767C19.6222 20.5113 19.524 20.6749 19.4673 20.8544C19.4106 21.0339 19.3969 21.2243 19.4274 21.4101L19.9278 24.4717L17.4531 23.1071C17.2544 22.9961 17.0307 22.9378 16.8032 22.9378C16.5756 22.9378 16.3519 22.9961 16.1533 23.1071L13.6821 24.4717L14.1826 21.4101C14.213 21.2243 14.1993 21.0339 14.1426 20.8544C14.0859 20.6749 13.9878 20.5113 13.8561 20.3767L11.6838 18.1576L14.6302 17.7087C14.8261 17.6783 15.0115 17.6004 15.1703 17.4818C15.3291 17.3631 15.4565 17.2074 15.5412 17.0282L16.8026 14.3374L18.0639 17.0186C18.1484 17.2026 18.2777 17.3624 18.44 17.4834C18.6023 17.6044 18.7924 17.6827 18.9929 17.7111L21.9261 18.1576L19.7538 20.3767Z" fill="#5C5AEA"/>
<path d="M63.5281 17.0834C63.4373 16.8092 63.2727 16.5654 63.0522 16.3788C62.8318 16.1923 62.5641 16.0702 62.2787 16.026L58.3769 15.432L56.621 11.7006C56.495 11.4325 56.2953 11.2059 56.0453 11.0471C55.7952 10.8884 55.5052 10.8041 55.209 10.8041C54.9128 10.8041 54.6228 10.8884 54.3727 11.0471C54.1227 11.2059 53.923 11.4325 53.797 11.7006L52.0423 15.4308L48.1381 16.0308C47.8529 16.0752 47.5855 16.1974 47.3653 16.3839C47.1451 16.5705 46.9806 16.8142 46.8899 17.0882C46.7964 17.3658 46.7815 17.6639 46.8469 17.9495C46.9124 18.235 47.0556 18.4969 47.2608 18.706L50.1184 21.6273L49.4403 25.7667C49.3908 26.0602 49.4254 26.3617 49.5401 26.6363C49.6548 26.911 49.8449 27.1475 50.0884 27.3186C50.3259 27.4874 50.6063 27.5856 50.8972 27.602C51.1881 27.6183 51.4777 27.5521 51.7327 27.411L55.2132 25.4907L58.6937 27.411C58.9526 27.551 59.2456 27.6152 59.5393 27.5965C59.833 27.5777 60.1155 27.4766 60.3544 27.3048C60.5933 27.133 60.779 26.8974 60.8903 26.625C61.0016 26.3525 61.034 26.0543 60.9837 25.7643L60.3056 21.6261L63.1632 18.7048C63.368 18.4947 63.5105 18.232 63.5749 17.9457C63.6393 17.6595 63.6231 17.361 63.5281 17.0834ZM58.1596 20.3767C58.028 20.5113 57.9299 20.6749 57.8731 20.8544C57.8164 21.0339 57.8028 21.2243 57.8332 21.4101L58.3337 24.4717L55.8589 23.1071C55.6603 22.9961 55.4365 22.9378 55.209 22.9378C54.9815 22.9378 54.7577 22.9961 54.5591 23.1071L52.0879 24.4717L52.5884 21.4101C52.6188 21.2243 52.6052 21.0339 52.5484 20.8544C52.4917 20.6749 52.3936 20.5113 52.2619 20.3767L50.0896 18.1576L53.0361 17.7087C53.2319 17.6783 53.4174 17.6004 53.5762 17.4818C53.735 17.3631 53.8623 17.2074 53.947 17.0282L55.2084 14.3374L56.4698 17.0186C56.5542 17.2026 56.6836 17.3624 56.8459 17.4834C57.0082 17.6044 57.1983 17.6827 57.3987 17.7111L60.332 18.1576L58.1596 20.3767Z" fill="#5C5AEA"/>
<path d="M69.1881 27.9774L60.3836 29.5509C60.0051 29.618 59.6442 29.7615 59.323 29.9726C59.0017 30.1837 58.7268 30.4579 58.5149 30.7787C58.3101 31.0883 58.1674 31.4348 58.0948 31.7988L56.2946 32.1193C55.9242 32.1851 55.571 32.3254 55.2564 32.5317C54.9418 32.738 54.6723 33.006 54.4643 33.3195C54.2383 33.6623 54.0893 34.0501 54.0274 34.456L53.4777 34.576C53.2563 34.6289 53.0263 34.6348 52.8025 34.5935C52.5786 34.5521 52.3659 34.4644 52.1779 34.336L44.0815 28.982C43.4619 28.5737 42.763 28.3009 42.0307 28.1814C41.2983 28.0618 40.549 28.0983 39.8317 28.2883L38.6855 28.6003L31.1243 26.5396C30.3961 26.3741 29.641 26.3665 28.9096 26.5172C28.1782 26.6679 27.4875 26.9735 26.8841 27.4134L18.8981 33.4083C18.7143 33.5434 18.5048 33.6392 18.2824 33.6898C18.06 33.7404 17.8296 33.7447 17.6055 33.7023L17.0666 33.6003C16.9891 33.1968 16.8253 32.8149 16.5865 32.4805C16.3644 32.1757 16.083 31.9188 15.7592 31.7254C15.4354 31.5319 15.0759 31.4059 14.7022 31.3548L12.902 31.1147C12.7681 30.556 12.4686 30.0508 12.0426 29.6653C11.6166 29.2797 11.0841 29.032 10.5148 28.9544L2.73282 27.8922C2.39269 27.8447 2.04631 27.8706 1.71709 27.9684C1.38786 28.0662 1.08344 28.2334 0.824391 28.4589C0.565344 28.6844 0.3577 28.9629 0.215481 29.2755C0.0732626 29.5881 -0.000218486 29.9276 4.87969e-07 30.271V56.9042C0.00109473 57.4844 0.211642 58.0446 0.592909 58.4819C0.974177 58.9192 1.50052 59.2041 2.07512 59.2842L5.2484 59.7175C5.37966 59.7355 5.51197 59.7447 5.64446 59.7451C6.31264 59.7455 6.95955 59.5102 7.4713 59.0805C7.98304 58.6509 8.32681 58.0545 8.44209 57.3963L8.85135 55.1088L10.642 55.3488C10.7641 55.3654 10.8872 55.3738 11.0105 55.374C11.5294 55.3723 12.0378 55.2271 12.4795 54.9545C12.9211 54.6819 13.2787 54.2925 13.5129 53.8294L14.5546 54.0694L14.5198 54.1066C13.7818 54.8841 13.3803 55.9214 13.4028 56.9931C13.4253 58.0649 13.8698 59.0845 14.6398 59.8303C15.3905 60.5606 16.3974 60.9678 17.4447 60.9645H17.5359C17.5517 62.022 17.9835 63.0308 18.7379 63.7721C19.4923 64.5135 20.5084 64.9277 21.5661 64.9251H21.6561C21.6738 65.9806 22.1062 66.9868 22.86 67.726C23.6138 68.4651 24.6282 68.8779 25.6839 68.8749H25.7691C26.0591 68.866 26.3472 68.8258 26.6285 68.7549C26.775 69.4791 27.117 70.1494 27.6174 70.6931C28.1178 71.2368 28.7574 71.6332 29.467 71.8393C30.1766 72.0454 30.9291 72.0534 31.6428 71.8624C32.3566 71.6713 33.0045 71.2886 33.5163 70.7556L35.4522 68.7404L36.6452 69.883C37.0305 70.2527 37.4848 70.5429 37.9823 70.737C38.4798 70.931 39.0106 71.0252 39.5445 71.014C40.0783 71.0029 40.6048 70.8867 41.0937 70.672C41.5827 70.4574 42.0245 70.1485 42.3941 69.763C42.9523 69.1669 43.3229 68.4198 43.4598 67.6147C43.9924 67.7192 44.5406 67.7157 45.0718 67.6041C45.603 67.4926 46.1064 67.2755 46.552 66.9656C46.9976 66.6557 47.3763 66.2593 47.6657 65.8001C47.9551 65.341 48.1492 64.8283 48.2365 64.2926C48.5187 64.3451 48.8053 64.3697 49.0923 64.3658C49.6969 64.3524 50.2909 64.2042 50.8308 63.9318C51.3708 63.6595 51.843 63.2699 52.2131 62.7916C52.5832 62.3132 52.8417 61.7583 52.9697 61.1672C53.0978 60.5762 53.0922 59.964 52.9533 59.3754C53.8767 59.1828 54.7047 58.6755 55.2957 57.9403C55.8868 57.205 56.2042 56.2873 56.1938 55.344C56.1938 55.2756 56.177 55.2108 56.1734 55.1436L58.4117 54.5327C58.6559 54.9687 59.0117 55.3318 59.4426 55.5849C59.8735 55.838 60.3639 55.9719 60.8637 55.9729C61.0246 55.9722 61.1852 55.9582 61.3437 55.9309L63.1176 55.6128L63.6097 57.8752C63.7484 58.5099 64.0999 59.0781 64.6059 59.4857C65.1119 59.8932 65.742 60.1156 66.3917 60.1159C66.5623 60.1155 66.7326 60.1003 66.9006 60.0703L70.0211 59.5134C70.5779 59.4168 71.0827 59.1268 71.4467 58.6945C71.8107 58.2623 72.0105 57.7154 72.011 57.1503V30.3406C72.011 29.9896 71.9341 29.6428 71.7855 29.3248C71.637 29.0067 71.4206 28.7251 71.1514 28.4998C70.8823 28.2745 70.567 28.1109 70.2278 28.0207C69.8885 27.9304 69.5337 27.9157 69.1881 27.9774ZM40.4462 30.5998C40.8356 30.4974 41.2422 30.478 41.6396 30.5429C42.037 30.6078 42.4163 30.7556 42.7529 30.9767L50.8397 36.3271C51.2963 36.6393 51.8129 36.8528 52.3566 36.9541C52.9003 37.0553 53.4591 37.0421 53.9974 36.9152L54.3371 36.842L57.7516 52.2187L55.2876 52.8908C55.1781 52.7448 55.0578 52.6071 54.9276 52.4792L39.4284 37.5969C38.8419 37.0357 38.0569 36.7297 37.2453 36.746L35.565 36.7796C35.162 36.7846 34.7641 36.8705 34.3949 37.0322C34.0256 37.1938 33.6926 37.4279 33.4155 37.7205L28.6508 42.6785C28.4188 42.9221 28.1407 43.1171 27.8327 43.2522C27.5246 43.3874 27.1928 43.46 26.8565 43.4658C26.5153 43.4819 26.1746 43.4262 25.8564 43.3021C25.5382 43.1781 25.2496 42.9885 25.0094 42.7457C24.6129 42.3681 24.3687 41.8583 24.3229 41.3127C24.2815 40.7696 24.4427 40.2305 24.7754 39.7992L29.0204 34.426C29.4927 33.8376 30.136 33.4102 30.8615 33.203L40.4462 30.5998ZM5.57605 57.3375L2.40037 56.9042V30.2722L10.1775 31.332C10.2399 31.3403 10.2998 31.3614 10.3537 31.3938C10.4075 31.4262 10.4542 31.4693 10.4908 31.5204C10.5267 31.5689 10.5521 31.6244 10.5655 31.6833C10.579 31.7421 10.5801 31.8031 10.5688 31.8624L6.07893 56.9751C6.07019 57.0321 6.05018 57.0868 6.02006 57.1361C5.98994 57.1853 5.95032 57.228 5.9035 57.2617C5.85669 57.2955 5.80362 57.3196 5.7474 57.3326C5.69118 57.3456 5.63293 57.3473 5.57605 57.3375ZM10.9601 52.9736L9.27981 52.742L12.7195 33.5079L14.3758 33.7311C14.4307 33.7388 14.4834 33.7576 14.5309 33.7863C14.5783 33.815 14.6195 33.8529 14.6518 33.8979C14.72 33.9895 14.7493 34.1042 14.7334 34.2172L11.4221 52.6304C11.4052 52.7366 11.3474 52.832 11.2611 52.8962C11.1747 52.9604 11.0667 52.9882 10.9601 52.9736ZM17.4735 58.5665C17.2577 58.5736 17.0427 58.5366 16.8417 58.4577C16.6407 58.3789 16.4579 58.2599 16.3045 58.108C15.9937 57.8011 15.8147 57.3853 15.8052 56.9487C15.7958 56.512 15.9568 56.0889 16.2541 55.7689L18.6172 53.2965C18.9226 52.9791 19.3415 52.7959 19.7819 52.7871C20.2223 52.7783 20.6482 52.9447 20.966 53.2497C21.2701 53.5608 21.4436 53.9764 21.451 54.4114C21.4584 54.8464 21.299 55.2677 21.0056 55.5888L18.6364 58.0564C18.4857 58.2136 18.3053 58.3395 18.1057 58.4266C17.9061 58.5137 17.6912 58.5605 17.4735 58.5641V58.5665ZM21.6033 62.5247C21.3854 62.5331 21.1682 62.4964 20.9652 62.4168C20.7621 62.3373 20.5777 62.2167 20.4235 62.0626C20.116 61.7526 19.9394 61.3362 19.9305 60.8997C19.9216 60.4631 20.0809 60.0398 20.3755 59.7175L22.7387 57.2547L22.7519 57.2379L23.5308 56.4266C23.8365 56.1097 24.2553 55.9269 24.6955 55.9182C25.1357 55.9094 25.5614 56.0754 25.8795 56.3798C26.1834 56.6906 26.3563 57.1062 26.3625 57.5408C26.3688 57.9755 26.2079 58.3959 25.9131 58.7153L22.7519 62.011C22.6038 62.1682 22.4261 62.2945 22.2289 62.3827C22.0318 62.4709 21.8192 62.5191 21.6033 62.5247ZM24.5389 66.0052C24.2335 65.6965 24.0583 65.2824 24.0493 64.8482C24.0404 64.4141 24.1985 63.9931 24.4909 63.6721L28.4383 59.5566C28.5895 59.3993 28.7701 59.2733 28.97 59.1859C29.1698 59.0984 29.3849 59.0511 29.603 59.0468C29.8211 59.0424 30.0379 59.0811 30.2411 59.1605C30.4443 59.24 30.6298 59.3587 30.7871 59.5098C31.0913 59.8198 31.2647 60.2348 31.2717 60.669C31.2786 61.1032 31.1184 61.5235 30.8243 61.843L26.8757 65.9596C26.7254 66.1171 26.5455 66.2433 26.3463 66.3311C26.1472 66.419 25.9326 66.4666 25.715 66.4714C25.4974 66.4762 25.281 66.438 25.0781 66.3591C24.8753 66.2801 24.69 66.1619 24.5329 66.0112L24.5389 66.0052ZM31.7856 69.0897C31.4818 69.4057 31.0649 69.5883 30.6266 69.5973C30.1883 69.6063 29.7643 69.441 29.4477 69.1377C29.1385 68.8305 28.9607 68.4152 28.952 67.9794C28.9433 67.5436 29.1042 67.1215 29.4009 66.8022L31.7736 64.3298L31.7808 64.3358C32.0848 64.0209 32.5009 63.839 32.9385 63.8298C33.376 63.8205 33.7995 63.9848 34.1164 64.2866C34.4221 64.5955 34.5977 65.01 34.6068 65.4445C34.616 65.8791 34.458 66.3006 34.1656 66.6221L31.7856 69.0897ZM53.3157 56.5466C53.1685 56.703 52.9914 56.8284 52.795 56.9154C52.5986 57.0024 52.3867 57.0492 52.1719 57.0531H52.1335C51.7052 57.0524 51.2938 56.8854 50.9862 56.5874C50.757 56.3676 50.4501 56.2475 50.1326 56.2535C49.8152 56.2595 49.513 56.391 49.2923 56.6193C49.0716 56.8476 48.9504 57.1541 48.9552 57.4716C48.96 57.7891 49.0904 58.0917 49.3179 58.3133L50.158 59.127C50.3903 59.3544 50.5503 59.6453 50.6182 59.9632C50.686 60.2811 50.6587 60.6119 50.5396 60.9144C50.4205 61.2168 50.215 61.4775 49.9486 61.6638C49.6822 61.8501 49.3668 61.9537 49.0419 61.9618C48.8238 61.9689 48.6067 61.9313 48.4037 61.8512C48.2008 61.7711 48.0165 61.6503 47.8621 61.4961L47.04 60.7088C46.9272 60.5953 46.7928 60.5055 46.6448 60.4447C46.4967 60.3839 46.338 60.3533 46.178 60.3547C46.018 60.3561 45.8599 60.3896 45.7129 60.453C45.566 60.5164 45.4333 60.6086 45.3225 60.7241C45.2117 60.8396 45.1252 60.9761 45.0679 61.1255C45.0107 61.2749 44.9839 61.4343 44.9892 61.5943C44.9944 61.7542 45.0316 61.9115 45.0985 62.0569C45.1655 62.2022 45.2608 62.3327 45.3789 62.4407C45.6926 62.7413 45.8746 63.1537 45.8854 63.5881C45.8944 63.9166 45.8054 64.2405 45.6296 64.5182C45.4538 64.796 45.1992 65.015 44.8983 65.1474C44.5975 65.2798 44.264 65.3196 43.9404 65.2616C43.6169 65.2036 43.3179 65.0505 43.0818 64.8219L42.2608 64.0453L42.2464 64.0309C42.0141 63.8171 41.7068 63.7035 41.3912 63.7146C41.0756 63.7258 40.7772 63.8609 40.5605 64.0907C40.3439 64.3204 40.2265 64.6263 40.2339 64.942C40.2412 65.2577 40.3727 65.5578 40.5998 65.7772C40.7565 65.9248 40.8824 66.102 40.9704 66.2985C41.0584 66.495 41.1066 66.707 41.1123 66.9222C41.1141 67.3604 40.9478 67.7826 40.6478 68.102C40.3423 68.4186 39.9237 68.6011 39.4838 68.6094C39.0439 68.6178 38.6187 68.4512 38.3014 68.1464L36.794 66.7061C37.0229 65.9864 37.0484 65.2174 36.8675 64.4841C36.6866 63.7508 36.3064 63.0818 35.769 62.5511C35.1675 61.9774 34.4033 61.6039 33.5811 61.4817C33.7205 60.8159 33.6882 60.1255 33.4873 59.4756C33.2864 58.8257 32.9235 58.2375 32.4328 57.7664C31.942 57.2953 31.3395 56.9568 30.6819 56.7827C30.0242 56.6086 29.3332 56.6045 28.6736 56.771C28.5241 55.9614 28.126 55.2184 27.5346 54.6455C27.0411 54.1748 26.4368 53.8361 25.7776 53.6609C25.1184 53.4858 24.4257 53.4797 23.7636 53.6434C23.6131 52.8334 23.2147 52.0903 22.6234 51.5166C21.845 50.773 20.8036 50.3681 19.7272 50.3906C18.6509 50.4131 17.6273 50.8611 16.8806 51.6366L16.4833 52.0531L14.0613 51.4974L16.8458 36.0007L17.1746 36.0595C17.7218 36.1602 18.2837 36.1476 18.8258 36.0225C19.3679 35.8974 19.8786 35.6624 20.3263 35.3322L28.3087 29.3397C28.6252 29.1068 28.9875 28.9436 29.3716 28.8608C29.7558 28.7781 30.1531 28.7777 30.5374 28.8596L34.1104 29.8329L30.2278 30.8867C29.0132 31.2303 27.9356 31.9434 27.1445 32.927L22.8947 38.3086C22.1902 39.2129 21.8479 40.3473 21.9345 41.4903C22.0289 42.6219 22.5314 43.6806 23.3484 44.4692C23.8192 44.9233 24.375 45.28 24.9839 45.519C25.5928 45.7579 26.2429 45.8744 26.8969 45.8617C27.5509 45.8489 28.196 45.7073 28.7951 45.4449C29.3943 45.1825 29.9358 44.8044 30.3886 44.3323L35.1654 39.3696C35.2253 39.3082 35.297 39.2596 35.3762 39.2266C35.4554 39.1936 35.5404 39.1769 35.6262 39.1775L37.3065 39.1439C37.3922 39.1409 37.4777 39.1552 37.5578 39.1862C37.6378 39.2171 37.7108 39.264 37.7722 39.324L53.2881 54.229C53.4476 54.382 53.5732 54.5668 53.6566 54.7715C53.7403 54.9632 53.7812 55.1709 53.7766 55.38C53.781 55.5953 53.7425 55.8093 53.6633 56.0096C53.5842 56.2099 53.466 56.3924 53.3157 56.5466ZM60.9261 53.5641C60.8199 53.5809 60.7113 53.5567 60.6223 53.4966C60.5332 53.4365 60.4702 53.3448 60.446 53.2401L56.393 34.9973C56.3812 34.9399 56.381 34.8807 56.3923 34.8232C56.4037 34.7658 56.4263 34.7111 56.459 34.6625C56.4888 34.617 56.5275 34.578 56.5726 34.5477C56.6177 34.5174 56.6685 34.4964 56.7218 34.486L58.3757 34.1932L62.5991 53.2761L60.9261 53.5641ZM69.6106 57.1503L66.4901 57.7072C66.374 57.7289 66.2539 57.7044 66.1555 57.639C66.0571 57.5735 65.9881 57.4722 65.9632 57.3567L60.4532 32.4649C60.439 32.4037 60.4374 32.3401 60.4486 32.2782C60.4597 32.2163 60.4833 32.1573 60.518 32.1049C60.5514 32.0541 60.5948 32.0106 60.6456 31.9772C60.6963 31.9438 60.7534 31.921 60.8133 31.9104L69.6106 30.3382V57.1503Z" fill="#5C5AEA"/>
</svg>
