<svg width="72" height="72" viewBox="0 0 72 72" fill="none" xmlns="http://www.w3.org/2000/svg">
<path d="M71.58 14.844C71.4683 14.7063 71.3275 14.5951 71.1678 14.5184C71.008 14.4416 70.8332 14.4012 70.656 14.4H69.6V1.2C69.6 0.88174 69.4735 0.576515 69.2485 0.351472C69.0235 0.126428 68.7182 0 68.4 0H44.4C44.0817 0 43.7765 0.126428 43.5515 0.351472C43.3264 0.576515 43.2 0.88174 43.2 1.2V14.4H42.144C41.9667 14.4012 41.792 14.4416 41.6322 14.5184C41.4724 14.5951 41.3316 14.7063 41.22 14.844C41.1064 14.9829 41.0257 15.1458 40.9842 15.3204C40.9426 15.495 40.9412 15.6768 40.98 15.852L42.024 20.652C42.0817 20.9208 42.23 21.1617 42.4441 21.3342C42.6582 21.5068 42.925 21.6006 43.2 21.6H69.6C69.8749 21.6006 70.1418 21.5068 70.3559 21.3342C70.5699 21.1617 70.7182 20.9208 70.776 20.652L71.82 15.852C71.8588 15.6768 71.8574 15.495 71.8158 15.3204C71.7742 15.1458 71.6936 14.9829 71.58 14.844ZM45.6 2.4H67.2V14.4H58.8C58.4817 14.4 58.1765 14.5264 57.9515 14.7515C57.7264 14.9765 57.6 15.2817 57.6 15.6H55.2C55.2 15.2817 55.0736 14.9765 54.8485 14.7515C54.6235 14.5264 54.3182 14.4 54 14.4H45.6V2.4ZM68.64 19.2H44.16L43.644 16.8H52.8C52.8 17.1183 52.9264 17.4235 53.1515 17.6485C53.3765 17.8736 53.6817 18 54 18H58.8C59.1182 18 59.4235 17.8736 59.6485 17.6485C59.8736 17.4235 60 17.1183 60 16.8H69.156L68.64 19.2Z" fill="#5C5AEA"/>
<path d="M22.8 48H3.6C2.6461 48.0028 1.73208 48.383 1.05756 49.0575C0.383048 49.7321 0.00284891 50.6461 0 51.6V63.6C0.00284891 64.5539 0.383048 65.4679 1.05756 66.1424C1.73208 66.8169 2.6461 67.1971 3.6 67.2H8.148L7.344 70.512C7.29739 70.689 7.29265 70.8744 7.33014 71.0535C7.36763 71.2326 7.44633 71.4006 7.56 71.544C7.67301 71.687 7.81711 71.8024 7.98137 71.8814C8.14563 71.9604 8.32573 72.001 8.508 72H17.892C18.0743 72.001 18.2544 71.9604 18.4186 71.8814C18.5829 71.8024 18.727 71.687 18.84 71.544C18.9537 71.4006 19.0324 71.2326 19.0699 71.0535C19.1073 70.8744 19.1026 70.689 19.056 70.512L18.252 67.2H22.8C23.7539 67.1971 24.6679 66.8169 25.3424 66.1424C26.0169 65.4679 26.3971 64.5539 26.4 63.6V51.6C26.3971 50.6461 26.0169 49.7321 25.3424 49.0575C24.6679 48.383 23.7539 48.0028 22.8 48ZM10.032 69.6L10.62 67.2H15.78L16.368 69.6H10.032ZM24 63.6C24 63.9182 23.8736 64.2235 23.6485 64.4485C23.4235 64.6736 23.1183 64.8 22.8 64.8H3.6C3.28174 64.8 2.97652 64.6736 2.75147 64.4485C2.52643 64.2235 2.4 63.9182 2.4 63.6V62.4H24V63.6ZM24 60H2.4V51.6C2.4 51.2817 2.52643 50.9765 2.75147 50.7515C2.97652 50.5264 3.28174 50.4 3.6 50.4H22.8C23.1183 50.4 23.4235 50.5264 23.6485 50.7515C23.8736 50.9765 24 51.2817 24 51.6V60Z" fill="#5C5AEA"/>
<path d="M68.4 45.6H58.8C57.8461 45.6028 56.9321 45.983 56.2575 46.6576C55.583 47.3321 55.2028 48.2461 55.2 49.2V68.4C55.2028 69.3539 55.583 70.2679 56.2575 70.9424C56.9321 71.6169 57.8461 71.9971 58.8 72H68.4C69.3539 71.9971 70.2679 71.6169 70.9424 70.9424C71.6169 70.2679 71.9971 69.3539 72 68.4V49.2C71.9971 48.2461 71.6169 47.3321 70.9424 46.6576C70.2679 45.983 69.3539 45.6028 68.4 45.6ZM66 48C66 48.3182 65.8736 48.6235 65.6485 48.8485C65.4235 49.0736 65.1182 49.2 64.8 49.2H62.4C62.0817 49.2 61.7765 49.0736 61.5515 48.8485C61.3264 48.6235 61.2 48.3182 61.2 48H66ZM69.6 68.4C69.6 68.7182 69.4736 69.0235 69.2485 69.2485C69.0235 69.4736 68.7182 69.6 68.4 69.6H58.8C58.4817 69.6 58.1765 69.4736 57.9515 69.2485C57.7264 69.0235 57.6 68.7182 57.6 68.4V49.2C57.6 48.8817 57.7264 48.5765 57.9515 48.3515C58.1765 48.1264 58.4817 48 58.8 48C58.8028 48.9539 59.183 49.8679 59.8575 50.5424C60.5321 51.2169 61.4461 51.5971 62.4 51.6H64.8C65.7539 51.5971 66.6679 51.2169 67.3424 50.5424C68.0169 49.8679 68.3971 48.9539 68.4 48C68.7182 48 69.0235 48.1264 69.2485 48.3515C69.4736 48.5765 69.6 48.8817 69.6 49.2V68.4Z" fill="#5C5AEA"/>
<path d="M18 0H3.6C2.6461 0.00284891 1.73208 0.383048 1.05756 1.05756C0.383048 1.73208 0.00284891 2.6461 0 3.6V22.8C0.00284891 23.7539 0.383048 24.6679 1.05756 25.3424C1.73208 26.0169 2.6461 26.3971 3.6 26.4H18C18.9539 26.3971 19.8679 26.0169 20.5424 25.3424C21.2169 24.6679 21.5971 23.7539 21.6 22.8V3.6C21.5971 2.6461 21.2169 1.73208 20.5424 1.05756C19.8679 0.383048 18.9539 0.00284891 18 0ZM19.2 22.8C19.2 23.1183 19.0736 23.4235 18.8485 23.6485C18.6235 23.8736 18.3183 24 18 24H3.6C3.28174 24 2.97652 23.8736 2.75147 23.6485C2.52643 23.4235 2.4 23.1183 2.4 22.8V3.6C2.4 3.28174 2.52643 2.97652 2.75147 2.75147C2.97652 2.52643 3.28174 2.4 3.6 2.4H18C18.3183 2.4 18.6235 2.52643 18.8485 2.75147C19.0736 2.97652 19.2 3.28174 19.2 3.6V22.8Z" fill="#5C5AEA"/>
<path d="M12 19.2H9.6V21.6H12V19.2Z" fill="#5C5AEA"/>
<path d="M48.144 32.52L45.264 32.16L47.052 29.868C47.2315 29.6367 47.3197 29.3475 47.2998 29.0554C47.2799 28.7633 47.1532 28.4888 46.944 28.284L43.716 25.056C43.5104 24.8481 43.2361 24.7225 42.9444 24.7026C42.6527 24.6827 42.3639 24.77 42.132 24.948L39.84 26.736L39.48 23.856C39.4414 23.5647 39.2986 23.2972 39.078 23.103C38.8573 22.9089 38.5739 22.8012 38.28 22.8H33.72C33.4261 22.8012 33.1426 22.9089 32.922 23.103C32.7014 23.2972 32.5586 23.5647 32.52 23.856L32.16 26.736L29.868 24.948C29.6361 24.77 29.3472 24.6827 29.0556 24.7026C28.7639 24.7225 28.4896 24.8481 28.284 25.056L25.056 28.284C24.8467 28.4888 24.7201 28.7633 24.7002 29.0554C24.6803 29.3475 24.7685 29.6367 24.948 29.868L26.736 32.16L23.856 32.52C23.5647 32.5586 23.2972 32.7014 23.103 32.922C22.9089 33.1426 22.8012 33.4261 22.8 33.72V38.28C22.8012 38.5739 22.9089 38.8573 23.103 39.078C23.2972 39.2986 23.5647 39.4414 23.856 39.48L26.736 39.84L24.948 42.132C24.7685 42.3633 24.6803 42.6525 24.7002 42.9446C24.7201 43.2367 24.8467 43.5112 25.056 43.716L28.284 46.944C28.4896 47.1518 28.7639 47.2775 29.0556 47.2974C29.3472 47.3173 29.6361 47.23 29.868 47.052L32.16 45.264L32.52 48.144C32.5586 48.4353 32.7014 48.7028 32.922 48.897C33.1426 49.0911 33.4261 49.1988 33.72 49.2H38.28C38.5739 49.1988 38.8573 49.0911 39.078 48.897C39.2986 48.7028 39.4414 48.4353 39.48 48.144L39.84 45.264L42.132 47.052C42.3639 47.23 42.6527 47.3173 42.9444 47.2974C43.2361 47.2775 43.5104 47.1518 43.716 46.944L46.944 43.716C47.1532 43.5112 47.2799 43.2367 47.2998 42.9446C47.3197 42.6525 47.2315 42.3633 47.052 42.132L45.264 39.84L48.144 39.48C48.4353 39.4414 48.7028 39.2986 48.897 39.078C49.0911 38.8573 49.1988 38.5739 49.2 38.28V33.72C49.1988 33.4261 49.0911 33.1426 48.897 32.922C48.7028 32.7014 48.4353 32.5586 48.144 32.52ZM46.8 37.224L43.956 37.584C43.7324 37.6103 43.521 37.6999 43.3466 37.8423C43.1723 37.9848 43.0423 38.1741 42.972 38.388C42.864 38.676 42.744 38.964 42.612 39.24C42.5113 39.4407 42.4702 39.666 42.4936 39.8893C42.517 40.1126 42.6039 40.3245 42.744 40.5L44.508 42.768L42.768 44.508L40.5 42.744C40.3245 42.6039 40.1126 42.517 39.8893 42.4936C39.666 42.4702 39.4407 42.5113 39.24 42.612C38.9582 42.7464 38.6698 42.8666 38.376 42.972C38.1647 43.0448 37.9783 43.1758 37.8382 43.3499C37.6981 43.5239 37.61 43.734 37.584 43.956L37.224 46.8H34.776L34.416 43.956C34.39 43.734 34.3019 43.5239 34.1618 43.3499C34.0217 43.1758 33.8353 43.0448 33.624 42.972C33.3301 42.8666 33.0418 42.7464 32.76 42.612C32.5593 42.5113 32.334 42.4702 32.1107 42.4936C31.8874 42.517 31.6754 42.6039 31.5 42.744L29.232 44.508L27.492 42.768L29.256 40.5C29.3961 40.3245 29.483 40.1126 29.5064 39.8893C29.5298 39.666 29.4887 39.4407 29.388 39.24C29.256 38.964 29.136 38.676 29.028 38.388C28.9577 38.1741 28.8277 37.9848 28.6534 37.8423C28.479 37.6999 28.2676 37.6103 28.044 37.584L25.2 37.224V34.776L28.044 34.416C28.2676 34.3897 28.479 34.3001 28.6534 34.1576C28.8277 34.0152 28.9577 33.8259 29.028 33.612C29.136 33.324 29.256 33.036 29.388 32.76C29.4887 32.5593 29.5298 32.334 29.5064 32.1107C29.483 31.8874 29.3961 31.6754 29.256 31.5L27.492 29.232L29.232 27.492L31.5 29.256C31.6754 29.3961 31.8874 29.483 32.1107 29.5064C32.334 29.5298 32.5593 29.4887 32.76 29.388C33.036 29.256 33.324 29.136 33.612 29.028C33.8259 28.9577 34.0152 28.8277 34.1576 28.6534C34.3001 28.479 34.3897 28.2676 34.416 28.044L34.776 25.2H37.224L37.584 28.044C37.6103 28.2676 37.6999 28.479 37.8423 28.6534C37.9848 28.8277 38.1741 28.9577 38.388 29.028C38.676 29.136 38.964 29.256 39.24 29.388C39.4407 29.4887 39.666 29.5298 39.8893 29.5064C40.1126 29.483 40.3245 29.3961 40.5 29.256L42.768 27.492L44.508 29.232L42.744 31.5C42.6039 31.6754 42.517 31.8874 42.4936 32.1107C42.4702 32.334 42.5113 32.5593 42.612 32.76C42.744 33.036 42.864 33.324 42.972 33.612C43.0423 33.8259 43.1723 34.0152 43.3466 34.1576C43.521 34.3001 43.7324 34.3897 43.956 34.416L46.8 34.776V37.224Z" fill="#5C5AEA"/>
<path d="M42 36C42 34.8133 41.6481 33.6533 40.9888 32.6666C40.3295 31.6799 39.3925 30.9108 38.2961 30.4567C37.1997 30.0026 35.9933 29.8838 34.8295 30.1153C33.6656 30.3468 32.5965 30.9182 31.7574 31.7574C30.9182 32.5965 30.3468 33.6656 30.1153 34.8295C29.8838 35.9933 30.0026 37.1997 30.4567 38.2961C30.9108 39.3925 31.6799 40.3295 32.6666 40.9888C33.6533 41.6481 34.8133 42 36 42C37.5907 41.9981 39.1157 41.3653 40.2405 40.2405C41.3653 39.1157 41.9981 37.5907 42 36ZM36 39.6C35.288 39.6 34.592 39.3889 33.9999 38.9933C33.4079 38.5977 32.9465 38.0355 32.674 37.3777C32.4016 36.7198 32.3303 35.996 32.4692 35.2977C32.6081 34.5993 32.9509 33.9579 33.4544 33.4544C33.9579 32.9509 34.5993 32.6081 35.2977 32.4692C35.996 32.3303 36.7198 32.4016 37.3777 32.674C38.0355 32.9465 38.5977 33.4079 38.9933 33.9999C39.3889 34.592 39.6 35.288 39.6 36C39.6 36.9548 39.2207 37.8704 38.5456 38.5456C37.8704 39.2207 36.9548 39.6 36 39.6Z" fill="#5C5AEA"/>
<path d="M51.6 33.6V36H56.4C56.7182 36 57.0235 35.8736 57.2485 35.6485C57.4736 35.4235 57.6 35.1183 57.6 34.8V24H55.2V33.6H51.6Z" fill="#5C5AEA"/>
<path d="M10.8 36V45.6H13.2V37.2H20.4V34.8H12C11.6817 34.8 11.3765 34.9264 11.1515 35.1515C10.9264 35.3765 10.8 35.6817 10.8 36Z" fill="#5C5AEA"/>
<path d="M34.8 20.4H37.2V13.2C37.2 12.8817 37.0736 12.5765 36.8485 12.3515C36.6235 12.1264 36.3182 12 36 12H24V14.4H34.8V20.4Z" fill="#5C5AEA"/>
<path d="M37.2 51.6H34.8V61.2C34.8 61.5182 34.9264 61.8235 35.1515 62.0485C35.3765 62.2736 35.6817 62.4 36 62.4H52.8V60H37.2V51.6Z" fill="#5C5AEA"/>
</svg>
